<?xml version='1.0' encoding='utf-8'?>
<svg xmlns="http://www.w3.org/2000/svg" viewBox="0 0 500 500"><defs><style>.a{fill:none;}.b{isolation:isolate;}.c{fill:#13a562;}.d,.t{fill:#50667e;}.e{fill:#ffb733;}.f{fill:#ffd55c;}.g{fill:#ff6d3b;}.h{fill:#f2f9ff;}.i{fill:#20364d;}.j{fill:#2a445e;}.k,.l{fill:#21d8de;}.l,.t{mix-blend-mode:screen;}.m{fill:#fff;}.n{fill:#b8d1e6;}.o,.s{fill:#cee2f2;}.p{fill:#06b2b8;}.q{fill:#ffc640;}.r{clip-path:url(#a);}.s{mix-blend-mode:multiply;}</style><clipPath id="a"><polygon class="a" points="69.313 238.958 69.313 237.735 65.518 237.735 65.518 238.958 65.518 243.139 78.033 243.139 78.033 238.958 69.313 238.958"/></clipPath></defs><title>116</title><g class="b"><rect class="c" width="500" height="500"/><path class="d" d="M436.7023,278.89618H349.16549v83.4782a4.06044,4.06044,0,0,0,4.05945,4.04877h79.42193a4.05644,4.05644,0,0,0,4.05543-4.04877Z"/><path class="e" d="M358.87157,287.5866h29.15759a.70929.70929,0,0,1,.70929.70929v9.38037a.70846.70846,0,0,1-.70846.70846H358.87224a.70929.70929,0,0,1-.70929-.70929v-9.3802A.70862.70862,0,0,1,358.87157,287.5866Z"/><path class="f" d="M373.44945,287.5866H358.87224a.71123.71123,0,0,0-.70929.70846v9.381a.7103.7103,0,0,0,.70929.70863h14.57721Z"/><path class="g" d="M398.44052,287.5866h9.3752a.706.706,0,0,1,.706.706v9.3837a.70846.70846,0,0,1-.70846.70846h-9.37286a.70846.70846,0,0,1-.70846-.70846v-9.381A.70862.70862,0,0,1,398.44052,287.5866Z"/><path class="h" d="M418.22208,287.5866h9.37436a.70512.70512,0,0,1,.70512.70512v9.38454a.70846.70846,0,0,1-.70846.70846h-9.37453a.70512.70512,0,0,1-.70512-.70512v-9.38437A.70862.70862,0,0,1,418.22208,287.5866Z"/><path class="h" d="M368.95189,317.46266a.70194.70194,0,0,1-.70429.70195h-9.37536a.70569.70569,0,0,1-.70929-.70195V308.08a.71088.71088,0,0,1,.70929-.70678h9.37536a.70713.70713,0,0,1,.70429.70678Z"/><path class="h" d="M388.73845,317.46266a.70622.70622,0,0,1-.70929.70195h-9.37535a.7055.7055,0,0,1-.70847-.70195V308.08a.7107.7107,0,0,1,.70847-.70678h9.37535a.71142.71142,0,0,1,.70929.70678Z"/><path class="h" d="M408.52167,317.46266a.7055.7055,0,0,1-.70845.70195h-9.37537a.70389.70389,0,0,1-.706-.70195V308.08a.7091.7091,0,0,1,.706-.70678h9.37537a.7107.7107,0,0,1,.70845.70678Z"/><path class="h" d="M418.21541,307.37317h9.381a.70512.70512,0,0,1,.70512.70512v9.3812a.70512.70512,0,0,1-.70512.70512h-9.37787a.70512.70512,0,0,1-.70512-.70512v-9.38437A.702.702,0,0,1,418.21541,307.37317Z"/><path class="h" d="M368.95189,337.24271a.70879.70879,0,0,1-.70429.71h-9.37536a.71252.71252,0,0,1-.70929-.71v-9.3762a.71015.71015,0,0,1,.70929-.70845h9.37536a.70643.70643,0,0,1,.70429.70845Z"/><path class="h" d="M378.65463,327.15806H388.03a.70847.70847,0,0,1,.70847.70847v9.37769a.70846.70846,0,0,1-.70846.70846h-9.37536a.70929.70929,0,0,1-.70929-.70929v-9.376A.70929.70929,0,0,1,378.65463,327.15806Z"/><path class="i" d="M408.52167,337.24271a.71234.71234,0,0,1-.70845.71h-9.37537a.71075.71075,0,0,1-.706-.71v-9.3762a.70838.70838,0,0,1,.706-.70845h9.37537a.71.71,0,0,1,.70845.70845Z"/><path class="h" d="M368.95189,357.02744a.70514.70514,0,0,1-.70429.707h-9.37536a.70886.70886,0,0,1-.70929-.707v-9.37453a.71155.71155,0,0,1,.70929-.71h9.37536a.70783.70783,0,0,1,.70429.71Z"/><path class="h" d="M378.65229,346.943H388.03a.70847.70847,0,0,1,.70847.70847v9.37451a.70847.70847,0,0,1-.70847.70847H378.6553a.71.71,0,0,1-.71-.71v-9.37453A.707.707,0,0,1,378.65229,346.943Z"/><path class="i" d="M408.52167,357.02744a.70868.70868,0,0,1-.70845.707h-9.37537a.70709.70709,0,0,1-.706-.707v-9.37453a.70978.70978,0,0,1,.706-.71h9.37537a.71137.71137,0,0,1,.70845.71Z"/><path class="i" d="M428.30156,357.02744a.70691.70691,0,0,1-.70512.707h-9.37786a.70691.70691,0,0,1-.70512-.707v-9.37453a.70961.70961,0,0,1,.70512-.71h9.37786a.7096.7096,0,0,1,.70512.71Z"/><path class="i" d="M428.30156,337.24271a.71057.71057,0,0,1-.70512.71h-9.37786a.71058.71058,0,0,1-.70512-.71v-9.3762a.70821.70821,0,0,1,.70512-.70845h9.37786a.7082.7082,0,0,1,.70512.70845Z"/><path class="j" d="M436.7023,243.98923a4.05928,4.05928,0,0,0-4.05543-4.057H353.22494a4.06328,4.06328,0,0,0-4.05945,4.057v34.907H436.7023Z"/><path class="i" d="M358.87224,271.89468a2.39519,2.39519,0,0,1-2.39488-2.39421V249.33283a2.39519,2.39519,0,0,1,2.39488-2.39237h68.7242a2.39914,2.39914,0,0,1,2.394,2.39237v20.16764a2.39661,2.39661,0,0,1-2.394,2.39421Z"/><path class="k" d="M358.87224,248.62771a.70465.70465,0,0,0-.70929.70512v20.16764a.7103.7103,0,0,0,.70929.71012h68.7242a.70889.70889,0,0,0,.70512-.71012V249.33283a.70321.70321,0,0,0-.70512-.70512Z"/><path class="l" d="M358.87224,248.62771a.70465.70465,0,0,0-.70929.70512v20.16764a.7103.7103,0,0,0,.70929.71012h34.3621V248.62771Z"/><rect class="i" x="349.16549" y="277.2106" width="87.53681" height="1.68558"/><path class="m" d="M327.0541,366.42315V150.39069a19.24746,19.24746,0,0,0-19.2352-19.23921H164.80124V366.42315Z"/><rect class="d" x="182.20744" y="273.86528" width="40.34011" height="31.84999"/><rect class="n" x="230.98715" y="273.86528" width="78.66076" height="3.65802"/><rect class="n" x="230.98715" y="283.00683" width="78.66076" height="3.65635"/><rect class="n" x="230.98715" y="292.14854" width="39.32962" height="3.65468"/><rect class="d" x="182.20744" y="317.59457" width="127.44047" height="3.65468"/><rect class="n" x="182.20744" y="326.73462" width="127.44047" height="3.65635"/><rect class="n" x="182.20744" y="335.8745" width="63.72099" height="3.65635"/><rect class="n" x="187.90376" y="240.93076" width="20.29373" height="19.51772"/><rect class="n" x="215.61275" y="240.93076" width="20.28722" height="13.44115"/><rect class="n" x="243.31607" y="240.93076" width="20.28171" height="11.17902"/><rect class="n" x="271.01457" y="240.93076" width="20.29221" height="17.93137"/><rect class="o" x="187.90376" y="186.82029" width="3.71072" height="53.48824"/><rect class="k" x="193.44116" y="166.19835" width="3.69621" height="74.11017"/><rect class="j" x="198.96388" y="193.85448" width="3.71173" height="46.45405"/><rect class="g" x="204.49143" y="178.54513" width="3.70606" height="61.7634"/><rect class="o" x="215.61275" y="225.10341" width="3.70272" height="15.20511"/><rect class="k" x="221.14281" y="205.72244" width="3.70438" height="34.58608"/><rect class="j" x="226.66553" y="212.14257" width="3.71005" height="28.16595"/><rect class="g" x="232.19492" y="189.28771" width="3.70505" height="51.02082"/><rect class="o" x="243.31607" y="222.10832" width="3.70272" height="18.20021"/><rect class="k" x="248.84546" y="225.37058" width="3.70021" height="14.93794"/><rect class="j" x="254.36818" y="197.84955" width="3.70922" height="42.45898"/><rect class="g" x="259.90391" y="210.79571" width="3.69388" height="29.51282"/><rect class="o" x="271.01457" y="172.1837" width="3.71171" height="68.12482"/><rect class="k" x="276.54395" y="193.58414" width="3.71156" height="46.72439"/><rect class="j" x="282.07717" y="214.23876" width="3.69955" height="26.06977"/><rect class="g" x="287.60656" y="182.75033" width="3.70021" height="57.55819"/><path class="j" d="M306.63564,183.10706a3.02364,3.02364,0,1,0,3.01227,3.02445A3.02941,3.02941,0,0,0,306.63564,183.10706Z"/><path class="k" d="M306.63564,200.25843a3.02438,3.02438,0,1,0,3.01227,3.02428A3.02,3.02,0,0,0,306.63564,200.25843Z"/><path class="o" d="M306.63564,217.4113a3.01469,3.01469,0,1,0,3.01227,3.02277A3.01764,3.01764,0,0,0,306.63564,217.4113Z"/><path class="g" d="M306.63564,234.54632a3.02279,3.02279,0,1,0,3.01227,3.02278A3.028,3.028,0,0,0,306.63564,234.54632Z"/><polygon class="d" points="184.358 240.307 184.358 162.684 182.207 162.684 182.207 163.321 183.721 163.321 183.721 173.768 182.207 173.768 182.207 174.418 183.721 174.418 183.721 184.864 182.207 184.864 182.207 185.501 183.721 185.501 183.721 195.947 182.207 195.947 182.207 196.596 183.721 196.596 183.721 207.043 182.207 207.043 182.207 207.679 183.721 207.679 183.721 218.128 182.207 218.128 182.207 218.775 183.721 218.775 183.721 229.222 182.207 229.222 182.207 229.859 183.721 229.859 183.721 240.931 297.294 240.931 297.294 240.307 184.358 240.307"/><path class="n" d="M145.56036,131.15148a19.24817,19.24817,0,0,0-19.236,19.23921H288.57469a19.24681,19.24681,0,0,1,19.24421-19.23921Z"/><polygon class="k" points="190.438 338.503 190.433 390.495 282.35 390.49 282.34 338.495 190.438 338.503"/><path class="p" d="M226.31547,358.55842H214.79606l.00484,1.71494h10.93387A13.32222,13.32222,0,0,1,226.31547,358.55842Z"/><path class="p" d="M247.58232,363.63819c.00817.285.02618.56353.02618.85505.008.28986-.018.57487-.02852.85822l14.40378-.0015v-1.71177Z"/><path class="p" d="M225.17207,364.49324c.00167-.28668.02118-.57.03752-.85171H210.79933l.00484,1.70993h14.40376C225.19742,365.06811,225.17374,364.78476,225.17207,364.49324Z"/><path class="p" d="M257.983,360.27169l.004-1.71493H246.47244a14.42436,14.42436,0,0,1,.58054,1.71493Z"/><path class="p" d="M246.47244,370.4379l11.51624-.00334-.00167-1.7166H247.053A15.3992,15.3992,0,0,1,246.47244,370.4379Z"/><path class="p" d="M225.73477,368.7213l-10.93387.0015.00084,1.71343,11.50956-.00333A14.18907,14.18907,0,0,1,225.73477,368.7213Z"/><path class="p" d="M235.82592,357.97538l.00417,4.95919c-1.6589-.47881-2.94956-1.07319-2.94956-2.40871C232.88053,359.11862,234.10532,358.09262,235.82592,357.97538Zm1.4853,7.565.00333,5.56191c2.311-.25417,3.09282-1.63689,3.09766-2.80781C240.41221,366.70333,239.014,366.05341,237.31122,365.54042Zm13.49751-1.04551c.00167,9.28814-6.44948,16.81748-14.41678,16.82232-7.96245,0-14.4161-7.53418-14.4161-16.81915-.004-9.298,6.45365-16.82232,14.41277-16.824C244.35107,347.67409,250.80706,355.1986,250.80873,364.49491Zm-8.30368,3.63834c-.01134-3.1677-2.67755-4.10414-5.18883-4.79959l-.00417-5.31592a5.9719,5.9719,0,0,1,3.60748,1.87788l1.20678-1.487a7.32212,7.32212,0,0,0-4.81426-2.22977l-.00083-2.24094h-1.47629l-.00651,2.21493c-2.912.21013-5.03423,1.98377-5.0309,4.49506,0,2.99192,2.561,3.82095,5.0284,4.50656l.00417,5.91364a6.66229,6.66229,0,0,1-4.32745-2.29314l-1.21328,1.56667a7.90787,7.90787,0,0,0,5.54073,2.55381l-.00667,2.15305h1.49113v-2.15305C241.08164,372.61864,242.49688,370.34167,242.50505,368.13325Z"/><path class="p" d="M266.88024,341.26213H205.89617l-12.69116.00334.00317,12.69533.00166,21.07956-.00166,12.69367h12.69617l60.97756-.00651h12.70516l-.00584-12.6985V353.951l-.00483-12.692Zm9.93806,33.49155a11.03212,11.03212,0,0,0-6.87943,3.33231,11.1586,11.1586,0,0,0-3.32,6.8941l-60.44822.00317a11.16662,11.16662,0,0,0-3.31847-6.89244,11.03588,11.03588,0,0,0-6.8916-3.3273V354.236a11.59024,11.59024,0,0,0,10.2044-10.23125l60.45055-.00484a11.14745,11.14745,0,0,0,3.32331,6.90061,11.0352,11.0352,0,0,0,6.88509,3.33064Z"/><path class="e" d="M172.61059,330.386a12.36879,12.36879,0,1,1-12.36545-12.36145A12.37343,12.37343,0,0,1,172.61059,330.386Z"/><path class="f" d="M172.61059,328.93487a12.36879,12.36879,0,1,1-12.36545-12.36312A12.37307,12.37307,0,0,1,172.61059,328.93487Z"/><path class="q" d="M160.24514,338.19866a9.26213,9.26213,0,1,1,9.26379-9.26379A9.26481,9.26481,0,0,1,160.24514,338.19866Z"/><path class="e" d="M151.97082,329.93a9.2544,9.2544,0,0,1,15.29784-7.01468,9.25451,9.25451,0,1,0-13.0594,13.04072A9.24659,9.24659,0,0,1,151.97082,329.93Z"/><path class="e" d="M210.95809,298.8732a12.36762,12.36762,0,1,1-12.36395-12.36145A12.37286,12.37286,0,0,1,210.95809,298.8732Z"/><path class="f" d="M210.95809,297.42043A12.36762,12.36762,0,1,1,198.59414,285.059,12.37179,12.37179,0,0,1,210.95809,297.42043Z"/><path class="q" d="M198.59414,306.68589a9.26379,9.26379,0,1,1,9.26463-9.26546A9.26535,9.26535,0,0,1,198.59414,306.68589Z"/><path class="e" d="M190.319,298.41724a9.25378,9.25378,0,0,1,15.29718-7.01618,9.25447,9.25447,0,1,0-13.05773,13.04222A9.25329,9.25329,0,0,1,190.319,298.41724Z"/><path class="e" d="M233.13136,381.6251a12.36763,12.36763,0,1,1-12.36562-12.36146A12.37461,12.37461,0,0,1,233.13136,381.6251Z"/><path class="f" d="M233.13136,380.17233a12.36763,12.36763,0,1,1-12.36562-12.36145A12.3746,12.3746,0,0,1,233.13136,380.17233Z"/><path class="q" d="M220.76574,389.43762a9.263,9.263,0,1,1,9.26462-9.26529A9.26606,9.26606,0,0,1,220.76574,389.43762Z"/><path class="e" d="M212.49058,381.169a9.2564,9.2564,0,0,1,15.29884-7.01785,9.25476,9.25476,0,1,0-13.05857,13.04222A9.24586,9.24586,0,0,1,212.49058,381.169Z"/><rect class="j" x="273.83704" y="394.39047" width="102.47725" height="9.96558"/><rect class="j" x="379.63676" y="394.39047" width="9.96324" height="9.96558"/><polygon class="d" points="260.669 400.556 260.669 398.187 273.837 394.39 273.837 404.356 260.669 400.556"/><polygon class="m" points="258.077 399.597 258.077 399.153 260.669 398.434 260.669 400.311 258.077 399.597"/><rect class="m" x="376.31429" y="395.33992" width="3.32247" height="8.06185"/><polygon class="d" points="367.233 406.727 365.828 404.356 375.321 404.356 375.321 406.727 367.233 406.727"/><rect class="j" x="333.6355" y="406.72741" width="42.67879" height="1.18243"/><path class="d" d="M339.88869,406.72741h-3.825a1.99516,1.99516,0,0,1,3.825,0Z"/><rect class="m" x="315.98081" y="394.39047" width="1.24197" height="9.96558"/><path class="e" d="M184.40368,197.39842v85.02219H64.26791a5.04529,5.04529,0,0,1-5.04808-5.04891V197.39842a3.14764,3.14764,0,0,1,3.16937-3.171h1.574v-6.33857a3.18474,3.18474,0,0,1,3.17921-3.16771h34.80506a3.18191,3.18191,0,0,1,3.171,3.16771v6.33857h76.11579a3.15182,3.15182,0,0,1,3.16937,3.171Z"/><rect class="m" x="74.10657" y="202.2909" width="111.61713" height="80.13288"/><path class="f" d="M194.49967,211.13443V277.3717a5.054,5.054,0,0,1-5.04791,5.04891H64.26791a5.04652,5.04652,0,0,0,5.04558-5.03257V211.13443a3.13269,3.13269,0,0,1,.92659-2.24428,3.16433,3.16433,0,0,1,2.24511-.9266h76.11429V201.628a3.15578,3.15578,0,0,1,3.17254-3.17088h34.80439a3.19212,3.19212,0,0,1,2.24344.9251,3.15766,3.15766,0,0,1,.93227,2.24578v6.33557h1.57418a3.17356,3.17356,0,0,1,3.17337,3.17088Z"/><rect class="q" x="69.31349" y="274.92396" width="125.18619" height="2.46409"/><rect class="m" x="68.13673" y="190.42627" width="32.80994" height="3.83697"/><rect class="k" x="92.08513" y="190.42627" width="8.86153" height="3.83697"/><rect class="n" x="69.70424" y="192.40338" width="18.89482" height="0.98363"/><rect class="m" x="69.31349" y="219.47646" width="39.37183" height="28.1838"/><rect class="d" x="72.51538" y="223.36729" width="10.43638" height="8.24097"/><rect class="n" x="85.13333" y="223.36729" width="20.35159" height="0.94294"/><rect class="n" x="85.13333" y="225.73048" width="20.35159" height="0.94794"/><rect class="n" x="85.13333" y="228.09534" width="10.17655" height="0.94611"/><g class="r"><path class="d" d="M66.20349,240.74831v-.03586a2.28417,2.28417,0,0,1,2.2883-2.28664H79.39314a2.615,2.615,0,0,1,2.61484,2.61068v.02936a2.60929,2.60929,0,0,1-2.61484,2.61068h-8.794v-.482h8.794a2.1284,2.1284,0,0,0,2.12786-2.1287v-.02936a2.12556,2.12556,0,0,0-2.12786-2.12853H68.49179a1.81535,1.81535,0,0,0-1.80533,1.80449v.03586a1.807,1.807,0,0,0,1.80533,1.80616H75.9209a1.47932,1.47932,0,0,0,1.48129-1.48379v-.03419a1.47647,1.47647,0,0,0-1.48129-1.47711H70.56262v-.48865H75.9209a1.96971,1.96971,0,0,1,1.3924.57654,1.94449,1.94449,0,0,1,.575,1.38922v.03419a1.937,1.937,0,0,1-.575,1.3909,1.96275,1.96275,0,0,1-1.3924.57653H68.49179a2.28671,2.28671,0,0,1-2.2883-2.2898Z"/></g><path class="d" d="M132.40257,378.65268a38.06531,38.06531,0,1,1-26.91848-64.98146V351.736Z"/><path class="g" d="M143.5489,351.736H105.48409V313.67122A38.06578,38.06578,0,0,1,143.5489,351.736Z"/><path class="m" d="M143.5489,351.736a37.954,37.954,0,0,1-11.14633,26.91664L105.48409,351.736Z"/><path class="d" d="M437.87656,223.106a2.047,2.047,0,0,1-1.00665-.25817l-17.876-9.605a47.50633,47.50633,0,0,0-22.47212-5.6588H317.94341v-4.26041h78.57838a51.63217,51.63217,0,0,1,24.48675,6.17163l17.87767,9.60418a2.131,2.131,0,0,1-1.00965,4.00658Z"/><path class="d" d="M315.695,223.106a2.063,2.063,0,0,0,1.00814-.25817l17.8745-9.605a47.50634,47.50634,0,0,1,22.47129-5.6588h78.57838v-4.26041H357.0489a51.64513,51.64513,0,0,0-24.48842,6.17163l-17.876,9.60418A2.13075,2.13075,0,0,0,315.695,223.106Z"/><path class="i" d="M371.18649,206.71442h0a5.59885,5.59885,0,0,1,11.1977,0h4.25891a9.85734,9.85734,0,0,0-19.71468,0h4.25807Z"/><path class="j" d="M353.61486,185.75443H335.51255a17.62313,17.62313,0,0,0-17.56914,17.56914v4.79392a17.624,17.624,0,0,0,17.56914,17.57313h18.10231a17.624,17.624,0,0,0,17.57163-17.57313v-4.79392A17.62311,17.62311,0,0,0,353.61486,185.75443Zm13.31356,22.36306a13.33158,13.33158,0,0,1-13.31356,13.31339H335.51255a13.32713,13.32713,0,0,1-13.31023-13.31339v-4.79392a13.32629,13.32629,0,0,1,13.31023-13.3094h18.10231a13.33074,13.33074,0,0,1,13.31356,13.3094Z"/><path class="j" d="M418.05749,185.75443H399.955a17.62348,17.62348,0,0,0-17.57081,17.56914v4.79392A17.62432,17.62432,0,0,0,399.955,225.69062h18.10249a17.62357,17.62357,0,0,0,17.56979-17.57313v-4.79392A17.62273,17.62273,0,0,0,418.05749,185.75443Zm13.30921,22.36306a13.32894,13.32894,0,0,1-13.30921,13.31339H399.955a13.32962,13.32962,0,0,1-13.3119-13.31339v-4.79392a13.32878,13.32878,0,0,1,13.3119-13.3094h18.10249a13.3281,13.3281,0,0,1,13.30921,13.3094Z"/><path class="s" d="M335.51171,190.01417h18.10648a13.31023,13.31023,0,0,1,13.31023,13.31023v4.79308a13.3134,13.3134,0,0,1-13.3134,13.3134H335.51571a13.3134,13.3134,0,0,1-13.3134-13.3134v-4.79392a13.30939,13.30939,0,0,1,13.30939-13.30939Z"/><path class="t" d="M342.17767,190.01417v31.41671h-6.66512a13.32713,13.32713,0,0,1-13.31023-13.31339v-4.79392a13.32629,13.32629,0,0,1,13.31023-13.3094Z"/><rect class="t" x="343.13945" y="190.01417" width="1.30134" height="31.41671"/><path class="s" d="M399.95232,190.01417h18.10249a13.3119,13.3119,0,0,1,13.3119,13.3119v4.79142a13.3134,13.3134,0,0,1-13.3134,13.3134H399.9565a13.3134,13.3134,0,0,1-13.3134-13.3134v-4.7941A13.30922,13.30922,0,0,1,399.95232,190.01417Z"/><path class="t" d="M406.61945,190.01417v31.41671H399.955a13.32962,13.32962,0,0,1-13.3119-13.31339v-4.79392a13.32878,13.32878,0,0,1,13.3119-13.3094Z"/><rect class="t" x="407.5819" y="190.01417" width="1.29968" height="31.41671"/></g></svg>