<?xml version='1.0' encoding='utf-8'?>
<svg xmlns="http://www.w3.org/2000/svg" version="1.0" width="6000.000000pt" height="4000.000000pt" viewBox="0 0 6000.000000 4000.000000" preserveAspectRatio="xMidYMid meet" id="svg16"> <metadata id="metadata22"> </metadata> <defs id="defs20"/> <g transform="translate(0.000000,4000.000000) scale(0.100000,-0.100000)" fill="#000000" stroke="none" id="g14"/> <g id="layer20" style="display:inline"> <rect style="display:inline;opacity:0.69899998;vector-effect:none;fill:#9eabb0;fill-opacity:1;fill-rule:evenodd;stroke:#3366cc;stroke-width:0;stroke-linecap:round;stroke-linejoin:miter;stroke-miterlimit:4;stroke-dasharray:none;stroke-dashoffset:0;stroke-opacity:1;paint-order:normal" id="rect898" width="0" height="0" x="5186.4414" y="3664.8086"/> </g> <g id="layer1"> <path d="m 3970.5383,837.2037 c -4.1391,4.3629 -7.5143,8.19726 -7.5143,8.5277 0,0.39656 -0.382,0.66089 -0.7641,0.66089 -0.4458,0 -1.8465,1.19012 -3.0565,2.71057 -3.8845,4.62736 -5.0943,5.94958 -5.0943,5.61903 0,-0.19845 -0.9552,0.59489 -2.1014,1.78467 -1.2098,1.19001 -2.0376,2.31401 -1.9103,2.57835 0.1276,0.33044 -0.064,0.52889 -0.4458,0.52889 -0.8278,0 -6.3679,5.6848 -6.3679,6.61058 0,0.33056 -0.382,0.66101 -0.8915,0.66101 -0.5093,0 -1.0826,0.46278 -1.2735,1.05755 -0.1911,0.5289 -0.6369,0.79345 -1.019,0.59512 -0.3184,-0.19833 -0.6366,-0.066 -0.6366,0.26433 0,1.19012 -3.6934,5.42069 -7.5142,8.65993 -3.4386,2.84268 -31.3298,31.73081 -31.3298,32.39192 0,0.39667 -0.2546,0.66123 -0.5094,0.66123 -0.3184,0 -4.8396,4.2968 -10.0613,9.58526 -5.158,5.28858 -9.9338,9.71771 -10.507,9.91594 -0.5731,0.19833 -1.4009,1.12389 -1.8466,1.98312 -0.4458,0.92567 -1.0827,1.65278 -1.4009,1.65278 -0.2547,0 -0.5096,0.46267 -0.5096,0.99156 0,0.52889 -0.2546,0.92534 -0.5094,0.85923 -0.6368,-0.26434 -5.8583,5.42091 -5.8583,6.34625 0,0.33055 -0.1276,0.46289 -0.3185,0.26456 -0.1909,-0.19834 -9.1698,8.65992 -19.9313,19.69964 -10.7618,11.0396 -30.5657,31.40036 -44.0658,45.21649 -13.4997,13.8161 -35.7873,36.7551 -49.6057,50.9017 -13.7544,14.2128 -25.153,25.7812 -25.2803,25.7812 -0.1276,0 -3.3749,3.1733 -7.1957,7.0736 -3.8206,3.9662 -8.0871,8.2632 -9.5517,9.6515 -1.4647,1.388 -2.6109,2.8425 -2.6109,3.173 0,0.3306 -0.4456,0.595 -0.9552,0.595 -0.5094,0 -0.8915,0.2645 -0.764,0.5288 0.064,0.2644 -6.3043,7.0732 -14.1367,15.0062 -7.8325,7.9989 -18.9763,19.3029 -24.7075,25.1862 -5.7309,5.8836 -11.3347,11.5688 -12.4808,12.6926 -1.0827,1.1237 -3.184,3.2391 -4.5849,4.6932 -1.4011,1.5207 -2.7383,2.7106 -2.9929,2.7106 -0.3184,0 -0.5095,0.4629 -0.5095,0.9916 0,0.5289 -0.4457,0.9915 -0.9551,0.9915 -0.5095,0 -0.9551,0.2646 -0.9551,0.661 0,0.9255 -2.3562,3.3055 -2.802,2.7766 -0.191,-0.1983 -0.382,-0.067 -0.382,0.3306 0,0.3303 -1.2736,2.0492 -2.8656,3.7019 -1.5919,1.7188 -2.8655,2.9749 -2.8655,2.7765 0,-0.1984 -0.7005,0.4627 -1.5921,1.4543 -4.7122,5.3544 -6.1131,6.8089 -6.686,6.8089 -0.3822,0 -0.637,0.3305 -0.637,0.7932 0,0.3968 -0.1911,0.5951 -0.382,0.3968 -0.3821,-0.3968 -4.7124,3.834 -4.7124,4.5612 0,0.2644 -1.9102,2.3137 -4.2664,4.6274 -3.1839,3.041 -4.0754,4.3631 -3.5658,4.8918 0.5094,0.5289 25.9171,0.7934 93.9895,0.7934 l 93.2893,0.065 -0.2548,308.7818 c -0.5093,719.3006 -1.0188,1773.0319 -0.8915,1784.6665 v 3.1733 h 175.0525 175.1164 v -183.6429 c 0.064,-195.7399 0.6368,-1100.3362 0.955,-1606.3785 0.1277,-168.0417 0.3822,-305.7406 0.5732,-305.939 0.1911,-0.1983 37.8252,-0.3305 83.6737,-0.3305 114.558,0.067 103.3506,0.1327 103.3506,-0.595 0,-0.1982 -5.4764,-6.0156 -12.1626,-12.9567 -6.6862,-6.8752 -13.1815,-13.684 -14.4551,-15.0723 -1.2736,-1.3883 -2.7382,-2.9087 -3.1842,-3.3053 -0.4455,-0.3966 -1.4644,-1.4544 -2.2284,-2.3136 -0.7641,-0.8596 -3.3751,-3.5037 -5.8585,-5.9497 -2.4199,-2.3797 -15.4738,-15.7333 -28.9738,-29.5494 -13.5,-13.8823 -35.9785,-36.9533 -49.9241,-51.2322 -28.6555,-29.4173 -63.2329,-64.9164 -99.7207,-102.39846 -13.6272,-14.0145 -36.1058,-37.08538 -49.9241,-51.23223 -13.8183,-14.21284 -36.6153,-37.68039 -50.6882,-52.15778 -14.0093,-14.47718 -25.4714,-26.24412 -25.4714,-26.04568 0,0.19823 -4.3939,-4.23079 -9.8065,-9.84982 -5.4127,-5.55291 -10.1887,-10.04815 -10.6981,-10.04815 -0.4457,0.066 -4.2027,3.6359 -8.2781,7.9327 z" id="path6" style="fill:#d76cff;stroke-width:0.06488102"/> </g> <g id="layer2"> <path style="fill:#ffff3e;stroke-width:0.06367864" d="m 3106.6024,821.8918 c -4.1391,4.20294 -7.5141,7.89612 -7.5141,8.21459 0,0.38202 -0.382,0.63684 -0.7641,0.63684 -0.4458,0 -1.8465,1.14605 -3.0565,2.61079 -3.8844,4.45743 -5.0942,5.731 -5.0942,5.41264 0,-0.19095 -0.9553,0.57319 -2.1015,1.71945 -1.2099,1.14627 -2.0378,2.22866 -1.9104,2.48327 0.1276,0.31847 -0.064,0.50942 -0.4457,0.50942 -0.8279,0 -6.3678,5.4764 -6.3678,6.36784 0,0.31848 -0.3821,0.63696 -0.8916,0.63696 -0.5093,0 -1.0826,0.44566 -1.2735,1.01874 -0.1911,0.50943 -0.6369,0.76414 -1.0189,0.57319 -0.3185,-0.19107 -0.6367,-0.0638 -0.6367,0.2546 0,1.14627 -3.6934,5.22168 -7.5142,8.34201 -3.4386,2.73809 -31.3298,30.56586 -31.3298,31.20248 0,0.38212 -0.2548,0.63672 -0.5094,0.63672 -0.3186,0 -4.8396,4.1393 -10.0613,9.23346 -5.158,5.09427 -9.9338,9.36086 -10.507,9.55181 -0.5731,0.19107 -1.4009,1.08251 -1.8468,1.91041 -0.4456,0.89144 -1.0825,1.59193 -1.4008,1.59193 -0.2546,0 -0.5095,0.44578 -0.5095,0.9551 0,0.50942 -0.2548,0.89155 -0.5094,0.8279 -0.6368,-0.2546 -5.8585,5.2218 -5.8585,6.11324 0,0.31836 -0.1277,0.44566 -0.3183,0.25471 -0.191,-0.19117 -9.1697,8.34179 -19.9314,18.97611 -10.7616,10.63432 -30.5659,30.24738 -44.0657,43.55637 -13.4999,13.30864 -35.7873,35.40522 -49.6057,49.03242 -13.7544,13.691 -25.1529,24.8346 -25.2802,24.8346 -0.1277,0 -3.3749,3.0567 -7.1958,6.8137 -3.8206,3.8208 -8.0872,7.9598 -9.5518,9.297 -1.4646,1.3374 -2.6109,2.7382 -2.6109,3.0567 0,0.3183 -0.4457,0.573 -0.955,0.573 -0.5095,0 -0.8916,0.2548 -0.7643,0.5094 0.064,0.2547 -6.3041,6.8136 -14.1367,14.4551 -7.8324,7.705 -18.9762,18.5941 -24.7071,24.2616 -5.7312,5.6674 -11.335,11.1438 -12.481,12.2263 -1.0827,1.0826 -3.184,3.1203 -4.5849,4.5212 -1.4011,1.4645 -2.7383,2.6107 -2.9929,2.6107 -0.3186,0 -0.5095,0.4458 -0.5095,0.9554 0,0.5093 -0.4457,0.955 -0.9551,0.955 -0.5096,0 -0.9551,0.2549 -0.9551,0.6369 0,0.8915 -2.3562,3.1839 -2.8021,2.6744 -0.191,-0.1909 -0.3821,-0.064 -0.3821,0.3185 0,0.3183 -1.2734,1.9738 -2.8655,3.566 -1.5918,1.6557 -2.8654,2.8654 -2.8654,2.6744 0,-0.1909 -0.7005,0.4458 -1.5919,1.401 -4.7124,5.1579 -6.1133,6.5589 -6.6865,6.5589 -0.3821,0 -0.6367,0.3183 -0.6367,0.764 0,0.3822 -0.1911,0.5731 -0.382,0.3822 -0.3821,-0.3822 -4.7122,3.6935 -4.7122,4.3939 0,0.2546 -1.9104,2.2287 -4.2666,4.4574 -3.1839,2.9293 -4.0754,4.2028 -3.566,4.7121 0.5096,0.5095 25.9173,0.7642 93.9897,0.7642 l 93.2891,0.064 -0.2546,297.4429 c -0.1911,329.8555 -0.8278,1385.8382 -0.9551,1651.5056 l -0.1277,170.3405 175.1164,0.191 175.1163,0.1276 0.1277,-179.3827 c 0.1276,-292.1577 0.7641,-1327.1266 0.9552,-1644.883 0.1276,-161.871 0.3821,-294.5136 0.5731,-294.7046 0.1909,-0.1911 37.825,-0.3184 83.6737,-0.3184 114.5579,0.064 103.3503,0.1276 103.3503,-0.5732 0,-0.191 -5.4763,-5.7948 -12.1625,-12.481 -6.6863,-6.6226 -13.1816,-13.1815 -14.4552,-14.5188 -1.2735,-1.3372 -2.7381,-2.8018 -3.1837,-3.184 -0.446,-0.3821 -1.4648,-1.4008 -2.2289,-2.2286 -0.7641,-0.8278 -3.3749,-3.375 -5.8584,-5.7311 -2.4199,-2.2924 -15.4739,-15.1556 -28.9738,-28.4643 -13.4999,-13.3725 -35.9785,-35.5964 -49.9241,-49.351 -28.6554,-28.3371 -63.2328,-62.53249 -99.7207,-98.63828 -13.6273,-13.49982 -36.1059,-35.72367 -49.9242,-49.3508 -13.8182,-13.69099 -36.6151,-36.29685 -50.688,-50.24245 -14.0094,-13.94571 -25.4715,-25.28053 -25.4715,-25.08935 0,0.19095 -4.3939,-4.07553 -9.8065,-9.48828 -5.4128,-5.34899 -10.1886,-9.67912 -10.698,-9.67912 -0.4458,0.0638 -4.2029,3.50245 -8.2783,7.64152 z" id="path4"/> </g> <g id="layer4"> <path style="opacity:0.50499998;fill:#19aeff;stroke-width:0.06367864" d="m 1053.4248,1953.8813 c 0.2725,0.6201 0.5488,1.4462 0.8189,2.3582 0.3058,-0.2476 0.6072,-0.494 0.9143,-0.7422 -0.057,-0.446 -0.1125,-0.8922 -0.171,-1.3387 -0.5126,-0.093 -1.0343,-0.1849 -1.5622,-0.2773 z" id="path995"/> <path style="opacity:0.50499998;fill:#19aeff;stroke-width:0.06367864" d="m 1049.8589,1953.2833 c 0.5458,1.1915 1.0391,2.2766 1.667,3.6335 -0.084,-1.1083 0,-2.2004 0.326,-3.2711 -0.017,-0.017 -0.036,-0.036 -0.052,-0.053 -0.6206,-0.104 -1.2997,-0.2061 -1.9406,-0.3098 z" id="path991"/> <path style="opacity:0.50499998;fill:#19aeff;stroke-width:0.06367864" d="m 1051.5259,1956.9168 c 0.036,0.4559 0.1041,0.9146 0.1859,1.3748 0.1097,-0.089 0.2213,-0.1778 0.33,-0.2665 -0.1628,-0.3518 -0.3578,-0.7669 -0.5159,-1.1083 z" id="path989"/> <path style="opacity:0.50499998;fill:#19aeff;stroke-width:0.06367864" d="m 1041.0071,1952 c 1.0165,2.2631 1.9911,4.5228 2.9141,6.774 1.3988,-0.017 2.7976,-0.017 4.1965,-0.026 -1.4134,-2.1188 -2.8265,-4.2378 -4.2397,-6.3566 -0.9537,-0.131 -1.8774,-0.2667 -2.8709,-0.3918 z" id="path945"/> <path style="opacity:0.50499998;fill:#19aeff;stroke-width:0.06367864" d="m 1092.0187,1854.2898 c -0.086,0.04 -0.1883,0.2778 -0.3097,0.7596 -1.2486,4.955 -2.4646,9.9177 -3.6618,14.885 -3e-4,0.3144 0,0.6285 0,0.9427 1.3736,-2.3565 2.7441,-4.7145 4.1115,-7.0742 0.2789,-4.158 0.3216,-9.7264 -0.1393,-9.5131 z" id="path935"/> <path id="path894" d="m 4888.2143,1615.7915 c -4.1389,4.2027 -7.5138,7.8963 -7.5138,8.2145 0,0.3821 -0.3821,0.6367 -0.7642,0.6367 -0.4459,0 -1.8468,1.1463 -3.0567,2.6109 -3.8845,4.4576 -5.0942,5.7312 -5.0942,5.4128 0,-0.1911 -0.9553,0.5732 -2.1016,1.7192 -1.2096,1.1463 -2.0377,2.2289 -1.9101,2.4836 0.1276,0.3185 -0.064,0.5094 -0.4458,0.5094 -0.828,0 -6.368,5.4763 -6.368,6.3678 0,0.3184 -0.382,0.6369 -0.8914,0.6369 -0.5094,0 -1.0826,0.4457 -1.2736,1.0189 -0.191,0.5094 -0.6368,0.764 -1.0189,0.5728 -0.3184,-0.1909 -0.6367,-0.064 -0.6367,0.2549 0,1.1462 -3.6934,5.2216 -7.5142,8.342 -3.4386,2.7381 -31.3298,30.5656 -31.3298,31.2024 0,0.3822 -0.2546,0.6368 -0.5094,0.6368 -0.3185,0 -4.8395,4.139 -10.0613,9.2334 -5.1579,5.0943 -9.9338,9.3608 -10.5068,9.5517 -0.5732,0.1912 -1.4011,1.0826 -1.8468,1.9106 -0.4458,0.8914 -1.0826,1.5919 -1.4011,1.5919 -0.2546,0 -0.5093,0.4458 -0.5093,0.9551 0,0.5095 -0.2548,0.8915 -0.5094,0.828 -0.6369,-0.2548 -5.8584,5.2216 -5.8584,6.113 0,0.3184 -0.1277,0.4457 -0.3184,0.2547 -0.1912,-0.191 -9.1698,8.3419 -19.9313,18.9762 -10.7619,10.6344 -30.5659,30.2474 -44.0657,43.5562 -13.4999,13.3089 -35.7875,35.4054 -49.6058,49.0325 -13.7547,13.6909 -25.153,24.8348 -25.2803,24.8348 -0.1277,0 -3.375,3.0566 -7.1958,6.8135 -3.8207,3.8208 -8.0872,7.96 -9.5517,9.2972 -1.4645,1.3371 -2.6108,2.7382 -2.6108,3.0566 0,0.3183 -0.4458,0.573 -0.9553,0.573 -0.5093,0 -0.8914,0.2546 -0.7641,0.5095 0.064,0.2547 -6.3041,6.8136 -14.1366,14.4551 -7.8325,7.7049 -18.9762,18.5941 -24.7074,24.2616 -5.7311,5.6673 -11.3347,11.1436 -12.481,12.2261 -1.0825,1.0826 -3.184,3.1203 -4.5848,4.5213 -1.401,1.4645 -2.7382,2.6108 -2.9928,2.6108 -0.3184,0 -0.5096,0.4459 -0.5096,0.9553 0,0.5093 -0.4458,0.9549 -0.9551,0.9549 -0.5095,0 -0.9553,0.2548 -0.9553,0.6369 0,0.8915 -2.356,3.184 -2.8017,2.6746 -0.1911,-0.191 -0.3822,-0.064 -0.3822,0.3185 0,0.3183 -1.2734,1.9738 -2.8655,3.5658 -1.5919,1.6556 -2.8655,2.8655 -2.8655,2.6746 0,-0.1912 -0.7003,0.4458 -1.592,1.4008 -4.7121,5.1581 -6.1131,6.559 -6.6862,6.559 -0.382,0 -0.6368,0.3183 -0.6368,0.7641 0,0.3821 -0.191,0.5732 -0.3821,0.3821 -0.3821,-0.3821 -4.7123,3.6933 -4.7123,4.3938 0,0.2546 -1.9102,2.2289 -4.2664,4.4575 -3.184,2.9293 -4.0754,4.2028 -3.5661,4.7122 0.5095,0.5095 25.9174,0.7641 93.9898,0.7641 l 93.2256,0.064 -0.2548,378.6332 c -0.1277,208.2292 -0.3185,507.9008 -0.3821,665.8875 l -0.191,287.3818 h 174.9889 c 96.2185,0 174.9889,-0.064 175.0525,-0.1912 0.064,-0.191 0.5094,-491.7263 0.7641,-949.7668 0.1277,-209.5028 0.4458,-381.1167 0.6369,-381.3077 0.1909,-0.1909 37.825,-0.3184 83.6739,-0.3184 114.5577,0.064 103.3503,0.1276 103.3503,-0.5732 0,-0.191 -5.4765,-5.7947 -12.1627,-12.4809 -6.6863,-6.6225 -13.1813,-13.1814 -14.4549,-14.5187 -1.2736,-1.3372 -2.7383,-2.8019 -3.184,-3.1839 -0.4458,-0.3822 -1.4647,-1.4011 -2.2289,-2.2287 -0.7641,-0.828 -3.3749,-3.3752 -5.8584,-5.7311 -2.4197,-2.2925 -15.4739,-15.1556 -28.9738,-28.4644 -13.4997,-13.3726 -35.9783,-35.5964 -49.924,-49.3511 -28.6554,-28.3369 -63.2328,-62.5323 -99.7206,-98.6381 -13.6273,-13.4998 -36.1058,-35.7238 -49.9241,-49.351 -13.8183,-13.6908 -36.6153,-36.2966 -50.6883,-50.2423 -14.0092,-13.9456 -25.4714,-25.2805 -25.4714,-25.0895 0,0.1912 -4.3939,-4.0754 -9.8066,-9.4881 -5.4126,-5.3489 -10.1885,-9.6792 -10.6979,-9.6792 -0.4457,0.064 -4.203,3.5024 -8.2784,7.6415 z" style="opacity:0.50499998;fill:#19aeff;stroke-width:0.06367864"/> <rect style="opacity:0.71300001;vector-effect:none;fill:none;fill-opacity:1;fill-rule:evenodd;stroke:#3366cc;stroke-width:0;stroke-linecap:round;stroke-linejoin:miter;stroke-miterlimit:4;stroke-dasharray:none;stroke-dashoffset:0;stroke-opacity:1;paint-order:normal" id="rect1090" width="903.49963" height="385.64011" x="683.13721" y="2973.1704"/> <rect style="opacity:0.71300001;vector-effect:none;fill:#ffffff;fill-opacity:1;fill-rule:evenodd;stroke:#3366cc;stroke-width:0;stroke-linecap:round;stroke-linejoin:miter;stroke-miterlimit:4;stroke-dasharray:none;stroke-dashoffset:0;stroke-opacity:1;paint-order:normal" id="rect1092" width="0" height="0" x="870.61072" y="3682.4009"/> <path style="opacity:0.50499998;fill:#19aeff;stroke-width:0.06367864" d="m 1210.1861,1607.7138 c -4.1392,4.2028 -7.5141,7.8962 -7.5141,8.2146 0,0.3821 -0.3821,0.6367 -0.7641,0.6367 -0.4458,0 -1.8467,1.1462 -3.0566,2.611 -3.8845,4.4574 -5.0942,5.731 -5.0942,5.4126 0,-0.1909 -0.9553,0.5732 -2.1015,1.7192 -1.21,1.1463 -2.0377,2.2287 -1.9103,2.4835 0.1276,0.3185 -0.064,0.5095 -0.4459,0.5095 -0.8278,0 -6.3678,5.4764 -6.3678,6.3679 0,0.3184 -0.3821,0.6366 -0.8914,0.6366 -0.5096,0 -1.0826,0.4459 -1.2736,1.019 -0.1911,0.5094 -0.6368,0.7641 -1.0189,0.5731 -0.3185,-0.191 -0.6368,-0.064 -0.6368,0.2547 0,1.1462 -3.6935,5.2217 -7.5141,8.342 -3.4385,2.7383 -31.3299,30.5656 -31.3299,31.2024 0,0.3821 -0.2547,0.6368 -0.5095,0.6368 -0.3182,0 -4.8394,4.1391 -10.0611,9.2334 -5.1581,5.0944 -9.9339,9.3609 -10.507,9.5519 -0.5731,0.191 -1.4009,1.0825 -1.8466,1.9104 -0.4458,0.8914 -1.0826,1.5919 -1.4011,1.5919 -0.2546,0 -0.5094,0.4456 -0.5094,0.9551 0,0.5094 -0.2547,0.8916 -0.5093,0.8279 -0.6369,-0.2548 -5.8584,5.2217 -5.8584,6.1131 0,0.3183 -0.1277,0.4458 -0.3185,0.2549 -0.191,-0.1912 -9.1698,8.3417 -19.9314,18.9761 -10.7617,10.6343 -30.5657,30.2473 -44.0657,43.5561 -13.4997,13.309 -35.7873,35.4054 -49.60557,49.0327 -13.7546,13.6907 -25.153,24.8346 -25.2803,24.8346 -0.1277,0 -3.375,3.0566 -7.1958,6.8135 -3.8207,3.8207 -8.087,7.96 -9.5518,9.2972 -1.4646,1.3372 -2.6109,2.7382 -2.6109,3.0565 0,0.3184 -0.4457,0.5732 -0.9551,0.5732 -0.5094,0 -0.8914,0.2546 -0.7641,0.5094 0.064,0.2548 -6.3042,6.8136 -14.1366,14.455 -7.8327,7.7051 -18.9764,18.5942 -24.7074,24.2617 -5.7311,5.6674 -11.3347,11.1437 -12.481,12.2261 -1.0826,1.0826 -3.184,3.1203 -4.5848,4.5212 -1.401,1.4646 -2.7382,2.6109 -2.9931,2.6109 -0.3182,0 -0.5093,0.4458 -0.5093,0.9551 0,0.5097 -0.4457,0.9552 -0.9552,0.9552 -0.5095,0 -0.9552,0.2547 -0.9552,0.6368 0,0.8915 -2.356,3.184 -2.8017,2.6745 -0.1912,-0.191 -0.3821,-0.064 -0.3821,0.3183 0,0.3185 -1.2737,1.9741 -2.8655,3.5662 -1.5921,1.6558 -2.8657,2.8655 -2.8657,2.6745 0,-0.1911 -0.7004,0.4456 -1.5919,1.4009 -4.7122,5.158 -6.1131,6.5589 -6.6862,6.5589 -0.3821,0 -0.6368,0.3185 -0.6368,0.7641 0,0.3821 -0.1912,0.5732 -0.3822,0.3821 -0.382,-0.3821 -4.7122,3.6933 -4.7122,4.3939 0,0.2547 -1.9103,2.2287 -4.2664,4.4575 -3.184,2.929 -4.0755,4.2026 -3.5661,4.7121 0.5096,0.5094 25.9172,0.7643 93.9898,0.7643 l 93.22547,0.064 -0.2547,378.6331 c -0.1276,208.2292 -0.3185,507.901 -0.3821,665.8875 l -0.1911,287.3818 h 174.9888 c 96.2186,0 174.9891,-0.064 175.0527,-0.191 0.064,-0.1911 0.5093,-491.7264 0.7642,-949.767 0.1276,-209.5028 0.4456,-381.1167 0.6366,-381.3076 0.1912,-0.191 37.8252,-0.3185 83.6739,-0.3185 114.5579,0.064 103.3505,0.1276 103.3505,-0.5731 0,-0.1909 -5.4765,-5.7949 -12.1627,-12.4811 -6.6862,-6.6225 -13.1814,-13.1814 -14.455,-14.5187 -1.2736,-1.3371 -2.7382,-2.8018 -3.184,-3.1838 -0.4456,-0.3821 -1.4646,-1.4009 -2.2288,-2.2288 -0.7641,-0.8278 -3.3749,-3.3749 -5.8584,-5.731 -2.4198,-2.2925 -15.474,-15.1555 -28.9738,-28.4645 -13.4999,-13.3725 -35.9785,-35.5964 -49.9241,-49.3508 -28.6553,-28.337 -63.2329,-62.5325 -99.7206,-98.6383 -13.6274,-13.4998 -36.1057,-35.7236 -49.9241,-49.3509 -13.8183,-13.691 -36.6153,-36.2968 -50.6882,-50.2424 -14.0093,-13.9456 -25.4714,-25.2804 -25.4714,-25.0895 0,0.1911 -4.3939,-4.0753 -9.8066,-9.4881 -5.4126,-5.349 -10.1885,-9.6793 -10.6982,-9.6793 -0.4455,0.064 -4.2027,3.5025 -8.278,7.6415 z" id="path1153"/> </g> <g id="layer5"> <path style="fill:#b88100;stroke-width:0.06367864" d="m 4455.0707,1121.7662 c -4.1393,4.2027 -7.5142,7.8963 -7.5142,8.2145 0,0.3821 -0.3822,0.637 -0.7642,0.637 -0.4457,0 -1.8466,1.146 -3.0566,2.6106 -3.8844,4.4576 -5.0943,5.7312 -5.0943,5.4127 0,-0.191 -0.9551,0.5733 -2.1014,1.7194 -1.2099,1.1463 -2.0377,2.2288 -1.9102,2.4835 0.1277,0.3185 -0.064,0.5094 -0.4458,0.5094 -0.8277,0 -6.368,5.4763 -6.368,6.368 0,0.3184 -0.3821,0.6366 -0.8916,0.6366 -0.5093,0 -1.0823,0.446 -1.2733,1.019 -0.1912,0.5094 -0.6368,0.7641 -1.019,0.5732 -0.3183,-0.1911 -0.6366,-0.064 -0.6366,0.2546 0,1.1462 -3.6934,5.2215 -7.5142,8.3419 -3.4386,2.7382 -31.33,30.5656 -31.33,31.2024 0,0.3822 -0.2546,0.6369 -0.5094,0.6369 -0.3183,0 -4.8395,4.1392 -10.0612,9.2336 -5.158,5.0941 -9.9337,9.3605 -10.507,9.5514 -0.5729,0.1912 -1.401,1.0827 -1.8465,1.9104 -0.4459,0.8916 -1.0826,1.5921 -1.4009,1.5921 -0.2548,0 -0.5095,0.4458 -0.5095,0.9553 0,0.5093 -0.2546,0.8914 -0.5094,0.8278 -0.6369,-0.2548 -5.8585,5.2215 -5.8585,6.1131 0,0.3183 -0.1276,0.4457 -0.3186,0.2546 -0.1909,-0.1909 -9.1694,8.342 -19.9313,18.9761 -10.7616,10.6346 -30.5657,30.2474 -44.0656,43.5562 -13.4999,13.3091 -35.7874,35.4056 -49.6057,49.0326 -13.7544,13.691 -25.153,24.8348 -25.2803,24.8348 -0.1276,0 -3.375,3.0566 -7.1957,6.8135 -3.8207,3.8208 -8.0872,7.9601 -9.5517,9.2971 -1.4648,1.3373 -2.611,2.7384 -2.611,3.0567 0,0.3183 -0.4457,0.5731 -0.9551,0.5731 -0.5093,0 -0.8915,0.2549 -0.7642,0.5095 0.064,0.2547 -6.3043,6.8136 -14.1367,14.4549 -7.8323,7.7052 -18.9761,18.5941 -24.7073,24.2615 -5.7308,5.6675 -11.3347,11.1439 -12.4809,12.2264 -1.0826,1.0826 -3.184,3.1201 -4.5849,4.5212 -1.4009,1.4646 -2.7383,2.6107 -2.9929,2.6107 -0.3183,0 -0.5094,0.4459 -0.5094,0.9553 0,0.5094 -0.4458,0.9551 -0.9551,0.9551 -0.5094,0 -0.9553,0.2546 -0.9553,0.6367 0,0.8917 -2.3562,3.1842 -2.8019,2.6746 -0.191,-0.191 -0.3821,-0.064 -0.3821,0.3184 0,0.3185 -1.2736,1.9741 -2.8654,3.5661 -1.5919,1.6556 -2.8655,2.8655 -2.8655,2.6744 0,-0.191 -0.7006,0.4457 -1.5921,1.4011 -4.7122,5.1578 -6.113,6.5589 -6.6862,6.5589 -0.3822,0 -0.6368,0.3182 -0.6368,0.7641 0,0.3821 -0.191,0.5731 -0.3821,0.3821 -0.382,-0.3821 -4.7123,3.6932 -4.7123,4.3937 0,0.2547 -1.9104,2.2288 -4.2665,4.4575 -3.1838,2.9292 -4.0752,4.2028 -3.5659,4.7123 0.5094,0.5094 25.9171,0.7641 93.9898,0.7641 l 93.289,0.064 -0.2546,297.4429 c -0.1276,163.5267 -0.3821,573.8081 -0.5731,911.6872 l -0.382,614.3714 h 175.18 175.1161 v -78.8343 c 0,-82.5273 0.5732,-945.1181 0.8915,-1449.3257 0.1276,-161.8711 0.3821,-294.5137 0.5732,-294.7047 0.1909,-0.1911 37.825,-0.3184 83.6737,-0.3184 114.5577,0.064 103.3504,0.1276 103.3504,-0.5732 0,-0.191 -5.4764,-5.7948 -12.1626,-12.481 -6.6863,-6.6227 -13.1816,-13.1816 -14.4552,-14.5188 -1.2735,-1.3372 -2.738,-2.8018 -3.1839,-3.184 -0.4457,-0.382 -1.4645,-1.4008 -2.2287,-2.2286 -0.764,-0.828 -3.3749,-3.3751 -5.8584,-5.7311 -2.4197,-2.2924 -15.4739,-15.1555 -28.9738,-28.4644 -13.4998,-13.3724 -35.9784,-35.5963 -49.9241,-49.3509 -28.6553,-28.3369 -63.2328,-62.5325 -99.7206,-98.6382 -13.6274,-13.4999 -36.106,-35.7236 -49.9241,-49.351 -13.8183,-13.6908 -36.6153,-36.2967 -50.6882,-50.2423 -14.0095,-13.9456 -25.4715,-25.2804 -25.4715,-25.0895 0,0.1911 -4.3939,-4.0753 -9.8065,-9.4881 -5.4126,-5.3491 -10.1885,-9.6791 -10.698,-9.6791 -0.4459,0.064 -4.2029,3.5023 -8.2781,7.6413 z" id="path8"/> </g> <g id="layer6"> <path d="m 4083.7862,747.07523 c -0.1911,1.84676 -1.0188,1312.86227 -1.4009,2155.20347 l -0.1911,391.4963 h 174.989 c 96.282,0 174.9889,-0.064 175.0525,-0.191 0.064,-0.1276 0.2547,-291.0751 0.8916,-1399.4655 0.1911,-344.8199 0.4457,-744.0212 0.573,-887.2344 l 0.191,-260.25459 h -175.0525 c -96.2184,0 -174.989,0.19096 -175.0526,0.44572 z" id="path2" style="opacity:0.59299999;fill:#ffff3e;stroke-width:0.06367864"/> </g> <g id="layer7"> <path style="fill:#9ade00;stroke-width:0.06353877" id="path868" d="m 2274.4015,770.89593 c -0.1912,1.83848 -1.0189,1307.10107 -1.4009,2145.74567 l -0.1912,389.7782 h 174.9888 c 96.2821,0 174.989,-0.064 175.0527,-0.1903 0.064,-0.1259 0.2546,-289.7976 0.8915,-1393.3241 0.191,-343.3064 0.4457,-740.756 0.573,-883.3408 l 0.1912,-259.11254 H 2449.454 c -96.2185,0 -174.9889,0.19028 -175.0525,0.44387 z"/> </g> <g id="layer8" style="display:inline"> <path id="path866" d="m 1620.8551,1123.8106 c -4.1392,4.2028 -7.5141,7.8962 -7.5141,8.2144 0,0.3821 -0.3822,0.6369 -0.7643,0.6369 -0.4457,0 -1.8468,1.1462 -3.0564,2.6107 -3.8845,4.4577 -5.0944,5.7313 -5.0944,5.4127 0,-0.1907 -0.9551,0.5732 -2.1014,1.7194 -1.2099,1.1463 -2.0376,2.2289 -1.9103,2.4835 0.1277,0.3183 -0.064,0.5093 -0.4459,0.5093 -0.8277,0 -6.3677,5.4766 -6.3677,6.368 0,0.3182 -0.3821,0.6369 -0.8914,0.6369 -0.5097,0 -1.0827,0.4456 -1.2736,1.0188 -0.1912,0.5093 -0.6369,0.7641 -1.019,0.5731 -0.3185,-0.1911 -0.6368,-0.064 -0.6368,0.2547 0,1.146 -3.6934,5.2217 -7.5141,8.3419 -3.4386,2.7382 -31.3298,30.5657 -31.3298,31.2025 0,0.382 -0.2547,0.6368 -0.5093,0.6368 -0.3185,0 -4.8397,4.1391 -10.0614,9.2333 -5.1578,5.0944 -9.9338,9.3609 -10.507,9.552 -0.5731,0.191 -1.4009,1.0825 -1.8466,1.9102 -0.4457,0.8916 -1.0825,1.5921 -1.4008,1.5921 -0.2548,0 -0.5096,0.4458 -0.5096,0.9551 0,0.5094 -0.2547,0.8916 -0.5094,0.8277 -0.6368,-0.2546 -5.8584,5.2218 -5.8584,6.1132 0,0.3185 -0.1276,0.4458 -0.3185,0.2547 -0.1909,-0.191 -9.1698,8.3419 -19.9314,18.9761 -10.7616,10.6346 -30.5656,30.2474 -44.0657,43.5563 -13.4998,13.3088 -35.7873,35.4053 -49.6056,49.0326 -13.7545,13.6909 -25.153,24.8346 -25.2803,24.8346 -0.1276,0 -3.3751,3.0566 -7.1957,6.8137 -3.8207,3.8208 -8.0871,7.9598 -9.5518,9.2971 -1.4647,1.3372 -2.6109,2.7381 -2.6109,3.0565 0,0.3183 -0.4457,0.573 -0.9554,0.573 -0.5093,0 -0.8914,0.2549 -0.7639,0.5095 0.064,0.2547 -6.3043,6.8138 -14.1366,14.4551 -7.8326,7.7052 -18.9764,18.5943 -24.7074,24.2616 -5.7311,5.6673 -11.3349,11.1438 -12.4812,12.2262 -1.0823,1.0826 -3.1837,3.1203 -4.5846,4.5212 -1.401,1.4647 -2.7382,2.6108 -2.993,2.6108 -0.3183,0 -0.5093,0.4459 -0.5093,0.9553 0,0.5093 -0.4458,0.9551 -0.9552,0.9551 -0.5093,0 -0.9551,0.2548 -0.9551,0.6368 0,0.8915 -2.3562,3.184 -2.8021,2.6745 -0.1909,-0.191 -0.382,-0.064 -0.382,0.3184 0,0.3184 -1.2736,1.9741 -2.8654,3.566 -1.592,1.6557 -2.8657,2.8657 -2.8657,2.6745 0,-0.191 -0.7004,0.4459 -1.5918,1.4008 -4.7123,5.1581 -6.1132,6.5591 -6.6862,6.5591 -0.3822,0 -0.6369,0.3182 -0.6369,0.7642 0,0.382 -0.1912,0.573 -0.3821,0.382 -0.382,-0.382 -4.7123,3.6934 -4.7123,4.3937 0,0.2548 -1.9103,2.2289 -4.2664,4.4575 -3.1839,2.9293 -4.0755,4.203 -3.566,4.7124 0.5094,0.5093 25.9171,0.7642 93.9895,0.7642 l 93.2894,0.064 -0.2547,297.4431 c -0.1276,163.5267 -0.3821,573.8082 -0.5731,911.687 l -0.3821,614.3715 h 175.18 175.1161 v -78.8341 c 0,-82.5276 0.5733,-945.1184 0.8916,-1449.326 0.1276,-161.871 0.382,-294.5136 0.5732,-294.7045 0.1909,-0.1912 37.825,-0.3185 83.6737,-0.3185 114.5578,0.064 103.3503,0.1276 103.3503,-0.5731 0,-0.191 -5.4763,-5.7946 -12.1625,-12.4811 -6.6862,-6.6225 -13.1815,-13.1814 -14.4551,-14.5186 -1.2736,-1.3374 -2.7384,-2.8019 -3.184,-3.184 -0.4458,-0.382 -1.4648,-1.401 -2.2287,-2.2287 -0.7643,-0.8279 -3.3749,-3.375 -5.8584,-5.731 -2.4199,-2.2925 -15.474,-15.1557 -28.9738,-28.4645 -13.5,-13.3725 -35.9785,-35.5963 -49.9241,-49.3508 -28.6554,-28.3372 -63.233,-62.5327 -99.7207,-98.6382 -13.6273,-13.5 -36.1057,-35.7239 -49.9241,-49.3511 -13.8184,-13.6907 -36.6152,-36.2968 -50.6882,-50.2424 -14.0093,-13.9456 -25.4714,-25.2803 -25.4714,-25.0894 0,0.1912 -4.3939,-4.0754 -9.8066,-9.488 -5.4125,-5.349 -10.1886,-9.6792 -10.6979,-9.6792 -0.4458,0.064 -4.2027,3.5023 -8.2782,7.6415 z" style="fill:#ffc022;stroke-width:0.06367864"/> </g> <g id="layer9" style="display:inline"> <path style="opacity:0.7770004;fill:#ff4141;stroke-width:0.06245735" id="path858" d="m 2756.2426,1011.6121 c -4.1391,4.0432 -7.5141,7.5963 -7.5141,7.9025 0,0.3677 -0.3822,0.6125 -0.7642,0.6125 -0.4457,0 -1.8466,1.1029 -3.0565,2.5118 -3.8844,4.2881 -5.0942,5.5133 -5.0942,5.2069 0,-0.1836 -0.9552,0.5516 -2.1014,1.6541 -1.2099,1.1027 -2.0379,2.1441 -1.9105,2.3891 0.1276,0.3064 -0.064,0.4901 -0.4457,0.4901 -0.8277,0 -6.3679,5.2682 -6.3679,6.1261 0,0.3062 -0.3821,0.6126 -0.8914,0.6126 -0.5095,0 -1.0827,0.4287 -1.2736,0.9801 -0.1912,0.4901 -0.6367,0.7351 -1.0189,0.5512 -0.3183,-0.1836 -0.6368,-0.063 -0.6368,0.2452 0,1.1026 -3.6933,5.0231 -7.514,8.0248 -3.4387,2.6342 -31.33,29.4046 -31.33,30.0172 0,0.3676 -0.2546,0.6125 -0.5093,0.6125 -0.3185,0 -4.8397,3.9821 -10.0614,8.8828 -5.1578,4.9008 -9.9338,9.0051 -10.5068,9.1888 -0.5733,0.1837 -1.4011,1.0416 -1.8467,1.8379 -0.4458,0.8577 -1.0825,1.5315 -1.4011,1.5315 -0.2546,0 -0.5095,0.4288 -0.5095,0.9188 0,0.4901 -0.2546,0.8576 -0.5093,0.7965 -0.6367,-0.2452 -5.8584,5.0234 -5.8584,5.8809 0,0.3062 -0.1276,0.4288 -0.3183,0.245 -0.1912,-0.1839 -9.1697,8.0249 -19.9316,18.2551 -10.7616,10.2305 -30.5656,29.0985 -44.0654,41.9016 -13.5,12.8031 -35.7874,34.0603 -49.6058,47.17 -13.7546,13.1705 -25.1531,23.891 -25.2804,23.891 -0.1276,0 -3.3749,2.9406 -7.1956,6.5548 -3.8208,3.6754 -8.0874,7.6573 -9.5518,8.9438 -1.4648,1.2866 -2.6108,2.6342 -2.6108,2.9406 0,0.3062 -0.4458,0.5512 -0.9553,0.5512 -0.5095,0 -0.8915,0.2451 -0.7642,0.4901 0.064,0.2451 -6.3042,6.5547 -14.1365,13.906 -7.8325,7.4124 -18.9762,17.8876 -24.7074,23.3398 -5.731,5.4521 -11.3348,10.7205 -12.481,11.7618 -1.0827,1.0414 -3.184,3.0017 -4.5849,4.3493 -1.4009,1.409 -2.7382,2.5117 -2.9928,2.5117 -0.3185,0 -0.5094,0.429 -0.5094,0.9189 0,0.4902 -0.4459,0.919 -0.9553,0.919 -0.5093,0 -0.9551,0.245 -0.9551,0.6125 0,0.8577 -2.3562,3.0629 -2.8019,2.573 -0.1909,-0.184 -0.3821,-0.062 -0.3821,0.3063 0,0.3062 -1.2736,1.8988 -2.8655,3.4303 -1.592,1.593 -2.8656,2.7567 -2.8656,2.573 0,-0.1838 -0.7005,0.4288 -1.5919,1.3478 -4.7123,4.9619 -6.1132,6.3096 -6.6862,6.3096 -0.3822,0 -0.6369,0.3064 -0.6369,0.7353 0,0.3675 -0.1909,0.5513 -0.3821,0.3675 -0.382,-0.3675 -4.7122,3.553 -4.7122,4.2268 0,0.245 -1.9104,2.1442 -4.2664,4.2882 -3.1839,2.818 -4.0753,4.0432 -3.5659,4.5333 0.5093,0.4899 25.9171,0.735 93.9895,0.735 l 93.2892,0.063 -0.2547,286.143 c -0.5094,666.5642 -1.0189,1643.0402 -0.8914,1653.8219 v 2.9403 h 175.0525 175.1163 v -170.1788 c 0.064,-181.3893 0.6368,-1019.6638 0.9552,-1488.6048 0.1276,-155.7216 0.3819,-283.3253 0.573,-283.509 0.191,-0.1838 37.8251,-0.3064 83.6738,-0.3064 114.5579,0.063 103.3505,0.1226 103.3505,-0.5514 0,-0.1839 -5.4763,-5.5745 -12.1627,-12.0068 -6.6863,-6.3708 -13.1815,-12.6806 -14.4552,-13.9672 -1.2735,-1.2864 -2.7381,-2.6954 -3.1838,-3.0629 -0.4457,-0.3675 -1.4647,-1.3478 -2.2288,-2.1439 -0.7641,-0.7965 -3.3749,-3.2469 -5.8584,-5.5136 -2.4199,-2.2053 -15.474,-14.5798 -28.9736,-27.383 -13.5001,-12.8643 -35.9785,-34.2438 -49.9241,-47.4759 -28.6555,-27.2605 -63.233,-60.1568 -99.7209,-94.8909 -13.6271,-12.9872 -36.1057,-34.3667 -49.924,-47.4761 -13.8184,-13.1708 -36.6152,-34.918 -50.6882,-48.3339 -14.0094,-13.4157 -25.4713,-24.3197 -25.4713,-24.1362 0,0.1837 -4.3941,-3.9206 -9.8067,-9.1275 -5.4127,-5.1457 -10.1886,-9.3114 -10.698,-9.3114 -0.4458,0.063 -4.2027,3.3691 -8.2782,7.3511 z"/> </g> <g id="layer10" style="display:inline"> <path id="path860" d="m 3620.4967,827.60076 c -4.1392,4.20283 -7.514,7.89612 -7.514,8.21449 0,0.38212 -0.3821,0.63684 -0.7641,0.63684 -0.4458,0 -1.8467,1.14626 -3.0567,2.61078 -3.8843,4.45755 -5.0942,5.73111 -5.0942,5.41264 0,-0.19095 -0.9554,0.57319 -2.1015,1.71934 -1.2098,1.14627 -2.0376,2.22878 -1.9103,2.4836 0.1276,0.31825 -0.064,0.50943 -0.4458,0.50943 -0.8278,0 -6.3679,5.4764 -6.3679,6.36784 0,0.31836 -0.3821,0.63673 -0.8915,0.63673 -0.5093,0 -1.0824,0.44577 -1.2735,1.01874 -0.191,0.50965 -0.6367,0.76425 -1.0188,0.5733 -0.3185,-0.19117 -0.6368,-0.0638 -0.6368,0.2546 0,1.14627 -3.6934,5.22169 -7.514,8.34201 -3.4388,2.7382 -31.33,30.56575 -31.33,31.20248 0,0.38213 -0.2548,0.63684 -0.5095,0.63684 -0.3182,0 -4.8395,4.13907 -10.0612,9.23334 -5.1579,5.09438 -9.9338,9.36075 -10.507,9.5517 -0.5731,0.19118 -1.4009,1.08262 -1.8467,1.91041 -0.4457,0.89167 -1.0824,1.59216 -1.4008,1.59216 -0.2547,0 -0.5093,0.44555 -0.5093,0.95498 0,0.50954 -0.2549,0.89144 -0.5097,0.82779 -0.6366,-0.25471 -5.8583,5.22169 -5.8583,6.11324 0,0.31836 -0.1276,0.44589 -0.3185,0.25471 -0.1909,-0.19095 -9.1697,8.34201 -19.9314,18.97622 -10.7617,10.63433 -30.5656,30.24739 -44.0656,43.55626 -13.4998,13.30877 -35.7873,35.40527 -49.6056,49.03237 -13.7546,13.6909 -25.1531,24.8348 -25.2805,24.8348 -0.1276,0 -3.3749,3.0567 -7.1958,6.8136 -3.8205,3.8207 -8.087,7.9598 -9.5517,9.2972 -1.4646,1.337 -2.6107,2.738 -2.6107,3.0565 0,0.3182 -0.4459,0.573 -0.9554,0.573 -0.5093,0 -0.8914,0.2548 -0.7641,0.5094 0.064,0.2548 -6.3041,6.8137 -14.1366,14.4552 -7.8324,7.7051 -18.9762,18.5941 -24.7072,24.2615 -5.7311,5.6674 -11.3349,11.1437 -12.4811,12.2263 -1.0825,1.0826 -3.1839,3.1203 -4.5848,4.5212 -1.4011,1.4645 -2.7383,2.6108 -2.9929,2.6108 -0.3184,0 -0.5096,0.4457 -0.5096,0.9552 0,0.5094 -0.4455,0.9552 -0.955,0.9552 -0.5095,0 -0.9551,0.2547 -0.9551,0.6369 0,0.8914 -2.3562,3.1837 -2.802,2.6744 -0.1909,-0.1912 -0.382,-0.064 -0.382,0.3182 0,0.3186 -1.2736,1.9742 -2.8656,3.5663 -1.592,1.6554 -2.8655,2.8655 -2.8655,2.6744 0,-0.1911 -0.7005,0.4457 -1.592,1.4007 -4.7121,5.1583 -6.1132,6.5592 -6.6862,6.5592 -0.3821,0 -0.6369,0.3182 -0.6369,0.7641 0,0.3821 -0.191,0.5729 -0.382,0.3821 -0.3822,-0.3821 -4.7122,3.6933 -4.7122,4.3937 0,0.2548 -1.9104,2.2289 -4.2666,4.4576 -3.1837,2.9291 -4.0754,4.2027 -3.5658,4.7122 0.5094,0.5094 25.9171,0.764 93.9895,0.764 l 93.2893,0.064 -0.2548,297.443 c -0.191,329.8551 -0.8278,1385.8382 -0.9551,1651.5054 l -0.1277,170.3405 175.1165,0.1909 175.1162,0.1276 0.1277,-179.3827 c 0.1276,-292.1574 0.7641,-1327.1265 0.9552,-1644.883 0.1276,-161.8711 0.3821,-294.5136 0.573,-294.7045 0.1912,-0.191 37.8253,-0.3184 83.6737,-0.3184 114.558,0.064 103.3506,0.1277 103.3506,-0.5733 0,-0.1909 -5.4765,-5.7946 -12.1627,-12.4808 -6.6862,-6.6226 -13.1815,-13.1815 -14.4551,-14.5187 -1.2734,-1.3373 -2.7382,-2.8019 -3.1839,-3.184 -0.4457,-0.3821 -1.4647,-1.4009 -2.2288,-2.2287 -0.7642,-0.8277 -3.3749,-3.3751 -5.8584,-5.7311 -2.4196,-2.2925 -15.4739,-15.1555 -28.9736,-28.4642 -13.5001,-13.3728 -35.9785,-35.5965 -49.9241,-49.3512 -28.6555,-28.3369 -63.233,-62.53231 -99.7209,-98.63811 -13.6271,-13.49982 -36.1057,-35.72367 -49.9239,-49.35101 -13.8185,-13.69078 -36.6153,-36.29664 -50.6882,-50.24224 -14.0095,-13.94582 -25.4716,-25.28052 -25.4716,-25.08957 0,0.19117 -4.3937,-4.07542 -9.8065,-9.48805 -5.4127,-5.34899 -10.1886,-9.67923 -10.698,-9.67923 -0.4458,0.0638 -4.2027,3.50234 -8.2781,7.64152 z" style="fill:#ff6600;stroke-width:0.06367864"/> </g> <g id="layer11" style="display:inline"> <path id="path862" d="m 4104.7744,1339.5472 c -4.1391,4.2029 -7.514,7.8962 -7.514,8.2144 0,0.3822 -0.3822,0.6369 -0.7642,0.6369 -0.4458,0 -1.8467,1.1463 -3.0567,2.611 -3.8843,4.4573 -5.0942,5.7309 -5.0942,5.4126 0,-0.1911 -0.9551,0.5731 -2.1014,1.7192 -1.2099,1.1462 -2.0378,2.2288 -1.9104,2.4836 0.1276,0.3182 -0.064,0.5094 -0.4457,0.5094 -0.8279,0 -6.3679,5.4764 -6.3679,6.3679 0,0.3183 -0.3821,0.6366 -0.8916,0.6366 -0.5093,0 -1.0825,0.4458 -1.2735,1.019 -0.1911,0.5094 -0.6367,0.7642 -1.0188,0.5731 -0.3183,-0.191 -0.6368,-0.064 -0.6368,0.2547 0,1.1463 -3.6934,5.2216 -7.514,8.3419 -3.4388,2.7382 -31.33,30.5658 -31.33,31.2027 0,0.382 -0.2546,0.6366 -0.5094,0.6366 -0.3184,0 -4.8396,4.1391 -10.0613,9.2334 -5.1579,5.0943 -9.9338,9.3607 -10.5069,9.5519 -0.5732,0.1909 -1.401,1.0826 -1.8468,1.9104 -0.4456,0.8914 -1.0823,1.5918 -1.4009,1.5918 -0.2546,0 -0.5095,0.4459 -0.5095,0.9553 0,0.5093 -0.2546,0.8915 -0.5093,0.8276 -0.6367,-0.2546 -5.8587,5.2217 -5.8587,6.1132 0,0.3186 -0.1277,0.4459 -0.3183,0.2548 -0.1912,-0.191 -9.1697,8.342 -19.9315,18.9763 -10.7614,10.6342 -30.5658,30.2474 -44.0655,43.5561 -13.4999,13.3088 -35.7875,35.4053 -49.6056,49.0325 -13.7546,13.691 -25.1532,24.8349 -25.2805,24.8349 -0.1277,0 -3.3749,3.0565 -7.1958,6.8135 -3.8207,3.8206 -8.087,7.9599 -9.5517,9.2971 -1.4645,1.3373 -2.6108,2.7381 -2.6108,3.0565 0,0.3185 -0.4457,0.5731 -0.9553,0.5731 -0.5094,0 -0.8914,0.2547 -0.7641,0.5095 0.064,0.2546 -6.3041,6.8137 -14.1366,14.455 -7.8324,7.7052 -18.9762,18.5942 -24.7073,24.2615 -5.7312,5.6674 -11.3348,11.1439 -12.4811,12.2263 -1.0824,1.0827 -3.1839,3.1204 -4.5848,4.5213 -1.401,1.4646 -2.7382,2.6107 -2.9928,2.6107 -0.3186,0 -0.5096,0.4459 -0.5096,0.9552 0,0.5095 -0.4457,0.9552 -0.955,0.9552 -0.5095,0 -0.9553,0.2547 -0.9553,0.6369 0,0.8914 -2.356,3.1839 -2.8018,2.6745 -0.1912,-0.191 -0.3821,-0.064 -0.3821,0.3183 0,0.3184 -1.2736,1.974 -2.8656,3.5661 -1.5919,1.6556 -2.8654,2.8655 -2.8654,2.6744 0,-0.1909 -0.7006,0.4459 -1.5921,1.401 -4.7121,5.158 -6.1131,6.5589 -6.6862,6.5589 -0.382,0 -0.6368,0.3185 -0.6368,0.7641 0,0.3822 -0.191,0.5731 -0.3821,0.3822 -0.3821,-0.3822 -4.7121,3.6933 -4.7121,4.3939 0,0.2546 -1.9105,2.2284 -4.2666,4.4573 -3.1838,2.9294 -4.0753,4.2029 -3.5659,4.7122 0.5094,0.5095 25.9172,0.7643 93.9896,0.7643 l 93.2893,0.064 -0.2548,321.004 c -0.1277,176.5172 -0.3822,537.766 -0.5095,802.7967 l -0.3183,481.9198 h 175.1164 175.0527 v -4.6485 c 0,-2.4836 0.191,-223.9577 0.382,-492.0449 0.6368,-1010.0705 0.7643,-1108.0718 1.0825,-1108.3903 0.1911,-0.191 37.8251,-0.3184 83.6739,-0.3184 114.5577,0.064 103.3503,0.1277 103.3503,-0.573 0,-0.1912 -5.4764,-5.7948 -12.1626,-12.481 -6.6865,-6.6227 -13.1815,-13.1816 -14.4551,-14.5188 -1.2735,-1.3373 -2.7382,-2.8019 -3.1839,-3.184 -0.4457,-0.382 -1.4647,-1.401 -2.2289,-2.2289 -0.7642,-0.8275 -3.3747,-3.3747 -5.8583,-5.7309 -2.4199,-2.2924 -15.474,-15.1556 -28.9737,-28.4643 -13.4999,-13.3725 -35.9784,-35.5964 -49.9241,-49.3509 -28.6554,-28.3371 -63.233,-62.5325 -99.7208,-98.6382 -13.6272,-13.4999 -36.1058,-35.7239 -49.9241,-49.351 -13.8183,-13.6909 -36.6151,-36.2968 -50.6882,-50.2424 -14.0093,-13.9458 -25.4714,-25.2805 -25.4714,-25.0895 0,0.1911 -4.3939,-4.0755 -9.8065,-9.4881 -5.4125,-5.349 -10.1887,-9.6792 -10.698,-9.6792 -0.4458,0.064 -4.2028,3.5024 -8.2782,7.6415 z" style="opacity:0.71300001;fill:#72a600;fill-opacity:1;stroke-width:0.06367864"/> </g> <g id="layer12" style="display:inline"> <path id="path864" d="m 3560.2905,1764.3936 c -4.1391,3.8194 -7.514,7.1756 -7.514,7.465 0,0.3473 -0.3819,0.5788 -0.7639,0.5788 -0.446,0 -1.8468,1.0415 -3.0567,2.3726 -3.8846,4.0507 -5.0943,5.2081 -5.0943,4.9187 0,-0.1737 -0.9553,0.5209 -2.1015,1.5624 -1.2099,1.0416 -2.0378,2.0255 -1.9105,2.257 0.1277,0.2893 -0.064,0.4629 -0.4456,0.4629 -0.8278,0 -6.3679,4.9767 -6.3679,5.7868 0,0.2894 -0.382,0.5786 -0.8915,0.5786 -0.5095,0 -1.0825,0.4053 -1.2735,0.926 -0.1909,0.463 -0.6368,0.6945 -1.019,0.521 -0.3182,-0.1739 -0.6366,-0.059 -0.6366,0.2314 0,1.0416 -3.6935,4.7452 -7.5142,7.5807 -3.4386,2.4883 -31.3298,27.7768 -31.3298,28.3554 0,0.3473 -0.2548,0.5788 -0.5095,0.5788 -0.3183,0 -4.8395,3.7613 -10.0611,8.391 -5.1581,4.6294 -9.9339,8.5064 -10.5071,8.6801 -0.573,0.1737 -1.4008,0.9838 -1.8466,1.7361 -0.4458,0.8102 -1.0826,1.4467 -1.401,1.4467 -0.2548,0 -0.5094,0.4051 -0.5094,0.868 0,0.463 -0.2548,0.8103 -0.5096,0.7524 -0.6367,-0.2315 -5.8581,4.7452 -5.8581,5.5553 0,0.2893 -0.1277,0.4051 -0.3185,0.2315 -0.191,-0.1736 -9.1698,7.5809 -19.9314,17.2448 -10.7618,9.6641 -30.5657,27.4877 -44.0657,39.5819 -13.4997,12.0945 -35.7873,32.1748 -49.6058,44.5587 -13.7544,12.4417 -25.153,22.5687 -25.2804,22.5687 -0.1276,0 -3.3748,2.7777 -7.1956,6.1919 -3.8206,3.472 -8.0871,7.2334 -9.5517,8.4488 -1.4646,1.2152 -2.6109,2.4885 -2.6109,2.7777 0,0.2893 -0.4458,0.5209 -0.9552,0.5209 -0.5093,0 -0.8914,0.2313 -0.7641,0.4629 0.064,0.2314 -6.3041,6.1918 -14.1366,13.136 -7.8326,7.0021 -18.9762,16.8976 -24.7074,22.0479 -5.731,5.1504 -11.3347,10.1269 -12.4809,11.1107 -1.0826,0.9838 -3.184,2.8356 -4.5848,4.1088 -1.4011,1.3309 -2.7384,2.3725 -2.9931,2.3725 -0.3184,0 -0.5094,0.4052 -0.5094,0.868 0,0.4631 -0.4457,0.8681 -0.9553,0.8681 -0.5093,0 -0.9551,0.2315 -0.9551,0.5788 0,0.81 -2.3562,2.8933 -2.8017,2.4304 -0.1911,-0.1736 -0.3821,-0.059 -0.3821,0.2891 0,0.2897 -1.2738,1.7941 -2.8656,3.2408 -1.5919,1.5047 -2.8655,2.6041 -2.8655,2.4304 0,-0.1735 -0.7005,0.405 -1.592,1.273 -4.712,4.6875 -6.1131,5.9608 -6.6863,5.9608 -0.3819,0 -0.6368,0.2891 -0.6368,0.6942 0,0.3473 -0.191,0.5208 -0.382,0.3473 -0.3821,-0.3473 -4.7123,3.3563 -4.7123,3.9929 0,0.2316 -1.9102,2.0254 -4.2664,4.0507 -3.184,2.662 -4.0754,3.8194 -3.566,4.2824 0.5095,0.4628 25.9171,0.6943 93.9897,0.6943 l 93.2254,0.059 -0.2546,344.0855 c -0.1277,189.2298 -0.3184,461.5585 -0.382,605.1299 l -0.1912,261.1601 h 174.9888 c 96.2187,0 174.989,-0.059 175.0527,-0.1736 0.064,-0.1737 0.5094,-446.8597 0.7641,-863.1072 0.1277,-190.3871 0.4458,-346.3423 0.6368,-346.5159 0.1911,-0.1735 37.8252,-0.2894 83.6738,-0.2894 114.5579,0.059 103.3505,0.1159 103.3505,-0.5209 0,-0.1735 -5.4764,-5.2659 -12.1626,-11.3422 -6.6864,-6.0182 -13.1815,-11.9788 -14.455,-13.1938 -1.2736,-1.2153 -2.7382,-2.5463 -3.184,-2.8935 -0.4458,-0.3473 -1.4646,-1.2732 -2.2289,-2.0253 -0.7641,-0.7525 -3.3749,-3.0672 -5.8583,-5.2083 -2.4198,-2.0832 -15.474,-13.7727 -28.9738,-25.8672 -13.4999,-12.1522 -35.9785,-32.3484 -49.9241,-44.8479 -28.6554,-25.7515 -63.233,-56.8268 -99.7209,-89.6383 -13.6271,-12.268 -36.1056,-32.4641 -49.9239,-44.8479 -13.8182,-12.4417 -36.6153,-32.985 -50.6882,-45.6582 -14.0092,-12.6731 -25.4713,-22.9739 -25.4713,-22.8002 0,0.1736 -4.3939,-3.7035 -9.8066,-8.6224 -5.4126,-4.8609 -10.1886,-8.7959 -10.6982,-8.7959 -0.4455,0.059 -4.2027,3.1827 -8.2782,6.9442 z" style="opacity:0.819;fill:#005c94;stroke-width:0.06070405"/> <path style="opacity:0.819;fill:#005c94;stroke-width:0.05164798" d="m 1736.764,2181.1781 c -4.1391,2.7648 -7.5141,5.1943 -7.5141,5.4037 0,0.2516 -0.382,0.4191 -0.7641,0.4191 -0.4457,0 -1.8467,0.754 -3.0566,1.7174 -3.8844,2.9324 -5.0943,3.7702 -5.0943,3.5607 0,-0.126 -0.9552,0.377 -2.1015,1.131 -1.2099,0.7541 -2.0376,1.4662 -1.9103,1.6338 0.1277,0.2094 -0.064,0.3352 -0.4459,0.3352 -0.8276,0 -6.3677,3.6025 -6.3677,4.189 0,0.2094 -0.3821,0.4188 -0.8915,0.4188 -0.5096,0 -1.0826,0.2933 -1.2735,0.6703 -0.191,0.3352 -0.637,0.5027 -1.019,0.3771 -0.3182,-0.126 -0.6367,-0.041 -0.6367,0.1679 0,0.7541 -3.6934,3.4351 -7.514,5.4877 -3.4388,1.8013 -31.33,20.1074 -31.33,20.5262 0,0.2512 -0.2547,0.4189 -0.5094,0.4189 -0.3184,0 -4.8396,2.7228 -10.0613,6.0742 -5.158,3.351 -9.9338,6.1578 -10.5069,6.2834 -0.5732,0.1259 -1.401,0.7121 -1.8467,1.2566 -0.4457,0.5865 -1.0825,1.0473 -1.4009,1.0473 -0.2547,0 -0.5093,0.2932 -0.5093,0.6285 0,0.335 -0.2548,0.5863 -0.5096,0.5445 -0.6367,-0.168 -5.8584,3.435 -5.8584,4.0215 0,0.2094 -0.1276,0.2932 -0.3184,0.1679 -0.191,-0.1259 -9.1696,5.4876 -19.9315,12.4831 -10.7616,6.9958 -30.5656,19.8981 -44.0655,28.6531 -13.4999,8.7551 -35.7875,23.291 -49.6057,32.2556 -13.7546,9.0063 -25.1531,16.337 -25.2804,16.337 -0.1276,0 -3.3749,2.0107 -7.1957,4.4822 -3.8207,2.5133 -8.0871,5.2363 -9.5518,6.1162 -1.4646,0.8795 -2.6107,1.8013 -2.6107,2.0107 0,0.2094 -0.4458,0.3771 -0.9553,0.3771 -0.5094,0 -0.8916,0.1679 -0.7641,0.335 0.064,0.1679 -6.3043,4.4822 -14.1367,9.5089 -7.8324,5.0688 -18.9761,12.232 -24.7074,15.9603 -5.7311,3.7283 -11.3347,7.3308 -12.4809,8.0429 -1.0826,0.7123 -3.1839,2.0527 -4.5849,2.9743 -1.401,0.9634 -2.7382,1.7175 -2.993,1.7175 -0.3182,0 -0.5094,0.2932 -0.5094,0.6283 0,0.3351 -0.4457,0.6285 -0.9551,0.6285 -0.5093,0 -0.9553,0.1679 -0.9553,0.4187 0,0.5865 -2.356,2.0946 -2.8017,1.7594 -0.1911,-0.126 -0.3821,-0.043 -0.3821,0.2094 0,0.2096 -1.2736,1.2986 -2.8655,2.3459 -1.592,1.0892 -2.8656,1.8851 -2.8656,1.7595 0,-0.126 -0.7005,0.2931 -1.5919,0.9215 -4.7122,3.3932 -6.1133,4.3147 -6.6862,4.3147 -0.3822,0 -0.6369,0.2095 -0.6369,0.5027 0,0.2513 -0.1909,0.3771 -0.3821,0.2513 -0.3821,-0.2513 -4.7121,2.4297 -4.7121,2.8904 0,0.1679 -1.9105,1.4662 -4.2666,2.9323 -3.184,1.927 -4.0755,2.7648 -3.566,3.1001 0.5095,0.335 25.9172,0.5025 93.9897,0.5025 l 93.2256,0.041 -0.2547,249.0794 c -0.1277,136.9811 -0.3185,334.1166 -0.3822,438.0462 l -0.1911,189.0507 h 174.989 c 96.2184,0 174.9888,-0.041 175.0527,-0.126 0.064,-0.126 0.5093,-323.4764 0.7641,-624.7932 0.1277,-137.8186 0.4456,-250.7129 0.6368,-250.8385 0.1909,-0.126 37.825,-0.2097 83.6736,-0.2097 114.5579,0.041 103.3506,0.084 103.3506,-0.3768 0,-0.126 -5.4764,-3.8121 -12.1627,-8.2106 -6.6862,-4.3565 -13.1815,-8.6713 -14.455,-9.5508 -1.2736,-0.8798 -2.7382,-1.8433 -3.184,-2.0945 -0.4457,-0.2515 -1.4647,-0.9217 -2.2287,-1.466 -0.7641,-0.5449 -3.375,-2.2205 -5.8585,-3.7704 -2.4198,-1.5079 -15.474,-9.9698 -28.9738,-18.7248 -13.4997,-8.797 -35.9783,-23.4168 -49.9239,-32.465 -28.6556,-18.6412 -63.2331,-41.1363 -99.7209,-64.8881 -13.6273,-8.8807 -36.1058,-23.5005 -49.9241,-32.4649 -13.8183,-9.0063 -36.6153,-23.8775 -50.6882,-33.0514 -14.0093,-9.1739 -25.4714,-16.6305 -25.4714,-16.5049 0,0.126 -4.3939,-2.6809 -9.8065,-6.2416 -5.4126,-3.5187 -10.1887,-6.3674 -10.698,-6.3674 -0.4458,0.043 -4.2028,2.304 -8.2782,5.027 z" id="path1155"/> </g> <g id="layer13"> <path d="m 3184.4652,747.66453 c -0.191,1.85 -1.0188,1315.21477 -1.4008,2159.06517 l -0.1912,392.1976 h 174.9891 c 96.2821,0 174.9888,-0.064 175.0524,-0.1915 0.064,-0.1276 0.2549,-291.5965 0.8915,-1401.9728 0.1912,-345.4377 0.4458,-745.3542 0.5732,-888.8241 l 0.1909,-260.72093 h -175.0524 c -96.2185,0 -174.9889,0.19151 -175.0527,0.44656 z" id="path876" style="opacity:0.59100001;fill:#009100;stroke-width:0.06373568"/> </g> <g id="layer14"> <path style="display:inline;opacity:0.76700003;fill:#000e94;fill-opacity:1;stroke-width:0.06367864" d="m 3106.4751,1117.6792 c -4.1391,4.2029 -7.5141,7.8961 -7.5141,8.2146 0,0.382 -0.382,0.6366 -0.7641,0.6366 -0.4458,0 -1.8468,1.1463 -3.0567,2.6108 -3.8842,4.4576 -5.0941,5.7312 -5.0941,5.4128 0,-0.1909 -0.9552,0.573 -2.1014,1.7193 -1.2099,1.1462 -2.0378,2.2289 -1.9105,2.4835 0.1277,0.3183 -0.064,0.5094 -0.4456,0.5094 -0.8279,0 -6.3679,5.4764 -6.3679,6.3678 0,0.3185 -0.382,0.637 -0.8915,0.637 -0.5095,0 -1.0826,0.4455 -1.2735,1.0187 -0.1911,0.5094 -0.6369,0.7642 -1.0189,0.5731 -0.3185,-0.1911 -0.6369,-0.064 -0.6369,0.2547 0,1.1463 -3.6933,5.2217 -7.514,8.3419 -3.4387,2.7382 -31.33,30.5658 -31.33,31.2026 0,0.3821 -0.2546,0.6369 -0.5094,0.6369 -0.3184,0 -4.8396,4.1389 -10.0611,9.2332 -5.158,5.0943 -9.934,9.3609 -10.507,9.5519 -0.5733,0.1911 -1.4009,1.0825 -1.8468,1.9104 -0.4456,0.8914 -1.0825,1.5918 -1.4008,1.5918 -0.2549,0 -0.5095,0.4459 -0.5095,0.9552 0,0.5095 -0.2548,0.8916 -0.5094,0.8279 -0.6368,-0.2548 -5.8585,5.2217 -5.8585,6.1132 0,0.3184 -0.1277,0.4457 -0.3183,0.2546 -0.1911,-0.191 -9.1698,8.342 -19.9314,18.9763 -10.7618,10.6343 -30.5659,30.2474 -44.0657,43.5561 -13.4999,13.3089 -35.7873,35.4055 -49.6057,49.0326 -13.7544,13.6909 -25.1529,24.8345 -25.2804,24.8345 -0.1277,0 -3.3749,3.0567 -7.1956,6.8137 -3.8209,3.8208 -8.0872,7.9599 -9.5518,9.2971 -1.4646,1.3372 -2.6109,2.7381 -2.6109,3.0567 0,0.3183 -0.4457,0.5731 -0.9553,0.5731 -0.5094,0 -0.8914,0.2546 -0.764,0.5093 0.064,0.2548 -6.3041,6.8137 -14.1367,14.455 -7.8324,7.7052 -18.9762,18.5943 -24.7073,24.2616 -5.731,5.6676 -11.3348,11.1438 -12.4811,12.2262 -1.0826,1.0827 -3.1837,3.1202 -4.5848,4.5212 -1.4009,1.4648 -2.7381,2.611 -2.9928,2.611 -0.3185,0 -0.5094,0.4457 -0.5094,0.9551 0,0.5093 -0.4457,0.9553 -0.9554,0.9553 -0.5093,0 -0.9551,0.2546 -0.9551,0.6367 0,0.8915 -2.3561,3.1839 -2.8018,2.6744 -0.191,-0.191 -0.3821,-0.064 -0.3821,0.3185 0,0.3183 -1.2736,1.974 -2.8655,3.566 -1.5919,1.6557 -2.8656,2.8656 -2.8656,2.6744 0,-0.1909 -0.7003,0.4459 -1.592,1.401 -4.7121,5.158 -6.1131,6.5589 -6.6862,6.5589 -0.3821,0 -0.6368,0.3182 -0.6368,0.7642 0,0.3821 -0.191,0.573 -0.3821,0.3821 -0.3821,-0.3821 -4.7122,3.6931 -4.7122,4.3939 0,0.2546 -1.9104,2.2286 -4.2664,4.4575 -3.1839,2.9291 -4.0754,4.2027 -3.566,4.7121 0.5094,0.5094 25.9172,0.7642 93.9896,0.7642 l 93.2892,0.064 -0.2546,297.4431 c -0.1277,163.5269 -0.382,573.8082 -0.5732,911.687 l -0.382,614.3716 h 175.1799 175.1163 v -78.8341 c 0,-82.5275 0.5731,-945.1185 0.8914,-1449.326 0.1277,-161.8709 0.3822,-294.5135 0.5731,-294.7046 0.1912,-0.191 37.825,-0.3183 83.6738,-0.3183 114.558,0.064 103.3504,0.1277 103.3504,-0.5733 0,-0.1909 -5.4762,-5.7946 -12.1624,-12.481 -6.6865,-6.6226 -13.1817,-13.1815 -14.4553,-14.5187 -1.2734,-1.3373 -2.7382,-2.8019 -3.184,-3.184 -0.4456,-0.382 -1.4644,-1.4007 -2.2286,-2.2287 -0.7642,-0.8279 -3.3751,-3.3749 -5.8586,-5.731 -2.4198,-2.2925 -15.4737,-15.1555 -28.9735,-28.4642 -13.5,-13.3727 -35.9785,-35.5964 -49.9241,-49.351 -28.6555,-28.337 -63.2329,-62.5325 -99.7209,-98.6383 -13.6272,-13.4999 -36.1057,-35.7237 -49.924,-49.3508 -13.8182,-13.691 -36.6152,-36.2969 -50.6882,-50.2427 -14.0094,-13.9455 -25.4713,-25.2803 -25.4713,-25.0893 0,0.1911 -4.3941,-4.0753 -9.8068,-9.488 -5.4126,-5.3491 -10.1884,-9.6792 -10.6979,-9.6792 -0.4456,0.064 -4.2027,3.5022 -8.2782,7.6415 z" id="path878"/> </g> <g id="layer15"> <path d="m 2212.0968,899.46949 c -4.139,4.26704 -7.5142,8.01682 -7.5142,8.34011 0,0.38794 -0.382,0.64657 -0.7641,0.64657 -0.4458,0 -1.8465,1.16372 -3.0565,2.65083 -3.8843,4.52567 -5.0943,5.81871 -5.0943,5.49542 0,-0.19397 -0.9553,0.58191 -2.1014,1.74552 -1.2099,1.16383 -2.0376,2.26289 -1.9103,2.52152 0.1276,0.32329 -0.064,0.51726 -0.4459,0.51726 -0.8277,0 -6.3676,5.56018 -6.3676,6.46527 0,0.32329 -0.3821,0.64657 -0.8917,0.64657 -0.5093,0 -1.0826,0.45238 -1.2735,1.03441 -0.1911,0.51726 -0.6369,0.77588 -1.0189,0.58169 -0.3185,-0.19397 -0.6367,-0.0638 -0.6367,0.25874 0,1.16383 -3.6934,5.30156 -7.5142,8.46942 -3.4386,2.78026 -31.33,31.03323 -31.33,31.6798 0,0.38794 -0.2546,0.64657 -0.5094,0.64657 -0.3182,0 -4.8394,4.20227 -10.0611,9.37463 -5.158,5.17213 -9.9338,9.50405 -10.507,9.69769 -0.5731,0.19408 -1.4009,1.09917 -1.8467,1.93982 -0.4458,0.9052 -1.0826,1.61632 -1.4008,1.61632 -0.2547,0 -0.5096,0.45238 -0.5096,0.96975 0,0.51703 -0.2546,0.90509 -0.5094,0.84054 -0.6368,-0.25863 -5.8583,5.30136 -5.8583,6.20656 0,0.3232 -0.1276,0.4526 -0.3185,0.2586 -0.1909,-0.1941 -9.1697,8.4695 -19.9314,19.2664 -10.7617,10.7971 -30.5656,30.71 -44.0657,44.2224 -13.4997,13.5124 -35.7873,35.9468 -49.6057,49.7825 -13.7544,13.9003 -25.1529,25.2145 -25.2802,25.2145 -0.1277,0 -3.3751,3.1033 -7.1959,6.9177 -3.8205,3.8791 -8.0871,8.0817 -9.5517,9.4394 -1.4646,1.3577 -2.6109,2.7798 -2.6109,3.1032 0,0.3233 -0.4457,0.582 -0.955,0.582 -0.5095,0 -0.8916,0.2586 -0.7641,0.5172 0.064,0.2585 -6.3045,6.9178 -14.1367,14.6762 -7.8325,7.8229 -18.9764,18.8785 -24.7075,24.6325 -5.7309,5.7542 -11.3347,11.3142 -12.4809,12.4133 -1.0826,1.0992 -3.1839,3.168 -4.5848,4.5903 -1.4011,1.487 -2.7383,2.6507 -2.993,2.6507 -0.3183,0 -0.5094,0.4527 -0.5094,0.9698 0,0.5174 -0.4457,0.9697 -0.9551,0.9697 -0.5095,0 -0.9554,0.2589 -0.9554,0.6468 0,0.9049 -2.3561,3.2324 -2.8018,2.7154 -0.191,-0.194 -0.3821,-0.066 -0.3821,0.3231 0,0.3233 -1.2734,2.0043 -2.8654,3.6204 -1.592,1.6812 -2.8655,2.9095 -2.8655,2.7156 0,-0.1939 -0.7005,0.4526 -1.5922,1.4224 -4.7121,5.2368 -6.113,6.6591 -6.6862,6.6591 -0.3819,0 -0.6367,0.3233 -0.6367,0.776 0,0.3877 -0.1911,0.5817 -0.382,0.3877 -0.3822,-0.3877 -4.7124,3.7498 -4.7124,4.4612 0,0.2586 -1.9102,2.2629 -4.2664,4.5256 -3.1839,2.974 -4.0754,4.2671 -3.566,4.7842 0.5096,0.5173 25.9173,0.7758 93.9897,0.7758 l 93.2891,0.066 -0.2546,301.9922 c -0.5093,703.4845 -1.0189,1734.0467 -0.8915,1745.4253 v 3.1034 h 175.0525 175.1163 v -179.6048 c 0.064,-191.4363 0.6369,-1076.1419 0.9551,-1571.0574 0.1277,-164.3468 0.3822,-299.0183 0.5733,-299.212 0.191,-0.194 37.8251,-0.3232 83.6736,-0.3232 114.558,0.064 103.3506,0.1293 103.3506,-0.5819 0,-0.194 -5.4764,-5.8835 -12.1626,-12.6722 -6.6863,-6.7235 -13.1815,-13.3829 -14.4551,-14.7406 -1.2737,-1.3577 -2.7382,-2.8447 -3.1841,-3.2326 -0.4456,-0.3878 -1.4645,-1.4225 -2.2285,-2.2628 -0.7641,-0.8405 -3.3752,-3.4266 -5.8585,-5.8187 -2.4199,-2.3274 -15.474,-15.3873 -28.9738,-28.8996 -13.5,-13.5773 -35.9785,-36.1408 -49.9241,-50.106 -28.6555,-28.7702 -63.2329,-63.4887 -99.7207,-100.1467 -13.6274,-13.7065 -36.1058,-36.2701 -49.9241,-50.10559 -13.8183,-13.90041 -36.6153,-36.85215 -50.6882,-51.01085 -14.0095,-14.15893 -25.4714,-25.66713 -25.4714,-25.47327 0,0.19397 -4.3939,-4.13784 -9.8065,-9.63325 -5.4127,-5.43076 -10.1887,-9.82712 -10.698,-9.82712 -0.4458,0.066 -4.2029,3.55593 -8.2783,7.75831 z" id="path880" style="display:inline;opacity:0.7770004;fill:#005c94;stroke-width:0.06416377"/> </g> <g id="layer16"> <path style="display:inline;opacity:0.50199998;fill:#009100;stroke-width:0.06377865" d="m 1443.4829,820.12882 c -4.1391,4.21592 -7.514,7.92085 -7.514,8.24022 0,0.38336 -0.3821,0.63896 -0.7642,0.63896 -0.4457,0 -1.8466,1.14974 -3.0565,2.61896 -3.8843,4.47141 -5.0944,5.74901 -5.0944,5.42964 0,-0.19163 -0.9549,0.57486 -2.1011,1.72482 -1.21,1.14974 -2.038,2.23571 -1.9104,2.49121 0.1276,0.31937 -0.064,0.51099 -0.4458,0.51099 -0.828,0 -6.368,5.49363 -6.368,6.38798 0,0.31937 -0.382,0.63885 -0.8914,0.63885 -0.5094,0 -1.0826,0.4469 -1.2736,1.02199 -0.1911,0.5111 -0.6368,0.76649 -1.019,0.57486 -0.3183,-0.19162 -0.6368,-0.0638 -0.6368,0.2555 0,1.14985 -3.6932,5.23813 -7.5139,8.36819 -3.4387,2.74659 -31.3299,30.66184 -31.3299,31.30069 0,0.38324 -0.2548,0.63863 -0.5094,0.63863 -0.3185,0 -4.8398,4.15227 -10.0613,9.26242 -5.1579,5.11027 -9.9338,9.39018 -10.5071,9.58202 -0.5729,0.19152 -1.4008,1.08575 -1.8465,1.91612 -0.4458,0.89446 -1.0826,1.59719 -1.4011,1.59719 -0.2546,0 -0.5093,0.44712 -0.5093,0.958 0,0.51122 -0.2548,0.89446 -0.5094,0.83036 -0.6369,-0.25527 -5.8585,5.23824 -5.8585,6.13259 0,0.31926 -0.1276,0.44712 -0.3183,0.25528 -0.1912,-0.1914 -9.1697,8.36818 -19.9316,19.03595 -10.7617,10.668 -30.5657,30.34247 -44.0656,43.69318 -13.4999,13.35082 -35.7875,35.51658 -49.6057,49.18668 -13.7546,13.7339 -25.1531,24.9128 -25.2804,24.9128 -0.1276,0 -3.3749,3.0662 -7.1957,6.835 -3.8207,3.8328 -8.0871,7.9849 -9.5518,9.3263 -1.4647,1.3415 -2.6109,2.7468 -2.6109,3.0663 0,0.3194 -0.4456,0.5746 -0.9551,0.5746 -0.5094,0 -0.8916,0.2558 -0.7643,0.5111 0.064,0.2557 -6.304,6.8352 -14.1365,14.5006 -7.8325,7.7294 -18.9761,18.6527 -24.7074,24.338 -5.7311,5.6851 -11.3347,11.1787 -12.4809,12.2647 -1.0826,1.086 -3.184,3.13 -4.5849,4.5353 -1.4009,1.4693 -2.7382,2.6192 -2.993,2.6192 -0.3182,0 -0.5094,0.447 -0.5094,0.958 0,0.511 -0.4457,0.9582 -0.9551,0.9582 -0.5094,0 -0.9551,0.2555 -0.9551,0.6387 0,0.8944 -2.3562,3.1941 -2.8019,2.683 -0.1911,-0.1917 -0.3821,-0.064 -0.3821,0.3193 0,0.3194 -1.2735,1.9802 -2.8655,3.5773 -1.592,1.661 -2.8656,2.8746 -2.8656,2.6828 0,-0.1917 -0.7005,0.4473 -1.5919,1.4054 -4.7122,5.1741 -6.1133,6.5796 -6.6862,6.5796 -0.3822,0 -0.6369,0.3194 -0.6369,0.7665 0,0.3833 -0.1911,0.5748 -0.3821,0.3833 -0.3821,-0.3833 -4.7123,3.7051 -4.7123,4.4076 0,0.2554 -1.9102,2.2359 -4.2664,4.4716 -3.184,2.9385 -4.0755,4.2158 -3.5659,4.7269 0.5094,0.511 25.9171,0.7667 93.9897,0.7667 l 93.2891,0.064 -0.2547,298.3777 c -0.1911,330.8924 -0.8277,1390.1949 -0.9552,1656.6975 l -0.1276,170.8757 175.1163,0.1918 175.1164,0.1277 0.1276,-179.9465 c 0.1276,-293.0762 0.7641,-1331.2988 0.9551,-1650.0542 0.1276,-162.38 0.3821,-295.4394 0.5732,-295.6311 0.1909,-0.1917 37.825,-0.3193 83.6737,-0.3193 114.5579,0.064 103.3504,0.1276 103.3504,-0.5749 0,-0.1917 -5.4764,-5.8131 -12.1626,-12.5202 -6.6863,-6.6435 -13.1813,-13.223 -14.4551,-14.5646 -1.2736,-1.3414 -2.7381,-2.8107 -3.1838,-3.1939 -0.4458,-0.3833 -1.4647,-1.4052 -2.2289,-2.2357 -0.7641,-0.8304 -3.3749,-3.3855 -5.8584,-5.749 -2.4197,-2.2997 -15.4739,-15.2031 -28.9736,-28.554 -13.5,-13.4146 -35.9786,-35.7082 -49.9242,-49.5061 -28.6554,-28.4261 -63.2328,-62.72886 -99.7207,-98.9482 -13.6272,-13.54222 -36.1057,-35.83598 -49.924,-49.50606 -13.8183,-13.73418 -36.6153,-36.41107 -50.6883,-50.4003 -14.0092,-13.98967 -25.4715,-25.36017 -25.4715,-25.16832 0,0.19162 -4.3939,-4.08817 -9.8065,-9.51804 -5.4127,-5.36576 -10.1885,-9.70954 -10.698,-9.70954 -0.4456,0.0638 -4.2027,3.5133 -8.2783,7.66546 z" id="path882"/> </g> <g id="layer17" style="display:inline"> <path style="display:inline;opacity:0.603;fill:#b53d80;fill-opacity:1;stroke-width:0.07024946" d="m 4741.0941,914.30373 c -4.1393,5.11497 -7.5142,9.60977 -7.5142,9.99748 0,0.4648 -0.3822,0.77488 -0.7642,0.77488 -0.4458,0 -1.8466,1.39494 -3.0567,3.17738 -3.8843,5.42494 -5.0942,6.97481 -5.0942,6.58732 0,-0.23245 -0.9551,0.69747 -2.1014,2.09252 -1.2099,1.39494 -2.0377,2.71236 -1.9102,3.02233 0.1277,0.3875 -0.064,0.62006 -0.446,0.62006 -0.8275,0 -6.3677,6.66473 -6.3677,7.74981 0,0.38749 -0.3821,0.77499 -0.8915,0.77499 -0.5094,0 -1.0826,0.54243 -1.2735,1.24012 -0.1912,0.61984 -0.6369,0.9297 -1.019,0.69725 -0.3184,-0.23234 -0.6367,-0.0772 -0.6367,0.31008 0,1.39494 -3.6933,6.35487 -7.5141,10.1523 -3.4386,3.33231 -31.33,37.19916 -31.33,37.97426 0,0.46479 -0.2546,0.77489 -0.5094,0.77489 -0.3183,0 -4.8395,5.0374 -10.0612,11.2373 -5.158,6.1998 -9.9338,11.3923 -10.507,11.6247 -0.573,0.2325 -1.401,1.3175 -1.8465,2.3249 -0.4459,1.085 -1.0827,1.9374 -1.4011,1.9374 -0.2546,0 -0.5093,0.5427 -0.5093,1.1625 0,0.6201 -0.2546,1.085 -0.5095,1.0076 -0.6368,-0.31 -5.8585,6.3549 -5.8585,7.4398 0,0.3874 -0.1276,0.5424 -0.3182,0.31 -0.1912,-0.2326 -9.1697,10.1522 -19.9316,23.0945 -10.7616,12.9423 -30.5657,36.8117 -44.0657,53.0089 -13.4998,16.1971 -35.7873,43.0889 -49.6056,59.6736 -13.7545,16.6621 -25.153,30.2245 -25.2803,30.2245 -0.1276,0 -3.375,3.7198 -7.196,8.2922 -3.8204,4.6498 -8.0869,9.6873 -9.5514,11.3149 -1.4648,1.6274 -2.611,3.3322 -2.611,3.7197 0,0.3874 -0.4457,0.6975 -0.9551,0.6975 -0.5095,0 -0.8915,0.31 -0.7642,0.62 0.064,0.3101 -6.3043,8.2924 -14.1368,17.5921 -7.8322,9.3772 -18.9761,22.6296 -24.7071,29.5269 -5.731,6.8973 -11.3348,13.5621 -12.481,14.8796 -1.0827,1.3175 -3.184,3.7975 -4.5849,5.5023 -1.401,1.7824 -2.7383,3.1776 -2.993,3.1776 -0.3184,0 -0.5093,0.5423 -0.5093,1.1624 0,0.62 -0.4458,1.1625 -0.9551,1.1625 -0.5094,0 -0.9553,0.3098 -0.9553,0.775 0,1.0848 -2.3562,3.875 -2.8018,3.255 -0.1911,-0.2327 -0.3821,-0.077 -0.3821,0.3874 0,0.3875 -1.2736,2.4025 -2.8655,4.3399 -1.592,2.0149 -2.8655,3.4874 -2.8655,3.2549 0,-0.2324 -0.7006,0.5425 -1.5922,1.7051 -4.7121,6.2772 -6.113,7.9823 -6.6862,7.9823 -0.3821,0 -0.6367,0.3873 -0.6367,0.9298 0,0.4651 -0.1912,0.6976 -0.3821,0.4651 -0.382,-0.4651 -4.7123,4.4948 -4.7123,5.3475 0,0.31 -1.9104,2.7123 -4.2663,5.4248 -3.184,3.5649 -4.0756,5.1148 -3.5661,5.7348 0.5095,0.62 25.9173,0.9299 93.9897,0.9299 l 93.2891,0.077 -0.2546,390.669 c -0.1276,214.8254 -0.3821,654.4732 -0.5095,977.0212 l -0.3183,586.5071 h 175.1161 175.0527 v -5.6574 c 0,-3.0224 0.1911,-272.5616 0.382,-598.8294 0.6368,-1229.2781 0.7643,-1348.5481 1.0826,-1348.9356 0.191,-0.2324 37.8247,-0.3875 83.6735,-0.3875 114.5578,0.077 103.3504,0.1546 103.3504,-0.6975 0,-0.2325 -5.4762,-7.0523 -12.1627,-15.1896 -6.6862,-8.0598 -13.1814,-16.042 -14.4549,-17.6696 -1.2736,-1.6274 -2.7383,-3.4099 -3.184,-3.875 -0.4457,-0.465 -1.4647,-1.705 -2.2288,-2.7124 -0.7641,-1.0074 -3.375,-4.1075 -5.8585,-6.9749 -2.4198,-2.7899 -15.4738,-18.4445 -28.9736,-34.6417 -13.4999,-16.2745 -35.9784,-43.3215 -49.924,-60.0611 -28.6555,-34.4869 -63.2327,-76.1033 -99.7206,-120.0449 -13.6273,-16.4298 -36.1059,-43.4765 -49.924,-60.0613 -13.8183,-16.662 -36.6153,-44.17397 -50.6882,-61.14604 -14.0095,-16.97207 -25.4715,-30.76677 -25.4715,-30.53443 0,0.23246 -4.3939,-4.95981 -9.8065,-11.54713 -5.4127,-6.50979 -10.1886,-11.77991 -10.698,-11.77991 -0.4459,0.0772 -4.2029,4.26256 -8.2781,9.2999 z" id="path884"/> </g> <g id="layer18"> <path style="display:inline;opacity:0.57599996;fill:#804d00;stroke-width:0.0667187" d="m 2665.7368,1458.7051 c -4.139,4.6136 -7.514,8.668 -7.514,9.0177 0,0.4194 -0.3821,0.6991 -0.7642,0.6991 -0.4457,0 -1.8466,1.2582 -3.0565,2.866 -3.8845,4.8932 -5.0942,6.2913 -5.0942,5.9419 0,-0.2099 -0.9553,0.6291 -2.1013,1.8872 -1.21,1.2583 -2.038,2.4466 -1.9104,2.7263 0.1276,0.3496 -0.064,0.5593 -0.4458,0.5593 -0.828,0 -6.368,6.0116 -6.368,6.9903 0,0.3495 -0.3821,0.699 -0.8914,0.699 -0.5094,0 -1.0826,0.4894 -1.2736,1.1186 -0.1912,0.5592 -0.6368,0.8389 -1.019,0.6291 -0.3183,-0.2098 -0.6367,-0.07 -0.6367,0.2796 0,1.2583 -3.6933,5.7321 -7.5141,9.1575 -3.4386,3.0059 -31.3299,33.5537 -31.3299,34.2529 0,0.4192 -0.2546,0.699 -0.5093,0.699 -0.3185,0 -4.8397,4.5438 -10.0613,10.136 -5.1579,5.5924 -9.9339,10.276 -10.5068,10.4855 -0.5732,0.2099 -1.4011,1.1884 -1.8468,2.0972 -0.4458,0.9786 -1.0826,1.7477 -1.4011,1.7477 -0.2546,0 -0.5093,0.4893 -0.5093,1.0485 0,0.5593 -0.2548,0.9787 -0.5094,0.9087 -0.6369,-0.2797 -5.8585,5.7322 -5.8585,6.7107 0,0.3496 -0.1276,0.4895 -0.3183,0.2797 -0.1912,-0.2097 -9.1699,9.1574 -19.9313,20.8314 -10.7619,11.6738 -30.5659,33.2044 -44.0657,47.8142 -13.4999,14.6099 -35.7876,38.8666 -49.6056,53.826 -13.7548,15.0292 -25.1532,27.2625 -25.2805,27.2625 -0.1277,0 -3.375,3.3554 -7.1958,7.4797 -3.8207,4.1942 -8.0872,8.7381 -9.5517,10.2061 -1.4647,1.4679 -2.611,3.0058 -2.611,3.3552 0,0.3496 -0.4456,0.6293 -0.9549,0.6293 -0.5096,0 -0.8916,0.2795 -0.7642,0.5592 0.064,0.2796 -6.3043,7.4796 -14.1367,15.8681 -7.8325,8.4584 -18.9762,20.412 -24.7074,26.6335 -5.7309,6.2213 -11.3347,12.2332 -12.481,13.4214 -1.0826,1.1884 -3.184,3.4254 -4.5849,4.9633 -1.4008,1.6077 -2.7382,2.8661 -2.9928,2.8661 -0.3184,0 -0.5095,0.4893 -0.5095,1.0485 0,0.5594 -0.4458,1.0485 -0.9552,1.0485 -0.5095,0 -0.9551,0.2797 -0.9551,0.6991 0,0.9786 -2.3561,3.4952 -2.8018,2.9358 -0.1912,-0.2095 -0.3822,-0.07 -0.3822,0.3497 0,0.3495 -1.2735,2.1669 -2.8655,3.9146 -1.592,1.8173 -2.8655,3.1457 -2.8655,2.9361 0,-0.2098 -0.7006,0.4892 -1.592,1.5376 -4.7123,5.6624 -6.1131,7.2003 -6.6862,7.2003 -0.382,0 -0.6369,0.3494 -0.6369,0.8388 0,0.4194 -0.1911,0.6292 -0.3821,0.4194 -0.382,-0.4194 -4.7122,4.0544 -4.7122,4.8233 0,0.2798 -1.9103,2.4467 -4.2664,4.8934 -3.1839,3.2155 -4.0753,4.6135 -3.5659,5.1728 0.5093,0.5592 25.9172,0.8389 93.9896,0.8389 l 93.2255,0.071 -0.2547,415.6485 c -0.1277,228.5859 -0.3185,557.5535 -0.3822,730.9849 l -0.1909,315.4766 h 174.9888 c 96.2185,0 174.9891,-0.071 175.0526,-0.2099 0.064,-0.2097 0.5095,-539.7979 0.7641,-1042.6167 0.1277,-229.9838 0.4458,-418.3747 0.6369,-418.5845 0.1909,-0.2095 37.825,-0.3495 83.6737,-0.3495 114.5579,0.071 103.3505,0.1394 103.3505,-0.6291 0,-0.2096 -5.4765,-6.3612 -12.1627,-13.7011 -6.6863,-7.27 -13.1815,-14.4703 -14.4551,-15.9382 -1.2736,-1.4679 -2.7381,-3.0756 -3.1838,-3.4952 -0.4458,-0.4194 -1.4645,-1.5379 -2.2288,-2.4464 -0.7641,-0.9089 -3.375,-3.705 -5.8585,-6.2916 -2.4198,-2.5165 -15.4738,-16.6369 -28.9738,-31.2468 -13.4998,-14.6801 -35.9785,-39.0764 -49.9241,-54.1757 -28.6552,-31.1071 -63.2327,-68.6457 -99.7207,-108.2812 -13.6271,-14.8196 -36.1056,-39.216 -49.9239,-54.1755 -13.8182,-15.0292 -36.6153,-39.8452 -50.6883,-55.1539 -14.0093,-15.3091 -25.4715,-27.7521 -25.4715,-27.5423 0,0.2096 -4.3938,-4.4738 -9.8065,-10.4159 -5.4127,-5.8717 -10.1885,-10.6252 -10.698,-10.6252 -0.4457,0.07 -4.2027,3.8447 -8.2783,8.3885 z" id="path886"/> </g> <g id="layer3"> <path style="opacity:0.681;fill:#d76cff;stroke-width:0.06367864" d="m 1971.0238,1341.5916 c -4.139,4.2026 -7.514,7.8959 -7.514,8.2145 0,0.3821 -0.3822,0.6367 -0.7643,0.6367 -0.4456,0 -1.8465,1.1463 -3.0565,2.6108 -3.8844,4.4575 -5.0941,5.7311 -5.0941,5.4128 0,-0.1911 -0.9553,0.573 -2.1016,1.7192 -1.2097,1.1461 -2.0377,2.2287 -1.9103,2.4836 0.1277,0.3183 -0.064,0.5093 -0.4456,0.5093 -0.8279,0 -6.368,5.4764 -6.368,6.3679 0,0.3183 -0.3821,0.6368 -0.8914,0.6368 -0.5095,0 -1.0826,0.4457 -1.2736,1.0187 -0.1912,0.5095 -0.6368,0.7641 -1.019,0.5732 -0.3184,-0.1911 -0.6367,-0.064 -0.6367,0.2548 0,1.1461 -3.6933,5.2216 -7.5142,8.3418 -3.4386,2.7381 -31.3298,30.5659 -31.3298,31.2026 0,0.382 -0.2546,0.6368 -0.5093,0.6368 -0.3185,0 -4.8397,4.1391 -10.0614,9.2334 -5.158,5.0941 -9.9338,9.3607 -10.5068,9.5518 -0.5733,0.1909 -1.401,1.0825 -1.8468,1.9103 -0.4457,0.8914 -1.0825,1.5919 -1.4008,1.5919 -0.2548,0 -0.5096,0.4458 -0.5096,0.9552 0,0.5096 -0.2546,0.8917 -0.5093,0.828 -0.6369,-0.2548 -5.8585,5.2215 -5.8585,6.1129 0,0.3185 -0.1276,0.4458 -0.3184,0.2549 -0.1911,-0.191 -9.1698,8.3418 -19.9312,18.9763 -10.7619,10.6342 -30.5661,30.2472 -44.0657,43.5561 -13.5,13.3088 -35.7876,35.4052 -49.6059,49.0326 -13.7545,13.6909 -25.153,24.8346 -25.2803,24.8346 -0.1276,0 -3.3749,3.0567 -7.1957,6.8136 -3.8207,3.8207 -8.0873,7.9598 -9.5518,9.297 -1.4647,1.3374 -2.6109,2.7382 -2.6109,3.0567 0,0.3184 -0.4457,0.5732 -0.9551,0.5732 -0.5094,0 -0.8915,0.2546 -0.7642,0.5094 0.064,0.2546 -6.3041,6.8135 -14.1366,14.4549 -7.8324,7.7051 -18.9763,18.5941 -24.7073,24.2616 -5.7311,5.6672 -11.3348,11.1437 -12.481,12.2264 -1.0826,1.0823 -3.184,3.1201 -4.585,4.5211 -1.4008,1.4647 -2.7381,2.6109 -2.9927,2.6109 -0.3184,0 -0.5095,0.4456 -0.5095,0.955 0,0.5096 -0.4458,0.9552 -0.9552,0.9552 -0.5093,0 -0.9552,0.2549 -0.9552,0.637 0,0.8914 -2.3562,3.1837 -2.8017,2.6743 -0.1912,-0.1909 -0.3822,-0.064 -0.3822,0.3185 0,0.3185 -1.2735,1.974 -2.8655,3.5659 -1.592,1.6557 -2.8656,2.8657 -2.8656,2.6745 0,-0.1909 -0.7006,0.4458 -1.5921,1.4011 -4.7121,5.1578 -6.1129,6.5589 -6.6862,6.5589 -0.3821,0 -0.6367,0.3183 -0.6367,0.7639 0,0.3821 -0.1909,0.5733 -0.3821,0.3821 -0.382,-0.3821 -4.7122,3.6935 -4.7122,4.3939 0,0.2548 -1.9103,2.2288 -4.2665,4.4576 -3.1839,2.9291 -4.0754,4.2027 -3.566,4.7122 0.5094,0.5095 25.9173,0.7642 93.9898,0.7642 l 93.2891,0.064 -0.2547,321.0039 c -0.1276,176.5173 -0.3821,537.7662 -0.5094,802.7967 l -0.3185,481.92 h 175.1164 175.0524 v -4.6485 c 0,-2.4836 0.1912,-223.9579 0.3822,-492.0449 0.6368,-1010.0706 0.7641,-1108.0721 1.0826,-1108.3905 0.1909,-0.191 37.825,-0.3183 83.6737,-0.3183 114.5578,0.064 103.3503,0.1276 103.3503,-0.5732 0,-0.1909 -5.4763,-5.7947 -12.1625,-12.4811 -6.6863,-6.6225 -13.1816,-13.1814 -14.4552,-14.5186 -1.2735,-1.3373 -2.738,-2.8019 -3.1839,-3.184 -0.4456,-0.382 -1.4645,-1.4009 -2.2287,-2.2288 -0.764,-0.8277 -3.3749,-3.3748 -5.8584,-5.731 -2.4198,-2.2924 -15.474,-15.1555 -28.9738,-28.4644 -13.4999,-13.3724 -35.9785,-35.5963 -49.9241,-49.3509 -28.6553,-28.3368 -63.2329,-62.5324 -99.7207,-98.6381 -13.6273,-13.5 -36.1059,-35.7237 -49.9241,-49.351 -13.8183,-13.6909 -36.6152,-36.2968 -50.6882,-50.2424 -14.0094,-13.9456 -25.4714,-25.2805 -25.4714,-25.0896 0,0.1912 -4.3939,-4.0752 -9.8065,-9.488 -5.4129,-5.349 -10.1885,-9.679 -10.698,-9.679 -0.4457,0.064 -4.2029,3.5022 -8.2783,7.6415 z" id="path10"/> </g> <g id="layer19"> <g style="fill:#000000;stroke:none" transform="matrix(0.06948393,0,0,-0.06948393,606.30201,3567.0986)" id="g4"> <path d="m 14008,32346 c -21,-7 -48,-21 -61,-29 -91,-59 -195,-108 -251,-117 -67,-10 -87,-7 -216,39 -143,51 -255,39 -445,-49 -112,-53 -191,-102 -414,-265 -173,-125 -243,-186 -231,-200 8,-10 -4,-14 -58,-17 -100,-5 -168,-43 -250,-136 l -64,-74 7,-76 c 4,-42 11,-91 16,-108 7,-23 5,-40 -7,-70 -85,-201 -110,-337 -83,-451 28,-116 87,-273 134,-352 57,-98 203,-251 300,-316 54,-36 65,-50 111,-139 41,-78 53,-113 57,-163 4,-36 13,-90 21,-121 8,-31 19,-96 25,-144 7,-64 22,-116 56,-200 26,-62 54,-133 62,-158 28,-85 96,-209 143,-262 25,-29 57,-69 70,-88 13,-19 40,-48 60,-65 57,-49 93,-88 135,-150 53,-78 113,-143 196,-212 43,-35 85,-82 110,-123 22,-36 54,-83 70,-105 16,-22 39,-58 51,-80 11,-22 48,-76 82,-120 33,-44 64,-84 68,-90 4,-5 21,-26 38,-47 17,-20 49,-76 71,-125 154,-338 229,-511 229,-529 0,-6 -15,-31 -33,-55 -78,-103 -221,-367 -272,-504 -38,-101 -86,-303 -92,-387 -4,-57 -1,-90 12,-130 46,-142 190,-368 332,-519 54,-58 112,-121 129,-140 33,-37 139,-193 175,-256 46,-80 148,-293 202,-418 60,-142 140,-310 157,-330 6,-7 21,-15 33,-18 66,-17 225,-47 244,-47 24,0 142,-35 180,-52 12,-6 25,-23 28,-37 3,-14 38,-64 77,-111 39,-47 110,-137 159,-200 48,-63 107,-139 130,-168 29,-38 38,-57 31,-64 -8,-8 3,-26 36,-63 55,-60 98,-142 113,-217 31,-153 40,-179 87,-255 27,-43 66,-116 87,-162 56,-124 99,-195 186,-301 76,-92 105,-116 257,-210 87,-54 158,-145 252,-325 55,-106 91,-159 228,-344 93,-124 222,-309 222,-317 0,-13 88,-134 126,-174 24,-25 65,-75 91,-112 26,-37 107,-142 179,-235 71,-92 162,-211 201,-263 39,-52 83,-106 97,-120 14,-14 94,-104 178,-200 83,-96 154,-177 157,-180 56,-50 102,-116 116,-166 15,-54 46,-138 80,-219 50,-118 48,-100 30,-256 -35,-291 -8,-520 81,-690 70,-132 116,-169 409,-321 l 160,-84 31,-60 c 17,-33 46,-98 65,-144 33,-84 160,-314 235,-425 88,-131 170,-244 242,-335 42,-52 91,-114 109,-137 19,-23 103,-113 187,-200 84,-87 208,-219 276,-293 68,-74 142,-155 165,-180 22,-25 112,-130 200,-235 88,-104 186,-222 220,-261 33,-39 128,-151 210,-249 177,-209 272,-320 369,-430 117,-132 713,-724 826,-820 58,-49 146,-128 195,-175 50,-47 137,-123 195,-168 157,-124 229,-183 274,-223 23,-19 91,-73 151,-119 126,-96 235,-200 259,-247 8,-17 31,-41 50,-52 18,-12 46,-37 61,-57 15,-20 46,-44 68,-54 23,-10 48,-29 58,-41 12,-16 31,-24 65,-28 51,-6 54,-10 69,-83 3,-15 25,-50 50,-78 57,-64 85,-119 85,-167 0,-55 24,-172 60,-293 18,-58 34,-114 37,-126 2,-11 -13,-133 -35,-270 -51,-316 -59,-392 -72,-660 -23,-469 -43,-661 -95,-894 -8,-36 -26,-126 -40,-200 -14,-74 -49,-243 -77,-375 -28,-132 -61,-289 -73,-350 -70,-343 -86,-418 -103,-500 -11,-49 -36,-164 -56,-255 -19,-91 -73,-334 -119,-540 -47,-206 -97,-440 -111,-520 -43,-231 -73,-334 -148,-505 -92,-209 -92,-211 -127,-345 -38,-146 -49,-177 -101,-280 -23,-46 -49,-103 -57,-125 -18,-52 -63,-223 -63,-242 0,-17 -53,-127 -474,-976 -179,-362 -326,-660 -326,-662 0,-2 -34,-75 -76,-162 -42,-87 -119,-250 -171,-363 -53,-113 -117,-250 -142,-305 -26,-55 -91,-175 -144,-266 -53,-91 -97,-169 -97,-172 0,-4 4210,-7 9355,-7 5145,0 9355,2 9355,4 0,4 -165,321 -214,411 -18,33 -60,112 -94,175 -144,276 -416,788 -432,815 -9,17 -31,55 -47,85 -45,83 -164,284 -238,405 -71,114 -128,229 -230,465 -58,133 -148,322 -402,839 -92,186 -117,246 -123,295 -8,65 -67,284 -80,301 -4,6 -22,57 -40,115 -18,58 -42,125 -55,150 -12,25 -32,81 -45,125 -12,44 -52,159 -90,255 -60,154 -91,250 -146,445 -130,468 -179,670 -245,1005 -10,52 -23,113 -28,135 -6,22 -31,137 -57,255 -25,118 -71,323 -101,455 -30,132 -59,256 -63,275 -23,107 -54,239 -81,345 -16,66 -36,147 -44,180 -24,99 -95,417 -104,465 -5,25 -25,122 -44,215 -30,143 -75,374 -117,600 -5,28 -17,114 -26,192 l -17,143 40,57 c 122,175 195,376 222,611 7,52 16,81 34,105 36,48 95,168 108,223 10,44 27,78 122,244 14,25 39,58 55,73 29,28 31,28 56,12 25,-17 26,-16 55,13 17,16 33,42 37,58 10,42 33,64 68,64 58,1 151,26 199,54 52,31 115,98 179,193 39,57 51,67 128,104 147,70 387,220 472,295 55,48 117,90 192,129 159,81 281,152 355,205 35,25 91,65 125,88 33,24 198,135 366,246 378,251 596,406 740,527 30,25 93,77 140,114 199,159 686,610 995,921 402,403 646,654 750,769 174,194 388,401 521,505 141,111 335,288 377,347 15,21 60,81 98,133 39,52 102,147 141,210 39,63 110,176 159,250 48,74 99,161 113,193 17,38 51,86 98,136 40,43 118,135 172,205 99,128 121,147 231,205 99,51 359,215 637,402 145,97 307,202 361,233 103,61 219,147 302,226 72,68 246,206 347,273 112,75 298,238 365,319 194,233 229,274 240,281 8,5 41,32 74,60 71,62 137,116 239,197 218,174 245,201 323,310 76,107 223,268 290,317 29,21 101,82 162,136 60,55 144,123 185,153 41,29 120,89 175,133 55,44 143,113 195,152 52,40 99,76 103,80 5,4 2,18 -7,32 -16,24 -16,25 56,83 40,32 75,61 78,64 3,3 39,32 80,65 84,67 338,283 415,354 66,60 101,90 215,186 52,44 97,82 100,85 10,10 118,99 205,169 50,39 99,79 110,88 20,17 191,149 296,229 87,67 89,71 51,105 -18,16 -32,35 -32,42 0,14 84,97 175,173 112,92 157,129 190,154 190,146 243,188 260,206 11,11 25,23 31,25 13,4 58,41 142,113 31,26 75,57 97,67 55,26 178,140 210,195 30,50 55,179 55,279 0,72 -21,159 -57,234 -14,30 -28,71 -30,90 -5,33 0,40 54,91 33,30 88,80 124,110 35,30 69,59 76,65 6,5 29,26 51,45 21,19 56,49 78,67 21,17 56,48 78,67 21,20 45,36 52,36 8,0 14,3 14,8 0,13 66,52 88,52 12,0 26,9 32,20 6,11 21,20 35,20 13,0 26,4 30,9 3,5 27,17 53,27 26,10 53,26 60,36 7,10 22,18 32,18 13,0 22,9 26,26 4,14 47,69 98,122 117,125 446,452 454,452 4,0 31,24 62,54 30,30 87,86 125,123 85,83 217,223 305,324 36,41 85,94 110,119 95,93 312,295 321,298 5,2 9,8 9,12 0,10 65,84 155,176 160,164 225,237 225,254 0,6 4,10 9,10 5,0 17,21 25,48 9,26 33,65 54,87 80,85 99,122 107,218 7,85 -9,225 -36,313 -5,17 -9,44 -9,61 0,17 -7,36 -15,43 -8,7 -17,27 -21,46 -3,19 -10,34 -15,34 -5,0 -9,9 -9,19 0,11 -4,23 -10,26 -5,3 -10,13 -10,21 0,16 -59,106 -72,112 -5,2 -8,8 -8,13 0,11 -23,39 -85,100 -81,80 -92,89 -104,89 -12,0 -53,21 -61,31 -3,4 -25,16 -50,28 -64,31 -76,42 -105,97 -14,27 -34,63 -45,79 -10,17 -19,36 -19,43 -1,12 -38,70 -52,82 -3,3 -9,24 -13,47 -3,24 -17,63 -31,87 -14,25 -25,53 -25,63 0,10 -9,24 -20,31 -11,7 -20,18 -20,25 0,21 -79,127 -95,127 -7,0 -15,4 -17,8 -6,15 -64,49 -103,60 -42,12 -69,33 -95,72 -57,88 -266,290 -343,332 -30,17 -68,45 -105,78 -10,8 -30,40 -45,70 -49,95 -92,132 -185,159 -45,13 -71,14 -123,7 -65,-9 -68,-8 -150,31 -46,22 -95,43 -109,48 -14,4 -38,13 -55,20 -16,7 -115,34 -218,60 -104,25 -221,59 -260,74 -125,49 -191,64 -263,58 -94,-7 -137,-35 -287,-182 -73,-71 -176,-172 -229,-222 -59,-56 -119,-125 -152,-175 -30,-46 -77,-116 -105,-157 -52,-77 -80,-146 -101,-246 -7,-33 -16,-71 -20,-85 -12,-35 -20,-83 -30,-175 -6,-55 -20,-107 -45,-165 -76,-177 -184,-505 -234,-712 -45,-187 -74,-373 -86,-563 -17,-271 -57,-500 -116,-670 -36,-102 -111,-257 -140,-288 -10,-11 -19,-24 -19,-28 0,-16 -135,-166 -213,-239 -78,-72 -183,-153 -272,-212 -36,-23 -53,-26 -160,-31 -66,-4 -187,-13 -270,-21 -291,-29 -469,-40 -765,-51 -25,0 -56,-4 -70,-8 -44,-13 -334,-25 -354,-15 -12,7 -22,6 -29,-1 -16,-16 -35,-13 -39,6 -2,9 -89,-154 -194,-362 -106,-209 -228,-440 -273,-512 -44,-73 -98,-165 -119,-205 -109,-203 -143,-246 -228,-288 -89,-44 -210,-161 -252,-246 -33,-66 -138,-181 -442,-484 -140,-141 -218,-212 -455,-419 -17,-14 -62,-51 -100,-82 -39,-31 -111,-92 -161,-135 -50,-43 -123,-104 -162,-135 -40,-31 -118,-101 -175,-155 -117,-114 -173,-160 -239,-200 -118,-72 -197,-136 -345,-278 -87,-83 -185,-170 -218,-193 -33,-23 -94,-70 -136,-105 -105,-87 -154,-128 -224,-183 -143,-114 -381,-339 -508,-480 -50,-55 -131,-143 -181,-195 -50,-52 -131,-138 -181,-190 -219,-232 -486,-499 -637,-636 -90,-82 -199,-183 -243,-224 -45,-41 -133,-114 -196,-162 -96,-72 -311,-247 -329,-267 -3,-3 -41,-35 -85,-71 -44,-35 -82,-67 -85,-70 -3,-3 -63,-55 -134,-115 -72,-61 -171,-146 -220,-190 -50,-45 -156,-137 -237,-205 -80,-69 -201,-173 -270,-232 -68,-58 -189,-168 -269,-243 -127,-119 -158,-143 -244,-187 -177,-89 -345,-190 -521,-312 -55,-38 -114,-79 -131,-90 -181,-126 -518,-433 -622,-567 -46,-59 -59,-69 -129,-98 -162,-68 -381,-192 -549,-313 -74,-53 -87,-59 -159,-69 -232,-32 -426,-148 -580,-348 -49,-64 -103,-102 -167,-117 -24,-5 -30,-1 -55,46 -126,234 -378,602 -498,728 -101,107 -190,172 -330,242 -104,52 -181,71 -286,72 -70,0 -97,-5 -152,-27 -50,-19 -89,-27 -154,-30 -91,-4 -371,-37 -458,-54 -27,-6 -230,-55 -450,-111 -220,-55 -440,-107 -490,-115 -49,-8 -130,-23 -180,-34 -106,-23 -342,-48 -352,-37 -7,7 5,55 62,251 38,131 52,197 85,405 10,64 27,336 37,575 5,126 -13,271 -41,337 -8,18 -26,85 -40,148 -15,63 -37,162 -50,220 -13,58 -27,121 -31,140 -6,32 -45,169 -65,230 -18,55 -71,173 -151,335 l -83,170 -10,123 c -7,85 -6,136 1,163 9,35 8,41 -8,49 -17,10 -109,130 -109,144 0,14 -84,231 -91,236 -4,3 -12,28 -18,55 -5,28 -17,77 -25,110 -9,33 -13,73 -10,90 4,17 6,43 6,58 0,20 6,30 23,37 12,5 25,14 27,21 5,16 68,1 68,-17 0,-30 19,-12 26,24 4,20 14,48 24,62 30,46 42,107 35,193 -23,314 -63,605 -86,633 -6,8 -9,14 -6,14 3,0 -3,31 -14,70 -10,38 -19,79 -19,90 0,10 -7,34 -15,52 -8,18 -33,80 -55,138 -47,121 -101,234 -136,285 -13,20 -24,38 -24,41 0,3 -27,43 -60,87 -66,89 -78,104 -124,158 -17,20 -51,60 -76,90 -53,64 -188,208 -212,226 -18,14 -51,47 -114,114 -42,44 -81,79 -88,79 -3,0 -30,27 -62,60 -31,33 -62,60 -69,60 -6,0 -21,11 -34,24 -12,12 -47,36 -79,52 -31,16 -63,36 -69,45 -7,9 -24,20 -38,23 -14,4 -25,11 -25,16 0,6 -6,10 -12,10 -22,0 -125,55 -180,96 -76,56 -162,104 -186,104 -6,0 -12,6 -15,14 -6,14 -143,86 -165,86 -7,0 -12,5 -12,10 0,6 -7,10 -15,10 -9,0 -18,7 -21,15 -4,9 -19,15 -40,15 -19,0 -34,5 -34,10 0,6 -11,10 -25,10 -14,0 -28,7 -31,15 -4,8 -12,15 -20,15 -8,0 -14,5 -14,10 0,6 -8,10 -17,10 -10,0 -36,9 -58,19 -67,33 -108,49 -155,61 -25,6 -54,14 -65,19 -62,24 -184,61 -203,61 -27,0 -111,19 -134,31 -10,5 -26,9 -37,9 -10,0 -72,13 -137,29 -126,31 -245,48 -306,43 -21,-2 -38,1 -38,6 0,5 -12,10 -27,10 -16,1 -70,8 -121,16 -68,12 -139,15 -270,12 -297,-7 -375,-14 -392,-34 -12,-14 -33,-17 -102,-18 -48,-1 -93,-6 -100,-11 -7,-6 -31,-16 -53,-23 -22,-7 -49,-19 -60,-26 -11,-8 -30,-14 -43,-14 -13,0 -41,-9 -63,-20 -32,-15 -54,-18 -100,-14 -32,3 -63,3 -69,-1 -5,-3 -83,-7 -172,-9 -201,-4 -263,-11 -357,-42 -40,-13 -79,-24 -85,-24 -6,0 -33,-11 -61,-25 -27,-13 -54,-25 -60,-25 -5,0 -50,-23 -100,-51 -49,-28 -157,-86 -240,-128 -82,-43 -202,-111 -265,-153 -63,-41 -129,-83 -147,-92 -18,-9 -36,-22 -40,-29 -4,-6 -27,-25 -51,-41 -24,-16 -46,-34 -50,-40 -4,-6 -34,-31 -66,-55 -115,-85 -401,-389 -548,-581 -15,-19 -45,-55 -68,-80 -83,-90 -267,-348 -337,-473 -13,-22 -34,-54 -47,-71 -13,-17 -37,-58 -55,-90 -17,-33 -42,-74 -54,-90 -12,-17 -35,-56 -51,-86 -16,-30 -37,-66 -46,-80 -10,-14 -32,-52 -49,-85 -18,-33 -50,-89 -71,-125 -51,-86 -105,-202 -125,-267 -3,-13 -11,-23 -16,-23 -6,0 -8,-4 -5,-9 3,-4 -6,-23 -19,-41 -14,-19 -25,-40 -25,-47 0,-8 -8,-28 -17,-46 -9,-18 -24,-66 -34,-107 -10,-41 -31,-113 -47,-160 -47,-135 -92,-283 -92,-302 0,-9 -4,-19 -9,-22 -5,-3 -14,-30 -21,-58 -7,-29 -20,-82 -30,-118 -10,-36 -35,-126 -55,-200 -20,-74 -46,-166 -57,-205 -27,-94 -46,-182 -53,-258 -4,-34 -11,-89 -17,-122 -5,-33 -12,-73 -13,-90 -7,-51 -43,-266 -60,-350 -9,-44 -18,-96 -20,-115 -1,-19 -7,-53 -13,-75 -42,-163 -56,-340 -56,-710 -1,-266 3,-349 16,-425 10,-52 20,-124 23,-160 7,-78 43,-218 92,-355 19,-55 45,-134 58,-176 22,-74 60,-159 75,-169 11,-7 30,-80 30,-115 0,-25 -13,-44 -67,-96 -38,-36 -107,-96 -155,-132 -47,-37 -96,-79 -107,-94 -12,-16 -52,-66 -89,-113 -37,-47 -78,-101 -90,-121 -33,-54 -48,-65 -69,-48 -9,8 -44,52 -79,99 -103,139 -409,416 -615,556 -36,24 -112,70 -169,102 l -103,57 -111,162 c -169,248 -272,390 -351,483 -73,87 -100,124 -178,245 -25,39 -86,124 -136,190 -50,66 -140,185 -198,265 -59,80 -128,170 -153,200 -94,113 -206,260 -273,360 -32,47 -109,159 -172,250 -273,394 -410,603 -475,720 -23,41 -70,118 -105,171 -34,52 -104,176 -155,275 -186,359 -251,472 -405,709 -111,170 -167,238 -351,425 -89,91 -189,197 -222,235 -32,39 -139,152 -236,250 -98,99 -212,223 -254,275 -42,52 -130,157 -197,234 -66,76 -144,166 -173,200 -30,33 -138,174 -242,311 -195,260 -231,304 -365,445 -131,137 -204,230 -243,306 -36,71 -173,246 -251,323 -78,75 -211,180 -264,208 -23,12 -31,12 -37,2 -7,-10 -17,-10 -53,0 -46,13 -60,27 -156,153 -27,37 -55,62 -77,70 -24,8 -37,21 -44,44 -10,29 -31,51 -114,121 -17,14 -26,31 -26,51 0,20 -10,37 -35,57 -19,16 -37,42 -40,56 -4,15 -13,33 -21,40 -8,6 -14,22 -14,34 0,36 -32,68 -70,69 -38,1 -32,-11 -90,171 -58,178 -154,325 -258,392 -62,41 -62,41 -225,225 -62,70 -118,127 -124,127 -7,1 -13,5 -13,10 0,5 -29,39 -65,76 -36,37 -65,70 -65,72 0,2 -11,16 -25,31 -35,36 -88,125 -113,187 -21,53 -30,86 -58,200 -9,39 -25,99 -36,135 -21,73 -20,91 19,240 44,172 102,326 193,515 10,22 27,60 37,85 24,58 100,208 124,242 11,14 19,31 19,37 0,6 3,11 8,11 4,0 16,16 26,35 10,19 26,42 35,52 9,10 24,34 34,53 9,19 33,62 52,95 64,111 98,196 115,288 27,149 -17,481 -81,612 -32,65 -72,101 -174,155 -33,18 -71,42 -84,53 -27,25 -103,139 -141,212 -36,67 -63,116 -73,129 -150,209 -187,236 -417,300 -149,42 -257,57 -300,41 -19,-7 -72,-27 -117,-44 -45,-17 -91,-31 -103,-31 -11,0 -79,27 -152,59 -73,32 -155,64 -183,69 -27,6 -96,20 -152,32 -142,29 -192,33 -235,16 z" id="path2-5"/> </g> </g> </svg>