<?xml version='1.0' encoding='utf-8'?>
<svg xmlns="http://www.w3.org/2000/svg" version="1.1" width="1720px" height="1229px" viewBox="-320 450 1720 1229"> <g id="layer1"> <g style="fill:rgb(64,190,174); fill-opacity:1.0; stroke-linejoin: miter"> <path d="M-344.34415,436.81787C-344.60556,436.81787,-344.85632,436.92163,-345.04108,437.1062C-345.226,437.29126,-345.32986,437.5421,-345.32986,437.8036L-345.3289,1694.5853C-345.3289,1695.13,-344.88745,1695.5709,-344.343,1695.5709L1414.5331,1695.5721C1414.7941,1695.5721,1415.0452,1695.4684,1415.2299,1695.2833C1415.4147,1695.0983,1415.5186,1694.8478,1415.5186,1694.5863L1415.5177,437.80444C1415.5177,437.26,1415.0764,436.81873,1414.5317,436.81873L-344.34415,436.81787 Z"/> </g> <g style="fill:rgb(249,253,255); fill-opacity:0.19215687; stroke-linejoin: miter"> <path d="M562.29645,877.522L511.83417,880.6438Q412.82855,890.5409,329.1801,929.6343Q287.3554,949.1809,249.37024,976.02795Q227.5456,985.32166,144.91785,1072.1278Q-8.0581665,1266.2513,23.436493,1501.1906L1101.032,1501.1815Q1132.7052,1266.2423,979.67163,1072.1234Q819.8391,884.4419,562.29645,877.522 Z"/> </g> <g style="fill:rgb(255,255,255); fill-opacity:1.0; stroke-linejoin: miter"> <path d="M941.5469,1507.5814C1016.0902,1522.014,1040.6177,1369.2938,979.14526,1353.9464L605.59503,1362.7596C679.1756,1400.3334,636.00726,1502.5424,564.1693,1501.9181L941.5491,1507.5826 Z"/> </g> <g style="fill:rgb(255,212,132); fill-opacity:1.0; stroke-linejoin: miter"> <path d="M978.10266,1353.7411C924.44226,1353.7374,941.6062,1418.2233,951.9182,1431.7421L574.75824,1434.0101C557.7621,1410.2496,566.57367,1365.966,609.114,1362.3414L978.1046,1353.7406 Z"/> </g> <g style="fill:rgb(255,255,255); fill-opacity:1.0; stroke-linejoin: miter"> <path d="M548.4867,807.1937C707.9518,835.03613,427.95,1483.2885,563.03687,1502.0106L948.37756,1508.0363C767.9636,1450.0568,1096.957,818.21094,939.58496,770.5243L548.4859,807.202 Z"/> </g> <g style="fill:rgb(255,255,255); fill-opacity:1.0; stroke-linejoin: miter"> <path d="M935.2462,807.0504C946.3772,816.55786,968.8346,864.2727,931.723,875.6133L513.17505,909.6935C555.0332,883.08777,535.93616,861.50037,522.94916,846.2042L935.2329,807.05176 Z"/> </g> <g style="fill:rgb(255,212,132); fill-opacity:1.0; stroke-linejoin: miter"> <path d="M928.96655,771.75586C886.9551,800.7805,897.5631,868.79443,923.0846,875.9193L516.5451,909.7975C498.81677,911.95264,477.81317,816.0205,546.24365,806.5537L928.95483,771.75635 Z"/> </g> <g style="fill:rgb(0,0,0); fill-opacity:0.5294118; stroke-linejoin: miter"> <path d="M1126.8479,1507.3466Q1124.0762,1507.9171,1111.8973,1508.153Q1100.3381,1508.4657,1081.85,1508.7494Q1076.9368,1508.9088,1010.79504,1509.5338Q981.9133,1509.7736,946.1024,1509.9847Q930.8954,1510.1193,826.344,1510.528Q783.676,1510.6722,737.8867,1510.7648Q646.3082,1510.9498,542.24567,1510.9276Q381.18817,1510.8636,262.1479,1510.368Q182.612,1510.0428,121.28177,1509.5411Q100.90146,1509.4274,47.576263,1508.7377Q10.58313,1508.1722,5.9738464,1507.5267Q6.2902527,1506.6888,19.287354,1506.5416Q42.4057,1505.9166,93.24042,1505.4081Q162.84674,1504.7977,185.08295,1504.7106Q259.2209,1504.2753,348.29028,1504.036Q368.45398,1503.9442,487.99896,1503.797Q647.02966,1503.6615,784.95056,1504.0463Q891.7665,1504.3802,907.6677,1504.5006Q983.54333,1504.8751,1037.6472,1505.4044Q1131.3507,1506.4095,1126.8479,1507.3466"/> </g> <g style="fill:rgb(0,0,0); fill-opacity:0.22745098; stroke-linejoin: miter"> <path d="M893.97986,976.5099Q891.5741,976.5099,871.46375,976.93726Q838.9374,977.68994,784.69934,979.3522Q661.6668,983.2284,635.7265,984.8335L634.52313,984.9918Q634.5666,985.08496,637.3672,985.08496Q638.18915,985.08496,639.2487,985.0769L639.25507,985.07825Q639.2466,985.08545,639.5825,985.08545Q641.992,985.08545,662.0979,984.6582Q694.62415,983.9055,748.86194,982.2429Q871.8949,978.36707,897.83496,976.7622L899.0388,976.60364Q898.9949,976.51013,896.1908,976.51013Q895.3678,976.51013,894.30664,976.51855Q894.31604,976.5099,893.97986,976.5099 Z M889.6638,1031.8829Q887.9862,1031.8829,885.3667,1031.9055Q868.2252,1032.2173,857.5316,1032.4866Q826.475,1033.2458,778.26355,1034.723Q639.8792,1039.1155,628.08716,1040.3629Q627.6593,1040.4546,631.02,1040.4546Q632.6987,1040.4546,635.323,1040.4315Q652.46454,1040.1196,663.1579,1039.8508Q694.2145,1039.092,742.4258,1037.614Q788.8312,1036.1959,849.16235,1034.008Q879.8701,1032.8462,891.3992,1032.1326L892.6028,1031.9745Q893.031,1031.8829,889.6638,1031.8829 Z M880.1581,1078.9187Q877.75305,1078.9187,857.6415,1079.3456Q825.11523,1080.0984,770.8772,1081.761Q647.8443,1085.637,621.90436,1087.242L620.70105,1087.4Q620.74445,1087.4938,623.54944,1087.4938Q624.3699,1087.4938,625.4264,1087.4856L625.4327,1087.4865Q625.42444,1087.4938,625.7606,1087.4938Q628.17096,1087.4938,648.2756,1087.0664Q680.802,1086.3137,735.03955,1084.6515Q858.07275,1080.7759,884.01294,1079.1705L885.21643,1079.0121Q885.1727,1078.9187,882.36633,1078.9187Q881.54407,1078.9187,880.4845,1078.9269Q880.4939,1078.9187,880.1581,1078.9187 Z M875.8434,1134.2911Q874.1654,1134.2911,871.5442,1134.3142Q854.40283,1134.626,843.7095,1134.8953Q812.65234,1135.654,764.44116,1137.1322Q626.0568,1141.5238,614.26483,1142.7711Q613.837,1142.8633,617.2018,1142.8633Q618.87964,1142.8633,621.50085,1142.8398Q638.64197,1142.5284,649.3356,1142.259Q680.3924,1141.5002,728.6034,1140.0227Q775.0088,1138.6041,835.3402,1136.4172Q866.04785,1135.255,877.57715,1134.5414L878.7804,1134.3828Q879.20825,1134.2911,875.8434,1134.2911 Z M862.2976,1184.1349Q859.89026,1184.1349,839.78174,1184.5627Q807.2554,1185.3154,753.01746,1186.9781Q629.98456,1190.8538,604.0446,1192.459L602.84106,1192.6172Q602.8845,1192.7106,605.6851,1192.7106Q606.50714,1192.7106,607.5669,1192.7028L607.57275,1192.7036Q607.5645,1192.7109,607.90027,1192.7109Q610.308,1192.7109,630.41565,1192.284Q662.94226,1191.5312,717.17993,1189.8687Q840.21277,1185.9926,866.15295,1184.3873L867.3567,1184.2292Q867.31287,1184.1354,864.5022,1184.1354Q863.6815,1184.1354,862.62463,1184.1437Q862.63416,1184.1349,862.2976,1184.1349 Z M857.9818,1239.5078Q856.3041,1239.5078,853.6847,1239.5309Q836.54333,1239.8428,825.8495,1240.1116Q794.79285,1240.8708,746.5814,1242.3488Q608.19714,1246.7404,596.4051,1247.9879Q595.97705,1248.08,599.34204,1248.08Q601.0199,1248.08,603.6411,1248.057Q620.7822,1247.745,631.4758,1247.4762Q662.5325,1246.7169,710.74365,1245.2394Q757.14905,1243.8212,817.48047,1241.6335Q848.1881,1240.4717,859.71716,1239.7584L860.92065,1239.6Q861.34875,1239.5078,857.9818,1239.5078 Z M848.47546,1286.5433Q846.0686,1286.5433,825.95935,1286.9711Q793.4332,1287.7238,739.19495,1289.3864Q616.16223,1293.2623,590.2223,1294.8678L589.01874,1295.0258Q589.0624,1295.1188,591.863,1295.1188Q592.685,1295.1188,593.74457,1295.111L593.7506,1295.1122Q593.7422,1295.1198,594.07855,1295.1198Q596.4889,1295.1198,616.5935,1294.6923Q649.11993,1293.9396,703.3578,1292.277Q826.39075,1288.401,852.3308,1286.7955L853.5344,1286.6376Q853.4907,1286.5441,850.68445,1286.5441Q849.86206,1286.5441,848.8025,1286.5519Q848.81177,1286.5433,848.47546,1286.5433 Z M844.1594,1341.9166Q842.48206,1341.9166,839.8623,1341.9396Q822.72095,1342.2511,812.02734,1342.5206Q780.9706,1343.2792,732.75916,1344.7572Q594.37476,1349.1493,582.58295,1350.3966Q582.1547,1350.4886,585.5215,1350.4886Q587.1991,1350.4886,589.8186,1350.4657Q606.96014,1350.1537,617.6535,1349.8849Q648.7103,1349.1256,696.9215,1347.6476Q743.3268,1346.2296,803.6583,1344.0421Q834.3657,1342.8802,845.895,1342.1669L847.09863,1342.0082Q847.5266,1341.9166,844.1594,1341.9166 Z"/> </g> <g style="fill:rgb(0,0,0); fill-opacity:0.22745098; stroke-linejoin: miter"> <path d="M894.042,977.95667Q891.636,977.95667,871.52563,978.3838Q838.99927,979.1365,784.7612,980.7992Q661.7287,984.6749,635.7884,986.2803L634.585,986.43835Q634.6285,986.532,637.4291,986.532Q638.2511,986.532,639.3104,986.52356L639.3167,986.5248Q639.3085,986.532,639.64465,986.532Q642.0539,986.532,662.1598,986.10486Q694.68604,985.3522,748.9238,983.68994Q871.95703,979.81384,897.8971,978.2085L899.1007,978.0503Q899.057,977.95703,896.2527,977.95703Q895.4297,977.95703,894.3685,977.9651Q894.3779,977.95667,894.042,977.95667 Z M889.7257,1033.3292Q888.0481,1033.3292,885.4286,1033.3523Q868.2871,1033.6641,857.5936,1033.9333Q826.5371,1034.6921,778.32544,1036.1698Q639.9411,1040.5619,628.14905,1041.8092Q627.7212,1041.9009,631.0819,1041.9009Q632.7608,1041.9009,635.3849,1041.8783Q652.5264,1041.5664,663.2196,1041.2976Q694.27637,1040.5383,742.4878,1039.0603Q788.8933,1037.6427,849.22424,1035.4548Q879.9321,1034.293,891.4613,1033.5795L892.6647,1033.4213Q893.09265,1033.3292,889.7257,1033.3292 Z M880.2201,1080.365Q877.81506,1080.365,857.7036,1080.792Q825.1769,1081.5447,770.9391,1083.2073Q647.9062,1087.0834,621.9665,1088.6887L620.7627,1088.8468Q620.80634,1088.9402,623.6113,1088.9402Q624.43176,1088.9402,625.4883,1088.9324L625.49457,1088.9332Q625.4863,1088.9406,625.8225,1088.9406Q628.23285,1088.9406,648.33746,1088.5132Q680.86365,1087.7605,735.1017,1086.0983Q858.13464,1082.2223,884.0748,1080.617L885.27856,1080.4589Q885.2346,1080.3655,882.42847,1080.3655Q881.6062,1080.3655,880.5464,1080.3733Q880.55554,1080.365,880.2201,1080.365 Z M875.9053,1135.7375Q874.22754,1135.7375,871.6062,1135.7605Q854.4647,1136.0724,843.77136,1136.3417Q812.71423,1137.1005,764.5033,1138.5785Q626.1187,1142.9701,614.3267,1144.2175Q613.89886,1144.3096,617.2637,1144.3096Q618.9415,1144.3096,621.563,1144.287Q638.7041,1143.9747,649.3977,1143.7059Q680.4543,1142.9471,728.6653,1141.469Q775.0707,1140.0509,835.40234,1137.8636Q866.11,1136.7013,877.6388,1135.9882L878.8425,1135.8296Q879.2704,1135.7375,875.9053,1135.7375 Z M862.3596,1185.5822Q859.95215,1185.5822,839.8436,1186.0092Q807.31726,1186.7618,753.0791,1188.4244Q630.04645,1192.3005,604.1065,1193.9058L602.90295,1194.064Q602.94666,1194.1573,605.747,1194.1573Q606.56903,1194.1573,607.6288,1194.1495L607.63464,1194.1499Q607.6264,1194.1577,607.96216,1194.1577Q610.3701,1194.1577,630.47754,1193.7303Q663.00415,1192.9777,717.2418,1191.315Q840.2749,1187.4395,866.2151,1185.8341L867.4186,1185.676Q867.375,1185.5826,864.56433,1185.5826Q863.74365,1185.5826,862.68677,1185.5905Q862.6958,1185.5822,862.3596,1185.5822 Z M858.0437,1240.9546Q856.36597,1240.9546,853.7466,1240.9777Q836.605,1241.2896,825.9114,1241.5583Q794.85474,1242.3175,746.6432,1243.7953Q608.2592,1248.1871,596.467,1249.4347Q596.0391,1249.5262,599.404,1249.5262Q601.0818,1249.5262,603.703,1249.5038Q620.84436,1249.1918,631.5377,1248.9225Q662.59436,1248.1637,710.8058,1246.6862Q757.21094,1245.2677,817.5426,1243.08Q848.25024,1241.9183,859.77905,1241.2048L860.9828,1241.0463Q861.41064,1240.9546,858.0437,1240.9546 Z M848.53735,1287.9904Q846.1305,1287.9904,826.02124,1288.4174Q793.4949,1289.17,739.25684,1290.8326Q616.2243,1294.7089,590.2842,1296.3141L589.0806,1296.4723Q589.12427,1296.566,591.92487,1296.566Q592.7471,1296.566,593.80664,1296.5573L593.8123,1296.5587Q593.8041,1296.5665,594.1407,1296.5665Q596.551,1296.5665,616.6554,1296.1385Q649.1816,1295.3864,703.4197,1293.7233Q826.45264,1289.848,852.3927,1288.2423L853.5963,1288.0844Q853.5526,1287.9904,850.74634,1287.9904Q849.9242,1287.9904,848.8644,1287.9987Q848.87366,1287.9904,848.53735,1287.9904 Z M844.2213,1343.3634Q842.54395,1343.3634,839.9242,1343.3859Q822.78284,1343.6974,812.08923,1343.9672Q781.0325,1344.726,732.8213,1346.2035Q594.43665,1350.5961,582.64465,1351.8434Q582.2166,1351.9354,585.5834,1351.9354Q587.261,1351.9354,589.8807,1351.912Q607.02203,1351.6005,617.71564,1351.3312Q648.7722,1350.5724,696.9834,1349.0948Q743.3887,1347.6759,803.7202,1345.4889Q834.42786,1344.3268,845.95667,1343.6136L847.1605,1343.455Q847.58826,1343.3634,844.2213,1343.3634 Z"/> </g> <g style="fill:rgb(0,0,0); fill-opacity:0.22745098; stroke-linejoin: miter"> <path d="M894.1393,979.5326Q891.7333,979.5326,871.6229,979.9601Q839.0963,980.71277,784.8585,982.375Q661.8258,986.2512,635.88586,987.8563L634.6823,988.01465Q634.72577,988.1078,637.52637,988.1078Q638.3484,988.1078,639.4079,988.09973L639.414,988.1011Q639.40576,988.10815,639.74194,988.10815Q642.1512,988.10815,662.2571,987.681Q694.7833,986.92834,749.0211,985.2656Q872.0541,981.3899,897.99414,979.78503L899.198,979.62646Q899.15405,979.5333,896.35,979.5333Q895.527,979.5333,894.4658,979.5414Q894.47546,979.5326,894.1393,979.5326 Z M889.823,1034.9054Q888.1456,1034.9054,885.52563,1034.928Q868.3845,1035.2404,857.6908,1035.5092Q826.63416,1036.2684,778.4227,1037.746Q640.0384,1042.1381,628.24634,1043.3855Q627.8187,1043.477,631.1794,1043.477Q632.85815,1043.477,635.48236,1043.4541Q652.6237,1043.1422,663.3171,1042.8738Q694.37366,1042.1141,742.5851,1040.6366Q788.9906,1039.2189,849.3218,1037.0311Q880.0294,1035.8693,891.5586,1035.1556L892.7622,1034.9976Q893.18994,1034.9054,889.823,1034.9054 Z M880.3174,1081.9413Q877.91235,1081.9413,857.80066,1082.3682Q825.2744,1083.1213,771.0364,1084.7839Q648.00366,1088.6595,622.06354,1090.2649L620.86,1090.423Q620.9036,1090.516,623.7086,1090.516Q624.5289,1090.516,625.5856,1090.5082L625.5917,1090.5094Q625.58344,1090.5164,625.92004,1090.5164Q628.33014,1090.5164,648.43475,1090.0895Q680.9612,1089.3367,735.199,1087.6746Q858.23193,1083.7985,884.1721,1082.1931L885.3756,1082.035Q885.3319,1081.9417,882.52576,1081.9417Q881.7035,1081.9417,880.6437,1081.9495Q880.6533,1081.9413,880.3174,1081.9413 Z M876.0028,1137.3137Q874.3246,1137.3137,871.7035,1137.3368Q854.562,1137.6486,843.86865,1137.9178Q812.81177,1138.6766,764.60034,1140.1548Q626.216,1144.5463,614.424,1145.7942Q613.996,1145.8854,617.3608,1145.8854Q619.0388,1145.8854,621.66003,1145.8633Q638.8014,1145.5509,649.495,1145.2821Q680.5514,1144.5228,728.7626,1143.0453Q775.16797,1141.6271,835.49963,1139.4398Q866.2073,1138.2775,877.7361,1137.5643L878.9396,1137.4058Q879.3677,1137.3137,876.0028,1137.3137 Z M862.4569,1187.158Q860.0492,1187.158,839.9409,1187.5853Q807.41455,1188.338,753.1764,1190.0007Q630.144,1193.8767,604.2038,1195.482L603.00024,1195.6406Q603.04395,1195.7335,605.84454,1195.7335Q606.6665,1195.7335,607.7261,1195.7257L607.7322,1195.7266Q607.7239,1195.734,608.05945,1195.734Q610.4674,1195.734,630.575,1195.307Q663.10126,1194.5543,717.33923,1192.8916Q840.37195,1189.0156,866.31213,1187.4103L867.51587,1187.2522Q867.4723,1187.1583,864.6614,1187.1583Q863.8407,1187.1583,862.78406,1187.1666Q862.79333,1187.158,862.4569,1187.158 Z M858.141,1242.5309Q856.46326,1242.5309,853.8436,1242.5533Q836.7025,1242.8654,826.0089,1243.1346Q794.952,1243.8939,746.7406,1245.3715Q608.3563,1249.7635,596.5643,1251.0109Q596.1365,1251.1024,599.5013,1251.1024Q601.1791,1251.1024,603.8003,1251.08Q620.94165,1250.7682,631.635,1250.4989Q662.6919,1249.7401,710.90283,1248.2618Q757.30835,1246.8439,817.6399,1244.6566Q848.34753,1243.4948,859.8766,1242.7811L861.07983,1242.6224Q861.50793,1242.5309,858.141,1242.5309 Z M848.63477,1289.5668Q846.2278,1289.5668,826.1185,1289.9935Q793.59216,1290.7462,739.3544,1292.409Q616.3216,1296.2855,590.3815,1297.8907L589.1779,1298.0485Q589.22156,1298.1417,592.0222,1298.1417Q592.8442,1298.1417,593.90393,1298.1339L593.9098,1298.1349Q593.90137,1298.1427,594.23773,1298.1427Q596.6481,1298.1427,616.7527,1297.7147Q649.2789,1296.962,703.5167,1295.2994Q826.5499,1291.424,852.49023,1289.8185L853.6936,1289.66Q853.6499,1289.567,850.8436,1289.567Q850.02124,1289.567,848.9617,1289.5748Q848.9712,1289.5668,848.63477,1289.5668 Z M844.31885,1344.9391Q842.64136,1344.9391,840.0215,1344.962Q822.8801,1345.274,812.18677,1345.5433Q781.12976,1346.3021,732.91833,1347.7802Q594.53394,1352.1722,582.74194,1353.4196Q582.3139,1353.5114,585.68066,1353.5114Q587.3583,1353.5114,589.97797,1353.4886Q607.1191,1353.1769,617.8129,1352.9076Q648.8695,1352.1488,697.0807,1350.6708Q743.48596,1349.2526,803.8175,1347.0648Q834.52515,1345.9034,846.0542,1345.1893L847.25757,1345.0316Q847.6858,1344.9391,844.31885,1344.9391 Z"/> </g> <g style="fill:rgb(0,0,0); fill-opacity:1.0; stroke-linejoin: miter"> <path d="M359.12134,1093.901L295.4068,1194.4496L231.69183,1294.9972Q250.78668,1307.0975,269.8817,1319.1974Q333.5973,1218.6503,397.3131,1118.1029Q378.21716,1106.0016,359.12134,1093.901"/> </g> <g style="fill:rgb(255,0,20); fill-opacity:1.0; stroke-linejoin: miter"> <path d="M316.2453,1151.3633L244.48242,1270.5543L172.71957,1389.7455Q196.711,1404.1908,220.7027,1418.6356Q292.46643,1299.4454,364.22998,1180.255Q340.2378,1165.8096,316.2453,1151.3633"/> </g> <g style="fill:rgb(0,0,0); fill-opacity:1.0; stroke-linejoin: miter"> <path d="M374.88702,958.07104L374.88757,958.07166C335.41547,1016.0232,328.57605,1088.6768,370.19525,1117.0247L370.19568,1117.0251C411.81458,1145.3718,476.91595,1112.4008,516.3874,1054.449L516.3878,1054.4493C555.859,996.4971,562.6985,923.84314,521.0791,895.4955L521.07965,895.4961C479.45978,867.1478,414.35852,900.1188,374.88702,958.07104L374.88757,958.07166 M388.1079,967.0757L388.10828,967.07654C426.99432,909.9829,482.8474,888.8097,512.0743,908.7163L512.0747,908.7169C541.3018,928.6239,542.0529,988.3512,503.1665,1045.4438L503.16693,1045.4442C464.2802,1102.5369,408.42743,1123.7107,379.2002,1103.8035L379.2005,1103.8035C349.97284,1083.8966,349.2215,1024.1691,388.1079,967.0757 Z"/> </g> <g style="fill:rgb(255,177,133); fill-opacity:1.0; stroke-linejoin: miter"> <path d="M356.09198,1267.3693L357.39056,1270.037C364.52222,1284.3046,366.7398,1294.3351,364.81677,1300.3925C362.6729,1307.1466,357.52673,1314.9432,348.59485,1323.5511C346.04193,1341.4637,341.8105,1354.6964,335.45013,1362.9064C331.37335,1368.1688,325.78442,1371.7203,319.43195,1374.6183C315.2022,1376.5485,305.87067,1379.5641,291.0987,1382.9755C282.3073,1389.413,275.65112,1393.2867,271.16272,1394.7015C265.8711,1396.369,261.69775,1397.1356,258.60364,1397.047C241.94391,1396.5677,223.08777,1386.7347,201.23651,1368.3356C178.93463,1349.5573,145.26187,1317.8458,101.00656,1272.2521L149.68881,1152.8447L208.8877,1175.876C221.69745,1160.0083,240.54602,1158.1389,240.54602,1158.1389C271.1421,1155.1034,313.69324,1165.4792,313.69324,1165.4792C340.47986,1184.9547,284.78308,1197.511,289.27362,1194.4032C293.76398,1191.2963,310.78986,1195.2295,315.2243,1195.3993C335.3932,1196.1729,345.0572,1196.4174,344.19293,1196.8795C352.12982,1198.4445,357.3474,1200.4398,360.34607,1202.019C368.59216,1206.3611,372.49384,1212.9679,372.54822,1222.726C372.5866,1229.6036,367.41418,1244.4757,356.09198,1267.3693 Z"/> </g> <g style="fill:rgb(255,255,255); fill-opacity:1.0; stroke-linejoin: miter"> <path d="M102.53137,1134.7344L142.97766,1150.4038L183.42352,1166.0732Q153.52536,1243.2509,123.627075,1320.4291Q83.180756,1304.7601,42.733917,1289.0929Q72.63275,1211.9132,102.53137,1134.7344 Z"/> </g> <g style="fill:rgb(0,0,0); fill-opacity:1.0; stroke-linejoin: miter"> <path d="M-211.75183,995.0658L-38.74774,1062.0883L134.25806,1129.1104Q94.44696,1231.8763,54.635803,1334.643Q-118.36922,1267.6207,-291.37384,1200.5999Q-251.56271,1097.8328,-211.75183,995.0658 Z"/> </g> <g style="fill:rgb(0,0,0); fill-opacity:1.0; stroke-linejoin: miter"> <path d="M383.36395,962.5658L383.36438,962.5664C343.89233,1020.5176,337.05243,1093.1718,378.67188,1121.5197L378.6723,1121.5205C420.2906,1149.8672,485.39258,1116.8958,524.8641,1058.9438L524.8645,1058.9443C564.33545,1000.9918,571.1753,928.338,529.55597,899.9905L529.5564,899.99097C487.93665,871.64294,422.83508,904.61365,383.36395,962.5658L383.36438,962.5664 M396.5846,971.5708L396.5854,971.57166C435.471,914.4779,491.3236,893.3041,520.5514,913.2113L520.5518,913.21204C549.7787,933.1185,550.5295,992.8462,511.643,1049.9387L511.6438,1049.9396C472.75684,1107.0319,416.90387,1128.2057,387.6765,1108.298L387.67694,1108.2988C358.4494,1088.3914,357.69818,1028.6641,396.5846,971.5708 Z"/> </g> <g style="fill:rgb(0,0,0); fill-opacity:1.0; stroke-linejoin: miter"> <path d="M390.88367,966.38403L390.8841,966.38464C351.41205,1024.3358,344.57166,1096.9894,386.19135,1125.3373L386.19183,1125.3378C427.8106,1153.685,492.9126,1120.7142,532.3836,1062.7617L532.3841,1062.7622C571.85516,1004.8098,578.6952,932.1561,537.0758,903.8086L537.0763,903.8091C495.45654,875.46094,430.35498,908.43176,390.88367,966.38403L390.8841,966.38464 M404.10437,975.3887L404.1048,975.3894C442.99066,918.2954,498.8435,897.1218,528.0709,917.0292L528.0715,917.0298C557.2983,936.9363,558.0492,996.6638,519.1629,1053.7571L519.1633,1053.7574C480.2766,1110.8501,424.42358,1132.0237,395.1963,1112.1162L395.1969,1112.1171C365.96875,1092.2087,365.21783,1032.4814,404.10437,975.3887 Z"/> </g> <g style="fill:rgb(0,0,0); fill-opacity:1.0; stroke-linejoin: miter"> <path d="M250.13318,1188.6602L250.1336,1188.661L250.13416,1188.6614L250.1336,1188.661L250.13318,1188.6602L250.1336,1188.661L250.13416,1188.6614Q250.1336,1188.661,250.13318,1188.6602"/> </g> <g style="fill:rgb(0,0,0); fill-opacity:1.0; stroke-linejoin: miter"> <path d="M241.75238,1208.7943L241.7528,1208.7952L241.75299,1208.7952L241.7528,1208.7952L241.75238,1208.7943L241.7528,1208.7952L241.75299,1208.7952Q241.7528,1208.7952,241.75238,1208.7943"/> </g> <g style="fill:rgb(0,0,0); fill-opacity:1.0; stroke-linejoin: miter"> <path d="M467.03912,739.6405L467.03943,739.6411L467.0396,739.6416L467.03943,739.6411L467.03912,739.6405L467.03943,739.6411L467.0396,739.6416Q467.03943,739.6411,467.03912,739.6405"/> </g> <g style="fill:rgb(255,0,20); fill-opacity:1.0; stroke-linejoin: miter"> <path d="M298.99976,1194.1699L301.21777,1182.5227L303.43634,1170.8763Q310.2069,1161.4333,316.97778,1151.9905Q326.65936,1159.8424,336.34106,1167.694Q329.5056,1181.0057,322.67047,1194.3182L298.99976,1194.1699"/> </g> <g style="fill:rgb(255,0,0); fill-opacity:1.0; stroke-linejoin: miter"> <path d="M154.59329,1007.4315L154.59384,1007.4315L154.59448,1007.4319L154.59384,1007.4315L154.59329,1007.4315L154.59384,1007.4315L154.59448,1007.4319Q154.59384,1007.4315,154.59329,1007.4315"/> </g> <g style="fill:rgb(255,255,255); fill-opacity:0.23529412; stroke-linejoin: miter"> <path d="M440.43353,934.246C466.77716,913.2593,494.7904,904.85034,515.7904,910.4359C515.97943,910.4861,516.1445,910.59094,516.2688,910.73303L516.2736,910.7312C542.5279,933.4735,541.2628,991.2257,503.96265,1045.988C492.66815,1062.5697,479.94257,1076.1461,466.83685,1086.5867C440.55933,1107.5211,412.62018,1115.9403,391.63885,1110.4401L391.6455,1110.4371C391.45508,1110.4154,391.2718,1110.3385,391.12036,1110.2081C364.73853,1087.5388,365.9499,1029.6925,403.30743,974.845C414.60193,958.26294,427.32812,944.6864,440.43353,934.246 Z"/> </g> <g style="fill:rgb(0,0,0); fill-opacity:1.0; stroke-linejoin: miter"> <path d="M-345.32947,939.6096L-345.32928,1178.3488L-291.07422,1199.8263L-291.07416,1199.828Q-291.07422,1199.8263,-291.07425,1199.8265L-215.15482,1229.8801L-113.41405,1033.877L-150.89426,1018.64233L-261.6164,973.6367L-345.32947,939.6096 Z"/> </g> <g> <g style="fill:rgb(99,112,121); fill-opacity:1.0; stroke-linejoin: miter"> <path d="M382.20532,1331.412L470.83105,1331.4127L559.45667,1331.4127Q559.45636,1414.4078,559.45624,1497.403Q470.83063,1497.4034,382.2049,1497.4042Q382.20514,1414.4083,382.20532,1331.412"/> </g> <g style="fill:rgb(60,70,79); fill-opacity:1.0; stroke-linejoin: miter"> <path d="M368.18927,1496.1356C368.2044,1501.8087,372.8152,1506.3949,378.49176,1506.3763L558.29376,1505.8566C563.9704,1505.8405,568.5543,1501.2284,568.5417,1495.5553L568.035,1320.8885L367.68353,1321.4662L368.18927,1496.1356 Z M521.87317,1346.7062C521.8571,1341.0328,526.4421,1336.4186,532.11865,1336.4022L547.53,1336.358C553.20667,1336.3439,557.8186,1340.9281,557.83356,1346.6034L557.8489,1351.7389C557.86505,1357.4174,553.2798,1362.0287,547.60547,1362.0453L532.1931,1362.0887C526.5168,1362.1056,521.90344,1357.5194,521.8874,1351.8444L521.87317,1346.7062 Z M521.99316,1387.8068C521.97675,1382.1288,526.56195,1377.517,532.23865,1377.5028L547.64844,1377.4564C553.325,1377.4398,557.9371,1382.0267,557.9545,1387.702L557.9685,1392.84C557.98474,1398.5131,553.3994,1403.1249,547.72296,1403.1407L532.3117,1403.1854C526.63525,1403.2015,522.02325,1398.6178,522.0067,1392.9425L521.99316,1387.8068 Z M522.1125,1428.9027C522.09534,1423.2274,526.6804,1418.6154,532.3571,1418.599L547.7681,1418.5548C553.4448,1418.5385,558.0566,1423.1224,558.073,1428.7999L558.20667,1475.034C558.22314,1480.7096,553.63885,1485.3212,547.9624,1485.338L532.551,1485.3815C526.8746,1485.3981,522.26263,1480.8143,522.2453,1475.1364L522.1125,1428.9027 Z M475.63715,1346.8385C475.6231,1341.1635,480.20612,1336.5538,485.8827,1336.5348L501.29504,1336.493C506.97162,1336.4747,511.5824,1341.0612,511.59882,1346.7362L511.6139,1351.8739C511.63116,1357.5494,507.04608,1362.1613,501.36932,1362.1779L485.9571,1362.2223C480.2807,1362.2386,475.66968,1357.6544,475.65222,1351.9767L475.63715,1346.8385 Z M475.75677,1387.9393C475.74048,1382.264,480.3258,1377.6515,486.00238,1377.6356L501.41467,1377.5895C507.09125,1377.5751,511.7022,1382.1588,511.71838,1387.8373L511.73486,1392.9723C511.74847,1398.6454,507.16443,1403.2572,501.4881,1403.2738L486.07556,1403.3204C480.3991,1403.3341,475.78802,1398.7501,475.77307,1393.0775L475.75677,1387.9393 Z M475.87653,1429.0358C475.85895,1423.3597,480.44434,1418.7479,486.12103,1418.7316L501.5334,1418.6874C507.20972,1418.671,511.82068,1423.2552,511.83813,1428.9325L511.8532,1434.0707C511.8684,1439.7462,507.2854,1444.3585,501.60883,1444.3746L486.1966,1444.4188C480.51996,1444.4349,475.90784,1439.8507,475.89166,1434.173L475.87653,1429.0358 Z M475.99536,1470.1339C475.97906,1464.4562,480.56293,1459.8463,486.23962,1459.8278L501.65198,1459.7831C507.32843,1459.7672,511.93945,1464.3536,511.95673,1470.0289L511.97192,1475.1666C511.98798,1480.8441,507.40387,1485.4537,501.7273,1485.4698L486.31506,1485.5145C480.6385,1485.5333,476.0266,1480.9469,476.0114,1475.2714L475.99536,1470.1339 Z M429.40216,1346.974C429.38947,1341.3007,433.97345,1336.6888,439.65015,1336.6725L455.06256,1336.6283C460.73895,1336.6119,465.34753,1341.1932,465.36267,1346.869L465.37762,1352.0067C465.39514,1357.6825,460.81116,1362.2943,455.13458,1362.3134L439.7221,1362.3573C434.0454,1362.3739,429.43463,1357.787,429.41833,1352.1119L429.40216,1346.974 Z M429.523,1388.0746C429.50793,1382.3969,434.09082,1377.7845,439.7674,1377.7684L455.17987,1377.724C460.85638,1377.7103,465.466,1382.2921,465.4834,1387.9694L465.49847,1393.1053C465.5124,1398.7806,460.9308,1403.3949,455.2541,1403.411L439.8418,1403.4535C434.16522,1403.4713,429.55438,1398.8851,429.5381,1393.2101L429.523,1388.0746 Z M429.64148,1429.1727C429.62518,1423.4955,434.2105,1418.8832,439.88702,1418.8693L455.2995,1418.8224C460.97607,1418.8063,465.58447,1423.3903,465.6021,1429.0658L465.61688,1434.2035C465.63324,1439.879,461.05054,1444.4933,455.37396,1444.5096L439.96143,1444.556C434.2851,1444.5702,429.67413,1439.9865,429.65778,1434.3085L429.64148,1429.1727 Z M429.76135,1470.2687C429.74396,1464.5931,434.32904,1459.9813,440.0055,1459.9647L455.4182,1459.9213C461.09467,1459.9042,465.70428,1464.486,465.72076,1470.1617L465.73682,1475.2997C465.752,1480.9774,461.169,1485.5917,455.49243,1485.608L440.08002,1485.6522C434.4046,1485.6681,429.79144,1481.0844,429.77655,1475.4069L429.76135,1470.2687 Z M383.16827,1347.1066C383.1543,1341.4335,387.73956,1336.8217,393.41614,1336.805L408.8263,1336.7609C414.50287,1336.7448,419.11597,1341.3287,419.12988,1347.0038L419.14386,1352.142C419.16016,1357.8173,414.57593,1362.4293,408.89935,1362.4454L393.48822,1362.4899C387.81165,1362.5062,383.19965,1357.9225,383.18207,1352.2443L383.16827,1347.1066 Z M383.28796,1388.2076C383.27167,1382.5294,387.8568,1377.9193,393.53223,1377.901L408.94476,1377.8593C414.62122,1377.8405,419.23334,1382.4271,419.2495,1388.1027L419.26355,1393.2406C419.27985,1398.9152,414.69452,1403.5277,409.01794,1403.5441L393.60657,1403.5885C387.93,1403.6044,383.31824,1399.0206,383.30304,1393.3453L383.28796,1388.2076 Z M383.40747,1429.3055C383.3902,1423.6305,387.97528,1419.018,393.65076,1418.9996L409.06335,1418.9554C414.73993,1418.9413,419.3518,1423.5253,419.36688,1429.2032L419.38306,1434.3387C419.39948,1440.0165,414.81427,1444.6288,409.13782,1444.6425L393.72528,1444.6891C388.0511,1444.7032,383.43884,1440.1188,383.42163,1434.4435L383.40747,1429.3055 Z M383.5263,1470.4015C383.5089,1464.7262,388.09302,1460.1141,393.76947,1460.0975L409.18182,1460.0533C414.85846,1460.0375,419.4704,1464.621,419.4867,1470.2997L419.50177,1475.4344C419.51923,1481.1124,414.93396,1485.7245,409.25726,1485.7406L393.84485,1485.7848C388.16956,1485.8019,383.55774,1481.2152,383.54016,1475.5394L383.5263,1470.4015 Z"/> </g> <g style="fill:rgb(0,0,0); fill-opacity:1.0; stroke-linejoin: miter"> <path d="M537.3147,1356.9376L542.45154,1356.9237L542.4374,1351.7855L547.5742,1351.7694L547.5603,1346.6337L542.4213,1346.6476L542.40735,1341.5101L537.2705,1341.526L537.2858,1346.6615L532.1478,1346.6779L532.16296,1351.816L537.2995,1351.7994 Z"/> </g> <g style="fill:rgb(0,0,0); fill-opacity:1.0; stroke-linejoin: miter"> <path d="M532.43146,1444.286L547.84283,1444.2416L547.85913,1449.38L532.44653,1449.4235L532.43146,1444.286 Z"/> </g> <g style="fill:rgb(0,0,0); fill-opacity:1.0; stroke-linejoin: miter"> <path d="M532.2674,1387.7765L547.67993,1387.7323L547.69385,1392.8698L532.2815,1392.9147L532.2674,1387.7765 Z"/> </g> <g style="fill:rgb(0,0,0); fill-opacity:1.0; stroke-linejoin: miter"> <path d="M532.4606,1454.5592L547.8728,1454.5153L547.8869,1459.6508L532.4745,1459.695L532.4606,1454.5592 Z"/> </g> <g style="fill:rgb(60,70,79); fill-opacity:1.0; stroke-linejoin: miter"> <path d="M361.92474,1251.2089L361.9245,1316.4374L362.33997,1316.4843L574.82275,1316.4369L574.823,1251.2086L361.92474,1251.2557"/> </g> <g style="fill:rgb(166,216,255); fill-opacity:1.0; stroke-linejoin: miter"> <path d="M374.48315,1261.6798L374.48303,1305.964L374.84955,1306.0126L562.26556,1305.9637L562.26575,1261.6798L374.48315,1261.726"/> </g> <g style="fill:rgb(125,139,150); fill-opacity:1.0; stroke-linejoin: miter"> <path d="M542.27344,1341.6442L542.2868,1346.6476C542.2871,1346.6837,542.30133,1346.7177,542.32666,1346.743C542.35175,1346.7677,542.38574,1346.7819,542.4211,1346.7819L542.42163,1346.7831L547.4265,1346.7682L547.4396,1351.6359L542.4371,1351.6515C542.3631,1351.6517,542.303,1351.712,542.3033,1351.7855L542.3169,1356.7897L537.4486,1356.8024L537.43384,1351.7992C537.43384,1351.7638,537.4195,1351.7294,537.3943,1351.7045C537.369,1351.6793,537.33527,1351.6654,537.2996,1351.6654L537.2992,1351.6669L532.2968,1351.681L532.2826,1346.8116L537.28613,1346.7955C537.3602,1346.7955,537.4203,1346.7352,537.42004,1346.6613L537.4051,1341.6598L542.27344,1341.6442 Z M547.5553,1336.2238L547.5425,1336.2238L547.52966,1336.2255L532.1183,1336.268C526.3678,1336.2848,521.72253,1340.9596,521.7391,1346.7067L521.753,1351.8444C521.7695,1357.5841,526.42633,1362.2233,532.16296,1362.2233L532.16345,1362.2247L532.1787,1362.2233L532.19366,1362.2247L547.606,1362.1793C553.3544,1362.1627,557.99945,1357.4906,557.9832,1351.7386L557.968,1346.6034C557.9526,1340.8624,553.29443,1336.2238,547.55597,1336.2238 Z"/> </g> </g> <g style="fill:rgb(0,0,0); fill-opacity:1.0; stroke-linejoin: miter"> <path d="M950.0,1263.3849L952.4132,1265.7992L954.8263,1268.2137L950.0,1263.3849"/> </g> <g style="fill:rgb(255,255,255); fill-opacity:1.0; stroke-linejoin: miter"> <path d="M466.20764,1176.6029Q465.93134,1176.6029,465.648,1176.6266Q465.50037,1176.6205,465.35333,1176.6205Q464.03033,1176.6205,462.75513,1177.0986Q461.39728,1177.571,460.2755,1178.5747Q459.1538,1179.5193,458.4453,1180.8181Q457.73688,1182.1171,457.61877,1183.5929Q457.26453,1185.1869,457.44165,1186.899Q457.61877,1188.611,458.38635,1189.969Q459.1538,1191.3268,460.51166,1192.1533Q461.56696,1192.777,463.05103,1192.777Q463.3935,1192.777,463.7588,1192.7438Q463.9602,1192.7577,464.16083,1192.7577Q465.6654,1192.7577,467.1239,1191.9763Q468.7179,1191.0907,469.78064,1189.7327Q470.84332,1188.2568,471.43372,1186.663Q472.0241,1185.069,472.08313,1183.3568Q472.26025,1181.881,471.7879,1180.582Q471.37463,1179.3423,470.48914,1178.3976Q469.60352,1177.512,468.30463,1176.9807Q467.3128,1176.6029,466.20764,1176.6029 Z"/> </g> <g style="fill:rgb(255,255,255); fill-opacity:1.0; stroke-linejoin: miter"> <path d="M103.533325,1339.1193Q101.82123,1339.2965,99.813934,1339.4735Q97.80664,1339.5917,95.91739,1340.1229Q94.08722,1340.6542,92.49313,1341.7169Q90.95819,1342.7797,90.13165,1344.6688Q89.83646,1345.6725,90.01355,1346.6173Q90.190674,1347.5616,90.722015,1348.3292Q91.194305,1349.0377,92.02084,1349.5099Q92.74408,1349.8717,93.602875,1349.8717Q93.725555,1349.8717,93.85104,1349.8644Q101.4079,1349.7462,108.9057,1349.6871Q110.39346,1349.6754,111.885956,1349.6754Q117.855865,1349.6754,123.9014,1349.8644Q124.196594,1349.9037,124.50491,1349.9037Q125.12152,1349.9037,125.79062,1349.7462Q126.73523,1349.5099,127.56174,1348.9786Q128.32925,1348.4474,128.80154,1347.6207Q129.27383,1346.7943,129.15579,1345.7316Q128.97864,1343.9603,127.975006,1342.7797Q126.971344,1341.5988,125.55444,1340.8905Q124.13757,1340.182,122.425476,1339.8275Q120.77243,1339.5326,119.23743,1339.5326Q118.98163,1339.5524,118.72574,1339.5524Q118.21414,1339.5524,117.70245,1339.4735Q117.39548,1339.4264,117.08844,1339.4264Q116.62793,1339.4264,116.16745,1339.5326Q115.960815,1339.5472,115.75784,1339.5472Q115.14908,1339.5472,114.573425,1339.4144Q114.1897,1339.3556,113.80594,1339.3556Q113.42221,1339.3556,113.03842,1339.4144Q111.798645,1339.4144,110.55884,1339.3556Q109.37808,1339.2965,108.197296,1339.2374Q107.01654,1339.1193,105.89484,1339.1193 Z"/> </g> <g style="fill:rgb(255,255,255); fill-opacity:1.0; stroke-linejoin: miter"> <path d="M455.19818,1201.4813Q453.66327,1201.6586,451.774,1201.7174Q449.8847,1201.7174,448.05457,1202.0718Q446.28345,1202.426,444.80743,1203.3114Q443.33154,1204.197,442.5641,1206.0273Q442.5641,1207.2081,442.91827,1208.2117Q443.27252,1209.1562,443.86285,1210.0419Q444.39417,1210.8684,445.33875,1211.5178Q446.28345,1212.1674,447.28705,1212.1674Q454.90295,1212.3444,462.45978,1212.3444Q470.07574,1212.3444,477.63257,1212.1083Q478.4591,1212.0492,479.28564,1211.6951Q480.05316,1211.3408,480.70258,1210.6913Q481.29297,1210.101,481.70624,1209.3335Q482.1195,1208.5658,482.1786,1207.7393Q482.1195,1205.7319,480.9978,1204.6104Q479.87604,1203.4886,478.22302,1202.9572Q476.56995,1202.426,474.68073,1202.2488Q472.79156,1202.1306,471.31555,1202.0127Q470.84326,1202.0598,470.3899,1202.0598Q469.70972,1202.0598,469.07214,1201.9537Q468.4345,1201.8475,467.77563,1201.8475Q467.33636,1201.8475,466.8877,1201.8947Q465.41174,1201.8947,463.93585,1201.7765Q462.4599,1201.7174,461.04297,1201.7174Q459.56696,1201.5995,458.09113,1201.5995Q456.6151,1201.5995,455.19818,1201.4813 Z"/> </g> <g style="fill:rgb(255,255,255); fill-opacity:1.0; stroke-linejoin: miter"> <path d="M271.4088,1444.0692Q271.14026,1444.0692,270.83038,1444.1356Q269.05927,1444.2538,267.58325,1445.5526Q266.16632,1446.7924,265.75305,1448.5636Q265.45782,1450.0985,266.16632,1451.5155Q266.87476,1452.8732,267.76038,1454.0541Q268.9411,1455.3529,270.23987,1456.5336Q271.53876,1457.7145,272.71948,1459.0133Q271.42072,1460.253,269.94476,1461.493Q268.52783,1462.6737,267.16998,1464.0316Q265.8711,1465.3302,264.74945,1466.8065Q263.6867,1468.2823,263.1554,1469.9945L263.33252,1470.2897L263.7458,1471.4113L264.33618,1472.1198Q264.6313,1472.2379,264.86743,1472.3558Q265.04456,1472.474,265.2807,1472.5919Q265.93018,1473.2416,266.87476,1473.4777Q267.76038,1473.6549,268.70496,1473.714Q268.98834,1473.8202,269.2929,1473.8202Q269.4961,1473.8202,269.70856,1473.7728Q270.23987,1473.6549,270.71222,1473.5367Q272.0111,1472.8873,272.77856,1471.7655Q273.54608,1470.7028,274.43164,1469.6991Q275.49426,1468.5184,276.49792,1467.2196Q277.44263,1465.9208,278.68243,1464.7401Q279.86316,1466.216,281.04388,1467.6329Q282.22467,1468.9906,283.4054,1470.5258Q284.46814,1471.6476,285.7669,1472.7101Q287.0067,1473.714,288.71887,1473.9501Q289.5454,1473.6549,290.37195,1473.0643Q291.19836,1472.5328,291.55267,1471.7067Q292.2611,1471.057,292.55634,1470.1124Q292.79248,1469.2269,293.08765,1468.4005Q293.20575,1467.869,293.20575,1467.3966Q293.20575,1466.9244,293.08765,1466.3932Q291.3756,1464.5038,289.5454,1462.6737Q287.7152,1460.9025,285.70795,1459.3085Q287.95135,1457.6554,290.01764,1455.8253Q292.08398,1453.995,294.2094,1452.2831Q294.7998,1451.8107,295.0949,1451.1022Q295.39014,1450.3937,295.39014,1449.7443Q295.154,1448.0912,294.0913,1446.7924Q293.0287,1445.4938,291.4936,1445.1984Q291.40045,1445.1952,291.30804,1445.1952Q289.64484,1445.1952,288.24652,1446.202Q286.8296,1447.2648,285.53082,1448.3273Q284.17285,1449.8033,282.75598,1451.161Q281.33905,1452.5192,279.80408,1453.8771Q278.09192,1451.6925,276.43896,1449.4491Q274.8449,1447.2648,273.31,1445.0214Q272.77856,1444.608,272.18823,1444.2538Q271.85614,1444.0692,271.4088,1444.0692 Z"/> </g> <g style="fill:rgb(255,255,255); fill-opacity:1.0; stroke-linejoin: miter"> <path d="M99.52576,1358.6136Q98.31427,1358.6136,97.03906,1358.7201Q94.9137,1358.8971,92.25702,1359.3693Q91.54855,1359.5465,90.78104,1359.9008Q90.01355,1360.1959,89.364105,1360.6683Q88.77374,1361.1405,88.36047,1361.7899Q88.006256,1362.4393,88.12436,1363.2657Q88.18338,1364.3287,88.59665,1365.3322Q89.00992,1366.336,89.71838,1367.1625Q90.42682,1367.93,91.3714,1368.4022Q92.31604,1368.8744,93.496765,1368.9335Q100.10907,1369.4059,106.780396,1369.465Q107.515076,1369.4713,108.25192,1369.4713Q114.14694,1369.4713,120.18201,1369.0516Q121.12659,1368.9926,122.1893,1368.6974Q123.25195,1368.461,124.196594,1367.93Q125.141174,1367.3986,125.84961,1366.5719Q126.499054,1365.8046,126.73523,1364.6827Q127.14847,1362.6757,126.20389,1361.4948Q125.31833,1360.3729,123.783325,1359.7826Q122.24832,1359.2513,120.41812,1359.1334Q119.19803,1359.0546,118.16159,1359.0546Q117.64337,1359.0546,117.17102,1359.0743Q116.69873,1358.9955,116.200226,1358.9955Q115.95093,1358.9955,115.6951,1359.0153Q114.98663,1359.0743,114.33725,1359.1334Q113.82553,1359.212,113.34012,1359.212Q113.09744,1359.212,112.86127,1359.1923Q112.1528,1359.1334,111.385345,1359.1334Q108.72861,1359.1334,106.18994,1358.9562Q104.89111,1358.838,103.65137,1358.7201Q102.41156,1358.661,101.11273,1358.661Q100.333405,1358.6136,99.52576,1358.6136 Z"/> </g> <g style="fill:rgb(255,255,255); fill-opacity:1.0; stroke-linejoin: miter"> <path d="M79.46747,1428.805Q78.487885,1428.805,77.64819,1429.225Q76.70361,1429.6381,75.93616,1430.4056Q75.22763,1431.1141,74.69635,1432.1178Q74.224,1433.0621,73.987885,1434.066Q73.45648,1436.2504,73.161285,1438.4347Q72.92517,1440.619,72.62991,1442.8036Q71.331085,1442.8824,69.95355,1442.8824Q69.2648,1442.8824,68.556274,1442.8627Q68.384125,1442.8575,68.20621,1442.8575Q66.2489,1442.8575,63.597137,1443.453Q62.711517,1443.5712,61.707855,1443.8661Q60.704224,1444.1024,59.818726,1444.5748Q58.933105,1444.9882,58.28366,1445.6964Q57.6933,1446.3458,57.516174,1447.3495Q57.516174,1448.5304,57.87039,1449.5929Q58.22464,1450.5968,58.874023,1451.482L58.874023,1451.6002L59.58255,1452.3087L60.350006,1452.899Q61.117493,1453.4896,62.29828,1453.4896L64.4827,1453.4913Q65.54535,1453.4896,66.726135,1453.6075Q67.84787,1453.6075,69.028625,1453.5485Q69.402466,1453.5289,69.78296,1453.5289Q70.543915,1453.5289,71.331085,1453.6075Q71.331085,1455.3788,71.09497,1457.5631Q70.858795,1459.6886,71.03592,1461.6957Q71.15399,1463.703,71.92151,1465.3561Q72.688995,1466.9501,74.69629,1467.7177Q75.81796,1467.5997,76.93973,1467.2452Q78.00241,1466.891,78.88797,1466.1827Q79.83258,1465.5922,80.60007,1464.6478Q81.30853,1463.703,81.426605,1462.6996Q81.54468,1461.5187,81.6037,1460.4559Q81.66272,1459.3934,81.898895,1458.2125L82.312164,1453.6075Q84.90982,1453.6075,87.44849,1453.4896Q89.92804,1453.4305,92.52576,1453.4305Q93.352264,1453.3715,94.1788,1452.9581Q94.94632,1452.6039,95.5957,1451.9545Q96.24515,1451.3641,96.65842,1450.5968Q97.071686,1449.8292,97.13071,1448.9435Q97.18973,1447.8219,96.77646,1446.9364Q96.42227,1446.0507,95.654785,1445.4012Q94.94632,1444.7518,93.94269,1444.3385Q92.99805,1443.9252,91.994415,1443.8073Q89.86902,1443.3351,87.62564,1443.3351Q85.44119,1443.3351,83.256805,1443.2169Q83.55197,1440.619,83.49292,1438.0216Q83.49292,1435.4237,83.729126,1432.8263Q83.611115,1431.173,82.48932,1429.9923Q81.367645,1428.8119,79.71457,1428.8119Q79.589905,1428.805,79.46747,1428.805 Z"/> </g> <g style="fill:rgb(255,255,255); fill-opacity:1.0; stroke-linejoin: miter"> <path d="M461.38123,1219.671Q460.95435,1219.671,460.51154,1219.7242Q460.22815,1219.7006,459.94244,1219.7006Q458.7995,1219.7006,457.61865,1220.0784Q456.14276,1220.5508,454.96204,1221.4952Q453.7812,1222.3809,453.01367,1223.6797Q452.3053,1224.9786,452.24622,1226.5135Q452.0691,1228.1075,452.36426,1229.8197Q452.6004,1231.4728,453.42694,1232.8306Q454.19446,1234.1885,455.49335,1235.0741Q456.58734,1235.8555,458.1869,1235.8555Q458.40002,1235.8555,458.6223,1235.8417Q458.8169,1235.8555,459.0105,1235.8555Q460.4629,1235.8555,461.8694,1235.0741Q463.46344,1234.1885,464.46704,1232.7126Q465.5298,1231.2957,466.23828,1229.6426Q466.94666,1227.9894,467.06482,1226.2775Q467.36,1224.8014,466.94666,1223.5024Q466.5334,1222.2039,465.58887,1221.3182Q464.6443,1220.4326,463.28632,1219.9602Q462.37714,1219.671,461.38123,1219.671 Z"/> </g> <g style="fill:rgb(255,255,255); fill-opacity:1.0; stroke-linejoin: miter"> <path d="M303.63635,1022.86597Q303.20496,1022.86597,302.7851,1022.9707Q301.8405,1023.20703,301.01398,1023.79724Q300.18744,1024.3289,299.41992,1025.0963Q298.71143,1025.8048,298.1801,1026.5132Q296.88135,1028.2844,295.81866,1030.1737Q294.75604,1032.0627,293.45715,1033.893Q289.67877,1039.6788,286.25452,1045.7004Q282.8302,1051.7225,279.52417,1057.8033Q277.6349,1061.936,275.4505,1066.0687Q273.32507,1070.1425,271.3769,1074.2751Q269.6648,1077.6995,267.89362,1080.9462Q266.1225,1084.1932,264.52844,1087.6176Q262.99353,1090.5698,261.75372,1093.6396Q260.57294,1096.7096,260.2777,1100.0157Q260.15967,1101.1372,260.80914,1102.2006Q261.45856,1103.2039,262.63928,1103.4401Q264.58752,1103.381,266.06354,1102.3773Q267.4804,1101.374,268.72015,1099.8386Q269.90088,1098.3627,270.9046,1096.6505Q271.90826,1094.9974,272.91193,1093.6396Q280.6458,1080.474,287.7895,1067.1907Q294.87396,1053.966,301.3092,1040.269Q303.25745,1036.4907,305.02863,1032.4762Q305.85516,1030.6459,306.5636,1028.8746Q307.21295,1027.1034,307.4491,1025.1554Q307.33105,1024.0927,306.3864,1023.6791Q305.50085,1023.3251,304.7334,1023.0298Q304.17584,1022.86597,303.63635,1022.86597 Z"/> </g> <g style="fill:rgb(255,255,255); fill-opacity:1.0; stroke-linejoin: miter"> <path d="M153.8978,1481.191Q153.08603,1481.191,152.28903,1481.2501Q149.86847,1481.5453,147.0936,1481.6044Q144.31882,1481.6044,141.66211,1482.0177Q139.00537,1482.4308,136.64389,1483.5526Q134.28238,1484.6744,132.74734,1487.0951Q132.6293,1488.0985,132.98349,1488.9843Q133.3378,1489.8109,133.98724,1490.4603Q134.57764,1491.1097,135.46313,1491.5822Q136.28967,1491.9955,137.1753,1492.1134Q148.21536,1492.3497,159.27023,1492.3497Q170.3251,1492.3497,181.39471,1492.1134Q182.6936,1491.9955,183.9925,1491.4049Q185.23218,1490.8146,186.05872,1489.5748Q186.70819,1488.0394,186.23584,1486.7997Q185.82257,1485.619,184.81891,1484.6744Q183.87433,1483.789,182.51648,1483.1393Q181.21762,1482.4899,180.09595,1482.0177Q178.26575,1481.9586,176.43555,1481.9586Q174.66443,1481.9586,172.83426,1481.8407Q171.00406,1481.8407,169.1148,1481.6635Q167.89465,1481.5848,166.67459,1481.5848Q166.06445,1481.5848,165.45444,1481.6044Q162.0893,1481.6044,158.8422,1481.4274Q157.24817,1481.4274,155.53601,1481.2501Q154.7096,1481.191,153.8978,1481.191 Z"/> </g> </g> </svg>