<?xml version='1.0' encoding='utf-8'?>
<svg xmlns="http://www.w3.org/2000/svg" version="1.1" id="Layer_1" x="0px" y="0px" viewBox="0 0 500 500" style="enable-background:new 0 0 500 500;"> <style type="text/css"> .st0{fill:#12B25A;} .st1{fill:#FFBD35;} .st2{fill:#FCC020;} .st3{fill:#FFFFFF;} .st4{fill:#CCE4C4;} .st5{fill:#1E2438;} .st6{fill:#2ED154;} .st7{fill:#1A7C7B;} .st8{fill:#F7EFE2;} .st9{fill:#45BBC6;} .st10{fill:#0D9B9E;} .st11{opacity:0.2;} .st12{fill:#13192E;} .st13{opacity:0.3;fill:#3A4050;} .st14{fill:#3A4050;} .st15{opacity:0.6;fill:#1E2438;} .st16{fill:#FEA511;} .st17{fill:#FED795;} .st18{fill:url(#SVGID_1_);} .st19{fill:#FF931E;} .st20{fill:#FFB31E;} .st21{fill:#FFA31E;} .st22{fill:#F8F0E5;} .st23{fill:#916D4D;} .st24{fill:#A1A7A7;} .st25{fill:#94736A;} .st26{fill:#EFF0F0;} .st27{fill:#C5C9C9;} .st28{fill:#E2E4E4;} .st29{fill:#C8CBCB;} .st30{opacity:0.6;fill:#7E7E7F;} .st31{opacity:0.6;} .st32{fill:#7E7E7F;} </style> <rect class="st0" width="500" height="500"/> <g> <g> <g> <path class="st1" d="M337.5,121.5c0,1-0.8,1.9-1.9,1.9h-0.1c-1,0-1.9-0.8-1.9-1.9V96.4c0-1,0.8-1.9,1.9-1.9h0.1 c1,0,1.9,0.8,1.9,1.9V121.5z"/> <path class="st1" d="M350.7,115.2c0,1-0.8,1.9-1.9,1.9h-0.1c-1,0-1.9-0.8-1.9-1.9v-29c0-1,0.8-1.9,1.9-1.9h0.1 c1,0,1.9,0.8,1.9,1.9V115.2z"/> <path class="st1" d="M362.6,122.8c0,1-0.8,1.9-1.9,1.9h-0.1c-1,0-1.9-0.8-1.9-1.9v-29c0-1,0.8-1.9,1.9-1.9h0.1 c1,0,1.9,0.8,1.9,1.9V122.8z"/> <path class="st2" d="M386.9,167.9c0-21.4-17.3-38.7-38.7-38.7c-21.4,0-38.7,17.3-38.7,38.7c0,21.4,17.3,38.7,38.7,38.7 C369.6,206.6,386.9,189.3,386.9,167.9z"/> <path class="st1" d="M381,167.9c0-18.1-14.7-32.8-32.8-32.8c-18.1,0-32.8,14.7-32.8,32.8c0,18.1,14.7,32.8,32.8,32.8 C366.3,200.7,381,186,381,167.9z"/> <g> <path class="st3" d="M344.2,189.8v-5.3c-3.8-0.2-7.4-1.2-9.5-2.4l1.7-6.6c2.4,1.3,5.7,2.5,9.3,2.5c3.2,0,5.4-1.2,5.4-3.5 c0-2.1-1.8-3.5-6-4.9c-6-2-10.1-4.8-10.1-10.3c0-4.9,3.5-8.8,9.5-10v-5.3h5.5v4.9c3.8,0.2,6.3,1,8.1,1.9l-1.6,6.3 c-1.5-0.6-4-1.9-8.1-1.9c-3.7,0-4.8,1.6-4.8,3.1c0,1.9,2,3,6.7,4.8c6.7,2.4,9.4,5.4,9.4,10.5c0,5-3.5,9.3-10,10.4v5.7H344.2z"/> </g> </g> <g> <rect x="309.8" y="220.1" class="st4" width="78.4" height="14.9"/> <polygon class="st4" points="407.1,236.3 288.1,236.3 288.1,347.5 255.3,347.5 255.3,395 407.1,395 "/> <rect x="310.8" y="258.1" class="st5" width="24.5" height="24.5"/> <rect x="359.9" y="258.1" class="st5" width="24.5" height="24.5"/> <rect x="310.8" y="300.6" class="st5" width="24.5" height="24.5"/> <rect x="330.8" y="356.9" class="st5" width="33.4" height="36.5"/> <rect x="359.9" y="300.6" class="st5" width="24.5" height="24.5"/> <rect x="407.1" y="351.1" class="st4" width="32.9" height="43.9"/> <g> <g> <path class="st6" d="M287.4,334.2c0,0-5.7,6.2-9.1,14.4c-5,12.2-6.7,26.9,8.3,26.9c15.9,0,16.5-11.8,10.8-25.5 C295,344.3,292.3,341,287.4,334.2z"/> </g> <rect x="286.6" y="375.9" class="st5" width="1.8" height="19.1"/> </g> <g> <g> <path class="st7" d="M406.7,334.2c0,0-5.7,6.2-9.1,14.4c-5,12.2-6.7,26.9,8.3,26.9c15.9,0,16.5-11.8,10.8-25.5 C414.3,344.3,411.5,341,406.7,334.2z"/> </g> <rect x="405.8" y="375.9" class="st5" width="1.8" height="19.1"/> </g> </g> </g> <g> <g id="cloud_2_"> <path class="st8" d="M244.2,185c-11.4,0-21,8.2-23.1,19c-0.4,0.3-0.8,0.6-1.2,0.9c-8,0.7-14.3,7.5-14.3,15.7v0.8 c0,8.7,7.1,15.8,15.8,15.8l23.1-0.2V185C244.4,185,244.3,185,244.2,185z"/> <path class="st3" d="M266.8,200.7c-2.2-9.1-8.9-15.6-22.3-15.7v52.1l21.2-0.1c9.8,0,17.7-7.9,17.7-17.7v-0.9 C283.4,209,276.1,201.3,266.8,200.7z"/> </g> <g> <path class="st9" d="M248.2,288.4c0-43.3-35.1-78.4-78.4-78.4c-43.3,0-78.4,35.1-78.4,78.4c0,43.3,35.1,78.4,78.4,78.4 C213.1,366.8,248.2,331.7,248.2,288.4z"/> <g> <path class="st4" d="M120,293.7c0,0,0.1,7.1,4.2,11.6c5.8,6.3,1.2,2.7,9.8,9.3c6.3,4.8,1.8,8.6,8.1,12.9 c4,2.7,9.4,12.9,13.3,1.3c0.5-1.6,0.4-9.4,0.3-12.9c-0.5,1.8-0.5,1.8-0.1-1.7c0-0.2,0.1,0.5,0.1,1.7c1.1-3.9,4.6-16.4,12.2-22.1 c11-8.4,0-13.3,0-18.1c0-4.8-7.9-10.5-23.3-15.7c-7.1-2.4-6-18.4,3.9-12.9c9.8,5.5,29,1.1,18.9-5.5c-9.2-6.1-3.8-13.9,0.1-17.9 c-1.5-0.1-3-0.2-4.5-0.2c-32,0-57.9,25.9-57.9,57.9c0,8.6,1.9,16.7,5.2,24C113.4,305,116.5,301.4,120,293.7z"/> <path class="st4" d="M201.3,251.8c-10.6,5.3-15.9,10.6-12,16c4,5.3,4,6.6,9.3,8c5.3,1.3,14.6-1.3,19.9,2.7c5.3,4,9.3-2.7,5.3,4 c-4,6.6-2.7,4-13.3,6.6c-10.6,2.7-8-6.6-10.6,2.7c-2.7,9.3-8,6.6-4,17.3c4,10.6,14.6,18.6,14.6,18.6l1.2,13.9 c14.8-11.1,24.4-28.7,24.4-48.6c0-20.3-10-38.3-25.3-49.3C209.5,245.8,206.9,249,201.3,251.8z"/> </g> </g> <g> <path class="st3" d="M65.5,226.9l-4.3-2l0-0.1c1.4-3,3.2-5.9,5.5-8.5l0.1-0.1l3.6,3.1l-0.1,0.1C68.3,221.7,66.7,224.2,65.5,226.9 L65.5,226.9z M76.7,213.6l-2.7-3.8l0.1-0.1c2.6-1.8,5.5-3.5,8.6-4.9l0.1,0l1.9,4.3l-0.1,0C81.8,210.4,79.1,211.9,76.7,213.6 L76.7,213.6z M152.7,209.8l-0.1,0c-1-0.3-2-0.6-3-0.9c-0.3-0.1-0.7-0.2-1-0.3l-0.5-0.2l-0.2,0.2v-0.4l0,0l1.2-4.4l0.1,0 c0.6,0.2,1.2,0.3,1.7,0.5c1,0.3,2.1,0.6,3.1,0.9l0.1,0L152.7,209.8z M139,206.2h-0.1c-3-0.7-6.1-1.2-9.1-1.6l-0.1,0l0.6-4.7 l0.1,0c3,0.4,6.2,1,9.5,1.7l0.1,0L139,206.2z M93.1,206.2l-1.2-4.6l0.1,0c3-0.8,6.2-1.5,9.5-1.9l0.1,0.1l0.6,4.6l-0.1,0 c-3.2,0.4-6.2,1-9,1.8L93.1,206.2z M120.5,203.7c-3.3-0.2-6.6-0.2-9.2-0.1h-0.1l-0.1-4.7h0.1c2.7-0.1,6.3-0.1,9.5,0.1v-0.2 l0.2,0.3l-0.3,4.5h-0.1L120.5,203.7z"/> <path class="st3" d="M157.8,330.9c-5.3-1.8-28.9-10.7-34.5-13.3c-28.1-13.1-50.7-33.7-60.5-55.1c-6.2-13.7-6.8-26.7-1.7-37.7 l4.3,2c-4.5,9.7-3.9,21.4,1.7,33.8c9.3,20.4,31,40.1,58.2,52.8c5.5,2.5,28.7,11.3,34,13.1L157.8,330.9z"/> </g> <circle class="st3" cx="169.8" cy="214.4" r="5.1"/> <path class="st3" d="M108.1,244.2c0-2.1-1.7-3.7-3.7-3.7c-2.1,0-3.7,1.7-3.7,3.7c0,2.1,1.7,3.7,3.7,3.7 C106.5,248,108.1,246.3,108.1,244.2z"/> <path class="st3" d="M192.5,252.1c0-2.1-1.7-3.7-3.7-3.7c-2,0-3.7,1.7-3.7,3.7c0,2.1,1.7,3.7,3.7,3.7 C190.9,255.8,192.5,254.2,192.5,252.1z"/> <path class="st3" d="M241.6,254c0-2.8-2.3-5.1-5.1-5.1c-2.8,0-5.1,2.3-5.1,5.1c0,2.8,2.3,5.1,5.1,5.1 C239.3,259.1,241.6,256.8,241.6,254z"/> <path class="st10" d="M172.6,221.3c0,0.5-1.3,0.9-2.8,0.9c-1.5,0-2.8-0.4-2.8-0.9c0-0.5,1.3-0.9,2.8-0.9 C171.3,220.4,172.6,220.8,172.6,221.3z"/> <path class="st10" d="M107.4,250.1c0,0.5-1.3,0.9-2.8,0.9c-1.5,0-2.8-0.4-2.8-0.9c0-0.5,1.3-0.9,2.8-0.9 C106.2,249.3,107.4,249.7,107.4,250.1z"/> <path class="st3" d="M117.1,221.3c-0.9-3.7-3.6-6.3-9-6.3c0,0-0.1,0-0.1,0c-4.6,0-8.4,3.3-9.3,7.6c-0.2,0.1-0.3,0.2-0.5,0.4 c-3.2,0.3-5.8,3-5.8,6.3v0.3c0,3.5,2.8,6.4,6.4,6.4l9.3-0.1l8.5-0.1c3.9,0,7.1-3.2,7.1-7.1v-0.3 C123.7,224.7,120.8,221.6,117.1,221.3z"/> </g> <g id="handbag_1_"> <path class="st5" d="M195.4,277.9h146.7c5.9,0,10.7,4.8,10.7,10.7v90.3c0,5.9-4.8,10.7-10.7,10.7H195.4c-5.9,0-10.7-4.8-10.7-10.7 v-90.3C184.6,282.7,189.4,277.9,195.4,277.9z"/> <g class="st11"> <path class="st5" d="M356.6,391.9c0-1.6-41.9-2.9-93.7-2.9c-51.7,0-93.7,1.3-93.7,2.9c0,1.6,41.9,2.9,93.7,2.9 C314.7,394.8,356.6,393.5,356.6,391.9z"/> </g> <path class="st12" d="M273.2,349.3h-4c-2,0-3.6-1.6-3.6-3.6v-9.4c0-2,1.6-3.6,3.6-3.6h4c2,0,3.6,1.6,3.6,3.6v9.4 C276.8,347.7,275.2,349.3,273.2,349.3z"/> <path class="st13" d="M187.8,389.9h32.5v-98.7h-35.6v95.6C184.6,388.5,186,389.9,187.8,389.9z"/> <path class="st13" d="M348.4,389.9h-32.5v-98.7h35.6v95.6C351.5,388.5,350.1,389.9,348.4,389.9z"/> <path class="st14" d="M352.8,288.6l-4.8,38.8c-26.2,14.3-125.7,14.6-152.2,0.8l-10.9-39.5c0,0,0.5-9.2,9.1-10.2 c6.4,0,146.3,0,146.3,0S351.2,277.5,352.8,288.6z"/> <path class="st15" d="M271.1,334.3c-43.3,0-66.3-7.1-66.5-7.2c-0.4-0.1-0.7-0.6-0.5-1c0.1-0.4,0.6-0.6,1-0.5 c0.2,0.1,23,7.1,66,7.1c37.4,0,68.1-7.4,68.4-7.4c0.4-0.1,0.9,0.2,1,0.6c0.1,0.4-0.2,0.9-0.6,1 C339.6,326.9,308.7,334.3,271.1,334.3z"/> <path class="st14" d="M279.4,333c0-2.4-2.4-4.4-5.3-4.4h-5.9c-2.9,0-5.3,2-5.3,4.4v4.8h16.5L279.4,333z"/> <path class="st16" d="M273.2,347.7h-4c-2,0-3.6-1.6-3.6-3.6v-9.4c0-2,1.6-3.6,3.6-3.6h4c2,0,3.6,1.6,3.6,3.6v9.4 C276.8,346.1,275.2,347.7,273.2,347.7z"/> <path class="st17" d="M266.5,339.4v4.7h0.1c0,1.5,1.2,2.6,2.7,2.6h4c1.5,0,2.7-1.2,2.7-2.6h0v-4.7H266.5z"/> <path class="st5" d="M295,278h-2c-3.4,0-6.3-2.5-6.7-5.7l-0.8-6.3c-0.3-2.4-2.4-4.2-4.9-4.2h-24.1c-2.5,0-4.6,1.8-4.9,4.2 l-0.8,6.3c-0.4,3.3-3.3,5.7-6.7,5.7h-2.4v-1.1c0-1.3,1.1-2.3,2.4-2.3l0,0c1.6,0,2.9-1.1,3.1-2.7l0.8-6.3c0.5-4.1,4.1-7.2,8.5-7.2 h24.1c4.3,0,7.9,3.1,8.5,7.2l0.8,6.3c0.2,1.5,1.5,2.7,3.1,2.7l0,0c1.1,0,2,0.9,2,1.9V278z"/> </g> <path class="st16" d="M407.5,368.7c0,0.4-0.6,0.6-1.3,0.6c-0.7,0-1.3-0.3-1.3-0.6c0-0.4,0.6-0.6,1.3-0.6 C406.9,368,407.5,368.3,407.5,368.7z"/> <g id="pencil_1_"> <radialGradient id="SVGID_1_" cx="-2987.9285" cy="-337.1613" r="29.0696" gradientTransform="matrix(0 0.6462 -1.0867 0 -149.9503 2323.7986)" gradientUnits="userSpaceOnUse"> <stop offset="0" style="stop-color:#F96E1A"/> <stop offset="1" style="stop-color:#EF610E"/> </radialGradient> <polygon class="st18" points="250.4,395.6 249.1,393.2 250.4,390.5 249.9,388.9 172.3,388.9 172.3,397.1 249.9,397.1 "/> <g> <polygon class="st19" points="250,388.9 249.9,388.9 172.3,388.9 172.3,390.5 250.4,390.5 "/> <polygon class="st20" points="250.4,390.5 172.3,390.5 172.3,393 248.9,393 "/> <polygon class="st21" points="248.9,393 172.3,393 172.3,395.5 250.4,395.5 "/> <polygon class="st19" points="172.3,395.5 172.3,397.1 249.9,397.1 250,397.1 250.4,395.5 "/> </g> <polygon class="st22" points="262.2,394.3 262.2,391.7 251.1,389 251.6,390.5 250.2,393.2 251.6,395.6 251.2,396.9 "/> <polygon points="267.6,393 262.2,391.7 262.2,394.3 "/> <g class="st11"> <path class="st5" d="M270.4,398.2c0-0.4-22.4-0.7-50-0.7s-50,0.3-50,0.7c0,0.4,22.4,0.7,50,0.7S270.4,398.6,270.4,398.2z"/> </g> </g> <g id="glasses_2_"> <g class="st11"> <path class="st5" d="M401.8,399.8c0-0.4-6.1-0.7-13.7-0.7c-7.5,0-13.7,0.3-13.7,0.7c0,0.4,6.1,0.7,13.7,0.7 C395.7,400.6,401.8,400.2,401.8,399.8z"/> </g> <polygon class="st23" points="316.2,375.1 404.2,374.4 404.2,371 316.2,371.8 316.2,375.1 "/> <path class="st23" d="M326.2,374c0,0-8.5,4.6-8.4,7.9c0.1,4.3,2.1,2.9,2.1,2.9s7.7-7.8,10.5-9.8c0.6-0.4-1.9-1-1.9-1L326.2,374 L326.2,374z"/> <path class="st23" d="M394.9,373.5c0,0,8.6,4.5,8.6,7.8c-0.1,4.3-2.1,2.9-2.1,2.9s-7.9-7.7-10.7-9.6c-0.6-0.4,1.9-1,1.9-1 L394.9,373.5L394.9,373.5z"/> <g> <path class="st5" d="M410.5,367.2l0,5.4c-4.6,1.5-4.8,11.7-4.8,11.7s-2.1,14.1-18.8,14.3c-19.4,0.2-22.3-17.9-23-20.9 c-0.6-2.6-3-2.8-3.6-2.8c-0.6,0-2.9,0.3-3.5,2.9c-0.7,3-3.2,21.1-22.6,21.3c-16,0.1-18-14.1-18-14.1s-1.4-10.2-6-11.6l0-5.4 c0,0,4.4-2.2,17.1-2.3c12.7-0.1,20.1,1.7,20.1,1.7s9.4,1.8,12.9,1.9c3.5-0.1,12.9-2.1,12.9-2.1s7.4-1.9,20.1-2 C406.1,365.1,410.5,367.2,410.5,367.2L410.5,367.2z M341.9,368.6c0,0-6.2-1.4-15.4,0.2c-9.2,1.6-8.7,7.9-7.9,11.9 c0.8,4,1.8,16.3,17.3,15.7c5.8-0.4,15-4.4,17.7-16.4C355.8,370.3,341.9,368.6,341.9,368.6L341.9,368.6z M367.9,380 c3,11.9,12.2,15.7,18,16.1c15.5,0.4,16.3-11.9,17-16c0.7-4.1,1.2-10.3-8.1-11.8c-9.3-1.5-15.5,0-15.5,0S365.5,370.2,367.9,380 L367.9,380z"/> </g> <path class="st24" d="M349.9,371.5l-29.8,0.2c-1,1-1.5,2.2-1.8,3.4l6.2-0.1c1-0.6,1.7-1,1.7-1l2.4,0c0,0,2.4,0.5,1.9,1l22.7-0.2 C352.4,373.4,351.2,372.3,349.9,371.5L349.9,371.5z"/> <path class="st24" d="M328.5,374l-2.4,0c0,0-0.7,0.4-1.7,1c-1.9,1.2-4.8,3.2-6.1,5.1c0,0.2,0.1,0.4,0.1,0.6c0.2,1,0.4,2.6,0.9,4.3 c0.3-0.1,0.5-0.2,0.5-0.2s7.7-7.8,10.5-9.8c0,0,0,0,0,0C331,374.6,328.5,374,328.5,374L328.5,374z"/> <path class="st25" d="M334.9,368c-2.4,0-5.2,0.2-8.5,0.8c-6.9,1.2-8.3,5-8.3,8.5c0-0.7,0.1-1.5,0.2-2.3c0.3-1.2,0.8-2.4,1.8-3.4 c1.3-1.3,3.3-2.4,6.3-2.9C329.7,368.3,332.5,368.1,334.9,368c4.4,0,7,0.5,7,0.5s4.6,0.6,8.1,2.9c1.3,0.9,2.4,1.9,3.1,3.3 c0.5,0.9,0.8,1.9,0.8,3.1c-0.1-7.9-11.9-9.3-11.9-9.3S339.3,368,334.9,368L334.9,368z"/> <g> <path class="st26" d="M390.7,374.5l-22.4,0.2c-0.5,0.9-0.7,2-0.7,3.1c0,0.7,0.1,1.4,0.3,2.1c3,11.9,12.2,15.7,18,16.1l0,0 c0.3,0,0.6,0,0.9,0l0,0l0,0c10.9-0.1,14.1-6.7,15.3-11.7c0,0,0,0,0,0c-0.4,0-0.7-0.2-0.7-0.2S393.6,376.4,390.7,374.5 C390.7,374.5,390.7,374.5,390.7,374.5L390.7,374.5z M403.1,374.4l-6.4,0.1c2,1.2,5.2,3.3,6.4,5.3c0.2-1,0.3-2.1,0.3-3.2 C403.3,375.9,403.3,375.1,403.1,374.4L403.1,374.4z M386.4,367.6C386.4,367.6,386.4,367.6,386.4,367.6c-4.4,0-7,0.7-7,0.7l0,0 c0,0-4.6,0.6-8,3l29.8-0.2c-1.3-1.3-3.3-2.3-6.4-2.8l0,0c0,0-0.1,0-0.1,0C391.6,367.8,388.8,367.6,386.4,367.6 C386.4,367.6,386.4,367.6,386.4,367.6L386.4,367.6z"/> </g> <path class="st27" d="M401.3,371l-29.8,0.2c-1.3,0.9-2.4,2-3.1,3.4l22.4-0.2c-0.6-0.4,1.9-1,1.9-1l2.3,0c0,0,0.7,0.4,1.7,1 l6.4-0.1C402.8,373.2,402.2,372,401.3,371L401.3,371z"/> <path class="st27" d="M394.9,373.5l-2.3,0c0,0-2.4,0.6-1.9,1c0,0,0,0,0,0c2.8,1.9,10.7,9.6,10.7,9.6s0.3,0.2,0.7,0.2c0,0,0,0,0,0 c0.4-1.7,0.6-3.3,0.8-4.3c0-0.1,0-0.2,0.1-0.3c-1.2-2-4.4-4.1-6.4-5.3C395.7,373.8,394.9,373.5,394.9,373.5L394.9,373.5z"/> <path class="st25" d="M386.8,396L386.8,396L386.8,396L386.8,396L386.8,396z M386,396c0.3,0,0.6,0,0.9,0 C386.6,396,386.3,396,386,396L386,396z M394.9,368.3L394.9,368.3c3.1,0.5,5.1,1.5,6.4,2.8c1,1,1.5,2.1,1.8,3.3 c0.2,0.7,0.3,1.5,0.3,2.2C403.3,373.1,401.8,369.4,394.9,368.3L394.9,368.3L394.9,368.3z M379.4,368.3L379.4,368.3 c0,0-11.8,1.7-11.8,9.5c0-1.2,0.3-2.2,0.7-3.1c0.7-1.4,1.8-2.5,3.1-3.4C374.9,368.9,379.4,368.3,379.4,368.3L379.4,368.3 L379.4,368.3z M386.4,367.6c2.3,0,5.1,0.1,8.3,0.6C391.6,367.8,388.8,367.6,386.4,367.6L386.4,367.6z M386.4,367.6 C386.4,367.6,386.4,367.6,386.4,367.6C386.4,367.6,386.4,367.6,386.4,367.6L386.4,367.6L386.4,367.6z"/> <path class="st28" d="M369.3,384.1l21.4-9.6l11.4,9.9c0,0-2.5,11-14.1,11.5C376.4,396.4,374.3,388.9,369.3,384.1z"/> <path class="st16" d="M318.6,368.2c0,0.4-0.6,0.6-1.3,0.6c-0.7,0-1.3-0.3-1.3-0.6c0-0.4,0.6-0.6,1.3-0.6 C318,367.5,318.6,367.8,318.6,368.2z"/> <g> <path class="st29" d="M341.9,368.6c0,0-2.6-0.6-7-0.5c-2.4,0-5.2,0.2-8.5,0.8c-3.1,0.5-5.1,1.6-6.3,2.9l29.8-0.2 C346.5,369.2,341.9,368.6,341.9,368.6z"/> <path class="st29" d="M324.5,375l-6.2,0.1c-0.2,0.7-0.2,1.5-0.2,2.3c0,1,0.1,1.9,0.3,2.8C319.7,378.2,322.6,376.2,324.5,375z"/> <path class="st26" d="M321.3,389.8c2.1,3.6,6,6.8,13.6,6.7c0.3,0,0.6,0,0.9,0c3.8-0.3,9-2.1,13-6.7H321.3z"/> <path class="st29" d="M353.6,380.1c0.2-0.8,0.3-1.5,0.2-2.1c0-1.2-0.3-2.2-0.8-3.1l-22.7,0.2c0,0,0,0,0,0 c-2.8,2-10.5,9.8-10.5,9.8s-0.2,0.2-0.5,0.2c0.4,1.5,1,3.2,1.9,4.7h27.5C350.9,387.4,352.6,384.2,353.6,380.1z"/> </g> <g class="st11"> <path class="st5" d="M346.9,399.8c0-0.4-6.1-0.7-13.7-0.7c-7.5,0-13.7,0.3-13.7,0.7c0,0.4,6.1,0.7,13.7,0.7 C340.8,400.6,346.9,400.2,346.9,399.8z"/> </g> </g> <g id="shadow_1_"> <rect x="172.6" y="400" class="st30" width="199.5" height="1.4"/> <g class="st31"> <rect x="349.3" y="412.9" class="st32" width="2.6" height="1.1"/> <path class="st32" d="M345.2,414H336v-1.1h9.2V414z M322.2,414h-4.1v-1.1h4.1V414z M308.9,414h-9.2v-1.1h9.2V414z"/> <path class="st32" d="M297.9,414h-2.8v-1.1h2.8V414z M291.1,414h-9.2v-1.1h9.2V414z M268.1,414h-2.8v-1.1h2.8V414z M261.3,414 h-9.2v-1.1h9.2V414z"/> <rect x="241.2" y="412.9" class="st32" width="2.6" height="1.1"/> </g> <g class="st31"> <rect x="334.1" y="405.7" class="st32" width="0.9" height="1"/> <path class="st32" d="M324.2,406.7h-6.6v-1h6.6L324.2,406.7z M315.9,406.7H306v-1h9.9V406.7z M306,406.7h-3.3v-1h3.3L306,406.7z"/> <path class="st32" d="M299.3,406.7h-1.7v-1h1.7V406.7z M287.8,406.7h-6.6v-1h6.6L287.8,406.7z M279.5,406.7h-1.7v-1h1.7V406.7z M267.9,406.7h-6.6v-1h6.6L267.9,406.7z M259.6,406.7h-1.7v-1h1.7V406.7z M248,406.7h-6.6v-1h6.6L248,406.7z M239.7,406.7H238v-1 h1.7V406.7z"/> <rect x="225.5" y="405.7" class="st32" width="0.9" height="1"/> </g> </g> </g> </svg>