<?xml version='1.0' encoding='utf-8'?>
<svg xmlns="http://www.w3.org/2000/svg" version="1.1" width="1025px" height="769px" viewBox="27 680 1025 769"> <g id="layer1"> <g style="fill:rgb(0,174,199); fill-opacity:1.0; stroke-linejoin: miter"> <path d="M26.999,679.5245C26.873146,679.5245,26.752445,679.57446,26.663452,679.66345C26.57446,679.75244,26.524464,679.87317,26.524464,679.999L26.525463,1449.0C26.525463,1449.2621,26.73792,1449.4745,27.0,1449.4745L1052.001,1449.4755C1052.1268,1449.4755,1052.2476,1449.4255,1052.3365,1449.3365C1052.4255,1449.2476,1052.4755,1449.1268,1052.4755,1449.001L1052.4745,680.0C1052.4745,679.7379,1052.2621,679.52545,1052.0,679.52545L26.999,679.5245 Z"/> </g> <g style="fill:rgb(252,184,38); fill-opacity:1.0; stroke-linejoin: miter"> <path d="M881.1806,860.74146C877.2706,864.2959,876.0266,865.40686,873.1829,867.8063C869.3617,871.0054,862.4304,877.1368,861.8527,877.75885C861.63055,878.02545,859.6311,879.7585,857.4095,881.58C855.23236,883.4018,853.0997,885.179,852.69965,885.5789C852.34424,885.93427,850.7448,887.35626,849.1454,888.7337C847.5902,890.1109,843.0138,894.11005,839.01495,897.62006C835.0158,901.1302,830.79486,904.7735,829.6841,905.75104C827.0181,907.97266,822.7083,911.74915,821.19763,913.1267C818.79834,915.3928,816.4879,917.39233,813.8663,919.52515C812.4001,920.76917,809.3787,923.3463,807.1571,925.3013C804.98,927.3008,801.20325,930.5886,798.75946,932.6769C794.2718,936.5425,790.9395,939.51953,789.6509,940.67456C789.29565,941.03015,787.6515,942.452,786.09644,943.78503C774.855,953.3378,771.3448,956.8924,772.2334,957.7365C772.36664,957.86993,785.741,958.00323,801.9585,958.00323L831.41705,958.003L831.9057,959.0694C832.30566,959.8691,832.1723,960.89105,831.5058,963.6015C831.017,965.55646,830.48395,968.17804,830.3507,969.5109C830.17285,970.8438,829.81744,972.3101,829.5954,972.75446C829.3288,973.19867,828.88446,975.02045,828.52893,976.79767C828.1734,978.5749,827.41815,981.6851,826.79614,983.7734C826.1741,985.862,825.46326,988.4389,825.1522,989.54974C824.88574,990.6606,824.26355,992.4821,823.8192,993.6375C823.33057,994.79254,822.97504,996.0368,822.97504,996.43646C822.97504,996.8365,822.664,997.814,822.3529,998.5694C821.6865,1000.0357,820.35345,1003.76807,819.1539,1007.4114C818.79846,1008.5665,818.3097,1009.63293,818.0875,1009.76636C817.82104,1009.8994,817.6432,1010.344,817.6432,1010.744C817.6432,1011.4103,816.9325,1013.0989,814.533,1018.2085C814.04425,1019.18616,812.75586,1021.9852,811.64496,1024.429C810.5341,1026.8728,809.42346,1029.1831,809.15674,1029.5386C808.9347,1029.894,808.53467,1030.6937,808.3126,1031.3158C808.0459,1031.938,807.69037,1032.7375,807.4683,1033.093C807.2017,1033.4485,806.31305,1035.137,805.42444,1036.8699C804.49133,1038.5582,803.29175,1040.7799,802.7142,1041.7573C802.1365,1042.7349,801.2923,1044.2455,800.75903,1045.0897C799.3818,1047.489,798.44867,1048.9996,794.2721,1055.5312C793.82776,1056.2422,793.25006,1057.1752,792.98346,1057.6195C792.22815,1058.8638,787.91833,1065.1288,786.9408,1066.3727C780.05383,1075.3038,778.0989,1077.836,777.56573,1078.414C777.25464,1078.8136,774.6332,1081.7906,771.78955,1085.0787C765.7467,1092.0546,755.0831,1102.6736,748.15173,1108.672C745.4858,1110.9824,742.7755,1113.3374,742.15344,1113.915C741.53143,1114.4928,740.5095,1115.2924,739.8874,1115.6481C739.2654,1116.0477,737.4881,1117.4252,735.8885,1118.6693C731.4009,1122.2681,722.6034,1128.3109,715.983,1132.4432C714.4277,1133.3762,711.9396,1134.9755,710.429,1135.9088C708.9182,1136.8864,706.1635,1138.4857,704.34174,1139.4187C702.52014,1140.3964,699.7653,1141.8181,698.25464,1142.6178C696.74384,1143.4175,695.1444,1144.1731,694.7001,1144.3063C694.2556,1144.484,693.58923,1144.795,693.2337,1145.0172C690.7012,1146.6611,671.8621,1154.3479,668.57416,1155.1034C667.8632,1155.2811,667.0635,1155.5477,666.7969,1155.7256C666.5747,1155.9476,665.24176,1156.3921,663.90875,1156.7474C662.5758,1157.1472,660.6653,1157.7695,659.6876,1158.125C658.71027,1158.4802,657.4661,1158.7914,656.88855,1158.8358C656.3553,1158.8358,655.15546,1159.1467,654.22235,1159.5466C653.33386,1159.9021,651.6898,1160.3907,650.57904,1160.6129C649.4683,1160.7906,647.2911,1161.2795,645.69147,1161.6793C639.8709,1163.1012,634.7612,1164.1229,632.1398,1164.3894C630.6734,1164.5673,628.2741,1164.9672,626.8079,1165.2781C625.3417,1165.5891,622.23145,1165.9891,619.9209,1166.1667C617.6104,1166.3002,613.2118,1166.7445,610.146,1167.0557C603.70325,1167.811,585.4417,1167.9445,580.1542,1167.2778C578.19916,1167.0557,573.22284,1166.5227,569.04626,1166.167C564.9141,1165.8116,560.78186,1165.3228,559.9377,1165.0563C555.6723,1163.812,552.47327,1165.4562,552.0734,1169.1886C551.5846,1173.2761,552.8731,1174.0314,567.7133,1178.4304C569.4463,1178.9191,572.0234,1179.719,573.4896,1180.2076C574.9558,1180.6521,576.4665,1181.0519,576.822,1181.0519C577.1774,1181.0519,578.777,1181.4518,580.3766,1181.8961C583.931,1182.9624,588.46313,1184.073,592.5953,1184.8285C594.3281,1185.1395,597.394,1185.7616,599.4822,1186.1615C601.57056,1186.5614,604.7697,1187.139,606.5914,1187.4944C608.41315,1187.8499,612.0122,1188.383,614.5892,1188.6052C617.1662,1188.872,620.09875,1189.2717,621.1206,1189.4938C623.1202,1189.9825,630.6291,1190.5156,646.84686,1191.36C655.73315,1191.8043,659.11005,1191.76,672.17316,1191.0933C680.43744,1190.6489,689.857,1189.938,693.0117,1189.4937C696.21075,1189.005,700.2097,1188.5161,701.89813,1188.3829C703.6308,1188.2052,706.11914,1187.8497,707.45215,1187.4943C708.785,1187.1832,711.051,1186.7834,712.5173,1186.6055C713.93915,1186.4277,715.84973,1186.028,716.7384,1185.7172C717.6271,1185.4061,719.67084,1185.0061,721.22595,1184.8285C722.82556,1184.6506,724.7362,1184.2509,725.53595,1183.9398C726.33563,1183.5844,727.93524,1183.1843,729.0905,1183.0513C730.2457,1182.8733,732.3784,1182.3845,733.80035,1181.896C735.1777,1181.4517,736.6885,1181.0518,737.1327,1181.0518C737.53253,1181.0518,739.1766,1180.652,740.7761,1180.1187C746.19696,1178.386,748.99615,1177.5416,750.5513,1177.275C751.39545,1177.0972,752.3284,1176.7863,752.5506,1176.6084C752.8172,1176.3864,753.88354,1176.0308,754.9944,1175.7198C756.1053,1175.453,758.0602,1174.8312,759.3043,1174.3425C760.59283,1173.8538,762.81445,1173.0538,764.19183,1172.5206C768.99036,1170.7878,778.54346,1166.9668,782.98663,1164.9675C786.3191,1163.4568,796.0497,1158.8357,796.98267,1158.3026C797.47156,1157.9913,799.3821,1157.0139,801.2037,1156.0809C803.02545,1155.1478,804.84717,1154.1703,805.20245,1153.948C805.558,1153.726,807.91296,1152.3928,810.44556,1150.9711C812.9781,1149.5493,815.5996,1148.0388,816.2216,1147.6389C816.8881,1147.1945,817.999,1146.5281,818.70984,1146.1282C819.42065,1145.7283,821.0204,1144.7064,822.2201,1143.8622C823.37524,1143.018,824.7082,1142.218,825.1079,1142.0405C825.55225,1141.8625,826.79645,1141.0626,827.8627,1140.2631C829.9955,1138.7078,832.8391,1136.7085,836.7491,1134.087C838.08215,1133.1984,839.504,1132.1766,839.85956,1131.8655C840.21497,1131.5544,841.8146,1130.2661,843.414,1129.0663C845.0136,1127.8666,846.5244,1126.667,846.8353,1126.4005C847.102,1126.1782,849.63464,1124.1345,852.38934,1121.824C859.2319,1116.1809,861.4978,1114.137,870.7396,1104.851C880.648,1094.9423,882.381,1093.0764,888.73456,1085.2115C896.42114,1075.792,898.1097,1073.4371,905.6632,1062.1516C909.973,1055.6646,910.37286,1054.998,913.83856,1048.8665C915.21594,1046.4224,916.50446,1044.1123,916.7266,1043.7566C917.34863,1042.7347,925.16876,1026.8726,926.013,1024.8732C926.4573,1023.8956,927.2126,1022.2073,927.7458,1021.0963C928.23456,1019.9855,928.81213,1018.60815,928.9455,1017.9861C929.1232,1017.36414,929.47864,1016.60876,929.7451,1016.29785C930.1896,1015.7645,930.7673,1014.2982,932.4998,1009.3219C932.85535,1008.3445,933.744,1005.8561,934.49927,1003.7679C935.2547,1001.6796,936.1433,998.9692,936.4544,997.7695C936.8098,996.52545,937.2986,994.92596,937.5652,994.215C938.5871,991.32697,940.85315,982.8405,941.6973,978.88605C941.9195,977.7753,942.40814,975.8647,942.71936,974.6651C943.07477,973.42096,943.5634,971.02167,943.7857,969.28876C944.0522,967.55585,944.54083,964.9345,944.94086,963.51245C945.29626,962.0907,945.6073,960.4911,945.6073,960.00256C945.6072,958.0029,945.3406,958.0029,971.7334,958.0032C994.3936,958.00305,996.793,957.9142,996.5264,957.29236C996.39307,956.89233,996.2598,956.4479,996.2598,956.2258C996.2598,955.9148,988.4842,948.89453,982.48596,943.7849C980.93085,942.4519,979.2868,941.03,978.9313,940.67456C977.6428,939.51953,974.31055,936.5426,969.8229,932.6769C967.3789,930.58856,963.6022,927.3006,961.42505,925.3011C959.20337,923.346,956.18195,920.76886,954.71564,919.52484C952.0942,917.392,949.7836,915.39264,947.38434,913.12665C945.8292,911.70465,941.5194,907.92816,938.89777,905.75104C937.7427,904.7734,934.4546,901.92975,931.52216,899.3527C928.63403,896.7757,924.9905,893.5765,923.4355,892.24347C920.5475,889.75555,919.4366,888.7336,916.7262,886.28973C915.882,885.5343,913.3939,883.40173,911.1723,881.5801C908.9952,879.7584,907.0845,878.1144,906.9511,877.9812C906.5068,877.4922,898.19806,870.161,895.39874,867.80615C892.5551,865.40674,891.311,864.34033,887.401,860.74133C886.1569,859.6305,884.95734,858.9197,884.2908,858.9197C883.62427,858.9197,882.4248,859.6306,881.1806,860.74146 Z"/> </g> <g style="fill:rgb(252,184,38); fill-opacity:1.0; stroke-linejoin: miter"> <path d="M956.9819,974.3094C956.84863,975.02045,956.62634,976.3532,956.4931,977.33075C956.3154,978.30817,955.91534,979.99664,955.6043,981.1075C954.98236,983.018,954.2271,986.1728,952.9831,991.3715C952.672,992.7487,952.27216,994.12604,952.04987,994.39276C951.87225,994.7037,951.33905,996.3034,950.8947,997.94745C949.38403,1003.6346,948.7176,1005.76733,948.27325,1006.6561C947.8289,1007.6334,946.3181,1011.8989,945.563,1014.43176C945.2964,1015.2759,944.8076,1016.29785,944.4522,1016.69763C944.0966,1017.0531,943.83014,1017.63074,943.83014,1017.9861C943.83014,1018.51953,942.40826,1022.0737,940.6756,1025.8063C940.23114,1026.828,939.83124,1027.7611,939.83124,1027.8945C939.83124,1028.6055,931.1671,1046.245,928.6788,1050.6436C927.96796,1051.8431,927.07935,1053.4429,926.72394,1054.1981C926.3684,1054.9092,925.56854,1056.3307,924.9909,1057.3085C924.3689,1058.2859,923.4802,1059.7966,922.99146,1060.6409C922.5028,1061.4851,921.392,1063.3069,920.548,1064.6398C918.4151,1067.9279,918.4596,1067.8389,915.30493,1072.5487C913.7498,1074.8147,912.2836,1077.0363,912.06146,1077.4805C911.7948,1077.8806,911.306,1078.5914,910.95074,1078.9915C910.5952,1079.3912,909.7954,1080.4132,909.17334,1081.302C908.55133,1082.1903,906.9074,1084.4564,905.4411,1086.2782C904.01935,1088.1443,902.3754,1090.366,901.7977,1091.2104L900.7314,1092.7654L900.7315,1208.7775C900.7317,1298.441,900.86505,1324.9672,901.26495,1325.3671C901.6648,1325.7671,908.685,1325.9003,930.10144,1325.9003C955.24976,1325.9003,958.49347,1325.8114,959.1155,1325.1895C959.7377,1324.5673,959.8265,1307.9941,959.82605,1149.9496C959.82587,1039.0027,959.6478,974.9316,959.38135,974.22064C958.8035,972.66534,957.29285,972.7099,956.9819,974.3094 Z"/> </g> <g style="fill:rgb(252,184,38); fill-opacity:1.0; stroke-linejoin: miter"> <path d="M869.1402,1125.778C868.8292,1126.1781,866.7409,1128.0442,864.5193,1129.8661C862.3421,1131.7323,860.0316,1133.6871,859.49835,1134.2648C858.9208,1134.7981,857.5434,1135.9089,856.47705,1136.7086C855.3662,1137.5083,852.78925,1139.4636,850.7453,1141.0629C848.70154,1142.6626,846.4799,1144.351,845.8135,1144.8397C842.1255,1147.55,827.1075,1157.7249,825.1081,1158.8356C824.4416,1159.1909,822.3978,1160.3906,820.5316,1161.5015C818.6654,1162.6123,816.4438,1163.8566,815.5996,1164.2565C814.79987,1164.7007,814.0,1165.5005,813.8667,1166.0336C813.73334,1166.6113,813.68915,1202.7346,813.73364,1246.367L813.86707,1325.6781L841.85944,1325.8115C857.2772,1325.8561,870.2959,1325.8114,870.8735,1325.6781L871.8509,1325.4559L871.7619,1225.3505L871.6284,1125.2894L870.6953,1125.1562C870.20654,1125.0673,869.4956,1125.3783,869.1402,1125.778 Z"/> </g> <g style="fill:rgb(252,184,38); fill-opacity:1.0; stroke-linejoin: miter"> <path d="M781.476,1180.9186C781.0318,1181.0519,780.00977,1181.5406,779.2543,1181.985C778.49896,1182.4291,777.5214,1182.8291,777.0769,1182.829C776.58813,1182.829,775.69965,1183.1399,775.07745,1183.4955C773.92224,1184.1173,771.92303,1184.9174,767.8797,1186.2502C766.76886,1186.6057,765.30255,1187.1833,764.54724,1187.4945C762.9921,1188.2053,759.6597,1189.316,756.5496,1190.1602C755.3499,1190.5156,753.35046,1191.0934,752.1064,1191.4933C749.8848,1192.2042,746.86334,1193.0928,740.9984,1194.7369C739.30994,1195.2257,736.9994,1195.8033,735.8886,1195.9368C734.77795,1196.1144,733.53375,1196.4698,733.0894,1196.692C732.64514,1196.9141,731.1344,1197.2694,729.75696,1197.4917C728.2908,1197.7583,727.00226,1198.2471,726.69116,1198.6914C725.80255,1199.8466,725.84717,1324.7008,726.73584,1325.4115C727.1358,1325.7672,735.13354,1325.856,755.7056,1325.8115L784.0978,1325.6782L784.0978,1253.2542C784.0975,1181.1407,784.0975,1180.8297,783.2088,1180.7408C782.72003,1180.7408,781.9203,1180.7854,781.476,1180.9186 Z"/> </g> <g style="fill:rgb(0,0,0); fill-opacity:1.0; stroke-linejoin: miter"> <path d="M552.251,1188.9164C552.0733,1189.0494,551.9402,1219.841,551.94025,1257.2974L551.94037,1325.4562L552.9622,1325.6783C553.4955,1325.8115,566.55835,1325.856,581.9319,1325.8116L609.924,1325.6781L610.01294,1264.3618C610.1016,1230.638,609.96826,1202.779,609.7461,1202.4679C609.5239,1202.068,607.88,1201.6685,605.6584,1201.4462C603.61444,1201.2238,600.94855,1200.7351,599.70447,1200.4242C598.5049,1200.0687,596.1944,1199.669,594.5947,1199.4912C592.9952,1199.3135,591.2179,1198.958,590.5958,1198.7356C589.9738,1198.5137,588.1076,1198.0248,586.37494,1197.7137C581.13184,1196.7365,568.91315,1193.4927,562.60376,1191.4487C561.4929,1191.049,559.6267,1190.5156,558.3827,1190.2047C557.183,1189.8937,555.71674,1189.405,555.18353,1189.1383C554.1172,1188.5608,552.69543,1188.4275,552.251,1188.9164 Z"/> </g> <g style="fill:rgb(252,184,38); fill-opacity:1.0; stroke-linejoin: miter"> <path d="M689.9014,1203.934C684.52527,1204.8672,663.7311,1205.6228,651.42334,1205.3562C645.38055,1205.2228,640.27094,1205.2671,639.95984,1205.4451C639.6043,1205.667,639.5155,1221.3074,639.56,1265.7391L639.69354,1325.6783L668.0856,1325.8115C688.6576,1325.8558,696.65533,1325.7671,697.05536,1325.4114C697.8994,1324.7006,697.98804,1204.645,697.1438,1203.8009C696.47736,1203.1345,694.52234,1203.1788,689.9014,1203.934 Z"/> </g> <g style="fill:rgb(0,0,0); fill-opacity:1.0; stroke-linejoin: miter"> <path d="M498.79846,958.8581Q497.0362,958.8472,495.31616,959.39264L489.75113,961.9476Q488.41153,962.4727,487.10196,962.6508Q485.74924,962.8659,483.57767,962.87006Q471.24323,962.18854,468.60727,962.61835Q462.0557,963.1424,459.3043,964.7867Q458.61575,965.2127,458.16116,965.98444Q457.06085,969.52325,456.50626,969.7752L450.50955,974.44226Q448.91568,976.00476,448.24176,977.8048Q446.63327,982.1985,449.28854,991.3778L449.80615,993.0565L526.59564,1074.7146L532.02057,1075.1548Q543.1448,1075.9017,544.9939,1058.2496Q548.1514,1034.9083,543.4563,996.02295Q542.98004,994.4822,542.4354,994.12866Q538.2355,992.8982,536.9582,990.9667Q536.91016,991.5001,530.21515,980.1335Q528.9463,978.13104,527.5405,976.2199Q524.3022,971.8122,520.53815,968.6955Q509.1197,959.66486,498.8648,958.8582 Z"/> </g> <g style="fill:rgb(73,73,77); fill-opacity:1.0; stroke-linejoin: miter"> <path d="M634.43665,1252.2432L634.0691,1252.6985Q537.8254,1358.701,634.43665,1252.2432 Z"/> </g> <g style="fill:rgb(0,0,0); fill-opacity:1.0; stroke-linejoin: miter"> <path d="M533.72284,1077.6196L471.9796,1091.5685L466.36465,1100.8352L406.73022,1125.8881L365.4032,1242.8619L401.7204,1273.9764L429.18628,1219.2751Q437.31845,1251.3461,437.15073,1277.7794Q438.2641,1287.3821,430.78763,1326.5565L609.6988,1326.5574Q610.3341,1324.2175,610.2065,1322.0411L676.4234,1283.2201Q679.42523,1281.6014,683.8159,1277.2765Q693.0262,1268.2041,685.6632,1246.6187L684.1599,1241.8971L614.96515,1109.9889L551.0998,1094.0791L533.72284,1077.6196 Z M604.0814,1204.7842L619.008,1228.1702L633.9349,1251.5565Q613.2587,1260.6906,592.58234,1269.8248L604.0814,1204.7842 Z"/> </g> <g style="fill:rgb(255,255,255); fill-opacity:1.0; stroke-linejoin: miter"> <path d="M533.56573,1077.9834Q532.2569,1088.5159,526.1352,1096.6697Q520.98145,1103.8108,503.80164,1117.3406Q488.3165,1111.5327,482.79053,1106.7278Q477.33054,1102.5098,472.78854,1091.4541Q471.52502,1097.458,472.3556,1104.2283Q473.61722,1116.8544,482.19214,1147.8059Q490.1691,1177.0979,514.12476,1256.3611L536.6559,1107.4281L533.6015,1078.3175 Z"/> </g> <g style="fill:rgb(255,255,255); fill-opacity:1.0; stroke-linejoin: miter"> <path d="M518.0074,1301.9666L514.6337,1326.5565L524.36163,1326.5576L518.0074,1301.9666 Z"/> </g> <g style="fill:rgb(0,0,0); fill-opacity:1.0; stroke-linejoin: miter"> <path d="M503.10333,1117.7865L493.99445,1123.7838L499.79364,1133.2543L496.83282,1141.181Q494.1129,1156.9916,493.14215,1165.5043Q491.02795,1183.1497,492.21393,1197.5573Q493.43634,1214.168,500.29858,1233.8322Q508.79303,1257.0157,514.61786,1261.2681Q517.6337,1263.0034,517.0445,1249.6296Q516.8962,1246.045,516.4545,1240.4528Q514.31604,1215.8691,514.19653,1213.5004Q513.626,1205.656,513.211,1196.98Q512.264,1178.3828,511.88123,1141.8594L509.2072,1133.4716L515.5774,1123.4358L503.1322,1117.7993 Z"/> </g> <g style="fill:rgb(255,211,169); fill-opacity:1.0; stroke-linejoin: miter"> <path d="M459.3267,984.8406Q452.99734,984.5867,449.65762,989.6885Q445.54453,996.10645,443.2244,1009.0895Q441.86713,1017.0602,442.37338,1021.9935L442.93872,1025.2687Q444.934,1031.5898,444.94858,1032.5068L446.06866,1046.2172Q446.57462,1050.2079,447.66187,1053.3955Q448.28964,1056.2338,455.66577,1070.1741Q456.34515,1071.4498,458.71017,1078.5123Q459.2203,1079.8689,459.94498,1081.0472Q461.7776,1084.8868,472.7566,1087.8285L472.6905,1092.471L476.21112,1100.3789L477.89435,1102.3584Q483.39142,1110.449,504.2379,1118.2198Q518.23663,1107.8018,523.5043,1101.9269Q528.72906,1096.4556,533.50464,1086.1919L523.1527,1048.6895Q537.0884,1031.4275,533.95184,1019.1747Q530.69507,1011.38806,518.3646,1018.4291Q510.7851,1022.9955,514.3469,1036.3073L508.41278,1037.1826L502.722,1008.34375Q490.61282,1004.452,490.53867,1001.7438Q490.20615,1000.5138,491.03278,999.1317L495.88177,992.3618Q496.5506,990.7318,495.698,989.8721Q494.48212,988.3755,487.93155,987.4625L459.34106,984.8406 Z"/> </g> <g style="fill:rgb(255,211,169); fill-opacity:1.0; stroke-linejoin: miter"> <path d="M579.06683,1278.7357Q566.0191,1275.3134,560.6917,1273.2773Q557.03345,1272.1553,548.3921,1267.1604Q546.7271,1266.3848,545.42505,1266.24Q543.83466,1266.0021,541.507,1266.811Q541.07623,1266.7677,533.3873,1270.7399Q531.46246,1271.5363,529.60956,1271.7926Q527.8207,1272.0339,526.0453,1271.8792Q525.5191,1271.9735,517.435,1270.4624Q515.6339,1270.2579,514.547,1270.565Q511.51135,1271.3469,512.95905,1275.4136Q506.54486,1274.6716,506.0952,1278.5577Q505.065,1283.74,508.31488,1286.5161Q505.04816,1288.0638,507.86072,1297.9775Q508.41644,1299.5927,509.0094,1300.1509Q509.2249,1300.5697,510.96033,1300.8853Q511.17694,1300.9872,511.3905,1301.3667Q511.69666,1302.003,511.85754,1303.3303L512.5699,1310.4746L517.50885,1318.4952Q518.911,1320.5602,520.2208,1321.837Q524.6481,1326.8483,534.38696,1324.0938Q535.8359,1323.7048,537.6799,1323.0779L541.6136,1321.6222Q567.43805,1310.3541,570.8257,1309.7302Q580.09827,1306.8743,588.91534,1307.3359L579.0685,1278.7404 Z"/> </g> <g style="fill:rgb(0,0,0); fill-opacity:1.0; stroke-linejoin: miter"> <path d="M482.31085,1150.1844L445.55728,1177.4045L484.33685,1281.6244L516.9518,1262.9475Q495.4118,1196.8085,482.35718,1150.3413 Z"/> </g> <g style="fill:rgb(0,0,0); fill-opacity:1.0; stroke-linejoin: miter"> <path d="M524.9812,1188.3206Q518.4053,1224.8544,513.80066,1264.8385L544.4963,1226.1118L524.99677,1188.3505 Z"/> </g> <g style="fill:rgb(255,28,0); fill-opacity:0.06666667; stroke-linejoin: miter"> <path d="M511.61096,1074.0768Q498.0196,1085.7081,491.2981,1087.8282Q487.59256,1089.1481,483.2876,1089.1525Q479.64157,1089.212,472.71677,1087.867L473.10483,1094.9075L481.86414,1107.7867L511.5777,1074.119 Z"/> </g> <g style="fill:rgb(255,211,169); fill-opacity:1.0; stroke-linejoin: miter"> <path d="M404.50385,1124.1077Q402.8562,1124.2091,400.10287,1127.88Q398.98013,1129.3696,397.6909,1131.4097L391.6867,1141.1727Q390.05237,1143.6503,388.61713,1145.1881Q387.344,1146.564,385.66962,1147.5571Q385.3195,1147.9169,380.10773,1150.041Q378.87857,1150.6549,377.94666,1151.4576Q377.06726,1152.206,375.99005,1153.5454Q371.7118,1159.3309,371.19507,1159.8243Q369.7704,1161.4844,368.51953,1162.5219Q363.51987,1166.774,352.88443,1167.6967L360.37744,1195.8364L375.4127,1191.3469Q378.06375,1190.6212,383.34277,1190.594Q384.29565,1190.486,385.1973,1190.1606Q388.31213,1189.0477,391.00775,1184.6473Q396.6978,1175.2578,403.0471,1147.9878Q408.35,1124.1451,404.5621,1124.1085 Z"/> </g> <g style="fill:rgb(255,255,255); fill-opacity:1.0; stroke-linejoin: miter"> <path d="M354.21313,1165.7451Q349.4122,1165.5503,341.0109,1170.9142L357.4294,1201.8275Q361.8147,1200.2765,363.12045,1196.161Q364.85745,1190.7297,364.218,1182.3467Q363.5359,1174.8302,360.87924,1170.3215Q358.23584,1165.9438,354.2418,1165.7466 Z"/> </g> <g style="fill:rgb(0,0,0); fill-opacity:1.0; stroke-linejoin: miter"> <path d="M208.52861,957.8158Q190.67796,957.5476,175.78044,971.1653Q160.4093,985.6039,156.80237,1005.51086Q153.79597,1021.3257,161.2127,1038.6012Q170.93275,1061.9119,187.49539,1078.2964L231.69327,1075.072Q238.14508,1050.2433,242.88593,1042.4364Q245.93481,1037.0068,249.78268,1034.9388Q251.52115,1033.9484,253.91553,1033.3208L261.69687,1031.8228Q263.1401,1031.435,264.06805,1030.3807Q265.09784,1029.0444,265.00757,1026.3569L263.40482,1013.6985Q263.17868,1010.8473,263.787,1009.0397Q264.47974,1007.21436,266.1211,1006.1682L272.80362,1002.81067Q273.98315,1001.9219,274.2333,1000.4619Q274.59378,995.4208,266.9446,985.5272Q259.50958,976.12085,250.67917,970.4353Q230.84247,958.6068,208.62599,957.8158 Z"/> </g> <g style="fill:rgb(255,211,169); fill-opacity:1.0; stroke-linejoin: miter"> <path d="M264.3,1003.4856Q261.55658,1003.47473,261.32202,1008.4442Q260.8568,1011.7147,262.5423,1029.3959Q255.78192,1032.6294,253.97922,1031.2263Q252.90329,1030.6838,252.38626,1028.7906L251.1936,1019.2363Q250.69104,1016.84875,249.82825,1015.9286Q247.1511,1013.34265,241.00986,1017.1019Q235.58609,1020.64966,234.10739,1024.8065Q233.5679,1026.2346,233.35223,1028.5306Q233.0839,1038.4475,232.66327,1040.7551Q232.06903,1045.4229,231.00143,1049.6002Q228.30441,1060.0353,223.90948,1064.7964Q220.20796,1068.828,214.03716,1070.7754L208.55093,1072.2753L185.29442,1077.6228L186.87245,1084.0509L252.21564,1101.5701Q269.52905,1096.3136,271.75287,1090.7665Q272.578,1089.2347,272.59958,1087.4751L271.3827,1080.5356Q271.19257,1078.3452,271.61676,1075.7831Q271.26654,1075.1914,277.1223,1057.6694Q278.08456,1054.2651,278.38077,1051.8682Q278.8734,1047.9086,277.84015,1044.4976Q277.8107,1043.2958,273.14755,1034.7172Q272.15222,1032.3221,271.8735,1030.1259Q271.61932,1028.1216,272.06888,1026.547Q272.028,1026.1698,273.86322,1023.00916Q274.1859,1022.3368,274.33624,1021.54944Q274.61478,1019.94324,274.00125,1017.9557Q272.9874,1014.22485,267.42,1004.2864Q265.42355,1003.50574,264.39978,1003.48706 Z"/> </g> <g style="fill:rgb(255,255,255); fill-opacity:1.0; stroke-linejoin: miter"> <path d="M184.84027,1079.6451L183.73647,1097.2472L260.80942,1121.5878Q259.93335,1098.8977,243.46234,1090.8789Q223.36638,1079.9799,184.87587,1079.6466 Z"/> </g> <g style="fill:rgb(255,211,169); fill-opacity:1.0; stroke-linejoin: miter"> <path d="M426.41275,1275.0524Q425.87076,1274.8219,425.2261,1274.7523L422.45007,1274.6903Q421.71286,1274.6375,420.86652,1274.4125Q420.17902,1274.2291,419.20203,1273.8126Q414.01294,1271.3583,413.02454,1271.0834Q410.94232,1270.3472,409.38483,1270.358Q405.3991,1270.414,401.49915,1275.3163L434.05997,1292.9766Q434.68967,1292.3331,436.18738,1290.443Q437.069,1289.2964,437.49612,1288.5164Q438.387,1286.9327,437.95505,1286.0029Q437.78555,1285.5698,437.26212,1285.0388Q433.87698,1282.2299,433.67526,1281.9489L428.72717,1276.7368Q427.35495,1275.4319,426.43265,1275.0608 Z"/> </g> <g style="fill:rgb(0,0,0); fill-opacity:1.0; stroke-linejoin: miter"> <path d="M199.31586,1088.1415L197.3439,1088.1665Q189.13142,1088.3658,175.72519,1090.1635L168.9083,1108.5521Q166.61726,1107.3287,154.94357,1122.9689L147.58307,1127.7313Q145.73456,1129.4026,142.99521,1134.4498Q135.36308,1148.1158,130.96823,1175.0581Q128.05913,1200.9769,133.8621,1220.9753Q136.08804,1230.0869,141.80716,1245.4465L163.02782,1297.2223Q167.82979,1310.6174,168.3335,1326.5563L320.98853,1326.5577L318.23123,1288.1578L361.84674,1326.5564L437.9938,1326.5575Q442.98193,1299.2328,431.2554,1285.5183Q428.6145,1280.3053,410.55917,1276.0513L349.43118,1216.739Q368.28723,1202.6112,351.4574,1171.3289Q342.7625,1166.1343,324.05447,1172.8696Q308.70087,1141.8112,296.17233,1136.2484Q289.46844,1130.7767,260.01846,1118.2761Q235.39725,1097.17,227.53773,1094.34Q213.23535,1087.5157,199.31586,1088.1415 Z"/> </g> </g> </svg>