<?xml version="1.0" encoding="utf-8"?>
<svg xmlns="http://www.w3.org/2000/svg" xmlns:xlink="http://www.w3.org/1999/xlink" version= "1.1" width="1618px" height="1000px" viewBox="-350 195 1618 1000">
<g id="layer1">
<g style="fill:rgb(68,197,229); fill-opacity:0.99607843; stroke-linejoin: miter">
<path d="M-350.001,193.80171C-350.31854,193.80171,-350.62308,193.92786,-350.84763,194.15239C-351.07217,194.37692,-351.1983,194.68146,-351.1983,194.999L-351.1973,1195.0C-351.1973,1195.6613,-350.66125,1196.1973,-350.0,1196.1973L1268.001,1196.1982C1268.3185,1196.1982,1268.623,1196.072,1268.8475,1195.8475C1269.072,1195.623,1269.1982,1195.3185,1269.1982,1195.001L1269.1973,195.0C1269.1973,194.33876,1268.6613,193.80272,1268.0,193.80272L-350.001,193.80171 Z"/>
</g>
<g style="fill:rgb(146,159,168); fill-opacity:1.0; stroke-linejoin: miter">
<path d="M762.94354,587.8783L762.94354,587.8783L762.94354,587.8793C762.94354,589.25214,762.1431,590.4989,760.8949,591.07043C759.64667,591.64197,758.1799,591.4332,757.14056,590.53625L757.14056,590.53625L476.13745,348.00342L478.89957,348.82477L410.79184,358.00543L413.09567,356.679L175.1127,663.31836C173.92424,664.8497,171.71942,665.1276,170.1881,663.93915C168.65677,662.7507,168.37883,660.54584,169.56729,659.0145L169.56729,659.0145L407.55026,352.3752C408.1146,351.6481,408.94193,351.17172,409.8541,351.04877L409.8541,351.04877L477.96182,341.8681C478.95764,341.73386,479.96326,342.0329,480.72394,342.68945L480.72394,342.68945L761.727,585.2223L755.924,587.8793L755.924,587.8783C755.924,585.9399,757.49536,584.3685,759.4338,584.3685C761.3722,584.3685,762.94354,585.9399,762.94354,587.8783 Z"/>
</g>
<g style="fill:rgb(254,186,155); fill-opacity:1.0; stroke-linejoin: miter">
<path d="M185.3515,594.98004L215.40517,586.2249L228.45592,593.98267L186.33572,606.44446L165.59167,600.6408L185.3515,594.98004 Z"/>
</g>
<g style="fill:rgb(60,70,79); fill-opacity:1.0; stroke-linejoin: miter">
<path d="M67.71308,653.7857L93.79869,649.1013L184.38889,582.8413L201.03767,609.4434C154.80435,651.3296,125.2056,676.91907,112.31993,686.31995C101.33504,694.33466,95.2083,698.3137,94.15038,698.87634C87.34089,702.4975,82.12684,704.766,78.17699,705.35046C72.95609,706.1236,68.01673,704.59314,63.30237,700.4099L67.71308,653.7857 Z"/>
</g>
<g style="fill:rgb(0,0,0); fill-opacity:1.0; stroke-linejoin: miter">
<path d="M203.80177,994.29126L220.29942,994.29175L236.79707,994.29224Q236.79707,1032.667,236.79707,1071.0416Q220.29942,1071.0421,203.80177,1071.0426Q203.80177,1032.667,203.80177,994.29126"/>
</g>
<g style="fill:rgb(0,0,0); fill-opacity:1.0; stroke-linejoin: miter">
<path d="M289.02887,893.5167L305.52652,893.5172L322.02417,893.51764Q322.02417,982.2795,322.02417,1071.0413Q305.52652,1071.0417,289.02887,1071.0422Q289.02887,982.27954,289.02887,893.5167"/>
</g>
<g style="fill:rgb(0,0,0); fill-opacity:1.0; stroke-linejoin: miter">
<path d="M374.25598,776.71606L390.75366,776.71655L407.2513,776.71704Q407.2513,923.87915,407.2513,1071.0411Q390.75366,1071.0416,374.25598,1071.0421Q374.25598,923.87915,374.25598,776.71606"/>
</g>
<g style="fill:rgb(0,0,0); fill-opacity:1.0; stroke-linejoin: miter">
<path d="M544.7102,655.3689L561.2078,655.3694L577.7055,655.3699Q577.7055,864.79016,577.7055,1074.2103Q561.2078,1074.2108,544.7102,1074.2113Q544.7102,864.79016,544.7102,655.3689"/>
</g>
<g style="fill:rgb(0,0,0); fill-opacity:1.0; stroke-linejoin: miter">
<path d="M629.9373,739.77325L646.435,739.77374L662.9326,739.77423Q662.9326,913.1991,662.9326,1086.6237Q646.435,1086.6241,629.9373,1086.6246Q629.9373,913.1991,629.9373,739.77325"/>
</g>
<g style="fill:rgb(0,0,0); fill-opacity:1.0; stroke-linejoin: miter">
<path d="M715.1644,690.0337L731.66205,690.0342L748.1597,690.03467Q748.1597,880.53796,748.1597,1071.0411Q731.66205,1071.0416,715.1644,1071.0421Q715.1644,880.53796,715.1644,690.0337"/>
</g>
<g style="fill:rgb(0,0,0); fill-opacity:0.30588236; stroke-linejoin: miter">
<path d="M1038.7418,1102.8904L1033.5892,1103.8893Q996.95557,1106.9081,819.20935,1108.718Q640.233,1110.5265,397.69595,1110.1847Q166.22568,1109.7069,27.44658,1107.3888Q-17.019785,1106.6394,-45.806816,1105.7559L-70.001526,1104.8474Q-89.94018,1103.9097,-90.164345,1102.8904Q-84.11154,1099.7622,75.16015,1097.685Q234.43184,1095.6079,474.28888,1095.5289Q714.1457,1095.6079,873.4174,1097.685Q1032.6891,1099.7622,1038.7418,1102.8904"/>
</g>
<g style="fill:rgb(0,0,0); fill-opacity:1.0; stroke-linejoin: miter">
<path d="M138.40422,1053.2343C138.30487,1077.6461,155.082,1097.3751,176.01451,1097.4598L876.09015,1100.3285C897.02216,1100.3912,913.9596,1080.8014,914.0591,1056.3873L138.40381,1053.257 Z"/>
</g>
<g style="fill:rgb(0,0,0); fill-opacity:1.0; stroke-linejoin: miter">
<path d="M209.52132,935.7391L209.52132,935.7391L313.74936,817.0335L312.2827,819.2141L351.21655,741.3463C352.4332,738.913,354.5666,737.06274,357.14746,736.20245L357.14746,736.20245L473.9492,697.2685L468.6581,701.30975L546.5258,584.5081C548.23047,581.9512,550.99176,580.29315,554.04987,579.99036C557.108,579.68756,560.1408,580.77185,562.3138,582.9448L562.3138,582.9448L679.1154,699.74646L663.6562,700.8451L780.4579,545.10944C783.85693,540.5774,790.28644,539.6589,794.8185,543.0579C799.3505,546.457,800.26904,552.8865,796.87,557.4185L796.87,557.4185L680.0683,713.1542C678.2842,715.533,675.5555,717.02057,672.5894,717.2314C669.62335,717.4422,666.71173,716.35547,664.6091,714.2528L664.6091,714.2528L547.80743,597.4512L563.5954,595.8879L485.7277,712.6895C484.4624,714.58746,482.6006,716.00946,480.4366,716.7308L480.4366,716.7308L363.6349,755.66473L369.5658,750.5209L330.63196,828.3887C330.2386,829.1754,329.74567,829.9083,329.1653,830.5693L329.1653,830.5693L224.93727,949.27484C221.19946,953.53186,214.71838,953.9527,210.4614,950.2149C206.2044,946.4771,205.78351,939.9961,209.52132,935.7391 Z"/>
</g>
<g style="fill:rgb(0,0,0); fill-opacity:1.0; stroke-linejoin: miter">
<path d="M751.23364,524.37195L751.23364,524.3725L829.1287,579.68195Q823.4823,546.38055,817.83594,513.0793L751.23364,524.37195"/>
</g>
<g style="fill:rgb(255,28,0); fill-opacity:0.99607843; stroke-linejoin: miter">
<path d="M302.2868,317.208L302.28708,317.20844L302.28735,317.20886L302.28708,317.20844L302.2868,317.208L302.28708,317.20844L302.28735,317.20886Q302.28708,317.20844,302.2868,317.208"/>
</g>
<g style="fill:rgb(0,0,0); fill-opacity:1.0; stroke-linejoin: miter">
<path d="M459.48312,741.8545L475.98077,741.855L492.47842,741.85547Q492.47842,908.0329,492.47842,1074.2103Q475.98077,1074.2108,459.48312,1074.2113Q459.48312,908.0329,459.48312,741.8545"/>
</g>
<g style="fill:rgb(0,0,0); fill-opacity:1.0; stroke-linejoin: miter">
<path d="M800.3916,615.9548L816.8893,615.95526L833.3869,615.95575Q833.3869,843.9131,833.3869,1071.8702Q816.8893,1071.8707,800.3916,1071.8712Q800.3916,843.9131,800.3916,615.9548"/>
</g>
<g style="fill:rgb(0,0,0); fill-opacity:0.99607843; stroke-linejoin: miter">
<path d="M507.6816,386.89948L507.11078,395.3846Q503.05243,421.02737,483.36133,436.40164Q463.53397,451.76346,436.6652,448.86Q411.02243,444.80164,395.64816,425.11053Q390.7221,418.74548,387.53302,411.2395L384.85266,403.52277Q382.6438,395.55807,382.61896,386.89948Q383.2895,360.32758,400.934,342.6831Q418.57846,325.0386,445.1503,324.36807Q471.72217,325.0386,489.3666,342.6831Q507.01108,360.32758,507.6816,386.89948"/>
</g>
<g style="fill:rgb(254,186,155); fill-opacity:1.0; stroke-linejoin: miter">
<path d="M155.79948,1013.28516L155.79974,1013.28613L155.79948,1013.28516L155.79974,1013.28613 Z"/>
</g>
<g style="fill:rgb(0,0,0); fill-opacity:0.99607843; stroke-linejoin: miter">
<path d="M110.03315,1074.298L109.74355,1071.3704C108.37389,1057.679,106.2969,1046.2253,103.75159,1036.9435C103.41745,1035.725,102.23477,1030.9447,99.63846,1022.7604C92.36435,999.8313,88.46389,987.70715,88.06367,986.33856C86.12415,979.7047,84.64486,973.9646,83.63018,969.0984C83.33251,967.66943,82.83605,964.47174,82.331825,959.4603L81.79649,940.2283C81.84123,939.4158,81.48854,935.9884,80.70912,929.9508C79.49376,920.534,76.99482,908.4771,72.5939,893.9685C69.045,882.2672,64.99004,873.53845,61.073666,867.5789L57.558586,861.8784C49.965424,855.2637,44.815804,849.6966,41.81113,845.37915C38.84467,841.1169,35.042088,833.8206,30.696165,823.28107C37.651264,772.41406,56.536625,764.36804,56.536625,764.36804C74.67185,756.64124,104.767334,791.72235,104.767334,791.72235C111.30288,810.7499,115.60917,823.6514,117.685875,830.42834L121.84934,843.80554C127.65617,874.6377,131.53629,897.9757,133.18385,913.85315C135.11797,932.4944,134.57188,948.25336,131.85364,961.1C136.75325,989.013,140.30113,1007.61273,142.2531,1016.94995C143.7094,1023.9176,146.0699,1032.2584,149.24588,1042.0337C149.96127,1044.2349,150.16014,1045.9417,150.09166,1047.0488C149.97,1049.0181,149.20691,1050.237,148.1453,1051.0747C147.0339,1051.9502,144.2751,1053.2947,139.5767,1054.7726L125.77775,1015.8654L140.74184,1057.2936C137.41658,1064.7532,133.81221,1069.0526,130.37915,1071.0468C127.41255,1072.7703,120.80556,1074.125,110.03315,1074.298 Z"/>
</g>
<g style="fill:rgb(0,0,0); fill-opacity:0.99607843; stroke-linejoin: miter">
<path d="M97.167046,889.2313L97.16721,889.23193L97.16712,889.23157L97.167046,889.2313 Z"/>
</g>
<g style="fill:rgb(125,139,150); fill-opacity:0.99607843; stroke-linejoin: miter">
<path d="M29.940237,725.50195L29.940054,725.502L29.940039,725.5027L29.940237,725.50195 Z"/>
</g>
<g style="fill:rgb(0,0,0); fill-opacity:1.0; stroke-linejoin: miter">
<path d="M22.132236,625.6542L22.078098,625.51953Q17.535772,610.21375,16.43575,607.8813Q15.385336,605.1917,14.258018,603.14545Q9.879876,595.9151,8.756769,593.23346Q6.3486905,587.65375,5.4479184,584.1828Q3.490018,576.641,3.5090299,573.30426Q3.39436,571.1282,3.593472,569.08105L3.888317,567.08887Q4.2799187,565.1481,5.0281024,563.4287Q6.549662,559.9889,9.193259,557.45233Q10.990407,555.2891,16.88632,552.56Q20.97935,550.92334,26.142735,550.48376Q31.971142,549.9804,41.65196,550.79517Q44.93763,550.44904,46.44272,550.0285Q50.472378,549.7321,51.62167,543.11847Q55.867813,547.85175,56.739193,550.623Q58.64767,554.88477,57.01621,566.5244L45.6082,598.60693L22.132236,625.6542 Z"/>
</g>
<g style="fill:rgb(255,186,155); fill-opacity:0.99607843; stroke-linejoin: miter">
<path d="M20.966938,632.57764L20.968037,632.57855L20.391806,620.80396L19.32421,616.4991Q24.070787,615.3448,26.320633,612.708Q28.323257,610.15094,28.77885,605.9229Q28.996075,602.3071,28.577587,600.77124Q28.38026,599.7593,28.085186,598.7842Q25.96272,592.62683,26.07475,592.2461Q25.65257,590.64417,26.257093,588.19446Q28.533577,582.86694,31.816807,583.637Q32.702793,583.701,34.316315,585.22424Q34.942184,585.6443,38.592583,590.769Q39.553017,591.9633,39.85137,591.4951Q40.17437,590.4856,40.074455,589.3397Q39.537926,580.9984,39.536522,577.9868Q39.64721,572.46497,39.935287,571.5429Q40.480145,565.9981,45.29584,561.66876Q53.128746,556.25635,58.11546,558.99005Q63.782112,568.26965,64.58337,571.4305Q65.74759,574.85516,64.01191,578.74756Q73.384605,588.0179,73.83135,590.4808Q75.03445,593.3309,68.962036,594.68494Q70.88502,598.8883,70.75439,600.1422Q70.81895,601.54724,68.7642,602.66406Q70.40687,602.6124,70.432686,604.63934Q70.376335,606.4332,69.284546,610.7952Q70.65233,615.35205,70.37251,617.6063Q69.89761,619.752,68.97493,620.26855Q67.72887,621.63776,61.60671,623.02985L54.177967,622.0927L50.966377,628.06464L20.966938,632.57764 Z"/>
</g>
<g style="fill:rgb(0,0,0); fill-opacity:0.99607843; stroke-linejoin: miter">
<path d="M73.72452,618.69696L73.72496,618.69684L73.724686,618.6976L73.72496,618.69684 Z"/>
</g>
<g style="fill:rgb(60,70,79); fill-opacity:1.0; stroke-linejoin: miter">
<path d="M69.681595,796.6019L68.651825,799.8406Q60.509914,826.0685,53.746777,830.4384Q46.40609,836.22253,32.891605,835.12476Q31.531204,832.07,30.194654,828.988Q22.75031,812.14307,20.603882,798.40906Q20.040573,795.86536,19.313461,786.5056Q18.13917,752.61475,17.815928,751.5511Q17.675394,748.386,16.471107,738.94196Q14.829199,726.81635,6.2441125,693.665Q4.0012527,682.7624,3.9488845,680.89044Q2.9642336,675.0496,3.800476,666.06323Q3.749237,663.91296,6.397491,655.142Q9.3114,646.552,17.997551,633.4344L19.917746,621.58417L54.669987,624.3671L55.779823,634.23145Q79.31997,659.1799,84.49818,673.1322Q91.101974,688.0779,94.693985,704.8891Q95.23203,705.1781,104.79322,758.586Q108.12132,775.2951,109.88083,781.8532Q113.68648,796.3233,117.814705,802.0232Q106.92963,809.2167,98.65472,807.8717Q90.88577,807.40894,69.681595,796.6019 Z"/>
</g>
<g style="fill:rgb(254,186,155); fill-opacity:1.0; stroke-linejoin: miter">
<path d="M166.04341,654.8958L184.42337,629.55707L199.49022,627.68744L173.84804,663.35095L153.9002,671.4801L166.04341,654.8958 Z"/>
</g>
<g style="fill:rgb(60,70,79); fill-opacity:1.0; stroke-linejoin: miter">
<path d="M45.761215,689.1472L69.24364,676.8595L181.43553,673.68744L178.28473,642.46344C116.08054,637.706,77.00861,635.62915,61.06489,636.0993C47.472725,636.49963,40.192753,637.11096,39.012028,637.3149C31.411991,638.62744,25.901735,640.03107,22.422485,641.9902C17.823423,644.57947,14.858702,648.8163,13.697814,655.0112L45.761215,689.1472 Z"/>
</g>
<g style="fill:rgb(0,0,0); fill-opacity:0.99607843; stroke-linejoin: miter">
<path d="M53.165558,577.8511L53.477966,577.63873Q55.51289,576.19696,56.907146,575.8555Q57.216976,575.78345,57.52589,575.7534Q57.6806,575.718,58.450706,575.7412Q59.220146,575.78284,60.600456,576.0973Q58.45617,576.3637,57.200863,576.67163Q55.977993,576.9486,53.165558,577.8511 Z"/>
</g>
<g style="fill:rgb(0,0,0); fill-opacity:0.99607843; stroke-linejoin: miter">
<path d="M55.259182,583.64484L55.258633,583.6455L55.25871,583.6462L55.259182,583.64484 Z"/>
</g>
<g style="fill:rgb(255,255,255); fill-opacity:0.99607843; stroke-linejoin: miter">
<path d="M54.972744,580.2066L54.972897,580.20764L58.743004,577.8637Q59.302147,578.5329,59.40731,579.0049Q59.543983,579.4517,59.468346,580.6205L54.972744,580.2066 Z"/>
</g>
<g style="fill:rgb(0,0,0); fill-opacity:0.99607843; stroke-linejoin: miter">
<path d="M58.71351,577.841L57.90568,579.4099L59.36358,580.5709Q59.52427,579.942,59.555458,579.61707Q59.578484,579.29517,59.56527,579.2384Q59.55709,579.1166,59.530403,579.0023Q59.50289,578.8891,59.45681,578.7831Q59.443077,578.72644,59.284355,578.4796Q59.118355,578.2361,58.71351,577.841 Z"/>
</g>
<g style="fill:rgb(0,0,0); fill-opacity:0.99607843; stroke-linejoin: miter">
<path d="M145.05695,1043.7429L145.05728,1043.7441L165.00783,1044.1841Q166.77946,1044.1254,168.45618,1044.1578Q169.28824,1044.1797,170.06136,1044.2592Q174.09921,1044.4869,175.11406,1047.6088Q175.6679,1048.7153,175.7803,1053.5194L137.67058,1057.5822L145.05695,1043.7429 Z"/>
</g>
<g style="fill:rgb(0,0,0); fill-opacity:0.99607843; stroke-linejoin: miter">
<path d="M158.73985,1046.1434L158.73978,1046.1442L158.74002,1046.145L158.73985,1046.1434 Z"/>
</g>
<g style="fill:rgb(0,0,0); fill-opacity:0.99607843; stroke-linejoin: miter">
<path d="M141.7257,1044.5048L142.78113,1045.137Q150.17836,1049.5486,154.42427,1050.017Q156.82892,1050.4325,159.2991,1050.3676Q160.7086,1050.3346,162.17694,1050.2107Q171.74202,1049.1965,172.11708,1049.342Q175.465,1049.29,177.05696,1050.1198Q179.20535,1050.835,179.61662,1054.7937Q179.59074,1058.5847,176.63652,1062.2644Q173.44203,1066.4867,163.15202,1069.218Q162.2533,1069.4934,157.37953,1070.5878L124.14462,1077.866Q120.15842,1079.2188,118.10488,1079.6149Q113.567795,1080.4263,111.70672,1079.0422Q109.2261,1077.639,108.0445,1072.2458Q107.08101,1069.2251,106.48452,1055.096L119.80559,1060.5856L141.7257,1044.5048 Z"/>
</g>
<g style="fill:rgb(254,186,155); fill-opacity:0.99607843; stroke-linejoin: miter">
<path d="M216.8842,586.7943L216.88422,586.7943L227.84435,596.6968Q214.41975,602.91425,200.99518,609.1317Q197.97765,604.64264,194.96013,600.15356L216.8842,586.7943"/>
</g>
<g style="fill:rgb(254,186,155); fill-opacity:0.99607843; stroke-linejoin: miter">
<path d="M199.33597,627.65894L198.8928,637.0896L198.44966,646.52026Q189.29855,656.4617,180.14746,666.4031Q179.79648,660.5247,179.44551,654.6463L199.33597,627.65894"/>
</g>
<g style="fill:rgb(254,186,155); fill-opacity:0.99607843; stroke-linejoin: miter">
<path d="M209.31865,639.0231L209.31865,639.02313L209.31866,639.0232L209.31865,639.0231"/>
</g>
<g style="fill:rgb(60,70,79); fill-opacity:0.99607843; stroke-linejoin: miter">
<path d="M472.1904,383.0699L472.09637,386.74295Q470.80496,397.8851,462.58093,404.87534Q454.29785,411.8627,442.6472,411.09183Q431.505,409.80038,424.51477,401.5764Q422.27402,398.9172,420.7626,395.73434L419.467,392.4514Q418.37048,389.05295,418.20428,385.3157Q418.01657,373.83322,425.31638,365.89975Q432.61615,357.96634,444.07446,357.19974Q455.5569,357.012,463.49033,364.31174Q471.4238,371.61154,472.1904,383.0699"/>
</g>
<g style="fill:rgb(146,159,168); fill-opacity:1.0; stroke-linejoin: miter">
<path d="M757.56744,571.7951L769.6128,580.4782L781.65814,589.16125Q774.4453,599.1673,767.23236,609.17334Q755.18677,600.49036,743.1414,591.80743L757.56744,571.7951"/>
</g>
<g style="fill:rgb(60,70,79); fill-opacity:0.99607843; stroke-linejoin: miter">
<path d="M648.7526,408.1063L648.7526,408.10638L648.7527,408.10648L648.7526,408.10638L648.7526,408.1063L648.7526,408.10638L648.7527,408.10648Q648.7526,408.10638,648.7526,408.1063"/>
</g>
<g style="fill:rgb(60,70,79); fill-opacity:0.99607843; stroke-linejoin: miter">
<path d="M648.7526,408.1063L648.7526,408.10638L648.7527,408.10648L648.7526,408.10638L648.7526,408.1063L648.7526,408.10638L648.7527,408.10648Q648.7526,408.10638,648.7526,408.1063"/>
</g>
<g style="fill:rgb(33,95,137); fill-opacity:0.99607843; stroke-linejoin: miter">
<path d="M168.7534,858.0843L168.75342,858.0846L168.75343,858.0849L168.7534,858.0843"/>
</g>
<g style="fill:rgb(59,69,78); fill-opacity:0.99607843; stroke-linejoin: miter">
<path d="M450.56598,334.27002L450.5179,334.98465Q450.17612,337.1442,448.5178,338.43896Q446.848,339.7327,444.58517,339.4882Q442.42563,339.1464,441.13086,337.48807Q440.716,336.95203,440.44742,336.3199L440.22168,335.67Q440.03568,334.99924,440.03357,334.27002Q440.09003,332.03223,441.57602,330.54626Q443.06198,329.06027,445.29977,329.0038Q447.53757,329.06027,449.02353,330.54626Q450.50952,332.03223,450.56598,334.27002"/>
</g>
<g style="fill:rgb(59,69,78); fill-opacity:0.99607843; stroke-linejoin: miter">
<path d="M403.58255,386.6509L403.5345,387.3655Q403.3826,388.32532,402.9706,389.1143Q402.76465,389.50876,402.49365,389.86057Q402.39877,390.06314,401.53436,390.8198Q400.79224,391.3948,399.93295,391.66595Q399.73645,391.78122,398.57816,391.90176Q398.10458,391.9234,397.60175,391.86905Q397.3351,391.8717,396.25815,391.4949Q395.84232,391.3214,395.46918,391.08295Q394.7229,390.60596,394.14743,389.86893Q392.8626,388.08582,393.08032,386.1629Q393.17603,385.20544,393.55408,384.3965Q393.74313,383.992,394.00275,383.62466Q394.09265,383.4136,394.9321,382.61453Q396.3272,381.43484,398.31635,381.38467Q399.3109,381.40976,400.15698,381.71722Q400.3917,381.74997,401.34256,382.33725Q401.7099,382.5969,402.04013,382.9271Q402.24936,383.069,402.87195,384.0013Q403.09625,384.38724,403.25,384.81027Q403.55746,385.65634,403.58255,386.6509"/>
</g>
<g style="fill:rgb(59,69,78); fill-opacity:0.99607843; stroke-linejoin: miter">
<path d="M450.5771,435.961L450.52902,436.6756Q450.21182,438.79245,448.5289,440.12985Q446.91168,441.39035,444.81833,441.19955Q442.67072,440.92923,441.40616,439.49374Q441.14337,439.22064,440.875,438.78104Q440.31888,437.77576,440.2967,437.5664Q440.02246,436.7463,440.04504,435.8986Q440.11838,433.70175,441.59055,432.25076Q443.11743,430.72552,445.31088,430.6948Q446.4392,430.7376,447.2912,431.06927Q448.4546,431.59045,449.14807,432.33932Q450.55643,433.90344,450.5771,435.961"/>
</g>
<g style="fill:rgb(59,69,78); fill-opacity:0.99607843; stroke-linejoin: miter">
<path d="M501.13486,386.64624L501.0868,387.36087Q500.9458,388.3017,500.53506,389.08853Q499.96262,390.03842,499.7672,390.18222Q499.46066,390.5179,499.0867,390.8151Q498.36792,391.37534,497.5551,391.64886Q496.51852,391.9281,496.283,391.89795Q495.8413,391.92722,495.37613,391.8848Q495.11026,391.89075,494.0425,391.57513Q493.63065,391.42877,493.26242,391.22485Q492.5552,390.84836,491.9055,390.11624Q490.52722,388.41797,490.6028,386.58386Q490.6191,386.09567,490.70447,385.64432Q490.97836,384.54816,491.11603,384.37314Q491.49402,383.58087,492.14832,382.936Q492.4876,382.59708,492.85986,382.3319Q493.8192,381.73364,494.0506,381.70255Q494.8938,381.39368,495.86865,381.38Q497.99066,381.38855,499.54593,382.86093Q500.0988,383.45392,500.26324,383.74408Q500.5077,384.11606,500.6836,384.51236Q500.85953,384.9087,500.9669,385.32938Q501.17538,386.4024,501.13486,386.64624"/>
</g>
</g>
</svg>