<?xml version="1.0" encoding="UTF-8"?>
<svg width="214.79mm" height="183.58mm" version="1.1" viewBox="0 0 761.06917 650.4899" xmlns="http://www.w3.org/2000/svg">
 <g transform="translate(843.54 -248.55)">
  <rect x="-842.24" y="248.55" width="757.53" height="650.49" ry="12.57" fill="#1de9b6" fill-rule="evenodd"/>
  <rect x="-843.33" y="262.83" width="760.86" height="636.2" ry="12.294" fill="#fff" fill-rule="evenodd"/>
  <circle cx="-808.62" cy="318.64" r="30.153" fill="#1de9b6" fill-rule="evenodd"/>
  <rect x="-773.32" y="273.68" width="619.53" height="625.36" ry="12.085" fill="#e0f2f1" fill-rule="evenodd"/>
  <path d="m-276.4 358.61c-36.479 11.463-27.147 70.581-9.0005 115.75 33.316-10.943 5.0119-19.534 23.398-16.989l10.322-99.772c-11.647-3.5091-18.953-2.3101-24.72 1.0091z" fill="#333"/>
  <path d="m-278.91 383.42c1.0262 33.992-18.197 34.505-9.1882 80.357 14.672-8.8494 45.499 4.1693 58.498 5.9686 10.905-29.991-2.576-65.05-6.0835-96.713-9.2929-6.587-31.303 4.3516-43.226 10.387z" fill="#1a1a1a"/>
  <path d="m-270.26 435.76 15.962-2.2363c-1.21 10.828-0.96866 17.366 4.4528 22.467 3.4856 3.2794 28.023 6.8636 33.71 8.2418 2.8305 2.534 3.717 15.912 5.7024 24.712h-85.407l-13.643-0.11971c0.35674-3.006 0.7438-6.2143 1.1651-9.6514 1.2719-7.5088 2.3028-13.311 5.4204-15.898 3.2512-0.96122 8.9589-2.0247 14.935-3.1617 7.075-1.0233 10.761-3.8122 12.076-6.9955 2.0968-5.075 0.61084-12.588 1.9348-17.953z" fill="#fbd9a5"/>
  <path d="m-274.45 434.95-0.11208 7.0476c1.529 1.283 7.2706 4.0383 9.4339 4.0973 2.6985-0.0585 8.0191-1.9623 10.225-3.5756l0.35717-9.4437z" fill="#e3bc81"/>
  <path d="m-297.57 375.67 28.49-12.663 27.301 13.388c-0.21718 3.4616 9.7548 6.8075 9.5926 10.398-1.0954 24.272-2.5952 49.526-32.968 57.071-28.13-8.8902-33.14-40.338-32.416-68.194z" fill="#ffe0b2"/>
  <path d="m-270.35 373.41c19.218 2.1052 27.03 29.153 36.962 30.331 0 0 2.0099-3.3958 1.5049-4.5742-0.50503-1.1784-30.976-32.996-30.976-32.996l-14.815 3.5353-6.7339 30.802c2.2383-10.08 5.7305-20.425 14.057-27.099z" fill="#ebc893" fill-rule="evenodd"/>
  <path d="m-288.67 365.75c-23.103 17.915-6.0151 60.788-1.3766 68.424 7.1911-24.138 3.68-47.881 19.169-62.151 18.809-2.3162 33.768 37.876 38.83 30.706 2.9376-38.851-14.397-46.838-56.623-36.979z" fill="#333"/>
  <path d="m-263.28 357.03c12.657 15.701 24.425 29.371 30.283 46.458-1.1632 9.2553-2.6484 13.155-4.0715 17.214 3.0718 29.005-9.7278 40.041-10.83 53.963 5.5372-1.6612 24.901-1.8268 21.464-12.1 8.7158-30.512-8.0097-109.84-27.624-102.09-2.5184-3.0353-7.7568-4.912-9.2209-3.4418z" fill="#333"/>
  <path d="m-251.37 357.61c18.359 6.0951 27.893 25.274 20.604 44.401-9.2224-13.251-11.764-31.144-26.179-38.878-4.4612-3.3965-11.417-4.2981-18.561-5.0118 6.0406-3.3902 15.375-2.561 24.136-0.51092z" fill="#333"/>
  <path d="m-290.36 404.54c7.5286-6.2997 14.64-3.6486 19.103-0.23962v2.0594c-5.263-3.3926-11.009-5.2742-19.118 0.26909z" fill="#333"/>
  <path d="m-257.75 427.35c-3.7777 4.1085-10.857 4.0378-15.115 0.7975l-0.53033 0.83409c4.6408 3.5316 12.115 3.6394 16.298-0.91018l-0.65328-0.72141z" color="#000000" color-rendering="auto" image-rendering="auto" shape-rendering="auto" solid-color="#000000" style="block-progression:tb;isolation:auto;mix-blend-mode:normal;text-decoration-color:#000000;text-decoration-line:none;text-decoration-style:solid;text-indent:0;text-transform:none;white-space:normal"/>
  <path d="m-231.97 403.83c0.20166-1.5304 2.8396-0.72572 4.0008 0.72783 1.8189 5.8803-0.74228 11.871-4.6904 14.811 0 0-2.424 3.4298-3.5799 0.78275 2.2168-4.2227 3.4717-11.201 4.2696-16.321z" fill="#ffe0b2" fill-rule="evenodd"/>
  <path d="m-241.33 404.15c-7.5286-6.0457-14.64-3.5015-19.103-0.22996v1.9763c5.2631-3.2558 11.009-5.0615 19.118 0.25824z" fill="#333"/>
  <path d="m-281.07 457.78 14.487 7.1472 3.3354 11.531 3.6213-11.245 14.674-7.4331 30.694 6.6732c2.554 1.4321 4.1262 3.8459 4.8848 7.0733l12.938 71.158-2.965 5.6603-42.048 16.442v8.8948l-19.407 4.5822 0.26958-23.719 44.743-19.676-7.2775-28.302c-2.9273 28.124-0.45617 58.762 3.6946 84.864h-84.129c1.0276-25.832 6.7314-52.617 2.807-83.786l-5.6603 28.302 39.892 17.79-0.26958 23.719-19.407-7.8166-0.26954-6.7385-36.388-13.746-4.0431-7.2776 9.1643-69.541c1.0432-2.8413 1.9971-5.7125 5.6603-7.6805 10.472-3.441 18.635-2.5532 30.997-6.8746z" fill="#1e88e5" fill-rule="evenodd"/>
  <path d="m-284.63 488.39h43.609l3.095-29.284 7.4994 1.1904c1.349 21.25-3.8878 47.895 7.8447 64.606l7.7494 99.192h-91.898l5.8686-98.048c13.949-17.958 6.3339-45.877 5.0711-65.12l6.8141-1.5271z" fill="#1de9b6" fill-rule="evenodd"/>
  <path d="m-294.04 541.15c-2.8371 19.132 1.9653 33.091 10.095 44.363 13.718 4.5444 27.878 4.2339 42.357 0.40398 9.878-9.7622 14.22-28.268 10.094-44.767-19.649 5.7004-39.878 8.6424-62.547 0z" fill="#26a69a" fill-rule="evenodd"/>
  <path d="m-773.53 572.81h618.55l68.727 38.217-4.9983 11.537h-738.51l-7.4975-11.537z" fill="#00bfa5" fill-rule="evenodd"/>
  <circle cx="-740.34" cy="318.64" r="30.153" fill="#fff" fill-rule="evenodd"/>
  <rect x="-775.25" y="263.1" width="70.208" height="59.247" ry="4.828" fill="#fff" fill-rule="evenodd"/>
  <rect x="-843.54" y="256.6" width="70.208" height="65.747" ry="5.3577" fill="#1de9b6" fill-rule="evenodd"/>
  <circle cx="-670.77" cy="318.64" r="30.153" fill="#1de9b6" fill-rule="evenodd"/>
  <rect x="-705.68" y="259.91" width="70.208" height="62.429" ry="5.0873" fill="#1de9b6" fill-rule="evenodd"/>
  <circle cx="-601.19" cy="318.64" r="30.153" fill="#fff" fill-rule="evenodd"/>
  <rect x="-636.11" y="263.1" width="70.208" height="59.247" ry="4.828" fill="#fff" fill-rule="evenodd"/>
  <circle cx="-531.62" cy="318.64" r="30.153" fill="#1de9b6" fill-rule="evenodd"/>
  <rect x="-566.53" y="257.09" width="70.208" height="65.258" ry="5.3178" fill="#1de9b6" fill-rule="evenodd"/>
  <circle cx="-462.67" cy="318.64" r="30.153" fill="#fff" fill-rule="evenodd"/>
  <rect x="-497.58" y="263.1" width="70.208" height="59.247" ry="4.828" fill="#fff" fill-rule="evenodd"/>
  <circle cx="-393.1" cy="318.64" r="30.153" fill="#1de9b6" fill-rule="evenodd"/>
  <rect x="-428.01" y="255.1" width="70.208" height="67.247" ry="5.4799" fill="#1de9b6" fill-rule="evenodd"/>
  <circle cx="-326.19" cy="318.64" r="30.153" fill="#fff" fill-rule="evenodd"/>
  <rect x="-361.1" y="263.1" width="70.208" height="59.247" ry="4.828" fill="#fff" fill-rule="evenodd"/>
  <circle cx="-256.62" cy="318.64" r="30.153" fill="#1de9b6" fill-rule="evenodd"/>
  <rect x="-291.53" y="256.1" width="70.208" height="66.247" ry="5.3984" fill="#1de9b6" fill-rule="evenodd"/>
  <circle cx="-188.18" cy="318.64" r="30.153" fill="#fff" fill-rule="evenodd"/>
  <rect x="-223.09" y="263.1" width="70.208" height="59.247" ry="4.828" fill="#fff" fill-rule="evenodd"/>
  <circle cx="-118.6" cy="318.64" r="30.153" fill="#1de9b6" fill-rule="evenodd"/>
  <rect x="-153.52" y="261.59" width="68.78" height="60.75" ry="3.4124" fill="#1de9b6" fill-rule="evenodd"/>
  <rect x="-843.27" y="611.4" width="758.57" height="287.63" ry="5.5584" fill="#1de9b6" fill-rule="evenodd"/>
  <ellipse cx="-676.13" cy="596.46" rx="70.557" ry="11.141" fill="#009688" fill-rule="evenodd"/>
  <path d="m-727.39 593.57c27.41 13.434 61.523 12.833 101.48 0l7.3923-121.73h-118.95z" fill="#4fc3f7" fill-rule="evenodd"/>
  <path d="m-737.11 482.78h117.67c2.5322-7.417 2.9803-13.961 2.3521-20.054-46.216-8.2187-80.709-7.0202-119.96 0-1.179 7.3702-1.3102 13.639-0.0573 20.054z" fill="#283593" fill-rule="evenodd"/>
  <path d="m-739.84 480.63h123.33c2.5322-7.417 2.9803-13.961 2.3521-20.054-46.216-8.2187-88.131-7.0202-127.39 0-1.179 7.3702 0.44753 13.639 1.7004 20.054z" fill="#0288d1" fill-rule="evenodd"/>
  <path d="m-702.25 455.88 2.8512 7.4634 35.046-0.0621 4.1579-7.65c-14.018-1.451-28.036-0.93904-42.055 0.24872z" fill="#4fc3f7" fill-rule="evenodd"/>
  <ellipse cx="-541.87" cy="596.46" rx="70.557" ry="11.141" fill="#009688" fill-rule="evenodd"/>
  <ellipse cx="-432.75" cy="596.46" rx="70.557" ry="11.141" fill="#009688" fill-rule="evenodd"/>
  <path d="m-588.34 593.57c27.41 13.434 61.523 12.833 101.48 0l7.3923-121.73h-118.95z" fill="#1de9b6" fill-rule="evenodd"/>
  <path d="m-597.32 482.78h117.67c2.5322-7.417 2.9803-13.961 2.3521-20.054-46.216-8.2187-80.709-7.0202-119.96 0-1.179 7.3702-1.3102 13.639-0.0573 20.054z" fill="#1b5e20" fill-rule="evenodd"/>
  <path d="m-600.78 480.63h123.33c2.5322-7.417 2.9803-13.961 2.3521-20.054-46.216-8.2187-88.131-7.0202-127.39 0-1.179 7.3702 0.44753 13.639 1.7004 20.054z" fill="#009688" fill-rule="evenodd"/>
  <path d="m-563.2 455.88 2.8512 7.4634 35.046-0.0621 4.158-7.65c-14.018-1.451-28.036-0.93904-42.055 0.24872z" fill="#1de9b6" fill-rule="evenodd"/>
  <path d="m-460.73 541.38v53.379c10.541 6.7398 25.099 7.5338 41.059 0v-53.918c-3.3192-4.0961-7.0583-6.6872-11.28-7.5485h-20.304c-4.5738 1.8502-7.29 4.8102-9.475 8.0877z" fill="#03a9f4" fill-rule="evenodd"/>
  <rect x="-452.07" y="525.5" width="22.447" height="5.931" ry="2.9655" fill="#212121" fill-rule="evenodd"/>
  <path d="m-413.87 541.38v53.379c11.58 6.573 27.851 5.4954 41.059 0v-53.918c-3.3192-4.0961-7.0583-6.6872-11.28-7.5485h-20.304c-4.5738 1.8502-7.29 4.8102-9.475 8.0877z" fill="#1de9b6" fill-rule="evenodd"/>
  <rect x="-405.21" y="525.5" width="22.447" height="5.931" ry="2.9655" fill="#212121" fill-rule="evenodd"/>
  <path d="m-412.29 539.97c-0.39624 0.53908-0.76958 1.0553-1.0712 1.4997 7.6086 3.1133 15.416 2.1631 18.603 1.5711-6.5887-0.30575-15.546-1.0875-17.532-3.0708z" fill="#0288d1" fill-rule="evenodd"/>
  <path d="m-459.43 539.97c-0.39624 0.53908-0.76959 1.0553-1.0712 1.4997 7.6086 3.1133 15.416 2.1631 18.603 1.5711-6.5886-0.30575-15.546-1.0875-17.532-3.0708z" fill="#303f9f" fill-rule="evenodd"/>
  <path d="m-186.15 800.91 8.9581 4.9967 3.5814 32.423-7.6918 11.865c-27.568 25.408-59.265 44.295-105.84 0-8.1074-9.9648-8.774-18.216-3.2318-29.894 33.645-40.914 70.446-40.813 104.23-19.391z" fill="#64ffda" fill-rule="evenodd"/>
  <path d="m-181.38 800.42c-12.427 1.0269-11.803 7.5491-9.998 14.568-1.8729 8.1234-1.9963 15.43 7.4271 18.282-0.0822 7.2236 2.7494 11.533 7.9984 13.426 4.4852-5.1886 8.081-11.86 10.284-20.853l-1.1426-13.14c-4.8561-5.371-9.7123-9.1904-14.568-12.283z" fill="#00897b" fill-rule="evenodd"/>
  <path d="m-166.52 824.84c6.8686 7.7514 12.338 11.304 17.711 14.568 4.7372-0.82364 5.5232-2.4375 6.5701-3.9992-6.1473-4.6566-14.94-5.0799-17.711-15.14l23.995-56.846-6.8557 7.4271c-8.0017 14.746-14.929 33.79-24.281 43.134z" fill="#00897b" fill-rule="evenodd"/>
  <path d="m-348.83 798.89 4.9184 7.0166 3.5814 32.423-2.8441 9.0373c-13.832 25.408-64.112 47.122-110.69 2.8279-8.1074-9.9648-8.774-18.216-3.2318-29.894 29.55-45.828 67.931-50.698 108.27-21.411z" fill="#64ffda" fill-rule="evenodd"/>
  <path d="m-348.09 800.42c-12.427 1.0269-11.803 7.5491-9.998 14.568-1.8729 8.1234-1.9963 15.43 7.4271 18.282-0.0822 7.2236 2.7494 11.533 7.9984 13.426 4.4852-5.1886 8.081-11.86 10.284-20.853l-1.1426-13.14c-4.8561-5.371-9.7123-9.1904-14.568-12.283z" fill="#00897b" fill-rule="evenodd"/>
  <path d="m-259.68 736.28 8.9581 4.9967 3.5814 32.423-7.6918 11.865c-27.568 25.408-59.265 44.295-105.84 0-8.1074-9.9648-8.774-18.216-3.2318-29.894 33.645-40.914 70.446-40.813 104.23-19.391z" fill="#64ffda" fill-rule="evenodd"/>
  <path d="m-333.24 824.84c6.8686 7.7514 12.338 11.304 17.711 14.568 4.7372-0.82364 5.5232-2.4375 6.5701-3.9992-6.1473-4.6566-14.94-5.0799-17.711-15.14l23.995-56.846-6.8557 7.4271c-8.0017 14.746-14.929 33.79-24.281 43.134z" fill="#00897b" fill-rule="evenodd"/>
  <path d="m-254.9 735.78c-12.427 1.0269-11.803 7.5491-9.998 14.568-1.8729 8.1234-1.9963 15.43 7.4271 18.282-0.0822 7.2236 2.7494 11.533 7.9984 13.426 4.4852-5.1886 8.081-11.86 10.284-20.853l-1.1426-13.14c-4.8562-5.371-9.7123-9.1904-14.568-12.283z" fill="#00897b" fill-rule="evenodd"/>
  <path d="m-240.04 760.2c6.8686 7.7514 12.338 11.304 17.711 14.568 4.7372-0.82364 5.5232-2.4375 6.5701-3.9992-6.1473-4.6566-14.94-5.0799-17.711-15.14l23.995-56.846-6.8557 7.4271c-8.0017 14.746-14.929 33.79-24.281 43.134z" fill="#00897b" fill-rule="evenodd"/>
  <ellipse cx="-265.43" cy="588.78" rx="40.378" ry="8.8192" fill="#009688" fill-rule="evenodd"/>
  <ellipse cx="-263.3" cy="540.97" rx="31.109" ry="7.4342" fill="#26a69a" fill-rule="evenodd"/>
  <path d="m-290.29 541.15c-2.8371 19.132 1.9653 33.091 10.095 44.363 13.718 4.5444 27.878 4.2339 42.357 0.40398 9.878-9.7622 14.22-28.268 10.094-44.767-19.649 5.7004-39.878 8.6424-62.547 0z" fill="#9ccc65" fill-rule="evenodd"/>
  <ellipse cx="-258.8" cy="540.97" rx="31.109" ry="7.4342" fill="#e6ee9c" fill-rule="evenodd"/>
  <ellipse cx="-282.63" cy="545.82" rx="5.2544" ry="7.4342" fill="#e6ee9c" fill-opacity=".72626" fill-rule="evenodd"/>
  <ellipse cx="-269.7" cy="545.82" rx="8.6882" ry="7.4342" fill="#e6ee9c" fill-opacity=".73184" fill-rule="evenodd"/>
  <ellipse cx="-231.78" cy="543.96" rx="2.255" ry="5.5775" fill="#e6ee9c" fill-opacity=".65922" fill-rule="evenodd"/>
  <ellipse cx="-258.95" cy="537.94" rx="14.293" ry="3.2935" fill="#4e342e" fill-rule="evenodd"/>
  <ellipse cx="-258.73" cy="537.83" rx="12.937" ry="2.4008" fill="#fff" fill-rule="evenodd"/>
  <path d="m-292.5 508.19c-0.42902 1.2064 8e-3 1.8355 0.71414 2.2852l15.283-4.142 8.4269 31.708 2.4281-0.28565-8.9982-32.993c-0.24361-0.84883-0.89944-1.3543-1.9015-1.0695z" fill="#1b5e20" fill-rule="evenodd"/>
  <rect x="-668.84" y="357.59" width="246.48" height="76.772" ry="6.8429" fill="#1de9b6" fill-rule="evenodd"/>
  <rect x="-660.27" y="367.24" width="227.19" height="57.486" ry="5.1239" fill="#e0f2f1" fill-rule="evenodd"/>
  <path d="m-648.31 419.88h27.56c-0.21492-16.316 1.1986-37.157-6.3088-48.929h-16.768c-7.1373 14.037-5.3127 32.44-4.4826 48.929z" fill="#1de9b6" fill-rule="evenodd"/>
  <path d="m-624.86 385.87 1.25 4.3678c2.6697-0.51842 5.4127 0.71855 7.8571 1.26 1.8508 7.0849 2.2441 13.888 0.53572 21.419h-9.2857l1.0714 2.8559h12.321c1.7558-8.9597 1.6355-17.919-0.89286-26.879-3.4523-2.504-8.1031-4.0415-13.214-5.2078z" fill="#1de9b6" fill-rule="evenodd"/>
  <path d="m-604.37 419.88h27.56c-0.21492-16.316 1.1986-37.157-6.3088-48.929h-16.768c-7.1373 14.037-5.3127 32.44-4.4826 48.929z" fill="#1de9b6" fill-rule="evenodd"/>
  <path d="m-580.92 385.87 1.25 4.3678c2.6697-0.51842 5.4127 0.71855 7.8571 1.26 1.8508 7.0849 2.2441 13.888 0.53572 21.419h-9.2857l1.0714 2.8559h12.321c1.7558-8.9597 1.6355-17.919-0.89286-26.879-3.4523-2.504-8.1031-4.0415-13.214-5.2078z" fill="#1de9b6" fill-rule="evenodd"/>
  <path d="m-559.42 419.88h27.56c-0.21492-16.316 1.1986-37.157-6.3088-48.929h-16.768c-7.1373 14.037-5.3127 32.44-4.4826 48.929z" fill="#1de9b6" fill-rule="evenodd"/>
  <path d="m-535.97 385.87 1.25 4.3678c2.6697-0.51842 5.4127 0.71855 7.8571 1.26 1.8508 7.0849 2.2441 13.888 0.53572 21.419h-9.2857l1.0714 2.8559h12.321c1.7558-8.9597 1.6355-17.919-0.89286-26.879-3.4523-2.504-8.1031-4.0415-13.214-5.2078z" fill="#1de9b6" fill-rule="evenodd"/>
  <path d="m-514.47 419.88h27.56c-0.21492-16.316 1.1986-37.157-6.3088-48.929h-16.768c-7.1373 14.037-5.3127 32.44-4.4826 48.929z" fill="#1de9b6" fill-rule="evenodd"/>
  <path d="m-491.02 385.87 1.25 4.3678c2.6697-0.51842 5.4127 0.71855 7.8571 1.26 1.8508 7.0849 2.2441 13.888 0.53572 21.419h-9.2857l1.0714 2.8559h12.321c1.7558-8.9597 1.6355-17.919-0.89286-26.879-3.4523-2.504-8.1031-4.0415-13.214-5.2078z" fill="#1de9b6" fill-rule="evenodd"/>
 </g>
</svg>
