<?xml version="1.0" encoding="utf-8"?>
<!-- Generator: Adobe Illustrator 22.1.0, SVG Export Plug-In . SVG Version: 6.00 Build 0)  -->
<svg version="1.1" id="Layer_1" xmlns="http://www.w3.org/2000/svg" xmlns:xlink="http://www.w3.org/1999/xlink" x="0px" y="0px"
	 viewBox="0 0 500 500" style="enable-background:new 0 0 500 500;" xml:space="preserve">
<style type="text/css">
	.st0{fill:#92E8FF;}
	.st1{fill:#2C3944;}
	.st2{fill:#54667A;}
	.st3{fill:#FAFCF1;}
	.st4{opacity:8.000000e-02;fill:#050505;}
	.st5{fill:#ACC0D1;}
	.st6{fill:#E84929;}
	.st7{fill:#4BA5A5;}
	.st8{fill:#3F4D5C;}
	.st9{fill:#5E9BA3;}
	.st10{opacity:0.16;}
	.st11{fill:#FBCA47;}
	.st12{fill:#F4AA10;}
	.st13{fill:#FFFFFF;}
	.st14{fill:#E7930F;}
</style>
<rect x="0.3" class="st0" width="500" height="500"/>
<g>
	<path class="st1" d="M301.9,359.1h-46.1h-1h-46.1c0,0-11.9,46.1-16.5,50.8h62.6h1h62.6C313.8,405.2,301.9,359.1,301.9,359.1z"/>
	<path class="st2" d="M334.7,411.6c0,2.6-1,4.8-2.3,4.8H178.1c-1.3,0-2.3-2.1-2.3-4.8l0,0c0-2.6,1-4.8,2.3-4.8h154.3
		C333.7,406.9,334.7,409,334.7,411.6L334.7,411.6z"/>
	<path class="st2" d="M413.5,343.8H97v1.7c0,15.9,12.9,28.8,28.8,28.8h259c15.9,0,28.8-12.9,28.8-28.8V343.8z"/>
	<path class="st2" d="M413.5,354.7H97V157.3c0-5.8,4.7-10.6,10.6-10.6H403c5.8,0,10.6,4.7,10.6,10.6V354.7z"/>
	<rect x="111.4" y="158.2" class="st3" width="287.7" height="183.9"/>
	<polygon class="st4" points="111.4,158.2 111.4,342.1 398.4,158.6 	"/>
	<g>
		<g>
			<path class="st5" d="M312.6,332.9H207.5v-76.8h105.1V332.9z M208.3,332.1h103.5V257H208.3V332.1z"/>
			<rect x="207.9" y="322.6" class="st5" width="104.3" height="0.8"/>
			<rect x="207.9" y="313.1" class="st5" width="104.3" height="0.8"/>
			<rect x="207.9" y="303.6" class="st5" width="104.3" height="0.8"/>
			<rect x="207.9" y="294.1" class="st5" width="104.3" height="0.8"/>
			<rect x="207.9" y="284.7" class="st5" width="104.3" height="0.8"/>
			<rect x="207.9" y="275.2" class="st5" width="104.3" height="0.8"/>
			<rect x="207.9" y="265.7" class="st5" width="104.3" height="0.8"/>
			<rect x="296.9" y="256.6" class="st5" width="0.8" height="75.9"/>
			<rect x="282" y="256.6" class="st5" width="0.8" height="75.9"/>
			<rect x="267.1" y="256.6" class="st5" width="0.8" height="75.9"/>
			<rect x="252.2" y="256.6" class="st5" width="0.8" height="75.9"/>
			<rect x="237.3" y="256.6" class="st5" width="0.8" height="75.9"/>
			<rect x="222.4" y="256.6" class="st5" width="0.8" height="75.9"/>
		</g>
	</g>
	<polygon class="st6" points="278.1,332.5 293.9,262.6 309.8,332.5 	"/>
	<polygon class="st7" points="255,332.5 270.5,282 286,332.5 	"/>
	<polygon class="st2" points="231.6,332.5 247.1,272.5 262.6,332.5 	"/>
	<polygon class="st6" points="207.9,332.5 223.4,299.6 238.9,332.5 	"/>
	<polygon class="st2" points="118.8,333.4 118.8,241.9 119.5,241.9 119.5,332.6 200.6,332.1 200.6,332.9 	"/>
	<rect x="120.2" y="310.5" class="st6" width="2.5" height="22"/>
	<rect x="122.8" y="295.7" class="st2" width="2.5" height="36.8"/>
	<rect x="125.2" y="285.3" class="st7" width="2.5" height="47.2"/>
	<rect x="127.7" y="306.4" class="st6" width="2.5" height="26.1"/>
	<rect x="130.2" y="313.6" class="st2" width="2.5" height="18.9"/>
	<rect x="132.6" y="295.2" class="st7" width="2.5" height="37.3"/>
	<rect x="135.1" y="310.5" class="st6" width="2.5" height="22"/>
	<rect x="137.6" y="290.6" class="st2" width="2.5" height="42"/>
	<rect x="140" y="317.9" class="st7" width="2.5" height="14.6"/>
	<rect x="142.6" y="293.3" class="st6" width="2.5" height="39.2"/>
	<rect x="145.1" y="305.8" class="st2" width="2.5" height="26.7"/>
	<rect x="147.5" y="321.5" class="st7" width="2.5" height="11"/>
	<rect x="150" y="310.5" class="st6" width="2.5" height="22"/>
	<rect x="152.5" y="295.7" class="st2" width="2.5" height="36.8"/>
	<rect x="154.9" y="278.8" class="st7" width="2.5" height="53.8"/>
	<rect x="157.4" y="301.3" class="st6" width="2.5" height="31.2"/>
	<rect x="159.9" y="324.3" class="st2" width="2.5" height="8.2"/>
	<rect x="162.4" y="285.3" class="st7" width="2.5" height="47.2"/>
	<rect x="164.9" y="304.4" class="st6" width="2.5" height="28.1"/>
	<rect x="167.4" y="293.3" class="st2" width="2.5" height="39.2"/>
	<rect x="169.8" y="316.9" class="st7" width="2.5" height="15.6"/>
	<rect x="172.3" y="326.3" class="st6" width="2.5" height="6.3"/>
	<rect x="174.8" y="304.4" class="st2" width="2.5" height="28.1"/>
	<rect x="177.2" y="322.5" class="st7" width="2.5" height="10"/>
	<rect x="179.7" y="316" class="st6" width="2.5" height="16.5"/>
	<rect x="182.3" y="310.5" class="st2" width="2.5" height="22"/>
	<rect x="184.7" y="319.5" class="st7" width="2.5" height="13"/>
	<rect x="187.2" y="300.2" class="st6" width="2.5" height="32.4"/>
	<rect x="189.7" y="314.1" class="st2" width="2.5" height="18.4"/>
	<rect x="192.1" y="325.2" class="st7" width="2.5" height="7.3"/>
	<path class="st8" d="M194.8,169h-70.3c-1.6,0-2.9-0.8-2.9-1.7l0,0c0-0.9,1.3-1.7,2.9-1.7h70.3c1.6,0,2.9,0.8,2.9,1.7l0,0
		C197.8,168.3,196.5,169,194.8,169z"/>
	<path class="st5" d="M160.9,175.5h-37.7c-0.9,0-1.6-0.7-1.6-1.6v-0.2c0-0.9,0.7-1.6,1.6-1.6h37.7c0.9,0,1.6,0.7,1.6,1.6v0.2
		C162.4,174.8,161.7,175.5,160.9,175.5z"/>
	<path class="st5" d="M178.9,182.1h-55.7c-0.9,0-1.7-0.8-1.7-1.7l0,0c0-0.9,0.8-1.7,1.7-1.7h55.7c0.9,0,1.7,0.8,1.7,1.7v0
		C180.6,181.4,179.9,182.1,178.9,182.1z"/>
	<path class="st8" d="M185.2,187.6h-62c-0.9,0-1.7-0.8-1.7-1.7l0,0c0-0.9,0.8-1.7,1.7-1.7h62c0.9,0,1.7,0.8,1.7,1.7l0,0
		C186.9,186.9,186.2,187.6,185.2,187.6z"/>
	<path class="st8" d="M194.8,194.7h-70.3c-1.6,0-2.9-0.8-2.9-1.7l0,0c0-0.9,1.3-1.7,2.9-1.7h70.3c1.6,0,2.9,0.8,2.9,1.7l0,0
		C197.8,193.9,196.5,194.7,194.8,194.7z"/>
	<path class="st5" d="M160.9,201.1h-37.7c-0.9,0-1.6-0.7-1.6-1.6v-0.2c0-0.9,0.7-1.6,1.6-1.6h37.7c0.9,0,1.6,0.7,1.6,1.6v0.2
		C162.4,200.4,161.7,201.1,160.9,201.1z"/>
	<path class="st5" d="M178.9,207.8h-55.7c-0.9,0-1.7-0.8-1.7-1.7l0,0c0-0.9,0.8-1.7,1.7-1.7h55.7c0.9,0,1.7,0.8,1.7,1.7v0
		C180.6,207,179.9,207.8,178.9,207.8z"/>
	<path class="st5" d="M185.3,213.3h-62.2c-0.9,0-1.6-0.7-1.6-1.6v-0.2c0-0.9,0.7-1.6,1.6-1.6h62.2c0.9,0,1.6,0.7,1.6,1.6v0.2
		C186.9,212.6,186.2,213.3,185.3,213.3z"/>
	<path class="st6" d="M130.2,217.6v11.5h11.5c0,6.3-5.1,11.3-11.4,11.3c-6.3,0-11.4-5.1-11.4-11.4
		C118.8,222.7,123.9,217.6,130.2,217.6z"/>
	<path class="st2" d="M131.7,216.1c6.3,0,11.2,5.1,11.2,11.4c0,0,0,0.1,0,0.1h-11.2V216.1z"/>
	<path class="st8" d="M164.2,220.6c-10.6,0.2-19.1,8.7-19.1,19.2c0,10.6,8.7,19.2,19.5,19.2c3.1,0,6.1-0.7,8.7-2l-9.5-17.2
		L164.2,220.6z"/>
	<path class="st2" d="M167.1,217.6l-0.7,20.7l19.9,5.7c0.6-2.1,0.9-4.3,0.8-6.6C186.7,226.6,177.9,217.9,167.1,217.6z"/>
	<polygon class="st9" points="179.4,258.7 165.7,239.6 188,247.3 	"/>
	<path class="st7" d="M188,247.3l-22.3-7.7l13.7,19.1C183.3,255.9,186.4,251.9,188,247.3z"/>
	<g>
		<g>
			<path class="st2" d="M216.1,179.1c1.7-2.5,4.1-4.3,7-5.4l0.8-0.3l-2.4-8.6l-1.4,0.4l-0.1,0c-0.1,0.1-0.3,0.1-0.4,0.2
				c-0.3,0.1-0.6,0.3-1,0.4c-3.7,1.7-6.8,4.1-9.2,7.2c-0.3,0.4-0.5,0.8-0.8,1.1c-0.1,0.2-0.2,0.3-0.3,0.4l-0.6,0.8l7.9,4.5
				L216.1,179.1z"/>
			<path class="st2" d="M225.5,173c3.1-0.5,6-0.2,8.8,1l0.8,0.3l4.5-8l-1-0.4c-0.3-0.1-0.7-0.3-1-0.4c-0.8-0.3-1.5-0.6-2.4-0.9
				c-2.8-0.9-5.7-1.2-8.6-1c-0.7,0.1-1.3,0.1-2,0.2c-0.3,0-0.6,0.1-0.9,0.1l-0.1,0l-1.4,0.4l2.4,8.6L225.5,173z"/>
			<path class="st2" d="M213.7,190.3c-0.5-3.1-0.2-6,1-8.8l0.3-0.8l-8-4.5l-0.4,1c-0.1,0.3-0.2,0.6-0.4,1c-0.3,0.7-0.6,1.5-0.8,2.3
				c-0.9,2.8-1.2,5.8-1,8.7c0.1,0.7,0.1,1.3,0.2,2c0,0.3,0.1,0.6,0.1,0.9l0,0.1l0.4,1.4l8.6-2.4L213.7,190.3z"/>
			<path class="st2" d="M219.8,199.7c-2.5-1.7-4.3-4.1-5.4-7l-0.3-0.8l-8.6,2.4l0.4,1.4l0,0.1c0.1,0.1,0.1,0.3,0.2,0.4
				c0.1,0.3,0.3,0.6,0.4,1c1.7,3.7,4.1,6.8,7.2,9.2c0.4,0.3,0.7,0.5,1.1,0.8c0.2,0.1,0.3,0.2,0.4,0.3l0.8,0.6l4.5-7.9L219.8,199.7z"
				/>
			<path class="st2" d="M236.6,175.4c2.5,1.7,4.3,4.1,5.5,7l0.3,0.8l8.7-2.4l-0.3-0.9c-0.9-2.6-2.2-4.9-3.8-6.9
				c-1.6-2-3.5-3.8-5.8-5.3l-0.8-0.5l-4.4,7.9L236.6,175.4z"/>
			<path class="st2" d="M251.5,182.5l-0.2-1l-8.7,2.4l0.1,0.8c0.5,3,0.2,6-1.1,8.8l-0.3,0.8l7.9,4.4l0.4-0.9c1.2-2.4,1.9-5,2.2-7.5
				C252.2,187.8,252.1,185.2,251.5,182.5z"/>
			<path class="st2" d="M230.9,202.1c-3,0.5-6,0.2-8.8-1.1l-0.8-0.3l-4.4,7.9l0.9,0.4c2.4,1.2,5,1.9,7.5,2.2
				c2.6,0.3,5.2,0.2,7.9-0.4l1-0.2l-2.4-8.7L230.9,202.1z"/>
			<path class="st2" d="M240.4,196c-0.8,1.2-1.8,2.3-3,3.2c-1.2,0.9-2.5,1.6-3.9,2.2l-0.8,0.3l2.4,8.7l0.9-0.3
				c5.1-1.8,9.2-5,12.2-9.5l0.5-0.8l-7.9-4.4L240.4,196z"/>
		</g>
	</g>
	<g class="st10">
		<path d="M391.1,179.2c0.3-0.2,0.5-0.4,0.8-0.5c0-0.4-0.5-0.8,0.1-0.9c0.3,0.4,0.6,0.7,0.9,0.9c0.5,0.3,1.1,0.6,1.7,0.8
			c0.2,0.1,0.4,0.1,0.5,0c0.1,0,0.1-0.3,0.1-0.5c0-0.1-0.1-0.3-0.3-0.4c0.5-0.2,1.1-0.2,0.8-0.9c-0.7-0.1-1.4-0.2-2.2-0.2
			c-1.9-1.3-4.1-2.4-6.7-2.5c-0.1,0.2-0.2,0.5-0.3,0.6c-1.1,0-2.1-0.9-3.2,0.2c-0.3-0.2-0.5-0.5-0.8-0.7c-0.5-0.6-1.1-0.8-1.7-0.6
			c-1.1,0.4-1.7-0.2-2.5-0.6c-0.3-0.1-0.7-0.4-1-0.3c-0.9,0.3-1.5-0.3-2.3-0.6c-0.5,0.1-0.9,0.4-0.5,1.2c-1-0.1-1.9-0.2-2.9-0.2
			c-0.2,0.5-0.7,0.5-2-0.2c0.2-0.2,0.3-0.3,0.5-0.4c-0.6-1.1-1.7-1.1-2.4,0c-1.9-1-4-1.2-6.1-0.3c0.4-0.4,1-0.5,1.4-0.9
			c0.3-0.3,0.7-0.7,0.7-1.2c0-0.5-1.6-1.2-2-1c-0.7,0.5-1,0.1-1.4-0.4c-0.5-0.6-1.1-0.4-1.4,0.4c-0.1,0.2-0.1,0.5-0.2,0.7
			c-0.7,0-1.4-0.1-2.1,0c-0.8,0.1-1.7,0.4-2.5,0.7c-0.1,0-0.1,0.1-0.2,0.1c-0.3,0.2-0.5,0.4-0.1,0.6c0.1,0.1,0.3,0.1,0.4,0.1
			c-0.1,0.1-0.1,0.2-0.2,0.3c-0.5,0-0.9-0.1-1.4,0c-0.3,0-0.6,0.3-0.6,0.5c0,0.2,0.3,0.5,0.4,0.7c0.2,0.3,0.5,0.6,0.8,0.9
			c-0.6-0.2-1.1-0.6-1.6-0.9c-0.1-0.1-0.4-0.1-0.5,0c-0.1,0.1-0.2,0.3-0.2,0.5c0,0.1,0.1,0.3,0.1,0.4c-0.1,0-0.2,0.1-0.3,0.1
			c-0.3-0.5-0.7-1-1-1.6c-0.2,0.4,0,2.5,0.3,2.7c0.1,0.1,0.3,0,0.5,0.1c0.3,0.1,0.7,0.1,0.9,0.3c0.3,0.2,0.4,0.6,0.6,1
			c-0.1-0.1-0.2-0.1-0.3-0.1c-1.1-1-1.1-1-1.7,0.3c0,0,0,0.1-0.1,0.1c-0.3,0.6-0.7,0.7-1.4,0.3c0.3-0.1,0.5-0.2,0.6-0.3
			c0.2-0.3,0.5-0.6,0.5-0.9c-0.2-1.1-0.6-2.3-0.9-3.4c-0.1-0.2-0.5-0.6-0.6-0.5c-0.3,0.1-0.5,0.4-0.6,0.6c-0.2,0.3-0.3,0.6-0.4,1
			c-0.1,0.3-0.2,0.6-0.1,0.9c0.1,0.4,0.4,0.6,0.6,1c0.1,0.2,0.1,0.4,0.1,0.5c-0.1,0-0.1,0.1-0.2,0.1c-0.8-1-1.7-1.5-2.9-1.2
			c0,0.4,0,0.7,0.1,1c-0.1,0-0.1,0-0.2,0c-0.1-0.2-0.3-0.4-0.3-0.5c-0.7,0.2-1.3,0.6-1.8,0.5c-0.9-0.3-1.4,0.2-1.9,0.6
			c-0.3,0.2-0.5,0.4-0.8,0.6c-0.2-0.7-0.2-1.5-1.3-1.2c0.2,0.6,0.4,1.1,0.6,1.7c-0.2-0.1-0.3-0.2-0.4-0.1c-0.4,0.1-0.9,0.2-1.3,0.4
			c0.1,0.2,0.2,0.4,0.2,0.6c0,0.1-0.1,0.3-0.1,0.2c-0.4-0.2-0.8-0.5-1-0.5c-0.8,0.3,0.2,0.6,0.1,0.9c-0.8-0.4-1.1-1-1-1.8
			c0.3,0.1,0.7,0.2,1,0.2c0.4-0.1,0.7-0.4,1.1-0.7c-0.2-0.3-0.4-0.6-0.7-0.7c-0.9-0.5-1.8-0.9-2.8-1.3c-0.1-0.1-0.3-0.1-0.3-0.2
			c-0.1-1-0.7-0.5-1.1-0.4c-0.3-0.1-0.7-0.2-1.1-0.2c-0.1,0-0.1,0.4-0.2,0.6c-0.5-0.2-0.9-0.6-1.4,0c0.1,0.2,0.2,0.3,0.4,0.7
			c-0.6,0.3-1.1,0.7-1.7,0.8c-1,0.2-1.4,0.9-1.8,1.6c-0.5,1-1.1,1.8-2.2,2.2c-0.7,0.2-1.1,0.8-0.9,1.4c0.2,0.6,0.5,1.3,0.7,2
			c0.4-0.2,0.8-0.3,1.1-0.5c0.4-0.2,0.8-0.1,1,0.3c0.2,0.4,0.4,0.8,0.5,1.2c0.3,0.7,0.4,0.8,0.9,0.2c0.4-0.4,0.5-1.1,0.9-1.5
			c0.7-0.6,0.7-1.1,0.1-1.7c-0.5-0.6-0.3-1.2,0.5-1.6c0.4-0.2,0.6-0.6,0.9-1c0.2-0.2,0.3-0.7,0.5-0.7c0.3,0,0.7,0.2,1,0.3
			c-0.3,0.3-0.5,0.5-0.7,0.7c-0.1,0.1-0.2,0.3-0.4,0.4c-0.7,0.4-0.8,1.1-0.4,1.9c0.3,0.6,0.9,0.7,1.7,0.3c0.5-0.2,0.6-0.2,0.8,0.5
			c-0.8-0.3-1.3-0.2-1.7,0.6c0.2,0.2,0.3,0.4,0.5,0.6c0,0.1-0.1,0.2-0.1,0.2c-0.3-0.1-0.6-0.3-1-0.5c0,0.3,0,0.5-0.1,0.7
			c-0.2,0.6-0.2,1.6-0.8,1.5c-1-0.2-1.7,0.5-2.5,0.4c-0.7,0-1.1-0.4-1-1.1c0-0.1,0.2-0.3,0.2-0.4c0.1-0.4-0.2-1-0.4-1
			c-0.2,0.3-0.3,0.7-0.4,0.7c-0.6,0.2-0.5,0.5-0.2,0.9c0.2,0.3,0.3,0.6,0.5,0.9c-0.8,0.5-2,0.2-2,1.6c-1.1-0.4-1.2,1.7-2.1,1
			c-0.6,0.3-1,0.6-1.6,0.9c1.7,0.5,1.6,1.5,1.2,2.8c-0.7-0.1-1.4-0.3-2.1-0.3c-0.5-0.1-0.9,0.3-0.8,0.7c0.1,0.7,0.2,1.4-0.3,1.9
			c-0.1,0.1-0.1,0.3,0,0.4c0.4,0.3,0.3,1.3,1.2,0.9c0,0,0.2,0.1,0.3,0.2c0.2,0.2,1.9,0.2,2.1-0.1c0.2-0.4,0.4-0.7,0.6-1.1
			c0.1-0.3,0.1-0.6,0.3-0.8c0.4-0.5,0.9-1,1.5-1.7c0.6,0.4,1.4,0,2-0.4c0.5,0.6,0.9,1.1,1.4,1.5c0.7,0.5,1.5,0.9,1.3,1.9
			c0.1,0,0.2,0,0.3,0c0.1-0.3,0.2-0.7,0.3-1.1c0.2,0,0.4,0.1,0.8,0.2c-0.3-0.3-0.4-0.5-0.5-0.6c-0.6-0.8-1.8-1-2.2-2.1
			c-0.2-0.4-0.2-0.6,0.2-0.9c0.1,0.1,0.2,0.2,0.3,0.2c0.4,0.5,0.8,0.9,1.2,1.4c0.3,0.3,0.7,0.5,0.9,0.8c0.4,0.7,0.7,1.4,1,2.1
			c0.1,0.2,0.3,0.3,0.4,0.3c0.1,0,0.2-0.2,0.4-0.3c0.1-0.1,0.3-0.2,0.5-0.4c-0.2-0.2-0.5-0.3-0.7-0.5c0.4-0.9,1.3-0.7,2-0.9
			c-0.8,1.4-0.7,1.8,0.9,2.7c0.2-0.1,0.4-0.2,0.5-0.3c0.3,0.1,0.6,0.3,0.8,0.3c0.3,0,0.6,0,1,0c0.1,0.3,0.2,0.5,0.1,0.7
			c-0.2,0.6-0.4,1.3-0.7,1.8c-0.1,0.2-0.7,0-1.1,0c-0.3,0-0.6,0.2-0.9,0.3c-0.1-0.1-0.4-0.4-0.6-0.3c-0.8,0.1-1.3-0.4-1.9-0.7
			c-0.6-0.3-0.9-0.2-1.2,0.3c-0.2,0.2-0.2,0.6-0.3,1c-0.3-0.2-0.6-0.3-0.9-0.5c-0.5-0.2-1-0.5-1.6-0.7c-0.4-0.2-0.9-0.4-1.4-0.6
			c0.1-0.1,0.2-0.1,0.3-0.2c0-0.5,0.2-1,0-1.4c-0.2-0.4-0.7-0.5-1.1-0.2c-0.1,0-0.2,0-0.3,0c-1.3-0.3-2.7,0.1-3.7,0.7
			c-0.8,0.4-1.2,0.3-1.8,0c-0.3,0.4-0.5,1-0.9,1.1c-0.7,0.2-0.8,0.7-0.9,1.3c-0.1,0.4-0.3,0.8-0.5,1.1c-0.3,0.3-0.8,0.4-1,0.7
			c-0.4,0.6-0.8,1.3-1,2c-0.2,0.8-0.4,1.8-0.2,2.6c0.1,0.8,0.1,1.5-0.7,2c0.4,0.3,0.9,0.5,0.5,1.1c0,0.1,0.1,0.3,0.2,0.4
			c0.1,0.1,0.3,0.2,0.4,0.4c0.9,1.1,1.7,2.3,2.7,3.4c0.1,0.2,0.6,0.1,0.9,0.1c0.4-0.1,0.8-0.4,1.2-0.4c0.9,0.1,1.6-0.1,2.4-0.5
			c0.3-0.2,0.6-0.2,0.9-0.2c0.2,0,0.5,0.2,0.5,0.3c0.1,0.8,0.7,0.8,1.2,1c0.3,0.1,0.6,0.2,0.8,0.3c0,0.6,0.1,1.3-0.1,1.6
			c-0.5,0.7-0.1,1.1,0.3,1.5c0.3,0.3,0.8,0.7,0.9,1.1c0.3,1.1,0.4,2.2,0.7,3.4c-0.1,0.3-0.4,0.7-0.6,1.1c-0.5,0.8-0.4,1.6,0,2.4
			c0.4,0.7,0.9,1.6,0.9,2.3c0,1.3,0.7,2.2,1.1,3.3c0.1,0.4,0.5,0.9,0.4,1.2c-0.1,0.6,0.2,0.9,0.5,1.1c0.3,0.1,0.7,0,1,0
			c0.3,0,0.7-0.1,1-0.2c0.6-0.2,1.3-0.4,1.9-0.7c0.3-0.1,0.5-0.5,0.7-0.8c0.2-0.3,0.4-0.5,0.5-0.8c0.1-0.2,0.1-0.4,0.2-0.5
			c0.6-0.2,0.5-0.7,0.6-1.2c0-0.2,0.2-0.6,0.3-0.6c1-0.2,0.8-0.9,0.7-1.6c-0.1-0.5-0.4-1.1,0.2-1.5c0.4-0.3,0.7-0.8,1.1-1.1
			c1.5-0.9,1.2-1.2,1.1-2.3c-0.2-1.1-0.6-2.2-0.5-3.2c0-1.4,0.9-2.4,1.8-3.3c0.7-0.8,1.6-1.5,2.2-2.4c0.5-0.8,0.8-1.9,1.2-2.8
			c-0.2-0.2-0.3-0.4-0.5-0.6c-0.3,0.2-0.5,0.3-0.8,0.4c-0.3,0.1-0.5,0.3-0.8,0.4c-0.6,0.2-1.8-0.3-2-0.8c-0.5-1-1.1-2-1.7-3
			c-0.4-0.8-0.9-1.6-1.3-2.4c0,0,0-0.1,0-0.2c0.4-0.9-0.3-1.3-0.7-1.9c-0.3-0.4-0.5-0.9-0.8-1.4c0.5,0.3,0.8,0.5,1.1,0.7
			c0.2,0.1,0.3,0.3,0.4,0.5c0.1,0.2,0.3,0.5,0.4,0.7c0.3,0.5,0.6,1.1,0.9,1.6c0.2,0.3,0.3,0.7,0.5,1c0.7,1,1.6,2,1.4,3.4
			c0,0.2,0.2,0.5,0.5,0.6c0.1,0.1,0.4-0.2,0.6-0.3c0.4-0.2,0.8-0.4,1.2-0.5c0.2-0.1,0.4-0.1,0.5-0.1c0.5-0.3,1.1-0.6,1.6-0.9
			c1.4-0.9,1.5-0.8,2.2-2.1c0-0.1,0.1-0.1,0.2-0.2c0.6-0.6,0.4-1.3-0.3-1.6c-0.4-0.2-0.7-0.5-1.1-0.8c0,0-0.1,0.2-0.2,0.3
			c-0.3,0.2-0.7,0.5-1,0.5c-0.3,0-0.8-0.2-0.6-0.8c0-0.1-0.3-0.3-0.4-0.4c-0.5-0.5-1.1-1-1.3-1.8c0.4,0,0.7,0.1,1,0.1
			c0,0-0.1,0.1-0.1,0.1c0.4,0.4,0.8,0.9,1.2,1.3c0.6,0.5,1.2,0.4,1.7-0.1c0.4,1.1,1.7,1.5,2.4,0.9c0.7,0.1,1.2,0.2,1.8,0.3
			c0.1,0.1,0.3,0.3,0.5,0.5c0.2,0.2,0.6,0.4,0.7,0.7c0.5,1,0.7,1.1,1.6,0.6c0,0.2,0.1,0.4,0.1,0.6c-0.1,1.1,0.2,2.1,0.8,3.1
			c0.5,0.8,0.7,1.7,1,2.5c0.1,0.2,0.2,0.4,0.3,0.6c0.2-0.1,0.5-0.2,0.6-0.4c0.6-0.7,0.5-1.6,0.4-2.5c0-0.3-0.1-0.6,0.1-0.8
			c0.6-0.6,1.2-1.1,1.8-1.7c0.3-0.3,0.9-0.6,0.9-0.9c0.1-0.8,0.6-0.8,1-0.7c0.3-0.3,0.5-0.6,0.6-0.8c0.3,0.5,0.4,0.9,0.7,1.3
			c0.5,0.6,1,1.2,0.9,2.1c-0.1,0.4,0.3,0.6,0.7,0.3c0.1-0.1,0.2-0.4,0.3-0.5c0.1,0,0.2,0.1,0.2,0.1c0.1,0.2,0.2,0.5,0.1,0.7
			c-0.2,1,0.4,1.7,0.6,2.6c0.1,0.3,0.6,0.6,0.6,1c-0.1,1.2,0.3,2.3,1,3.3c0.4,0.1,0.7,0.2,1.1,0.3c0.2-1.1,0.2-2-0.6-2.7
			c-0.5-0.5-1.1-1-1.2-1.8c0-0.3,0-0.7,0-1c0,0,0.4-0.1,0.4-0.1c0.2,0.3,0.3,0.6,0.5,0.9c0,0,0.1,0.1,0.1,0.2c1.4-0.5,0.5,0.9,1,1.3
			c0.6-0.7,1.6-1,1.7-2.2c0.1-1-0.2-1.7-1-2.3c-0.8-0.7-0.8-1.1-0.1-1.8c0.2-0.2,0.3-0.4,0.5-0.7c0.1,0.3,0.2,0.5,0.4,0.8
			c0.7-0.7,1.4-1.3,2.4-1c0.2,0,0.5-0.1,0.6-0.3c0.6-0.8,1.3-1.5,1.7-2.5c0.1-0.2,0.3-0.4,0.3-0.5c-0.3-0.8-0.1-1.8-0.8-2.5
			c-0.3-0.3-0.5-0.8-0.5-1.2c0-0.2,0.5-0.4,0.8-0.6c0.1-0.1,0.2-0.4,0.2-0.4c-0.2-0.2-0.4-0.4-0.6-0.4c-0.2,0-0.3,0.2-0.5,0.3
			c-0.2,0-0.5,0-0.7-0.1c-0.1-0.1-0.2-0.5-0.1-0.6c0.3-0.4,0.7-0.7,1.1-1c0.1,0.4,0.1,0.7,0.2,1.1c0.5-0.2,1.1-0.4,1.6-0.5
			c0,0.1,0.1,0.2,0.1,0.2c-0.1,0.2-0.2,0.4-0.4,0.6c0.8,0.3,1.1,1,1.2,1.7c0.1,0.5,0.3,0.8,0.8,0.5c0.6-0.3,0.6-0.9,0.3-1.4
			c-0.3-0.6-0.8-1.1-1.1-1.5c0.2-0.4,0.6-0.8,0.7-1.2c0.1-0.6,0.4-0.7,0.9-0.7c0.3,0,0.8-0.1,1-0.4c1.3-1.5,1.6-3.4,1.3-5.3
			c-0.2-1-0.9-1.2-1.6-0.7c-0.3-0.3-0.7-0.6-1-0.8c0.3-0.5,0.7-0.9,0.9-1.4c0.7-1.3,1.2-1.5,2.6-1.3c0.4,0.1,0.8,0.2,1.1-0.3
			c0-0.1,0.5,0.1,0.8,0.1c0.2,0.1,0.5,0.3,0.7,0.2c0.2-0.1,0.4-0.3,0.5-0.5c0.1-0.2,0-0.4,0.1-0.6c0.1-0.3,0.3-0.7,0.6-0.7
			c0.3,0,0.7,0.2,1,0.3c0.1,0.1,0.2,0.2,0.4,0.3c0.2-0.3,0.4-0.6,0.6-0.8c0.5,0.5,0.2,0.8-0.1,1.2c-0.5,0.7-1.2,1.4-1.4,2.2
			c-0.4,1.2,0.5,2.2,1,3.2c0,0.1,0.2,0.2,0.4,0.3c0.2-0.3,0.3-0.6,0.5-0.9c0.2-0.4,0.3-0.8,0.5-1.1c0.5-0.6,0.5-1.5,0-2
			c-0.4-0.4-0.4-0.9,0-1.3c1-0.8,1.5-0.8,2.4-0.1c0.4-0.4,0.2-1.3,1-1.4c0.5-0.1,1.1-0.3,1.8-0.5
			C392.6,179.8,391.5,179.8,391.1,179.2z M339.5,193.5c0,0.1-0.4,0.4-0.6,0.4c-0.5,0-1.1,0-1.5-0.3c-0.5-0.4-0.9-0.4-1.5-0.2
			c-0.7,0.2-1.4,0.2-2.2,0.3c-0.2-1,0.1-1.5,0.8-2c0.2-0.1,0.2-0.4,0.3-0.7c0.1-0.2,0.2-0.4,0.3-0.7c0.3,0.4,0.5,0.7,0.8,1.1
			c-0.2,0.1-0.5,0.3-0.7,0.4c0,0.1,0.1,0.2,0.1,0.3c0.6-0.1,1.1-0.2,1.7-0.3c0-0.1,0-0.2,0-0.2c-0.2-0.1-0.5-0.2-0.7-0.3
			c0-0.1,0-0.1-0.1-0.2c0.6-0.3,1.2-0.5,1.7-0.8c0,0,0.1,0.1,0.1,0.1c-0.3,0.3-0.6,0.6-0.9,1c0.7,0.5,1.3,0.9,1.9,1.3
			C339.4,192.9,339.6,193.3,339.5,193.5z M344.8,194c-0.2-0.1-0.3-0.2-0.6-0.4c0.2,0.7,0.4,1.3,0.5,1.9c0.1,0.5-0.4,1-0.9,0.9
			c-0.9-0.2-1.3-1.1-0.8-1.9c0.1-0.1,0.2-0.1,0.3-0.2c-0.9-0.8-1.9-1.6-1.5-2.7c0.3-1,1.3-1.4,2.4-1.1c0,0.2,0,0.4-0.1,0.5
			c-0.4,0.3-0.7,0.5-0.9,0.9c-0.1,0.1,0.1,0.5,0.3,0.8c0.2,0.2,0.4,0.3,0.7,0.5c0,0,0.2-0.1,0.4-0.1c0.1,0.3,0.2,0.5,0.3,0.8
			C344.9,193.9,344.8,194,344.8,194z M347.3,192.1c0.2-0.5,0.4-1,0.6-1.5c0,0,0.6,0.1,0.6,0.2c0.1,0.5,0.1,1.1,0.2,1.8
			C348.2,192.4,347.8,192.3,347.3,192.1z"/>
		<path d="M366.4,214C366.4,214,366.4,214,366.4,214C366.4,214,366.4,214,366.4,214L366.4,214z"/>
		<path d="M306.7,217.1c-0.3-0.2-0.6-0.4-0.9-0.5c-0.7-0.2-1.6,0-2.1-0.8c-0.1-0.1-0.4-0.2-0.6-0.2c-0.4,0-0.9,0.3-1.3-0.2
			c0,0-0.4,0.1-0.5,0.2c-0.1,0.1-0.1,0.1-0.2,0.2c0,0-0.1,0-0.1-0.1c0.7-1.2,0.6-1.5-0.5-2.8c-0.6-0.7-1.3-0.9-1.9-0.5
			c0,0,0,0-0.1,0c-0.7-0.7-1.4-1.5-2.1-2.3c0,0,0,0,0-0.1c0,0,0.1-0.1,0.1-0.1c0,0,0-0.1,0-0.1c-0.3,0-0.6-0.1-0.8,0
			c-1,0.5-1.7,0.1-2.5-0.5c-0.3-0.3-1-0.5-1.3-0.3c-0.8,0.5-1.6,1-1.8,1.9c0,0,0,0-0.1,0c-0.5-0.2-1-0.6-1.4-0.5
			c-1,0.2-1.6-0.2-1.5-1.2c0-0.5,0.2-1,0.3-1.7c0,0,0,0,0-0.1c-0.6-0.1-1.1-0.2-1.8-0.4c0,0,0,0,0-0.1c0.1-0.5,0.3-1.2,0.4-1.8
			c0-0.3-0.1-0.5-0.1-0.8c0,0,0,0-0.1,0c-0.4,0.1-0.8,0.2-1.2,0.3c-0.1,0-0.2,0.3-0.2,0.5c-0.4,0.8-2,1-2.4,0.2
			c-0.3-0.7-0.5-1.6-0.5-2.3c0-1.3,1-2.1,1.8-3c0,0,0,0,0.1,0c0.2,0.1,0.3,0.2,0.5,0.3c0,0,0,0,0.1,0c0.1-0.2,0.2-0.3,0.3-0.5
			c0,0,0.1,0,0.1,0c0.1,0.7,0.5,0.7,0.9,0.6c0,0,0,0,0,0c0.1-0.3,0.1-0.5,0.2-0.6c0.5-0.4,2.3,0,2.5,0.6c0.1,0.1,0,0.3,0,0.5
			c0,0.8,0.3,1.5,1.3,2c0,0,0.1,0,0.1,0c-0.1-0.9-0.2-1.6-0.3-2.3c-0.3-1.7,0-2.4,1.5-3.1c1-0.4,1.1-0.8,0.8-1.6c0,0,0,0,0,0
			c0.4-0.6,0.6-1.2,1.1-1.6c0.4-0.4,1.1-0.6,1.6-0.9c0,0,0,0,0-0.1c-0.4-0.5-0.1-0.8,0.4-1.1c0.6-0.3,1.1-0.8,1.6-1.2
			c0.2-0.2,0.5-0.3,0.8-0.5c0,0,0,0,0.1,0l0.1,0.2c0,0,0,0,0,0.1c-0.3,0.2-0.7,0.5-1,0.8c-0.1,0.1-0.2,0.3-0.2,0.5
			c0,0.1,0.3,0.2,0.4,0.2c0.6-0.4,1.3-0.8,2.1-1.4c0,0,0-0.1,0-0.1c-0.4-0.2-0.8-0.2-1-0.4c-0.3-0.2-0.4-0.5-0.6-0.8
			c-0.1-0.1,0-0.3,0-0.5c0,0,0,0,0,0c-0.3,0-0.5,0-0.7,0.1c-0.3,0.1-0.5,0.3-0.8,0.5c0,0-0.1,0-0.1,0l-0.1-0.1c0,0,0,0,0-0.1
			c0.6-0.4,1.1-1,2-0.9c0.8,0.1,1.7,0.3,2.4-0.5c0.1-0.1,0.2-0.1,0.4-0.1c0.8-0.1,0.9-0.3,0.8-1.2c-0.1-0.7-0.5-0.4-1-0.3
			c0,0-0.1,0-0.1-0.1c0.1-0.2,0.2-0.4,0.4-0.6c0,0,0-0.1,0-0.1c-0.5-0.2-1-0.4-1.2-0.9c-0.1-0.2,0.1-0.6,0-0.8
			c-0.3-0.5-0.6-1.1-1-1.6c0,0-0.1,0-0.1,0c-0.5,0.6-0.7,1.6-1.7,1c-0.3-0.2-0.1-1-0.2-1.7c0,0,0,0,0,0c-0.6-0.6-1.6-1-2.7-1.1
			c0,0,0,0,0,0c-0.4,0.4-0.6,0.9-0.4,1.5c0.1,0.3,0,0.7-0.1,0.8c-0.6,0.4-0.3,0.8-0.3,1.2c0.1,0.4,0.2,1.1,0,1.2
			c-0.8,0.4-0.7,1.1-0.7,1.8c0.1,0.8-0.5,0.8-0.9,0.9c0,0,0,0-0.1,0c-0.1-0.4-0.3-0.7-0.4-1.1c0-0.3,0-0.6,0.1-0.9
			c0-0.1-0.1-0.2-0.2-0.1l0,0c0,0,0,0,0,0c-0.6-0.3-1.2-0.7-1.8-1c-0.3-0.2-0.7-0.3-1-0.5c-0.2-0.1-0.5-0.2-0.7-0.4
			c-0.2-0.3-0.4-0.7-0.5-1c0,0,0,0,0,0c0.2-1.5,1.7-2,2.6-3c0,0,0.1,0,0.1,0c0.7,0,0.8-0.4,0.8-1c0,0,0,0,0,0
			c-0.2-0.1-0.3-0.2-0.5-0.3c0,0,0-0.1,0-0.1c0.5,0.1,1,0.4,1.2-0.5c0,0,0.3,0,0.5,0c0.4,0,0.8,0.1,1.1-0.1c0.2-0.1,0.2-0.5,0.2-0.8
			c0-0.2,0-0.4,0.1-0.5c0.4-0.5,0.1-0.8-0.3-0.9c-0.4-0.2-0.7-0.3-1,0.3c-0.2,0.5-0.5,0.9-0.9,1.5c0,0-0.1,0-0.1,0
			c-0.1-0.6-0.1-1-0.2-1.5c0,0-0.1-0.1-0.1,0c-0.2,0.3-0.4,0.4-0.6,0.6c0,0-0.1,0-0.1,0c-0.1-0.5-0.3-1-0.4-1.4
			c-0.1-0.3-0.2-0.6-0.4-0.7c-0.2-0.1-0.5,0.1-0.7,0.2c-0.2,0.2-0.3,0.4-0.5,0.6c-0.1,0.1-0.1,0.3,0,0.4c0.7,0.6,0.7,0.9,0,1.3
			c0,0,0,0,0,0c-0.5-0.1-1-0.2-1.2-0.1c-1,0.6-1.6,0.6-2.6,0c-0.2-0.1-0.5,0-0.7,0.1c-0.2,0.2-0.2,0.5-0.3,0.8c0,0,0,0-0.1,0
			c-0.6-0.1-0.9-1.3-1.9-0.4c0,0-0.1,0-0.1,0c0.2-0.8-0.2-0.9-0.7-1c-0.7-0.1-1.4-0.3-2-0.5c-0.2,0-0.3-0.1-0.5-0.1
			c-0.8,0.2-1.5,0.3-1.9-0.5c0,0,0,0-0.1,0c-0.4,0.3-0.7,0.6-1.1,0.9c0,0,0,0-0.1,0c0,0-0.1-0.1-0.1-0.1c0,0,0,0,0-0.1
			c0.2-0.1,0.3-0.2,0.5-0.4c0,0,0-0.1,0-0.1c-0.7-0.2-1.5,0.3-1.9,1.2c0,0,0,0-0.1,0c-0.9-0.2-1.8-0.3-2.5-0.8
			c-0.9-0.6-1.9-0.1-2.8-0.4c-0.4-0.2-1,0-1.3-0.6c0,0-0.1,0-0.1,0c-0.5,0.5-0.9,0.7-1.2-0.1c0,0,0,0-0.1,0
			c-0.3,0.1-0.6,0.2-0.9,0.3c-0.6,0.2-1.2,0.4-1.8,0.6c-0.1,0-0.1,0.2-0.2,0.3c-0.1,0.6-0.5,0.6-1,0.7c-0.3,0-0.5,0.2-0.8,0.3
			c0,0,0,0,0,0.1c0.2,0.2,0.4,0.6,0.6,0.7c0.4,0.2,0.8,0.3,1.3,0.4c0,0,0,0.1,0,0.1c-1.1,0.4-2.3-0.3-3.1,0.6c0,0,0,0,0,0.1
			c0.3,0.3,0.5,0.8,0.8,0.9c0.4,0.1,0.8-0.1,1.3-0.2c0,0,0.1,0,0,0.1c-0.2,0.3-0.4,0.5-0.7,0.6c-0.4,0.2-0.8,0.2-1.1,0.4
			c-0.3,0.2-0.5,0.6-0.8,1c0,0,0,0,0,0.1c0.1,0.1,0.3,0.3,0.3,0.4c0,0.8,0,0.9,0.7,0.6c0,0,0.1,0,0.1,0.1c-0.1,0.3-0.1,0.6-0.2,0.9
			c0,0,0,0.1,0,0.1c0.5,0,1-0.1,1.4-0.1c0.1,0.1,0.1,0.2,0.2,0.3c-0.8,1.3-2.5,1.4-3.6,2.4c0,0,0,0.1,0,0.1c0.4,0.1,0.8,0.2,1.1,0.1
			c0.9-0.4,1.7-0.9,2.5-1.4c0.5-0.3,0.9-0.6,1.3-0.9c0,0,0,0,0,0c0.4-0.6,0.9-1.3,1.3-1.9c0.2-0.4,0.5-0.6,0.9-0.3c0,0,0,0,0,0.1
			c-0.4,0.4-0.8,0.8-1.1,1.2c0,0,0,0,0,0.1c0,0.1,0.1,0.1,0.1,0.2c0,0,0,0,0,0c0.2,0,0.5,0.1,0.7,0c0.4-0.3,0.8-0.7,1.1-1.2
			c0.2-0.4,0.4-0.4,0.7-0.1c0.2,0.2,0.6,0.6,0.8,0.5c0.7-0.1,1,0.3,1.5,0.6c0.3,0.2,0.6,0.7,1.2,0.6c0.1,0,0.6,0.1,0.7,0.6
			c0,0.3,0.5,0.6,0.8,0.9c0,0,0,0.1,0,0.1l0,0c0,0,0,0,0,0.1c0.4,1,0.8,1.9,1.2,2.9c0,0,0,0,0,0c-0.1,0.3-0.1,0.7,0,0.9
			c0.6,0.8,0.4,1.5,0.1,2.3c-0.3,1-0.5,2.1-0.6,3.1c0,0.2,0.1,0.5,0.2,0.7c0.2,0.4,0.3,0.8,0.5,1.1c0,0,0,0,0,0.1c0,0-0.1,0-0.1,0.1
			c0,0,0,0.1,0,0.1c0.5,0.5,1.1,1,1.6,1.5c0,0,0,0,0,0c0.1,0.5,0.1,1.2,0.5,1.6c0.3,0.5,0.7,0.9,0.2,1.4c0,0,0,0.1,0,0.1
			c0.7,0.4,1.3,0.7,1.3,1.6c0,0.3,0.5,0.6,0.8,0.9c0,0,0.1,0,0.1,0c0.1-1.8-1.5-2.8-1.7-4.4c0,0,0-0.1,0.1,0
			c0.3,0.2,0.7,0.5,0.8,0.8c0.3,1.2,1.1,2.1,1.8,3.1c0.3,0.5,0.4,1.1,0.6,1.6c0.1,0.2,0.1,0.5,0.2,0.6c0.7,0.5,1.3,1,2,1.4
			c0.6,0.4,1.2,0.8,2.1,0.5c0.2-0.1,0.6,0.2,1,0.4c0.4,0.2,0.8,0.4,1.1,0.6c0.4,0.3,0.8,0.6,1.2,0.9c0.5,0.5,0.3,1.5,1.3,1.5
			c0.1,0,0.1,0.3,0.2,0.3c0.4,0.2,0.9,0.4,1.3,0.5c0.1,0,0.3-0.3,0.5-0.5c0,0,0,0,0.1,0c0.7,0.5,0.8,1.3,0.8,2.1
			c0,0.2-0.2,0.6-0.4,0.7c-1,0.8-1.4,1.9-0.9,2.9c0,0,0,0,0,0.1c-0.7,0.5-0.7,0.9,0,1.5c0.1,0.1,0.1,0.2,0.1,0.3
			c0.3,0.6,0.5,1.1,0.8,1.7c0.6,1.4,1.1,2.9,2.7,3.5c0.3,0.1,0.6,0.5,0.7,0.8c0.2,1.1,0.3,2.3,0.3,3.4c-0.1,1-0.4,2-0.6,3.1
			c-0.1,0.3-0.1,0.6,0,0.8c0.4,0.8,0.2,1.5-0.1,2.2c-0.1,0.3-0.2,0.7-0.2,1c0,0.7,0.1,1.5,0.2,2.2c0,0.1,0.1,0.2,0.1,0.2
			c0.1,0.3,0.3,0.6,0.3,1c0.1,0.6-0.7,1.2,0,1.9c0,0-0.1,0.1-0.1,0.2c-0.3,0.6-0.1,1.1,0.3,1.5c0.6,0.7,1.2,1.4,1.7,2c0,0,0,0,0.1,0
			c0.2-0.2,0.4-0.3,0.6-0.5c0,0,0,0,0,0c0-0.5-0.1-0.9-0.1-1.4c0-0.2,0.1-0.4,0.2-0.6c0.2-0.5,0.5-1.1,0.7-1.6
			c0-0.1-0.2-0.3-0.3-0.4c-0.6-0.2-0.5-0.5-0.1-0.8c0.9-0.9,1-1.4,0.4-2.4c0,0,0-0.1,0.1-0.1c0,0,0,0,0.1,0c1,0.4,1,0.4,1.1-0.9
			c0,0,0,0,0,0c0.7-0.3,1.4-0.4,1.9-0.9c0.6-0.6-0.1-1.1-0.4-1.6c0,0,0-0.1,0-0.1c1.5,0.2,2-0.1,2.1-1.2c0,0,0,0,0,0
			c0.3-0.4,0.7-0.6,0.8-0.9c0.2-0.8,1-1.4,0.7-2.3c0-0.1,0.1-0.4,0.3-0.5c0.9-0.5,1.7-1,2.7-1.5c0,0,0,0,0,0
			c0.3-1.3,1.1-2.6,0.8-4.2c0-0.1,0-0.2,0.1-0.2c0.4-0.6,0.9-1.3,1.3-1.9c0.2-0.4,0.5-0.8,0.4-1.2
			C307.9,218,307.3,217.5,306.7,217.1z"/>
		<path d="M314.2,175c-0.5-0.1-1-0.2-1.6-0.3c0,0,0,0,0,0c0.2-0.6,0.5-0.7,0.9-0.4c0.1,0.1,0.3,0.3,0.4,0.3c0.2,0.1,0.4,0.1,0.6,0.1
			c0,0,0,0,0,0c0-0.2,0.1-0.5,0-0.7c-0.2-0.3-0.5-0.4-0.7-0.6c-0.1-0.1-0.2-0.3-0.3-0.4c0,0,0,0,0,0c0.1,0,0.3-0.1,0.4-0.1
			c0.2,0,0.5,0,0.6-0.1c0.4-0.2,0.8-0.5,1.1-0.8c0.2-0.2,0.3-0.4,0.4-0.7c0,0,0,0,0,0c-1-0.5-1-0.6-0.3-1.2c0.1-0.1,0.2-0.4,0.2-0.5
			c0-0.1-0.2-0.3-0.4-0.3c-0.3,0-0.6,0-0.8,0c-0.1-0.2-0.1-0.2-0.1-0.3c0.4-0.4,0.9-0.8,1.3-1.2c0,0,0,0,0-0.1
			c-0.2-0.1-0.3-0.2-0.5-0.3c0,0,0-0.1,0-0.1c1-0.4,2.1-0.3,2.9-1.3c0,0,0,0,0-0.1c-1.6-0.5-2.8,0-4,0.8c-0.1-0.1-0.1-0.1-0.2-0.2
			c0.2-0.3,0.4-0.5,0.5-0.8c0,0,0,0,0,0c0-0.1-0.1-0.1-0.1-0.2c0,0,0,0,0,0c-0.4,0.2-0.8,0.4-1.3,0.6c0,0,0,0,0,0v-0.7c0,0,0,0,0,0
			c-0.7,0.2-1.5,0.3-2.2,0.5c0,0,0,0,0,0c0-0.1,0-0.2,0-0.2c0,0,0,0,0,0c1.2-0.2,2.4-0.4,3.6-0.6c0,0,0,0,0,0c0-0.1,0-0.2,0-0.2
			c0,0,0,0,0,0c-0.4-0.1-0.8-0.2-1.2-0.2c-0.4,0-0.8,0.2-1.2,0.3c0,0,0,0,0,0c-0.1-0.2,0-0.1-0.1-0.3l0.2-0.1c0,0,0,0,0-0.1
			c-0.1-0.2-0.1-0.2-0.2-0.3c-0.1-0.1-0.2-0.2-0.3-0.1c-1,0.2-2.1,0.1-2.9,0.6c-0.7,0.4-1.1,0.7-1.8,0.2c-0.1,0-0.2,0-0.3,0
			c0,0,0,0,0,0c0,0.4-0.1,0.7-0.1,0.9c0,0,0,0,0,0c-0.5-0.1-1-0.2-1.5-0.4c0,0,0,0,0,0c0,0.4-0.1,0.6-0.1,1c0,0,0,0-0.1,0
			c-0.2-0.3-0.3-0.5-0.5-0.6c-0.1-0.1-0.3-0.3-0.5-0.4c-0.1,0-0.2,0.2-0.3,0.3c0,0,0,0,0,0c-0.3-0.1-0.7-0.4-1-0.3
			c-0.6,0.2-1.3,0.3-1.7,1c-0.1,0.2-0.5,0.3-0.7,0.3c-0.5,0-0.8,0.1-0.8,0.7c0,0.2-0.1,0.4-0.3,0.5c-0.7,0.4-1.5,0.7-2.2,1
			c-0.1,0.1-0.2,0.2-0.3,0.3c0,0,0,0,0,0c0.1,0.1,0.3,0.2,0.4,0.2c0.3,0,0.5-0.1,0.8-0.1c0.2,0,0.5,0.1,0.7,0.2c0,0,0,0,0,0
			c0,0.1,0,0.1-0.1,0.2c0,0,0,0,0,0c-0.4,0-0.8,0.1-1.2,0.2c0,0,0,0,0,0.1c0.7,0.9,1.6,0.9,2.5,0.8c1.3-0.2,1.7,0,2.2,1.2
			c0.2,0.6,0.3,1.2,0.5,1.8c0.1,0.3,0.3,0.5,0.6,0.4c0.2,0,0.3,0.1,0.3,0.5c0,0,0,0,0,0c-0.1,0-0.2,0.1-0.3,0.1
			c-0.2,0.1-0.2,0.3-0.1,0.4l0,0c0.2,0.2,0.5,0.3,0.7,0.5c0,0,0,0,0,0c-0.2,0.3-0.4,0.6-0.6,0.7c-0.5,0.3-0.7,0.8-0.5,1.3
			c0.7,1.4,0.4,3.3,2.3,4.2c0.9,0.4,1.1,0.5,1.5-0.5c0.2-0.6,0.5-1.1,0.7-1.6c0.1-0.2,0.2-0.4,0.2-0.6c-0.1-0.6,0.3-0.7,0.7-0.8
			c0.3,0,0.7-0.1,1-0.1c0.7-0.1,1.2-0.3,1.3-1.1c0.1-0.5,0.4-0.6,0.9-0.5C312.3,177,313.6,176.4,314.2,175
			C314.2,175.1,314.2,175,314.2,175z"/>
		<path d="M296.6,174.7c-0.3-0.1-0.6-0.2-0.9-0.3c-0.3-0.2-0.6-0.4-0.7-0.7c-0.2-0.6-0.6-0.7-1.2-0.6c-0.3,0.1-0.5,0.2-0.8,0.4
			c-0.1,0.1-0.3-0.1-0.2-0.2c0,0,0,0,0,0c0.3-0.6,0.1-0.9-0.6-0.9c-0.6,0-0.8,0.4-0.9,0.9c0,0.1-0.1,0.1-0.1,0.2
			c-0.1,0.1-0.3,0-0.3-0.1c0-0.1,0-0.1,0-0.2c0-0.1,0.1-0.3,0.1-0.4c0-0.1,0-0.2-0.1-0.2c-0.7,0-1.1,0.4-1.3,1
			c-0.2,0.5-0.3,1.1,0.4,1.3c0.1,0,0.1,0.1,0.1,0.2c0,0.1,0,0.2-0.1,0.3c0,0.1,0,0.2,0.1,0.2c0.8,0,1.6-0.4,2.3,0.2
			c0,0,0.3-0.2,0.5-0.2c0.2,0,0.6-0.1,0.7,0.1c0.2,0.2,0.2,0.5,0.3,0.7c0,0,0,0.1,0.1,0.1c0.4,0.2,0.9,0.3,1,0.6
			c0.1,0.3,0,0.9-0.2,1.2c-0.2,0.3-0.6,0.4-0.9,0.5c-0.2,0.1-0.5,0-0.6,0.1c-0.2,0.1-0.3,0.4-0.4,0.6c0,0.1,0,0.2,0,0.2
			c0.2,0.2,0.5,0.4,0.6,0.3c0.9-0.5,1.3,0,1.9,0.5c0.4,0.4,0.8,0.8,1.5,0.9c0.1,0,0.2-0.1,0.1-0.2c-0.1-0.1-0.2-0.3-0.2-0.4
			c-0.1-0.1,0.1-0.3,0.2-0.2c0,0,0,0,0,0c0.1,0.1,0.2,0.2,0.3,0.2c0.1,0,0.2,0,0.2,0c0.6-0.8,0.4-1.3-0.5-1.8
			c-0.1-0.1-0.3-0.3-0.3-0.4c0-0.2,0.1-0.4,0.2-0.4c0.1-0.1,0.4,0,0.5,0.2c0.2,0.2,0.3,0.5,0.5,0.7c0.1,0.1,0.5,0.2,0.6,0.2
			c0.3-0.4,0.6-0.8,0.6-1.2c0-0.2-0.6-0.4-0.9-0.6c-0.4-0.2-0.8-0.4-1.1-0.6c-0.1,0-0.1-0.1-0.1-0.2
			C297.7,175.4,297.6,175.1,296.6,174.7z"/>
		<path d="M294.1,166.9c0.1,0,0.2,0.2,0.1,0.2c-0.1,0-0.2,0-0.2,0.1c-0.3,0.1-0.6,0.1-0.5,0.5c0,0.1-0.1,0.2-0.1,0.1
			c-0.3-0.1-0.5-0.2-0.9-0.3c-0.1,0-0.2,0-0.1,0.1c0.1,0.4,0.2,0.7,0.3,1c0,0,0,0.1,0,0.1c-0.5,0.3-1,0.6-1.6,1
			c-0.3,0.2-0.3,0.6,0,0.8c0.1,0.1,0.2,0.1,0.3,0.1c0.9,0.1,1.8,0.1,2.7,0c0.7-0.1,0.9-0.6,0.6-1c0,0,0-0.1,0-0.1
			c0.6-0.5,1.1-1.1,1.6-1.5c0.2-0.2,0.6-0.4,0.9-0.3c1.2,0.2,2.1-0.5,2-1.6c0-0.1,0-0.1,0.1-0.1c0.6-0.1,1.3-0.2,1.9-0.4
			c0,0,0.1,0,0.1-0.1c0,0,0-0.1,0-0.1c0,0,0-0.1,0-0.1c-0.2-0.2-0.5-0.5-0.7-0.4c-1.2,0.3-2.6-0.8-3.8,0.5c-0.1,0.1-0.1,0-0.2,0
			c0,0,0,0,0,0c-0.1-0.2-0.4-0.4-0.7-0.3c-0.2,0-0.4,0.1-0.6,0c-0.4-0.1-0.7,0-1,0.4c-0.2,0.4-0.6,0.4-0.9,0.1
			c-0.2-0.1-0.5-0.2-0.7-0.1c-0.3,0.1-0.6,0.3-0.9,0.5c-0.2,0.1-0.3,0.4-0.2,0.6C292.1,167.5,293.1,167.1,294.1,166.9z"/>
		<path d="M369.3,215c0.2,0.4,0.5,0.7,0.6,1c0.3,0.8,0.8,0.9,1.5,0.5c0.3,0.2,0.6,0.6,0.8,0.5c0.3-0.1,0.4-0.5,0.6-0.7
			c0.3-0.5,0.6-1.1,0.9-1.7c0.1-0.2,0.1-0.5,0-0.5c-0.6-0.5-0.4-0.9,0.1-1.3c0.5-0.4,0.4-0.7-0.1-0.9c-0.3-0.1-0.7-0.3-0.9-0.4
			c-0.5,0.5-0.9,1-1.3,1.5c-0.3,0.3-0.6,0.5-0.9,0.7c-0.2,0.2-0.4,0.4-0.7,0.4C369.2,214.2,369,214.5,369.3,215z"/>
		<path d="M386.3,218.7c0.2-0.7-0.5-1-0.8-1.4c-0.1-0.2-0.3-0.4-0.4-0.5c-1-0.4-1.8-0.7-2.6-1c-0.2-0.1-0.5-0.2-0.7-0.1
			c-0.6,0.3-1.1,0.7-1.7,1.2c0.2,0,0.4,0.1,0.5,0.1c0.5,0.3,1.1,0.5,1.5,0.9c0.1,0.1-0.2,0.7-0.3,1.1c0.3,0.1,0.8,0,1.2,0.2
			c0.6,0.3,0.9,0.2,1.3-0.3c0.4-0.5,0.7-0.5,1.1,0c0.1,0.2,0.3,0.4,0.4,0.6c0.4,0.5,1.1,0.6,1.9,0.2c-0.3-0.2-0.6-0.4-0.8-0.6
			C386.6,219.1,386.2,218.9,386.3,218.7z"/>
		<path d="M283.9,173.1c-0.4-0.1-0.7-0.2-0.9-0.1c-0.2,0.2-0.3,0.6-0.4,0.8c-0.4,0-0.4-1.2-1-0.3c-0.4-0.5-1.3-0.4-1.7,0.2
			c-0.2,0.3-0.4,0.5-0.8,0.4c-0.1,0-0.3,0.2-0.4,0.3c0.2,0.1,0.3,0.3,0.5,0.3c0.3,0,0.6,0,1,0c0,0.1,0,0.1,0,0.2
			c-0.4,0.1-0.9,0.2-1.4,0.3c1.1,1,5.3,1.4,5.7,0.6c-0.1-0.2-0.2-0.4-0.2-0.6c0.2-0.1,0.4-0.1,0.7-0.2
			C284.2,174.6,283.3,174.3,283.9,173.1z"/>
		<path d="M341.2,222.3c0,0.1,0,0.3,0,0.4c-0.3,0.5-0.6,1.2-1.1,1.4c-0.8,0.3-1.4,1-1,1.7c0.4,0.6,0.1,0.9-0.2,1.4
			c-0.1,0.2-0.2,0.4-0.3,0.7c0.7,0.2,0.2,0.8,0.4,1.2c0.2,0.1,0.5,0.3,0.8,0.2c0.4-0.1,0.8-0.3,0.9-0.6c0.6-0.9,0.3-2.1,0.9-3.1
			c0.3-0.4,0.3-1,0.5-1.5C342.3,223.4,341.9,222.3,341.2,222.3z"/>
		<path d="M320.7,186.6c0,0.4-0.1,0.7-0.1,1c0.1,0,0.2,0.1,0.3,0.1c-0.2,0.3-0.4,0.6-0.7,1c0.7-0.1,1.2-0.2,1.8-0.3
			c0.5-0.1,0.9-0.5,1.2-1c0.1-0.1-0.1-0.4-0.2-0.6c-0.1-0.2-0.3-0.4-0.5-0.6c-0.3-0.6-0.7-1.2-1-1.8c0.1-0.1,0.1-0.3,0.3-0.5
			c-0.3-0.1-0.7-0.1-0.7-0.2c-0.1-0.3-0.2-0.6-0.5-0.3c-0.2,0.2-0.3,0.6-0.4,0.9c-0.1,0.2-0.1,0.5-0.1,0.8c0.4,0.3,0.8,0.7,1.3,1.2
			C321.1,186.5,320.9,186.6,320.7,186.6z"/>
		<path d="M366.4,214C366.4,214,366.4,214,366.4,214C366.4,214,366.4,214,366.4,214C366.4,214,366.4,214,366.4,214z"/>
		<path d="M363.1,212.7c0.3,0.2,0.5,0.3,0.7,0.4c0.5,0.4,1.1,0.7,1.3,1.2c0.4,1.3,1.4,2.2,2.2,3.2c0.1,0.2,0.5,0.3,0.7,0.3
			c0.2-0.1,0.3-0.4,0.4-0.7c0.1-0.3,0.2-0.7,0.3-1c0.1,0,0.2,0,0.2,0c-0.2-0.2-0.4-0.4-0.6-0.5c-0.2,0.2-0.4,0.4-0.5,0.4
			c-0.2-0.1-0.3-0.3-0.4-0.5c-0.3-0.5-0.6-1-0.9-1.5c-0.7-0.5-1.4-0.9-2.1-1.5C363.8,212.2,363.5,212.1,363.1,212.7z"/>
		<path d="M344.1,175c-1.1-1.2-1.1-1.7,0.3-2.7c0.8-0.6,1.7-0.9,2.6-1.4c0.2-0.1,0.5-0.2,0.8-0.4c-0.4-0.5-0.8-0.5-1.2-0.3
			c-0.3,0.2-0.5,0.3-0.8,0.4c-1.2,0.3-2.4,0.4-3.2,1.7c-0.5,0.8-1,1.5-0.2,2.4C342.9,175.4,343.5,175.5,344.1,175z"/>
		<path d="M277.9,174.4c0.5-0.3,1.1-0.5,1.7-0.8c0,0,0.1,0,0.1-0.1c0.4-0.2,0.4-0.7,0.1-1c-0.1,0-0.1-0.1-0.2-0.1
			c-0.4-0.2-0.8-0.3-1.3-0.5c-0.1,0-0.3,0-0.4,0c-0.1,0-0.2,0.1-0.3,0.1c-0.2,0.1-0.5,0.1-0.6,0.3c-0.3,0.4-0.5,0.8-0.8,1.3
			c-0.1,0.2-0.1,0.5,0,0.7C276.7,174.8,277.1,174.8,277.9,174.4z"/>
		<path d="M329,171.4c-0.2,0.9,0.2,1.6,1,1.8c0.2-0.5,0-1.3,0.9-1.3c0.1,0.2,0.1,0.5,0.2,0.7c0.3,0,0.6,0,0.8,0
			c0.2,0,0.4-0.1,0.5-0.3c0-0.1-0.1-0.4-0.2-0.5c-0.3-0.2-0.6-0.2-0.9-0.4c-0.3-0.2-0.5-0.4-0.7-0.6c-0.2-0.2-0.4-0.5-0.6-0.6
			c-0.2,0-0.5,0.3-0.9,0.5c-0.2-0.1-0.7-0.2-1.2-0.4c-0.6,0.1-0.3,0.7-0.1,1.1C328.1,172.2,328.6,171.4,329,171.4z"/>
		<path d="M379.4,196.3c-0.5,0.3-1,0.6-1.6,0.9c0.5,0.3,0.8,0.5,1,0.6c0.4-0.1,0.6-0.1,0.9-0.2c0-0.1,0-0.3,0-0.4c0.5,0,1,0.1,1.4,0
			c0.5-0.3,0.8-0.8,0.6-1.4c-0.1-0.2,0.2-0.6,0.2-0.9c-0.1-0.3-0.2-0.7-0.4-1.1c-0.1-0.1-0.2-0.3-0.4-0.3c-0.1,0-0.3,0.2-0.4,0.3
			c-0.1,0.2,0,0.4,0,0.5c0,1.1-0.2,1.4-1.1,1.4c-0.1,0.2-0.1,0.4-0.2,0.7C379.5,196.4,379.4,196.4,379.4,196.3z"/>
		<path d="M314.1,179.4c0.3-0.1,0.7-0.3,1.1-0.4c0.5-0.2,0.9-0.8,0.7-1.4c-0.2-0.6-0.6-0.3-1-0.3c-0.6,0.1-1.3,0.1-1.9,0.1
			c-0.2,0-0.6-0.2-0.6-0.1c-0.2,0.3-0.3,0.6-0.6,1.1c0.5-0.1,0.7-0.1,1-0.2c-0.1,0.4-0.1,0.7-0.2,0.8
			C313.2,179.1,313.6,179.2,314.1,179.4z"/>
		<path d="M288.7,170.7c0.5,1,1.5,1.5,2.6,1.3c0.5-0.1,1.1,0.1,1.7,0.1c0.1,0,0.4,0.1,0.4,0c0.1-0.1,0.2-0.4,0.1-0.5
			c-0.2-0.2-0.4-0.5-0.7-0.5c-0.4-0.1-0.9,0-1.3,0c-0.6-0.1-1.2-0.1-1.3-0.9c0-0.2-0.3-0.3-0.5-0.5c-0.3,0.2-0.7,0.3-0.9,0.5
			C288.6,170.2,288.6,170.5,288.7,170.7z"/>
		<path d="M289.2,168c0.1,0.1,0.3,0.1,0.3,0.2c0,0.9,0.7,1,1.2,0.8c0.3-0.1,0.5-0.4,0.8-0.8c0.2-0.2,0.2-0.6,0-0.8
			c-0.4-0.4-0.7-0.7-1.1-1c-0.2-0.1-0.7-0.2-0.7-0.1c-0.3,0.4-0.9,0.9-0.7,1.4C289,168,289.1,167.9,289.2,168z"/>
		<path d="M390.2,232.9c-0.4,0.9-1.1,1.5-2,1.8c-0.3,0.1-0.5,0.3-0.7,0.5c-0.1,0.2-0.2,0.6-0.1,0.8c0.1,0.3,0.4,0.5,0.7,0.8
			c0.4-0.4,0.6-0.8,0.9-1.1c0.2-0.2,0.3-0.6,0.5-0.7c0.8-0.2,0.8-1.1,1.5-1.5c0,0-0.1-0.5-0.2-0.6
			C390.6,232.9,390.2,232.9,390.2,232.9z"/>
		<path d="M375.1,214.3c-0.4,0-0.7-0.1-0.8,0.5c-0.1,0.4-0.4,0.8-0.5,1.2c-0.1,0.3-0.1,0.7,0,1c0.1,0.3,0.4,0.5,0.6,0.8
			c0.1-0.3,0.3-0.6,0.3-0.8c0.2,0.3,0.5,0.6,0.8,0.9c0.1-0.1,0.2-0.1,0.3-0.2c-0.1-0.3-0.3-0.6-0.4-0.9c-0.1-0.2-0.1-0.5-0.1-0.7
			c0-0.2,0.2-0.4,0.3-0.7c-0.3,0-0.5,0-0.8,0c-0.1-0.2-0.1-0.5-0.1-0.6c0.7-0.1,1.2-0.2,1.8-0.4c0,0-0.1-0.4-0.1-0.3
			C375.8,214.3,375.4,214.4,375.1,214.3z"/>
		<path d="M281.2,172.1c0.5,0,0.9-0.1,1.4-0.1c0.5-0.1,0.9-0.2,1.5-0.2c0.3-0.1,0.4-0.4,0.2-0.6c-0.1-0.1-0.1-0.1-0.2-0.2
			c-0.2-0.2-0.5-0.2-0.6-0.4c-0.3-0.5-0.5-0.3-0.9,0c-0.3,0.3-0.8,0.5-1.3,0.7c-0.1,0.1-0.2,0.1-0.3,0.2c-0.2,0.1-0.2,0.4-0.1,0.5
			C281,172,281.1,172.1,281.2,172.1z"/>
		<path d="M299.6,188.6c-0.2,0.2-0.5,0.4-0.6,0.7c-0.2,0.3-0.2,0.7-0.3,1c0.3,0,0.5,0,0.8,0c0.1,0,0.2,0,0.4,0
			c0.1,0.2,0.2,0.4,0.3,0.7c0.1-0.2,0.2-0.3,0.3-0.4c0.2,0.1,0.3,0.3,0.6,0.4c0.4-0.9,0.2-1.7-0.5-2c-0.1-0.1-0.2-0.2-0.3-0.3
			C300.2,188.2,299.9,188.3,299.6,188.6z"/>
		<path d="M393.2,231.2c-1.2,0.2-0.8-1.4-1.9-1.7c0.1,0.3,0,0.6,0.1,0.7c0.4,0.6,0.4,1.1-0.1,1.7c-0.4,0.4,0,1.4,0.3,1.5
			c0.4-0.4,0.8-0.7,1.1-1.1c0.2-0.3,0.4-0.6,0.6-0.9C393.3,231.3,393.3,231.3,393.2,231.2z"/>
		<path d="M370.9,218.2c-0.7-0.1-1.5-0.3-2.2-0.4c-0.2,0-0.4,0.4-0.7,0.5c0.2,0.1,0.4,0.3,0.7,0.4c0.2,0.1,0.4,0.1,0.6,0.1
			c0.9,0.2,1.8,0.6,2.8,0.2C371.9,218.4,371.4,218.3,370.9,218.2z"/>
		<path d="M318.4,187.9c0.4-0.2,0.8-0.4,1.2-0.4c1-0.1,0.2-1,0.6-1.3c0.1-0.1,0-0.4-0.1-0.5c0-0.1-0.1-0.1-0.2-0.1
			c-0.3-0.1-1.6,0.5-1.6,0.8C318.3,186.8,318.4,187.3,318.4,187.9z"/>
		<path d="M290.8,204.8c-0.6-0.3-1.2-0.6-1.8-0.9c-1.1-0.4-1.6-0.3-2.2,0.4c0.2-0.1,0.4-0.1,0.6-0.1c1-0.2,1.9,0.3,2.3,1.2
			c0.1,0.2,0.5,0.3,0.7,0.3c0.3,0,0.5-0.2,0.8-0.4C291.1,205.2,291,204.9,290.8,204.8z"/>
		<path d="M285.8,174.4c0,0.1,0.6,0.1,0.7,0c0.2-0.2,0.3-0.5,0.4-0.8c0-0.3,0-0.6-0.1-0.8c-0.1-0.2-0.4-0.5-0.6-0.5
			c-0.2,0-0.4,0.3-0.6,0.5c-0.1,0.1,0,0.4,0.1,0.7c-0.3-0.2-0.5-0.3-0.8-0.4C284.6,173.9,285.6,173.9,285.8,174.4z"/>
		<path d="M380.8,193.1c0.3,0.1,0.7,0,1.1,0c0.1-0.1,0.3-0.3,0.4-0.5c0.1-0.2,0-0.6-0.1-0.7c-0.4-0.4-0.9-0.6-1.3-0.9
			c-0.1,0.5-0.3,1.1-0.4,1.7C380.4,192.9,380.7,193.1,380.8,193.1z"/>
		<path d="M374.6,205.6c-0.2,0-0.4,0.2-0.5,0.4c-0.2,0.3-0.4,0.7-0.5,1.1c0,0.2,0.1,0.6,0.2,0.6c0.4,0.2,0.8,0.2,1.3,0.3
			c-0.1-0.9-0.1-1.4-0.2-2C375,205.8,374.7,205.5,374.6,205.6z"/>
		<path d="M331.4,170.9c0.7,0.4,1.8,0,2.2-0.9c-0.7-0.1-1.3-0.2-2-0.2c-0.3,0-0.6,0.2-0.9,0.3C331,170.4,331.1,170.8,331.4,170.9z"
			/>
		<path d="M372.2,173.1c0.8,0,1.5-0.1,2.3-0.1c0,0,0-0.1,0.1-0.2c-0.6,0.1-0.7-1.5-1.6-0.3c-0.1-0.1-0.2-0.1-0.3-0.2
			c-0.3-0.1-0.5-0.2-0.8-0.3c-0.1,0-0.3,0.3-0.2,0.4C371.8,172.7,372,173.1,372.2,173.1z"/>
		<path d="M279.8,170.8c0.2-0.1,0.5-0.3,0.7-0.4c0.2-0.1,0.4-0.1,0.5-0.3c0.1-0.2,0-0.5-0.1-0.6c-0.1-0.1-0.4,0-0.6,0
			c-0.5,0.2-1,0.4-1.4,0.6c-0.1,0-0.1,0.1-0.2,0.1c-0.3,0.2-0.3,0.6,0,0.8l0,0c0.2,0.1,0.4,0.2,0.6,0
			C279.5,171,279.6,170.9,279.8,170.8z"/>
		<path d="M286.4,170.4c-0.1,0-0.2,0-0.3,0.1c-0.2,0.1-0.4,0.1-0.5,0c-0.2-0.1-0.3-0.1-0.5-0.2c0,0-0.2,0.3-0.2,0.3
			c0.3,0.4,0.5,0.9,0.9,1c0.3,0.1,0.9-0.1,1.2-0.3c0.1-0.1,0.2-0.6,0.1-0.8C287,170.4,286.7,170.4,286.4,170.4z"/>
		<path d="M380.2,186.4c-0.1-0.2-0.3-0.3-0.4-0.4c-0.1,0-0.1,0.1-0.2,0.1c0.3,1,0.5,2,0.8,3.2c0.3-0.1,0.6-0.1,0.9-0.2
			c-0.2-0.6-0.3-1.2-0.5-1.7C380.6,187,380.4,186.7,380.2,186.4z"/>
		<path d="M294,206c-0.7-0.3-1.3-0.6-1.9-0.8c0,0-0.2,0.4-0.4,0.7c-0.2,0-0.4,0-0.7,0.1C291.4,206.5,293.3,206.6,294,206z"/>
		<path d="M383.4,236c-0.8,0.1-1,0.3-1,0.9c0,0.4,0.1,0.8,0.6,0.8c0.5,0,1.1-0.6,1-1.1C384,236.3,383.6,236.2,383.4,236z"/>
		<path d="M289.3,172.5c-1.3-0.5-1.8-0.1-1.9,1.3c0,0.1,0.1,0.2,0.3,0.1c0.6-0.4,1.1-0.8,1.7-1.2
			C289.5,172.7,289.4,172.5,289.3,172.5z"/>
		<path d="M356.5,168.3c0.5-0.2,0.5-0.6,0.2-0.9c-0.2-0.2-0.6-0.3-0.8-0.2c-0.4,0.1-0.7,0.4-1.1,0.6
			C355.3,168.7,355.4,168.8,356.5,168.3z"/>
		<path d="M285.2,169c0.2,0.2,0.5,0.4,0.8,0.5c0.2,0.1,0.3,0,0.5,0c0.2,0,0.3-0.2,0.3-0.3c0-0.2,0-0.3-0.1-0.4
			c-0.3-0.3-0.6-0.5-1-0.7c-0.1-0.1-0.3-0.1-0.4,0c-0.2,0.1-0.4,0.2-0.4,0.4C284.9,168.6,285.1,168.8,285.2,169z"/>
		<path d="M376,210.6c-0.9,0.9,0.4,1,0.4,1.7c0.8-0.7,1-1.4,0.5-1.9C376.5,210,376.3,210.3,376,210.6z"/>
		<path d="M289.7,179.1c-0.2,0.1-0.3,0.5-0.3,0.7c0,0.2,0.2,0.5,0.4,0.6c0.1,0.1,0.4-0.2,0.5-0.3c0.3-0.2,0.6-0.4,0.8-0.5
			C290.9,179,290.2,178.7,289.7,179.1z"/>
		<path d="M358.2,169.3c-0.6-1.4-0.6-1.4-2.1-0.4C356.8,169.3,357.4,169.7,358.2,169.3z"/>
		<path d="M359.9,168.7c0.4-1-0.8-0.5-0.9-1c-0.1,0-0.2,0-0.4,0c0,0.4-0.3,0.9-0.1,1.1C358.8,169.3,359.8,169.1,359.9,168.7z"/>
		<path d="M356.7,210.2c0,0.6,0,1.1,0,1.7c0,0.1,0.3,0.3,0.4,0.3c0.2,0,0.4-0.2,0.4-0.3C357.8,211.2,357.7,210.6,356.7,210.2z"/>
		<path d="M295.3,243.8C295.3,243.8,295.3,243.8,295.3,243.8L295.3,243.8C295.3,243.8,295.3,243.8,295.3,243.8L295.3,243.8
			C295.3,243.8,295.3,243.8,295.3,243.8C295.3,243.8,295.3,243.8,295.3,243.8C295.2,243.8,295.2,243.8,295.3,243.8
			C295.3,243.8,295.3,243.8,295.3,243.8z"/>
		<path d="M295.5,244.8c0.6,0.5,0.9-0.3,1.5-0.2c-0.6-0.2-0.8-1.3-1.7-0.8C294.9,244.3,295.1,244.5,295.5,244.8z"/>
		<path d="M288.1,168.4c-0.2,0-0.5,0.4-0.5,0.6c0,0.2,0.3,0.6,0.5,0.6c0.2,0,0.4-0.2,0.7-0.4c0.1-0.1,0.1-0.2,0-0.3
			C288.5,168.6,288.3,168.3,288.1,168.4z"/>
		<path d="M298.4,242.5c-0.1,0-0.1,0.5-0.2,0.8c0.7-0.2,1.2-0.3,1.7-0.4c0-0.1,0-0.2,0-0.4C299.4,242.5,298.9,242.4,298.4,242.5z"/>
		<path d="M377,198.2c-0.1,0.1,0,0.3,0,0.4c0.6-0.3,0.3,0.6,1,0.6c0-0.5-0.1-1.1-0.1-1.8C377.4,197.8,377.2,198,377,198.2z"/>
		<path d="M374.4,203.9c-0.1-0.6-0.1-1.1-0.2-1.7C373.3,203.1,373.4,203.6,374.4,203.9z"/>
		<path d="M283.5,168.5L283.5,168.5C283.5,168.4,283.5,168.4,283.5,168.5c-0.3-0.2-0.6-0.3-0.8-0.3c-0.3,0.1-0.5,0.4-0.7,0.6
			c0,0,0,0.1,0,0.1c0,0,0.2,0.1,0.4,0.2c0.1,0,0.2,0,0.3,0C283.2,168.8,282.8,168.7,283.5,168.5z"/>
		<path d="M286.1,175.4c-0.6-0.1-0.7,0.3-0.8,1.1c0.5-0.2,0.9-0.3,1.3-0.5C286.4,175.8,286.3,175.4,286.1,175.4z"/>
		<path d="M377,172.9c0-0.1,0-0.2,0.1-0.3c-0.6,0-1.2-0.1-1.8-0.2C375.6,173.1,376.1,173.2,377,172.9z"/>
		<path d="M377.9,215.2c0-0.5,0-1,0-1.7C377,214.8,377.1,214.8,377.9,215.2z"/>
		<path d="M369.6,205c-0.1,0-0.2,0-0.3,0c-0.2,0.4-0.3,0.8-0.5,1.2c0.1,0.1,0.2,0.2,0.3,0.3c0.2-0.2,0.5-0.3,0.6-0.6
			C369.8,205.6,369.7,205.3,369.6,205z"/>
		<path d="M373.3,211.2c0.3-0.7,0.6-1.2,0.9-1.8c-0.1,0-0.2-0.1-0.3-0.1C373,210.6,373,210.6,373.3,211.2z"/>
		<path d="M282.1,170.2c0.5-0.3,0.9-0.5,1.3-0.7c-0.1-0.1-0.1-0.1-0.2-0.2C282,169.2,282,169.2,282.1,170.2z"/>
		<path d="M390.8,174.4c-0.1-0.2-0.2-0.4-0.3-0.4c-0.5-0.1-0.8,0.2-0.8,0.9C390.1,174.7,390.4,174.6,390.8,174.4z"/>
		<path d="M386.7,217.7c0,0.1,0.1,0.2,0.1,0.3c0.3-0.1,0.7-0.1,0.9-0.2c0.2-0.1,0.2-0.5,0.3-0.7c-0.1,0-0.1-0.1-0.2-0.1
			C387.5,217.2,387.1,217.5,386.7,217.7z"/>
		<path d="M380.4,216.2c0.4-0.2,0.8-0.3,1.3-0.5C380.6,215.1,380.5,215.2,380.4,216.2z"/>
		<path d="M287.8,171.8c0.2,0,0.3-0.1,0.5-0.1c0.1,0,0.2-0.1,0.2-0.3c0-0.1-0.1-0.3-0.1-0.3c-0.2,0-0.5,0.1-0.7,0.2
			c-0.1,0-0.2,0.1-0.2,0.3c0,0,0,0,0,0C287.6,171.8,287.7,171.8,287.8,171.8z"/>
		<path d="M388.6,216.1c-0.1-0.2-0.4-0.3-0.7-0.4c0,0.1-0.1,0.1-0.1,0.2c0.2,0.4,0.4,0.7,0.6,1.1c0.1,0,0.2,0,0.2-0.1
			C388.6,216.6,388.7,216.3,388.6,216.1z"/>
		<path d="M261.7,185.2c0.1,0.1,0.3,0.2,0.3,0.1c0.1-0.1,0.2-0.2,0.3-0.3c0.1-0.1,0.1-0.4-0.1-0.4c0,0,0,0,0,0
			c-0.1-0.1-0.3,0-0.4,0.1c0,0.1-0.1,0.1-0.1,0.2C261.6,185,261.6,185.1,261.7,185.2z"/>
		<path d="M288.1,167.5c-0.1-0.1-0.2-0.2-0.3-0.3c0,0-0.1,0-0.2,0c-0.2,0.2-0.3,0.3-0.3,0.4c0,0.1,0.1,0.2,0.2,0.4c0,0,0.1,0,0.1,0
			c0.1-0.1,0.3-0.2,0.4-0.3C288.2,167.6,288.2,167.5,288.1,167.5z"/>
		<path d="M384.8,224.5c-0.1-0.1-0.1-0.3-0.2-0.5c-0.5-1.1-1-2.3-1.5-3.4c0,0-0.1,0-0.2,0c-0.2,1.1-0.3,2.1-0.5,3.3
			c-1.9-1-2.1-1.4-1.7-3.1c-0.8,0.1-1.6,0.1-2.2,0.3c-0.4,0.2-0.7,0.8-1,1.2c-0.2-0.2-0.5-0.4-0.9-0.7c-0.6,0.8-1.3,1.6-1.9,2.4
			c-0.2,0.2-0.4,0.5-0.7,0.7c-0.5,0.2-1,0.4-1.4,0.6c-0.7,0.4-1.4,0.9-1.4,1.8c0.1,0.8,0.3,1.6,0.5,2.4c0.1,0.8,0.2,1.5,0.4,2.3
			c0,0.3,0,0.7,0.1,0.8c0.3,0.1,0.7,0.1,1.1,0.1c0.5-0.1,1-0.2,1.5-0.4c0.3-0.1,0.6-0.1,0.8-0.3c1.7-1.3,3.3-1.1,4.6,0.6
			c0.2-0.1,0.5-0.3,0.7-0.4c0,0.3-0.1,0.6,0,0.7c0.3,0.5,0.7,0.9,1,1.4c0.4,0.7,1.3,1,2,0.6c0.2,0.2,0.4,0.3,0.6,0.4
			c0.5-0.3,0.9-0.6,1.1-0.8c0.5-1.1,1-2,1.4-3c0.2-0.7,0.4-1.5,0.3-2.2C387.1,227.4,386.2,225.8,384.8,224.5z"/>
	</g>
	<path class="st5" d="M321.4,259.2v70.3c0,1.6-0.3,2.9-0.6,2.9l0,0c-0.4,0-0.6-1.3-0.6-2.9v-70.3c0-1.6,0.3-2.9,0.6-2.9l0,0
		C321.1,256.3,321.4,257.6,321.4,259.2z"/>
	<path class="st5" d="M323.9,292.3v39.6c0,0.4-0.3,0.6-0.6,0.6l0,0c-0.4,0-0.6-0.3-0.6-0.6v-39.6c0-0.4,0.3-0.6,0.6-0.6l0,0
		C323.6,291.6,323.9,291.9,323.9,292.3z"/>
	<path class="st5" d="M326.4,274.1v57.7c0,0.4-0.3,0.6-0.6,0.6l0,0c-0.4,0-0.6-0.3-0.6-0.6v-57.7c0-0.4,0.3-0.6,0.6-0.6l0,0
		C326.1,273.5,326.4,273.7,326.4,274.1z"/>
	<path class="st5" d="M328.5,267.8v64c0,0.4-0.3,0.6-0.6,0.6l0,0c-0.4,0-0.6-0.3-0.6-0.6v-64c0-0.4,0.3-0.6,0.6-0.6l0,0
		C328.3,267.2,328.5,267.4,328.5,267.8z"/>
	<path class="st5" d="M331.2,259.2v70.3c0,1.6-0.3,2.9-0.6,2.9l0,0c-0.4,0-0.6-1.3-0.6-2.9v-70.3c0-1.6,0.3-2.9,0.6-2.9l0,0
		C331,256.3,331.2,257.6,331.2,259.2z"/>
	<path class="st5" d="M333.7,292.3v39.6c0,0.4-0.3,0.6-0.6,0.6l0,0c-0.4,0-0.6-0.3-0.6-0.6v-39.6c0-0.4,0.3-0.6,0.6-0.6l0,0
		C333.5,291.6,333.7,291.9,333.7,292.3z"/>
	<path class="st5" d="M336.3,274.1v57.7c0,0.4-0.3,0.6-0.6,0.6l0,0c-0.4,0-0.6-0.3-0.6-0.6v-57.7c0-0.4,0.3-0.6,0.6-0.6h0
		C336,273.5,336.3,273.7,336.3,274.1z"/>
	<path class="st5" d="M338.4,267.8v64c0,0.4-0.3,0.6-0.6,0.6l0,0c-0.4,0-0.6-0.3-0.6-0.6v-64c0-0.4,0.3-0.6,0.6-0.6l0,0
		C338.1,267.2,338.4,267.4,338.4,267.8z"/>
	<path class="st5" d="M341.1,259.2v70.3c0,1.6-0.3,2.9-0.6,2.9l0,0c-0.4,0-0.6-1.3-0.6-2.9v-70.3c0-1.6,0.3-2.9,0.6-2.9l0,0
		C340.8,256.3,341.1,257.6,341.1,259.2z"/>
	<path class="st5" d="M343.6,292.2v39.6c0,0.3-0.3,0.6-0.6,0.6h-0.1c-0.3,0-0.6-0.3-0.6-0.6v-39.6c0-0.3,0.3-0.6,0.6-0.6h0.1
		C343.3,291.6,343.6,291.9,343.6,292.2z"/>
	<path class="st5" d="M346.2,274.1v57.7c0,0.4-0.3,0.6-0.6,0.6l0,0c-0.4,0-0.6-0.3-0.6-0.6v-57.7c0-0.4,0.3-0.6,0.6-0.6l0,0
		C345.9,273.5,346.2,273.7,346.2,274.1z"/>
	<path class="st5" d="M348.3,267.8v64c0,0.4-0.3,0.6-0.6,0.6l0,0c-0.4,0-0.6-0.3-0.6-0.6v-64c0-0.4,0.3-0.6,0.6-0.6l0,0
		C348,267.2,348.3,267.4,348.3,267.8z"/>
	<path class="st5" d="M351,259.2v70.3c0,1.6-0.3,2.9-0.6,2.9l0,0c-0.4,0-0.6-1.3-0.6-2.9v-70.3c0-1.6,0.3-2.9,0.6-2.9l0,0
		C350.7,256.3,351,257.6,351,259.2z"/>
	<path class="st5" d="M353.5,292.3v39.6c0,0.4-0.3,0.6-0.6,0.6l0,0c-0.4,0-0.6-0.3-0.6-0.6v-39.6c0-0.4,0.3-0.6,0.6-0.6l0,0
		C353.2,291.6,353.5,291.9,353.5,292.3z"/>
	<path class="st5" d="M356,274.1v57.7c0,0.4-0.3,0.6-0.6,0.6l0,0c-0.4,0-0.6-0.3-0.6-0.6v-57.7c0-0.4,0.3-0.6,0.6-0.6h0
		C355.7,273.5,356,273.7,356,274.1z"/>
	<path class="st5" d="M358.2,267.8v64c0,0.4-0.3,0.6-0.6,0.6l0,0c-0.4,0-0.6-0.3-0.6-0.6v-64c0-0.4,0.3-0.6,0.6-0.6l0,0
		C357.9,267.2,358.2,267.4,358.2,267.8z"/>
	<path class="st5" d="M360.9,259.2v70.3c0,1.6-0.3,2.9-0.6,2.9l0,0c-0.4,0-0.6-1.3-0.6-2.9v-70.3c0-1.6,0.3-2.9,0.6-2.9l0,0
		C360.6,256.3,360.9,257.6,360.9,259.2z"/>
	<path class="st5" d="M363.4,292.3v39.6c0,0.4-0.3,0.6-0.6,0.6l0,0c-0.4,0-0.6-0.3-0.6-0.6v-39.6c0-0.4,0.3-0.6,0.6-0.6h0
		C363.1,291.6,363.4,291.9,363.4,292.3z"/>
	<path class="st5" d="M365.9,274.1v57.7c0,0.4-0.3,0.6-0.6,0.6l0,0c-0.4,0-0.6-0.3-0.6-0.6v-57.7c0-0.4,0.3-0.6,0.6-0.6l0,0
		C365.6,273.5,365.9,273.7,365.9,274.1z"/>
	<path class="st5" d="M368,267.8v64c0,0.4-0.3,0.6-0.6,0.6l0,0c-0.4,0-0.6-0.3-0.6-0.6v-64c0-0.4,0.3-0.6,0.6-0.6l0,0
		C367.7,267.2,368,267.4,368,267.8z"/>
	<path class="st5" d="M370.7,259.2v70.3c0,1.6-0.3,2.9-0.6,2.9l0,0c-0.4,0-0.6-1.3-0.6-2.9v-70.3c0-1.6,0.3-2.9,0.6-2.9l0,0
		C370.4,256.3,370.7,257.6,370.7,259.2z"/>
	<path class="st5" d="M373.2,292.3v39.6c0,0.4-0.3,0.6-0.6,0.6l0,0c-0.4,0-0.6-0.3-0.6-0.6v-39.6c0-0.4,0.3-0.6,0.6-0.6l0,0
		C372.9,291.6,373.2,291.9,373.2,292.3z"/>
	<path class="st5" d="M375.8,274.1v57.7c0,0.4-0.3,0.6-0.6,0.6l0,0c-0.4,0-0.6-0.3-0.6-0.6v-57.7c0-0.4,0.3-0.6,0.6-0.6h0
		C375.5,273.5,375.8,273.7,375.8,274.1z"/>
	<path class="st5" d="M377.9,267.8v64c0,0.4-0.3,0.6-0.6,0.6l0,0c-0.4,0-0.6-0.3-0.6-0.6v-64c0-0.4,0.3-0.6,0.6-0.6l0,0
		C377.6,267.2,377.9,267.4,377.9,267.8z"/>
	<path class="st5" d="M380.6,259.2v70.3c0,1.6-0.3,2.9-0.6,2.9l0,0c-0.4,0-0.6-1.3-0.6-2.9v-70.3c0-1.6,0.3-2.9,0.6-2.9l0,0
		C380.3,256.3,380.6,257.6,380.6,259.2z"/>
	<path class="st5" d="M383.1,292.3v39.6c0,0.4-0.3,0.6-0.6,0.6l0,0c-0.4,0-0.6-0.3-0.6-0.6v-39.6c0-0.4,0.3-0.6,0.6-0.6h0
		C382.8,291.6,383.1,291.9,383.1,292.3z"/>
	<path class="st5" d="M385.7,274.1v57.7c0,0.4-0.3,0.6-0.6,0.6l0,0c-0.4,0-0.6-0.3-0.6-0.6v-57.7c0-0.4,0.3-0.6,0.6-0.6l0,0
		C385.4,273.5,385.7,273.7,385.7,274.1z"/>
	<path class="st5" d="M387.8,267.8v64c0,0.4-0.3,0.6-0.6,0.6l0,0c-0.4,0-0.6-0.3-0.6-0.6v-64c0-0.4,0.3-0.6,0.6-0.6l0,0
		C387.5,267.2,387.8,267.4,387.8,267.8z"/>
	<path class="st5" d="M390.5,259.2v70.3c0,1.6-0.3,2.9-0.6,2.9l0,0c-0.4,0-0.6-1.3-0.6-2.9v-70.3c0-1.6,0.3-2.9,0.6-2.9l0,0
		C390.2,256.3,390.5,257.6,390.5,259.2z"/>
	<path class="st5" d="M393,292.3v39.6c0,0.4-0.3,0.6-0.6,0.6l0,0c-0.4,0-0.6-0.3-0.6-0.6v-39.6c0-0.4,0.3-0.6,0.6-0.6l0,0
		C392.7,291.6,393,291.9,393,292.3z"/>
	<g>
		<g>
			<polygon class="st11" points="57.9,213.1 51,239.9 65,274.8 91.8,293.3 101.6,289.1 67.4,209.1 			"/>
			<path class="st12" d="M59.7,212.4l-0.7,0.3c-6.3,2.8-9.7,8.2-11.1,15.3c-0.1,0.5-0.2,1-0.3,1.5c-3.1,20.3,9.5,49.3,26.4,60.4
				c7.1,4.7,14.4,6.2,22.8,0.8c-24.7-2.3-44.1-40.4-39.9-65.2c1-5.7,2.5-10.9,6.1-14.6C61.6,211.6,60.9,211.9,59.7,212.4z"/>
			<path class="st12" d="M70.3,207.3c-12.2,5.2-14.4,27.5-4.9,49.9s27.2,36.2,39.4,31c12.2-5.2,14.4-27.6,4.9-49.9
				C100.1,216,82.5,202.1,70.3,207.3z"/>
			<path class="st13" d="M65.9,228.9c0.4-7.9,3.1-13.4,7.8-15.3c4.6-2,10.5-0.2,16.5,5c5.8,5,11.1,12.8,14.9,21.7
				c3.8,9,5.7,18.1,5.4,25.8c-0.4,7.9-3.1,13.4-7.8,15.3c-4.6,2-10.5,0.2-16.5-5c-5.8-5-11.1-12.8-14.9-21.7
				C67.5,245.7,65.6,236.5,65.9,228.9z M89,219.9c-5.4-4.7-10.6-6.4-14.5-4.7c-3.9,1.7-6.3,6.6-6.7,13.7c-0.4,7.4,1.5,16.3,5.2,25
				c3.7,8.7,8.9,16.2,14.5,21.1c5.4,4.7,10.6,6.4,14.5,4.7c3.9-1.7,6.3-6.6,6.7-13.7c0.4-7.4-1.5-16.3-5.2-25
				C99.7,232.3,94.6,224.8,89,219.9z"/>
			<path class="st13" d="M81.6,231.3c-3,0.7-5.9,2-8.6,4.1l3.5,8.3c1.4-1.6,3-3,4.7-4.2c1.6-1.1,3-1.9,4.3-2.2
				c1-0.3,1.8-0.4,2.4-0.2c0.6,0.2,1,0.6,1.3,1.2c0.2,0.5,0.2,0.9,0,1.3c-0.2,0.4-0.6,1-1.2,1.7c-0.6,0.7-1.5,1.6-2.6,2.7
				c-1.4,1.4-2.4,2.8-3.1,4.1c-0.7,1.4-1.1,2.9-1.1,4.3c0,1.5,0.3,3.1,1.1,4.9c1.2,2.8,2.9,4.4,5,4.9c2,0.5,4.3-0.1,6.9-1.5l2.1,4.9
				l3-2.7l-1.9-4.5c1.8-1.5,3.2-3.5,4.4-5.7l-3.8-4.4c-1.4,2.3-2.9,4.1-4.7,5.1c-0.9,0.5-1.5,0.8-2,0.7c-0.5-0.1-0.9-0.4-1.1-0.9
				c-0.2-0.5-0.2-1-0.1-1.4c0.1-0.5,0.5-1.1,1-1.8c0.5-0.7,1.2-1.6,2-2.6c1.7-2,2.6-3.8,2.9-5.3c0.3-1.5,0.1-3.2-0.7-5
				c-0.9-2.1-2.1-3.6-3.7-4.7c-1.6-1.1-3.6-1.7-6.1-1.6l-2.4-5.5l-4,0.3L81.6,231.3z"/>
			<path class="st14" d="M59.7,212.4l-0.7,0.3c-6.3,2.8-9.7,8.2-11.1,15.3c-0.1,0.5-0.2,1-0.3,1.5l9.3-4c1.8-11.3,6.1-14.6,6.1-14.6
				S60.9,211.9,59.7,212.4z"/>
		</g>
		<g>
			<polygon class="st11" points="445.8,138.4 445.7,166 423.3,196.3 392.7,207.3 384.3,200.8 437.6,132.1 			"/>
			<path class="st12" d="M444.3,137.2l0.6,0.5c5.4,4.3,7.3,10.3,6.8,17.6c0,0.5-0.1,1-0.1,1.5c-2.1,20.5-21.6,45.3-40.8,51.8
				c-8.1,2.7-15.5,2.4-22.3-4.9c24.4,4,52.8-27.9,55.1-53c0.5-5.7,0.4-11.1-2.2-15.7C442.6,135.9,443.2,136.4,444.3,137.2z"/>
			<path class="st12" d="M435.2,129.6c10.5,8.1,7,30.3-7.9,49.5c-14.9,19.2-35.4,28.2-45.9,20c-10.5-8.1-7-30.3,7.9-49.5
				C404.2,130.4,424.7,121.5,435.2,129.6z"/>
			<path class="st13" d="M422.3,175.2c-6,7.7-13.1,13.8-20,17.3c-7.1,3.5-13.2,3.8-17.2,0.7c-4-3.1-5.3-9.1-3.6-16.8
				c1.6-7.5,5.7-15.9,11.7-23.6c6-7.7,13.1-13.8,20-17.3c7.1-3.5,13.2-3.8,17.2-0.7c4,3.1,5.3,9.1,3.6,16.8
				C432.4,159.1,428.3,167.5,422.3,175.2z M394.7,153.8c-5.8,7.5-9.8,15.6-11.4,22.9c-1.5,7-0.4,12.3,3,15c3.4,2.6,8.8,2.3,15.2-0.9
				c6.6-3.3,13.5-9.2,19.3-16.7c5.8-7.5,9.8-15.6,11.4-22.9c1.5-7,0.4-12.3-3-15c-3.4-2.6-8.8-2.3-15.2,0.9
				C407.4,140.4,400.5,146.3,394.7,153.8z"/>
			<path class="st13" d="M418.2,150c2.7,1.4,5.2,3.4,7.3,6.2l-5.5,7.1c-1-1.9-2.2-3.6-3.5-5.2c-1.3-1.5-2.5-2.6-3.6-3.3
				c-0.9-0.5-1.7-0.8-2.3-0.8c-0.6,0-1.1,0.3-1.5,0.9c-0.3,0.4-0.4,0.8-0.3,1.3c0.1,0.5,0.3,1.1,0.7,1.9c0.4,0.8,1,1.9,1.9,3.3
				c1,1.7,1.6,3.3,2,4.8c0.3,1.6,0.4,3.1,0,4.5c-0.3,1.4-1.1,2.9-2.3,4.5c-1.8,2.4-3.9,3.5-6.1,3.5c-2.1,0-4.2-1.2-6.3-3.2l-3.2,4.2
				l-2.3-3.4l3-3.9c-1.3-1.9-2.3-4.2-2.8-6.7l4.8-3.3c0.7,2.6,1.8,4.7,3.2,6.1c0.7,0.7,1.3,1.1,1.8,1.2c0.5,0.1,0.9-0.1,1.3-0.6
				c0.3-0.4,0.5-0.9,0.5-1.4c0-0.5-0.2-1.1-0.5-2c-0.3-0.8-0.7-1.8-1.3-3.1c-1.1-2.4-1.6-4.3-1.5-5.9c0.1-1.5,0.7-3.1,2-4.7
				c1.4-1.8,2.9-3,4.7-3.6c1.9-0.7,3.9-0.7,6.3,0l3.7-4.7l3.8,1.4L418.2,150z"/>
			<path class="st14" d="M444.3,137.2l0.6,0.5c5.4,4.3,7.3,10.3,6.8,17.6c0,0.5-0.1,1-0.1,1.5l-8-6.2c1.1-11.4-2.2-15.7-2.2-15.7
				S443.2,136.4,444.3,137.2z"/>
		</g>
		<g>
			<polygon class="st11" points="134.7,97.2 138.1,124.7 163.9,152 195.6,159.4 203.1,151.9 142.1,90 			"/>
			<path class="st12" d="M136.1,95.9l-0.5,0.5c-4.8,4.9-6,11.1-4.7,18.3c0.1,0.5,0.2,1,0.3,1.5c4.6,20,26.9,42.4,46.7,46.5
				c8.3,1.7,15.7,0.5,21.5-7.6c-23.8,6.9-55.8-21.4-61-46c-1.2-5.6-1.7-11,0.3-15.8C137.6,94.4,137,94.9,136.1,95.9z"/>
			<path class="st12" d="M144.1,87.3c-9.5,9.3-3.3,30.9,13.7,48.2c17,17.3,38.5,23.7,48,14.4c9.5-9.3,3.3-30.9-13.7-48.2
				C175.1,84.4,153.6,77.9,144.1,87.3z"/>
			<path class="st13" d="M147.9,108.9c-2.5-7.5-2-13.6,1.6-17.1c3.6-3.5,9.7-4,17.1-1.4c7.3,2.6,15,7.8,21.9,14.8
				c6.9,6.9,12,14.8,14.5,22.1c2.5,7.5,2,13.6-1.6,17.1c-3.6,3.5-9.7,4-17.1,1.4c-7.3-2.6-15-7.8-21.9-14.8
				C155.5,124,150.4,116.2,147.9,108.9z M166.1,92.1c-6.8-2.4-12.2-2.1-15.2,1c-3.1,3-3.5,8.4-1.2,15.2c2.4,7,7.4,14.6,14,21.4
				c6.7,6.7,14.2,11.8,21.2,14.3c6.8,2.4,12.2,2.1,15.2-1c3.1-3,3.5-8.4,1.2-15.2c-2.4-7-7.4-14.6-14-21.4
				C180.6,99.7,173.1,94.6,166.1,92.1z"/>
			<path class="st13" d="M163.4,105.5c-2.5,1.7-4.7,4-6.5,7l6.3,6.4c0.8-2,1.7-3.9,2.9-5.6c1.1-1.7,2.1-2.9,3.2-3.7
				c0.8-0.6,1.6-1,2.2-1.1c0.6-0.1,1.1,0.2,1.6,0.7c0.3,0.3,0.5,0.7,0.5,1.2c0,0.5-0.2,1.1-0.5,2c-0.3,0.9-0.8,2-1.4,3.5
				c-0.8,1.8-1.2,3.4-1.4,5c-0.2,1.6,0,3.1,0.5,4.5c0.5,1.4,1.5,2.8,2.8,4.2c2.1,2.1,4.3,3,6.4,2.8c2.1-0.3,4-1.6,5.8-3.9l3.7,3.8
				l1.9-3.6l-3.5-3.5c1.1-2.1,1.7-4.4,2-7l-5.1-2.7c-0.4,2.7-1.2,4.8-2.5,6.5c-0.6,0.8-1.2,1.3-1.6,1.4c-0.5,0.1-0.9,0-1.4-0.5
				c-0.4-0.4-0.6-0.8-0.6-1.3c0-0.5,0-1.2,0.2-2c0.2-0.8,0.5-1.9,0.9-3.2c0.8-2.5,1-4.5,0.8-6c-0.3-1.5-1.1-3-2.5-4.4
				c-1.6-1.6-3.3-2.6-5.1-3c-1.9-0.4-4-0.2-6.3,0.8l-4.2-4.3L159,101L163.4,105.5z"/>
			<path class="st14" d="M136.1,95.9l-0.5,0.5c-4.8,4.9-6,11.1-4.7,18.3c0.1,0.5,0.2,1,0.3,1.5l7.2-7.1c-2.5-11.2,0.3-15.8,0.3-15.8
				S137,94.9,136.1,95.9z"/>
		</g>
		<path class="st13" d="M210.1,151.5c-5.2-8.5-8.2-9.3-16.8-4.2c8.5-5.1,9.3-8.2,4.1-16.7c5.2,8.5,8.2,9.3,16.8,4.2
			C205.7,139.9,204.9,143,210.1,151.5z"/>
	</g>
</g>
</svg>
