<?xml version='1.0' encoding='utf-8'?>
<svg xmlns="http://www.w3.org/2000/svg" version="1.0" id="Layer_1" x="0px" y="0px" viewBox="0 0 4906 2500" style="enable-background:new 0 0 4906 2500;"> <style type="text/css"> .st0{fill:#1D9EC6;stroke:#000000;stroke-width:20;stroke-miterlimit:10;} .st1{fill:#C5D31D;stroke:#000000;stroke-width:20;stroke-miterlimit:10;} .st2{fill:none;stroke:#000000;stroke-width:20;stroke-miterlimit:10;} .st3{fill:#1D9EC6;stroke:#000000;stroke-width:8;stroke-miterlimit:10;} .st4{fill:#1D9EC6;} .st5{stroke:#000000;stroke-width:20;stroke-miterlimit:10;} .st6{fill:none;stroke:#000000;stroke-width:0.3;} .st7{fill:#C5D31D;} </style> <g> <path class="st0" d="M593.94,698.49V237.52c-232.6,0-421.15,188.56-421.15,421.15s188.56,421.15,421.15,421.15 c219.17,0,399.2-167.42,419.27-381.34H593.94z"/> <path class="st1" d="M704.26,589.15h419.27c1.23-13.11,1.89-26.38,1.89-39.81c0-232.6-188.56-421.15-421.15-421.15V589.15z"/> </g> <g> <g> <g> <path d="M1860.31,151.45c0,7.79,0,15.58,0,23.37c0,21.2,0,42.4,0,63.59c0,31.35,0,62.71,0,94.06c0,38.25,0,76.51,0,114.76 c0,41.9,0,83.8,0,125.71c0,42.3,0,84.59,0,126.89c0,39.44,0,78.87,0,118.31c0,33.32,0,66.65,0,99.97c0,23.96,0,47.91,0,71.87 c0,11.33-0.23,22.68,0,34.01c0.01,0.48,0,0.96,0,1.44c0,15.44,24,15.47,24,0c0-7.79,0-15.58,0-23.37c0-21.2,0-42.4,0-63.59 c0-31.35,0-62.71,0-94.06c0-38.25,0-76.51,0-114.76c0-41.9,0-83.8,0-125.71c0-42.3,0-84.59,0-126.89c0-39.44,0-78.87,0-118.31 c0-33.32,0-66.65,0-99.97c0-23.96,0-47.91,0-71.87c0-11.33,0.23-22.68,0-34.01c-0.01-0.48,0-0.96,0-1.44 C1884.31,136,1860.31,135.98,1860.31,151.45L1860.31,151.45z"/> </g> </g> <line class="st2" x1="1872.31" y1="546.7" x2="1649.48" y2="1025.42"/> <line class="st2" x1="1872.31" y1="535.71" x2="2095.15" y2="1014.43"/> <path class="st1" d="M2258.3,761.09h-771.98c-6.6,0-12-5.4-12-12V242.43c0-6.6,5.4-12,12-12h771.98c6.6,0,12,5.4,12,12v506.66 C2270.3,755.69,2264.9,761.09,2258.3,761.09z"/> <g> <g> <path d="M1612.7,1031.97c25.99,0.31,51.98,0.61,77.97,0.92c15.45,0.18,15.46-23.82,0-24c-25.99-0.31-51.98-0.61-77.97-0.92 C1597.25,1007.79,1597.24,1031.79,1612.7,1031.97L1612.7,1031.97z"/> </g> </g> <g> <g> <path d="M2054.76,1031.97c25.99,0.31,51.98,0.61,77.97,0.92c15.45,0.18,15.46-23.82,0-24c-25.99-0.31-51.98-0.61-77.97-0.92 C2039.31,1007.79,2039.3,1031.79,2054.76,1031.97L2054.76,1031.97z"/> </g> </g> <g> <g> <path d="M1833.33,1034.57c25.99,0.31,51.98,0.61,77.97,0.92c15.45,0.18,15.46-23.82,0-24c-25.99-0.31-51.98-0.61-77.97-0.92 C1817.88,1010.39,1817.87,1034.39,1833.33,1034.57L1833.33,1034.57z"/> </g> </g> <path class="st3" d="M1761.6,661.44h-33.39c-6.6,0-12-5.4-12-12V482.5c0-6.6,5.4-12,12-12h33.39c6.6,0,12,5.4,12,12v166.94 C1773.6,656.04,1768.2,661.44,1761.6,661.44z"/> <path class="st3" d="M1882.06,661.44h-33.39c-6.6,0-12-5.4-12-12V433.8c0-6.6,5.4-12,12-12h33.39c6.6,0,12,5.4,12,12v215.64 C1894.06,656.04,1888.66,661.44,1882.06,661.44z"/> <path class="st3" d="M2002.52,661.44h-33.39c-6.6,0-12-5.4-12-12V376.36c0-6.6,5.4-12,12-12h33.39c6.6,0,12,5.4,12,12v273.08 C2014.52,656.04,2009.12,661.44,2002.52,661.44z"/> </g> <g> <path class="st1" d="M2736.59,1502.13l-93.82-83.43h-457.79c-9.43,0-17.14,7.71-17.14,17.14v886.02c0,9.43,7.71,17.14,17.14,17.14 h621.69c9.43,0,17.14-7.71,17.14-17.14v-742.17L2736.59,1502.13z"/> <g> <g> <path d="M2689.15,1658.28c-13.64,0.07-27.28,0.13-40.91,0.2c-32.75,0.16-65.49,0.31-98.24,0.47 c-39.45,0.19-78.89,0.38-118.34,0.57c-34.27,0.16-68.54,0.33-102.81,0.49c-16.65,0.08-33.41-0.39-50.05,0.24 c-0.24,0.01-0.48,0-0.72,0c-15.44,0.07-15.47,24.07,0,24c13.64-0.07,27.28-0.13,40.91-0.2c32.75-0.16,65.49-0.31,98.24-0.47 c39.45-0.19,78.89-0.38,118.34-0.57c34.27-0.16,68.54-0.33,102.81-0.49c16.65-0.08,33.41,0.39,50.05-0.24 c0.24-0.01,0.48,0,0.72,0C2704.59,1682.21,2704.62,1658.21,2689.15,1658.28L2689.15,1658.28z"/> </g> </g> <g> <g> <path d="M2689.15,1866.99c-13.64,0.07-27.28,0.13-40.91,0.2c-32.75,0.16-65.49,0.31-98.24,0.47 c-39.45,0.19-78.89,0.38-118.34,0.57c-34.27,0.16-68.54,0.33-102.81,0.49c-16.65,0.08-33.41-0.39-50.05,0.24 c-0.24,0.01-0.48,0-0.72,0c-15.44,0.07-15.47,24.07,0,24c13.64-0.07,27.28-0.13,40.91-0.2c32.75-0.16,65.49-0.31,98.24-0.47 c39.45-0.19,78.89-0.38,118.34-0.57c34.27-0.16,68.54-0.33,102.81-0.49c16.65-0.08,33.41,0.39,50.05-0.24 c0.24-0.01,0.48,0,0.72,0C2704.59,1890.92,2704.62,1866.92,2689.15,1866.99L2689.15,1866.99z"/> </g> </g> <g> <g> <path d="M2689.15,1768.47c-13.64,0.07-27.28,0.13-40.91,0.2c-32.75,0.16-65.49,0.31-98.24,0.47 c-39.45,0.19-78.89,0.38-118.34,0.57c-34.27,0.16-68.54,0.33-102.81,0.49c-16.65,0.08-33.41-0.39-50.05,0.24 c-0.24,0.01-0.48,0-0.72,0c-15.44,0.07-15.47,24.07,0,24c13.64-0.07,27.28-0.13,40.91-0.2c32.75-0.16,65.49-0.31,98.24-0.47 c39.45-0.19,78.89-0.38,118.34-0.57c34.27-0.16,68.54-0.33,102.81-0.49c16.65-0.08,33.41,0.39,50.05-0.24 c0.24-0.01,0.48,0,0.72,0C2704.59,1792.4,2704.62,1768.4,2689.15,1768.47L2689.15,1768.47z"/> </g> </g> <g> <g> <path d="M2689.15,2073.45c-13.64,0.07-27.28,0.13-40.91,0.2c-32.75,0.16-65.49,0.31-98.24,0.47 c-39.45,0.19-78.89,0.38-118.34,0.57c-34.27,0.16-68.54,0.33-102.81,0.49c-16.65,0.08-33.41-0.39-50.05,0.24 c-0.24,0.01-0.48,0-0.72,0c-15.44,0.07-15.47,24.07,0,24c13.64-0.07,27.28-0.13,40.91-0.2c32.75-0.16,65.49-0.31,98.24-0.47 c39.45-0.19,78.89-0.38,118.34-0.57c34.27-0.16,68.54-0.33,102.81-0.49c16.65-0.08,33.41,0.39,50.05-0.24 c0.24-0.01,0.48,0,0.72,0C2704.59,2097.37,2704.62,2073.37,2689.15,2073.45L2689.15,2073.45z"/> </g> </g> <g> <g> <path d="M2689.15,1974.93c-13.64,0.07-27.28,0.13-40.91,0.2c-32.75,0.16-65.49,0.31-98.24,0.47 c-39.45,0.19-78.89,0.38-118.34,0.57c-34.27,0.16-68.54,0.33-102.81,0.49c-16.65,0.08-33.41-0.39-50.05,0.24 c-0.24,0.01-0.48,0-0.72,0c-15.44,0.07-15.47,24.07,0,24c13.64-0.07,27.28-0.13,40.91-0.2c32.75-0.16,65.49-0.31,98.24-0.47 c39.45-0.19,78.89-0.38,118.34-0.57c34.27-0.16,68.54-0.33,102.81-0.49c16.65-0.08,33.41,0.39,50.05-0.24 c0.24-0.01,0.48,0,0.72,0C2704.59,1998.85,2704.62,1974.85,2689.15,1974.93L2689.15,1974.93z"/> </g> </g> <g> <polygon class="st4" points="2732.3,1502.08 2816.1,1577.11 2734.27,1584.19 2652.44,1591.27 2650.47,1509.16 2648.5,1427.05 "/> <g> <path d="M2723.81,1510.56c24.5,21.94,49.01,43.88,73.51,65.81c3.43,3.07,6.86,6.14,10.29,9.21c2.83-6.83,5.66-13.66,8.49-20.49 c-43.21,3.74-86.43,7.48-129.64,11.22c-11.34,0.98-22.68,1.96-34.01,2.94c4,4,8,8,12,12c-1.04-43.36-2.08-86.73-3.13-130.09 c-0.27-11.38-0.55-22.75-0.82-34.13c-6.83,2.83-13.66,5.66-20.49,8.49c24.5,21.94,49.01,43.88,73.51,65.81 C2716.95,1504.42,2720.38,1507.49,2723.81,1510.56c4.83,4.32,12.21,4.76,16.97,0c4.4-4.4,4.85-12.63,0-16.97 c-24.5-21.94-49.01-43.88-73.51-65.81c-3.43-3.07-6.86-6.14-10.29-9.21c-7.43-6.65-20.75-2.41-20.49,8.49 c1.04,43.36,2.08,86.73,3.13,130.09c0.27,11.38,0.55,22.75,0.82,34.13c0.15,6.06,5.39,12.57,12,12 c43.21-3.74,86.43-7.48,129.64-11.22c11.34-0.98,22.68-1.96,34.01-2.94c4.83-0.42,9.07-2.66,10.97-7.38 c1.71-4.26,1.14-9.87-2.48-13.11c-24.5-21.94-49.01-43.88-73.51-65.81c-3.43-3.07-6.86-6.14-10.29-9.21 c-4.83-4.32-12.21-4.76-16.97,0C2719.42,1497.99,2718.96,1506.22,2723.81,1510.56z"/> </g> </g> </g> <g> <g> <g> <path d="M2764.04,199.03c-0.04,7.74-0.07,15.49-0.11,23.23c-0.1,20.96-0.2,41.93-0.3,62.89c-0.15,30.98-0.3,61.95-0.45,92.93 c-0.18,37.78-0.36,75.57-0.54,113.35c-0.2,41.38-0.4,82.77-0.59,124.15c-0.2,41.94-0.4,83.87-0.6,125.81 c-0.19,38.94-0.37,77.89-0.56,116.83c-0.16,32.91-0.32,65.82-0.47,98.73c-0.11,23.67-0.23,47.34-0.34,71.01 c-0.05,11.22-0.33,22.46-0.16,33.67c0.01,0.49,0,0.97-0.01,1.46c-0.07,15.45,23.93,15.46,24,0c0.04-7.74,0.07-15.49,0.11-23.23 c0.1-20.96,0.2-41.93,0.3-62.89c0.15-30.98,0.3-61.95,0.45-92.93c0.18-37.78,0.36-75.57,0.54-113.35 c0.2-41.38,0.4-82.77,0.59-124.15c0.2-41.94,0.4-83.87,0.6-125.81c0.19-38.94,0.37-77.89,0.56-116.83 c0.16-32.91,0.32-65.82,0.47-98.73c0.11-23.67,0.23-47.34,0.34-71.01c0.05-11.22,0.33-22.46,0.16-33.67 c-0.01-0.49,0-0.97,0.01-1.46C2788.12,183.58,2764.12,183.57,2764.04,199.03L2764.04,199.03z"/> </g> </g> <g> <g> <path d="M3592.84,1051.62c-7.3,0.04-14.6,0.07-21.9,0.1c-19.87,0.1-39.74,0.19-59.61,0.29c-29.39,0.14-58.77,0.28-88.16,0.42 c-35.86,0.17-71.71,0.34-107.57,0.52c-39.27,0.19-78.55,0.38-117.82,0.56c-39.64,0.19-79.29,0.38-118.93,0.57 c-36.96,0.18-73.92,0.35-110.88,0.53c-31.23,0.15-62.46,0.3-93.69,0.45c-22.45,0.11-44.9,0.22-67.35,0.32 c-10.61,0.05-21.25-0.12-31.85,0.15c-0.45,0.01-0.9,0-1.35,0.01c-15.44,0.07-15.47,24.07,0,24c7.3-0.03,14.6-0.07,21.9-0.1 c19.87-0.1,39.74-0.19,59.61-0.29c29.39-0.14,58.77-0.28,88.16-0.42c35.86-0.17,71.71-0.34,107.57-0.52 c39.27-0.19,78.55-0.38,117.82-0.56c39.64-0.19,79.29-0.38,118.93-0.57c36.96-0.18,73.92-0.35,110.88-0.53 c31.23-0.15,62.46-0.3,93.69-0.45c22.45-0.11,44.9-0.22,67.35-0.32c10.61-0.05,21.25,0.12,31.85-0.15c0.45-0.01,0.9,0,1.35-0.01 C3608.28,1075.54,3608.31,1051.54,3592.84,1051.62L3592.84,1051.62z"/> </g> </g> <path class="st0" d="M2993.66,950.27h-95.58c-6.6,0-12-5.4-12-12V564.39c0-6.6,5.4-12,12-12h95.58c6.6,0,12,5.4,12,12v373.88 C3005.66,944.87,3000.26,950.27,2993.66,950.27z"/> <path class="st0" d="M3244.68,950.27h-95.58c-6.6,0-12-5.4-12-12V462.9c0-6.6,5.4-12,12-12h95.58c6.6,0,12,5.4,12,12v475.36 C3256.68,944.87,3251.28,950.27,3244.68,950.27z"/> <path class="st1" d="M3495.7,950.27h-95.58c-6.6,0-12-5.4-12-12V343.21c0-6.6,5.4-12,12-12h95.58c6.6,0,12,5.4,12,12v595.06 C3507.7,944.87,3502.3,950.27,3495.7,950.27z"/> </g> <g> <path class="st1" d="M4722,1064.15h-631.96c-6.6,0-12-5.4-12-12v-896.3c0-6.6,5.4-12,12-12H4722c6.6,0,12,5.4,12,12v896.3 C4734,1058.75,4728.6,1064.15,4722,1064.15z"/> <path class="st5" d="M4638.21,411.89h-464.38c-6.6,0-12-5.4-12-12V265.37c0-6.6,5.4-12,12-12h464.38c6.6,0,12,5.4,12,12v134.52 C4650.21,406.49,4644.81,411.89,4638.21,411.89z"/> <path class="st0" d="M4357.31,721.63h-174.48c-6.6,0-12-5.4-12-12V535.15c0-6.6,5.4-12,12-12h174.48c6.6,0,12,5.4,12,12v174.48 C4369.31,716.23,4363.91,721.63,4357.31,721.63z"/> <path class="st0" d="M4639.34,721.63h-174.48c-6.6,0-12-5.4-12-12V535.15c0-6.6,5.4-12,12-12h174.48c6.6,0,12,5.4,12,12v174.48 C4651.34,716.23,4645.94,721.63,4639.34,721.63z"/> <path class="st0" d="M4357.31,984.78h-174.48c-6.6,0-12-5.4-12-12V798.3c0-6.6,5.4-12,12-12h174.48c6.6,0,12,5.4,12,12v174.48 C4369.31,979.38,4363.91,984.78,4357.31,984.78z"/> <path class="st0" d="M4639.34,984.78h-174.48c-6.6,0-12-5.4-12-12V798.3c0-6.6,5.4-12,12-12h174.48c6.6,0,12,5.4,12,12v174.48 C4651.34,979.38,4645.94,984.78,4639.34,984.78z"/> <path d="M4239,932.72l-5.24-3.9c-3.36-2.51-4.07-7.31-1.56-10.67l58.27-78.22c2.51-3.36,7.31-4.07,10.67-1.56l5.24,3.9 c3.36,2.51,4.07,7.31,1.56,10.67l-58.27,78.22C4247.17,934.52,4242.37,935.22,4239,932.72z"/> <path d="M4273.34,678.79h-6.53c-4.2,0-7.63-3.43-7.63-7.63v-97.53c0-4.2,3.43-7.63,7.63-7.63h6.53c4.2,0,7.63,3.43,7.63,7.63v97.53 C4280.97,675.35,4277.54,678.79,4273.34,678.79z"/> <path d="M4213.68,625.66v-6.53c0-4.2,3.43-7.63,7.63-7.63h97.54c4.2,0,7.63,3.43,7.63,7.63v6.53c0,4.2-3.43,7.63-7.63,7.63h-97.54 C4217.11,633.29,4213.68,629.85,4213.68,625.66z"/> <path d="M4495.71,868.69v-6.53c0-4.2,3.43-7.63,7.63-7.63h97.53c4.2,0,7.63,3.43,7.63,7.63v6.53c0,4.2-3.43,7.63-7.63,7.63h-97.53 C4499.14,876.32,4495.71,872.89,4495.71,868.69z"/> <path d="M4495.71,625.66v-6.53c0-4.2,3.43-7.63,7.63-7.63h97.53c4.2,0,7.63,3.43,7.63,7.63v6.53c0,4.2-3.43,7.63-7.63,7.63h-97.53 C4499.14,633.29,4495.71,629.85,4495.71,625.66z"/> <path d="M4495.71,908.92v-6.53c0-4.2,3.43-7.63,7.63-7.63h97.53c4.2,0,7.63,3.43,7.63,7.63v6.53c0,4.2-3.43,7.63-7.63,7.63h-97.53 C4499.14,916.54,4495.71,913.11,4495.71,908.92z"/> <path d="M4301.15,932.72l5.24-3.9c3.36-2.51,4.07-7.31,1.56-10.67l-58.27-78.22c-2.51-3.36-7.31-4.07-10.67-1.56l-5.24,3.9 c-3.36,2.51-4.07,7.31-1.56,10.67l58.27,78.22C4292.98,934.52,4297.78,935.22,4301.15,932.72z"/> <g> <line class="st6" x1="4182.03" y1="746.77" x2="4182.03" y2="798.18"/> <line class="st6" x1="4104.91" y1="823.89" x2="4156.32" y2="823.89"/> <line class="st6" x1="4104.91" y1="918.63" x2="4156.32" y2="918.63"/> <line class="st6" x1="4182.03" y1="995.75" x2="4182.03" y2="944.34"/> <line class="st6" x1="4258.16" y1="746.77" x2="4258.16" y2="798.18"/> <line class="st6" x1="4335.27" y1="823.89" x2="4283.86" y2="823.89"/> <line class="st6" x1="4335.27" y1="918.63" x2="4283.86" y2="918.63"/> <line class="st6" x1="4258.16" y1="995.75" x2="4258.16" y2="944.34"/> </g> </g> <g> <path class="st1" d="M1360.6,1684.44h-251.51c-6.6,0-12-5.4-12-12v-251.51c0-6.6,5.4-12,12-12h251.51c6.6,0,12,5.4,12,12v251.51 C1372.6,1679.04,1367.21,1684.44,1360.6,1684.44z"/> <path class="st0" d="M947.86,2248.55H696.35c-6.6,0-12-5.4-12-12v-251.51c0-6.6,5.4-12,12-12h251.51c6.6,0,12,5.4,12,12v251.51 C959.86,2243.15,954.46,2248.55,947.86,2248.55z"/> <path class="st0" d="M1360.6,2248.55h-251.51c-6.6,0-12-5.4-12-12v-251.51c0-6.6,5.4-12,12-12h251.51c6.6,0,12,5.4,12,12v251.51 C1372.6,2243.15,1367.21,2248.55,1360.6,2248.55z"/> <path class="st0" d="M1788.11,2248.55H1536.6c-6.6,0-12-5.4-12-12v-251.51c0-6.6,5.4-12,12-12h251.51c6.6,0,12,5.4,12,12v251.51 C1800.11,2243.15,1794.71,2248.55,1788.11,2248.55z"/> <line class="st2" x1="1234.85" y1="1676.49" x2="1234.85" y2="1965.12"/> <g> <g> <path d="M1662.35,1802.06c-7.47,0.08-14.95,0.16-22.42,0.24c-20.34,0.22-40.69,0.44-61.03,0.66c-30.23,0.33-60.47,0.65-90.7,0.98 c-36.75,0.4-73.49,0.79-110.24,1.19c-40.25,0.43-80.49,0.87-120.74,1.3c-40.63,0.44-81.25,0.87-121.88,1.31 c-38.03,0.41-76.06,0.82-114.1,1.23c-32,0.34-64,0.69-96,1.03c-23.01,0.25-46.02,0.5-69.03,0.74 c-10.89,0.12-21.81,0.03-32.7,0.35c-0.47,0.01-0.94,0.01-1.4,0.02c-15.43,0.17-15.47,24.17,0,24c7.47-0.08,14.95-0.16,22.42-0.24 c20.34-0.22,40.69-0.44,61.03-0.66c30.23-0.33,60.47-0.65,90.7-0.98c36.75-0.4,73.49-0.79,110.24-1.19 c40.25-0.43,80.49-0.87,120.74-1.3c40.63-0.44,81.25-0.87,121.88-1.31c38.03-0.41,76.06-0.82,114.1-1.23c32-0.34,64-0.69,96-1.03 c23.01-0.25,46.02-0.5,69.03-0.74c10.89-0.12,21.81-0.03,32.7-0.35c0.47-0.01,0.94-0.01,1.4-0.02 C1677.79,1825.9,1677.83,1801.9,1662.35,1802.06L1662.35,1802.06z"/> </g> </g> <g> <g> <path d="M1676.09,1963.98c-0.51-43.78-1.01-87.56-1.52-131.34c-0.07-6.19-0.14-12.38-0.21-18.58c-0.18-15.43-24.18-15.47-24,0 c0.51,43.78,1.01,87.56,1.52,131.34c0.07,6.19,0.14,12.38,0.21,18.58C1652.27,1979.41,1676.27,1979.45,1676.09,1963.98 L1676.09,1963.98z"/> </g> </g> <g> <g> <path d="M834.89,1968.05c-0.48-41.86-0.97-83.72-1.45-125.57c-0.07-5.84-0.14-11.68-0.2-17.53c-0.18-15.43-24.18-15.47-24,0 c0.48,41.86,0.97,83.72,1.45,125.57c0.07,5.84,0.14,11.68,0.2,17.53C811.07,1983.49,835.07,1983.53,834.89,1968.05 L834.89,1968.05z"/> </g> </g> </g> <g> <g> <g> <path d="M3726.45,2110.51c38.52,0,77.05,0,115.57,0c60.94,0,121.88,0,182.82,0c13.96,0,27.91,0,41.87,0 c9.13,0,14.91-10.18,10.36-18.06c-19.26-33.36-38.52-66.72-57.78-100.08c-30.47-52.78-60.94-105.55-91.41-158.33 c-11.45-19.82-22.89-39.65-34.33-59.47c-29.11-50.41-58.21-100.83-87.32-151.24c-22.77-39.45-45.55-78.89-68.32-118.34 c-0.36-0.63-0.73-1.26-1.09-1.89c-4.49-7.79-16.23-7.79-20.72,0c-19.26,33.36-38.52,66.72-57.78,100.08 c-30.47,52.78-60.94,105.55-91.41,158.33c-11.44,19.82-22.89,39.65-34.33,59.47c-29.11,50.41-58.21,100.83-87.32,151.24 c-22.77,39.45-45.55,78.89-68.32,118.34c-0.36,0.63-0.73,1.26-1.09,1.89c-4.55,7.87,1.23,18.06,10.36,18.06 c38.52,0,77.05,0,115.57,0c60.94,0,121.88,0,182.82,0C3698.53,2110.51,3712.49,2110.51,3726.45,2110.51c15.44,0,15.47-24,0-24 c-38.52,0-77.05,0-115.57,0c-60.94,0-121.88,0-182.82,0c-13.96,0-27.91,0-41.87,0c3.45,6.02,6.91,12.04,10.36,18.06 c19.26-33.36,38.52-66.72,57.78-100.08c30.47-52.78,60.94-105.55,91.41-158.33c11.45-19.82,22.89-39.65,34.33-59.47 c29.11-50.41,58.21-100.83,87.32-151.24c22.77-39.45,45.55-78.89,68.32-118.34c0.36-0.63,0.73-1.26,1.09-1.89 c-6.91,0-13.82,0-20.72,0c19.26,33.36,38.52,66.72,57.78,100.08c30.47,52.78,60.94,105.55,91.41,158.33 c11.45,19.82,22.89,39.65,34.33,59.47c29.11,50.41,58.21,100.83,87.32,151.24c22.77,39.45,45.55,78.89,68.32,118.34 c0.36,0.63,0.73,1.26,1.09,1.89c3.45-6.02,6.91-12.04,10.36-18.06c-38.52,0-77.05,0-115.57,0c-60.94,0-121.88,0-182.82,0 c-13.96,0-27.91,0-41.87,0C3711.01,2086.51,3710.98,2110.51,3726.45,2110.51z"/> </g> </g> <g> <circle class="st7" cx="3726.45" cy="1540.3" r="164.46"/> <g> <path d="M3878.91,1540.3c-0.13,31.93-9.65,62.18-28.41,88.73c-2.45,3.46-3.41,4.73-6.1,7.96c-2.65,3.19-5.43,6.27-8.31,9.25 c-2.58,2.66-5.25,5.24-8,7.72c-1.46,1.32-2.94,2.6-4.44,3.87c-0.84,0.7-1.68,1.4-2.53,2.08c-0.23,0.19-2.88,2.25-1.7,1.35 c-12.21,9.3-26.73,17.26-39.88,22.05c-30.88,11.24-63.5,12.53-94.69,3.7c-29.9-8.46-56.05-25.65-76.34-50.02 c-19.15-23-31.78-54.21-34.04-84.11c-2.45-32.55,4.78-63.8,21.46-91.42c32.79-54.3,98.4-83.35,160.31-70.75 c62.63,12.75,110.85,63.18,121.01,126.5c0.5,3.12,0.87,6.3,1.18,10.49C3878.75,1531.91,3878.89,1536.1,3878.91,1540.3 c0.06,15.44,24.06,15.47,24,0c-0.31-73.84-47.17-140.4-116.37-165.92c-68.71-25.34-149.45-3.35-195.84,53.27 c-23.26,28.38-37.25,62.77-40.18,99.38c-2.89,36.14,5.95,73.2,24.68,104.23c18.21,30.15,45.66,55.03,77.83,69.49 c34.2,15.37,72.11,19.75,108.92,12.42c70.55-14.06,127.86-73.52,138.66-144.75c1.41-9.33,2.26-18.67,2.3-28.11 C3902.98,1524.86,3878.98,1524.84,3878.91,1540.3z"/> </g> </g> <g> <circle class="st4" cx="3383.57" cy="2086.43" r="164.46"/> <g> <path d="M3536.03,2086.43c-0.13,31.93-9.65,62.18-28.41,88.73c-2.45,3.46-3.41,4.73-6.1,7.96c-2.65,3.19-5.43,6.27-8.31,9.25 c-2.58,2.66-5.25,5.24-8,7.72c-1.46,1.32-2.94,2.6-4.44,3.87c-0.84,0.7-1.68,1.4-2.53,2.08c-0.23,0.19-2.88,2.25-1.7,1.35 c-12.21,9.3-26.73,17.26-39.88,22.05c-30.88,11.24-63.5,12.53-94.69,3.7c-29.9-8.46-56.05-25.65-76.34-50.02 c-19.15-23-31.78-54.21-34.04-84.11c-2.45-32.55,4.78-63.8,21.46-91.42c32.79-54.3,98.4-83.35,160.31-70.75 c62.63,12.75,110.85,63.18,121.02,126.5c0.5,3.12,0.87,6.3,1.18,10.49C3535.87,2078.03,3536.01,2082.23,3536.03,2086.43 c0.06,15.44,24.06,15.47,24,0c-0.31-73.84-47.17-140.4-116.37-165.92c-68.71-25.34-149.45-3.35-195.84,53.27 c-23.26,28.38-37.25,62.77-40.18,99.38c-2.89,36.14,5.95,73.2,24.68,104.23c18.21,30.15,45.66,55.03,77.83,69.49 c34.2,15.37,72.11,19.75,108.92,12.42c70.55-14.06,127.86-73.52,138.66-144.75c1.41-9.33,2.26-18.67,2.3-28.11 C3560.1,2070.99,3536.1,2070.97,3536.03,2086.43z"/> </g> </g> <g> <circle class="st4" cx="4043.63" cy="2079.01" r="164.46"/> <g> <path d="M4196.09,2079.01c-0.13,31.93-9.65,62.18-28.41,88.73c-2.45,3.46-3.41,4.73-6.1,7.96c-2.65,3.19-5.43,6.27-8.31,9.25 c-2.58,2.66-5.25,5.24-8,7.72c-1.46,1.32-2.94,2.6-4.44,3.87c-0.84,0.7-1.68,1.4-2.53,2.08c-0.23,0.19-2.88,2.25-1.7,1.35 c-12.21,9.3-26.73,17.26-39.88,22.05c-30.88,11.24-63.5,12.53-94.69,3.7c-29.9-8.46-56.04-25.65-76.34-50.02 c-19.15-23-31.78-54.21-34.04-84.11c-2.45-32.55,4.78-63.8,21.46-91.42c32.79-54.3,98.4-83.35,160.31-70.75 c62.63,12.75,110.85,63.18,121.02,126.5c0.5,3.12,0.87,6.3,1.18,10.49C4195.93,2070.62,4196.07,2074.81,4196.09,2079.01 c0.06,15.44,24.06,15.47,24,0c-0.31-73.84-47.17-140.4-116.37-165.92c-68.71-25.34-149.45-3.35-195.84,53.27 c-23.26,28.38-37.25,62.77-40.18,99.38c-2.89,36.14,5.95,73.2,24.68,104.23c18.21,30.15,45.66,55.03,77.83,69.49 c34.2,15.37,72.11,19.75,108.92,12.42c70.55-14.06,127.86-73.52,138.66-144.75c1.41-9.33,2.26-18.67,2.3-28.11 C4220.15,2063.57,4196.15,2063.55,4196.09,2079.01z"/> </g> </g> </g> </svg>