<?xml version="1.0" encoding="utf-8"?>
<svg xmlns="http://www.w3.org/2000/svg" xmlns:xlink="http://www.w3.org/1999/xlink" version= "1.1" width="1920px" height="1300px" viewBox="-600 63 1920 1300">
<g id="layer1">
<g style="fill:rgb(0,174,199); fill-opacity:1.0; stroke-linejoin: miter">
<path d="M-600.001,61.542072C-600.3874,61.542072,-600.75793,61.695568,-601.0312,61.968796C-601.30444,62.242023,-601.4579,62.6126,-601.4579,62.999L-601.4569,1363.0C-601.4569,1363.8047,-600.8046,1364.4569,-600.0,1364.4569L1320.001,1364.4579C1320.3873,1364.4579,1320.7579,1364.3043,1321.0311,1364.0311C1321.3043,1363.7579,1321.4579,1363.3873,1321.4579,1363.001L1321.4569,63.0C1321.4569,62.195362,1320.8047,61.54307,1320.0,61.54307L-600.001,61.542072 Z"/>
</g>
<g style="fill:rgb(0,0,0); fill-opacity:0.24313726; stroke-linejoin: miter">
<path d="M1233.5115,1284.8674L1225.8818,1287.0134Q1171.6383,1293.4987,908.44934,1297.3871Q643.43896,1301.2722,284.31375,1300.5378Q-58.42444,1299.5115,-263.9148,1294.5314Q-469.2394,1289.5168,-430.4317,1282.7214Q-376.18872,1276.2361,-112.99921,1272.3478Q152.01114,1268.4625,511.13632,1269.1969Q853.87415,1270.2233,1059.3649,1275.2034Q1125.2062,1276.8132,1167.8313,1278.7115L1203.6564,1280.6632Q1233.1794,1282.6776,1233.5115,1284.8674"/>
</g>
<g style="fill:rgb(128,215,239); fill-opacity:1.0; stroke-linejoin: miter">
<path d="M483.93378,925.0478L708.2741,925.0483L932.61444,925.04877Q932.61444,1078.6886,932.61444,1232.3285Q708.2741,1232.329,483.93378,1232.3293Q483.93378,1078.6886,483.93378,925.0478"/>
</g>
<g style="fill:rgb(233,168,104); fill-opacity:1.0; stroke-linejoin: miter">
<path d="M-113.5308,1188.4614L-75.623474,1188.4639L-75.623474,998.9249L-75.623474,942.064L322.40344,942.0662L322.40344,998.9248L322.40344,1188.4614L511.94006,1188.4634L511.94012,998.92456L511.94,942.0636L909.96674,942.06586L909.96686,998.92444L909.96686,1188.461L947.87415,1188.4634L947.874,904.15625L-113.53081,904.15906 Z"/>
</g>
<g style="fill:rgb(214,128,92); fill-opacity:1.0; stroke-linejoin: miter">
<path d="M909.96686,1245.322L758.3375,1245.3243L511.94006,1245.322L511.94006,1188.461L322.40344,1188.4639L322.4035,1245.3224L170.77419,1245.3248L-75.623405,1245.3224L-75.623474,1188.4614L-113.5308,1188.4639L-113.53073,1283.2297L947.87415,1283.2317L947.87415,1188.461L909.96686,1188.4634 Z"/>
</g>
<g style="fill:rgb(214,128,92); fill-opacity:1.0; stroke-linejoin: miter">
<path d="M928.9204,862.6951C928.9204,864.65686,927.32825,866.2489,925.36664,866.2489L875.6132,866.2513C873.65155,866.2489,872.0594,864.65686,872.0594,862.6951C872.0594,864.65686,870.4674,866.2489,868.5056,866.2489L818.7523,866.2513C816.7906,866.2489,815.1984,864.65686,815.1984,862.6951C815.1984,864.65686,813.6064,866.2489,811.6446,866.2489L761.89136,866.2513C759.92957,866.2489,758.3374,864.65686,758.3374,862.6951C758.3374,864.65686,756.74536,866.2489,754.7836,866.2489L705.03046,866.25134C703.06866,866.24896,701.4767,864.6569,701.4767,862.6952C701.4767,864.6569,699.8845,866.24896,697.9227,866.24896L648.1695,866.25134C646.2077,866.24896,644.61566,864.6569,644.61566,862.6952C644.61566,864.6569,643.0235,866.24896,641.06177,866.24896L591.3085,866.25134C589.3467,866.24896,587.7547,864.6569,587.7547,862.6952C587.7547,864.6569,586.16254,866.24896,584.20087,866.24896L534.44745,866.25134C532.4857,866.24896,530.8937,864.6569,530.8937,862.6952C530.8937,864.6569,529.3015,866.24896,527.33984,866.24896L477.58646,866.25134C475.6247,866.24896,474.03265,864.6569,474.03265,862.6952C474.03265,864.6569,472.44052,866.24896,470.47888,866.24896L420.72546,866.25134C418.7637,866.24896,417.17166,864.6569,417.17166,862.6952C417.17166,864.6569,415.5795,866.24896,413.61786,866.24896L363.86456,866.25165C361.90286,866.2492,360.31076,864.6572,360.31076,862.69543C360.31076,864.6572,358.7187,866.2492,356.75696,866.2492L307.00357,866.25165C305.04184,866.2492,303.44977,864.6572,303.44977,862.69543C303.44977,864.6572,301.85767,866.2492,299.89597,866.2492L250.14255,866.25165C248.18085,866.2492,246.58878,864.6572,246.58878,862.69543C246.58878,864.6572,244.99667,866.2492,243.03497,866.2492L193.28156,866.25165C191.31985,866.2492,189.72777,864.6572,189.72777,862.69543C189.72777,864.6572,188.13568,866.2492,186.17397,866.2492L136.42058,866.25165C134.45886,866.2492,132.86678,864.6572,132.86678,862.69543C132.86678,864.6572,131.27469,866.2492,129.31299,866.2492L79.55964,866.25165C77.59793,866.2492,76.005775,864.6572,76.005775,862.69543C76.005775,864.6572,74.41369,866.2492,72.45198,866.2492L22.698647,866.25165C20.736938,866.2492,19.14479,864.6572,19.14479,862.69543C19.14479,864.6572,17.5527,866.2492,15.590992,866.2492L-34.162346,866.2518C-36.124054,866.2494,-37.71614,864.65735,-37.71614,862.69556C-37.71614,864.65735,-39.308296,866.2494,-41.270004,866.2494L-91.023346,866.2518C-92.985054,866.2494,-94.57714,864.65735,-94.57714,862.69556C-94.57714,864.65735,-96.169235,866.2494,-98.131004,866.2494L-113.53081,866.2518L-113.53081,904.1567L947.874,904.1586L947.874,866.2489L932.4742,866.2513C930.5127,866.2489,928.9204,864.65686,928.9204,862.6951 Z"/>
</g>
<g style="fill:rgb(242,208,87); fill-opacity:1.0; stroke-linejoin: miter">
<path d="M-37.716206,695.66656L-94.57721,695.66895L-94.57714,862.69556C-94.57714,864.65735,-92.985054,866.2494,-91.023346,866.2494L-41.270004,866.2518C-39.308296,866.2494,-37.71614,864.65735,-37.71614,862.69556L-37.716206,695.66656 Z"/>
</g>
<g style="fill:rgb(242,208,87); fill-opacity:1.0; stroke-linejoin: miter">
<path d="M76.005714,695.6665L19.144722,695.6689L19.14479,862.69543C19.14479,864.6572,20.736938,866.2492,22.698647,866.2492L72.45198,866.25165C74.41369,866.2492,76.005775,864.6572,76.005775,862.69543L76.005714,695.6665 Z"/>
</g>
<g style="fill:rgb(191,81,90); fill-opacity:1.0; stroke-linejoin: miter">
<path d="M-94.57714,862.69556L-94.57721,695.66656L-37.716206,695.66895L-37.71614,862.69556C-37.71614,864.65735,-36.124054,866.2494,-34.162346,866.2494L15.590992,866.25165C17.5527,866.2492,19.14479,864.6572,19.14479,862.69543L19.144722,695.6665L76.005714,695.6689L76.005775,862.69543C76.005775,864.6572,77.59793,866.2492,79.55964,866.2492L129.31299,866.25165C131.27469,866.2492,132.86678,864.6572,132.86678,862.69543L132.86671,695.6665L189.72769,695.6689L189.72777,862.69543C189.72777,864.6572,191.31985,866.2492,193.28156,866.2492L243.03497,866.25165C244.99667,866.2492,246.58878,864.6572,246.58878,862.69543L246.58868,695.6664L303.4497,695.66876L303.44977,862.69543C303.44977,864.6572,305.04184,866.2492,307.00357,866.2492L356.75696,866.25165C358.7187,866.2492,360.31076,864.6572,360.31076,862.69543L360.3107,695.6664L417.17166,695.66876L417.17166,862.6952C417.17166,864.6569,418.7637,866.24896,420.72546,866.24896L470.47888,866.25134C472.44052,866.24896,474.03265,864.6569,474.03265,862.6952L474.03265,695.6664L530.8937,695.66876L530.8937,862.6952C530.8937,864.6569,532.4857,866.24896,534.44745,866.24896L584.20087,866.25134C586.16254,866.24896,587.7547,864.6569,587.7547,862.6952L587.7547,695.6664L644.61566,695.66864L644.61566,862.6952C644.61566,864.6569,646.2077,866.24896,648.1695,866.24896L697.9227,866.25134C699.8845,866.24896,701.4767,864.6569,701.4767,862.6952L701.4767,695.66626L758.3374,695.6685L758.3374,862.6951C758.3374,864.65686,759.92957,866.2489,761.89136,866.2489L811.6446,866.2513C813.6064,866.2489,815.1984,864.65686,815.1984,862.6951L815.1984,695.66614L872.0594,695.6685L872.0594,862.6951C872.0594,864.65686,873.65155,866.2489,875.6132,866.2489L925.36664,866.2513C927.32825,866.2489,928.9204,864.65686,928.9204,862.6951L928.9204,695.66614L947.874,695.6685L947.874,520.3449L76.005714,520.3476L76.005714,466.85345C69.812645,467.73932,63.48922,468.22272,57.052055,468.22272C50.614952,468.22272,44.291527,467.73932,38.09839,466.85345L38.09839,520.3452L-113.530876,520.34766L-113.530876,695.66656L-144.33063,695.66895C-148.25635,695.66656,-151.4382,698.8485,-151.4382,702.7742L-151.43814,862.69556C-151.43814,864.65735,-149.84605,866.2494,-147.88434,866.2494L-113.53081,866.2518L-98.131004,866.2494C-96.169235,866.2494,-94.57714,864.65735,-94.57714,862.69556 Z M608.94244,558.7474L685.9962,558.74976L685.9962,571.98895L655.18945,571.99133L655.18945,657.7589L639.8203,657.7613L639.8203,571.99133L608.9448,571.9936L608.9448,558.7474 Z M536.1083,558.7475L598.9609,558.74976L598.9609,571.98895L551.47736,571.99146L551.47736,600.94324L596.4212,600.9456L596.4212,613.7061L551.47736,613.7084L551.47736,644.44653L598.9609,644.4488L598.9609,657.7589L536.1083,657.7614L536.1083,558.7475 Z M447.42645,558.7475L462.79547,558.7499L462.79547,605.88525L463.41376,605.88763L504.7898,558.7475L523.0397,558.7499L483.79138,602.59216L526.3353,657.75903L507.2608,657.7614L472.95465,613.161L462.79773,624.75604L462.79773,657.75903L447.42883,657.7614L447.42883,558.7475 Z M360.6684,558.7475L399.57327,558.7499C419.95074,558.7475,432.645,570.5487,432.645,589.007C432.645,602.3861,425.50894,613.2276,413.43314,617.2764L435.66333,657.75903L417.89185,657.7614L397.7204,619.6789L376.03745,619.6813L376.03745,657.75903L360.66833,657.7614L360.66833,558.7475 Z M297.44608,558.7475L314.05194,558.7499L349.79846,657.75903L333.5363,657.7614L324.47882,630.99896L286.73975,631.00146L277.68454,657.75903L261.69708,657.7614L297.44608,558.7475 Z M150.66183,558.7476L168.43326,558.75L200.4769,636.89825L201.02405,636.90063L232.99893,558.7475L250.83911,558.75L250.83911,657.75903L236.77307,657.7614L236.77307,584.88947L236.29218,584.8917L206.4448,657.0034L195.05602,657.0058L165.13773,584.8896L164.65912,584.89185L164.65912,657.7592L150.66183,657.7616L150.66183,558.7476 Z"/>
</g>
<g style="fill:rgb(242,208,87); fill-opacity:1.0; stroke-linejoin: miter">
<path d="M189.72769,695.6665L132.86671,695.6689L132.86678,862.69543C132.86678,864.6572,134.45886,866.2492,136.42058,866.2492L186.17397,866.25165C188.13568,866.2492,189.72777,864.6572,189.72777,862.69543L189.72769,695.6665 Z"/>
</g>
<g style="fill:rgb(242,208,87); fill-opacity:1.0; stroke-linejoin: miter">
<path d="M303.4497,695.6664L246.58868,695.66876L246.58878,862.69543C246.58878,864.6572,248.18085,866.2492,250.14255,866.2492L299.89597,866.25165C301.85767,866.2492,303.44977,864.6572,303.44977,862.69543L303.4497,695.6664 Z"/>
</g>
<g style="fill:rgb(242,208,87); fill-opacity:1.0; stroke-linejoin: miter">
<path d="M417.17166,695.6664L360.3107,695.66876L360.31076,862.69543C360.31076,864.6572,361.90286,866.2492,363.86456,866.2492L413.61786,866.25134C415.5795,866.24896,417.17166,864.6569,417.17166,862.6952L417.17166,695.6664 Z"/>
</g>
<g style="fill:rgb(242,208,87); fill-opacity:1.0; stroke-linejoin: miter">
<path d="M530.8937,695.6664L474.03265,695.66876L474.03265,862.6952C474.03265,864.6569,475.6247,866.24896,477.58646,866.24896L527.33984,866.25134C529.3015,866.24896,530.8937,864.6569,530.8937,862.6952L530.8937,695.6664 Z"/>
</g>
<g style="fill:rgb(242,208,87); fill-opacity:1.0; stroke-linejoin: miter">
<path d="M978.67377,695.66595L947.874,695.6685L928.9204,695.66614L928.9204,862.6951C928.9204,864.65686,930.5127,866.2489,932.4742,866.2489L947.874,866.2513L982.22754,866.2489C984.1892,866.2489,985.7814,864.65686,985.7814,862.6951L985.7814,702.77356C985.7814,698.8479,982.5997,695.66595,978.67377,695.66595 Z"/>
</g>
<g style="fill:rgb(242,208,87); fill-opacity:1.0; stroke-linejoin: miter">
<path d="M644.61566,695.66626L587.7547,695.66876L587.7547,862.6952C587.7547,864.6569,589.3467,866.24896,591.3085,866.24896L641.06177,866.25134C643.0235,866.24896,644.61566,864.6569,644.61566,862.6952L644.61566,695.66626 Z"/>
</g>
<g style="fill:rgb(242,208,87); fill-opacity:1.0; stroke-linejoin: miter">
<path d="M758.3374,695.66614L701.4767,695.66864L701.4767,862.6952C701.4767,864.6569,703.06866,866.24896,705.03046,866.24896L754.7836,866.2513C756.74536,866.2489,758.3374,864.65686,758.3374,862.6951L758.3374,695.66614 Z"/>
</g>
<g style="fill:rgb(242,208,87); fill-opacity:1.0; stroke-linejoin: miter">
<path d="M872.0594,695.66614L815.1984,695.6685L815.1984,862.6951C815.1984,864.65686,816.7906,866.2489,818.7523,866.2489L868.5056,866.2513C870.4674,866.2489,872.0594,864.65686,872.0594,862.6951L872.0594,695.66614 Z"/>
</g>
<g style="fill:rgb(191,81,90); fill-opacity:0.99607843; stroke-linejoin: miter">
<path d="M62.847424,551.79736L424.30148,551.79785L785.75555,551.7984Q785.75555,619.3779,785.75555,686.9575Q424.30148,686.958,62.847424,686.9585Q62.847424,619.3779,62.847424,551.79736"/>
</g>
<g style="fill:rgb(233,168,104); fill-opacity:0.99607843; stroke-linejoin: miter">
<path d="M-97.750854,927.3122L167.24469,927.3127L432.24023,927.3132Q432.24023,1057.7397,432.24023,1188.1663Q167.24469,1188.1667,-97.750854,1188.1672Q-97.750854,1057.7397,-97.750854,927.3122"/>
</g>
<g style="fill:rgb(214,128,92); fill-opacity:0.99607843; stroke-linejoin: miter">
<path d="M-90.81856,1260.3176L167.06392,1260.3181L424.9464,1260.3185Q424.9464,1223.3096,424.9464,1186.3007Q167.06392,1186.3011,-90.81856,1186.3016Q-90.81856,1223.3097,-90.81856,1260.3176"/>
</g>
<g style="fill:rgb(128,215,240); fill-opacity:0.99607843; stroke-linejoin: miter">
<path d="M3.466484,1014.62714L65.53272,1014.6277L127.59896,1014.6282Q127.59896,1136.5267,127.59896,1258.4254Q65.53272,1258.4259,3.466484,1258.4264Q3.466484,1136.5267,3.466484,1014.62714"/>
</g>
<g style="fill:rgb(21,68,82); fill-opacity:0.99607843; stroke-linejoin: miter">
<path d="M-3.2164688,992.06885L64.6864,992.0693L132.58926,992.06976Q132.58926,1006.8271,132.58926,1021.5844Q64.6864,1021.58496,-3.2164688,1021.58545Q-3.2164688,1006.82715,-3.2164688,992.06885"/>
</g>
<g style="fill:rgb(0,0,0); fill-opacity:0.99607843; stroke-linejoin: miter">
<path d="M-9.37806,1248.5083L65.59599,1248.5088L140.57004,1248.5093Q140.57004,1261.6349,140.57004,1274.7605Q65.59599,1274.761,-9.37806,1274.7615Q-9.37806,1261.6349,-9.37806,1248.5083"/>
</g>
<g style="fill:rgb(21,68,81); fill-opacity:0.99607843; stroke-linejoin: miter">
<path d="M106.15178,1094.3336L109.697525,1094.3341L113.24327,1094.3346Q113.24327,1115.0289,113.24327,1135.7233Q109.697525,1135.7238,106.15178,1135.7242Q106.15178,1115.0289,106.15178,1094.3336"/>
</g>
<g style="fill:rgb(242,208,87); fill-opacity:1.0; stroke-linejoin: miter">
<path d="M-25.099627,267.20407L196.57469,267.2046L418.249,267.20508Q418.249,371.17798,418.249,475.15088Q196.57469,475.15137,-25.099627,475.15186Q-25.099627,371.17798,-25.099627,267.20407"/>
</g>
<g style="fill:rgb(191,80,89); fill-opacity:1.0; stroke-linejoin: miter">
<path d="M63.90949,389.43353L62.464005,392.05484Q57.19301,402.985,43.836514,411.48776Q42.615314,416.72638,35.34765,423.9082Q34.399124,430.96,33.107006,432.84332L27.360601,438.32892Q24.961971,441.44135,24.133568,443.58813Q22.510035,446.9548,23.667814,451.40857Q23.60037,452.37152,22.685884,453.51273L15.258064,460.0468L11.772199,464.12668Q4.2787833,466.87363,2.558561,465.1461Q2.3218744,464.8804,2.3359106,464.24942Q2.3384473,463.5375,2.921005,462.977Q2.6046884,461.714,2.7402418,461.23804Q2.9816682,460.14148,3.508884,459.2415Q9.303174,455.07062,14.6768265,445.14563Q15.587795,443.40253,16.665945,439.49646Q18.839289,428.03674,19.726353,426.52432Q20.900175,422.46503,27.692184,414.7894Q30.89668,401.11288,33.89461,394.30466Q36.21252,388.70697,43.930035,380.92502Q44.770145,377.31323,46.902386,373.23102Q46.991642,369.84204,47.59003,368.49918Q48.089554,367.0937,50.196297,364.98538Q48.31336,360.52316,48.82807,356.2586Q38.41935,344.26715,34.99491,337.19766Q26.225391,338.49246,23.563465,337.5142L11.682071,332.01486Q9.939885,331.22897,8.779386,329.691Q7.9278154,328.61984,8.354588,326.37408Q8.534672,325.43225,9.558907,323.4547Q10.536537,317.78973,11.172705,315.8639Q11.776846,313.86377,12.609995,312.39233L17.948685,304.5158Q18.247246,301.96213,19.600222,301.0603Q25.261374,297.77075,31.564014,299.0155L36.166138,301.47403Q37.051376,302.5566,36.285576,305.29645Q35.85593,306.47632,34.73928,307.20764Q34.185593,307.85425,32.385162,307.10956L29.929518,308.88477Q27.343588,308.77142,28.869139,306.6739Q27.278608,308.07233,26.388111,307.99588Q24.132662,306.95233,24.909739,305.33716Q23.96071,305.28284,23.325098,306.0732Q21.85746,308.25397,21.058632,313.40445Q20.8646,314.10242,21.434113,316.0301Q20.705177,319.52737,20.914677,320.06012Q20.958801,321.0077,21.78836,323.1078Q25.100422,320.69318,26.902359,320.39807Q28.835764,319.71634,32.720387,321.21954Q34.913914,319.4182,38.14121,319.34717Q45.61926,319.1712,47.70887,321.87726Q53.258232,317.1873,52.93892,314.70645L52.8618,312.39743Q48.912853,307.3967,48.572605,304.61078Q48.338215,297.36887,49.87383,294.64456Q55.442642,287.48975,64.82506,289.72012Q67.231285,289.94727,69.67981,292.6959Q70.24635,292.89496,68.75045,295.28836Q69.54062,295.73846,70.07817,296.81464Q71.04904,299.02063,71.56528,302.4367L73.762856,305.91486Q73.9003,306.7719,72.41522,307.28992L73.24415,309.7577L72.710556,310.46655Q73.17151,310.76044,73.10861,311.0445Q71.920944,312.40762,72.169174,315.0306Q71.59215,316.62537,67.67589,316.7484L67.907074,317.60532Q72.66226,318.55356,74.015625,319.62662Q78.68086,313.09143,90.431885,313.9352L103.51185,305.39514Q107.41802,301.4131,108.41342,301.1139L116.53754,297.80646Q121.771484,293.69904,144.64899,281.77246Q147.5994,280.2683,148.30038,280.83563Q148.73221,281.15503,146.81815,283.37637Q141.73816,287.05,135.957,294.17578Q134.64474,295.65582,131.45549,295.35672Q130.91615,295.52417,129.78986,296.61188L120.357605,308.1538L112.6821,313.01193Q111.75135,313.54218,110.017166,314.10284L105.20967,317.98657L102.116936,320.93042Q101.19581,324.13083,98.93842,326.09253Q92.9013,330.4627,88.84166,327.88898Q86.740105,339.77286,81.54963,348.72983L81.26068,359.96317Q80.774055,364.81506,79.33639,367.8445L79.56661,369.55682L83.07511,375.58765L85.185646,384.44324Q88.98917,390.497,89.20368,391.99863Q90.89959,398.29507,90.565575,403.07654Q90.56263,404.98355,88.50849,412.30133Q89.65719,418.13513,88.418434,422.72095Q81.512535,439.28064,81.33932,438.82513L72.68514,451.5551Q71.9393,452.53412,71.464066,456.48038Q71.394714,458.0733,73.40197,459.72687Q75.77053,462.4457,81.32584,463.53918Q84.31951,465.48083,83.54485,466.79352Q83.31527,467.11853,82.14176,467.0938L74.23522,466.84222L69.44506,465.314Q65.594986,465.37485,60.82096,464.13553Q59.36223,463.85724,59.05803,462.86404Q58.82464,461.8143,59.370796,460.57663Q65.26185,450.49762,65.77329,447.41684Q66.59745,445.34506,66.39857,436.34644Q66.56992,434.38882,67.24468,432.60278Q68.035774,429.46432,75.35203,421.83618Q74.3536,416.44406,72.57766,412.2929L65.04902,398.11813Q64.01183,395.12018,63.90949,389.43353 Z"/>
</g>
<g>
<g style="fill:rgb(191,80,89); fill-opacity:1.0; stroke-linejoin: miter">
<path d="M160.05632,325.8114Q141.6969,325.8114,128.61897,338.88934Q115.54103,351.9673,115.54103,370.32672Q115.54103,388.6861,128.61897,401.76404Q141.6969,414.84198,160.05632,414.84198L192.49966,414.84198L192.49966,368.94345L165.84079,368.94345L165.84079,388.1831L160.05632,388.1831Q152.76285,388.1831,147.48138,382.90164Q142.1999,377.62018,142.1999,370.32672Q142.1999,362.90747,147.48138,357.75177Q152.76285,352.59604,160.05632,352.59604Q164.96054,352.59604,169.11028,354.9853Q173.13425,357.3745,175.5235,361.52423L198.66138,348.1948Q192.75116,337.88336,182.31396,331.84738Q172.0025,325.8114,160.05632,325.8114 Z M200.67337,328.70364L231.35623,382.0214L231.35623,414.84198L258.0151,414.84198L258.0151,382.0214L288.69797,328.70364L257.88934,328.70364L244.68567,351.59003L231.48196,328.70364 Z M289.95544,323.1707L289.95544,414.84198L316.61432,414.84198L316.61432,390.6981L335.97974,417.23123L355.9739,390.4466L355.9739,414.84198L382.63278,414.84198L382.63278,323.42218L336.1055,376.11118L289.95544,323.1707 Z"/>
</g>
</g>
<g style="fill:rgb(191,80,89); fill-opacity:1.0; stroke-linejoin: miter">
<path d="M368.397,973.572L383.74506,973.5725L399.0931,973.573Q399.0931,1004.9598,399.0931,1036.3466Q383.74506,1036.347,368.397,1036.3475Q368.397,1004.9598,368.397,973.572"/>
</g>
<g style="fill:rgb(191,80,89); fill-opacity:1.0; stroke-linejoin: miter">
<path d="M405.50684,986.4971L413.12866,986.49756L420.75052,986.49805Q420.75052,1004.96027,420.75052,1023.4224Q413.12866,1023.42285,405.50684,1023.42334Q405.50684,1004.9602,405.50684,986.4971"/>
</g>
<g style="fill:rgb(191,80,89); fill-opacity:1.0; stroke-linejoin: miter">
<path d="M299.72818,973.5721L284.38013,973.57153L269.03207,973.57104Q269.03207,1004.95886,269.03207,1036.3467Q284.38013,1036.3463,299.72818,1036.3458Q299.72818,1004.9589,299.72818,973.5721"/>
</g>
<g style="fill:rgb(191,80,89); fill-opacity:1.0; stroke-linejoin: miter">
<path d="M262.61844,986.4971L254.9966,986.49664L247.37476,986.49615Q247.37476,1004.9593,247.37476,1023.4224Q254.9966,1023.42194,262.61844,1023.42145Q262.61844,1004.9592,262.61844,986.4971"/>
</g>
<g style="fill:rgb(191,80,89); fill-opacity:1.0; stroke-linejoin: miter">
<path d="M305.2712,998.3468L333.35388,998.3472L361.43655,998.3477Q361.43655,1004.95996,361.43655,1011.5722Q333.35388,1011.57275,305.2712,1011.57324Q305.2712,1004.96,305.2712,998.3468"/>
</g>
<g style="fill:rgb(0,0,0); fill-opacity:0.99607843; stroke-linejoin: miter">
<path d="M627.8618,1000.3634L627.7661,1000.0973Q626.7663,997.28186,623.75934,995.30273Q620.9081,993.19495,617.0711,992.6256Q609.6462,992.08813,605.0685,997.6509Q601.23706,1002.15796,601.18463,1007.83484Q601.2578,1010.25964,602.3356,1012.8804Q603.5651,1015.93164,606.6842,1020.9542L606.5897,1024.8895L627.8618,1000.3634 Z"/>
</g>
<g style="fill:rgb(255,178,152); fill-opacity:1.0; stroke-linejoin: miter">
<path d="M574.8423,1078.176L575.4042,1078.0204Q579.1061,1076.7283,584.0396,1078.8947Q591.0388,1081.9596,594.8447,1086.1263Q596.1283,1087.5151,597.8619,1090.0105L592.8053,1096.6357Q625.85913,1108.367,626.39825,1109.3063Q634.47736,1113.0449,635.9201,1117.6979Q637.2666,1121.5563,629.7344,1129.8972L599.62024,1153.3469Q595.0424,1152.9957,592.1749,1147.2329Q605.2442,1129.9164,615.28125,1123.0994L589.4508,1118.0869L574.8423,1078.176 Z"/>
</g>
<g style="fill:rgb(58,105,116); fill-opacity:1.0; stroke-linejoin: miter">
<path d="M563.40485,1096.6871L563.62616,1097.5066Q566.6049,1109.4209,574.0579,1114.328Q577.99445,1116.6233,580.3699,1117.0367Q581.82495,1117.4154,583.36945,1117.7103L592.67505,1119.3121Q595.6574,1119.8917,598.065,1120.853Q601.8658,1122.1696,607.93994,1127.1158L619.8215,1104.565Q610.5458,1098.0549,600.41455,1094.4774L593.42633,1079.8728L563.40485,1096.6871 Z"/>
</g>
<g style="fill:rgb(255,178,152); fill-opacity:1.0; stroke-linejoin: miter">
<path d="M605.8526,1027.5994L605.8527,1027.5997L606.6229,1022.6024L606.5443,1020.7013C607.9402,1020.65015,609.0414,1020.3352,609.8101,1019.7096C610.5306,1019.1234,611.0818,1018.23584,611.4265,1017.0697C611.72003,1016.0764,611.8009,1015.3424,611.7847,1014.8877C611.7743,1014.5929,611.78503,1014.2992,611.7487,1014.01025C611.5165,1012.16223,611.4126,1011.19006,611.4658,1011.08984C611.43945,1010.6168,611.50964,1010.0154,611.89075,1009.40283C612.76575,1007.9962,613.7302,1007.5908,614.6188,1007.9656C614.8527,1008.06445,615.14636,1008.344,615.53265,1008.84717C615.6638,1009.01843,616.1054,1009.90857,616.853,1011.54504C617.0352,1011.9437,617.2299,1012.0895,617.31964,1011.9585C617.4907,1011.7084,617.5544,1011.3978,617.59863,1011.072C617.9198,1008.70337,618.16516,1007.09607,618.34845,1006.255C618.6848,1004.7117,618.98047,1003.8423,619.06995,1003.5812C619.58594,1002.07385,620.5078,1000.7058,622.1714,999.8927C624.6177,998.6974,626.54846,998.81726,627.78876,999.8689C628.8444,1002.79333,629.3551,1004.72375,629.43726,1005.65283C629.52844,1006.6831,629.2775,1007.6875,628.56836,1008.6787C630.66284,1011.813,631.61487,1013.7412,631.686,1014.45337C631.77356,1015.3336,631.0572,1015.77,629.27844,1015.8015C629.57623,1017.08923,629.64343,1017.89746,629.56244,1018.2488C629.4722,1018.64087,629.14905,1018.9426,628.50934,1019.13745C628.97235,1019.2173,629.1613,1019.5442,629.04065,1020.1112C628.93384,1020.6133,628.5849,1021.43994,628.02905,1022.599C628.15106,1023.9542,628.13666,1024.9498,627.9007,1025.5553C627.67255,1026.1406,627.3728,1026.4619,627.0846,1026.5541C626.657,1026.866,625.5459,1027.0414,623.751,1027.0807L620.7097,1026.0482L616.87115,1032.5361L605.8526,1027.5994 Z"/>
</g>
<g style="fill:rgb(0,0,0); fill-opacity:0.99607843; stroke-linejoin: miter">
<path d="M621.3459,989.6395L621.3461,989.64L621.3459,989.6395L621.3461,989.64 Z"/>
</g>
<g style="fill:rgb(0,0,0); fill-opacity:0.99607843; stroke-linejoin: miter">
<path d="M623.1274,1008.8734L623.2444,1008.73315Q623.9975,1007.792,624.5999,1007.4479Q624.73425,1007.3728,624.8737,1007.31775Q624.941,1007.2805,625.3017,1007.18884Q625.66486,1007.1056,626.34796,1007.06775Q625.3873,1007.4774,624.84515,1007.7876Q624.31384,1008.0792,623.1274,1008.8734 Z"/>
</g>
<g style="fill:rgb(0,0,0); fill-opacity:0.99607843; stroke-linejoin: miter">
<path d="M624.87244,1011.28625L624.87225,1011.28674L624.87225,1011.287L624.87244,1011.28625 Z"/>
</g>
<g style="fill:rgb(255,255,255); fill-opacity:0.99607843; stroke-linejoin: miter">
<path d="M624.2811,1009.7269L624.2811,1009.72705L625.72046,1008.1361Q626.0694,1008.3723,626.1812,1008.5775Q626.3042,1008.7671,626.42487,1009.32007L624.2811,1009.7269 Z"/>
</g>
<g style="fill:rgb(0,0,0); fill-opacity:0.99607843; stroke-linejoin: miter">
<path d="M625.7036,1008.1293L625.53754,1008.96594L626.36957,1009.31104Q626.36053,1008.99744,626.33154,1008.8423Q626.29944,1008.6897,626.28564,1008.6649Q626.2657,1008.6096,626.238,1008.5602Q626.2102,1008.5111,626.1746,1008.468Q626.1607,1008.4435,626.0541,1008.35Q625.94434,1008.2589,625.7036,1008.1293 Z"/>
</g>
<g style="fill:rgb(22,23,24); fill-opacity:1.0; stroke-linejoin: miter">
<path d="M662.5295,1101.3727L662.5295,1101.3729L662.5295,1101.3732L659.5887,1099.4541C670.5296,1094.6401,680.91187,1090.04,686.69684,1084.5007L686.69684,1084.501C692.2831,1079.1519,693.6291,1072.8259,695.06934,1065.8191C695.30255,1064.685,696.4108,1063.9545,697.5451,1064.1876C698.67926,1064.4209,699.4096,1065.5293,699.17645,1066.6635L699.17645,1066.6637C697.7557,1073.5752,696.24054,1081.168,689.5968,1087.5294L689.5968,1087.5297C683.1518,1093.7006,671.93524,1098.6029,661.27716,1103.2919C660.62885,1103.5771,659.8804,1103.5157,659.28723,1103.1288C658.6941,1102.7416,658.33636,1102.0812,658.33636,1101.3729L658.33636,1101.3732L658.33636,1101.3727C658.33636,1100.2147,659.275,1099.2762,660.433,1099.2762C661.5908,1099.2762,662.5295,1100.2147,662.5295,1101.3727 Z"/>
</g>
<g style="fill:rgb(22,23,24); fill-opacity:1.0; stroke-linejoin: miter">
<path d="M660.30145,1099.4628L660.30145,1099.463L660.30145,1099.4634L657.361,1097.544L657.436,1097.5109L657.43555,1097.5111C668.3501,1092.7091,678.6977,1088.117,684.469,1082.5908L684.469,1082.5911C690.0552,1077.242,691.40106,1070.916,692.8413,1063.9092C693.07446,1062.7751,694.1829,1062.0446,695.3171,1062.2778C696.45123,1062.511,697.1817,1063.6194,696.94855,1064.7535L696.94855,1064.7538C695.5278,1071.6653,694.0125,1079.258,687.3688,1085.6195L687.3688,1085.6198C680.93835,1091.7769,669.75854,1096.6702,659.1242,1101.3491L659.1238,1101.3494L659.0489,1101.3822C658.40094,1101.6672,657.65247,1101.6058,657.0592,1101.2186C656.46606,1100.8317,656.10846,1100.1714,656.10846,1099.463L656.10846,1099.4634L656.10846,1099.4628C656.10846,1098.3048,657.047,1097.3663,658.20496,1097.3663C659.3628,1097.3663,660.30145,1098.3048,660.30145,1099.4628 Z"/>
</g>
<g style="fill:rgb(255,178,169); fill-opacity:0.99607843; stroke-linejoin: miter">
<path d="M680.014,1105.4606L680.014,1105.4615Q680.014,1105.4608,680.014,1105.4606 Z"/>
</g>
<g style="fill:rgb(255,178,152); fill-opacity:1.0; stroke-linejoin: miter">
<path d="M660.23425,1088.4366L663.9046,1090.6978L666.95935,1090.3688L671.376,1089.3676L676.6694,1086.4927Q677.1977,1086.2089,677.63794,1086.0167Q678.6674,1085.4843,679.609,1085.9152Q680.1484,1086.2922,680.14996,1086.579Q680.1758,1087.1927,679.7862,1087.509Q678.8668,1088.4099,675.72345,1089.8474Q680.03143,1091.765,680.8909,1092.5701Q681.9814,1093.4025,681.57367,1094.7606L678.7046,1096.2981Q678.37616,1097.83,677.8698,1098.1945Q677.53815,1098.4604,676.53796,1098.182Q675.9233,1099.3228,675.322,1099.4874Q674.8368,1099.5957,673.90857,1099.1455Q673.03925,1100.3047,672.37885,1100.304Q670.3945,1100.4418,670.32166,1098.0465Q667.5722,1099.6189,665.71924,1099.2537Q665.04407,1099.1714,663.93335,1098.5126Q663.18097,1098.1193,661.29095,1096.3253Q660.4793,1095.5461,658.5389,1093.4235L660.23425,1088.4366 Z"/>
</g>
<g style="fill:rgb(255,178,152); fill-opacity:1.0; stroke-linejoin: miter">
<path d="M576.3831,1078.7379L577.41266,1077.3259Q589.32465,1061.1151,591.7468,1055.0288Q593.5883,1050.8184,594.10114,1048.8973Q594.67505,1047.4586,597.1585,1036.1389Q597.7419,1033.8861,598.51355,1032.3435Q599.30396,1030.8372,600.20374,1029.9369L604.25525,1026.7496Q604.7694,1026.3271,606.27673,1024.2043L618.89575,1029.3226Q616.1866,1032.7234,617.33563,1035.0009Q617.8179,1036.1033,618.9074,1037.4353Q624.2077,1043.6543,624.542,1044.3148Q626.1487,1046.5328,627.70404,1049.0752Q633.0379,1057.903,635.81396,1064.5972Q637.6986,1064.7458,641.10034,1067.9866Q644.06323,1070.6621,654.90765,1082.3455L662.875,1090.1005L659.78125,1094.641L648.49493,1086.8237L629.4334,1072.7761Q620.99304,1065.4946,616.44476,1056.0873Q618.32764,1056.9922,617.61896,1059.4222Q617.2049,1061.4994,613.07623,1069.6085Q606.9576,1076.0962,596.5641,1087.715L576.3831,1078.7379 Z"/>
</g>
<g style="fill:rgb(255,255,255); fill-opacity:1.0; stroke-linejoin: miter">
<path d="M597.95056,1155.8508L597.9045,1155.4344Q597.688,1153.5547,597.95557,1152.7311Q598.05817,1152.113,598.8241,1151.4553Q601.2945,1150.0822,602.93225,1151.5054Q603.128,1151.7761,603.2025,1152.1454Q603.299,1152.2816,603.2086,1153.4291Q603.0657,1154.6188,602.12994,1157.3104L605.3075,1166.0405Q607.6496,1168.4629,608.6372,1169.8837Q609.4712,1170.9341,609.7498,1172.5076Q609.91864,1174.4832,608.42334,1175.8523Q606.8104,1177.1355,604.7743,1176.7461Q602.8715,1176.8501,595.438,1169.7335L590.41144,1158.9589L589.79144,1148.8036Q591.55255,1145.5905,592.40247,1144.7443Q593.2579,1143.7626,594.90717,1143.3192L599.29,1153.9991L597.95056,1155.8508 Z"/>
</g>
<g style="fill:rgb(83,93,102); fill-opacity:0.99607843; stroke-linejoin: miter">
<path d="M596.6118,1181.7379L601.4692,1180.7358L606.3265,1179.7338L605.4679,1175.5718Q600.61053,1176.5741,595.75323,1177.5764Q596.18256,1179.657,596.6118,1181.7379 Z"/>
</g>
<g style="fill:rgb(83,93,102); fill-opacity:0.99607843; stroke-linejoin: miter">
<path d="M602.0922,1176.4817L604.6164,1177.0936L607.1405,1177.7056Q608.33655,1172.7704,609.5328,1167.8353Q607.00854,1167.2236,604.4845,1166.6119Q603.2884,1171.5469,602.0922,1176.4817 Z"/>
</g>
<g style="fill:rgb(32,44,54); fill-opacity:0.99607843; stroke-linejoin: miter">
<path d="M599.58136,1180.3885L641.8626,1185.4552L684.1438,1190.5216Q683.5947,1195.1031,683.0458,1199.6847Q640.7646,1194.6183,598.48346,1189.5521Q599.0324,1184.9703,599.58136,1180.3885 Z"/>
</g>
<g style="fill:rgb(32,44,54); fill-opacity:0.99607843; stroke-linejoin: miter">
<path d="M604.7416,1218.6627L644.80566,1222.9036L684.86957,1227.1448Q686.4006,1212.6805,687.9316,1198.2166Q647.8677,1193.9757,607.80365,1189.7351Q606.27264,1204.1987,604.7416,1218.6627 Z"/>
</g>
<g style="fill:rgb(60,70,79); fill-opacity:0.99607843; stroke-linejoin: miter">
<path d="M783.1545,1233.8689L780.02155,1234.1915L776.88855,1234.5143L783.1545,1233.8689 Z"/>
</g>
<g style="fill:rgb(60,70,79); fill-opacity:0.99607843; stroke-linejoin: miter">
<path d="M590.8443,1053.6705L590.8443,1053.6715L590.8442,1053.6708L590.8443,1053.6705L590.8443,1053.6715L590.8443,1053.6705L590.8442,1053.6708Q590.8443,1053.6705,590.8443,1053.6705 Z"/>
</g>
<g style="fill:rgb(60,70,79); fill-opacity:0.99607843; stroke-linejoin: miter">
<path d="M590.8443,1053.6705L590.8443,1053.6715L590.8442,1053.6708L590.8443,1053.6705L590.8443,1053.6715L590.8443,1053.6705L590.8442,1053.6708Q590.8443,1053.6705,590.8443,1053.6705 Z"/>
</g>
<g style="fill:rgb(32,44,54); fill-opacity:0.99607843; stroke-linejoin: miter">
<path d="M585.2013,1030.3384L585.2013,1030.3394L585.2013,1030.3385L585.2013,1030.3384L585.2013,1030.3394L585.2013,1030.3384L585.2013,1030.3385Q585.2013,1030.3384,585.2013,1030.3384 Z"/>
</g>
<g style="fill:rgb(32,44,54); fill-opacity:1.0; stroke-linejoin: miter">
<path d="M698.5591,1198.8883L698.03265,1203.1448Q695.267,1215.9419,684.91986,1223.1285Q674.5042,1230.305,661.05774,1228.0865Q648.2612,1225.3207,641.075,1214.9731Q638.7741,1211.6293,637.37976,1207.7603L636.2476,1203.7991Q635.3598,1199.7266,635.5911,1195.3663Q636.6772,1182.0057,646.058,1173.6184Q655.4387,1165.2312,668.8363,1165.642Q682.19604,1166.7279,690.58295,1176.109Q698.9697,1185.4902,698.5591,1198.8883 Z"/>
</g>
<g style="fill:rgb(22,23,24); fill-opacity:1.0; stroke-linejoin: miter">
<path d="M687.99286,1200.8223L687.5598,1203.5424Q685.49866,1211.6952,678.6961,1216.0769Q671.85004,1220.4509,663.2683,1218.7262Q655.1158,1216.6649,650.73425,1209.8623Q649.33185,1207.6647,648.5234,1205.15L647.88513,1202.5822Q647.4062,1199.9481,647.6521,1197.1544Q648.6478,1188.6025,654.8567,1183.4283Q661.06555,1178.2543,669.65643,1178.8171Q678.20795,1179.8129,683.38184,1186.022Q688.5558,1192.2312,687.99286,1200.8223 Z"/>
</g>
<g style="fill:rgb(22,23,24); fill-opacity:1.0; stroke-linejoin: miter">
<path d="M615.343,1185.9309L615.343,1185.9312C622.2013,1178.2491,629.4108,1170.1467,637.6569,1164.3898L637.6569,1164.39C645.9427,1158.6052,655.1375,1155.281,663.80865,1152.126C665.6957,1151.4395,667.7821,1152.4127,668.4687,1154.2998C669.1553,1156.1866,668.182,1158.2731,666.2949,1158.9597L666.2949,1158.96C657.4855,1162.1649,649.19885,1165.2007,641.81946,1170.3527L641.81946,1170.3536C634.4001,1175.5321,627.7591,1182.943,620.76746,1190.7739C619.43005,1192.272,617.1316,1192.4022,615.63367,1191.0648C614.13574,1189.7274,614.0056,1187.429,615.343,1185.9309 Z"/>
</g>
<g style="fill:rgb(22,23,24); fill-opacity:1.0; stroke-linejoin: miter">
<path d="M672.37476,1162.9052L672.37476,1162.9054L672.37476,1162.9058C672.37476,1164.7161,671.04266,1166.2507,669.25,1166.5052C667.45746,1166.7599,665.75073,1165.6567,665.24664,1163.9178L665.2428,1163.9043L665.24164,1163.9004L665.2455,1163.9138C661.901,1152.3765,658.42017,1140.4097,657.3167,1129.8949L657.3167,1129.8951C656.2007,1119.2605,657.52094,1110.2186,658.7634,1101.6185C659.0505,1099.6311,660.8945,1098.2527,662.8819,1098.5399C664.8694,1098.827,666.2477,1100.6708,665.96063,1102.6582L665.96063,1102.6584C664.71094,1111.3075,663.53925,1119.5149,664.5488,1129.1357L664.5488,1129.1361C665.57086,1138.8743,668.8318,1150.1669,672.22986,1161.889L672.2337,1161.9026L672.23474,1161.9066L665.1028,1162.9054L665.1028,1162.9052C665.1028,1160.8971,666.7307,1159.2693,668.7388,1159.2693C670.7469,1159.2693,672.37476,1160.8971,672.37476,1162.9052 Z"/>
</g>
<g style="fill:rgb(22,23,24); fill-opacity:0.99607843; stroke-linejoin: miter">
<path d="M673.2834,1238.8019L729.5595,1237.3668L785.83563,1235.9316Q785.7463,1232.4277,785.6569,1228.9237Q729.3808,1230.359,673.10474,1231.7944Q673.19403,1235.2981,673.2834,1238.8019 Z"/>
</g>
<g style="fill:rgb(22,23,24); fill-opacity:0.99607843; stroke-linejoin: miter">
<path d="M557.9204,1019.667L557.9204,1019.66797L557.9204,1019.66724L557.9204,1019.667L557.9204,1019.66797L557.9204,1019.667L557.9204,1019.66724Q557.9204,1019.667,557.9204,1019.667 Z"/>
</g>
<g style="fill:rgb(22,23,24); fill-opacity:0.99607843; stroke-linejoin: miter">
<path d="M555.2087,1018.82544L555.2087,1018.82556L555.2087,1018.82654L555.2087,1018.82556L555.2087,1018.82544L555.2087,1018.82556L555.2087,1018.82654Q555.2087,1018.82556,555.2087,1018.82544 Z"/>
</g>
<g style="fill:rgb(22,23,24); fill-opacity:0.99607843; stroke-linejoin: miter">
<path d="M598.37006,1217.314L594.53784,1214.209L590.7056,1211.1041Q582.6973,1220.9882,574.68915,1230.872Q578.5213,1233.977,582.3534,1237.082L598.37006,1217.314 Z"/>
</g>
<g style="fill:rgb(22,23,24); fill-opacity:0.99607843; stroke-linejoin: miter">
<path d="M561.3123,1139.6437L561.3123,1139.6439L561.3123,1139.6449L561.3123,1139.6439L561.3123,1139.6437L561.3123,1139.6439L561.3123,1139.6449Q561.3123,1139.6439,561.3123,1139.6437 Z"/>
</g>
<g style="fill:rgb(22,23,24); fill-opacity:0.99607843; stroke-linejoin: miter">
<path d="M561.3123,1139.6437L561.3123,1139.6439L561.3123,1139.6449L561.3123,1139.6439L561.3123,1139.6437L561.3123,1139.6439L561.3123,1139.6449Q561.3123,1139.6439,561.3123,1139.6437 Z"/>
</g>
<g style="fill:rgb(60,70,79); fill-opacity:0.99607843; stroke-linejoin: miter">
<path d="M666.43756,1159.5631L668.18665,1159.1558L669.9359,1158.7484Q678.0539,1193.5999,686.1719,1228.4509Q684.42267,1228.8585,682.6735,1229.2661L666.43756,1159.5631 Z"/>
</g>
<g style="fill:rgb(32,44,54); fill-opacity:1.0; stroke-linejoin: miter">
<path d="M624.6632,1201.3053L624.23016,1204.0254Q622.169,1212.1782,615.36646,1216.5602Q608.5204,1220.934,599.93866,1219.2092Q591.78625,1217.1483,587.40454,1210.3453Q586.0022,1208.1477,585.1937,1205.633L584.5555,1203.0652Q584.07654,1200.4312,584.32245,1197.6375Q585.3181,1189.0856,591.52704,1183.9114Q597.736,1178.7373,606.32684,1179.3002Q614.8783,1180.2959,620.05225,1186.505Q625.22614,1192.7142,624.6632,1201.3053 Z"/>
</g>
<g style="fill:rgb(60,70,79); fill-opacity:0.99607843; stroke-linejoin: miter">
<path d="M618.86334,1200.3406L618.561,1202.2412Q617.12085,1207.9365,612.3686,1210.9974Q607.5858,1214.0529,601.59064,1212.8478Q595.8954,1211.408,592.8344,1206.6558Q591.8547,1205.1204,591.28986,1203.3636L590.84406,1201.5697Q590.50946,1199.7297,590.6813,1197.778Q591.37683,1191.8037,595.7145,1188.1893Q600.05206,1184.575,606.0537,1184.9683Q612.02783,1185.6638,615.6423,1190.0016Q619.2568,1194.3391,618.86334,1200.3406 Z"/>
</g>
<g style="fill:rgb(22,23,24); fill-opacity:0.99607843; stroke-linejoin: miter">
<path d="M577.9003,1117.2185L580.59674,1116.5605L583.2931,1115.9026Q592.3103,1152.8507,601.3276,1189.7986Q598.63116,1190.4565,595.93494,1191.1147Q586.91754,1154.1666,577.9003,1117.2185 Z"/>
</g>
<g style="fill:rgb(22,23,24); fill-opacity:0.99607843; stroke-linejoin: miter">
<path d="M560.91455,1109.4578L578.82153,1109.4587L596.7286,1109.458Q596.7286,1113.5933,596.7286,1117.7289Q578.82153,1117.7289,560.91455,1117.7291Q560.91455,1113.5933,560.91455,1109.4578 Z"/>
</g>
<g style="fill:rgb(22,23,24); fill-opacity:0.99607843; stroke-linejoin: miter">
<path d="M556.53906,1120.9724L569.58594,1120.9734L582.6329,1120.9727Q582.6329,1123.6891,582.6329,1126.4054Q569.58594,1126.4054,556.53906,1126.4056Q556.53906,1123.6891,556.53906,1120.9724 Z"/>
</g>
<g style="fill:rgb(22,23,24); fill-opacity:0.99607843; stroke-linejoin: miter">
<path d="M565.3436,1124.1438L567.07153,1124.2113L568.7994,1124.279Q568.70764,1126.6265,568.6158,1128.9735Q566.8879,1128.906,565.16003,1128.8389Q565.2518,1126.4912,565.3436,1124.1438 Z"/>
</g>
<g style="fill:rgb(22,23,24); fill-opacity:0.99607843; stroke-linejoin: miter">
<path d="M563.3841,1128.2009L567.3495,1128.3563L571.31494,1128.5115Q571.27734,1129.4719,571.2398,1130.4327Q567.2744,1130.2776,563.3089,1130.1228Q563.3465,1129.162,563.3841,1128.2009 Z"/>
</g>
<g style="fill:rgb(22,23,24); fill-opacity:0.99607843; stroke-linejoin: miter">
<path d="M540.12537,1044.6213L540.12537,1044.6215L540.12537,1044.6216L540.12537,1044.6215L540.12537,1044.6213L540.12537,1044.6215L540.12537,1044.6216Q540.12537,1044.6215,540.12537,1044.6213 Z"/>
</g>
<g style="fill:rgb(255,178,152); fill-opacity:1.0; stroke-linejoin: miter">
<path d="M588.41296,1098.1482L589.94293,1101.4884Q594.6919,1111.0605,594.92676,1118.4553Q595.20154,1122.4718,593.3373,1132.1329L592.68854,1167.3623L600.1447,1209.866Q598.29425,1213.2954,596.6944,1213.8398Q595.40674,1214.5941,590.90704,1213.7588Q588.1421,1203.3094,586.2642,1197.7166Q585.7043,1195.2686,580.80304,1184.7115Q579.8264,1182.3721,579.204,1179.5358Q578.609,1176.643,578.43964,1172.984Q578.3292,1173.2826,578.1507,1157.3983Q578.1256,1154.3875,577.3959,1148.2687Q577.01196,1144.7275,575.03296,1135.2244L571.51874,1120.2332Q567.01184,1113.2874,565.02576,1109.0194Q563.6411,1105.7891,563.44775,1104.526Q563.0499,1102.7966,563.01514,1101.0104Q563.2731,1084.8943,578.7308,1074.8965Q580.7247,1076.8309,582.91345,1078.1337L591.03906,1082.164Q592.81244,1083.461,598.0669,1089.8739L588.41296,1098.1482 Z"/>
</g>
<g style="fill:rgb(255,255,255); fill-opacity:1.0; stroke-linejoin: miter">
<path d="M598.2368,1213.5052L598.2368,1213.5055Q597.7649,1209.7676,598.32336,1208.4696Q598.63605,1207.6241,599.2243,1207.112Q599.73566,1206.5964,600.6836,1206.593Q601.3823,1206.6147,602.3059,1207.516Q602.884,1207.991,604.6054,1210.5798L611.6315,1212.6064Q612.6825,1212.9193,613.54486,1213.2834Q615.31696,1214.0116,615.2131,1214.9956Q615.31165,1215.4666,614.15137,1217.0677L611.43115,1217.8356Q608.3932,1218.623,606.7216,1218.7325Q605.00745,1218.9185,601.4042,1218.8016Q598.8158,1220.4172,597.0348,1220.7751Q595.0362,1221.2473,592.13947,1221.0459Q590.8555,1220.9517,590.2231,1220.5808Q589.5529,1220.2065,589.2938,1219.1111Q588.8517,1216.9188,589.3244,1210.8395Q591.2291,1212.3942,592.98474,1212.038Q594.49695,1211.8511,598.71783,1209.0748L598.2368,1213.5052 Z"/>
</g>
<g style="fill:rgb(83,93,102); fill-opacity:0.99607843; stroke-linejoin: miter">
<path d="M609.78973,1198.5233L609.82086,1199.2189Q609.71564,1201.3445,608.1826,1202.7881Q606.638,1204.2324,604.3221,1204.2601Q602.09985,1204.1821,600.6055,1202.7317Q600.12634,1202.2627,599.78424,1201.6836L599.4836,1201.0822Q599.22076,1200.4563,599.1374,1199.7522Q598.9452,1197.5848,600.2825,1195.9763Q601.6199,1194.3679,603.8769,1194.0521Q606.1465,1193.8457,607.815,1195.1074Q609.4834,1196.3689,609.78973,1198.5233 Z"/>
</g>
<g style="fill:rgb(83,93,102); fill-opacity:0.99607843; stroke-linejoin: miter">
<path d="M603.7227,1201.3969L604.60754,1200.9253L605.4925,1200.4541Q607.9855,1205.1328,610.47845,1209.8114Q609.5936,1210.2831,608.7088,1210.7545L603.7227,1201.3969 Z"/>
</g>
<g style="fill:rgb(83,93,102); fill-opacity:0.99607843; stroke-linejoin: miter">
<path d="M564.92633,1153.4529L564.92633,1153.4531L564.92633,1153.4541L564.92633,1153.4531L564.92633,1153.4529L564.92633,1153.4531L564.92633,1153.4541Q564.92633,1153.4531,564.92633,1153.4529 Z"/>
</g>
<g style="fill:rgb(83,93,102); fill-opacity:0.99607843; stroke-linejoin: miter">
<path d="M607.7203,1207.7804L609.8943,1207.6753L612.06824,1207.5702Q612.33435,1213.0743,612.60034,1218.5782Q610.42645,1218.6836,608.2525,1218.789Q607.9864,1213.2845,607.7203,1207.7804 Z"/>
</g>
<g style="fill:rgb(83,93,102); fill-opacity:0.99607843; stroke-linejoin: miter">
<path d="M575.1395,1150.3572L575.1395,1150.3582L575.1395,1150.3574L575.1395,1150.3572L575.1395,1150.3582L575.1395,1150.3572L575.1395,1150.3574Q575.1395,1150.3572,575.1395,1150.3572 Z"/>
</g>
<g style="fill:rgb(83,93,102); fill-opacity:0.99607843; stroke-linejoin: miter">
<path d="M575.1395,1150.3572L575.1395,1150.3582L575.1395,1150.3574L575.1395,1150.3572L575.1395,1150.3582L575.1395,1150.3572L575.1395,1150.3574Q575.1395,1150.3572,575.1395,1150.3572 Z"/>
</g>
<g style="fill:rgb(64,74,83); fill-opacity:0.99607843; stroke-linejoin: miter">
<path d="M639.1213,1233.2686L730.54456,1233.2687L821.96796,1233.2688Q821.96796,1236.6497,821.96796,1240.0305Q730.54456,1240.0308,639.1213,1240.0308Q639.1213,1236.6497,639.1213,1233.2686 Z"/>
</g>
<g style="fill:rgb(255,0,0); fill-opacity:0.99607843; stroke-linejoin: miter">
<path d="M666.9783,983.5244L666.9783,983.5248L666.9783,983.5244L666.9783,983.5248 Z"/>
</g>
<g style="fill:rgb(7,2,0); fill-opacity:0.99607843; stroke-linejoin: miter">
<path d="M635.1095,1047.4641L635.1095,1047.4651L635.1095,1047.4642L635.1095,1047.4641 Z"/>
</g>
<g style="fill:rgb(58,105,116); fill-opacity:1.0; stroke-linejoin: miter">
<path d="M575.8916,1074.1019L575.05347,1075.2461L567.46326,1085.5375Q565.3992,1088.6323,564.6658,1090.2137Q561.91504,1095.9739,561.93884,1100.4302Q561.8122,1104.1372,563.3678,1107.909Q563.55005,1108.538,565.2743,1111.6461Q570.2834,1119.662,570.4328,1120.2255Q570.8462,1120.8369,571.9499,1123.8208Q573.3183,1127.405,573.48157,1135.5425L598.41785,1130.2617Q598.8891,1123.5822,598.015,1119.9984Q597.33905,1116.4581,593.7674,1108.8898L600.52966,1094.1793L575.8916,1074.1019 Z"/>
</g>
<g style="fill:rgb(255,0,10); fill-opacity:0.99607843; stroke-linejoin: miter">
<path d="M617.121,1122.7233L617.121,1122.7235L617.121,1122.7238L617.121,1122.7233 Z"/>
</g>
<g style="fill:rgb(255,255,255); fill-opacity:1.0; stroke-linejoin: miter">
<path d="M604.1536,1026.3569L604.5066,1025.7184Q605.8644,1023.27136,605.995,1022.45215Q606.0801,1022.2367,606.4282,1022.37134Q606.737,1022.4354,609.1413,1024.1008L618.67596,1030.8204L617.0916,1034.117L623.0267,1040.617Q629.4529,1051.4083,632.9526,1054.7263L620.9135,1067.1936L617.7877,1063.5652Q613.68036,1073.0598,611.2837,1076.7122Q609.1134,1080.361,602.19714,1088.4055Q600.8151,1090.3995,600.8174,1090.6642Q599.36816,1093.4819,603.999,1095.8221Q589.8462,1097.69,582.8523,1095.7476Q576.2984,1094.32,565.21765,1085.7174Q576.0732,1072.0985,581.59717,1062.6823L584.8747,1056.4192L591.4786,1041.2229Q593.42224,1037.3181,593.8707,1036.7902Q597.66156,1030.9563,604.1536,1026.3569 Z"/>
</g>
<g style="fill:rgb(255,255,255); fill-opacity:0.25882354; stroke-linejoin: miter">
<path d="M911.14685,941.3585L706.5521,1064.3568L501.95737,1187.3551Q706.95074,1187.4016,911.9441,1187.4482L911.14685,941.3585"/>
</g>
<g style="fill:rgb(214,128,91); fill-opacity:0.99607843; stroke-linejoin: miter">
<path d="M470.93274,1250.3069L703.51843,1250.3074L936.1041,1250.3079Q936.1041,1218.8551,936.1041,1187.4025Q703.51843,1187.403,470.93274,1187.4034Q470.93274,1218.8551,470.93274,1250.3069"/>
</g>
<g style="fill:rgb(21,68,81); fill-opacity:0.99607843; stroke-linejoin: miter">
<path d="M481.45724,928.46436L708.3419,928.46484L935.22656,928.46533Q935.22656,946.7925,935.22656,965.1196Q708.3419,965.1201,481.45724,965.1206Q481.45724,946.7925,481.45724,928.46436"/>
</g>
<g style="fill:rgb(102,232,56); fill-opacity:0.99607843; stroke-linejoin: miter">
<path d="M-232.13211,1177.4661L-240.87468,1178.0071Q-258.02722,1179.7212,-272.51923,1186.4941Q-279.7652,1189.8804,-286.34607,1194.5315Q-290.1271,1196.1415,-304.44217,1211.1802Q-309.72556,1217.4286,-313.7443,1224.3419Q-316.5441,1227.3827,-322.95508,1246.5786Q-327.39938,1262.1064,-325.98218,1281.4723L-138.4394,1281.4713Q-136.78632,1262.1068,-141.30923,1246.5786Q-141.57973,1242.2073,-150.52002,1224.3419Q-154.53876,1217.4286,-159.82217,1211.1802Q-187.51309,1178.665,-232.13211,1177.4661 Z"/>
</g>
<g style="fill:rgb(102,232,56); fill-opacity:0.99607843; stroke-linejoin: miter">
<path d="M-156.90079,1202.5289L-163.5366,1202.9396Q-176.55585,1204.2406,-187.55557,1209.3813Q-193.0555,1211.9519,-198.05054,1215.4822Q-200.92044,1216.7041,-211.78595,1228.1189Q-215.79617,1232.8615,-218.8465,1238.109Q-220.97159,1240.417,-225.8377,1254.9872Q-229.21106,1266.7732,-228.13528,1281.4723L-85.785614,1281.4714Q-84.53087,1266.7736,-87.96389,1254.987Q-88.169205,1251.6692,-94.95511,1238.109Q-98.00544,1232.8615,-102.015686,1228.1188Q-123.03381,1203.439,-156.90079,1202.5289 Z"/>
</g>
<g style="fill:rgb(102,232,56); fill-opacity:0.99607843; stroke-linejoin: miter">
<path d="M971.66595,1178.8168L962.92346,1179.3578Q945.771,1181.072,931.27905,1187.8448Q924.033,1191.2311,917.4523,1195.8823Q913.6712,1197.4923,899.3562,1212.531Q894.0729,1218.7793,890.05414,1225.6926Q887.25433,1228.7335,880.8433,1247.9293Q876.3991,1263.4572,877.8163,1282.823L1065.3582,1282.8221Q1067.0112,1263.4575,1062.4883,1247.9293Q1062.2178,1243.5581,1053.2776,1225.6926Q1049.2588,1218.7793,1043.9756,1212.531Q1016.2847,1180.0157,971.66595,1178.8168 Z"/>
</g>
<g style="fill:rgb(102,232,56); fill-opacity:0.99607843; stroke-linejoin: miter">
<path d="M1046.897,1203.8796L1040.2612,1204.2903Q1027.242,1205.5913,1016.24225,1210.7322Q1010.7424,1213.3026,1005.7474,1216.8329Q1002.8775,1218.0549,992.012,1229.4697Q988.0018,1234.2123,984.9515,1239.4597Q982.82635,1241.7678,977.96027,1256.3379Q974.587,1268.1239,975.6627,1282.823L1118.0117,1282.8223Q1119.2666,1268.1243,1115.8335,1256.3378Q1115.6279,1253.02,1108.8423,1239.4597Q1105.792,1234.2123,1101.7817,1229.4696Q1080.7637,1204.7898,1046.897,1203.8796 Z"/>
</g>
<g style="fill:rgb(242,208,87); fill-opacity:0.99607843; stroke-linejoin: miter">
<path d="M-137.25104,638.0491L415.38037,638.0496L968.0118,638.0501Q968.0118,579.06036,968.0118,520.0706Q415.38037,520.0711,-137.25104,520.0716Q-137.25104,579.06036,-137.25104,638.0491"/>
</g>
<g style="fill:rgb(255,255,255); fill-opacity:0.7058824; stroke-linejoin: miter">
<path d="M754.2593,336.09793C755.3242,331.8239,755.78973,327.42706,755.6441,322.98413C754.7756,296.71262,732.69714,276.0463,706.4257,276.9143C695.4964,277.2731,684.9456,281.4213,676.71625,288.59235C669.3975,294.96893,664.17566,303.48065,661.79895,312.81442C644.165,311.75235,628.6388,323.43253,624.2104,339.8779C621.5288,339.35944,618.79895,339.1428,616.057,339.2347C595.83856,339.9024,579.9286,356.7763,580.59595,376.9949C581.2642,397.21518,598.2525,413.0013,618.4718,412.33362L746.48694,408.10617C766.70605,407.438,782.61444,390.5637,781.9468,370.34445C781.4005,353.8027,769.9852,340.02844,754.2593,336.09793 Z"/>
</g>
</g>
</svg>