<?xml version="1.0" encoding="utf-8"?>
<svg xmlns="http://www.w3.org/2000/svg" xmlns:xlink="http://www.w3.org/1999/xlink" version= "1.1" width="462px" height="329px" viewBox="220 952 462 329">
<g id="layer1">
<g style="fill:rgb(0,174,199); fill-opacity:1.0; stroke-linejoin: miter">
<path d="M682.17505,953.6411L219.81491,953.64166L219.88887,1281.1439L682.001,1281.1829L682.17505,953.6411 Z"/>
</g>
<g style="fill:rgb(0,0,0); fill-opacity:0.4; stroke-linejoin: miter">
<path d="M591.42914,1251.0343L590.1241,1251.2247Q586.00385,1251.4603,574.8337,1251.5895Q569.2486,1251.6534,561.9008,1251.6913Q541.9899,1251.7621,535.89264,1251.7443Q515.77203,1251.7382,492.47604,1251.6198Q480.82834,1251.5607,468.38675,1251.4738Q436.58807,1251.2308,429.27585,1251.1488Q403.2555,1250.8893,381.86676,1250.5944Q356.14392,1250.2186,352.38892,1250.1329Q343.43137,1249.9728,335.63174,1249.8041Q300.80457,1249.0114,306.7112,1248.5199Q309.3078,1248.2723,319.5591,1248.1302Q324.68475,1248.0594,331.72415,1248.0148Q334.16113,1247.9757,356.92123,1247.9406Q394.7462,1247.9249,448.67334,1248.361Q475.63675,1248.5934,498.57327,1248.8715Q526.36273,1249.2289,530.7127,1249.3141Q540.67096,1249.4703,549.62225,1249.6383Q555.2941,1249.7255,572.17035,1250.1285Q578.2509,1250.2882,582.41754,1250.4415Q590.75104,1250.7494,591.42914,1251.0343 Z"/>
</g>
<g style="fill:rgb(0,0,0); fill-opacity:1.0; stroke-linejoin: miter">
<path d="M448.4376,1082.4812L449.2745,1082.4958Q452.21387,1082.5112,456.89493,1083.312Q459.18387,1083.4028,468.2692,1087.1831Q475.2623,1090.5955,480.68216,1096.2253Q486.28244,1101.9651,489.58835,1109.4844Q490.80948,1111.2024,492.89456,1120.6035Q493.49405,1124.4119,493.42325,1128.3552Q493.35043,1136.5122,490.32285,1144.1277Q486.2866,1152.9917,484.816,1154.2983Q482.5657,1157.397,479.76236,1160.1079Q467.01114,1172.4963,448.05405,1172.8933Q439.23804,1172.8276,431.79446,1169.7849Q422.89874,1165.731,421.5926,1164.2534Q418.48782,1161.9932,415.77713,1159.1777Q410.17682,1153.4314,406.86975,1145.9216Q405.26474,1142.3191,404.32996,1138.5801Q402.57965,1129.1123,403.034,1127.0554Q403.11658,1118.8872,406.11636,1111.2957Q407.53555,1107.6162,409.52203,1104.3135Q414.98514,1096.3862,416.75888,1095.2529Q429.74463,1082.8169,448.4376,1082.4812 M440.4362,1068.051L439.97772,1068.05Q401.68228,1070.5388,388.04413,1097.1401Q380.4418,1113.624,384.22736,1120.2937L367.15027,1141.5918Q363.2559,1146.9521,363.06128,1149.3252Q362.66302,1151.4272,365.27426,1153.4148Q368.97876,1156.1782,373.94495,1156.9243Q374.87082,1157.3765,375.16928,1158.3953Q375.56616,1158.6233,373.87714,1163.8076Q370.76172,1168.1628,371.2891,1168.3638Q370.59235,1169.8989,375.02768,1173.3657Q375.59464,1173.4941,372.31107,1177.0911Q371.96692,1177.5684,371.9743,1178.2041Q376.5854,1184.1333,376.1661,1185.7014L373.10675,1196.2693Q372.66318,1199.0653,373.2807,1200.3439Q376.85602,1207.3666,384.12497,1208.7242L407.74274,1209.3099Q409.2362,1210.7247,410.8787,1215.8849L411.80624,1219.7015L410.39893,1220.0355L411.86383,1223.8568L494.7286,1224.549Q491.18735,1217.7753,489.85733,1214.1066Q487.42184,1198.3068,487.65793,1186.4883Q488.11722,1181.7141,490.83725,1177.0305L503.5087,1157.6416Q506.62784,1150.6362,508.43088,1143.4966Q513.53235,1125.1665,507.20303,1106.0452Q492.22617,1069.2039,440.4362,1068.051 Z"/>
</g>
<g style="fill:rgb(0,0,0); fill-opacity:0.99607843; stroke-linejoin: miter">
<path d="M497.57053,1130.1055L497.03085,1137.2361Q493.43826,1158.7695,476.77316,1171.5586Q459.99353,1184.3364,437.4213,1181.7063Q415.88815,1178.1135,403.09906,1161.4485Q399.00177,1156.0618,396.37286,1149.7278L394.17334,1143.2205Q392.3719,1136.508,392.4118,1129.227Q393.16238,1106.8892,408.12262,1092.1765Q423.0828,1077.4644,445.4303,1077.0872Q467.76865,1077.8376,482.48087,1092.7976Q497.19333,1107.7576,497.57053,1130.1055 Z"/>
</g>
<g style="fill:rgb(0,0,0); fill-opacity:0.99607843; stroke-linejoin: miter">
<path d="M380.75732,1223.244L448.97562,1223.8141L517.1939,1224.3842Q517.0809,1237.914,516.96783,1251.4437Q448.7496,1250.8741,380.53134,1250.3046Q380.6443,1236.7745,380.75732,1223.244 Z"/>
</g>
<g style="fill:rgb(0,0,0); fill-opacity:0.99607843; stroke-linejoin: miter">
<path d="M412.21762,1203.0292L449.72684,1202.7482L487.23618,1202.4669Q487.27866,1208.1122,487.32108,1213.7572Q449.81165,1214.0392,412.3025,1214.3207Q412.26004,1208.6749,412.21762,1203.0292 Z"/>
</g>
<g style="fill:rgb(0,174,199); fill-opacity:1.0; stroke-linejoin: miter">
<path d="M381.2808,1043.1698L383.4752,1043.1703L385.6696,1043.1708Q385.6696,1042.8044,385.6696,1042.4382Q383.4752,1042.4387,381.2808,1042.4392Q381.2808,1042.8044,381.2808,1043.1698"/>
</g>
<g style="fill:rgb(0,174,199); fill-opacity:1.0; stroke-linejoin: miter">
<path d="M346.6287,1066.3684L441.36682,1066.3689L536.105,1066.3694Q536.105,1084.6295,536.105,1102.8896Q441.36682,1102.8901,346.6287,1102.8906Q346.6287,1084.6295,346.6287,1066.3684"/>
</g>
<g style="fill:rgb(146,159,168); fill-opacity:1.0; stroke-linejoin: miter">
<path d="M421.8852,1105.2352L420.30463,1102.4073L418.72397,1099.5803Q421.073,1098.2671,423.42142,1096.9534Q425.00223,1099.7817,426.5829,1102.609L421.8852,1105.2352 Z"/>
</g>
<g style="fill:rgb(253,217,8); fill-opacity:1.0; stroke-linejoin: miter">
<path d="M412.6287,1101.0112L412.67798,1099.481Q413.24625,1094.8416,416.69247,1091.9517Q420.1631,1089.0625,425.01575,1089.4153Q429.6551,1089.9835,432.5455,1093.4296Q433.472,1094.5436,434.09314,1095.8741L434.6239,1097.246Q435.07144,1098.6652,435.1303,1100.223Q435.1774,1105.0084,432.11353,1108.2941Q429.05008,1111.5802,424.2735,1111.8683Q419.4884,1111.9149,416.2026,1108.8518Q412.9169,1105.7878,412.6287,1101.0112 Z"/>
</g>
<g style="fill:rgb(255,183,13); fill-opacity:1.0; stroke-linejoin: miter">
<path d="M414.6207,1100.9094L414.66135,1099.6504Q415.12936,1095.8328,417.96478,1093.4539Q420.82086,1091.0771,424.81393,1091.3674Q428.6315,1091.8351,431.0099,1094.6705Q431.77228,1095.5875,432.28317,1096.6823L432.72012,1097.8109Q433.08853,1098.9789,433.13696,1100.2606Q433.17548,1104.1986,430.65457,1106.9022Q428.13376,1109.6068,424.2029,1109.8436Q420.26532,1109.882,417.56183,1107.3618Q414.85785,1104.8401,414.6207,1100.9094 Z"/>
</g>
<g style="fill:rgb(238,170,1); fill-opacity:1.0; stroke-linejoin: miter">
<path d="M422.82547,1094.312L422.84573,1095.2664Q422.05496,1095.6113,421.57156,1096.334Q421.0882,1097.0574,421.10773,1097.9692Q421.12015,1098.5537,421.35938,1099.0754Q421.59824,1099.5837,421.99103,1099.96Q422.384,1100.3367,422.916,1100.553Q423.43384,1100.7698,424.01794,1100.7578L424.10345,1100.7559Q424.27496,1100.7808,424.3918,1100.9067Q424.50845,1101.033,424.5124,1101.2177Q424.51663,1101.4174,424.37714,1101.5626Q424.23764,1101.7081,424.0382,1101.712Q423.83875,1101.7167,423.69327,1101.577Q423.54785,1101.4379,423.54346,1101.2384L421.17856,1101.289Q421.1884,1101.7448,421.3397,1102.1549Q421.4763,1102.5509,421.7262,1102.902Q421.96133,1103.2391,422.29486,1103.5028Q422.62808,1103.7518,423.0303,1103.9L423.05353,1104.9828L425.447,1104.9325L425.4211,1103.7213Q426.09695,1103.3363,426.4958,1102.6578Q426.8949,1101.9933,426.8774,1101.1675Q426.86487,1100.5833,426.62573,1100.061Q426.38684,1099.553,425.99393,1099.176Q425.60114,1098.7998,425.06897,1098.583Q424.55136,1098.3665,423.9672,1098.3784L423.88156,1098.3806Q423.71,1098.3552,423.59314,1098.2156Q423.47635,1098.0896,423.47272,1097.9185Q423.46838,1097.7188,423.60742,1097.5591Q423.7468,1097.4133,423.9464,1097.4094Q424.14575,1097.405,424.2915,1097.5588Q424.43716,1097.6985,424.44144,1097.8977L426.80646,1097.8472Q426.78873,1097.0212,426.36124,1096.3599Q425.9339,1095.6995,425.24213,1095.3438L425.21893,1094.2607 Z"/>
</g>
<g style="fill:rgb(253,217,8); fill-opacity:1.0; stroke-linejoin: miter">
<path d="M422.62738,1094.4358L422.64783,1095.3904Q421.8572,1095.7351,421.37354,1096.4585Q420.89017,1097.1812,420.9098,1098.0933Q420.9224,1098.6775,421.1614,1099.1997Q421.40042,1099.7075,421.79333,1100.0837Q422.18607,1100.4607,422.71808,1100.6775Q423.2358,1100.894,423.81985,1100.8813L423.90536,1100.8799Q424.077,1100.9045,424.1938,1101.0305Q424.31042,1101.1562,424.31424,1101.3412Q424.31854,1101.5409,424.17923,1101.6862Q424.03967,1101.8319,423.84018,1101.8358Q423.64105,1101.84,423.49536,1101.7013Q423.34982,1101.5616,423.34558,1101.3619L420.98047,1101.4127Q420.99042,1101.8688,421.1417,1102.2789Q421.27832,1102.6749,421.5283,1103.0258Q421.76352,1103.3629,422.097,1103.6266Q422.43033,1103.8761,422.8324,1104.0236L422.85556,1105.1068L425.2491,1105.0558L425.22302,1103.8451Q425.89908,1103.4601,426.29797,1102.7816Q426.69714,1102.1171,426.67932,1101.2911Q426.66705,1100.7075,426.42783,1100.1848Q426.18896,1099.6768,425.79602,1099.3003Q425.40317,1098.9241,424.87122,1098.707Q424.35333,1098.4895,423.7691,1098.5024L423.68362,1098.5042Q423.51196,1098.4795,423.39517,1098.3394Q423.2784,1098.2136,423.27463,1098.0425Q423.2703,1097.843,423.40955,1097.6833Q423.54904,1097.5374,423.74838,1097.5332Q423.9478,1097.529,424.0937,1097.6829Q424.23907,1097.8223,424.24353,1098.022L426.60852,1097.9722Q426.5909,1097.145,426.16336,1096.4841Q425.73602,1095.8232,425.04422,1095.4675L425.021,1094.3845 Z"/>
</g>
<g style="fill:rgb(146,159,168); fill-opacity:1.0; stroke-linejoin: miter">
<path d="M439.82452,1103.3965L438.24405,1100.5695L436.66327,1097.7413Q439.01205,1096.4283,441.36084,1095.1151Q442.94153,1097.943,444.5222,1100.7701L439.82452,1103.3965 Z"/>
</g>
<g style="fill:rgb(253,217,8); fill-opacity:1.0; stroke-linejoin: miter">
<path d="M430.56796,1099.1725L430.61713,1097.6422Q431.18573,1093.0033,434.63177,1090.1129Q438.10233,1087.224,442.95505,1087.5768Q447.59445,1088.1454,450.48474,1091.5911Q451.4113,1092.7048,452.03253,1094.0361L452.56335,1095.4075Q453.01083,1096.8267,453.0697,1098.3848Q453.11667,1103.1699,450.05292,1106.4558Q446.9894,1109.7415,442.21283,1110.0298Q437.4276,1110.0762,434.1419,1107.0131Q430.85614,1103.9491,430.56796,1099.1725 Z"/>
</g>
<g style="fill:rgb(255,183,13); fill-opacity:1.0; stroke-linejoin: miter">
<path d="M432.55997,1099.0709L432.60062,1097.8116Q433.06863,1093.994,435.90408,1091.6154Q438.76016,1089.2386,442.7533,1089.5287Q446.57092,1089.9965,448.9493,1092.8323Q449.71152,1093.7495,450.22263,1094.8438L450.65945,1095.9727Q451.02783,1097.1401,451.0764,1098.4226Q451.11478,1102.3601,448.59393,1105.064Q446.07312,1107.7678,442.14243,1108.0056Q438.20468,1108.0437,435.5012,1105.5228Q432.79703,1103.0018,432.55997,1099.0709 Z"/>
</g>
<g style="fill:rgb(238,170,1); fill-opacity:1.0; stroke-linejoin: miter">
<path d="M440.76477,1092.473L440.7851,1093.4281Q439.99432,1093.7726,439.51093,1094.4955Q439.02753,1095.2186,439.04688,1096.1305Q439.05936,1096.7147,439.29868,1097.2367Q439.53754,1097.7448,439.93033,1098.1217Q440.3234,1098.4982,440.85535,1098.715Q441.3733,1098.9318,441.9573,1098.9193L442.04282,1098.9176Q442.2144,1098.9425,442.33118,1099.068Q442.44775,1099.1942,442.4516,1099.3793Q442.456,1099.5785,442.31644,1099.7245Q442.17712,1099.8698,441.97757,1099.8737Q441.77817,1099.8785,441.6327,1099.7386Q441.4872,1099.5992,441.48288,1099.4003L439.11798,1099.4508Q439.12787,1099.9061,439.27905,1100.3165Q439.41565,1100.7123,439.66562,1101.0636Q439.90057,1101.4006,440.23425,1101.6643Q440.56744,1101.9138,440.9696,1102.062L440.9928,1103.1443L443.3862,1103.0938L443.3604,1101.8826Q444.03625,1101.498,444.43515,1100.8195Q444.8342,1100.1549,444.8167,1099.3285Q444.8043,1098.7448,444.56503,1098.2225Q444.32614,1097.714,443.9331,1097.3375Q443.5403,1096.9608,443.00824,1096.7445Q442.4905,1096.5275,441.9064,1096.5399L441.82083,1096.5416Q441.64932,1096.5165,441.53235,1096.3766Q441.41556,1096.2511,441.41193,1096.08Q441.40787,1095.8802,441.5469,1095.7206Q441.6862,1095.5753,441.8858,1095.5707Q442.08517,1095.5665,442.23083,1095.7203Q442.37653,1095.86,442.3807,1096.0592L444.74576,1096.0089Q444.728,1095.1823,444.30066,1094.5214Q443.8732,1093.861,443.18143,1093.5045L443.1583,1092.422 Z"/>
</g>
<g style="fill:rgb(253,217,8); fill-opacity:1.0; stroke-linejoin: miter">
<path d="M440.56674,1092.5973L440.58728,1093.5519Q439.79645,1093.8966,439.313,1094.6198Q438.82944,1095.3427,438.8489,1096.2545Q438.8615,1096.8385,439.1007,1097.361Q439.33966,1097.8688,439.73276,1098.2457Q440.1253,1098.6222,440.65753,1098.8387Q441.1752,1099.0555,441.75937,1099.0433L441.8448,1099.0419Q442.01636,1099.0665,442.1331,1099.1923Q442.24973,1099.3182,442.25366,1099.5028Q442.25797,1099.7023,442.11868,1099.8483Q441.9791,1099.9933,441.77963,1099.9979Q441.58032,1100.0021,441.43478,1099.8629Q441.28925,1099.7235,441.28494,1099.5236L438.91983,1099.5748Q438.92978,1100.0304,439.08112,1100.4408Q439.2178,1100.8368,439.4677,1101.1874Q439.70288,1101.5242,440.03622,1101.7886Q440.36957,1102.0376,440.7717,1102.1855L440.7949,1103.2683L443.1884,1103.217L443.16232,1102.0066Q443.83838,1101.6216,444.2374,1100.9432Q444.6365,1100.2789,444.61868,1099.4525Q444.6064,1098.8688,444.36707,1098.3461Q444.1282,1097.8378,443.73526,1097.4615Q443.3424,1097.0848,442.81046,1096.8683Q442.2926,1096.651,441.70837,1096.6642L441.62283,1096.6654Q441.45117,1096.641,441.33438,1096.5009Q441.21768,1096.3751,441.21396,1096.2042Q441.20972,1096.0048,441.34888,1095.8448Q441.48843,1095.6991,441.68787,1095.695Q441.8872,1095.6906,442.03314,1095.8444Q442.17834,1095.984,442.18268,1096.1832L444.54773,1096.1327Q444.53024,1095.306,444.10278,1094.6456Q443.67526,1093.985,442.9836,1093.6293L442.96036,1092.546 Z"/>
</g>
<g style="fill:rgb(146,159,168); fill-opacity:1.0; stroke-linejoin: miter">
<path d="M459.16403,1105.9362L457.58344,1103.1083L456.00278,1100.2805Q458.35175,1098.9678,460.70023,1097.654Q462.28098,1100.4822,463.86176,1103.3094L459.16403,1105.9362 Z"/>
</g>
<g style="fill:rgb(253,217,8); fill-opacity:1.0; stroke-linejoin: miter">
<path d="M449.9076,1101.7122L449.95688,1100.1819Q450.52527,1095.5422,453.9715,1092.6521Q457.4419,1089.7625,462.29462,1090.1157Q466.93396,1090.684,469.82443,1094.1302Q470.7509,1095.2448,471.37207,1096.5751L471.90292,1097.9471Q472.35052,1099.3663,472.4093,1100.9237Q472.4564,1105.7091,469.39246,1108.995Q466.329,1112.2806,461.55234,1112.5692Q456.7672,1112.6156,453.48145,1109.5522Q450.1958,1106.4888,449.9076,1101.7122 Z"/>
</g>
<g style="fill:rgb(255,183,13); fill-opacity:1.0; stroke-linejoin: miter">
<path d="M451.89957,1101.6101L451.94028,1100.3511Q452.40823,1096.5332,455.2437,1094.1548Q458.09973,1091.7776,462.09286,1092.0679Q465.91037,1092.5355,468.2887,1095.371Q469.05103,1096.2885,469.5622,1097.3829L469.99915,1098.5123Q470.36743,1099.6796,470.416,1100.9618Q470.45447,1104.8995,467.93347,1107.6031Q465.4126,1110.3073,461.48184,1110.5443Q457.54413,1110.5826,454.8407,1108.062Q452.1367,1105.5413,451.89957,1101.6101 Z"/>
</g>
<g style="fill:rgb(238,170,1); fill-opacity:1.0; stroke-linejoin: miter">
<path d="M460.10434,1095.0127L460.12454,1095.967Q459.33377,1096.3118,458.8504,1097.0349Q458.367,1097.758,458.38654,1098.6694Q458.3989,1099.2542,458.63824,1099.7759Q458.8771,1100.2842,459.2699,1100.6609Q459.6629,1101.0374,460.1948,1101.2538Q460.71274,1101.4703,461.2967,1101.4584L461.38226,1101.4564Q461.55377,1101.4813,461.6705,1101.607Q461.7872,1101.7333,461.7912,1101.9181Q461.79532,1102.1178,461.65582,1102.2631Q461.5165,1102.4088,461.31702,1102.413Q461.1176,1102.4171,460.97214,1102.278Q460.82666,1102.1385,460.82227,1101.9388L458.45737,1101.9896Q458.4672,1102.4454,458.6185,1102.8556Q458.75516,1103.2513,459.00507,1103.6027Q459.24014,1103.9398,459.5736,1104.2035Q459.9069,1104.453,460.30917,1104.601L460.33237,1105.6835L462.7257,1105.6332L462.6998,1104.4218Q463.37582,1104.0367,463.7746,1103.3583Q464.1737,1102.6937,464.15616,1101.8676Q464.14374,1101.2836,463.90448,1100.7615Q463.6657,1100.2534,463.27252,1099.8765Q462.87988,1099.5002,462.34772,1099.2837Q461.83005,1099.0669,461.24588,1099.0793L461.16037,1099.0813Q460.98886,1099.0559,460.87195,1098.9163Q460.75525,1098.7903,460.75146,1098.6191Q460.74734,1098.4197,460.8863,1098.26Q461.02573,1098.1143,461.22534,1098.1104Q461.4247,1098.1057,461.57037,1098.2595Q461.7159,1098.3992,461.72025,1098.5984L464.08548,1098.5476Q464.06754,1097.7217,463.64,1097.0605Q463.2126,1096.3999,462.52087,1096.0442L462.49774,1094.9612 Z"/>
</g>
<g style="fill:rgb(253,217,8); fill-opacity:1.0; stroke-linejoin: miter">
<path d="M459.9063,1095.1365L459.92657,1096.0908Q459.13596,1096.4358,458.65247,1097.1587Q458.16907,1097.8821,458.1885,1098.7942Q458.20108,1099.3779,458.44028,1099.9004Q458.6793,1100.4082,459.0722,1100.7847Q459.46487,1101.1611,459.9969,1101.3778Q460.51465,1101.5948,461.09866,1101.5824L461.18417,1101.5802Q461.35583,1101.6051,461.4726,1101.7311Q461.58926,1101.8568,461.59317,1102.0419Q461.59747,1102.2413,461.45813,1102.3868Q461.31848,1102.5326,461.11908,1102.537Q460.91986,1102.5406,460.77432,1102.402Q460.6287,1102.2623,460.6244,1102.0626L458.25928,1102.1134Q458.26923,1102.5695,458.42056,1102.9796Q458.55728,1103.3754,458.80704,1103.7264Q459.0424,1104.0636,459.3758,1104.3275Q459.70914,1104.577,460.11124,1104.7247L460.13446,1105.8082L462.5279,1105.7565L462.5019,1104.5453Q463.17783,1104.1605,463.57672,1103.4818Q463.97595,1102.8175,463.95816,1101.9918Q463.94586,1101.4078,463.7067,1100.8853Q463.46777,1100.3772,463.07486,1100.0007Q462.68192,1099.6243,462.14996,1099.4075Q461.63217,1099.1904,461.04797,1099.2031L460.96243,1099.2048Q460.79077,1099.1802,460.674,1099.04Q460.55728,1098.9143,460.5535,1098.7439Q460.54916,1098.5437,460.68848,1098.3843Q460.8279,1098.2385,461.02725,1098.2341Q461.22662,1098.2297,461.37262,1098.3838Q461.51797,1098.523,461.52228,1098.7227L463.88733,1098.6726Q463.86972,1097.8457,463.44214,1097.1846Q463.01477,1096.5239,462.32297,1096.168L462.29987,1095.085 Z"/>
</g>
<g style="fill:rgb(146,159,168); fill-opacity:1.0; stroke-linejoin: miter">
<path d="M474.92636,1101.3649L473.3458,1098.5372L471.7652,1095.7096Q474.11398,1094.3961,476.46262,1093.0834Q478.04324,1095.911,479.624,1098.7386L474.92636,1101.3649 Z"/>
</g>
<g style="fill:rgb(253,217,8); fill-opacity:1.0; stroke-linejoin: miter">
<path d="M465.66953,1097.1407L465.71887,1095.6105Q466.2874,1090.9708,469.7337,1088.0808Q473.2041,1085.1914,478.05685,1085.5446Q482.69626,1086.1134,485.58658,1089.5591Q486.51297,1090.6733,487.1342,1092.0039L487.66507,1093.376Q488.11258,1094.7947,488.1713,1096.353Q488.21835,1101.1384,485.15457,1104.4236Q482.09134,1107.7095,477.31473,1107.9978Q472.5296,1108.0448,469.24377,1104.9813Q465.95782,1101.9174,465.66953,1097.1407 Z"/>
</g>
<g style="fill:rgb(255,183,13); fill-opacity:1.0; stroke-linejoin: miter">
<path d="M467.66153,1097.039L467.70233,1095.7794Q468.17038,1091.9618,471.00604,1089.5836Q473.862,1087.2063,477.855,1087.4965Q481.67264,1087.9642,484.05112,1090.8007Q484.81332,1091.7175,485.3245,1092.8118L485.76126,1093.9412Q486.12955,1095.1084,486.1779,1096.3901Q486.21646,1100.3281,483.6956,1103.0317Q481.17502,1105.7358,477.24423,1105.9731Q473.3066,1106.0116,470.60284,1103.4906Q467.89874,1100.9698,467.66153,1097.039 Z"/>
</g>
<g style="fill:rgb(238,170,1); fill-opacity:1.0; stroke-linejoin: miter">
<path d="M475.86667,1090.4415L475.88693,1091.3959Q475.09616,1091.7411,474.61276,1092.4635Q474.12943,1093.1869,474.14883,1094.0983Q474.1611,1094.6827,474.40048,1095.205Q474.63937,1095.7133,475.032,1096.0895Q475.42514,1096.466,475.95694,1096.6827Q476.47495,1096.8998,477.059,1096.8873L477.1445,1096.8854Q477.31595,1096.9103,477.4327,1097.036Q477.54935,1097.162,477.55325,1097.347Q477.55765,1097.5468,477.418,1097.692Q477.27878,1097.8378,477.0793,1097.8419Q476.87985,1097.8463,476.73434,1097.7067Q476.5889,1097.567,476.58456,1097.368L474.21957,1097.4183Q474.22952,1097.8741,474.3809,1098.2845Q474.51736,1098.6808,474.76736,1099.0316Q475.00247,1099.3693,475.33597,1099.6327Q475.66922,1099.8822,476.07138,1100.0299L476.09464,1101.1127L478.48807,1101.0624L478.46225,1099.8507Q479.13797,1099.466,479.5369,1098.7872Q479.936,1098.1227,479.9183,1097.2965Q479.90585,1096.7123,479.66666,1096.1901Q479.4279,1095.6823,479.03488,1095.3055Q478.64194,1094.9293,478.10995,1094.7125Q477.59225,1094.4952,477.00815,1094.5082L476.92276,1094.5099Q476.75107,1094.4847,476.63412,1094.3448Q476.5173,1094.2189,476.51376,1094.048Q476.50955,1093.8483,476.6486,1093.6886Q476.78812,1093.5431,476.98758,1093.539Q477.18692,1093.5345,477.33267,1093.6886Q477.47818,1093.8278,477.4825,1094.0272L479.84756,1093.9772Q479.82974,1093.1505,479.40237,1092.4896Q478.97495,1091.8287,478.28323,1091.473L478.26004,1090.3905 Z"/>
</g>
<g style="fill:rgb(253,217,8); fill-opacity:1.0; stroke-linejoin: miter">
<path d="M475.6686,1090.5658L475.68912,1091.5201Q474.8984,1091.8644,474.41476,1092.5878Q473.9313,1093.3104,473.9507,1094.2228Q473.96335,1094.8065,474.20236,1095.3287Q474.44156,1095.837,474.83438,1096.2133Q475.22696,1096.5905,475.75912,1096.8065Q476.27682,1097.0238,476.86087,1097.0111L476.94644,1097.0096Q477.11807,1097.034,477.2349,1097.16Q477.35153,1097.2858,477.35538,1097.4708Q477.35965,1097.6703,477.2203,1097.816Q477.0809,1097.9618,476.88144,1097.966Q476.68216,1097.9701,476.53653,1097.8309Q476.3909,1097.6913,476.38657,1097.4916L474.02158,1097.5424Q474.03152,1097.9984,474.18283,1098.4086Q474.3196,1098.8046,474.56943,1099.1552Q474.80466,1099.4928,475.1381,1099.7565Q475.4714,1100.006,475.87357,1100.1539L475.89664,1101.2366L478.29013,1101.1854L478.2642,1099.9745Q478.94022,1099.5897,479.3392,1098.911Q479.7383,1098.2474,479.72037,1097.4208Q479.70816,1096.8363,479.46872,1096.3143Q479.23007,1095.806,478.83707,1095.4298Q478.44418,1095.0531,477.91226,1094.8363Q477.39444,1094.6195,476.81027,1094.632L476.72458,1094.6334Q476.55307,1094.609,476.4363,1094.4686Q476.31955,1094.3429,476.31577,1094.1722Q476.31155,1093.9728,476.45065,1093.8129Q476.59012,1093.6671,476.78952,1093.6635Q476.98892,1093.6588,477.1348,1093.8124Q477.28018,1093.952,477.28458,1094.1515L479.64957,1094.101Q479.63205,1093.2745,479.20456,1092.6139Q478.777,1091.9528,478.08536,1091.5973L478.06216,1090.5143 Z"/>
</g>
<g style="fill:rgb(146,159,168); fill-opacity:1.0; stroke-linejoin: miter">
<path d="M485.35184,1106.396L483.77115,1103.5681L482.19058,1100.7411Q484.5394,1099.428,486.8879,1098.1147Q488.46878,1100.9424,490.04953,1103.7698L485.35184,1106.396 Z"/>
</g>
<g style="fill:rgb(253,217,8); fill-opacity:1.0; stroke-linejoin: miter">
<path d="M476.09537,1102.1721L476.14468,1100.642Q476.71298,1096.0026,480.1592,1093.1119Q483.62973,1090.2233,488.4824,1090.5764Q493.12198,1091.1445,496.01212,1094.5903Q496.9387,1095.7046,497.55978,1097.0352L498.0906,1098.407Q498.53806,1099.8262,498.5969,1101.3839Q498.644,1106.1691,495.58023,1109.455Q492.517,1112.7407,487.7404,1113.0293Q482.955,1113.0757,479.66922,1110.0127Q476.38358,1106.9487,476.09537,1102.1721 Z"/>
</g>
<g style="fill:rgb(255,183,13); fill-opacity:1.0; stroke-linejoin: miter">
<path d="M478.0872,1102.0703L478.12802,1100.8112Q478.59598,1096.993,481.43143,1094.6146Q484.2875,1092.2377,488.2805,1092.5281Q492.09836,1092.9958,494.4766,1095.8315Q495.2388,1096.7485,495.74997,1097.8433L496.18692,1098.9724Q496.5552,1100.1399,496.6036,1101.4215Q496.64224,1105.3595,494.12125,1108.0631Q491.60062,1110.7676,487.66977,1111.0051Q483.73203,1111.0427,481.02847,1108.522Q478.3245,1106.0015,478.0872,1102.0703 Z"/>
</g>
<g style="fill:rgb(238,170,1); fill-opacity:1.0; stroke-linejoin: miter">
<path d="M486.29196,1095.4727L486.31223,1096.4275Q485.5214,1096.772,485.038,1097.4949Q484.55466,1098.2183,484.5742,1099.1301Q484.58658,1099.7144,484.8259,1100.2361Q485.06485,1100.7444,485.45755,1101.1208Q485.85062,1101.4978,486.38254,1101.7141Q486.90054,1101.9312,487.4847,1101.9187L487.5701,1101.917Q487.7416,1101.9417,487.85837,1102.0674Q487.975,1102.1934,487.9789,1102.3784Q487.98325,1102.5781,487.8436,1102.7234Q487.70438,1102.8694,487.50497,1102.8733Q487.30545,1102.8777,487.15994,1102.7378Q487.01437,1102.5984,487.01004,1102.3994L484.6451,1102.4495Q484.655,1102.9055,484.80624,1103.3159Q484.94302,1103.7117,485.19284,1104.063Q485.42795,1104.4001,485.76144,1104.6638Q486.0947,1104.9133,486.49698,1105.061L486.52023,1106.144L488.91354,1106.0935L488.8878,1104.8821Q489.5637,1104.4971,489.96243,1103.8186Q490.36148,1103.154,490.34396,1102.3276Q490.3314,1101.7437,490.09213,1101.2217Q489.85342,1100.7139,489.46042,1100.3369Q489.0676,1099.9604,488.5356,1099.7441Q488.0178,1099.5269,487.4337,1099.5396L487.34818,1099.5415Q487.17648,1099.5161,487.0596,1099.3762Q486.9429,1099.2505,486.93924,1099.0796Q486.93503,1098.8799,487.074,1098.72Q487.21347,1098.5747,487.41318,1098.5703Q487.61258,1098.5664,487.75815,1098.7202Q487.90372,1098.8596,487.908,1099.0588L490.2731,1099.0085Q490.25534,1098.1821,489.82773,1097.5212Q489.4003,1096.8601,488.70865,1096.5044L488.68552,1095.4219 Z"/>
</g>
<g style="fill:rgb(253,217,8); fill-opacity:1.0; stroke-linejoin: miter">
<path d="M486.09396,1095.5969L486.11435,1096.5515Q485.32364,1096.8958,484.84,1097.6194Q484.35684,1098.3424,484.3763,1099.2543Q484.38895,1099.8383,484.6279,1100.3601Q484.86697,1100.8684,485.25986,1101.2449Q485.65256,1101.6216,486.18454,1101.8379Q486.70236,1102.0549,487.28653,1102.0427L487.37204,1102.041Q487.54367,1102.0654,487.66037,1102.1914Q487.77713,1102.3171,487.78098,1102.5024Q487.7853,1102.7017,487.6459,1102.8477Q487.50632,1102.9929,487.30685,1102.9973Q487.10757,1103.0015,486.962,1102.8623Q486.81638,1102.7224,486.81216,1102.523L484.4471,1102.5737Q484.45712,1103.0295,484.60825,1103.4397Q484.74496,1103.8357,484.99503,1104.1865Q485.23013,1104.5237,485.56357,1104.7876Q485.897,1105.0371,486.2991,1105.185L486.32224,1106.2678L488.7158,1106.2166L488.68985,1105.0061Q489.3657,1104.6208,489.76468,1103.9424Q490.16367,1103.2778,490.14597,1102.4521Q490.1337,1101.8682,489.89438,1101.3455Q489.6555,1100.8376,489.2626,1100.4609Q488.86966,1100.0847,488.33768,1099.8682Q487.81998,1099.6506,487.23557,1099.6633L487.15018,1099.6648Q486.97842,1099.6401,486.86172,1099.5002Q486.74496,1099.3745,486.74118,1099.2036Q486.73697,1099.0042,486.87613,1098.8442Q487.0156,1098.6985,487.215,1098.6946Q487.4144,1098.6904,487.5604,1098.844Q487.70572,1098.9834,487.71005,1099.1831L490.07504,1099.1326Q490.05746,1098.3062,489.6298,1097.645Q489.20255,1096.9844,488.5107,1096.6284L488.48764,1095.5457 Z"/>
</g>
<g style="fill:rgb(255,183,159); fill-opacity:1.0; stroke-linejoin: miter">
<path d="M373.51816,1065.1073C373.40482,1063.7869,374.0402,1062.6213,375.5165,1061.4924C375.8917,1061.2078,376.27505,1060.8916,376.36978,1060.7827C376.4643,1060.6731,376.66583,1060.5166,376.81476,1060.426C376.96338,1060.3354,377.29065,1060.0493,377.54135,1059.7888C378.52283,1058.7681,378.9334,1058.3945,379.45566,1058.0676C379.75888,1057.876,380.20187,1057.5674,380.44833,1057.3755C380.69763,1057.1929,380.95837,1057.015,381.02612,1056.9916C381.10217,1056.9645,381.2784,1056.8173,381.43185,1056.6581C381.58517,1056.4994,381.74448,1056.3575,381.7953,1056.34C381.84598,1056.3221,381.9914,1056.195,382.1194,1056.045C382.25027,1055.9037,382.51917,1055.6945,382.72165,1055.5944C383.26428,1055.2992,384.19507,1054.6473,384.513,1054.3353C384.7979,1054.0638,385.74387,1053.1315,386.45847,1052.4329C386.67035,1052.2249,386.89056,1051.9856,386.93753,1051.9031C387.23572,1051.4263,388.70956,1050.3455,389.77335,1049.8284C390.13068,1049.6545,390.51825,1049.4327,390.62732,1049.337C390.74484,1049.2382,391.00064,1049.1005,391.20364,1049.0294C391.72842,1048.8441,393.97137,1047.597,394.26447,1047.3234C394.4013,1047.1981,394.7094,1046.9662,394.93945,1046.8087C395.16928,1046.6517,395.62384,1046.349,395.9494,1046.1393C396.272,1045.921,396.59708,1045.6825,396.66385,1045.6019C396.83664,1045.4174,398.28748,1044.649,399.22287,1044.253C400.11566,1043.8712,400.7679,1043.5084,401.1848,1043.1808C401.35553,1043.0443,401.63095,1042.8805,401.80026,1042.8212C401.96933,1042.7614,402.29562,1042.5802,402.52554,1042.423C402.75552,1042.266,403.34573,1041.9437,403.83844,1041.722C404.32828,1041.493,404.75577,1041.2758,404.7947,1041.224C404.85596,1041.1549,405.1287,1041.0111,406.91614,1040.1718C408.25845,1039.5272,408.67664,1039.0944,408.38223,1038.6371C408.26007,1038.452,407.49268,1038.0565,407.35742,1038.1044C407.3153,1038.1193,407.09863,1038.0719,406.88153,1037.9962C406.66486,1037.9203,406.30002,1037.8302,406.07516,1037.7858C405.36658,1037.6644,404.26035,1037.5219,404.07022,1037.5223C403.97363,1037.518,403.81747,1037.5067,403.73495,1037.4882C403.21643,1037.3668,401.86237,1037.33,401.3333,1037.421C401.10986,1037.462,400.74478,1037.5055,400.50922,1037.5116C399.85437,1037.5428,397.65298,1037.9097,397.1625,1038.0828C396.9139,1038.1606,396.54614,1038.2236,396.3363,1038.2219C395.16385,1038.188,394.60086,1038.2915,393.4373,1038.7681C390.7546,1039.8462,389.7241,1040.324,389.414,1040.604C389.2407,1040.7603,388.7832,1041.0547,388.40118,1041.2661C387.83304,1041.5706,387.6046,1041.6511,387.1319,1041.7129C386.39035,1041.8218,384.8469,1041.6528,384.07605,1041.3823C383.0769,1041.0308,382.3851,1040.228,382.31052,1039.3411C382.28027,1038.905,382.6528,1037.9648,382.8899,1037.8816C382.9661,1037.855,383.18152,1037.6836,383.36865,1037.5127C383.64493,1037.2441,383.94324,1037.0918,385.07318,1036.6267C385.83093,1036.3218,386.6558,1035.9358,386.90826,1035.761C387.16364,1035.5955,387.61346,1035.3608,387.91818,1035.2534C388.2227,1035.1458,388.72043,1034.8848,389.03445,1034.6694C389.3485,1034.4539,389.76175,1034.2227,389.9477,1034.157C390.1394,1034.0801,390.4491,1033.9326,390.6456,1033.8164C390.86465,1033.6819,391.38373,1033.5085,392.03082,1033.3469C392.90375,1033.1248,393.18845,1033.0149,393.89142,1032.6343C394.59122,1032.2449,395.4059,1031.9387,399.20197,1030.5916C404.4787,1028.7217,403.79694,1028.8383,405.93155,1029.3895C407.4561,1029.7748,407.59836,1029.8007,408.33234,1029.9127C408.6735,1029.964,409.30496,1030.055,409.7489,1030.1273C410.18973,1030.1906,410.62823,1030.2736,410.7282,1030.3143C410.81967,1030.3588,410.93924,1030.3734,410.98157,1030.3588C411.0321,1030.3407,411.2371,1030.3824,411.4397,1030.444C411.75073,1030.5436,412.9953,1030.8092,414.05408,1031.007C414.38995,1031.0695,416.15848,1031.2831,416.93427,1031.3522C417.58228,1031.409,418.2913,1031.3973,418.50278,1031.3225C418.59586,1031.29,418.8198,1031.2773,419.0127,1031.2856C419.19742,1031.2966,419.82047,1031.229,420.3948,1031.1313C421.30606,1030.9905,421.51218,1030.9275,421.92236,1030.6882C422.18896,1030.5273,422.57657,1030.3052,422.7987,1030.179C423.01227,1030.0562,423.2873,1029.8643,423.4072,1029.7461C423.52158,1029.6392,423.75958,1029.4507,423.92776,1029.334C424.09598,1029.218,424.46304,1028.9363,424.7484,1028.6937C425.02518,1028.4532,425.42593,1028.1598,425.63943,1028.037C426.03806,1027.7916,426.956,1027.0494,427.0581,1026.8807C427.09384,1026.8202,427.47427,1026.4962,427.8998,1026.1652C429.02838,1025.2917,429.29675,1025.0547,429.46347,1024.853C429.54108,1024.7498,429.7345,1024.5962,429.88318,1024.5056C430.03198,1024.4148,430.4092,1024.0825,430.72754,1023.77057C431.05112,1023.44635,431.3641,1023.17474,431.42337,1023.1541C431.48264,1023.13336,431.63342,1022.9943,431.75293,1022.8477C431.87256,1022.7005,432.00644,1022.56793,432.04883,1022.5533C432.2095,1022.49615,434.2345,1020.47003,434.26367,1020.3359C434.2769,1020.2929,434.40002,1020.18353,434.54337,1020.1043C434.83798,1019.91486,435.53906,1019.2586,435.66315,1019.04364C435.71005,1018.961,435.83527,1018.8305,435.94196,1018.75555C436.04816,1018.6796,436.21265,1018.4981,436.3099,1018.3692C436.4039,1018.23126,436.99728,1017.5943,437.6194,1016.956C439.30362,1015.231,439.62534,1014.794,440.9494,1012.42487C442.60657,1009.4628,442.93417,1008.52924,442.89984,1007.0286C442.88657,1006.5865,442.87698,1006.0191,442.8781,1005.7524C442.87366,1005.4969,442.86118,1004.9217,442.8478,1004.4792C442.84296,1004.0339,442.86124,1003.5994,442.8936,1003.502C442.93738,1003.4106,442.95245,1003.2911,442.9375,1003.2491C442.9226,1003.2067,443.1296,1002.6868,443.389,1002.10065C443.65692,1001.5118,443.86133,1001.01166,443.8493,1000.9777C443.84027,1000.95245,444.0527,1000.58295,444.32034,1000.1551C444.5829,999.73944,444.80045,999.3582,444.8053,999.3188C444.81027,999.279,445.05594,998.8691,445.36862,998.4068C445.67273,997.9476,446.0871,997.28766,446.27988,996.94366C446.47256,996.6004,446.7161,996.23834,446.8107,996.12885C447.13068,995.7686,448.43805,993.7292,448.76443,993.06244C448.90417,992.785,449.13556,992.36145,449.28735,992.1173C449.7484,991.3745,454.94916,987.3364,455.36002,988.2317C455.78217,989.13025,455.65613,989.8495,455.6865,989.8821C458.21143,992.63324,455.0587,994.4588,458.86377,1005.2553C462.5615,1015.7464,465.55435,1024.3461,465.52026,1024.3588C465.47803,1024.3734,465.4317,1024.4852,465.4199,1024.6129C465.39618,1024.7355,465.31992,1025.2472,465.23755,1025.7426C465.1583,1026.246,465.03738,1026.9833,464.98752,1027.3812C464.92923,1027.7823,464.84784,1028.1725,464.8064,1028.244C464.76514,1028.3156,464.73837,1028.4008,464.75333,1028.4435C464.77405,1028.5028,464.67242,1029.0234,464.5155,1029.6587C464.25052,1030.742,464.10696,1031.3059,464.044,1031.4514C463.94357,1031.7058,463.73438,1033.2446,463.7415,1033.6697C463.748,1033.8772,463.7412,1034.155,463.7155,1034.2974C463.69238,1034.4482,463.69238,1034.6099,463.70734,1034.6523C463.74017,1034.7454,463.58386,1036.3796,463.49857,1036.8667C463.47266,1037.0088,463.41412,1037.4097,463.36917,1037.7676C463.3243,1038.126,463.2306,1038.616,463.1722,1038.855C463.10544,1039.0974,463.04318,1039.4333,463.02365,1039.6213C463.00952,1039.7971,462.94467,1040.1528,462.88403,1040.4121C462.82306,1040.6714,462.72873,1041.1326,462.68582,1041.4424C462.6345,1041.7554,462.54874,1042.2139,462.4847,1042.4641C462.3806,1042.844,462.26175,1043.532,462.12213,1044.4854C462.04367,1045.0454,461.79184,1047.5698,461.81244,1047.6284C461.82758,1047.6714,461.80353,1047.7654,461.7539,1047.8398C461.70697,1047.9224,461.68164,1048.0935,461.68948,1048.2239C461.70575,1048.3516,461.6572,1048.9963,461.58633,1049.6584C461.50693,1050.324,461.45532,1050.96,461.45724,1051.0737C461.46216,1051.1958,461.4109,1051.5088,461.34152,1051.7705C461.2636,1052.0361,461.17548,1052.3523,461.1437,1052.478C461.03204,1052.9165,460.86093,1053.5375,460.70557,1054.0685C460.6281,1054.3622,460.48914,1054.858,460.4096,1055.1715C460.33832,1055.482,460.22098,1055.9323,460.1596,1056.1635C460.0983,1056.3942,460.01355,1056.7474,459.9772,1056.941C459.82156,1057.795,459.48438,1059.4833,459.38684,1059.9078C459.32602,1060.1674,459.2387,1060.5402,459.2024,1060.734C459.13443,1061.0812,458.89716,1061.9733,458.7779,1062.3102C458.74277,1062.3986,458.59424,1062.8407,458.4289,1063.2892C458.27173,1063.7343,458.1075,1064.2394,458.06207,1064.4076C457.88956,1065.1058,457.8497,1065.2626,457.8003,1065.5272C457.77722,1065.6781,457.71393,1065.9572,457.66052,1066.1569C457.61276,1066.3444,457.52515,1066.8514,457.46707,1067.2806C457.39368,1067.8014,457.24063,1068.3119,457.00275,1068.8241C456.537,1069.796,456.06387,1070.1818,454.50354,1070.8553C453.91486,1071.101,453.38324,1071.3741,453.3051,1071.4493C453.23828,1071.5297,452.93744,1071.7023,452.65338,1071.8407C452.0175,1072.1407,451.0136,1072.8278,450.88388,1073.0543C450.82867,1073.14,450.61908,1073.328,450.4143,1073.4764C448.87238,1074.5521,448.43872,1074.9144,447.9464,1075.4877C447.309,1076.2164,445.81128,1077.7426,445.28265,1078.1862C443.74463,1079.4889,443.18152,1079.754,442.4854,1079.5336C442.0545,1079.39,441.54428,1078.9137,441.4071,1078.5245C441.30267,1078.2289,440.78348,1077.7264,440.5505,1077.714C440.47098,1077.7035,439.6917,1077.9213,438.81665,1078.1918C437.11752,1078.7144,435.17603,1079.1704,434.32596,1079.2415C434.03992,1079.2661,433.67496,1079.3374,433.52283,1079.3911C432.98132,1079.582,432.02188,1079.3967,431.06015,1078.9084C430.5652,1078.6648,430.1467,1078.4219,430.13193,1078.3794C430.11395,1078.3289,429.9215,1078.1877,429.7005,1078.0464C429.49124,1077.9111,429.21857,1077.7317,429.1152,1077.654C429.0115,1077.5762,428.59744,1077.2656,428.1982,1076.9688C426.97107,1076.0509,426.72928,1075.8507,426.40604,1075.527C426.28177,1075.39,425.91208,1075.0165,425.59476,1074.7096C425.28302,1074.3915,425.0082,1074.098,424.9904,1074.047C424.95752,1073.9542,424.04227,1073.0306,423.35925,1072.4147C423.1343,1072.2089,422.58322,1071.6708,422.14163,1071.2269C421.69144,1070.7867,421.19794,1070.3048,421.0537,1070.1649C420.69064,1069.8363,420.4729,1069.2191,420.46585,1068.4698C420.4517,1067.809,420.5322,1066.8768,420.6243,1066.6259C420.692,1066.4403,420.92242,1064.6373,421.03036,1063.4865C421.06857,1063.0548,421.1095,1062.631,421.12775,1062.5482C421.14615,1062.4657,421.19107,1062.107,421.2276,1061.7523C421.2642,1061.3966,421.31396,1060.9989,421.33163,1060.8595C421.3574,1060.7169,421.42703,1060.2936,421.4882,1059.9008C421.54413,1059.5192,421.64038,1059.0096,421.7017,1058.7789C421.9284,1057.9379,421.9661,1057.3158,421.82547,1056.8895C421.66037,1056.3673,421.46793,1056.226,420.37967,1055.8107C419.6345,1055.5316,419.2448,1055.4781,418.23904,1055.5662C417.7122,1055.6094,415.9227,1056.3352,415.658,1056.6094C415.54095,1056.7363,415.0044,1057.2104,414.46182,1057.6685C413.9221,1058.134,413.24847,1058.7334,412.98077,1058.9988C412.70428,1059.2671,412.40265,1059.5449,412.30453,1059.6177C412.20654,1059.6902,411.96164,1059.9668,411.75897,1060.229C411.25098,1060.8926,411.22314,1060.9219,410.31958,1061.8386C409.25726,1062.927,409.05673,1063.1404,408.87378,1063.405C408.76572,1063.5571,408.279,1063.9568,407.58408,1064.468C407.33466,1064.6511,407.0458,1064.8572,406.94232,1064.9414C406.62585,1065.177,405.4805,1066.408,405.30133,1066.709C405.20468,1066.8662,404.9831,1067.1824,404.81082,1067.3955C404.6331,1067.6196,404.38303,1067.936,404.24713,1068.117C403.65073,1068.9075,403.3734,1069.281,403.31238,1069.3787C403.28522,1069.4358,403.17966,1069.5679,403.082,1069.6692C402.99292,1069.7671,402.80475,1070.0425,402.67838,1070.2778C402.43008,1070.7078,402.06778,1071.2439,401.6786,1071.7332C401.11765,1072.4348,400.8827,1072.794,400.61008,1073.2893C400.17896,1074.1167,399.4767,1075.2009,398.80542,1076.1038C398.1505,1076.9717,397.71753,1077.686,397.0773,1078.9194C396.85483,1079.3408,396.4688,1079.9995,396.21725,1080.3928C394.5447,1082.9604,393.96054,1083.9753,394.0321,1084.1782C394.07083,1084.2886,393.2852,1085.4592,392.97244,1085.7598C392.79672,1085.936,392.47025,1086.2507,392.24942,1086.4619C392.02902,1086.6729,391.78555,1086.8726,391.71786,1086.8962C391.65024,1086.9204,391.4147,1087.0889,391.19382,1087.2717C390.31253,1088.0101,388.79224,1088.527,387.79196,1088.4418C386.28864,1088.3058,384.99088,1086.7559,385.252,1085.418C385.35605,1084.877,385.7563,1083.8801,386.0494,1083.4438C386.17392,1083.2571,386.49026,1082.6699,386.75366,1082.1492C387.0255,1081.6252,387.37964,1080.9297,387.54153,1080.6067C387.70892,1080.2712,387.9634,1079.7249,388.09097,1079.3855C388.22714,1079.0427,388.51782,1078.4641,388.74442,1078.1086C388.96814,1077.7446,389.34756,1077.0397,389.5887,1076.5367C389.82434,1076.0448,390.19534,1075.3431,390.41342,1074.9905C390.76648,1074.3999,391.25607,1073.4949,391.6153,1072.7595C391.69217,1072.5996,391.83838,1072.367,391.9383,1072.2458C392.03552,1072.1167,392.1339,1071.9104,392.15457,1071.7803C392.2525,1071.1936,392.69092,1069.6313,392.89215,1069.123C393.56467,1067.4685,394.6116,1065.4731,395.1618,1064.7941C395.6927,1064.1405,396.82584,1062.0387,398.1463,1059.2809C398.96802,1057.5646,399.25745,1057.0631,399.9604,1056.1968C400.05487,1056.0869,400.37027,1055.7668,400.6664,1055.5007C401.99295,1054.2722,402.28445,1053.8845,402.1652,1053.5457C402.11725,1053.4104,402.01282,1053.2759,401.92734,1053.2493C401.6646,1053.1514,401.02097,1053.3496,400.29877,1053.7563C399.9112,1053.9788,399.2043,1054.2946,398.72208,1054.4647C398.2483,1054.6317,397.76935,1054.838,397.66864,1054.931C397.56522,1055.0153,397.06747,1055.2758,396.56073,1055.5116C396.05414,1055.7474,395.32596,1056.1371,394.95255,1056.3732C394.56787,1056.6041,394.11243,1056.85,393.92636,1056.9156C393.74,1056.9813,393.324,1057.2042,392.99292,1057.4257C392.66724,1057.6356,391.9288,1058.076,391.36377,1058.3893C390.24246,1059.0131,389.9055,1059.2174,389.56097,1059.4816C389.43503,1059.5831,389.0257,1059.8795,388.65604,1060.1527C388.27466,1060.4203,387.8745,1060.7418,387.74902,1060.872C387.6289,1060.9901,387.39105,1061.1788,387.22815,1061.2836C386.52362,1061.713,385.6344,1062.3212,385.5175,1062.4476C385.45068,1062.5287,385.11362,1062.7328,384.78467,1062.9059C384.4442,1063.0734,384.06238,1063.3129,383.9311,1063.4252C383.81107,1063.5441,383.5164,1063.733,383.29984,1063.8478C383.058,1063.9713,382.5685,1064.3907,382.08618,1064.8839C381.5873,1065.412,381.11176,1065.8175,380.80817,1065.9816C380.52997,1066.1366,379.58517,1066.4789,378.49872,1066.8239C376.71234,1067.3961,376.6416,1067.4113,376.06195,1067.3593C375.34,1067.2804,374.558,1066.8431,374.01303,1066.1888C373.63367,1065.732,373.5543,1065.5607,373.51816,1065.1073L373.5176,1065.1053 Z M432.071,1068.3359C432.34796,1068.6096,432.6336,1068.8799,432.69983,1068.9324C433.1551,1069.3337,433.55438,1069.792,433.7417,1070.1345C434.11426,1070.8403,434.53906,1071.1287,435.36063,1071.2192C436.1453,1071.3142,436.90927,1071.3491,437.02765,1071.3074C437.08704,1071.2869,437.40988,1071.2585,437.73325,1071.2585C438.3659,1071.2454,438.84525,1071.4185,439.45187,1071.8701C440.24524,1072.4753,441.1339,1072.9995,441.32953,1072.9878C441.83963,1072.9507,442.08954,1072.4727,442.24777,1071.2749C442.34555,1070.5271,442.7686,1069.7031,443.63934,1068.5303C443.78384,1068.3464,444.20703,1067.5505,444.591,1066.7776C444.97528,1066.0044,445.38754,1065.2319,445.5093,1065.065C445.9865,1064.4214,446.37692,1064.0173,446.5717,1063.949C447.06232,1063.7759,447.26056,1063.5823,447.36172,1063.1946C447.41757,1062.9753,447.44647,1062.6799,447.43268,1062.5322C447.4005,1062.3064,447.42438,1062.0503,447.59567,1060.782C447.62384,1060.6199,447.68967,1060.3208,447.75165,1060.1177C447.8135,1059.9155,447.90158,1059.5989,447.94098,1059.4138C447.98038,1059.2292,448.09167,1058.7615,448.18964,1058.3652C448.42142,1057.4849,448.72253,1055.8284,448.6837,1055.7185C448.66592,1055.6677,448.6953,1055.5623,448.742,1055.4788C448.89096,1055.227,448.51453,1054.294,448.0873,1053.8645C447.7782,1053.5547,446.80084,1052.9673,445.83676,1052.4982C445.67938,1052.43,445.25842,1052.2076,444.9063,1052.0175C444.55402,1051.828,443.8077,1051.4918,443.2618,1051.266C442.71072,1051.0511,442.2078,1050.8385,442.14752,1050.8026C441.65796,1050.5472,439.4194,1049.8898,438.87415,1049.8539C438.4704,1049.8156,437.9803,1050.017,437.81735,1050.2831C437.7373,1050.4069,437.4324,1050.838,437.1356,1051.2369C436.83887,1051.6364,436.57294,1052.0155,436.52866,1052.0785C436.17014,1052.6803,435.74896,1053.2665,435.42035,1053.63C435.20023,1053.8693,434.9808,1054.1368,434.92526,1054.223C434.88135,1054.3146,434.79785,1054.4012,434.75568,1054.4159C434.56104,1054.4845,433.63898,1056.1598,433.33813,1056.9794C433.30014,1057.0878,433.1729,1057.4276,433.05847,1057.7247C432.85242,1058.2726,432.67743,1059.1527,432.73987,1059.3304C432.81134,1059.5336,432.5223,1062.0326,432.33142,1062.8136C432.2491,1063.1464,432.19177,1063.4432,432.20367,1063.4769C432.21277,1063.5016,432.1763,1063.6957,432.13147,1063.8922C432.08118,1064.1,431.9349,1064.6842,431.80484,1065.2051C431.4145,1066.77,431.3516,1067.239,431.46823,1067.5972C431.51614,1067.7329,431.7855,1068.0659,432.071,1068.3359L432.07062,1068.335 Z"/>
</g>
<g style="fill:rgb(255,255,255); fill-opacity:1.0; stroke-linejoin: miter">
<path d="M482.83575,1016.0285L451.4283,990.5427L435.36365,1010.3405L434.3282,1011.61615L465.73593,1037.1023L482.83575,1016.0285 Z"/>
</g>
<g style="fill:rgb(0,0,0); fill-opacity:1.0; stroke-linejoin: miter">
<path d="M468.96402,1063.3383L468.96402,1063.3392L468.96402,1063.3383L468.96402,1063.3392 Z"/>
</g>
<g style="fill:rgb(238,170,1); fill-opacity:1.0; stroke-linejoin: miter">
<path d="M432.2407,1077.1069L432.2824,1075.8164Q432.76196,1071.9028,435.66846,1069.4648Q438.59598,1067.0283,442.68915,1067.3259Q446.6025,1067.8059,449.04037,1070.712Q449.8217,1071.652,450.3459,1072.7743L450.79367,1073.9313Q451.17117,1075.128,451.22095,1076.4423Q451.26047,1080.4779,448.67642,1083.2499Q446.09238,1086.0216,442.06317,1086.2648Q438.02692,1086.3043,435.25537,1083.7202Q432.48383,1081.136,432.2407,1077.1069 Z"/>
</g>
<g style="fill:rgb(146,159,168); fill-opacity:1.0; stroke-linejoin: miter">
<path d="M439.7371,1081.4205L438.15643,1078.5931L436.5758,1075.7656Q438.9247,1074.4526,441.2733,1073.1394Q442.85394,1075.967,444.4347,1078.7943L439.7371,1081.4205 Z"/>
</g>
<g style="fill:rgb(253,217,8); fill-opacity:1.0; stroke-linejoin: miter">
<path d="M430.4805,1077.1973L430.5298,1075.6665Q431.09814,1071.0273,434.54434,1068.137Q438.01486,1065.248,442.86746,1065.6013Q447.50696,1066.1698,450.39728,1069.6154Q451.3237,1070.7291,451.94495,1072.0602L452.47595,1073.4318Q452.92343,1074.8507,452.9822,1076.4086Q453.02917,1081.1942,449.9654,1084.4796Q446.90207,1087.7657,442.1255,1088.0541Q437.34027,1088.1007,434.05435,1085.0369Q430.7688,1081.9734,430.4805,1077.1973 Z"/>
</g>
<g style="fill:rgb(255,183,13); fill-opacity:1.0; stroke-linejoin: miter">
<path d="M432.47247,1077.095L432.51312,1075.8359Q432.9811,1072.0183,435.8166,1069.6394Q438.67264,1067.2627,442.66565,1067.5532Q446.48328,1068.0208,448.86172,1070.8563Q449.62405,1071.7736,450.13522,1072.868L450.57214,1073.9972Q450.94046,1075.1644,450.9889,1076.4462Q451.02737,1080.3844,448.5065,1083.0878Q445.98563,1085.7921,442.05493,1086.0297Q438.11728,1086.0675,435.41367,1083.5469Q432.70963,1081.0256,432.47247,1077.095 Z"/>
</g>
<g style="fill:rgb(238,170,1); fill-opacity:1.0; stroke-linejoin: miter">
<path d="M440.67728,1070.4976L440.69748,1071.4519Q439.90686,1071.7969,439.42337,1072.5195Q438.94006,1073.2432,438.9595,1074.1545Q438.97192,1074.739,439.21127,1075.2612Q439.45016,1075.7695,439.8428,1076.1458Q440.23587,1076.5222,440.76782,1076.7385Q441.28564,1076.956,441.86972,1076.9438L441.9553,1076.9417Q442.1268,1076.9666,442.24356,1077.0919Q442.36014,1077.2184,442.36414,1077.403Q442.36844,1077.6024,442.22888,1077.7482Q442.08957,1077.8934,441.8901,1077.8978Q441.69067,1077.9022,441.5452,1077.7626Q441.39972,1077.6229,441.39536,1077.4237L439.03036,1077.4742Q439.0403,1077.9303,439.1916,1078.3402Q439.32816,1078.7367,439.57806,1079.0878Q439.81314,1079.4249,440.1467,1079.6884Q440.47995,1079.9379,440.88217,1080.0863L440.90536,1081.1686L443.2987,1081.118L443.27286,1079.9069Q443.9487,1079.5219,444.34753,1078.8434Q444.7467,1078.1788,444.72916,1077.3527Q444.71664,1076.7688,444.47745,1076.2466Q444.2387,1075.7385,443.84564,1075.3616Q443.45285,1074.9851,442.92078,1074.7688Q442.40308,1074.5515,441.81897,1074.5642L441.73343,1074.5664Q441.56177,1074.5405,441.44492,1074.4014Q441.32822,1074.2754,441.3245,1074.1042Q441.32025,1073.9048,441.4593,1073.7451Q441.5987,1073.5994,441.7983,1073.5955Q441.99768,1073.5911,442.14343,1073.7449Q442.28897,1073.8843,442.2932,1074.0835L444.65833,1074.0332Q444.64053,1073.2068,444.21298,1072.5457Q443.78558,1071.885,443.09393,1071.5293L443.07077,1070.4465 Z"/>
</g>
<g style="fill:rgb(253,217,8); fill-opacity:1.0; stroke-linejoin: miter">
<path d="M440.47925,1070.6213L440.49973,1071.5762Q439.70895,1071.9207,439.22543,1072.6443Q438.74203,1073.3667,438.76157,1074.2788Q438.7741,1074.8633,439.01324,1075.3853Q439.25226,1075.8933,439.64526,1076.2695Q440.03784,1076.6462,440.57,1076.863Q441.08765,1077.0797,441.67178,1077.0674L441.75726,1077.0657Q441.92883,1077.0902,442.0456,1077.2164Q442.16226,1077.3419,442.1661,1077.527Q442.1704,1077.7262,442.03107,1077.8722Q441.89157,1078.0175,441.69208,1078.0219Q441.49286,1078.0262,441.34717,1077.8868Q441.20178,1077.7474,441.19745,1077.5475L438.83228,1077.5985Q438.84222,1078.0541,438.9935,1078.4642Q439.13034,1078.8605,439.38025,1079.211Q439.6154,1079.5485,439.9488,1079.8129Q440.282,1080.0616,440.68423,1080.2098L440.7075,1081.2926L443.1009,1081.2413L443.07492,1080.0306Q443.75095,1079.6456,444.14984,1078.9669Q444.54895,1078.3029,444.53116,1077.4764Q444.51895,1076.8928,444.27954,1076.3704Q444.04074,1075.8623,443.64783,1075.4858Q443.25497,1075.1089,442.72293,1074.8926Q442.2052,1074.6753,441.62097,1074.6885L441.5354,1074.6897Q441.36374,1074.6655,441.24698,1074.5251Q441.1302,1074.3994,441.12646,1074.2285Q441.12228,1074.0288,441.26144,1073.8689Q441.40094,1073.7234,441.60037,1073.7192Q441.79965,1073.7151,441.9456,1073.8689Q442.091,1074.008,442.09546,1074.2078L444.46024,1074.1575Q444.44284,1073.3308,444.01523,1072.6697Q443.5877,1072.009,442.8959,1071.6533L442.87274,1070.5703 Z"/>
</g>
<g style="fill:rgb(255,183,159); fill-opacity:1.0; stroke-linejoin: miter">
<path d="M448.30304,1063.0923L447.9192,1063.304Q445.3324,1064.6311,444.53375,1066.0813Q443.70837,1067.7827,444.3925,1069.9497Q445.37244,1072.8337,447.1476,1073.6637Q447.83072,1074.0187,448.88876,1073.8654Q449.8161,1073.6832,450.8684,1073.0939Q452.17258,1072.3939,454.73413,1070.4371L450.04944,1064.5222L448.30304,1063.0923 Z"/>
</g>
<g style="fill:rgb(255,183,159); fill-opacity:1.0; stroke-linejoin: miter">
<path d="M456.19354,1074.8241L456.19354,1074.8243L456.19354,1074.8241L456.19354,1074.8253 Z"/>
</g>
<g style="fill:rgb(0,0,0); fill-opacity:1.0; stroke-linejoin: miter">
<path d="M443.60867,1067.8723L443.60867,1067.8726L443.60867,1067.8735L443.60867,1067.8726L443.60867,1067.8723L443.60867,1067.8726L443.60867,1067.8735Q443.60867,1067.8726,443.60867,1067.8723 Z"/>
</g>
<g style="fill:rgb(0,0,0); fill-opacity:1.0; stroke-linejoin: miter">
<path d="M443.60867,1067.8723L443.60867,1067.8726L443.60867,1067.8735L443.60867,1067.8726L443.60867,1067.8723L443.60867,1067.8726L443.60867,1067.8735Q443.60867,1067.8726,443.60867,1067.8723 Z"/>
</g>
<g style="fill:rgb(0,0,0); fill-opacity:1.0; stroke-linejoin: miter">
<path d="M534.3246,953.64124L468.54523,953.6413L435.5974,992.7568L481.9505,1031.4678L534.3246,953.64124 Z"/>
</g>
<g style="fill:rgb(146,159,168); fill-opacity:1.0; stroke-linejoin: miter">
<path d="M404.81207,1103.9497L403.29486,1101.2356L401.77744,1098.5212Q404.0322,1097.2605,406.2868,1095.9999Q407.8042,1098.7146,409.32144,1101.4282L404.81207,1103.9497 Z"/>
</g>
<g style="fill:rgb(253,217,8); fill-opacity:1.0; stroke-linejoin: miter">
<path d="M395.92636,1099.8955L395.97354,1098.426Q396.51926,1093.973,399.8274,1091.1981Q403.15884,1088.4249,407.81723,1088.7638Q412.2707,1089.3096,415.04514,1092.6174Q415.93466,1093.6865,416.531,1094.9641L417.0405,1096.281Q417.47012,1097.6431,417.52658,1099.1389Q417.5717,1103.7324,414.63065,1106.8865Q411.6899,1110.0404,407.1047,1110.3173Q402.5111,1110.3619,399.35715,1107.4216Q396.20303,1104.4805,395.92636,1099.8955 Z"/>
</g>
<g style="fill:rgb(255,183,13); fill-opacity:1.0; stroke-linejoin: miter">
<path d="M397.8385,1099.7981L397.87756,1098.5884Q398.32678,1094.9242,401.04874,1092.6405Q403.79037,1090.3588,407.62354,1090.6373Q411.2882,1091.0864,413.57135,1093.8083Q414.303,1094.6892,414.79364,1095.7397L415.2129,1096.8232Q415.5665,1097.9441,415.61313,1099.1748Q415.65005,1102.9551,413.23016,1105.5503Q410.81033,1108.1458,407.03708,1108.374Q403.25708,1108.4106,400.66187,1105.9907Q398.06607,1103.571,397.8385,1099.7981 Z"/>
</g>
<g style="fill:rgb(238,170,1); fill-opacity:1.0; stroke-linejoin: miter">
<path d="M405.71466,1093.464L405.7342,1094.3805Q404.97504,1094.7115,404.5111,1095.4052Q404.04697,1096.0995,404.0656,1096.9745Q404.07764,1097.5356,404.30728,1098.0366Q404.5366,1098.5244,404.91357,1098.886Q405.29095,1099.2473,405.8015,1099.4553Q406.29874,1099.6641,406.85938,1099.6516L406.9414,1099.6501Q407.10617,1099.6738,407.2183,1099.7947Q407.33017,1099.9155,407.33386,1100.0933Q407.33807,1100.2847,407.20413,1100.4248Q407.07043,1100.5645,406.87885,1100.5681Q406.6874,1100.5728,406.54782,1100.4385Q406.40814,1100.3049,406.40396,1100.1135L404.13382,1100.1616Q404.14334,1100.5994,404.28848,1100.9934Q404.41946,1101.3728,404.65942,1101.7102Q404.88513,1102.0339,405.20532,1102.2871Q405.52527,1102.5266,405.91122,1102.6685L405.93347,1103.7073L408.23117,1103.6589L408.2063,1102.4961Q408.8551,1102.127,409.23795,1101.4753Q409.62097,1100.8376,409.60416,1100.0444Q409.5922,1099.4841,409.36264,1098.9827Q409.13324,1098.4946,408.75598,1098.1333Q408.37894,1097.7717,407.8683,1097.5642Q407.37128,1097.3557,406.81055,1097.3674L406.7284,1097.3696Q406.56372,1097.345,406.45145,1097.2112Q406.3394,1097.0902,406.33594,1096.9261Q406.33197,1096.7345,406.46536,1096.5812Q406.59915,1096.4415,406.79074,1096.4374Q406.98212,1096.4332,407.122,1096.5809Q407.26184,1096.715,407.26584,1096.9059L409.53607,1096.8577Q409.51904,1096.0645,409.10886,1095.4302Q408.69855,1094.796,408.03452,1094.4542L408.01227,1093.4147 Z"/>
</g>
<g style="fill:rgb(253,217,8); fill-opacity:1.0; stroke-linejoin: miter">
<path d="M405.52454,1093.5829L405.5442,1094.4991Q404.78506,1094.8302,404.32108,1095.5245Q403.85687,1096.2181,403.8756,1097.0936Q403.88763,1097.6543,404.11722,1098.1558Q404.34668,1098.6433,404.72397,1099.0049Q405.1007,1099.3667,405.6116,1099.5745Q406.1086,1099.7827,406.66934,1099.771L406.7513,1099.7695Q406.91605,1099.7935,407.0281,1099.9141Q407.14017,1100.0347,407.14395,1100.2122Q407.14807,1100.4038,407.01428,1100.5435Q406.88037,1100.6829,406.68887,1100.6875Q406.49756,1100.6912,406.35785,1100.5579Q406.21808,1100.4238,406.21396,1100.2319L403.94357,1100.281Q403.95322,1100.7183,404.09842,1101.1123Q404.2296,1101.4924,404.4695,1101.8291Q404.69534,1102.1526,405.01526,1102.4062Q405.33536,1102.6453,405.7213,1102.7869L405.74356,1103.8267L408.0411,1103.7771L408.0162,1102.615Q408.66513,1102.2456,409.0481,1101.5942Q409.43118,1100.9568,409.41412,1100.1636Q409.40222,1099.603,409.17258,1099.1016Q408.9433,1098.6135,408.56613,1098.2524Q408.18893,1097.8909,407.67838,1097.6829Q407.1813,1097.4741,406.62042,1097.487L406.53833,1097.4883Q406.37354,1097.4648,406.26144,1097.3301Q406.14938,1097.2095,406.14587,1097.0455Q406.14175,1096.8539,406.2754,1096.7003Q406.40924,1096.5607,406.60074,1096.5563Q406.7921,1096.5524,406.93222,1096.7001Q407.07162,1096.8341,407.0758,1097.0253L409.346,1096.9768Q409.32925,1096.1833,408.91888,1095.5492Q408.50848,1094.9149,407.84454,1094.5736L407.82224,1093.5338 Z"/>
</g>
<g style="fill:rgb(146,159,168); fill-opacity:1.0; stroke-linejoin: miter">
<path d="M423.37668,1106.3873L421.8595,1103.6732L420.34222,1100.9587Q422.59705,1099.6985,424.8515,1098.4375Q426.36884,1101.1519,427.88632,1103.8656L423.37668,1106.3873 Z"/>
</g>
<g style="fill:rgb(253,217,8); fill-opacity:1.0; stroke-linejoin: miter">
<path d="M414.4912,1102.333L414.53845,1100.864Q415.08405,1096.4102,418.3923,1093.636Q421.7237,1090.8625,426.3819,1091.2009Q430.83545,1091.7465,433.61008,1095.0548Q434.4994,1096.1241,435.09567,1097.4015L435.60532,1098.7184Q436.03497,1100.0809,436.09137,1101.5758Q436.13657,1106.1698,433.19537,1109.3234Q430.25464,1112.4777,425.66937,1112.7545Q421.076,1112.7994,417.9218,1109.859Q414.76782,1106.9182,414.4912,1102.333 Z"/>
</g>
<g style="fill:rgb(255,183,13); fill-opacity:1.0; stroke-linejoin: miter">
<path d="M416.40335,1102.2351L416.4424,1101.0264Q416.89166,1097.3616,419.61353,1095.0784Q422.3551,1092.7964,426.18826,1093.0745Q429.85278,1093.5238,432.13583,1096.2455Q432.8677,1097.1266,433.35837,1098.1769L433.7777,1099.2609Q434.13132,1100.3815,434.1779,1101.6124Q434.21478,1105.3922,431.79486,1107.9872Q429.37503,1110.5831,425.60175,1110.8109Q421.82184,1110.8478,419.2266,1108.4283Q416.63095,1106.0083,416.40335,1102.2351 Z"/>
</g>
<g style="fill:rgb(238,170,1); fill-opacity:1.0; stroke-linejoin: miter">
<path d="M424.27945,1095.9016L424.2989,1096.8179Q423.53986,1097.1489,423.0758,1097.843Q422.61166,1098.5371,422.63046,1099.4121Q422.64236,1099.9736,422.872,1100.4744Q423.10138,1100.9622,423.47842,1101.3236Q423.85568,1101.6852,424.3663,1101.893Q424.86337,1102.1007,425.42404,1102.0892L425.50623,1102.0875Q425.6708,1102.1115,425.7829,1102.232Q425.8949,1102.3529,425.89874,1102.5304Q425.9027,1102.7223,425.76874,1102.8615Q425.63507,1103.0016,425.44357,1103.0055Q425.25214,1103.0096,425.11243,1102.8759Q424.9728,1102.7418,424.96854,1102.5502L422.69836,1102.599Q422.7078,1103.0365,422.85315,1103.43Q422.98425,1103.8102,423.2242,1104.1476Q423.44986,1104.4711,423.77005,1104.7242Q424.09,1104.964,424.47607,1105.1061L424.49826,1106.1449L426.79575,1106.0966L426.7709,1104.934Q427.4198,1104.5641,427.80264,1103.9132Q428.1858,1103.2748,428.1689,1102.4818Q428.15695,1101.9213,427.92725,1101.4196Q427.69815,1100.9324,427.32077,1100.5706Q426.94373,1100.2095,426.4329,1100.0017Q425.93607,1099.7937,425.37527,1099.8057L425.29318,1099.8074Q425.1285,1099.783,425.01636,1099.6489Q424.90424,1099.5278,424.90063,1099.3638Q424.89667,1099.1724,425.03018,1099.0188Q425.16397,1098.8792,425.35556,1098.875Q425.54688,1098.8708,425.6867,1099.0183Q425.82645,1099.1521,425.83057,1099.3438L428.10104,1099.2948Q428.08383,1098.5016,427.6735,1097.8674Q427.26324,1097.2332,426.5992,1096.8918L426.577,1095.852 Z"/>
</g>
<g style="fill:rgb(253,217,8); fill-opacity:1.0; stroke-linejoin: miter">
<path d="M424.08932,1096.0205L424.10883,1096.9368Q423.34995,1097.2678,422.88574,1097.9619Q422.4217,1098.656,422.44034,1099.5317Q422.4525,1100.0925,422.68207,1100.594Q422.91147,1101.081,423.28857,1101.4425Q423.66556,1101.8038,424.1764,1102.0118Q424.67328,1102.2198,425.23392,1102.2081L425.31604,1102.2062Q425.48083,1102.2301,425.5929,1102.351Q425.70483,1102.4716,425.70862,1102.6493Q425.71274,1102.8405,425.57895,1102.9806Q425.4449,1103.1202,425.2535,1103.1244Q425.0622,1103.1283,424.92258,1102.9948Q424.78275,1102.861,424.77863,1102.6691L422.5083,1102.7181Q422.51788,1103.1561,422.66315,1103.5497Q422.79428,1103.9293,423.0341,1104.2662Q423.26,1104.59,423.58014,1104.8436Q423.9001,1105.0829,424.2861,1105.2247L424.30835,1106.2643L426.60583,1106.215L426.58093,1105.0524Q427.22977,1104.6832,427.61273,1104.0316Q427.99588,1103.3937,427.9788,1102.601Q427.96704,1102.0404,427.73746,1101.5387Q427.5081,1101.0515,427.13092,1100.69Q426.75372,1100.3286,426.2431,1100.1204Q425.7461,1099.9119,425.1852,1099.9243L425.10318,1099.9258Q424.93845,1099.9021,424.82632,1099.7676Q424.71417,1099.647,424.7106,1099.4834Q424.70648,1099.2915,424.8402,1099.1382Q424.97406,1098.9983,425.16544,1098.9944Q425.35675,1098.9895,425.49692,1099.1372Q425.6364,1099.2712,425.64053,1099.4631L427.91077,1099.4147Q427.89398,1098.6211,427.48352,1097.9866Q427.07324,1097.3525,426.40924,1097.0105L426.3871,1095.9707 Z"/>
</g>
<g style="fill:rgb(146,159,168); fill-opacity:1.0; stroke-linejoin: miter">
<path d="M438.50757,1101.9993L436.99042,1099.285L435.47308,1096.5709Q437.7278,1095.3102,439.98224,1094.0499Q441.49966,1096.764,443.01697,1099.4784L438.50757,1101.9993 Z"/>
</g>
<g style="fill:rgb(253,217,8); fill-opacity:1.0; stroke-linejoin: miter">
<path d="M429.6217,1097.9445L429.66904,1096.4752Q430.2148,1092.0219,433.52286,1089.2477Q436.85437,1086.4741,441.5127,1086.8134Q445.96616,1087.359,448.74066,1090.6667Q449.62988,1091.7358,450.2263,1093.0134L450.73584,1094.3301Q451.16544,1095.6921,451.22186,1097.1875Q451.26697,1101.7815,448.32602,1104.9355Q445.38538,1108.0898,440.80017,1108.3665Q436.20685,1108.4117,433.0526,1105.4706Q429.89838,1102.5297,429.6217,1097.9445 Z"/>
</g>
<g style="fill:rgb(255,183,13); fill-opacity:1.0; stroke-linejoin: miter">
<path d="M431.5339,1097.8463L431.57306,1096.6376Q432.0223,1092.9733,434.74426,1090.6901Q437.4858,1088.4086,441.31885,1088.6866Q444.9836,1089.1361,447.26675,1091.8584Q447.9984,1092.7385,448.48904,1093.7888L448.90842,1094.8728Q449.26187,1095.9932,449.30832,1097.2239Q449.34534,1101.0039,446.92548,1103.5991Q444.5058,1106.1953,440.73254,1106.4233Q436.95273,1106.4601,434.35733,1104.0397Q431.76157,1101.62,431.5339,1097.8463 Z"/>
</g>
<g style="fill:rgb(238,170,1); fill-opacity:1.0; stroke-linejoin: miter">
<path d="M439.41016,1091.5138L439.42963,1092.4298Q438.67062,1092.7616,438.20654,1093.455Q437.74255,1094.1493,437.76123,1095.0243Q437.77304,1095.5851,438.0028,1096.0863Q438.23212,1096.5743,438.60907,1096.9354Q438.98645,1097.2968,439.49695,1097.505Q439.99423,1097.7133,440.5548,1097.7015L440.63693,1097.6993Q440.80145,1097.7233,440.91354,1097.8439Q441.02554,1097.965,441.02933,1098.1427Q441.0335,1098.3339,440.89944,1098.4738Q440.76587,1098.6134,440.5744,1098.6176Q440.3829,1098.6217,440.2432,1098.4874Q440.10358,1098.3536,440.0994,1098.1627L437.8292,1098.2108Q437.8387,1098.6486,437.98398,1099.0424Q438.115,1099.4225,438.35498,1099.7596Q438.58072,1100.0836,438.90076,1100.3365Q439.2208,1100.5763,439.6068,1100.7181L439.62903,1101.7573L441.9265,1101.709L441.90186,1100.5458Q442.5505,1100.1766,442.9334,1099.525Q443.3165,1098.8871,443.29956,1098.0941Q443.2876,1097.5333,443.05795,1097.0319Q442.82877,1096.5446,442.4515,1096.183Q442.0744,1095.8219,441.56363,1095.6139Q441.06674,1095.4052,440.50604,1095.4174L440.42407,1095.4193Q440.2593,1095.3951,440.14697,1095.2609Q440.0349,1095.14,440.03146,1094.976Q440.0274,1094.7843,440.16086,1094.631Q440.2948,1094.4911,440.4863,1094.4874Q440.67767,1094.4833,440.8175,1094.6307Q440.95728,1094.7645,440.96133,1094.9557L443.23172,1094.9078Q443.2145,1094.1144,442.80426,1093.4799Q442.39398,1092.8456,441.72998,1092.5043L441.7077,1091.465 Z"/>
</g>
<g style="fill:rgb(253,217,8); fill-opacity:1.0; stroke-linejoin: miter">
<path d="M439.22012,1091.6329L439.23972,1092.5492Q438.48077,1092.88,438.01645,1093.5741Q437.5523,1094.2677,437.5711,1095.1432Q437.5832,1095.704,437.81262,1096.205Q438.0422,1096.693,438.41934,1097.0543Q438.79626,1097.4161,439.30704,1097.6237Q439.80405,1097.8319,440.36472,1097.8204L440.44687,1097.8187Q440.6116,1097.8424,440.7236,1097.963Q440.8356,1098.0836,440.83926,1098.2614Q440.84344,1098.4528,440.70966,1098.5927Q440.57587,1098.7325,440.38437,1098.7367Q440.1931,1098.7406,440.05334,1098.607Q439.9135,1098.473,439.9094,1098.2814L437.639,1098.33Q437.64865,1098.768,437.79385,1099.1613Q437.9252,1099.5416,438.165,1099.8783Q438.39078,1100.2025,438.71085,1100.4557Q439.03082,1100.695,439.4169,1100.837L439.43903,1101.876L441.73663,1101.8269L441.71167,1100.6647Q442.36066,1100.2955,442.74362,1099.6439Q443.1267,1099.0067,443.10953,1098.2133Q443.0978,1097.6525,442.86804,1097.1512Q442.63885,1096.6635,442.26166,1096.3024Q441.8846,1095.9406,441.37384,1095.7325Q440.87677,1095.5243,440.31604,1095.5365L440.2339,1095.5377Q440.06912,1095.5145,439.95706,1095.38Q439.84506,1095.2589,439.84134,1095.0948Q439.83737,1094.9037,439.97083,1094.7504Q440.1048,1094.6102,440.29626,1094.6066Q440.48764,1094.6022,440.62766,1094.7496Q440.7671,1094.8834,440.77133,1095.0751L443.04153,1095.0265Q443.02472,1094.2335,442.61432,1093.599Q442.20395,1092.9647,441.53998,1092.6234L441.51773,1091.5839 Z"/>
</g>
<g style="fill:rgb(146,159,168); fill-opacity:1.0; stroke-linejoin: miter">
<path d="M448.5153,1106.8289L446.99802,1104.1143L445.48074,1101.4004Q447.7355,1100.1396,449.98996,1098.8792Q451.5074,1101.5935,453.02478,1104.3076L448.5153,1106.8289 Z"/>
</g>
<g style="fill:rgb(253,217,8); fill-opacity:1.0; stroke-linejoin: miter">
<path d="M439.62982,1102.7744L439.67703,1101.3057Q440.2227,1096.8522,443.53076,1094.0775Q446.86215,1091.3042,451.52036,1091.6426Q455.9741,1092.1885,458.74847,1095.4961Q459.63788,1096.5657,460.2341,1097.8433L460.74374,1099.1599Q461.17328,1100.5222,461.22968,1102.0175Q461.2749,1106.6115,458.33383,1109.7653Q455.39343,1112.9194,450.8081,1113.1963Q446.2145,1113.2412,443.0604,1110.3008Q439.90637,1107.3594,439.62982,1102.7744 Z"/>
</g>
<g style="fill:rgb(255,183,13); fill-opacity:1.0; stroke-linejoin: miter">
<path d="M441.54187,1102.6765L441.58093,1101.468Q442.03033,1097.8031,444.7521,1095.5197Q447.49362,1093.2378,451.3266,1093.5161Q454.9915,1093.9653,457.27457,1096.6877Q458.0061,1097.5679,458.49683,1098.6189L458.91632,1099.7026Q459.26978,1100.8235,459.31635,1102.0536Q459.35333,1105.8341,456.93332,1108.4293Q454.5137,1111.0249,450.7403,1111.2532Q446.96036,1111.2893,444.3651,1108.8699Q441.7695,1106.45,441.54187,1102.6765 Z"/>
</g>
<g style="fill:rgb(238,170,1); fill-opacity:1.0; stroke-linejoin: miter">
<path d="M449.41785,1096.3428L449.43726,1097.2593Q448.67825,1097.5906,448.21414,1098.2844Q447.75012,1098.9788,447.76898,1099.854Q447.78082,1100.4148,448.01053,1100.9158Q448.2399,1101.4038,448.61682,1101.7646Q448.99414,1102.1267,449.50482,1102.3345Q450.00204,1102.5427,450.56262,1102.5308L450.64465,1102.5288Q450.80936,1102.5527,450.92136,1102.6733Q451.03342,1102.7942,451.03714,1102.9719Q451.04126,1103.1633,450.9072,1103.3032Q450.77353,1103.4431,450.58215,1103.447Q450.39066,1103.4512,450.25095,1103.3169Q450.11133,1103.1833,450.10727,1102.9922L447.83694,1103.0403Q447.84653,1103.4783,447.99167,1103.8721Q448.12292,1104.252,448.36273,1104.5894Q448.58832,1104.9128,448.9086,1105.1663Q449.22842,1105.4053,449.61456,1105.5476L449.63687,1106.5867L451.93423,1106.5381L451.9096,1105.3752Q452.55844,1105.0061,452.94122,1104.3547Q453.3243,1103.7168,453.30743,1102.9233Q453.29547,1102.363,453.06586,1101.8618Q452.8366,1101.374,452.4593,1101.0127Q452.08224,1100.6509,451.57147,1100.4434Q451.0744,1100.2344,450.51367,1100.2471L450.4317,1100.2485Q450.26688,1100.2244,450.1547,1100.0901Q450.0427,1099.9695,450.03925,1099.8054Q450.03513,1099.6135,450.16858,1099.4602Q450.30243,1099.321,450.49402,1099.3164Q450.68546,1099.3125,450.82523,1099.4602Q450.9649,1099.594,450.96902,1099.7854L453.23947,1099.737Q453.2224,1098.9441,452.81195,1098.3096Q452.40164,1097.675,451.7376,1097.3333L451.71545,1096.294 Z"/>
</g>
<g style="fill:rgb(253,217,8); fill-opacity:1.0; stroke-linejoin: miter">
<path d="M449.22778,1096.4624L449.2474,1097.3789Q448.48834,1097.7092,448.02408,1098.4038Q447.56015,1099.0974,447.5789,1099.9729Q447.59103,1100.5337,447.82047,1101.0349Q448.05,1101.5227,448.4271,1101.884Q448.80402,1102.2456,449.3147,1102.4531Q449.81186,1102.6619,450.37244,1102.6494L450.45456,1102.648Q450.6193,1102.6716,450.73135,1102.7925Q450.84335,1102.9131,450.84708,1103.0908Q450.85126,1103.2822,450.71747,1103.4226Q450.5835,1103.5618,450.39203,1103.5659Q450.2007,1103.5701,450.06104,1103.4365Q449.92133,1103.3027,449.9172,1103.1111L447.6469,1103.1594Q447.65646,1103.5974,447.80154,1103.991Q447.93286,1104.3713,448.17282,1104.7078Q448.39856,1105.0317,448.71854,1105.2849Q449.03854,1105.5244,449.42465,1105.6663L449.44684,1106.7056L451.74445,1106.6562L451.71948,1105.4944Q452.36832,1105.1248,452.75137,1104.4736Q453.1344,1103.8354,453.11746,1103.043Q453.1057,1102.4822,452.87592,1101.9807Q452.6466,1101.4929,452.26944,1101.1313Q451.89218,1100.7698,451.38156,1100.562Q450.88455,1100.3535,450.3236,1100.3657L450.24164,1100.3674Q450.07684,1100.3438,449.96478,1100.2095Q449.85272,1100.0889,449.84906,1099.9246Q449.845,1099.7332,449.97852,1099.5791Q450.11246,1099.4397,450.3039,1099.4358Q450.49527,1099.4314,450.63538,1099.5789Q450.77487,1099.7129,450.7791,1099.9045L453.04944,1099.8562Q453.03244,1099.063,452.62204,1098.4282Q452.21185,1097.794,451.5477,1097.4524L451.52548,1096.4131 Z"/>
</g>
<g style="fill:rgb(0,0,0); fill-opacity:1.0; stroke-linejoin: miter">
<path d="M393.7184,1116.9972L449.13412,1116.9977L504.54987,1116.9982Q504.54987,1109.9536,504.54987,1102.9092Q449.13412,1102.9097,393.7184,1102.9102Q393.7184,1109.9536,393.7184,1116.9972"/>
</g>
</g>
</svg>