<?xml version="1.0" encoding="utf-8"?>
<svg xmlns="http://www.w3.org/2000/svg" xmlns:xlink="http://www.w3.org/1999/xlink" version= "1.1" width="468px" height="335px" viewBox="218 950 468 335">
<g id="layer1">
<g style="fill:rgb(0,174,199); fill-opacity:1.0; stroke-linejoin: miter">
<path d="M217.99898,949.72546C217.92645,949.72546,217.85689,949.75433,217.8056,949.8056C217.75432,949.8569,217.72551,949.92645,217.72551,949.99896L217.72652,1285.0C217.72652,1285.1509,217.84895,1285.2734,217.99998,1285.2734L686.001,1285.2744C686.0735,1285.2744,686.14307,1285.2456,686.19434,1285.1943C686.2456,1285.1431,686.2745,1285.0735,686.2745,1285.001L686.2735,949.99994C686.2735,949.8489,686.15106,949.72644,686.0,949.72644L217.99898,949.72546 Z"/>
</g>
<g style="fill:rgb(223,100,69); fill-opacity:1.0; stroke-linejoin: miter">
<path d="M577.12854,1255.1038L516.6819,1255.5757L519.6144,1271.4468L522.1218,1285.0178Q547.4136,1285.0181,572.7053,1285.0181L572.7086,1285.0183Q574.9204,1270.061,577.13196,1255.1038 Z"/>
</g>
<g style="fill:rgb(38,120,95); fill-opacity:1.0; stroke-linejoin: miter">
<path d="M484.00714,1093.821C484.0575,1093.834,484.19397,1094.0825,484.30945,1094.3623C484.5005,1094.8254,484.8667,1095.3853,485.51666,1096.1672C486.19977,1097.0032,486.8272,1097.5117,488.07532,1098.239C488.74823,1098.6384,489.35468,1098.9868,489.4364,1099.0208C489.52216,1099.0647,490.49365,1099.4766,491.5913,1099.9492C493.64172,1100.8423,495.9212,1101.9905,496.8637,1102.606C498.29242,1103.5522,499.27985,1105.0981,500.0216,1107.5801C500.65198,1109.6567,501.05652,1110.3367,502.37677,1111.4854C503.34906,1112.3374,504.31207,1112.866,505.36157,1113.1665C506.97113,1113.6201,509.23395,1114.29,509.9419,1114.5286C514.0725,1115.8955,517.49036,1117.2854,521.0143,1119.0154C522.9392,1119.96,523.1693,1120.0798,524.4597,1120.8003C525.8401,1121.5745,525.94214,1121.521,525.14185,1120.429C524.4612,1119.4905,524.1388,1119.2285,522.7095,1118.4177C521.9861,1118.0051,521.13794,1117.5083,520.8334,1117.3179C520.2423,1116.9519,519.11816,1116.0046,518.77466,1115.582C517.9281,1114.5422,517.06506,1113.2166,516.9226,1112.7336C516.5405,1111.4236,516.329,1110.6643,516.156,1109.8894C515.65027,1107.7046,515.5585,1107.0991,515.4791,1105.4836C515.4413,1104.8445,515.3876,1103.9751,515.3617,1103.5566C515.3319,1103.1287,515.27795,1102.0674,515.22974,1101.1841C515.1815,1100.301,515.1398,1099.4604,515.1227,1099.3096C515.0984,1099.0596,515.09705,1098.3718,515.10254,1097.4551C515.10254,1097.2632,515.095,1096.9165,515.0751,1096.6765C515.0553,1096.4365,515.06396,1096.1843,515.08276,1096.1201C515.15015,1095.9001,515.25635,1096.0486,515.28955,1096.4299C515.3074,1096.6372,515.34827,1097.0376,515.3827,1097.3396C515.41284,1097.6318,515.676,1098.5168,515.9657,1099.3005C516.4606,1100.6653,516.5139,1100.7676,517.2412,1101.7097C518.5481,1103.428,518.64246,1103.5471,519.76135,1104.7C521.56384,1106.553,523.4326,1108.7847,524.1387,1109.9497C524.51526,1110.5618,524.92773,1112.1643,525.00964,1113.2932C525.0376,1113.7441,524.97986,1114.6711,524.88403,1115.3425C524.6376,1117.1262,524.6671,1117.5542,525.1345,1118.8516C525.7894,1120.6584,526.84216,1122.1433,527.95374,1122.8137C529.59827,1123.8174,534.3849,1127.1035,534.46045,1127.2869C534.4685,1127.3062,534.73035,1127.5029,535.03296,1127.7168C535.33545,1127.9307,535.5973,1128.1277,535.6052,1128.147C535.61707,1128.1755,536.05896,1128.5352,536.5946,1128.9578C537.5582,1129.7344,539.7196,1131.6089,540.5028,1132.3582C540.7356,1132.5669,541.14685,1132.9617,541.4226,1133.2205C541.93945,1133.7073,543.95935,1135.7302,544.20056,1136.0142C544.32605,1136.1543,544.3589,1136.1521,544.4231,1135.979C544.55347,1135.6658,544.6549,1134.0776,544.5956,1133.4133C544.54285,1132.8481,544.42126,1132.5256,543.36865,1130.1377C542.2307,1127.5706,542.0925,1127.1533,541.8572,1125.8169C541.72986,1125.1245,541.6931,1123.3108,541.77295,1122.7927C541.87756,1122.2527,542.3872,1120.9705,542.98303,1119.7876C543.203,1119.3357,543.4592,1118.835,543.5425,1118.6538C543.78687,1118.1238,544.57947,1117.0071,545.3734,1116.0588C545.7831,1115.574,546.3838,1114.8408,546.7224,1114.4299C547.42065,1113.5779,549.0327,1111.7393,549.4331,1111.3142C549.5846,1111.1616,549.9546,1110.772,550.24963,1110.4473C550.928,1109.738,551.2639,1109.6226,550.75757,1110.2827C550.2356,1110.9609,549.7328,1111.9587,549.5073,1112.8076C549.2666,1113.6746,549.2451,1113.8416,549.2894,1114.9067C549.30774,1115.362,549.32446,1115.8403,549.32007,1115.9666C549.32166,1116.8462,549.5244,1118.2415,549.9597,1120.5562C550.0088,1120.7844,550.0818,1121.2625,550.1262,1121.6165C550.17065,1121.9707,550.22363,1122.4004,550.2528,1122.5803C550.29724,1122.9346,550.4148,1124.1501,550.5033,1125.186C550.631,1126.7815,550.3777,1127.7551,549.47705,1129.075C548.9584,1129.8418,548.27527,1130.4849,547.5126,1130.9348C546.3202,1131.6296,545.74084,1132.5234,545.4824,1134.0857C545.2676,1135.3713,545.42285,1137.4177,545.74536,1137.6799C545.82935,1137.7466,546.22363,1138.1826,546.6063,1138.6455C546.98926,1139.1084,547.45044,1139.6521,547.6271,1139.8616C547.92126,1140.1914,548.324,1140.7029,549.473,1142.1477C549.66956,1142.4053,549.93896,1142.7571,550.0531,1142.9243C550.17676,1143.0879,550.57227,1143.6357,550.93823,1144.1394C553.3783,1147.457,555.3351,1150.6685,557.8318,1155.4636C558.2057,1156.1787,559.1428,1158.2864,559.91077,1160.1484C560.9148,1162.5562,561.3418,1163.509,561.40686,1163.4482C561.6024,1163.2659,561.5874,1161.2854,561.3711,1160.2686C561.1527,1159.2185,560.85046,1157.5823,560.8059,1157.2283C560.4901,1154.6831,560.5099,1153.6362,560.94934,1151.3896C561.2417,1149.937,561.47485,1149.4348,562.85254,1147.4104C564.2776,1145.3098,565.20264,1144.2964,567.3535,1142.4502C567.4728,1142.3557,567.98914,1141.8833,568.5054,1141.4106C569.5879,1140.4224,569.9968,1140.073,570.4098,1139.7334C571.9397,1138.5159,572.84106,1137.8276,572.88586,1137.8545C572.9813,1137.894,572.8988,1138.1313,572.7827,1138.1792C572.71533,1138.207,572.4181,1138.4988,572.1272,1138.8333C571.0985,1139.98,570.40564,1141.53,570.08276,1143.4016C569.96045,1144.1179,569.87,1144.7197,569.8779,1144.739C569.88574,1144.758,569.83203,1145.1758,569.7638,1145.6665C569.68567,1146.1614,569.61755,1146.8447,569.61145,1147.1855C569.5918,1147.5212,569.5698,1148.2073,569.54236,1148.7151C569.4508,1151.2026,569.0679,1154.5437,568.7219,1156.0857C568.3312,1157.7935,566.8097,1159.6062,565.2081,1160.2664C563.7997,1160.8474,563.0419,1161.5549,562.4855,1162.834C561.88574,1164.199,561.76184,1164.7468,561.9569,1165.2197C562.2274,1165.8757,563.40906,1169.8354,564.0665,1172.251C564.3533,1173.3293,564.8092,1175.365,565.0737,1176.7458C565.1526,1177.2104,565.2709,1177.7712,565.30994,1178.0032C565.42834,1178.5637,565.6334,1179.8,565.69324,1180.3284C565.73254,1180.5608,565.781,1180.9246,565.8179,1181.1235C565.91296,1181.6824,566.0537,1182.8999,566.2235,1184.6248C566.2987,1185.3274,566.57117,1189.2451,566.57654,1189.5591C566.5724,1189.741,566.57715,1189.9988,566.5824,1190.1206C566.62244,1191.312,566.6417,1193.4939,566.6238,1193.998C566.6178,1194.3391,566.6072,1194.8064,566.60547,1195.0215C566.59436,1195.2405,566.57715,1195.8008,566.55286,1196.2622C566.5288,1196.7234,566.537,1197.1267,566.57385,1197.134C566.6145,1197.1511,566.8375,1196.7881,567.0807,1196.3379C567.31055,1195.8823,567.5442,1195.4358,567.5879,1195.3501C567.89014,1194.7964,568.32764,1192.5732,568.5813,1190.3687C568.75684,1188.8518,569.34534,1186.6108,569.95984,1185.1721C570.5288,1183.8425,571.8804,1181.5359,572.5051,1180.8606C573.16016,1180.1501,574.53345,1179.019,576.39685,1177.6528C576.7815,1177.3811,577.2372,1177.0354,577.41016,1176.9077C577.589,1176.7659,577.885,1176.5537,578.0542,1176.4163C578.7616,1175.8875,579.85645,1175.3118,584.0228,1173.2886C584.9249,1172.8489,586.12,1172.2432,586.6887,1171.9524C587.953,1171.2954,592.61414,1169.3508,592.65784,1169.4568C592.6738,1169.4954,592.3237,1169.7412,591.86536,1169.9978C590.46497,1170.7903,589.8362,1171.2639,588.76636,1172.3372C587.83264,1173.2754,587.3987,1173.8381,586.89087,1174.7698C586.83777,1174.8594,586.3966,1175.6509,585.9137,1176.5049C585.4342,1177.3687,584.5227,1179.291,583.89124,1180.7708C582.3091,1184.5159,580.4955,1188.1646,579.54065,1189.5183C578.7427,1190.6487,578.08215,1191.2368,576.4691,1192.2522C575.3563,1192.9482,574.0729,1193.4209,572.3618,1193.7878C571.0508,1194.0576,571.0409,1194.0618,570.2306,1194.5876C569.3801,1195.1528,568.6948,1195.7627,568.04443,1196.5391C567.5161,1197.1743,566.55237,1198.5876,566.4607,1198.8853C566.4137,1199.0176,566.3153,1199.7917,566.2427,1200.6006C566.17004,1201.4094,566.0503,1202.5425,565.97485,1203.1265C565.8959,1203.7012,565.83704,1204.1882,565.845,1204.2075C565.8927,1204.323,564.87524,1209.7656,564.5635,1211.0908C564.52124,1211.2891,564.44714,1211.6016,564.40454,1211.7998C564.36194,1211.9978,564.1129,1212.9814,563.8522,1213.9915C562.9381,1217.4954,561.6925,1221.1809,560.19434,1224.8015C559.76355,1225.8372,559.4396,1226.6931,559.4667,1226.7043C559.6847,1226.7949,561.52515,1225.291,562.3562,1224.3501C563.0397,1223.5718,563.30237,1223.1135,564.6835,1220.3313C565.62463,1218.4534,567.22266,1215.6497,567.4059,1215.574C567.43506,1215.5623,567.6703,1215.2844,567.92834,1214.9521C568.5936,1214.102,570.103,1212.6443,571.22363,1211.7756C572.73474,1210.6221,573.76807,1210.117,575.8395,1209.5562C576.47925,1209.3826,577.2096,1209.1833,577.4625,1209.1125C578.6897,1208.7759,580.22424,1208.3914,580.73267,1208.2832C581.63,1208.1052,582.74426,1207.9055,583.1024,1207.8708C583.8419,1207.803,584.8063,1207.7322,585.8485,1207.6863C586.4586,1207.6602,587.25256,1207.6155,587.6146,1207.5898C587.9769,1207.565,588.37585,1207.5471,588.4978,1207.542C588.6239,1207.5464,588.9475,1207.5371,589.2206,1207.5151C590.6072,1207.4285,592.0542,1207.3513,592.2595,1207.3567C592.38135,1207.3513,592.8794,1207.3269,593.36365,1207.2964C593.84753,1207.2664,594.3921,1207.2449,594.584,1207.2449C594.76587,1207.2483,595.2717,1207.2432,595.70764,1207.2327C596.1339,1207.2261,596.593,1207.2175,596.7152,1207.2124C596.8412,1207.2168,597.3468,1207.2114,597.83887,1207.2004C598.3351,1207.199,598.9668,1207.1978,599.2516,1207.2046C599.53674,1207.2112,599.9148,1207.2246,600.10645,1207.2246C600.2887,1207.2283,600.6161,1207.2288,600.80835,1207.2288C601.0138,1207.2344,601.2062,1207.2905,601.23,1207.3484C601.2936,1207.5029,601.3362,1207.4966,600.51306,1207.5535C599.48694,1207.6382,598.2589,1207.8623,597.07446,1208.1931C596.2106,1208.425,595.77637,1208.604,594.6681,1209.1741C593.92456,1209.5598,593.2406,1209.9548,593.1505,1210.0371C593.0543,1210.133,592.5857,1210.5298,592.0939,1210.9241C589.4177,1213.1116,588.77893,1213.7249,586.37134,1216.3997C584.61523,1218.354,583.9595,1219.0085,581.54895,1221.21C581.12683,1221.6099,580.53577,1222.1472,580.2401,1222.4158C578.94666,1223.6042,578.20386,1224.1023,576.89185,1224.6433C575.90784,1225.0491,575.3959,1225.2039,574.4481,1225.3689C572.2545,1225.7432,571.0858,1225.7285,569.0017,1225.3008C566.59937,1224.8127,565.93884,1224.8257,564.0886,1225.4304C562.69434,1225.8816,561.45715,1226.5498,560.129,1227.571C559.3353,1228.1921,558.1979,1229.2935,558.03284,1229.6323C554.8662,1235.8032,552.0967,1240.1736,548.39465,1244.8271C547.4004,1246.084,544.59814,1249.3616,544.49207,1249.4053C544.463,1249.417,544.1489,1249.7502,543.7887,1250.1355C542.7905,1251.2466,541.04736,1252.959,540.96155,1252.9155C540.92065,1252.8982,540.71655,1252.4856,540.5099,1251.9841C540.1913,1251.2122,540.16064,1251.0554,540.276,1250.9517C540.3602,1250.883,540.5674,1250.6733,540.7438,1250.4988C540.91614,1250.3152,541.28064,1249.9395,541.553,1249.669C543.3093,1247.906,545.57214,1245.2913,547.8092,1242.45C548.526,1241.5334,550.67566,1238.4792,551.4669,1237.25C553.152,1234.6025,554.92725,1231.5449,554.99866,1231.1433C555.02246,1231.0093,554.9813,1230.6086,554.9175,1230.2622C554.8441,1229.9199,554.75757,1229.4368,554.7101,1229.1853C554.60254,1228.541,553.54663,1226.0078,553.16907,1225.4749C552.6338,1224.7249,551.80225,1223.8035,551.3707,1223.4958C551.14417,1223.3298,550.5161,1222.9565,549.9818,1222.6465C548.3147,1221.6973,547.725,1221.2522,546.70935,1220.1582C544.5686,1217.8689,543.58545,1215.8137,543.3999,1213.283C543.3922,1213.1282,543.3302,1212.5664,543.2798,1212.0339C542.9927,1209.2854,542.83105,1207.196,542.8425,1206.4575C542.8469,1206.3315,542.8447,1205.3955,542.8301,1204.3748C542.8153,1203.3535,542.8131,1202.418,542.808,1202.2957C542.8125,1202.1694,542.8191,1201.8845,542.8208,1201.6694C542.8292,1201.0337,542.60925,1198.9124,542.36633,1197.229C542.2411,1196.3774,542.10535,1195.4739,542.07336,1195.2048C541.97644,1194.477,540.7085,1191.5122,540.14575,1190.6946C539.3999,1189.625,538.9972,1189.1138,538.3622,1188.45C537.6959,1187.7651,537.6233,1187.6709,537.7969,1187.5991C537.9359,1187.5535,539.1334,1188.595,542.33484,1191.5415C542.65967,1191.8364,543.3019,1192.4631,543.7604,1192.9177C544.5985,1193.7458,544.7826,1193.9182,545.4874,1194.5872C545.6929,1194.7844,546.6094,1195.6934,547.53406,1196.6218C548.45483,1197.54,549.37537,1198.4585,549.5808,1198.656C550.5248,1199.5759,550.50745,1199.5605,551.20764,1200.3557C551.7905,1201.0298,552.7698,1202.3643,553.5576,1203.5632C553.83154,1203.9805,554.1603,1204.4768,554.2959,1204.6692C554.4315,1204.8616,554.7805,1205.4062,555.0742,1205.8723C555.3679,1206.3379,555.7208,1206.8923,555.87,1207.0903C556.3109,1207.7212,556.97485,1209.4678,557.16235,1210.4973C557.891,1214.5085,557.7577,1216.731,556.489,1221.3176C556.1904,1222.4004,555.9269,1223.3218,555.9098,1223.3625C555.792,1223.5693,555.4591,1225.2529,555.44055,1225.7009C555.3895,1226.9185,555.3965,1227.0171,555.6113,1228.6328C555.6786,1229.1245,555.8104,1229.499,555.8972,1229.4631C555.97437,1229.4314,556.66833,1227.9941,557.4524,1226.282C558.38367,1224.2163,559.25977,1222.0149,560.36755,1218.8716C561.57935,1215.4597,562.93396,1210.0134,563.61975,1205.7908C563.85815,1204.3721,563.8667,1204.2556,564.1675,1201.7273L564.3629,1200.0664L564.0327,1199.2656C563.5553,1198.1079,563.02673,1197.2649,561.801,1195.7161C561.5653,1195.4185,560.46436,1194.4727,560.02136,1194.1926C559.21155,1193.6799,558.4994,1193.4314,556.88965,1193.113C554.7031,1192.6831,553.026,1191.8735,551.3363,1190.4592C549.80566,1189.1826,548.57605,1186.9131,546.1633,1180.8987C544.7018,1177.2454,543.19995,1174.1511,542.3508,1173.0227C541.18677,1171.4595,539.2925,1169.9043,537.5552,1169.0852C537.18884,1168.9089,537.02466,1168.7847,537.0901,1168.7241C537.1802,1168.6416,538.7269,1169.1892,540.06433,1169.7778C540.36804,1169.9121,541.32996,1170.3281,542.2001,1170.7144C543.6195,1171.3367,545.4403,1172.1663,547.5751,1173.1824C547.9547,1173.3643,548.66174,1173.6824,549.1328,1173.8943C551.3218,1174.8767,552.5665,1175.6504,555.3562,1177.7622C558.2125,1179.9255,558.5259,1180.2476,559.58887,1182.1685C560.49805,1183.8254,560.8318,1184.5796,561.16907,1185.8625C561.6212,1187.5613,561.73,1188.3179,562.07153,1192.376C562.2095,1194.0237,562.88245,1195.7102,564.08057,1197.3835C564.4325,1197.8816,564.5648,1197.9287,564.55115,1197.5393C564.5476,1197.394,564.57324,1196.7173,564.60864,1196.0369C564.7694,1192.7312,564.63916,1188.3374,564.2777,1184.8062C564.2302,1184.363,564.1864,1183.8733,564.1787,1183.7183C564.16455,1183.4644,563.8346,1181.0493,563.6842,1180.0281C563.2035,1176.919,562.12695,1172.283,561.0846,1168.8528C560.60474,1167.2783,559.3021,1163.6274,559.0392,1163.1267C558.6477,1162.3962,556.85913,1161.3164,555.1969,1160.8169C553.9606,1160.4463,552.83496,1160.4812,551.38855,1160.9424C549.85095,1161.4297,547.9275,1161.5005,546.15796,1161.1243C545.2643,1160.9282,544.6354,1160.6345,543.7219,1160.0068C542.853,1159.4055,539.5696,1156.617,538.952,1155.9685C538.7267,1155.7229,538.41724,1155.4104,538.27625,1155.2881C538.14124,1155.1516,537.91797,1154.9392,537.7965,1154.8081C536.98474,1153.935,536.06775,1153.1619,534.3231,1151.8608C532.9031,1150.7983,531.82764,1150.2712,530.4153,1149.9395C529.59155,1149.7488,527.9346,1149.5627,527.73193,1149.6462C527.55444,1149.7083,527.1422,1149.5847,527.21484,1149.487C527.2512,1149.4382,527.56433,1149.3765,527.92676,1149.3518C528.2849,1149.3169,528.9761,1149.2688,529.4563,1149.2288C529.9363,1149.189,530.4303,1149.1545,530.5563,1149.1587C530.68225,1149.1633,531.10046,1149.1377,531.4955,1149.1101C532.24304,1149.0615,533.75415,1149.0027,534.3296,1149.0024C534.51196,1149.0063,534.8489,1149.0027,535.06006,1148.9946C535.2672,1148.9768,535.54846,1148.9741,535.6704,1148.9685C536.6312,1148.9448,536.9452,1148.9397,537.2396,1148.9421C537.4219,1148.946,537.755,1148.9329,537.96594,1148.9246C538.17334,1148.9072,538.4542,1148.9045,538.5763,1148.8992C538.69824,1148.894,539.0221,1148.8848,539.303,1148.8818C541.004,1148.8462,543.6841,1149.186,546.3917,1149.7849C547.9999,1150.1265,548.54724,1150.386,549.96924,1151.4253C551.52014,1152.5579,552.2925,1153.3906,553.43884,1155.1301C553.61206,1155.3862,554.699,1157.365,555.31604,1158.5327C555.47644,1158.8391,555.8502,1159.362,556.1482,1159.7019C556.73486,1160.3855,558.08875,1161.3962,558.3008,1161.3091C558.3683,1161.281,558.3832,1161.2075,558.3264,1161.1519C558.2656,1161.0864,557.8274,1160.1611,557.34314,1159.0962C555.25,1154.4851,552.5498,1149.7175,549.9214,1146.0266C549.7009,1145.7109,549.3998,1145.2822,549.24255,1145.0647C548.8584,1144.4893,547.84644,1143.1575,547.1295,1142.2673C546.7953,1141.8408,546.3711,1141.3047,546.18665,1141.0762C545.8956,1140.6995,544.6929,1139.2878,544.381,1138.9424C544.3203,1138.8772,543.95557,1138.4858,543.59656,1138.0808C541.9767,1136.2878,542.02563,1136.3245,540.80676,1135.7773C539.4203,1135.1526,538.36487,1134.8652,537.2654,1134.7991C536.1,1134.7383,535.29395,1134.9463,534.0803,1135.6165C532.3102,1136.6057,532.1113,1136.6987,531.2201,1136.9194C529.6277,1137.3279,528.4446,1137.387,527.401,1137.1289C526.1145,1136.8015,522.62256,1135.2048,520.09216,1133.7764C519.4042,1133.3943,517.92786,1132.7161,516.80493,1132.2649C515.04956,1131.5667,514.6376,1131.4434,513.7899,1131.3862C512.34705,1131.2815,511.24524,1131.3745,510.06097,1131.7048C509.74982,1131.7993,509.4671,1131.8254,509.4472,1131.7773C509.3994,1131.6616,510.6634,1131.1404,512.1334,1130.6809C512.78015,1130.4707,513.8772,1130.1199,514.5957,1129.8914C516.9286,1129.1433,520.7263,1128.0063,521.4785,1127.8315C522.1493,1127.6792,524.71204,1127.3789,526.1411,1127.2861C528.2655,1127.1553,528.72766,1127.2354,530.7617,1128.0898C532.4457,1128.8064,533.5043,1129.5664,535.05237,1131.1858C535.49146,1131.648,535.93225,1132.0872,536.02405,1132.1731C536.11633,1132.2593,536.4219,1132.5623,536.6864,1132.8481C536.9608,1133.1304,537.4706,1133.5181,537.8158,1133.7256C538.46326,1134.0911,540.0819,1134.6765,540.13293,1134.554C540.1499,1134.513,539.96936,1134.294,539.7189,1134.0698C539.4684,1133.846,539.0708,1133.4565,538.8164,1133.2229C537.7765,1132.207,533.8711,1128.896,533.2545,1128.4954C533.0928,1128.4043,532.95984,1128.3008,532.9519,1128.2815C532.9081,1128.1758,531.30615,1126.9734,529.9691,1126.0574C528.20996,1124.8298,525.0664,1122.8193,523.8286,1122.1443C523.3391,1121.8606,522.7312,1121.5356,522.48926,1121.387C522.2416,1121.2522,521.4896,1120.8513,520.81323,1120.498C519.5408,1119.8489,519.6011,1119.8582,518.21606,1119.9211C517.53064,1119.9553,516.28577,1120.2769,515.379,1120.6509C514.453,1121.0327,514.31055,1121.1252,513.16223,1122.1182C511.51086,1123.533,511.12762,1123.7812,509.44318,1124.4868C507.85577,1125.1531,507.6139,1125.1963,505.31323,1125.1743C503.65808,1125.1572,503.2801,1125.1438,501.6253,1124.9905C497.21265,1124.6094,494.85583,1124.5876,493.437,1124.9248C492.55573,1125.1416,490.25177,1126.0691,489.66272,1126.4473C489.13153,1126.8018,489.0963,1126.5793,489.6194,1126.2056C490.0927,1125.875,490.8836,1125.3569,491.55536,1124.9331C491.80005,1124.7871,492.3639,1124.4302,492.8105,1124.1445C493.24725,1123.8628,493.85956,1123.4861,494.1579,1123.3064C494.45654,1123.127,495.1267,1122.7266,495.6504,1122.4092C499.4782,1120.0854,500.33978,1119.6287,502.52954,1118.7256C505.2984,1117.5837,506.54474,1117.239,507.698,1117.2712C507.8241,1117.2756,508.31036,1117.2786,508.78333,1117.2754C510.19196,1117.27,511.5476,1117.5464,513.1533,1118.1821C513.9629,1118.5032,514.93176,1118.8823,515.30566,1119.022C516.15186,1119.3501,518.38635,1119.5125,518.2749,1119.2424C518.20703,1119.0781,511.50146,1116.3125,509.7707,1115.7278C508.9071,1115.4407,508.10773,1115.1721,507.99884,1115.127C507.88965,1115.0813,507.1062,1114.8513,506.25867,1114.603C505.41107,1114.3542,504.69183,1114.1426,504.64697,1114.116C504.4073,1114.0002,500.03235,1112.9714,498.7119,1112.7258C496.92126,1112.3804,496.74304,1112.3862,495.37256,1112.7031C494.13916,1112.9971,493.25165,1113.3635,492.25653,1113.9883C491.41736,1114.5264,490.9242,1115.0005,490.22308,1115.9556C489.34088,1117.1548,488.5907,1117.8816,487.23474,1118.8359C486.56366,1119.3164,484.67267,1120.0957,483.85815,1120.2285C482.5506,1120.4517,479.81653,1120.8567,479.50092,1120.885C477.40784,1121.0374,476.77686,1121.0942,476.18073,1121.1821C475.7976,1121.2385,475.31958,1121.3115,475.11646,1121.3389C474.91333,1121.3662,474.31586,1121.4773,473.81104,1121.5947C473.29297,1121.707,472.64703,1121.8379,472.3725,1121.8833C471.50024,1122.0398,469.0191,1123.4692,468.00763,1124.383C467.78687,1124.5872,467.57538,1124.7305,467.52643,1124.6943C467.4463,1124.637,467.71246,1124.3242,468.24408,1123.834C468.3996,1123.6909,468.63556,1123.4695,468.77167,1123.3342C468.89832,1123.2031,469.37982,1122.7563,469.82697,1122.3347C470.278,1121.9231,470.71545,1121.5056,470.8017,1121.4136C470.8919,1121.331,471.18756,1121.0627,471.46198,1120.825C471.7367,1120.5876,472.612,1119.8091,473.40698,1119.1091C475.5185,1117.2222,476.43073,1116.4509,477.20746,1115.8711C478.01868,1115.2654,478.67682,1114.8362,481.02533,1113.3594C481.8589,1112.8354,483.13232,1112.31,483.96783,1112.1462C486.65973,1111.6118,487.54358,1111.6199,490.5307,1112.2393C492.44916,1112.6218,492.5229,1112.6367,493.4926,1112.4966C494.50842,1112.3599,495.06128,1112.2222,495.01752,1112.116C494.9817,1112.029,493.94922,1111.8792,491.11835,1111.5566C490.14417,1111.439,486.09326,1111.1685,486.0063,1111.2041C485.96777,1111.22,485.75665,1111.228,485.52783,1111.2207C484.94812,1111.2114,484.77002,1111.2173,483.82257,1111.2466C483.02454,1111.2825,482.93378,1111.3083,481.464,1111.9597C478.09442,1113.4507,477.32532,1113.6665,475.2484,1113.7214C474.11908,1113.7471,473.92896,1113.7236,472.91376,1113.3975C471.03754,1112.8167,468.05792,1111.4492,466.30225,1110.367C465.3484,1109.7783,464.06293,1108.9878,463.44452,1108.6108C461.6754,1107.5232,458.73737,1105.5176,458.7771,1105.4221C458.794,1105.3813,458.93225,1105.4148,459.0899,1105.4966C460.94598,1106.5483,462.65637,1107.0281,464.2798,1106.9683C465.53687,1106.9241,466.93494,1106.81,467.63123,1106.6921C468.70685,1106.5083,469.04327,1106.4485,469.3952,1106.3713C469.59424,1106.3342,469.87872,1106.2847,470.0337,1106.2771C470.18488,1106.26,470.599,1106.2246,470.9533,1106.1804C472.26544,1106.023,474.02386,1105.9072,474.69092,1105.9373C475.97015,1105.9739,477.95276,1106.8945,479.97827,1108.3845C481.56427,1109.5479,483.7254,1110.1353,487.42218,1110.3945C491.8589,1110.6978,493.8789,1110.9146,496.9828,1111.407C498.31445,1111.6255,501.32825,1112.2,502.39093,1112.4504C502.81458,1112.5469,502.56976,1112.3086,501.8255,1111.9275C500.95618,1111.4619,500.7948,1111.4265,498.9173,1111.2529C496.22058,1111.0103,495.23126,1110.7183,493.5365,1109.7017C492.20422,1108.9075,491.8598,1108.5642,490.4729,1106.6531C488.85236,1104.4202,488.58014,1103.9795,487.38574,1101.5483C484.99066,1096.644,483.71875,1093.8608,483.83435,1093.813C483.8827,1093.7932,483.96222,1093.7942,484.00714,1093.821 Z"/>
</g>
<g style="fill:rgb(38,120,95); fill-opacity:1.0; stroke-linejoin: miter">
<path d="M587.8125,1089.1292C588.1083,1088.6326,588.26416,1088.3652,588.2606,1088.3567C588.22205,1088.3049,582.4761,1084.7749,575.4761,1080.5073L562.75574,1072.7397L547.0614,1098.3252L531.3779,1123.9167L544.1948,1131.758L557.01245,1139.5991L572.65674,1114.0251C579.97046,1102.0698,586.1383,1091.9375,587.8125,1089.1292 Z M577.7295,1094.2156L567.54944,1110.8582L557.3683,1127.5005L577.7295,1094.2156 Z M553.41846,1102.3696C553.42334,1102.3613,553.4282,1102.3528,553.4337,1102.3442C553.4386,1102.3362,553.4435,1102.3276,553.4485,1102.3193 Z M562.31775,1084.8582L541.97534,1118.1118L552.1494,1101.4797L562.31775,1084.8582 Z"/>
</g>
<g style="fill:rgb(38,120,95); fill-opacity:1.0; stroke-linejoin: miter">
<path d="M589.2041,1088.4597C589.1653,1088.408,583.4193,1084.8787,576.4192,1080.6106L563.6987,1072.843L548.0045,1098.4282L532.3208,1124.0203L545.1377,1131.8611L557.9547,1139.7019L573.5995,1114.1287C582.2057,1100.0605,589.22595,1088.5159,589.2041,1088.4597 Z M557.64746,1127.3528C556.28906,1126.8318,555.0309,1126.9077,553.75305,1127.5913C553.28894,1127.843,552.8845,1128.1592,552.6129,1128.4861C552.3939,1128.7756,552.1427,1129.002,552.073,1129.0012C551.80237,1129.0054,544.54285,1124.564,544.51514,1124.3784C544.51245,1124.292,544.60974,1123.9714,544.73816,1123.6692C545.0581,1122.9626,545.1072,1121.5693,544.85315,1120.7654C544.5774,1119.9485,544.0277,1119.1191,543.4175,1118.6189L542.9182,1118.2148L553.0919,1101.5828L563.26025,1084.9614L564.0182,1085.2422C564.4314,1085.3965,564.9906,1085.5415,565.25854,1085.564C566.5137,1085.6555,568.1472,1085.0339,568.8849,1084.1748C569.05334,1083.9683,569.28,1083.7126,569.38635,1083.6082L569.5714,1083.3975L573.3651,1085.7185C577.6102,1088.3154,577.23596,1087.9595,576.8108,1088.9541C576.5121,1089.6724,576.46716,1090.6448,576.6897,1091.5706C576.9287,1092.5623,577.68787,1093.717,578.3745,1094.1375L578.6719,1094.3193L568.4917,1110.9614L558.31067,1127.6033L557.64746,1127.3528 Z"/>
</g>
<g style="fill:rgb(38,120,95); fill-opacity:1.0; stroke-linejoin: miter">
<path d="M567.7748,1109.001C568.2622,1107.7214,568.3949,1106.1672,568.1261,1104.8335C567.8589,1103.5422,567.4155,1102.6089,566.57935,1101.5342C566.0061,1100.7888,565.84436,1100.6619,564.66516,1099.9402C563.51685,1099.2375,563.2825,1099.1372,562.43884,1098.9727C560.6095,1098.6003,558.85693,1098.8391,557.3268,1099.636C554.42993,1101.1472,552.7971,1104.5308,553.4336,1107.6816C554.18115,1111.3665,557.34595,1113.9087,561.03723,1113.7712C563.9935,1113.6628,566.73315,1111.7178,567.7748,1109.001 Z"/>
</g>
<g style="fill:rgb(42,175,134); fill-opacity:1.0; stroke-linejoin: miter">
<path d="M567.20996,1110.1458C565.923,1112.2502,563.5586,1113.6785,561.03723,1113.7712C557.34595,1113.9087,554.18115,1111.3665,553.4336,1107.6816C553.06433,1105.853,553.4586,1103.946,554.4215,1102.3726C555.1178,1101.2344,556.1113,1100.2705,557.3268,1099.636C558.85693,1098.8391,560.6095,1098.6003,562.43884,1098.9727C563.2825,1099.1372,563.51685,1099.2375,564.66516,1099.9402C565.84436,1100.6619,566.0061,1100.7888,566.57935,1101.5342C567.4155,1102.6089,567.8589,1103.5422,568.1261,1104.8335C568.3949,1106.1672,568.2622,1107.7214,567.7748,1109.001C567.6217,1109.4004,567.4313,1109.783,567.20996,1110.1458 Z M578.6719,1094.3193L578.3745,1094.1375C577.68787,1093.717,576.9287,1092.5623,576.6897,1091.5706C576.46716,1090.6448,576.5121,1089.6724,576.8108,1088.9541C577.23596,1087.9595,577.6102,1088.3154,573.3651,1085.7185L569.5714,1083.3975L569.38635,1083.6082C569.28,1083.7126,569.05334,1083.9683,568.8849,1084.1748C568.1472,1085.0339,566.5137,1085.6555,565.25854,1085.564C564.9906,1085.5415,564.4314,1085.3965,564.0182,1085.2422L563.26025,1084.9614L542.9182,1118.2148L543.4175,1118.6189C544.0277,1119.1191,544.5774,1119.9485,544.85315,1120.7654C545.1072,1121.5693,545.0581,1122.9626,544.73816,1123.6692C544.60974,1123.9714,544.51245,1124.292,544.51514,1124.3784C544.54285,1124.564,551.80237,1129.0054,552.073,1129.0012C552.1427,1129.002,552.3939,1128.7756,552.6129,1128.4861C552.8845,1128.1592,553.28894,1127.843,553.75305,1127.5913C555.0309,1126.9077,556.28906,1126.8318,557.64746,1127.3528L558.31067,1127.6033 Z"/>
</g>
<g style="fill:rgb(38,120,95); fill-opacity:1.0; stroke-linejoin: miter">
<path d="M566.7949,1174.279C566.2284,1174.3926,565.9253,1174.4568,565.9215,1174.4648C565.90894,1174.5283,567.1456,1181.1575,568.67615,1189.2117L571.4487,1203.856L600.9513,1198.3323L630.4513,1192.7959L627.66833,1178.031L624.88513,1163.2654L595.4247,1168.8184C581.6526,1171.4141,570.0006,1173.6367,566.7949,1174.279 Z M577.33093,1178.3447L596.5023,1174.7307L615.6741,1171.1172L577.33093,1178.3447 Z M599.6864,1190.9048C599.67676,1190.9065,599.66736,1190.9087,599.65735,1190.9102C599.64795,1190.9121,599.6384,1190.9143,599.6288,1190.9163 Z M580.7296,1196.052L619.0371,1188.8313L599.8777,1192.4426L580.7296,1196.052 Z"/>
</g>
<g style="fill:rgb(38,120,95); fill-opacity:1.0; stroke-linejoin: miter">
<path d="M565.36487,1173.6963C565.35266,1173.7595,566.5896,1180.3884,568.12024,1188.4431L570.8928,1203.0872L600.39514,1197.5635L629.89526,1192.0273L627.1122,1177.2625L624.32935,1162.4971L594.86914,1168.0496C578.66284,1171.1045,565.39197,1173.6421,565.36487,1173.6963 Z M615.3772,1171.0093C615.90186,1172.3662,616.8025,1173.2485,618.1665,1173.7375C618.6647,1173.9128,619.1703,1174.0007,619.595,1173.9827C619.95654,1173.9509,620.29285,1173.9856,620.33923,1174.0378C620.5239,1174.2356,622.09973,1182.5989,621.9807,1182.7437C621.91846,1182.8037,621.61536,1182.9465,621.3052,1183.054C620.5668,1183.2908,619.50037,1184.189,619.0746,1184.9167C618.6538,1185.6692,618.4072,1186.6333,618.4459,1187.4211L618.4811,1188.0625L599.3218,1191.6748L580.1741,1195.2837L579.8738,1194.533C579.7112,1194.123,579.4436,1193.6113,579.2805,1193.3975C578.50635,1192.405,576.9496,1191.6104,575.8175,1191.6396C575.5514,1191.6536,575.20984,1191.6567,575.0609,1191.648L574.7804,1191.6521L573.9569,1187.2812C573.03503,1182.3911,573.0222,1182.9075,574.04504,1182.5557C574.7781,1182.2952,575.5294,1181.676,576.06665,1180.8904C576.6417,1180.0476,576.9889,1178.7102,576.8401,1177.9187L576.77563,1177.5762L595.9468,1173.9624L615.1183,1170.3491L615.3772,1171.0093 Z"/>
</g>
<g style="fill:rgb(38,120,95); fill-opacity:1.0; stroke-linejoin: miter">
<path d="M594.97375,1175.8093C593.6979,1176.3064,592.45605,1177.2505,591.64734,1178.3445C590.869,1179.4087,590.47437,1180.3635,590.23816,1181.7046C590.0698,1182.6296,590.084,1182.835,590.33997,1184.1936C590.58936,1185.5164,590.672,1185.7578,591.1162,1186.4937C592.06714,1188.1003,593.4197,1189.2397,595.03723,1189.8401C598.1013,1190.9744,601.7057,1189.916,603.6156,1187.3301C605.8468,1184.304,605.6094,1180.2515,603.031,1177.606C600.9675,1175.4863,597.68726,1174.7593,594.97375,1175.8093 Z"/>
</g>
<g style="fill:rgb(42,175,134); fill-opacity:1.0; stroke-linejoin: miter">
<path d="M596.20154,1175.4604C598.62573,1175.0029,601.2709,1175.7983,603.031,1177.606C605.6094,1180.2515,605.8468,1184.304,603.6156,1187.3301C602.5071,1188.8308,600.8285,1189.8174,599.0155,1190.1589C597.70447,1190.4058,596.3231,1190.3157,595.03723,1189.8401C593.4197,1189.2397,592.06714,1188.1003,591.1162,1186.4937C590.672,1185.7578,590.58936,1185.5164,590.33997,1184.1936C590.084,1182.835,590.0698,1182.6296,590.23816,1181.7046C590.47437,1180.3635,590.869,1179.4087,591.64734,1178.3445C592.45605,1177.2505,593.6979,1176.3064,594.97375,1175.8093C595.3728,1175.655,595.7842,1175.5393,596.20154,1175.4604 Z M576.77563,1177.5762L576.8401,1177.9187C576.9889,1178.7102,576.6417,1180.0476,576.06665,1180.8904C575.5294,1181.676,574.7781,1182.2952,574.04504,1182.5557C573.0222,1182.9075,573.03503,1182.3911,573.9569,1187.2812L574.7804,1191.6521L575.0609,1191.648C575.20984,1191.6567,575.5514,1191.6536,575.8175,1191.6396C576.9496,1191.6104,578.50635,1192.405,579.2805,1193.3975C579.4436,1193.6113,579.7112,1194.123,579.8738,1194.533L580.1741,1195.2837L618.4811,1188.0625L618.4459,1187.4211C618.4072,1186.6333,618.6538,1185.6692,619.0746,1184.9167C619.50037,1184.189,620.5668,1183.2908,621.3052,1183.054C621.61536,1182.9465,621.91846,1182.8037,621.9807,1182.7437C622.09973,1182.5989,620.5239,1174.2356,620.33923,1174.0378C620.29285,1173.9856,619.95654,1173.9509,619.595,1173.9827C619.1703,1174.0007,618.6647,1173.9128,618.1665,1173.7375C616.8025,1173.2485,615.90186,1172.3662,615.3772,1171.0093L615.1183,1170.3491 Z"/>
</g>
<g style="fill:rgb(38,120,95); fill-opacity:1.0; stroke-linejoin: miter">
<path d="M554.7001,1173.1643C555.2731,1173.2385,555.58057,1173.2751,555.5868,1173.2688C555.61914,1173.2129,556.5769,1166.5374,557.714,1158.4185L559.79114,1143.6594L530.07715,1139.416L500.36163,1135.1855L498.25543,1150.0623L496.14923,1164.9397L525.83276,1169.1416C539.7091,1171.1062,551.4579,1172.7429,554.7001,1173.1643 Z M546.0277,1165.9304L526.71106,1163.1963L507.39404,1160.4612L546.0277,1165.9304 Z M528.8898,1146.8564C528.89954,1146.8577,528.90894,1146.8589,528.91907,1146.8606C528.9286,1146.8618,528.93835,1146.8625,528.9481,1146.8638 Z M548.4956,1148.0698L509.8979,1142.6057L529.2025,1145.3384L548.4956,1148.0698 Z"/>
</g>
<g style="fill:rgb(38,120,95); fill-opacity:1.0; stroke-linejoin: miter">
<path d="M555.86707,1174.1755C555.8992,1174.1194,556.85657,1167.4443,557.9935,1159.325L560.0708,1144.5657L530.35706,1140.3225L500.64117,1136.0916L498.53522,1150.9685L496.42883,1165.8455L526.1123,1170.0479C542.44116,1172.3596,555.8242,1174.2178,555.86707,1174.1755 Z M507.64062,1160.6592C507.57935,1159.2053,507.00995,1158.081,505.87518,1157.1797C505.45966,1156.8535,505.0091,1156.6082,504.60114,1156.4888C504.24847,1156.4028,503.94116,1156.2622,503.91394,1156.1978C503.8026,1155.9512,504.9959,1147.5247,505.1551,1147.4258C505.2334,1147.3887,505.56635,1147.3508,505.89465,1147.3486C506.67004,1147.3616,507.96832,1146.8533,508.6053,1146.3008C509.24542,1145.7231,509.7885,1144.8894,510.005,1144.1309L510.17755,1143.5122L529.4823,1146.2441L548.7749,1148.9758L548.81824,1149.783C548.8406,1150.2236,548.9297,1150.7942,549.0155,1151.0491C549.42993,1152.2373,550.6492,1153.4897,551.7306,1153.8257C551.98706,1153.8982,552.31165,1154.0046,552.4498,1154.0608L552.7167,1154.1472L552.09314,1158.5503C551.3955,1163.4778,551.5736,1162.9929,550.4918,1162.9976C549.71387,1163.0088,548.80347,1163.3538,548.0425,1163.9258C547.22705,1164.5391,546.4689,1165.6943,546.3556,1166.4915L546.3069,1166.8364L526.99036,1164.1025L507.67383,1161.3672L507.64062,1160.6592 Z"/>
</g>
<g style="fill:rgb(38,120,95); fill-opacity:1.0; stroke-linejoin: miter">
<path d="M528.5051,1162.6658C529.8729,1162.6047,531.35205,1162.1096,532.46936,1161.3333C533.5482,1160.575,534.22864,1159.7976,534.8832,1158.6035C535.3396,1157.7812,535.39197,1157.5825,535.58594,1156.2134C535.77466,1154.8806,535.7738,1154.6257,535.5896,1153.7864C535.20483,1151.9592,534.2898,1150.4458,532.9508,1149.3579C530.4132,1147.2993,526.65967,1147.1443,524.0205,1148.9797C520.93604,1151.1292,519.85925,1155.0435,521.4514,1158.3767C522.72485,1161.0466,525.598,1162.7886,528.5051,1162.6658 Z"/>
</g>
<g style="fill:rgb(42,175,134); fill-opacity:1.0; stroke-linejoin: miter">
<path d="M527.2302,1162.6018C524.7876,1162.2563,522.5377,1160.6538,521.4514,1158.3767C519.85925,1155.0435,520.93604,1151.1292,524.0205,1148.9797C525.55237,1147.9148,527.459,1147.5195,529.28564,1147.7781C530.60657,1147.9653,531.88586,1148.4944,532.9508,1149.3579C534.2898,1150.4458,535.20483,1151.9592,535.5896,1153.7864C535.7738,1154.6257,535.77466,1154.8806,535.58594,1156.2134C535.39197,1157.5825,535.3396,1157.7812,534.8832,1158.6035C534.22864,1159.7976,533.5482,1160.575,532.46936,1161.3333C531.35205,1162.1096,529.8729,1162.6047,528.5051,1162.6658C528.07764,1162.6838,527.6509,1162.6609,527.2302,1162.6018 Z M546.3069,1166.8364L546.3556,1166.4915C546.4689,1165.6943,547.22705,1164.5391,548.0425,1163.9258C548.80347,1163.3538,549.71387,1163.0088,550.4918,1162.9976C551.5736,1162.9929,551.3955,1163.4778,552.09314,1158.5503L552.7167,1154.1472L552.4498,1154.0608C552.31165,1154.0046,551.98706,1153.8982,551.7306,1153.8257C550.6492,1153.4897,549.42993,1152.2373,549.0155,1151.0491C548.9297,1150.7942,548.8406,1150.2236,548.81824,1149.783L548.7749,1148.9758L510.17755,1143.5122L510.005,1144.1309C509.7885,1144.8894,509.24542,1145.7231,508.6053,1146.3008C507.96832,1146.8533,506.67004,1147.3616,505.89465,1147.3486C505.56635,1147.3508,505.2334,1147.3887,505.1551,1147.4258C504.9959,1147.5247,503.8026,1155.9512,503.91394,1156.1978C503.94116,1156.2622,504.24847,1156.4028,504.60114,1156.4888C505.0091,1156.6082,505.45966,1156.8535,505.87518,1157.1797C507.00995,1158.081,507.57935,1159.2053,507.64062,1160.6592L507.67383,1161.3672 Z"/>
</g>
<g style="fill:rgb(223,100,69); fill-opacity:1.0; stroke-linejoin: miter">
<path d="M513.22437,1243.6013L546.9253,1243.6013L580.62646,1243.6018Q580.62634,1251.4878,580.62634,1259.374Q546.9253,1259.3743,513.22437,1259.374Q513.22437,1251.4875,513.22437,1243.6013"/>
</g>
<g style="fill:rgb(223,100,69); fill-opacity:1.0; stroke-linejoin: miter">
<path d="M572.15674,1227.6943L572.15674,1227.6946L572.15674,1227.6948L572.15674,1227.6943"/>
</g>
<g style="fill:rgb(0,0,0); fill-opacity:1.0; stroke-linejoin: miter">
<path d="M417.17786,1176.0933L417.17786,1176.0933L417.17767,1176.0962L417.17786,1176.0933 Z"/>
</g>
<g style="fill:rgb(253,192,15); fill-opacity:1.0; stroke-linejoin: miter">
<path d="M433.82715,1153.9929L431.98413,1157.3752Q425.70953,1169.5088,424.85803,1176.0537Q424.01813,1182.7434,429.91528,1177.0193Q434.60596,1172.1292,439.82874,1162.9653Q441.2259,1160.5085,442.5185,1157.9614L443.69934,1155.5618Q444.78894,1153.2783,445.73322,1151.0161Q448.2489,1144.8945,448.83252,1141.2737Q449.39484,1137.7861,448.05908,1137.2471Q446.4173,1136.9062,443.1366,1140.4897Q438.94727,1145.0664,433.82715,1153.9929 Z"/>
</g>
<g style="fill:rgb(184,159,87); fill-opacity:1.0; stroke-linejoin: miter">
<path d="M441.497,1150.9102L441.38287,1151.0776Q440.99854,1151.6055,440.64905,1151.81Q440.25714,1152.0381,440.13507,1151.7212Q440.03906,1151.3655,440.318,1150.7151Q440.5832,1150.0981,441.0418,1149.5808Q441.4339,1149.1565,441.71704,1149.0981Q441.97418,1149.0471,442.0345,1149.3423Q442.07727,1149.6318,441.91132,1150.0918Q441.85638,1150.2437,441.7801,1150.4055L441.69757,1150.5703Q441.60742,1150.7405,441.497,1150.9102 Z"/>
</g>
<g style="fill:rgb(184,159,87); fill-opacity:1.0; stroke-linejoin: miter">
<path d="M438.45166,1155.2676L438.3172,1155.4641Q438.11914,1155.7385,437.9273,1155.9446Q437.8307,1156.0479,437.73602,1156.1348Q437.68616,1156.1897,437.45325,1156.3582Q437.03973,1156.6289,436.87152,1156.4104Q436.7105,1156.1475,436.91327,1155.5608Q437.13318,1154.9404,437.54852,1154.3584Q437.76227,1154.0613,437.98303,1153.8298Q438.22675,1153.5889,438.26843,1153.5647Q438.35895,1153.4902,438.4428,1153.4377Q438.61285,1153.3303,438.74524,1153.3083Q438.8081,1153.2976,438.85913,1153.3047Q438.89142,1153.2974,438.98676,1153.3733Q439.15796,1153.5967,439.0025,1154.1221Q438.83014,1154.6892,438.45166,1155.2676 Z"/>
</g>
<g style="fill:rgb(184,159,87); fill-opacity:1.0; stroke-linejoin: miter">
<path d="M434.94232,1161.2822L434.78564,1161.5134Q434.26947,1162.2432,433.7608,1162.6326Q433.65247,1162.7146,433.5572,1162.7678Q433.32953,1162.8835,433.30182,1162.8723Q433.1513,1162.897,433.05872,1162.8127Q432.96655,1162.6584,432.97314,1162.6057Q432.9615,1162.5198,432.9702,1162.4141Q432.98804,1162.2051,433.09058,1161.9121Q433.20374,1161.6018,433.36456,1161.2886Q433.44434,1161.1313,433.5365,1160.978Q433.77448,1160.5925,433.83612,1160.5166Q434.34882,1159.7908,434.8507,1159.3977Q435.34296,1159.0317,435.54712,1159.1875Q435.6413,1159.2749,435.6579,1159.4407Q435.66595,1159.5225,435.65607,1159.6238Q435.61218,1159.8918,435.58105,1159.968Q435.53772,1160.1067,435.48187,1160.2498Q435.4615,1160.3184,435.2884,1160.6824Q435.1405,1160.9753,434.94232,1161.2822 Z"/>
</g>
<g style="fill:rgb(184,159,87); fill-opacity:1.0; stroke-linejoin: miter">
<path d="M433.3537,1166.3896L433.18744,1166.6431Q432.9458,1167.0027,432.7063,1167.2913Q432.4032,1167.6428,432.3432,1167.6921Q432.22113,1167.814,432.09985,1167.9192Q431.89624,1168.1047,431.6324,1168.2251Q431.46503,1168.2822,431.34827,1168.2068Q431.14142,1167.9963,431.35303,1167.3726Q431.5852,1166.6741,432.12506,1165.8499Q432.42468,1165.4089,432.6477,1165.144Q432.7083,1165.0608,433.00525,1164.7483Q433.12354,1164.6294,433.24127,1164.5251Q433.5205,1164.3032,433.55878,1164.2932Q433.6527,1164.2375,433.73157,1164.2085Q433.88855,1164.1504,433.985,1164.207Q434.20062,1164.3499,434.04236,1164.9348Q433.99445,1165.0923,433.90637,1165.3235Q433.83405,1165.4944,433.7202,1165.7368Q433.60358,1165.98,433.3537,1166.3896 Z"/>
</g>
<g style="fill:rgb(184,159,87); fill-opacity:1.0; stroke-linejoin: miter">
<path d="M434.71838,1167.8389L434.56433,1168.0901Q434.29132,1168.5049,434.11926,1168.7205Q433.86047,1169.0356,433.82043,1169.0752Q433.65192,1169.2544,433.5194,1169.3784Q433.06763,1169.7817,432.87537,1169.6365Q432.78748,1169.5154,432.7931,1169.4646Q432.7787,1169.3938,432.78546,1169.301Q432.79657,1169.1152,432.88293,1168.8479Q432.89996,1168.7769,433.06036,1168.387Q433.12958,1168.2295,433.21295,1168.0618Q433.378,1167.7327,433.59747,1167.3801Q433.90924,1166.9016,434.11584,1166.6455Q434.44586,1166.2427,434.62598,1166.0818Q435.11835,1165.6353,435.31036,1165.7468Q435.3427,1165.7502,435.40363,1165.8813Q435.42072,1165.9407,435.42273,1166.0232Q435.4242,1166.187,435.35797,1166.435Q435.2539,1166.7959,435.0572,1167.2075Q434.9107,1167.5139,434.71838,1167.8389 Z"/>
</g>
<g style="fill:rgb(184,159,87); fill-opacity:1.0; stroke-linejoin: miter">
<path d="M438.50018,1162.98L438.37146,1163.1926Q438.10474,1163.6003,438.00336,1163.717Q437.81464,1163.9473,437.76727,1163.9993Q437.62982,1164.1414,437.53607,1164.2239Q437.33618,1164.397,437.22797,1164.4316Q437.1671,1164.4546,437.11768,1164.4531Q437.00177,1164.4319,436.9926,1164.4001Q436.84082,1164.2085,437.02588,1163.6255Q437.22974,1163.0205,437.6089,1162.4033Q437.83893,1162.0435,437.9978,1161.8362Q438.29718,1161.4697,438.4215,1161.3628Q438.6538,1161.1599,438.76648,1161.1135Q438.91663,1161.0608,438.9325,1161.0762Q438.97583,1161.0818,439.01868,1161.1125Q439.1654,1161.2598,439.03955,1161.7554Q438.86755,1162.3499,438.50018,1162.98 Z"/>
</g>
<g style="fill:rgb(184,159,87); fill-opacity:1.0; stroke-linejoin: miter">
<path d="M441.41455,1157.283L441.30298,1157.4651Q441.0979,1157.772,441.00647,1157.8811Q440.83643,1158.0791,440.78314,1158.134Q440.6775,1158.2341,440.60278,1158.2959Q440.42474,1158.4312,440.34528,1158.4492Q440.2215,1158.4878,440.1336,1158.3955Q440.0678,1158.2781,440.07336,1158.1313Q440.06445,1158.1016,440.1078,1157.863Q440.12927,1157.76,440.16577,1157.644Q440.27264,1157.3416,440.3031,1157.2822Q440.35425,1157.1609,440.4126,1157.042Q440.52948,1156.8037,440.67383,1156.5715Q440.83502,1156.3198,441.0088,1156.0979Q441.30573,1155.7563,441.37262,1155.7139Q441.60266,1155.54,441.66724,1155.5364Q441.7846,1155.5117,441.79572,1155.5225Q441.84155,1155.5374,441.88,1155.5774Q441.90063,1155.5894,441.93457,1155.7231Q441.94446,1155.78,441.9422,1155.8533Q441.93793,1155.9988,441.8875,1156.2007Q441.79498,1156.5002,441.76715,1156.561Q441.7212,1156.6816,441.66675,1156.8Q441.5572,1157.0432,441.41455,1157.283 Z"/>
</g>
<g style="fill:rgb(184,159,87); fill-opacity:1.0; stroke-linejoin: miter">
<path d="M442.16284,1153.4023L442.05408,1153.5723Q441.8222,1153.898,441.76495,1153.9546Q441.6236,1154.1067,441.5465,1154.1819Q441.42566,1154.2825,441.372,1154.3206Q441.04376,1154.5493,440.91675,1154.3572Q440.84686,1154.2102,440.8576,1154.0547Q440.89032,1153.7708,440.93555,1153.645Q441.11792,1153.0798,441.44843,1152.5745Q441.56836,1152.3901,441.7749,1152.1365Q442.03284,1151.863,442.11163,1151.8079Q442.33728,1151.6611,442.39935,1151.6572Q442.52423,1151.6494,442.53687,1151.657Q442.57422,1151.6731,442.62616,1151.7322Q442.73657,1151.9219,442.62585,1152.3647Q442.46942,1152.9084,442.16284,1153.4023 Z"/>
</g>
<g style="fill:rgb(253,192,15); fill-opacity:1.0; stroke-linejoin: miter">
<path d="M448.74097,1156.373L448.74078,1156.3733L448.74097,1156.373C450.0387,1156.5139,450.97638,1157.6794,450.83582,1158.9773C450.6952,1160.2751,449.529,1161.2129,448.23138,1161.073L448.23126,1161.073L448.23138,1161.073C446.93365,1160.9319,445.99548,1159.7659,446.1364,1158.4683C446.27704,1157.1707,447.4433,1156.2324,448.74097,1156.373 Z M458.02136,1159.5547L458.02136,1159.5547L458.02136,1159.5547C459.31915,1159.6946,460.2572,1160.8608,460.11652,1162.1587C459.97583,1163.4565,458.8095,1164.3943,457.51202,1164.2539L457.5119,1164.2542L457.51202,1164.2539C456.21405,1164.1128,455.27637,1162.947,455.41705,1161.6492C455.55774,1160.3513,456.72357,1159.4136,458.02136,1159.5547 Z M467.26245,1162.978L467.2624,1162.9783L467.26245,1162.978C468.56006,1163.1189,469.49792,1164.2847,469.35724,1165.5825C469.2166,1166.8806,468.05066,1167.8184,466.75293,1167.6777L466.75287,1167.678L466.75293,1167.6777C465.45532,1167.5371,464.5171,1166.3704,464.6577,1165.073C464.79852,1163.7754,465.96454,1162.8372,467.26245,1162.978 Z M476.1452,1167.144L476.14514,1167.144L476.1452,1167.144C477.44287,1167.2842,478.3808,1168.4507,478.23987,1169.7483C478.09937,1171.0464,476.9333,1171.9844,475.63574,1171.8438L475.63574,1171.844L475.63574,1171.8438C474.33813,1171.7031,473.4001,1170.5369,473.54077,1169.2393C473.68164,1167.9414,474.84747,1167.0032,476.1452,1167.144 Z M484.57275,1172.252L484.57263,1172.2527L484.57275,1172.252C485.87048,1172.3928,486.8084,1173.5583,486.66766,1174.8562C486.5271,1176.1543,485.36096,1177.0918,484.06305,1176.9512L484.0631,1176.9514L484.06305,1176.9512C482.7655,1176.8108,481.82758,1175.6448,481.96844,1174.3472C482.1089,1173.0488,483.27496,1172.1113,484.57275,1172.252 Z"/>
</g>
<g style="fill:rgb(253,192,15); fill-opacity:1.0; stroke-linejoin: miter">
<path d="M446.3598,1163.3652L446.35968,1163.3655L446.3598,1163.3652C447.63702,1163.634,448.4546,1164.888,448.18567,1166.1646C447.91693,1167.4421,446.66327,1168.2595,445.38586,1167.9907L445.38586,1167.9907L445.38586,1167.9907C444.10846,1167.7219,443.29095,1166.468,443.55994,1165.1909C443.8288,1163.9136,445.08228,1163.0962,446.3598,1163.3652 Z M455.27844,1167.4524L455.27844,1167.4524L455.27844,1167.4524C456.55585,1167.7212,457.37335,1168.9751,457.10425,1170.2517C456.8355,1171.5295,455.58197,1172.3469,454.30457,1172.0781L454.30438,1172.0784L454.30457,1172.0781C453.02734,1171.8096,452.20984,1170.5557,452.47888,1169.2783C452.74762,1168.0007,454.0011,1167.1831,455.27844,1167.4524 Z M464.1336,1171.7773L464.13354,1171.7781L464.1336,1171.7773C465.41083,1172.0466,466.2282,1173.2998,465.95947,1174.5769C465.6905,1175.8542,464.43707,1176.6716,463.15967,1176.4031L463.1596,1176.4031L463.15967,1176.4031C461.88232,1176.134,461.0647,1174.8804,461.33368,1173.6033C461.60254,1172.3259,462.85614,1171.5088,464.1336,1171.7773 Z M472.5586,1176.8052L472.5586,1176.8054L472.5586,1176.8052C473.83588,1177.0737,474.65344,1178.3276,474.38458,1179.605C474.1156,1180.8823,472.86212,1181.6997,471.58484,1181.4307L471.5849,1181.4309L471.58484,1181.4307C470.30762,1181.1619,469.49,1179.9087,469.75916,1178.6311C470.02795,1177.3535,471.28125,1176.5361,472.5586,1176.8052 Z M480.43683,1182.7251L480.43683,1182.7251L480.43683,1182.7251C481.71436,1182.9941,482.53204,1184.2476,482.26312,1185.5249C481.99426,1186.8022,480.74054,1187.6201,479.46338,1187.3508L479.46332,1187.3511L479.46338,1187.3508C478.18604,1187.0818,477.36853,1185.8289,477.6374,1184.551C477.90613,1183.2737,479.1598,1182.4563,480.43683,1182.7251 Z"/>
</g>
<g style="fill:rgb(253,192,15); fill-opacity:1.0; stroke-linejoin: miter">
<path d="M444.43103,1170.7002L444.43115,1170.7004L444.43103,1170.7002C445.60797,1171.2651,446.10382,1172.677,445.539,1173.8538C444.97424,1175.0305,443.56226,1175.5264,442.38544,1174.9617L442.38525,1174.9617L442.38544,1174.9617C441.20856,1174.3965,440.7126,1172.9849,441.2776,1171.8079C441.8426,1170.6313,443.25433,1170.1353,444.43103,1170.7002 Z M452.1223,1176.7908L452.1223,1176.791L452.1223,1176.7908C453.29907,1177.3557,453.79517,1178.7678,453.23035,1179.9446C452.66534,1181.1216,451.25348,1181.6172,450.0766,1181.0527L450.07648,1181.0527L450.0766,1181.0527C448.89996,1180.4878,448.40387,1179.0762,448.96893,1177.8992C449.53363,1176.7224,450.94568,1176.2263,452.1223,1176.7908 Z M459.69525,1183.0977L459.69525,1183.0979L459.69525,1183.0977C460.87225,1183.6626,461.36792,1185.0745,460.80316,1186.2515C460.23816,1187.4282,458.8261,1187.9243,457.64954,1187.3591L457.6493,1187.3594L457.64954,1187.3591C456.47284,1186.7942,455.97675,1185.3823,456.5415,1184.2053C457.10645,1183.0283,458.5185,1182.5325,459.69525,1183.0977 Z M466.68323,1189.9839L466.6831,1189.9844L466.68323,1189.9839C467.86,1190.5491,468.3559,1191.9612,467.79108,1193.1377C467.22626,1194.3147,465.81445,1194.8108,464.6375,1194.2456L464.63745,1194.2463L464.6375,1194.2456C463.4607,1193.6809,462.9646,1192.2688,463.5296,1191.0923C464.09454,1189.9153,465.50647,1189.4197,466.68323,1189.9839 Z M472.92828,1197.6084L472.92816,1197.6086L472.92828,1197.6084C474.10492,1198.1726,474.60083,1199.5845,474.036,1200.7615C473.47125,1201.9382,472.0592,1202.4343,470.88232,1201.8691L470.8822,1201.8694L470.88232,1201.8691C469.7058,1201.3047,469.20984,1199.8923,469.7746,1198.7156C470.33948,1197.5393,471.7514,1197.0432,472.92828,1197.6084 Z"/>
</g>
<g style="fill:rgb(255,255,255); fill-opacity:1.0; stroke-linejoin: miter">
<path d="M427.24005,1133.2249L427.23993,1133.2253L427.24005,1133.2251L427.24005,1133.2249"/>
</g>
<g style="fill:rgb(61,99,108); fill-opacity:1.0; stroke-linejoin: miter">
<path d="M405.2055,1173.6196L405.2055,1173.6196L405.2055,1173.6196L405.2055,1173.6196"/>
</g>
<g style="fill:rgb(253,192,15); fill-opacity:1.0; stroke-linejoin: miter">
<path d="M385.4389,1135.8928L385.43878,1135.8931L434.4397,1153.221Q431.64185,1159.2368,428.84424,1165.2522Q398.3263,1157.1313,367.80817,1149.0112L385.4389,1135.8928 Z"/>
</g>
<g style="fill:rgb(253,192,15); fill-opacity:1.0; stroke-linejoin: miter">
<path d="M367.90845,1080.4067L367.9082,1080.4077L367.90857,1080.4072L367.90875,1080.4077L367.90857,1080.4072L367.9085,1080.407C367.76886,1082.4702,366.21332,1084.1589,364.1684,1084.4673C362.12335,1084.7756,360.13904,1083.6206,359.39697,1081.6902L359.39697,1081.6907C355.39062,1071.2671,352.03827,1063.0947,346.03204,1059.479L346.0318,1059.48C344.0926,1058.3118,341.84943,1057.6221,339.73682,1057.5283L339.73657,1057.5288C335.8399,1057.3567,332.5484,1059.0667,331.58936,1064.2544L331.5893,1064.2546C329.71783,1074.3765,336.19348,1095.1724,343.49762,1118.0862C344.23688,1120.4053,346.61536,1126.728,344.29608,1127.4675C341.97693,1128.2068,342.02795,1143.97,335.09894,1120.7634C341.43225,1140.6829,335.09882,1120.7639,335.09882,1120.7639C328.24725,1099.2144,320.53534,1075.5566,322.9212,1062.6519L322.9212,1062.6523C324.7965,1052.5073,332.50983,1048.3862,340.12543,1048.7222L340.1253,1048.7227C343.79053,1048.884,347.45282,1050.0457,350.57806,1051.927L350.57812,1051.9272C359.72888,1057.4353,364.00378,1069.1062,367.62518,1078.5276L359.11377,1079.8108L359.11353,1079.8118C359.2782,1077.3823,361.38025,1075.5466,363.80902,1075.7114C366.23755,1075.876,368.07312,1077.978,367.90845,1080.4067L367.90857,1080.4072L367.90845,1080.4067L367.9082,1080.4077 Z"/>
</g>
<g style="fill:rgb(255,185,149); fill-opacity:1.0; stroke-linejoin: miter">
<path d="M292.8026,1079.75L295.80896,1081.0886Q318.93573,1091.5098,324.14038,1092.5476Q328.89838,1093.7698,332.10144,1093.7058Q337.0744,1093.4753,338.5089,1092.166Q339.65887,1091.6228,340.59998,1089.1646Q341.22382,1087.8186,340.9596,1082.325Q342.5028,1081.9658,343.41492,1078.0015Q344.03577,1075.4309,342.10626,1073.5518Q344.89038,1071.7427,345.4555,1068.6787Q345.94165,1066.5764,344.48663,1064.0449Q345.435,1064.1509,346.1853,1062.6841Q347.1134,1060.95,347.11542,1059.2573Q347.0987,1054.3711,339.06146,1050.6562Q335.71393,1049.2017,332.00568,1049.1018Q328.5816,1049.0547,325.55164,1050.013Q320.57574,1051.1348,314.5597,1057.9656L303.22296,1056.7217L292.8026,1079.75 Z"/>
</g>
<g style="fill:rgb(255,255,255); fill-opacity:1.0; stroke-linejoin: miter">
<path d="M314.8097,1053.7366L307.6886,1050.5425L300.56757,1047.3481Q293.35437,1063.4282,286.14117,1079.5083Q293.26215,1082.7026,300.38312,1085.8972Q307.59637,1069.8167,314.8097,1053.7366 Z"/>
</g>
<g style="fill:rgb(0,0,0); fill-opacity:1.0; stroke-linejoin: miter">
<path d="M218.05096,1057.8108L218.0509,1057.811L224.98,1059.7151L272.6996,1076.8638C284.70868,1082.2058,292.3344,1085.6033,292.66003,1085.7661C293.11377,1084.8586,293.56744,1083.9509,294.02112,1083.0432C294.02094,1083.043,294.02063,1083.043,294.0204,1083.043L294.02124,1083.0435C294.39667,1082.292,294.7713,1081.5427,295.14594,1080.7937L292.8026,1079.75L295.14594,1080.7937C295.49493,1080.0957,295.844,1079.3975,296.19287,1078.6995C299.78674,1071.51,303.3802,1064.322,306.974,1057.1335L306.9729,1057.1335C307.29425,1056.4924,307.61462,1055.8513,307.93518,1055.2107C308.5553,1053.9697,309.1756,1052.7288,309.79608,1051.488L307.6886,1050.5425L309.79614,1051.4878L309.7967,1051.4832C309.91156,1051.2568,310.02423,1051.0315,310.13684,1050.8062L292.59912,1042.0386C268.79944,1028.8074,247.7409,1016.42316,217.82312,999.67035 Z"/>
</g>
<g style="fill:rgb(61,99,108); fill-opacity:1.0; stroke-linejoin: miter">
<path d="M344.78632,1045.6697L344.78625,1045.6699L344.78607,1045.6702L344.78625,1045.6699L344.78632,1045.6697L344.78625,1045.6699L344.78607,1045.6702Q344.78625,1045.6699,344.78632,1045.6697"/>
</g>
<g style="fill:rgb(49,52,64); fill-opacity:1.0; stroke-linejoin: miter">
<path d="M330.8734,1165.9858L336.7821,1169.6709L342.69098,1173.3562Q340.1726,1177.3943,337.65454,1181.4319Q331.74573,1177.7468,325.83704,1174.0618Q328.35504,1170.0239,330.8734,1165.9858"/>
</g>
<g style="fill:rgb(63,67,79); fill-opacity:1.0; stroke-linejoin: miter">
<path d="M326.75946,1155.1528L340.49408,1163.719L354.2295,1172.2844Q351.20105,1177.1401,348.17273,1181.9961Q334.43744,1173.4304,320.70258,1164.8647Q323.73096,1160.0088,326.75946,1155.1528"/>
</g>
<g style="fill:rgb(41,43,55); fill-opacity:1.0; stroke-linejoin: miter">
<path d="M333.9013,1135.2551L351.22192,1146.0571L368.5426,1156.8599Q361.64148,1167.9255,354.74005,1178.9915Q337.41907,1168.1892,320.09857,1157.3872Q326.99982,1146.321,333.9013,1135.2551"/>
</g>
<g style="fill:rgb(253,192,15); fill-opacity:1.0; stroke-linejoin: miter">
<path d="M398.13922,1070.6255C381.13428,1060.0203,358.62036,1065.2078,347.96973,1082.2854C347.5844,1082.9033,347.18146,1083.7114,346.77814,1084.5198C344.62177,1089.0293,343.36908,1093.9514,343.09253,1098.9263C342.75732,1104.3193,342.2431,1112.4265,341.9406,1118.8997C341.79388,1121.8865,342.07495,1126.0491,336.04626,1134.906L351.8883,1144.7864L367.76703,1154.6885C373.0915,1145.342,376.93024,1143.7993,379.54797,1142.3535C385.22784,1139.2336,392.25983,1135.2417,396.95514,1132.5681C401.32428,1130.0945,405.1931,1126.8044,408.29382,1122.884C408.8423,1122.1663,409.39087,1121.4487,409.77612,1120.8308C420.42664,1103.7532,415.1441,1081.2305,398.13922,1070.6255 Z"/>
</g>
<g style="fill:rgb(253,192,15); fill-opacity:1.0; stroke-linejoin: miter">
<path d="M342.3095,1138.8628L336.02332,1134.9429C342.07495,1126.0491,341.77118,1121.9231,341.91797,1118.9363C342.22046,1112.4629,342.7121,1104.3918,343.04712,1098.999C343.3465,1093.9873,344.59906,1089.0659,346.7555,1084.5562C347.1588,1083.7478,347.56177,1082.9395,347.94696,1082.3218C355.40234,1070.3677,368.65558,1064.2495,381.75647,1065.2534C371.09106,1066.9795,361.16534,1073.1035,355.00165,1082.9868C354.5938,1083.6406,354.1678,1084.4854,353.7555,1085.3892C351.4408,1090.1528,350.13843,1095.3972,349.81213,1100.6946C349.46375,1106.4326,348.9411,1115.0393,348.60254,1121.8938C348.42407,1125.0122,348.71436,1129.4829,342.3095,1138.8628 Z"/>
</g>
<g style="fill:rgb(63,67,79); fill-opacity:1.0; stroke-linejoin: miter">
<path d="M368.54742,1158.8594C368.2528,1159.3315,367.6626,1159.4683,367.19025,1159.1736L332.45355,1137.5107C331.9815,1137.2156,331.84467,1136.6257,332.1394,1136.1533L333.24963,1134.373C333.5442,1133.9006,334.13403,1133.7644,334.60638,1134.0588L369.30646,1155.6997C369.77917,1155.9941,369.91595,1156.584,369.62134,1157.0564L368.511,1158.8367 Z"/>
</g>
<g style="fill:rgb(63,67,79); fill-opacity:1.0; stroke-linejoin: miter">
<path d="M362.8791,1167.6785C362.5844,1168.1509,361.9947,1168.2874,361.52228,1167.9927L326.78522,1146.3298C326.31305,1146.0347,326.17633,1145.4448,326.471,1144.9724L327.58124,1143.1919C327.87585,1142.7195,328.46582,1142.583,328.9383,1142.8774L363.63837,1164.5186C364.11084,1164.8127,364.24792,1165.4028,363.95306,1165.875L362.8429,1167.656 Z"/>
</g>
<g style="fill:rgb(63,67,79); fill-opacity:1.0; stroke-linejoin: miter">
<path d="M359.5479,1173.0198C359.25342,1173.492,358.66333,1173.6287,358.1911,1173.334L323.45416,1151.6709C322.98193,1151.376,322.8452,1150.7861,323.13983,1150.3137L324.25024,1148.5332C324.54486,1148.0608,325.13464,1147.9243,325.60706,1148.219L360.30725,1169.8599C360.77972,1170.154,360.91687,1170.7439,360.62225,1171.2163L359.51172,1172.9973 Z"/>
</g>
<g style="fill:rgb(254,217,111); fill-opacity:1.0; stroke-linejoin: miter">
<path d="M411.8329,1093.0945C408.2384,1079.5984,396.1621,1072.8245,395.66705,1072.5662C394.27753,1071.8003,392.5349,1072.3286,391.79187,1073.6821C391.02588,1075.0718,391.5542,1076.8142,392.90753,1077.5574C393.0166,1077.6255,403.33966,1083.407,406.3282,1094.5571C408.28717,1101.936,406.58356,1110.0083,401.28564,1118.665C400.53796,1119.864,400.79828,1121.3892,401.84766,1122.2961C401.9704,1122.4229,402.11578,1122.5134,402.22473,1122.5815C403.5691,1123.4199,405.3025,1122.987,406.14093,1121.6426C412.30005,1111.6047,414.20642,1101.9934,411.8329,1093.0945 Z"/>
</g>
<g style="fill:rgb(255,255,255); fill-opacity:0.27058825; stroke-linejoin: miter">
<path d="M379.49597,1063.791C369.6358,1063.791,359.92096,1067.8047,353.66455,1073.1748C345.56683,1080.1257,343.3521,1089.2578,342.2177,1097.355C341.72308,1100.8855,341.42712,1104.2815,341.14838,1107.4775C340.78516,1111.6423,340.4522,1115.4424,339.75854,1118.9092C338.5348,1125.0256,336.17456,1130.1626,333.73773,1135.4529L333.73694,1135.4529C333.65515,1135.6287,333.60944,1135.8247,333.60944,1136.0315L333.60944,1136.0325C333.60944,1136.6772,334.05835,1137.2354,334.6883,1137.3733C334.78668,1137.395,334.88538,1137.4053,334.98285,1137.4053C335.50946,1137.4053,336.00122,1137.1016,336.22742,1136.6106L336.2298,1136.6055L336.2315,1136.6016C338.6554,1131.3394,341.15472,1125.9258,342.4508,1119.4478C343.1798,1115.8044,343.52356,1111.8445,343.8836,1107.7161C344.1631,1104.512,344.45367,1101.1843,344.93677,1097.7358C346.0475,1089.8076,348.14307,1081.5325,355.45282,1075.258C361.22833,1070.3005,370.3144,1066.5366,379.49597,1066.5366C382.06,1066.5366,384.6292,1066.831,387.12427,1067.4692L387.1242,1067.4692C398.58258,1070.4004,408.8755,1080.6614,412.27448,1092.1431C415.65906,1103.5764,412.21393,1116.3005,404.88672,1124.595C399.5857,1130.596,392.22412,1134.324,385.65546,1137.6348L385.6554,1137.635C383.15894,1138.8933,380.77344,1140.0942,378.70886,1141.3354L378.70886,1141.3354C371.16974,1145.8677,368.1842,1150.783,365.31537,1155.4993C364.92133,1156.147,365.127,1156.9915,365.77472,1157.3855C365.99762,1157.5212,366.24377,1157.5857,366.48688,1157.5857C366.95032,1157.5857,367.40265,1157.3511,367.66107,1156.9263C370.47778,1152.2957,373.1784,1147.8635,380.12323,1143.6887L380.1234,1143.6887C382.08185,1142.5112,384.37134,1141.3569,386.891,1140.0867L386.89124,1140.0867C393.3817,1136.8154,401.23682,1132.8738,406.94446,1126.4126C414.84833,1117.4653,418.5808,1103.7734,414.90717,1091.3638C411.24768,1079.002,400.24597,1067.992,387.80463,1064.8093L387.80463,1064.8093C385.0678,1064.1094,382.26965,1063.791,379.49597,1063.791 Z"/>
</g>
<g style="fill:rgb(63,67,79); fill-opacity:1.0; stroke-linejoin: miter">
<path d="M368.54742,1158.8594C368.2528,1159.3315,367.6626,1159.4683,367.19025,1159.1736L332.45355,1137.5107C331.9815,1137.2156,331.84467,1136.6257,332.1394,1136.1533L333.24963,1134.373C333.5442,1133.9006,334.13403,1133.7644,334.60638,1134.0588L369.30646,1155.6997C369.77917,1155.9941,369.91595,1156.584,369.62134,1157.0564L368.511,1158.8367 Z"/>
</g>
</g>
</svg>