<?xml version="1.0" encoding="utf-8"?>
<svg xmlns="http://www.w3.org/2000/svg" xmlns:xlink="http://www.w3.org/1999/xlink" version= "1.1" width="1073px" height="767px" viewBox="-177 328 1073 767">
<g id="layer1">
<g style="fill:rgb(0,174,199); fill-opacity:1.0; stroke-linejoin: miter">
<path d="M-186.7606,323.37006C-186.96259,323.37006,-187.1562,323.45035,-187.29901,323.59308C-187.4418,323.73596,-187.52203,323.92957,-187.52203,324.13153L-187.52103,1105.6797C-187.52103,1106.1003,-187.18013,1106.4414,-186.75961,1106.4414L906.5945,1106.4426C906.79626,1106.4426,906.98987,1106.3623,907.1328,1106.2192C907.2755,1106.0767,907.35583,1105.883,907.35583,1105.6809L907.35486,324.13263C907.35486,323.71204,907.01416,323.37122,906.5936,323.37122L-186.7606,323.37006 Z"/>
</g>
<g style="fill:rgb(255,183,153); fill-opacity:1.0; stroke-linejoin: miter">
<path d="M82.59899,732.8921L84.62509,733.36316Q105.25265,737.84326,111.62114,743.3945L116.39652,747.3811Q141.61755,772.6069,149.83472,779.1936Q164.49734,791.6442,172.87779,795.77924Q183.24814,801.29504,197.42607,803.125Q213.68434,805.28357,219.43321,802.28094Q242.31033,791.8676,274.6249,778.24927Q284.16522,773.7278,287.41357,771.35474Q292.01663,768.3177,295.61414,764.601L311.50958,746.24756L316.6939,742.12744L330.90408,732.68933Q333.50424,730.9172,338.1067,725.01636L351.9487,702.203Q354.071,698.4319,354.42963,694.5389Q352.24786,677.2638,340.47354,678.9371L344.74368,644.68Q344.59442,635.7712,340.66174,635.65186Q335.86743,634.66345,328.09082,637.7709Q322.96036,641.37427,317.39355,648.54376Q311.198,655.945,311.74823,671.76996Q304.75702,677.9054,300.3512,684.34845L286.74466,709.46655Q283.98083,714.1852,278.36417,720.42065Q273.32193,725.66364,268.6513,727.78064L253.0924,734.2091Q250.00696,735.3004,248.876,735.1673Q247.66388,735.4093,245.06232,733.85254Q236.12909,723.41565,227.3588,718.97125L220.08104,715.8593Q202.70189,710.3577,188.33923,704.15283Q176.25058,698.8602,169.02402,693.35767Q164.13132,690.05615,154.90991,680.1608L124.31801,644.41296Q114.76363,635.20184,110.678024,633.5695Q96.094574,624.799,68.45051,635.618Q53.65568,640.9687,36.63323,652.1848L82.59899,732.8921 Z"/>
</g>
<g style="fill:rgb(255,183,153); fill-opacity:1.0; stroke-linejoin: miter">
<path d="M224.21729,725.6244L224.21729,725.62494Q233.51448,731.58295,235.25851,733.9511Q238.52382,737.33264,238.754,741.51855Q238.81213,742.9001,238.53773,744.26227Q238.26349,745.6246,237.68571,746.8835L237.03943,748.0956Q234.56198,751.8417,231.05801,752.5725Q229.4851,752.9694,227.09785,752.8143Q226.51334,752.8644,223.10156,752.16Q222.44118,752.0615,218.80171,750.9124Q216.60971,750.20685,211.2698,748.12085L224.21729,725.6244 Z"/>
</g>
<g style="fill:rgb(255,255,255); fill-opacity:1.0; stroke-linejoin: miter">
<path d="M1.0029602,643.2164L30.137882,635.0219L59.27269,626.827Q75.568985,684.7646,91.86542,742.70233L33.595955,759.0927Q17.299463,701.15454,1.0029602,643.2164 Z"/>
</g>
<g style="fill:rgb(255,183,153); fill-opacity:1.0; stroke-linejoin: miter">
<path d="M639.3489,889.9091L637.32275,890.3805Q616.6948,894.8605,610.3262,900.4115L605.5508,904.39825Q580.32935,929.6245,572.1122,936.21094Q557.44934,948.66156,549.069,952.7965Q538.69836,958.3122,524.52026,960.1421Q508.26205,962.30066,502.51318,959.2981Q479.6357,948.885,447.32132,935.26605Q437.7809,930.7448,434.53256,928.3719Q429.92932,925.33466,426.33218,921.61835L410.43658,903.2643L405.25244,899.1442L391.04208,889.70624Q388.442,887.9342,383.83957,882.0333L369.99762,859.22003Q367.8754,855.4492,367.51678,851.556Q369.69858,834.2809,381.473,835.95416L377.20297,801.69714Q377.35217,792.7884,381.2849,792.6688Q386.0793,791.6808,393.8558,794.7881Q398.9863,798.3912,404.55298,805.56104Q410.74863,812.96216,410.1982,828.78705Q417.18948,834.9224,421.59512,841.36554L435.20166,866.48346Q437.96558,871.202,443.58237,877.438Q448.62445,882.6806,453.295,884.7977L468.85397,891.22595Q471.93936,892.3173,473.0704,892.1843Q474.2825,892.42615,476.884,890.86975Q485.8175,880.4326,494.58795,875.9881L501.86563,872.87646Q519.24475,867.37463,533.60767,861.16974Q545.6963,855.8771,552.923,850.3745Q557.8158,847.07324,567.03735,837.17816L597.6299,801.4298Q607.1842,792.2187,611.2699,790.5859Q625.85364,781.81525,653.49817,792.6348Q668.2932,797.98553,685.3157,809.2018L639.3489,889.9091 Z"/>
</g>
<g style="fill:rgb(255,183,153); fill-opacity:1.0; stroke-linejoin: miter">
<path d="M497.7294,882.6414L497.7294,882.6418Q488.43195,888.5997,486.688,890.96796Q483.42273,894.34937,483.19244,898.5353Q483.1344,899.9172,483.40866,901.2794Q483.68295,902.6416,484.26077,903.90076L484.90714,905.11255Q487.3845,908.85846,490.8885,909.5894Q492.46146,909.98645,494.8488,909.8313Q495.4334,909.8815,498.84497,909.1769Q499.50537,909.07886,503.14493,907.9296Q505.337,907.224,510.6768,905.1377L497.7294,882.6414 Z"/>
</g>
<g style="fill:rgb(255,255,255); fill-opacity:1.0; stroke-linejoin: miter">
<path d="M720.9464,800.23303L691.81104,792.03864L662.676,783.8437Q646.379,841.78186,630.0823,899.71967L688.35266,916.11035Q704.6493,858.1717,720.9464,800.23303 Z"/>
</g>
<g style="fill:rgb(49,52,64); fill-opacity:1.0; stroke-linejoin: miter">
<path d="M486.12695,805.6421L499.5412,805.64233L512.95544,805.6424Q512.95557,814.8094,512.95557,823.9759Q499.54126,823.97595,486.12695,823.9761Q486.12695,814.8094,486.12695,805.6421"/>
</g>
<g style="fill:rgb(63,67,79); fill-opacity:1.0; stroke-linejoin: miter">
<path d="M468.35962,792.1288L499.5412,792.1288L530.7228,792.129Q530.7228,803.15295,530.7228,814.17694Q499.54126,814.1773,468.35968,814.17737Q468.35962,803.15295,468.35962,792.1288"/>
</g>
<g style="fill:rgb(41,43,55); fill-opacity:1.0; stroke-linejoin: miter">
<path d="M459.75,752.3261L499.07208,752.3262L538.3943,752.3262Q538.3943,777.4487,538.39417,802.571Q499.07202,802.5711,459.75,802.5711Q459.75,777.4487,459.75,752.3261"/>
</g>
<g style="fill:rgb(253,192,15); fill-opacity:1.0; stroke-linejoin: miter">
<path d="M498.8661,581.2072C460.261,581.2072,428.74988,612.636,428.74976,651.4062C428.7497,652.80853,428.9148,654.5407,429.07968,656.273C430.1521,665.84204,433.12155,675.1633,437.7411,683.5774C442.6905,692.73364,450.11444,706.50934,456.21857,717.39795C459.02332,722.42993,463.72522,728.9467,462.9002,749.569L498.86554,749.5698L534.9135,749.5688C534.08875,728.86395,538.7908,722.42993,541.5953,717.39795C547.6994,706.5092,555.1236,692.81604,560.07294,683.6599C564.69244,675.1631,567.66223,665.84155,568.7344,656.27295C568.89923,654.5407,569.06433,652.8083,569.06433,651.406C569.06433,612.63574,537.471,581.2072,498.8661,581.2072 Z"/>
</g>
<g style="fill:rgb(226,163,5); fill-opacity:1.0; stroke-linejoin: miter">
<path d="M477.17096,749.6516L462.9002,749.6526C463.72522,728.9467,459.02332,722.51245,456.21857,717.48047C450.11444,706.5919,442.6905,692.89856,437.7411,683.7424C433.12155,675.2456,430.1521,665.9245,429.07968,656.35535C428.9148,654.62335,428.7497,652.891,428.74976,651.4887C428.74976,624.34955,444.17548,600.83984,466.6126,589.12616C450.93958,602.81964,440.95825,622.9471,440.95825,645.3844C440.95825,646.86926,441.12317,648.6842,441.37073,650.58136C442.443,660.72754,445.65997,670.6262,450.52698,679.6179C455.80627,689.3518,463.72522,703.95215,470.1595,715.50073C473.04657,720.7802,478.0783,727.79175,477.17096,749.6516 Z"/>
</g>
<g style="fill:rgb(63,67,79); fill-opacity:1.0; stroke-linejoin: miter">
<path d="M540.44037,755.5906C540.44037,756.6632,539.6152,757.4879,538.543,757.4879L459.6831,757.4888C458.61078,757.48804,457.78595,756.6633,457.78595,755.5906L457.78577,751.5487C457.78595,750.47644,458.61078,749.65173,459.6831,749.65173L538.4605,749.65204C539.5327,749.6516,540.35785,750.4764,540.35785,751.54846L540.35785,755.5906 Z"/>
</g>
<g style="fill:rgb(63,67,79); fill-opacity:1.0; stroke-linejoin: miter">
<path d="M540.16534,775.7832C540.16534,776.85547,539.34045,777.68005,538.268,777.68005L459.40802,777.68115C458.33557,777.6805,457.51074,776.8556,457.51074,775.7832L457.51068,771.741C457.51068,770.66876,458.33557,769.84357,459.40796,769.84357L538.18536,769.84436C539.2577,769.84357,540.0829,770.66876,540.0827,771.741L540.0829,775.7832 Z"/>
</g>
<g style="fill:rgb(63,67,79); fill-opacity:1.0; stroke-linejoin: miter">
<path d="M540.16534,787.90894C540.16534,788.98126,539.3401,789.80634,538.268,789.80634L459.40802,789.8071C458.3357,789.8064,457.51074,788.9815,457.51074,787.9093L457.51074,783.867C457.51074,782.79474,458.33557,781.96985,459.40796,781.96985L538.18555,781.97034C539.2577,781.96967,540.0829,782.79443,540.0829,783.8668L540.0829,787.90894 Z"/>
</g>
<g style="fill:rgb(254,217,111); fill-opacity:1.0; stroke-linejoin: miter">
<path d="M544.15265,603.97455C524.5201,585.57904,497.87598,586.8164,496.80377,586.89886C493.75153,587.0641,491.44202,589.7035,491.60712,592.6734C491.7718,595.72546,494.41156,598.03516,497.38116,597.8703C497.62866,597.8703,520.39575,596.7977,536.646,611.97595C547.36975,622.0397,552.81396,636.97046,552.9788,656.5205C552.9788,659.2425,554.95874,661.46985,557.59845,661.88226C557.9283,661.9648,558.25824,661.9648,558.5058,661.9648C561.5577,661.9648,563.9501,659.4901,563.9501,656.4381C563.7849,633.7531,557.1036,616.1004,544.15265,603.97455 Z"/>
</g>
<g style="fill:rgb(253,217,8); fill-opacity:1.0; stroke-linejoin: miter">
<path d="M165.89648,634.1138L166.32326,626.1723Q169.79584,602.14215,188.0158,587.5186Q206.3636,572.9029,231.52507,575.2802Q255.55531,578.7525,270.17963,596.9723Q274.86615,602.86224,277.9431,609.84204L280.54614,617.02423Q282.71155,624.4446,282.84317,632.54083Q282.54987,657.3978,266.27164,674.11957Q249.9935,690.8406,225.15428,691.8015Q200.29799,691.5079,183.5771,675.23004Q166.85652,658.9525,165.89648,634.1138 Z"/>
</g>
<g style="fill:rgb(238,170,1); fill-opacity:1.0; stroke-linejoin: miter">
<path d="M175.04726,633.8432L175.40839,627.1448Q178.3378,606.87555,193.70583,594.53973Q209.18219,582.21277,230.40608,584.2176Q250.67455,587.14667,263.0105,602.5154Q266.96262,607.4838,269.55774,613.37024L271.75436,619.4288Q273.58072,625.68695,273.69183,632.5172Q273.44458,653.4834,259.71344,667.5876Q245.9837,681.6928,225.03111,682.5031Q204.06555,682.255,189.9618,668.5253Q175.8583,654.7947,175.04726,633.8432 Z"/>
</g>
<g style="fill:rgb(255,183,13); fill-opacity:1.0; stroke-linejoin: miter">
<path d="M176.25279,633.80817L176.60509,627.2733Q179.46289,607.4996,194.45529,595.46545Q209.55348,583.43933,230.2587,585.3952Q250.03195,588.2527,262.0664,603.2462Q265.9219,608.093,268.45346,613.8354L270.5964,619.7462Q272.3783,625.8513,272.48657,632.51447Q272.24545,652.9685,258.84988,666.7278Q245.45566,680.48834,225.01508,681.2789Q204.56204,681.03705,190.80286,667.6425Q177.04395,654.24744,176.25279,633.80817 Z"/>
</g>
<g style="fill:rgb(238,170,1); fill-opacity:1.0; stroke-linejoin: miter">
<path d="M219.93132,606.64526L219.93132,611.60474Q215.78593,613.3071,213.19505,617.00854Q210.6044,620.70966,210.6044,625.44727Q210.60435,628.4822,211.78865,631.221Q212.97307,633.8856,214.97168,635.8846Q216.97044,637.8831,219.7093,639.0672Q222.37405,640.25183,225.40904,640.25183L225.8532,640.2522Q226.74138,640.39984,227.33354,641.06586Q227.92584,641.73236,227.92581,642.6947Q227.92581,643.7308,227.18564,644.4711Q226.44536,645.211,225.40901,645.21106Q224.37268,645.2111,223.63252,644.471Q222.89223,643.7308,222.89223,642.6947L210.60435,642.6951Q210.60435,645.0635,211.34451,647.2098Q212.01076,649.28265,213.26913,651.1331Q214.45348,652.9098,216.15605,654.3161Q217.85864,655.64874,219.93134,656.4628L219.93134,662.08887L232.36719,662.08923L232.36726,655.79694Q235.92021,653.872,238.06703,650.393Q240.21364,646.98804,240.2137,642.69476Q240.21367,639.6598,239.02933,636.9209Q237.84492,634.2558,235.84627,632.2574Q233.84764,630.25867,231.10866,629.07416Q228.444,627.89014,225.40898,627.8901L224.9648,627.8902Q224.07657,627.74194,223.48434,627.0017Q222.89221,626.3355,222.89221,625.4472Q222.89221,624.4107,223.63239,623.5964Q224.3727,622.8564,225.40904,622.8564Q226.44537,622.8563,227.18567,623.6707Q227.92584,624.4108,227.92584,625.44727L240.21373,625.4477Q240.21373,621.154,238.06699,617.67474Q235.92023,614.19556,232.36717,612.2711L232.36717,606.6453 Z"/>
</g>
<g style="fill:rgb(253,217,8); fill-opacity:1.0; stroke-linejoin: miter">
<path d="M218.88971,607.2667L218.88971,612.2263Q214.74449,613.92896,212.15347,617.62994Q209.56279,621.3311,209.56279,626.06885Q209.56282,629.10394,210.74718,631.84283Q211.93161,634.5075,213.93024,636.50616Q215.9288,638.5049,218.6678,639.6889Q221.3326,640.87354,224.36746,640.8736L224.81158,640.87384Q225.69987,641.0215,226.29205,641.6877Q226.88434,642.354,226.88434,643.31604Q226.88434,644.3526,226.144,645.0926Q225.40384,645.8329,224.36743,645.83295Q223.33115,645.8329,222.59094,645.09265Q221.85065,644.35266,221.85065,643.3161L209.56282,643.31665Q209.56282,645.685,210.303,647.8315Q210.96921,649.9044,212.22768,651.75476Q213.412,653.53143,215.11458,654.9379Q216.81715,656.2704,218.8897,657.08453L218.8897,662.71027L231.32568,662.71094L231.32568,656.41846Q234.87871,654.4938,237.02545,651.0145Q239.17206,647.60974,239.1721,643.31616Q239.17209,640.28143,237.98776,637.54266Q236.80342,634.87744,234.80489,632.879Q232.80618,630.8804,230.06726,629.6959Q227.40245,628.5115,224.36746,628.51166L223.92325,628.51215Q223.03506,628.3635,222.44286,627.62335Q221.8506,626.957,221.85065,626.0687Q221.85065,625.0325,222.59094,624.21814Q223.33115,623.478,224.36745,623.478Q225.40387,623.478,226.14403,624.29236Q226.88437,625.0325,226.88437,626.0688L239.17213,626.0694Q239.17213,621.77563,237.02547,618.2964Q234.8787,614.8172,231.32567,612.8927L231.32567,607.2669 Z"/>
</g>
<g style="fill:rgb(0,0,0); fill-opacity:1.0; stroke-linejoin: miter">
<path d="M698.3391,770.7751Q678.28394,845.3394,658.22876,919.90375Q782.79224,953.4065,907.3557,986.90936L907.35547,826.994L847.4966,810.89386L698.3391,770.7751 Z"/>
</g>
<g style="fill:rgb(0,0,0); fill-opacity:1.0; stroke-linejoin: miter">
<path d="M22.204727,617.49097L-114.66088,661.0484L-187.52153,684.2364L-187.52135,846.3017Q-59.241405,805.47766,69.03847,764.65356Q66.77032,757.52655,64.50219,750.3996L33.595955,759.0927L64.50086,750.3996Q46.239746,693.0147,27.977322,635.6299L27.976372,635.631Q25.091034,626.5604,22.204727,617.49097 Z"/>
</g>
</g>
</svg>