<?xml version="1.0" encoding="utf-8"?>
<!-- Generator: Adobe Illustrator 22.1.0, SVG Export Plug-In . SVG Version: 6.00 Build 0)  -->
<svg version="1.1" id="Layer_1" xmlns="http://www.w3.org/2000/svg" xmlns:xlink="http://www.w3.org/1999/xlink" x="0px" y="0px"
	 viewBox="0 0 500 500" style="enable-background:new 0 0 500 500;" xml:space="preserve">
<style type="text/css">
	.st0{fill:#252E35;}
	.st1{fill-rule:evenodd;clip-rule:evenodd;fill:#1AB64D;}
	.st2{fill-rule:evenodd;clip-rule:evenodd;fill:#1F9E48;}
	.st3{fill-rule:evenodd;clip-rule:evenodd;fill:#C04049;}
	.st4{fill-rule:evenodd;clip-rule:evenodd;fill:#F6F6F6;}
	.st5{fill-rule:evenodd;clip-rule:evenodd;fill:#7993B1;}
	.st6{fill-rule:evenodd;clip-rule:evenodd;fill:#335E8A;}
	.st7{fill-rule:evenodd;clip-rule:evenodd;fill:#FBFBFB;}
	.st8{fill-rule:evenodd;clip-rule:evenodd;fill:#1C4C7D;}
	.st9{fill-rule:evenodd;clip-rule:evenodd;fill:#7996B3;}
	.st10{fill-rule:evenodd;clip-rule:evenodd;fill:#333333;}
	.st11{fill-rule:evenodd;clip-rule:evenodd;fill:#FF4646;}
	.st12{fill-rule:evenodd;clip-rule:evenodd;fill:#FFFF46;}
	.st13{fill-rule:evenodd;clip-rule:evenodd;fill:#FFFFFF;}
	.st14{fill-rule:evenodd;clip-rule:evenodd;fill:#CC643B;}
	.st15{fill:#D68287;}
</style>
<rect x="0.3" class="st0" width="500" height="500"/>
<g id="Banking_And_Finance_2_">
	<g id="Sack_Of_Money">
		<g>
			<path class="st1" d="M133.8,360.8C89.9,361,46.1,333.6,55,278.5c7.4-45.8,43.1-69,78.8-69.4c35.8,0.4,71.4,23.5,78.9,69.4
				C221.6,333.6,177.8,361,133.8,360.8L133.8,360.8z"/>
			<path class="st2" d="M133.8,209.1c35.8,0.4,71.4,23.5,78.9,69.4c8.9,55.1-34.9,82.5-78.9,82.3V209.1z"/>
			<path class="st1" d="M122.4,206.2c3.8-0.3,7.6-0.6,11.5-0.9c3.8,0.3,7.6,0.6,11.5,0.9c10.7-1.9,21.2-4.3,30.2-9.6
				c-7.1-2.8-14.1-3.4-21.2-1.9c6.1-6.7,10.8-13.9,13.5-21.8c-7.4,0.7-14.6,2.3-21.2,6.4c-2.4-9.5-6.4-18.3-12.8-25.7
				c-6.4,7.4-10.3,16.1-12.7,25.7c-6.6-4.1-13.8-5.7-21.2-6.4c2.7,7.9,7.4,15.1,13.5,21.8c-7.1-1.5-14.1-0.8-21.2,1.9
				C101.2,201.9,111.7,204.3,122.4,206.2L122.4,206.2z"/>
			<path class="st2" d="M133.8,205.3c3.8,0.3,7.6,0.6,11.5,0.9c10.7-1.9,21.2-4.3,30.2-9.6c-7.1-2.8-14.1-3.4-21.2-1.9
				c6.1-6.7,10.8-13.9,13.5-21.8c-7.4,0.7-14.6,2.3-21.2,6.4c-2.4-9.5-6.4-18.3-12.8-25.7V205.3z"/>
			<path class="st3" d="M119.5,211.8h27.6c2.1,0,3.9-1.7,3.9-3.9l0,0c0-2.1-1.7-3.9-3.9-3.9h-27.6c-2.1,0-3.9,1.7-3.9,3.9l0,0
				C115.7,210.1,117.4,211.8,119.5,211.8L119.5,211.8z"/>
			<path class="st4" d="M130.4,322.4v-6.2c-1.5-0.2-2.8-0.5-4.1-0.9c-1.6-0.4-3.1-1-4.3-1.6c-1.3-0.7-2.5-1.5-3.6-2.6
				c-1.1-1.1-2.1-2.3-3-3.8c0,0,0-0.1-0.1-0.1c-0.9-1.4-1.6-3-2.1-4.8c-0.5-1.8-0.8-3.6-1-5.7c-0.1-0.8,0.5-1.4,1.2-1.5l7.5-1.5
				c0.8-0.2,1.5,0.4,1.7,1.2v0.1l0,0h0c0.3,1.9,0.6,3.6,1.1,5c0.5,1.3,1,2.4,1.7,3.2l0,0c0.9,1.2,2,2.1,3.1,2.8
				c0.6,0.4,1.3,0.6,2,0.8V286c-1.3-0.4-2.5-0.8-3.8-1.4c-1.6-0.7-3.3-1.5-4.9-2.4c0,0-0.1,0-0.1-0.1c-1.3-0.7-2.4-1.6-3.4-2.6
				c-1-1-1.9-2.2-2.6-3.5l-0.1-0.1c-0.7-1.3-1.2-2.6-1.5-4.1c-0.3-1.5-0.5-3-0.5-4.6c0-2.9,0.5-5.5,1.5-7.8c1-2.4,2.5-4.4,4.6-6.2
				c1.4-1.2,3.1-2.2,5.2-3c1.7-0.6,3.5-1,5.6-1.3v-2.3c0-0.8,0.6-1.4,1.4-1.4h4.4c0.8,0,1.5,0.6,1.5,1.4v2.3
				c1.8,0.3,3.4,0.7,4.9,1.2c1.9,0.7,3.5,1.6,4.9,2.8l0,0c1.8,1.5,3.2,3.3,4.2,5.3c1.1,2,1.8,4.3,2.1,6.9c0.1,0.8-0.4,1.5-1.2,1.6
				h-0.1l-7.6,1.2c-0.8,0.1-1.5-0.4-1.6-1.2v0h0c-0.2-1.4-0.5-2.6-0.9-3.6c-0.4-1-0.9-1.8-1.5-2.5c0,0,0-0.1-0.1-0.1
				c-0.6-0.6-1.2-1.2-2-1.6c-0.4-0.2-0.8-0.4-1.2-0.5v18.7c1.5,0.4,2.7,0.7,3.6,1c1.3,0.4,2.3,0.8,3,1c0,0,0.1,0,0.1,0.1
				c1.2,0.5,2.3,1.1,3.3,1.8c1,0.7,1.9,1.4,2.8,2.2c0.8,0.8,1.5,1.7,2.2,2.7l0,0.1c0.6,0.9,1.1,1.9,1.5,3l0,0.1
				c0.4,1.1,0.7,2.2,0.9,3.4c0.2,1.2,0.3,2.4,0.3,3.7c0,5.6-1.8,10.3-5.4,14c-1.8,1.9-3.8,3.3-6.1,4.3c-1.9,0.8-4,1.4-6.3,1.6v6.3
				c0,0.8-0.6,1.5-1.5,1.5h-4.4C131.1,323.8,130.4,323.2,130.4,322.4L130.4,322.4z M130.4,258.3c-0.7,0.2-1.3,0.4-1.9,0.7
				c-1,0.5-1.8,1.2-2.5,2l0,0c-0.7,0.8-1.2,1.7-1.6,2.6c-0.4,0.9-0.5,2-0.5,3.1c0,1.1,0.2,2.2,0.5,3.1c0.3,0.9,0.8,1.7,1.4,2.5
				c0.6,0.7,1.4,1.4,2.5,1.9c0.7,0.4,1.4,0.7,2.3,1V258.3z M137.7,306.8c0.7-0.2,1.3-0.5,1.9-0.8c1.1-0.5,2-1.3,2.8-2.3
				c0.8-0.9,1.5-2,1.9-3.2c0.4-1.2,0.6-2.5,0.6-3.9c0-1.2-0.2-2.3-0.5-3.3c-0.3-0.9-0.7-1.7-1.2-2.4l0,0c-0.5-0.7-1.4-1.3-2.6-1.9
				c-0.8-0.4-1.8-0.8-2.9-1.2V306.8z"/>
		</g>
		<g>
			<path class="st1" d="M240.5,386.4c-32.7,0.1-65.3-20.2-58.7-61.2c5.5-34.1,32.1-51.3,58.7-51.6c26.6,0.3,53.1,17.5,58.6,51.6
				C305.8,366.2,273.2,386.5,240.5,386.4L240.5,386.4z"/>
			<path class="st2" d="M240.5,273.6c26.6,0.3,53.1,17.5,58.6,51.6c6.6,41-26,61.4-58.6,61.2V273.6z"/>
			<path class="st1" d="M232,271.4c2.8-0.2,5.7-0.5,8.5-0.7c2.8,0.2,5.7,0.5,8.5,0.7c7.9-1.4,15.7-3.2,22.4-7.2
				c-5.3-2.1-10.5-2.5-15.8-1.4c4.5-4.9,8-10.3,10-16.2c-5.5,0.5-10.9,1.7-15.8,4.8c-1.8-7.1-4.7-13.6-9.5-19.1
				c-4.8,5.5-7.7,12-9.5,19.1c-4.9-3.1-10.3-4.2-15.8-4.8c2,5.9,5.5,11.3,10,16.2c-5.2-1.1-10.5-0.6-15.7,1.4
				C216.3,268.2,224,270,232,271.4L232,271.4z"/>
			<path class="st2" d="M240.5,270.7c2.8,0.2,5.7,0.5,8.5,0.7c7.9-1.4,15.7-3.2,22.4-7.2c-5.3-2.1-10.5-2.5-15.8-1.4
				c4.5-4.9,8-10.3,10-16.2c-5.5,0.5-10.9,1.7-15.8,4.8c-1.8-7.1-4.7-13.6-9.5-19.1V270.7z"/>
			<path class="st3" d="M229.9,275.6h20.5c1.6,0,2.9-1.3,2.9-2.9l0,0c0-1.6-1.3-2.9-2.9-2.9h-20.5c-1.6,0-2.9,1.3-2.9,2.9l0,0
				C227,274.3,228.3,275.6,229.9,275.6L229.9,275.6z"/>
			<path class="st4" d="M238,357.8v-4.6c-1.1-0.2-2.1-0.4-3-0.6c-1.2-0.3-2.3-0.8-3.2-1.2c-1-0.5-1.9-1.2-2.7-1.9
				c-0.8-0.8-1.5-1.7-2.2-2.8c0,0,0,0,0-0.1c-0.7-1.1-1.2-2.2-1.6-3.5c-0.4-1.3-0.6-2.7-0.8-4.2c0-0.5,0.4-1,0.9-1.1l5.6-1.1
				c0.6-0.1,1.1,0.3,1.2,0.8v0.1l0,0l0,0c0.2,1.5,0.5,2.7,0.8,3.7c0.3,1,0.8,1.8,1.2,2.4l0,0c0.7,0.9,1.5,1.6,2.3,2.1
				c0.5,0.3,0.9,0.5,1.5,0.6v-15.4c-0.9-0.3-1.9-0.6-2.8-1c-1.2-0.5-2.4-1.1-3.7-1.8c0,0-0.1,0-0.1-0.1c-1-0.5-1.8-1.2-2.5-1.9
				c-0.8-0.8-1.4-1.6-1.9-2.6l0-0.1c-0.5-0.9-0.9-1.9-1.2-3c-0.2-1.1-0.4-2.2-0.4-3.4c0-2.1,0.4-4.1,1.2-5.8
				c0.8-1.8,1.9-3.3,3.4-4.6c1-0.9,2.3-1.6,3.9-2.2c1.2-0.4,2.6-0.8,4.2-1v-1.7c0-0.6,0.5-1.1,1.1-1.1h3.3c0.6,0,1.1,0.5,1.1,1.1
				v1.7c1.3,0.2,2.5,0.5,3.7,0.9c1.4,0.5,2.6,1.2,3.6,2.1l0,0c1.3,1.1,2.4,2.4,3.2,3.9c0.8,1.5,1.3,3.2,1.6,5.1
				c0.1,0.6-0.3,1.1-0.9,1.2h0l-5.7,0.9c-0.6,0.1-1.1-0.3-1.2-0.9v0l0,0c-0.2-1-0.4-1.9-0.7-2.7c-0.3-0.7-0.7-1.3-1.1-1.8
				c0,0,0-0.1,0-0.1c-0.4-0.5-0.9-0.9-1.5-1.2c-0.3-0.1-0.5-0.3-0.9-0.4v13.9c1.1,0.3,2,0.5,2.7,0.8c1,0.3,1.7,0.5,2.2,0.8
				c0,0,0,0,0.1,0c0.9,0.4,1.7,0.8,2.5,1.3c0.8,0.5,1.5,1.1,2,1.6c0.6,0.6,1.2,1.3,1.6,2l0,0.1c0.5,0.7,0.8,1.5,1.2,2.2l0,0.1
				c0.3,0.8,0.5,1.6,0.7,2.5c0.2,0.9,0.2,1.8,0.2,2.7c0,4.2-1.3,7.6-4,10.4c-1.3,1.4-2.9,2.5-4.6,3.2c-1.4,0.6-3,1-4.7,1.2v4.7
				c0,0.6-0.5,1.1-1.1,1.1H239C238.5,358.9,238,358.4,238,357.8L238,357.8z M238,310.2c-0.5,0.2-0.9,0.3-1.4,0.5
				c-0.7,0.4-1.4,0.8-1.9,1.5l0,0c-0.5,0.6-0.9,1.2-1.2,1.9c-0.3,0.7-0.4,1.5-0.4,2.3c0,0.8,0.1,1.6,0.3,2.3c0.2,0.7,0.6,1.3,1,1.8
				c0.5,0.5,1.1,1,1.9,1.5c0.5,0.3,1.1,0.5,1.7,0.7V310.2z M243.4,346.2c0.5-0.1,1-0.3,1.4-0.5c0.8-0.4,1.5-1,2.1-1.7
				c0.6-0.7,1.1-1.5,1.4-2.4c0.3-0.9,0.5-1.9,0.5-2.9c0-0.9-0.1-1.7-0.3-2.4c-0.2-0.7-0.5-1.3-0.9-1.8l0,0c-0.4-0.5-1.1-0.9-1.9-1.4
				c-0.6-0.3-1.4-0.6-2.2-0.8V346.2z"/>
		</g>
	</g>
	<g id="Calculator">
		<path class="st5" d="M317.4,231.4h86c5.1,0,9.3,4.2,9.3,9.3v133.6c0,5.1-4.2,9.3-9.3,9.3h-86c-5.1,0-9.3-4.2-9.3-9.3V240.7
			C308.1,235.6,312.2,231.4,317.4,231.4L317.4,231.4z"/>
		<path class="st6" d="M360.3,231.4h43c5.1,0,9.3,4.2,9.3,9.3v133.6c0,5.1-4.2,9.3-9.3,9.3h-43V231.4z"/>
		<path class="st7" d="M318.7,241.5H402c1.8,0,3.2,1.5,3.2,3.2v29.8c0,1.8-1.5,3.2-3.2,3.2h-83.2c-1.8,0-3.2-1.5-3.2-3.2v-29.8
			C315.5,242.9,316.9,241.5,318.7,241.5L318.7,241.5z"/>
		<path class="st7" d="M318.3,287.8h21.6v21.6h-21.6V287.8z M380.8,349.6h21.6v21.7h-21.6V349.6z M349.5,349.6h21.7v21.7h-21.7
			V349.6z M318.3,349.6h21.6v21.7h-21.6V349.6z M380.8,319.1h21.6v21.6h-21.6V319.1z M349.5,319.1h21.7v21.6h-21.7V319.1z
			 M318.3,319.1h21.6v21.6h-21.6V319.1z M380.8,287.8h21.6v21.6h-21.6V287.8z M349.5,287.8h21.7v21.6h-21.7V287.8z"/>
		<path class="st8" d="M378.2,247.9l0.9,0.9l-0.9,0.8h-8.7l-0.9-0.8l0.9-0.9H378.2z M380.2,249.8v8.8l-0.8,0.8l-0.8-0.8v-8.8
			l0.8-0.8L380.2,249.8z M369.3,249.8v8.8l-0.8,0.8l-0.8-0.8v-8.8l0.8-0.8L369.3,249.8z M380.2,260.6v8.9l-0.8,0.8l-0.8-0.8v-8.9
			l0.8-0.8L380.2,260.6z M378.3,269.6l0.9,0.9l-0.9,0.8h-8.8l-0.8-0.8l0.8-0.9H378.3z M378.3,258.7l0.9,0.9l-0.9,0.9h-8.8l-0.8-0.9
			l0.8-0.9H378.3z M394.4,248.1l0.8,0.9l-0.8,0.8h-8.8l-0.9-0.8l0.9-0.9H394.4z M396.3,249.9v8.8l-0.8,0.8l-0.8-0.8v-8.8l0.8-0.8
			L396.3,249.9z M385.4,260.8v8.8l-0.8,0.8l-0.8-0.8v-8.8l0.8-0.8L385.4,260.8z M385.4,249.9v8.8l-0.8,0.8l-0.8-0.8v-8.8l0.8-0.8
			L385.4,249.9z M396.3,260.8v8.8l-0.8,0.8l-0.8-0.8v-8.8l0.8-0.8L396.3,260.8z M394.4,269.8l0.8,0.9l-0.8,0.9h-8.8l-0.9-0.9
			l0.9-0.9H394.4z M389.9,260.3l0.5,1.2l-2.9,7.2l-1.1,0.6l-0.4-1.4l2.9-7.1L389.9,260.3z M393.7,250.4l0.4,1.3l-2.9,7.2l-1.1,0.6
			l-0.5-1.4l2.9-7L393.7,250.4z"/>
	</g>
	<g id="Credit_Card">
		<path class="st9" d="M366.2,167.9h75c1.6,0,2.9,1.3,2.9,2.9v34.6c0,1.6-1.3,2.9-2.9,2.9h-75c-1.6,0-2.9-1.3-2.9-2.9v-34.6
			C363.4,169.2,364.7,167.9,366.2,167.9L366.2,167.9z"/>
		<path class="st6" d="M357.3,177.3h75c1.6,0,2.9,1.3,2.9,2.9v34.6c0,1.6-1.3,2.9-2.9,2.9h-75c-1.6,0-2.9-1.3-2.9-2.9v-34.6
			C354.4,178.6,355.7,177.3,357.3,177.3L357.3,177.3z"/>
		<rect x="354.4" y="184.9" class="st10" width="80.7" height="13.5"/>
		<path class="st11" d="M415.6,213.5c2.9,0,5.2-2.3,5.2-5.2c0-2.9-2.3-5.2-5.2-5.2c-2.9,0-5.2,2.3-5.2,5.2
			C410.4,211.2,412.8,213.5,415.6,213.5L415.6,213.5z"/>
		<path class="st12" d="M420.3,213.5c2.9,0,5.2-2.3,5.2-5.2c0-2.9-2.4-5.2-5.2-5.2c-2.9,0-5.2,2.3-5.2,5.2
			C415.1,211.2,417.4,213.5,420.3,213.5L420.3,213.5z"/>
		<path class="st13" d="M362.8,204.6h12.6c1.1,0,2,0.9,2,2v2.9c0,1.1-0.9,2-2,2h-12.6c-1.1,0-2-0.9-2-2v-2.9
			C360.8,205.5,361.7,204.6,362.8,204.6L362.8,204.6z"/>
		<path class="st13" d="M383.1,204.6h18.7c0.9,0,1.7,0.8,1.7,1.7v3.5c0,0.9-0.8,1.7-1.7,1.7h-18.7c-0.9,0-1.7-0.8-1.7-1.7v-3.5
			C381.4,205.4,382.2,204.6,383.1,204.6L383.1,204.6z"/>
	</g>
	<g id="Scales">
		<path class="st3" d="M263.8,229.4c14.9,0,27-2.5,27-5.5c0-3.1-12.1-5.6-27-5.6c-14.8,0-26.9,2.5-26.9,5.6
			C236.8,226.9,248.9,229.4,263.8,229.4L263.8,229.4z"/>
		<path class="st14" d="M259,136.9h9.4v83.4c0,2.6-2.1,4.7-4.7,4.7l0,0c-2.6,0-4.7-2.1-4.7-4.7V136.9z"/>
		<path class="st3" d="M319.6,134.5L319.6,134.5c0,1.3-1.1,2.3-2.3,2.3H212.4c-1.3,0-2.4-1.1-2.4-2.3l0,0c0-1.3,1.1-2.4,2.4-2.4
			h104.8C318.5,132.2,319.6,133.2,319.6,134.5L319.6,134.5z"/>
		<path class="st3" d="M216.4,201.9c19.8,0,35.9-4.8,35.9-10.6c0-5.9-16.1-10.6-35.9-10.6c-19.8,0-35.9,4.8-35.9,10.6
			C180.4,197.1,196.6,201.9,216.4,201.9L216.4,201.9z"/>
		<path class="st3" d="M311.5,201.9c19.8,0,35.9-4.8,35.9-10.6c0-5.9-16.1-10.6-35.9-10.6c-19.8,0-35.9,4.8-35.9,10.6
			C275.5,197.1,291.7,201.9,311.5,201.9L311.5,201.9z"/>
		<path class="st15" d="M246.4,188c0.4,0.6,0.2,1.5-0.5,1.8c-0.7,0.4-1.5,0.2-1.9-0.5l-26.1-45.5v53.3c0,0.8-0.6,1.4-1.4,1.4
			c-0.8,0-1.4-0.6-1.4-1.4v-53.3L189,189.3c-0.4,0.7-1.2,0.9-1.9,0.5c-0.7-0.4-0.9-1.2-0.5-1.8l28.7-49.9h0v0l0,0v0h0l0,0l0,0v0h0
			l0,0v0l0,0l0,0l0,0v0h0l0,0v0l0,0h0v0l0,0l0,0l0,0l0,0l0,0l0,0l0,0l0,0l0,0l0,0l0,0l0,0l0,0h0v0l0,0h0l0,0v0h0l0,0v0h0h0v0l0,0h0
			l0,0l0,0l0,0l0,0h0v0h0l0,0h0v0h0l0,0h0l0,0l0,0h0l0,0l0,0c0,0,0.1,0,0.1,0l0,0h0l0,0l0,0l0,0h0l0,0c0,0,0.1,0,0.1,0l0,0h0l0,0h0
			l0,0h0h0h0l0,0h0l0,0h0l0,0h0l0,0h0l0,0h0l0,0h0l0,0c0.1,0,0.1,0,0.1,0l0,0h0h0v0h0h0l0.1,0l0,0h0l0,0h0v0h0l0,0h0v0h0l0,0h0v0h0
			l0,0h0v0l0,0h0l0,0l0,0h0l0,0v0h0l0,0l0,0l0,0l0,0l0,0l0,0l0,0l0,0l0,0l0,0l0,0l0,0l0,0h0l0,0v0l0,0h0v0l0,0l0,0l0,0l0,0v0h0l0,0
			v0l0,0l0,0l0,0l0,0l0,0l0,0v0l0,0h0l0,0v0l0,0l0,0l0,0L246.4,188z M284.2,189.3c-0.4,0.7-1.2,0.9-1.9,0.5
			c-0.7-0.4-0.9-1.2-0.5-1.8l28.7-49.9h0v0l0,0l0,0l0,0l0,0l0,0v0h0l0,0v0l0,0l0,0l0,0v0h0l0,0v0l0,0h0v0l0,0l0,0l0,0l0,0l0,0l0,0
			l0,0l0,0l0,0l0,0l0,0l0,0l0,0h0v0l0,0h0l0,0v0h0l0,0l0,0l0,0h0v0l0,0h0l0,0l0,0l0,0l0,0h0v0h0l0,0h0v0h0h0l0,0l0,0l0,0h0l0,0l0,0
			l0.1,0l0,0h0l0,0l0,0h0l0,0c0.1,0,0.1,0,0.1,0l0,0h0l0,0h0h0h0l0,0h0l0,0h0l0,0h0l0,0h0l0,0h0l0,0h0l0,0h0l0,0c0.1,0,0.1,0,0.1,0
			l0,0h0h0v0h0l0,0h0l0.1,0l0,0h0l0,0h0v0h0l0,0h0v0h0l0,0h0v0h0l0,0h0v0l0,0h0l0,0l0,0h0l0,0v0h0l0,0l0,0l0,0l0,0h0v0l0,0l0,0l0,0
			l0,0h0v0l0,0h0l0,0v0l0,0h0v0l0,0l0,0l0,0l0,0l0,0l0,0l0,0v0l0,0l0,0l0,0l0,0l0,0l0,0v0h0l0,0l0,0v0h0v0l0,0l28.7,49.9
			c0.4,0.6,0.2,1.5-0.5,1.8c-0.7,0.4-1.5,0.2-1.8-0.5L313,143.8v53.3c0,0.8-0.6,1.4-1.4,1.4c-0.8,0-1.4-0.6-1.4-1.4v-53.3
			L284.2,189.3z"/>
	</g>
</g>
</svg>
