<?xml version="1.0" encoding="utf-8"?>
<svg xmlns="http://www.w3.org/2000/svg" xmlns:xlink="http://www.w3.org/1999/xlink" version= "1.1" width="1561px" height="1115px" viewBox="-241 504 1561 1115">
<g id="layer1">
<g style="fill:rgb(64,190,174); fill-opacity:1.0; stroke-linejoin: miter">
<path d="M-241.001,503.2763C-241.19267,503.2763,-241.3765,503.35245,-241.51202,503.48798C-241.64755,503.6235,-241.7237,503.8073,-241.7237,503.999L-241.72269,1619.0C-241.72269,1619.3992,-241.39912,1619.7227,-241.0,1619.7227L1320.001,1619.7236C1320.1926,1619.7236,1320.3765,1619.6475,1320.512,1619.512C1320.6475,1619.3765,1320.7236,1619.1926,1320.7236,1619.001L1320.7227,504.0C1320.7227,503.60086,1320.3992,503.2773,1320.0,503.2773L-241.001,503.2763 Z"/>
</g>
<g style="fill:rgb(255,191,175); fill-opacity:0.99607843; stroke-linejoin: miter">
<path d="M798.9764,963.6157L798.9764,963.6166L810.90875,950.667Q806.9953,944.46594,805.66205,941.1349Q804.46173,938.4132,804.8851,935.8988Q805.4692,933.63416,806.97955,933.5526Q807.4211,933.4579,808.3483,934.17505L810.82184,936.8175Q811.898,937.75,812.13153,937.7313Q813.55524,938.35144,815.28937,936.0156Q816.88214,933.6328,816.4672,930.6472Q816.28107,928.50134,812.9382,923.72034Q813.70245,918.4364,816.84064,917.7556Q824.2902,915.8423,837.9898,926.59265Q844.6744,932.4302,846.523,935.469Q847.88556,937.3779,848.773,939.29724L849.50616,941.20215Q850.097,943.09924,850.0197,944.9105Q849.9373,946.7196,849.2801,948.4518L848.508,950.16833Q847.60675,951.86743,846.30316,953.5126Q842.16266,958.4164,836.47076,963.11145L816.8963,987.6461L798.9764,963.6157"/>
</g>
<g style="fill:rgb(0,0,0); fill-opacity:0.21176471; stroke-linejoin: miter">
<path d="M1039.9688,1561.1093L1036.0012,1563.8024Q1007.7939,1571.9403,870.9328,1576.8196Q733.1247,1581.695,546.3757,1580.7736Q368.14807,1579.4854,261.2909,1573.2361Q227.05257,1571.2161,204.88716,1568.8339L186.2577,1566.3851Q170.90535,1563.8573,170.73271,1561.1093Q175.39326,1552.6763,298.02942,1547.0767Q420.66562,1541.4769,605.35077,1541.2639Q790.03595,1541.4769,912.67206,1547.0767Q1035.3081,1552.6763,1039.9688,1561.1093"/>
</g>
<g style="fill:rgb(0,0,0); fill-opacity:1.0; stroke-linejoin: miter">
<path d="M556.67914,1118.123L594.8389,1118.123L632.9987,1118.1233Q632.9987,1166.3214,632.9987,1214.5193Q594.8388,1214.5198,556.6789,1214.5198Q556.67914,1166.3214,556.67914,1118.123 Z"/>
</g>
<g style="fill:rgb(0,0,0); fill-opacity:1.0; stroke-linejoin: miter">
<path d="M429.3453,916.8689L595.39764,916.8694L761.45,916.8699Q761.44977,1024.8489,761.44977,1132.8284Q595.3975,1132.8284,429.34512,1132.8289Q429.34512,1024.8489,429.3453,916.8689 Z"/>
</g>
<g style="fill:rgb(255,255,255); fill-opacity:1.0; stroke-linejoin: miter">
<path d="M437.7726,926.61536L595.39764,926.6161L753.0224,926.6161Q753.0224,1024.2627,753.0224,1121.9093Q595.3975,1121.9093,437.7725,1121.9095Q437.77255,1024.2626,437.7726,926.61536 Z"/>
</g>
<g style="fill:rgb(0,0,0); fill-opacity:1.0; stroke-linejoin: miter">
<path d="M501.84518,1203.9623L594.8388,1203.9628L687.8326,1203.963Q687.8326,1211.3622,687.8326,1218.7612Q594.8388,1218.7612,501.845,1218.7617Q501.845,1211.3619,501.84518,1203.9623 Z"/>
</g>
<g style="fill:rgb(252,233,234); fill-opacity:1.0; stroke-linejoin: miter">
<path d="M601.2563,1137.2812L601.2563,1137.2817L601.2563,1137.2816C601.2563,1137.644,600.96234,1137.938,600.5999,1137.938C600.2375,1137.938,599.94354,1137.644,599.94354,1137.2816L599.94354,1137.2822L599.94354,1137.2812C599.94354,1136.9187,600.2375,1136.625,600.5999,1136.625C600.96234,1136.625,601.2563,1136.9187,601.2563,1137.2812 Z"/>
</g>
<g style="fill:rgb(0,0,0); fill-opacity:1.0; stroke-linejoin: miter">
<path d="M571.30646,1519.4695L578.6014,1553.4894Q559.3327,1557.3472,551.7723,1557.4487Q544.8327,1557.9901,532.12866,1555.077L535.7744,1505.9596L571.30646,1519.4695"/>
</g>
<g style="fill:rgb(0,0,0); fill-opacity:1.0; stroke-linejoin: miter">
<path d="M657.29694,1516.2292L662.0135,1555.416Q647.9858,1559.5636,641.2913,1559.4116Q634.2619,1559.6042,621.67584,1555.695L627.7574,1520.9495L657.29694,1516.2292"/>
</g>
<g style="fill:rgb(60,70,79); fill-opacity:1.0; stroke-linejoin: miter">
<path d="M577.6274,1366.888L576.81024,1446.8705L575.9932,1526.8533L532.2136,1527.4902Q523.37866,1447.3206,514.54395,1367.1509L577.6274,1366.888"/>
</g>
<g style="fill:rgb(60,70,79); fill-opacity:1.0; stroke-linejoin: miter">
<path d="M617.7995,1365.4144L619.6895,1446.6455L621.5795,1527.8767Q644.2353,1527.7467,666.89105,1527.6165Q676.1801,1444.8701,685.4692,1362.1233L617.7995,1365.4144"/>
</g>
<g style="fill:rgb(255,255,255); fill-opacity:0.99607843; stroke-linejoin: miter">
<path d="M361.37753,1219.7124L600.93146,1219.7129L840.4853,1219.7134Q840.4853,1228.8214,840.4853,1237.9296Q600.93146,1237.93,361.37753,1237.9305Q361.37753,1228.8214,361.37753,1219.7124"/>
</g>
<g style="fill:rgb(255,255,255); fill-opacity:0.99607843; stroke-linejoin: miter">
<path d="M414.34573,1237.3347L424.47073,1237.3352L434.59592,1237.3357Q434.59592,1397.4337,434.59592,1557.5319Q424.47073,1557.532,414.3456,1557.5327Q414.34573,1397.4337,414.34573,1237.3347"/>
</g>
<g style="fill:rgb(255,255,255); fill-opacity:0.99607843; stroke-linejoin: miter">
<path d="M783.91034,1237.3351L794.03534,1237.3354L804.16046,1237.3358Q804.16046,1397.4337,804.16046,1557.5319Q794.03534,1557.532,783.9102,1557.5327Q783.91034,1397.4337,783.91034,1237.3351"/>
</g>
<g style="fill:rgb(34,43,50); fill-opacity:1.0; stroke-linejoin: miter">
<path d="M688.59564,1252.0061L701.26337,1252.0066L713.93097,1252.0067Q713.93097,1314.4878,713.93097,1376.9686Q701.26337,1376.9689,688.59564,1376.9694Q688.59564,1314.4878,688.59564,1252.0061"/>
</g>
<g style="fill:rgb(34,43,50); fill-opacity:1.0; stroke-linejoin: miter">
<path d="M480.85617,1250.495L493.5239,1250.4955L506.19162,1250.496Q506.19162,1312.9767,506.19156,1375.4576Q493.52383,1375.458,480.85617,1375.4585Q480.85617,1312.9767,480.85617,1250.495"/>
</g>
<g style="fill:rgb(0,0,0); fill-opacity:1.0; stroke-linejoin: miter">
<path d="M691.87494,1563.2748L691.0257,1565.0903Q684.9887,1570.5762,655.6972,1573.8651Q626.20306,1577.152,586.23444,1576.5308Q548.08954,1575.6624,525.2196,1571.4496Q517.8917,1570.088,513.1478,1568.482L509.16074,1566.8313Q505.87497,1565.1273,505.83798,1563.2748Q506.83554,1557.5903,533.0825,1553.8156Q559.3295,1550.0409,598.8564,1549.8975Q638.3835,1550.0409,664.63043,1553.8156Q690.8775,1557.5903,691.87494,1563.2748"/>
</g>
<g style="fill:rgb(0,0,0); fill-opacity:0.99607843; stroke-linejoin: miter">
<path d="M701.9538,1362.7656L701.0025,1368.619Q694.2391,1386.3077,661.42316,1396.9132Q628.3802,1407.51,583.6025,1405.5073Q540.86804,1402.7078,515.24634,1389.1246Q507.03683,1384.7338,501.72214,1379.5558L497.25522,1374.2329Q493.57413,1368.7386,493.53268,1362.7656Q494.65024,1344.436,524.0553,1332.2644Q553.4605,1320.0927,597.74335,1319.6304Q642.0262,1320.0927,671.4312,1332.2644Q700.83636,1344.436,701.9538,1362.7656"/>
</g>
<g style="fill:rgb(34,43,50); fill-opacity:1.0; stroke-linejoin: miter">
<path d="M618.8996,1517.149L644.2581,1517.1495L669.61664,1517.1499Q669.61664,1522.9663,669.61664,1528.7827Q644.2581,1528.7832,618.8996,1528.7837Q618.8996,1522.9663,618.8996,1517.149"/>
</g>
<g style="fill:rgb(34,43,50); fill-opacity:1.0; stroke-linejoin: miter">
<path d="M530.1864,1519.3689L554.43805,1519.3694L578.6894,1519.3699Q578.6894,1525.1146,578.6894,1530.8596Q554.43805,1530.8601,530.1864,1530.8606Q530.1864,1525.1146,530.1864,1519.3689"/>
</g>
<g style="fill:rgb(35,75,105); fill-opacity:0.99607843; stroke-linejoin: miter">
<path d="M405.85153,1067.6013L405.85153,1067.6018L405.85147,1067.6023L405.85153,1067.6018L405.85153,1067.6013L405.85153,1067.6018L405.85147,1067.6023Q405.85153,1067.6018,405.85153,1067.6013"/>
</g>
<g style="fill:rgb(0,0,0); fill-opacity:1.0; stroke-linejoin: miter">
<path d="M587.94855,1386.1074L598.8564,1386.1078L609.76447,1386.1083Q609.76447,1476.2555,609.76447,1566.4031Q598.8564,1566.4036,587.94855,1566.404Q587.94855,1476.2555,587.94855,1386.1074"/>
</g>
<g style="fill:rgb(0,0,0); fill-opacity:1.0; stroke-linejoin: miter">
<path d="M394.6,1171.6324L418.46262,1171.6329L442.32535,1171.6334Q442.32535,1195.4955,442.32535,1219.358Q418.46262,1219.3585,394.6,1219.3589Q394.6,1195.4955,394.6,1171.6324"/>
</g>
<g style="fill:rgb(0,0,0); fill-opacity:1.0; stroke-linejoin: miter">
<path d="M381.36713,1183.4058L381.36713,1183.4067L403.3752,1183.4067C404.65494,1183.4067,405.69247,1184.4442,405.69247,1185.724L405.69247,1185.725L405.69247,1207.7311C405.69247,1209.011,404.65494,1210.0486,403.3752,1210.0486L403.3752,1210.0493L381.36713,1210.0494C380.75253,1210.0494,380.16312,1209.8053,379.72845,1209.3707C379.29385,1208.9362,379.0497,1208.3467,379.0497,1207.732L379.0497,1207.733L379.0497,1185.7234C379.0497,1185.1085,379.29385,1184.5192,379.72845,1184.0845C380.16312,1183.6499,380.75253,1183.4058,381.36713,1183.4058L381.36713,1183.4067 M381.36697,1188.0405L383.68457,1185.7234L383.68457,1207.732L381.36697,1205.4148L403.37497,1205.4138L401.05765,1207.7311L401.05765,1185.724L403.37497,1188.0414L381.36697,1188.0405 Z"/>
</g>
<g style="fill:rgb(0,0,0); fill-opacity:1.0; stroke-linejoin: miter">
<path d="M471.63028,1315.3596L594.6877,1315.36L717.74493,1315.3605Q717.74493,1331.6594,717.74493,1347.9584Q594.6877,1347.9589,471.63028,1347.9591Q471.63028,1331.6594,471.63028,1315.3596"/>
</g>
<g style="fill:rgb(255,0,51); fill-opacity:1.0; stroke-linejoin: miter">
<path d="M466.74832,953.4514L597.87445,953.4519L729.00055,953.4524Q729.00055,966.11597,729.00055,978.77966Q597.87445,978.78,466.74832,978.7805Q466.74832,966.11597,466.74832,953.4514"/>
</g>
<g style="fill:rgb(217,226,231); fill-opacity:1.0; stroke-linejoin: miter">
<path d="M579.3736,990.8629L647.4521,990.8634L715.5306,990.8639Q715.5306,1021.97974,715.5306,1053.0958Q647.4521,1053.0962,579.3735,1053.0967Q579.3735,1021.97974,579.3736,990.8629"/>
</g>
<g style="fill:rgb(217,226,231); fill-opacity:1.0; stroke-linejoin: miter">
<path d="M485.01657,994.67896L517.41724,994.67944L549.8178,994.6797Q549.8178,1040.8888,549.8178,1087.0979Q517.41724,1087.0981,485.01657,1087.0986Q485.01657,1040.8888,485.01657,994.67896"/>
</g>
<g style="fill:rgb(255,191,175); fill-opacity:0.99607843; stroke-linejoin: miter">
<path d="M562.14923,1033.512L562.3503,1036.2264Q563.93,1054.215,562.0446,1062.8431Q560.58075,1070.7849,551.79987,1079.151L627.5168,1074.8488Q617.97784,1063.5088,614.97675,1054.8749Q611.66,1046.7698,608.56305,1024.6321L562.14923,1033.512"/>
</g>
<g style="fill:rgb(255,191,175); fill-opacity:0.99607843; stroke-linejoin: miter">
<path d="M551.5118,1019.69995L551.47394,1021.46375Q550.89777,1026.8143,547.13434,1030.1685Q543.3438,1033.5212,537.9966,1033.1473Q532.88184,1032.5234,529.66223,1028.5714Q526.4437,1024.5912,526.7804,1018.99646Q527.35657,1013.6459,531.12,1010.2916Q534.9105,1006.93884,540.2577,1007.31287Q545.3725,1007.9369,548.5921,1011.8888Q549.6242,1013.1666,550.32245,1014.6957L550.9218,1016.2727Q551.43,1017.90515,551.5118,1019.69995"/>
</g>
<g style="fill:rgb(255,191,175); fill-opacity:0.99607843; stroke-linejoin: miter">
<path d="M633.03973,1011.4718L633.002,1013.2357Q632.42584,1018.5863,628.6623,1021.9407Q624.87177,1025.2935,619.5246,1024.9194Q614.40985,1024.2954,611.19025,1020.3435Q607.97174,1016.3633,608.3083,1010.7683Q608.88434,1005.4176,612.6479,1002.06335Q616.43854,998.71045,621.7857,999.0845Q626.9003,999.7086,630.12006,1003.6604Q631.15216,1004.9381,631.8504,1006.4674L632.44977,1008.04443Q632.95795,1009.6769,633.03973,1011.4718"/>
</g>
<g style="fill:rgb(255,255,255); fill-opacity:1.0; stroke-linejoin: miter">
<path d="M562.50555,985.4888Q560.88715,985.4977,559.7276,986.61316Q558.59686,987.7495,558.55963,989.3711Q558.5721,990.9927,559.6799,992.14307Q560.8171,993.27527,562.43304,993.3146Q564.0517,993.30786,565.21295,992.1942Q566.3454,991.05945,566.38495,989.43774Q566.3742,987.8159,565.2679,986.66345Q564.1331,985.5303,562.517,985.4888 Z"/>
</g>
<g style="fill:rgb(0,0,0); fill-opacity:1.0; stroke-linejoin: miter">
<path d="M561.92303,985.47217Q561.1623,985.4728,560.8051,985.65576L558.4725,987.208L559.7862,986.7256Q559.55585,988.0027,559.67523,988.8385Q559.7901,989.78015,560.2996,990.86487Q561.5715,993.42175,562.94305,993.4331Q563.5948,993.4252,564.0755,992.88Q564.53705,992.3191,564.58856,991.4856Q564.73944,990.14233,563.36957,986.3279L563.4587,985.7169L564.8338,985.63196Q562.6962,985.46045,561.93304,985.47217 Z"/>
</g>
<g style="fill:rgb(0,0,0); fill-opacity:1.0; stroke-linejoin: miter">
<path d="M560.585,978.7595Q558.45123,979.36304,556.2188,982.33984L567.82684,980.3374L567.70465,980.2777L566.4815,979.76794Q565.82916,979.50366,565.3217,979.32166Q564.3244,978.9623,563.49664,978.78015Q561.8322,978.40894,560.5888,978.7583 Z"/>
</g>
<g style="fill:rgb(255,255,255); fill-opacity:1.0; stroke-linejoin: miter">
<path d="M540.87134,989.7239Q539.25305,989.73254,538.09314,990.8473Q536.9624,991.9839,536.92505,993.6057Q536.938,995.22754,538.0454,996.3777Q539.1826,997.5094,540.7988,997.5488Q542.41736,997.54236,543.5789,996.4291Q544.7109,995.29346,544.7504,993.6719Q544.7397,992.0503,543.6335,990.89844Q542.4988,989.76514,540.88257,989.7239 Z"/>
</g>
<g style="fill:rgb(0,0,0); fill-opacity:1.0; stroke-linejoin: miter">
<path d="M540.2883,989.7064Q539.5281,989.7074,539.17114,989.89087L536.83813,991.44275L538.152,990.9612Q537.92175,992.23755,538.041,993.0731Q538.15564,994.0145,538.6653,995.099Q539.937,997.6572,541.3092,997.66724Q541.9606,997.66003,542.4413,997.11475Q542.9028,996.5541,542.9545,995.7202Q543.1053,994.3766,541.7351,990.5624L541.82495,989.952L543.19916,989.8667Q541.0619,989.69556,540.29895,989.7064 Z"/>
</g>
<g style="fill:rgb(0,0,0); fill-opacity:1.0; stroke-linejoin: miter">
<path d="M538.9503,982.9946Q536.8168,983.5979,534.5846,986.5753L546.19244,984.57214L546.0701,984.5122L544.84674,984.0023Q544.1949,983.73926,543.6873,983.5569Q542.6899,983.1969,541.86194,983.0149Q540.1979,982.6438,538.9546,982.9929 Z"/>
</g>
<g style="fill:rgb(107,39,37); fill-opacity:1.0; stroke-linejoin: miter">
<path d="M608.8548,950.87024L611.32635,951.5178Q618.9588,953.12805,624.6286,957.73474Q626.44586,959.3811,627.82684,961.6936L629.07184,964.2141Q630.1939,966.9219,630.7164,970.5453Q633.0843,989.6173,621.8914,1023.70776Q618.6226,1032.6703,614.95,1038.4886Q613.10565,1041.4196,611.1059,1043.7134Q610.23175,1045.1798,604.6618,1049.4226Q587.59686,1059.1906,572.0186,1055.2388Q552.3105,1050.5302,536.35803,1018.08594Q530.5194,1005.7335,528.146,992.8425Q525.78394,979.9579,528.74365,969.26953Q530.2771,964.0083,532.9679,959.51025L535.87195,955.21155Q539.02747,951.10815,542.8848,947.82007Q546.74225,944.532,550.998,942.094Q553.1043,940.3176,563.903,936.7814Q573.8776,934.167,583.5319,936.8019Q594.3378,939.77905,608.8548,950.87024"/>
</g>
<g style="fill:rgb(32,108,183); fill-opacity:1.0; stroke-linejoin: miter">
<path d="M558.4318,1060.2361L590.8576,1057.4088L623.28326,1054.5812Q628.2099,1075.9683,633.13666,1097.3556Q628.56525,1134.3706,623.99384,1171.3856Q584.5135,1168.9943,545.033,1166.6027L558.4318,1060.2361"/>
</g>
<g style="fill:rgb(224,77,105); fill-opacity:0.99607843; stroke-linejoin: miter">
<path d="M618.35065,1223.8807L618.35065,1223.8812Q618.35065,1223.8823,618.35065,1223.8807"/>
</g>
<g style="fill:rgb(32,108,183); fill-opacity:1.0; stroke-linejoin: miter">
<path d="M624.6568,1073.9043L690.8405,1064.0918L806.8851,952.9529L827.7244,977.89014Q784.44794,1056.0016,766.03815,1075.4031Q750.68915,1091.9644,747.6512,1093.1962L718.63434,1111.7911Q713.2817,1115.3395,708.518,1119.8921Q697.2465,1132.7632,695.9599,1137.846Q685.5484,1161.5359,682.58563,1207.9225Q679.67926,1245.2491,679.5649,1328.0477L569.79987,1343.289L624.6568,1073.9043"/>
</g>
<g style="fill:rgb(0,0,0); fill-opacity:0.99607843; stroke-linejoin: miter">
<path d="M804.0809,963.8723L804.0809,963.8728Q804.0809,963.8739,804.0809,963.8723"/>
</g>
<g style="fill:rgb(255,191,175); fill-opacity:0.99607843; stroke-linejoin: miter">
<path d="M397.55197,968.19446L397.55197,968.19543L386.11487,954.8064Q390.25858,948.75684,391.71616,945.4783Q393.02036,942.8181,392.68427,940.24634Q392.16513,937.9398,390.62952,937.8508Q390.27457,937.7412,389.29337,938.42236L386.7223,940.97Q385.61182,941.8612,385.37918,941.834Q384.0208,942.4346,382.31128,940.03845Q380.78067,937.5725,381.3128,934.5919Q381.5794,932.45447,385.0998,927.8025Q384.53476,922.49365,381.42426,921.69543Q373.52417,919.698,359.95792,929.7312Q353.05865,935.31323,351.097,938.2805Q347.91034,942.95386,347.9006,943.89734Q347.2388,945.77075,347.24783,947.5836Q347.2623,949.3948,347.8538,951.1505L348.5608,952.89465Q349.39764,954.6266,350.6384,956.31946Q354.59164,961.3755,360.10306,966.2811L378.74124,991.5343L397.55197,968.19446"/>
</g>
<g style="fill:rgb(32,108,183); fill-opacity:1.0; stroke-linejoin: miter">
<path d="M572.87067,1074.5569L506.6868,1064.7441L390.64212,953.60547L366.25006,978.31665Q412.18887,1056.5973,431.13828,1076.0331Q446.954,1092.6241,449.9954,1093.8562L479.15958,1112.4606Q484.4861,1116.0073,489.20236,1120.5573Q500.3489,1133.42,501.61118,1138.5013Q511.88193,1162.1823,514.85046,1208.5691Q517.7533,1245.8956,517.96265,1328.7001L627.72736,1343.9413L572.87067,1074.5569"/>
</g>
<g style="fill:rgb(0,0,0); fill-opacity:1.0; stroke-linejoin: miter">
<path d="M496.5544,1140.1805L598.8564,1140.1809L701.1584,1140.1814Q701.1584,1256.0153,701.1584,1371.8494Q598.8564,1371.8499,496.5544,1371.85Q496.5544,1256.0153,496.5544,1140.1805"/>
</g>
<g style="fill:rgb(255,255,255); fill-opacity:1.0; stroke-linejoin: miter">
<path d="M139.9732,767.59656C186.27884,767.59656,223.81326,805.1304,223.81326,851.43665C223.81326,897.7428,186.27946,935.2815,139.9732,935.2815C93.667015,935.2815,56.13308,897.7422,56.13308,851.43665C56.13308,805.13086,93.667564,767.59656,139.9732,767.59656 Z"/>
</g>
<g style="fill:rgb(0,0,0); fill-opacity:1.0; stroke-linejoin: miter">
<path d="M176.65314,846.2019L145.21332,846.2024L145.21332,809.5112C145.21332,806.61365,142.866,804.2711,139.9732,804.2711C137.08041,804.2711,134.73318,806.61365,134.73318,809.5112L134.73318,851.43115C134.73318,854.32874,137.08041,856.67126,139.9732,856.67126L176.65314,856.6719C179.55072,856.67126,181.89325,854.32886,181.89325,851.43115C181.89325,848.5492,179.55072,846.2019,176.65314,846.2019 Z"/>
</g>
<g style="fill:rgb(0,0,0); fill-opacity:1.0; stroke-linejoin: miter">
<path d="M139.9732,767.59656C93.667564,767.59656,56.13308,805.13025,56.13308,851.43665C56.13308,897.7428,93.667015,935.2815,139.9732,935.2815C186.27946,935.2815,223.81326,897.7423,223.81326,851.43665C223.81326,805.1311,186.27884,767.59656,139.9732,767.59656 Z M139.9732,919.56165C102.41299,919.56165,71.853386,889.0021,71.853294,851.43665C71.853294,813.87634,102.41299,783.31665,139.9732,783.31665C177.53345,783.3168,208.09305,813.87634,208.09305,851.43665C208.09305,889.0021,177.53343,919.56165,139.9732,919.56165 Z"/>
</g>
<g style="fill:rgb(253,217,8); fill-opacity:1.0; stroke-linejoin: miter">
<path d="M885.66156,814.8956L885.78973,812.5108Q886.8326,805.29425,892.30426,800.9026Q897.8145,796.51355,905.3707,797.22736Q912.5873,798.2702,916.97906,803.74176Q918.3864,805.5106,919.3104,807.6065L920.0922,809.76355Q920.7425,811.9919,920.782,814.42334Q920.6939,821.888,915.8053,826.90967Q910.9169,831.9311,903.4574,832.2198Q895.99286,832.1316,890.9713,827.2433Q885.9499,822.3549,885.66156,814.8956 Z"/>
</g>
<g style="fill:rgb(238,170,1); fill-opacity:1.0; stroke-linejoin: miter">
<path d="M888.40967,814.81433L888.5182,812.8027Q889.3979,806.71576,894.0131,803.01117Q898.66077,799.30914,905.0346,799.9113Q911.1215,800.791,914.82605,805.40643Q916.01294,806.89844,916.7923,808.66614L917.45197,810.48566Q918.00037,812.365,918.03375,814.4162Q917.95953,820.7126,913.8359,824.9481Q909.7127,829.18396,903.4204,829.42737Q897.12427,829.3529,892.8887,825.22974Q888.6533,821.1063,888.40967,814.81433 Z"/>
</g>
<g style="fill:rgb(255,183,13); fill-opacity:1.0; stroke-linejoin: miter">
<path d="M888.77167,814.80383L888.87756,812.84143Q889.73584,806.9032,894.2382,803.2892Q898.77234,799.6776,904.99036,800.265Q910.92847,801.12317,914.5425,805.62573Q915.7005,807.0815,916.46075,808.80585L917.1043,810.581Q917.63934,812.4144,917.67175,814.4152Q917.5993,820.55786,913.5766,824.68994Q909.5541,828.8222,903.4156,829.0598Q897.2733,828.98706,893.1413,824.9647Q889.0093,820.94196,888.77167,814.80383 Z"/>
</g>
<g style="fill:rgb(238,170,1); fill-opacity:1.0; stroke-linejoin: miter">
<path d="M901.889,806.64655L901.889,808.13586Q900.64404,808.6473,899.866,809.7588Q899.08795,810.87024,899.08795,812.29297Q899.08795,813.20435,899.4436,814.02686Q899.7994,814.82715,900.3995,815.4273Q900.9997,816.0276,901.82227,816.3833Q902.62256,816.73895,903.5339,816.7389L903.6673,816.739Q903.93414,816.7834,904.112,816.98346Q904.28973,817.1835,904.28973,817.47253Q904.28973,817.7837,904.0675,818.00604Q903.84515,818.22833,903.5339,818.22833Q903.2228,818.22833,903.00037,818.00604Q902.7781,817.7837,902.7781,817.47253L899.08795,817.47266Q899.08795,818.1839,899.3102,818.8285Q899.5103,819.451,899.88824,820.0068Q900.2439,820.5403,900.7552,820.9626Q901.2665,821.3628,901.889,821.6073L901.889,823.2968L905.6235,823.2968L905.6235,821.4071Q906.6906,820.8293,907.33527,819.7844Q907.9799,818.7619,907.9799,817.47253Q907.9799,816.5611,907.62427,815.7386Q907.2686,814.9383,906.6684,814.3381Q906.0681,813.7379,905.2456,813.38226Q904.4455,813.0266,903.534,813.0266L903.4006,813.0267Q903.1338,812.98206,902.95605,812.7599Q902.77814,812.55975,902.77814,812.29297Q902.77814,811.9818,903.0005,811.7373Q903.2228,811.5149,903.534,811.515Q903.84515,811.51495,904.0675,811.75946Q904.28986,811.9819,904.28986,812.293L907.98,812.2933Q907.98,811.0037,907.3354,809.95886Q906.6906,808.91406,905.6236,808.33606L905.6236,806.64655 Z"/>
</g>
<g style="fill:rgb(253,217,8); fill-opacity:1.0; stroke-linejoin: miter">
<path d="M901.57623,806.8333L901.57623,808.3227Q900.3313,808.8339,899.5533,809.9455Q898.77527,811.05695,898.77527,812.4797Q898.77527,813.3911,899.1308,814.2137Q899.4865,815.01385,900.08673,815.614Q900.6869,816.2142,901.5094,816.5699Q902.3097,816.92554,903.2211,816.9256L903.35455,816.9258Q903.6212,816.97003,903.79913,817.17017Q903.977,817.37024,903.977,817.65924Q903.977,817.97046,903.75464,818.1927Q903.53235,818.41504,903.2211,818.41504Q902.9099,818.41504,902.6877,818.19275Q902.46533,817.97046,902.46533,817.65924L898.77515,817.65924Q898.77515,818.3705,898.9975,819.01526Q899.1976,819.6377,899.5755,820.1934Q899.93115,820.7269,900.44244,821.1493Q900.9537,821.54944,901.5762,821.79395L901.5762,823.48346L905.3108,823.4836L905.3108,821.59393Q906.3778,821.01587,907.02246,819.9711Q907.6672,818.9486,907.6672,817.6593Q907.6672,816.74786,907.31146,815.9253Q906.9559,815.125,906.3555,814.5248Q905.7554,813.9245,904.9328,813.56885Q904.1326,813.2133,903.2211,813.21326L903.0878,813.2135Q902.8211,813.16876,902.6432,812.94653Q902.46533,812.7464,902.46533,812.4797Q902.46533,812.1684,902.6877,811.9239Q902.91003,811.70166,903.2211,811.7016Q903.5324,811.7016,903.7547,811.94617Q903.97705,812.1684,903.97705,812.4797L907.6672,812.4798Q907.6672,811.1904,907.0225,810.1455Q906.37787,809.10077,905.3107,808.5227L905.3107,806.83325 Z"/>
</g>
<g style="fill:rgb(38,120,95); fill-opacity:1.0; stroke-linejoin: miter">
<path d="M814.5438,817.15283C812.4544,817.7457,810.3515,819.04956,808.90967,820.6559C807.5206,822.2195,806.7539,823.66785,806.17926,825.7503C805.7742,827.18585,805.76575,827.5122,805.96576,829.69617C806.16046,831.8228,806.25476,832.21594,806.8455,833.4448C808.10565,836.12463,810.0703,838.1276,812.53424,839.3188C817.20264,841.5713,823.05365,840.4415,826.45844,836.6455C830.43677,832.2024,830.6713,825.76666,826.99744,821.20135C824.05774,817.5439,818.9869,815.9028,814.5438,817.15283 Z"/>
</g>
<g style="fill:rgb(18,91,69); fill-opacity:1.0; stroke-linejoin: miter">
<path d="M815.3799,819.1632L815.5358,820.8949Q814.14185,821.61957,813.3535,822.9935Q812.56525,824.3672,812.7143,826.0216Q812.80963,827.08124,813.3092,828.00024Q813.80664,828.8937,814.5673,829.5287Q815.32806,830.1637,816.32166,830.4911Q817.2893,830.82086,818.34906,830.72546L818.5041,830.7117Q818.8189,830.73535,819.04675,830.9494Q819.27435,831.1633,819.3046,831.4993Q819.33716,831.86115,819.102,832.143Q818.8669,832.4247,818.50494,832.4573Q818.1431,832.4898,817.8614,832.25464Q817.5796,832.0195,817.547,831.6576L813.2565,832.044Q813.3309,832.8709,813.65674,833.59717Q813.9546,834.30005,814.4523,834.9066Q814.9216,835.4898,815.56024,835.92737Q816.19666,836.33905,816.946,836.5583L817.1228,838.5227L821.4652,838.1319L821.2674,835.9347Q822.4475,835.15094,823.0878,833.8687Q823.7303,832.61224,823.59534,831.1131Q823.4998,830.0533,823.0003,829.13416Q822.503,828.24097,821.74225,827.60583Q820.9815,826.97076,819.9879,826.6435Q819.0202,826.3138,817.9605,826.4091L817.8055,826.42316Q817.49054,826.3993,817.26056,826.1595Q817.0328,825.9455,817.00494,825.6353Q816.97235,825.2735,817.2051,824.9657Q817.4403,824.684,817.80225,824.6514Q818.164,824.61884,818.44806,824.8798Q818.7299,825.11505,818.7625,825.47705L823.05316,825.09094Q822.9183,823.5917,822.0593,822.4443Q821.2003,821.2969,819.8991,820.73663L819.7223,818.7722 Z"/>
</g>
<g style="fill:rgb(42,175,134); fill-opacity:1.0; stroke-linejoin: miter">
<path d="M815.03577,819.41284L815.1916,821.1447Q813.7978,821.8695,813.0094,823.2433Q812.2211,824.61707,812.37006,826.27136Q812.46545,827.33093,812.96515,828.2503Q813.46246,829.1433,814.22314,829.7784Q814.9838,830.41345,815.97736,830.7407Q816.94525,831.07086,818.005,830.97534L818.1601,830.9616Q818.47485,830.98517,818.70264,831.19916Q818.9303,831.4132,818.9605,831.7493Q818.9931,832.111,818.7579,832.39276Q818.5227,832.6745,818.1609,832.70715Q817.799,832.7397,817.5172,832.50446Q817.2354,832.2692,817.20294,831.90753L812.9123,832.29376Q812.9867,833.1207,813.3127,833.84717Q813.6105,834.5499,814.108,835.15643Q814.5774,835.73956,815.21606,836.17706Q815.8524,836.5888,816.60187,836.80804L816.7786,838.77234L821.121,838.3816L820.92316,836.1844Q822.10345,835.4009,822.7436,834.11835Q823.38617,832.862,823.2512,831.363Q823.15576,830.30316,822.65607,829.38416Q822.1588,828.49084,821.3981,827.8557Q820.6374,827.2207,819.64386,826.89325Q818.6761,826.56366,817.61633,826.65894L817.46124,826.67303Q817.1465,826.64905,816.9163,826.4092Q816.6886,826.1951,816.6607,825.885Q816.6281,825.5232,816.8609,825.2154Q817.0962,824.9338,817.458,824.9012Q817.81995,824.86865,818.10394,825.1298Q818.3858,825.365,818.4184,825.7268L822.709,825.3407Q822.574,823.84143,821.71515,822.6941Q820.85614,821.54663,819.55505,820.98645L819.3781,819.0219 Z"/>
</g>
<g style="fill:rgb(38,120,95); fill-opacity:1.0; stroke-linejoin: miter">
<path d="M768.1041,809.36316C768.0752,809.46136,769.03174,820.11536,770.2377,833.065L772.4138,856.6076L819.83386,852.3213L867.25214,848.0153L865.07733,824.28064L862.9027,800.5457L815.5456,804.8836C789.4938,807.2701,768.1549,809.28217,768.1041,809.36316 Z M847.486,812.6411C848.11066,814.863,849.40015,816.39124,851.4807,817.36896C852.24084,817.7208,853.026,817.9354,853.69946,817.97076C854.2753,817.97485,854.80096,818.0803,854.8665,818.16943C855.12836,818.5097,856.35944,831.95355,856.14966,832.1645C856.04224,832.25006,855.54205,832.42993,855.03625,832.55304C853.8344,832.8157,852.0154,834.07385,851.2335,835.159C850.4559,836.2839,849.9218,837.7696,849.8642,839.0196L849.8235,840.03766L819.0245,842.86084L788.244,845.68L787.88275,844.4495C787.68774,843.77765,787.342,842.92926,787.11646,842.56726C786.04333,840.88367,783.70435,839.3947,781.9122,839.27075C781.4899,839.2523,780.94995,839.20624,780.7163,839.17004L780.27277,839.13416L779.6295,832.1085C778.9091,824.2474,778.8112,825.061,780.47925,824.65906C781.6761,824.3579,782.95593,823.4934,783.9222,822.3332C784.95734,821.08905,785.70654,819.02905,785.59064,817.7567L785.5402,817.20654L816.35834,814.3827L847.17645,811.55994L847.486,812.6411 Z"/>
</g>
<g style="fill:rgb(42,175,134); fill-opacity:1.0; stroke-linejoin: miter">
<path d="M816.53534,816.7864C820.4322,816.4288,824.48975,818.0823,826.99744,821.20135C830.6713,825.76666,830.43677,832.2024,826.45844,836.6455C824.48224,838.8482,821.683,840.1543,818.7687,840.42065C816.66113,840.61365,814.4934,840.26385,812.53424,839.3188C810.0703,838.1276,808.10565,836.12463,806.8455,833.4448C806.25476,832.21594,806.16046,831.8228,805.96576,829.69617C805.76575,827.5122,805.7742,827.18585,806.17926,825.7503C806.7539,823.66785,807.5206,822.2195,808.90967,820.6559C810.3515,819.04956,812.4544,817.7457,814.5438,817.15283C815.1972,816.9692,815.8642,816.8486,816.53534,816.7864 Z M785.5402,817.20654L785.59064,817.7567C785.70654,819.02905,784.95734,821.08905,783.9222,822.3332C782.95593,823.4934,781.6761,824.3579,780.47925,824.65906C778.8112,825.061,778.9091,824.2474,779.6295,832.1085L780.27277,839.13416L780.7163,839.17004C780.94995,839.20624,781.4899,839.2523,781.9122,839.27075C783.70435,839.3947,786.04333,840.88367,787.11646,842.56726C787.342,842.92926,787.68774,843.77765,787.88275,844.4495L788.244,845.68L849.8235,840.03766L849.8642,839.0196C849.9218,837.7696,850.4559,836.2839,851.2335,835.159C852.0154,834.07385,853.8344,832.8157,855.03625,832.55304C855.54205,832.42993,856.04224,832.25006,856.14966,832.1645C856.35944,831.95355,855.12836,818.5097,854.8665,818.16943C854.80096,818.0803,854.2753,817.97485,853.69946,817.97076C853.026,817.9354,852.24084,817.7208,851.4807,817.36896C849.40015,816.39124,848.11066,814.863,847.486,812.6411L847.17645,811.55994 Z"/>
</g>
<g style="fill:rgb(253,217,8); fill-opacity:1.0; stroke-linejoin: miter">
<path d="M678.33966,760.95386L679.6467,758.9549Q684.1686,753.2347,691.10516,752.17975Q698.07367,751.1463,704.2529,755.5539Q709.97314,760.0756,711.0284,767.0121Q711.3587,769.2483,711.10693,771.525L710.7014,773.7833Q710.1463,776.0373,708.9609,778.1607Q705.1406,784.5745,698.3925,786.46686Q691.6448,788.3594,685.0463,784.8675Q678.6327,781.0473,676.7401,774.29956Q674.84784,767.55176,678.33966,760.95386 Z"/>
</g>
<g style="fill:rgb(238,170,1); fill-opacity:1.0; stroke-linejoin: miter">
<path d="M680.75793,762.26196L681.86084,760.5759Q685.6749,755.7511,691.52594,754.8611Q697.4037,753.9894,702.6159,757.70734Q707.4408,761.52136,708.3307,767.3723Q708.60913,769.2584,708.39685,771.1788L708.05493,773.0837Q707.5868,774.9846,706.58685,776.77606Q703.3645,782.18604,697.67255,783.78217Q691.98083,785.37866,686.4149,782.4331Q681.00525,779.21075,679.409,773.51917Q677.8128,767.8276,680.75793,762.26196 Z"/>
</g>
<g style="fill:rgb(255,183,13); fill-opacity:1.0; stroke-linejoin: miter">
<path d="M681.0764,762.4345L682.1523,760.78973Q685.8732,756.0828,691.5812,755.2144Q697.3153,754.3641,702.40015,757.99115Q707.1072,761.712,707.9754,767.42Q708.2471,769.26013,708.0399,771.1333L707.70636,772.99176Q707.24963,774.8464,706.2741,776.59357Q703.1305,781.8716,697.57776,783.42883Q692.025,784.9861,686.5951,782.1128Q681.31775,778.96906,679.7604,773.4167Q678.20325,767.864,681.0764,762.4345 Z"/>
</g>
<g style="fill:rgb(238,170,1); fill-opacity:1.0; stroke-linejoin: miter">
<path d="M696.5162,761.9564L695.7692,763.24493Q694.43567,763.0629,693.205,763.6343Q691.9745,764.20557,691.2608,765.4365Q690.8037,766.2249,690.69885,767.11475Q690.60516,767.98566,690.8234,768.8059Q691.04156,769.6262,691.5749,770.3466Q692.0888,771.0558,692.8774,771.5128L692.99274,771.5798Q693.20123,771.7521,693.2549,772.0144Q693.30835,772.27655,693.16327,772.5266Q693.00726,772.7958,692.7034,772.8767Q692.39954,772.9574,692.13025,772.8013Q691.861,772.64526,691.7803,772.3415Q691.69946,772.03754,691.85547,771.7684L688.66284,769.9177Q688.30615,770.533,688.175,771.202Q688.03595,771.84094,688.0843,772.5113Q688.1243,773.15137,688.3548,773.77313Q688.5965,774.3759,689.0124,774.89966L688.16504,776.3613L691.3959,778.2344L692.3436,776.5996Q693.55676,776.6349,694.6385,776.05414Q695.70905,775.4928,696.3558,774.3774Q696.8129,773.5889,696.91785,772.69904Q697.01154,771.82825,696.7932,771.00793Q696.57495,770.1876,696.0418,769.46735Q695.52795,768.75836,694.7394,768.3011L694.6239,768.23425Q694.41547,768.0619,694.3731,767.7805Q694.3195,767.518,694.45325,767.2873Q694.6094,767.018,694.92444,766.918Q695.2283,766.83716,695.4975,766.99335Q695.7667,767.1494,695.8364,767.4724Q695.91724,767.7763,695.76117,768.04565L698.95355,769.89667Q699.6004,768.78107,699.5667,767.5537Q699.533,766.3265,698.89984,765.2913L699.7472,763.8297 Z"/>
</g>
<g style="fill:rgb(253,217,8); fill-opacity:1.0; stroke-linejoin: miter">
<path d="M696.152,761.9611L695.40497,763.2496Q694.0714,763.0675,692.8408,763.639Q691.61017,764.2102,690.8966,765.441Q690.4394,766.2297,690.3346,767.1197Q690.2409,767.9903,690.45917,768.8106Q690.6775,769.6308,691.21063,770.35114Q691.72455,771.0601,692.5132,771.5174L692.6285,771.58453Q692.83704,771.75665,692.89044,772.01886Q692.944,772.2812,692.799,772.5312Q692.643,772.80054,692.3392,772.8813Q692.0352,772.9621,691.76605,772.806Q691.4967,772.6498,691.4161,772.3462Q691.33527,772.04236,691.4913,771.7731L688.29865,769.9221Q687.9419,770.5374,687.8109,771.2067Q687.67175,771.8456,687.72003,772.516Q687.76013,773.156,687.99066,773.7778Q688.23224,774.3804,688.64813,774.9041L687.8007,776.36584L691.0317,778.23914L691.97943,776.6044Q693.19257,776.63947,694.2743,776.05884Q695.3449,775.4976,695.99164,774.3822Q696.4488,773.5937,696.5536,772.70355Q696.64734,771.83295,696.429,771.01245Q696.21075,770.1921,695.6775,769.47186Q695.16364,768.76294,694.3751,768.30566L694.2597,768.2391Q694.0512,768.0665,694.00885,767.78503Q693.9554,767.5227,694.0891,767.292Q694.2452,767.02264,694.56024,766.9226Q694.864,766.84186,695.1333,766.99786Q695.4025,767.154,695.47217,767.4771Q695.55304,767.7808,695.3969,768.0501L698.58936,769.90125Q699.2361,768.78577,699.2025,767.5583Q699.1688,766.3312,698.5356,765.2959L699.38293,763.83417 Z"/>
</g>
<g style="fill:rgb(38,120,95); fill-opacity:1.0; stroke-linejoin: miter">
<path d="M615.68176,727.23724C613.5767,726.7021,611.1035,726.7754,609.0505,727.44183C607.06464,728.0979,605.675,728.9664,604.13336,730.47986C603.0628,731.51843,602.89185,731.79663,601.9695,733.7863C601.0713,735.72394,600.95575,736.1112,600.8504,737.47076C600.5965,740.421,601.2915,743.1392,602.82574,745.4056C605.73456,749.69574,611.363,751.6529,616.21234,750.07654C621.8826,748.22815,625.3135,742.77814,624.425,736.9857C623.71625,732.34717,620.1524,728.3841,615.68176,727.23724 Z"/>
</g>
<g style="fill:rgb(18,91,69); fill-opacity:1.0; stroke-linejoin: miter">
<path d="M615.3967,729.3957L614.663,730.97205Q613.09357,730.89984,611.7225,731.6932Q610.3516,732.48615,609.65076,733.99225Q609.20166,734.9567,609.17303,736.0023Q609.1553,737.0248,609.4948,737.9556Q609.8344,738.8866,610.52985,739.6681Q611.2015,740.4388,612.1662,740.88776L612.3072,740.95355Q612.5677,741.13196,612.6574,741.43134Q612.74713,741.7307,612.6047,742.0366Q612.4515,742.3659,612.10657,742.4917Q611.7619,742.6175,611.43243,742.4642Q611.10315,742.3109,610.9773,741.9661Q610.8515,741.62134,611.0048,741.29193L607.09924,739.47424Q606.74884,740.227,606.66644,741.0188Q606.5716,741.7761,606.69794,742.5506Q606.81134,743.29047,607.1445,743.9894Q607.4886,744.6646,608.0268,745.23016L607.1945,747.0183L611.14716,748.85815L612.0781,746.85803Q613.4921,746.7719,614.68933,745.9839Q615.8752,745.219,616.5104,743.8543Q616.9593,742.8896,616.9882,741.84393Q617.0059,740.82166,616.6663,739.8906Q616.3268,738.9598,615.63135,738.1782Q614.95966,737.4077,613.99493,736.95874L613.8538,736.89307Q613.5933,736.7144,613.51465,736.39166Q613.425,736.0924,613.55646,735.81006Q613.70966,735.4805,614.06537,735.33105Q614.4102,735.20526,614.7396,735.3587Q615.069,735.5119,615.1838,735.8802Q615.30963,736.2251,615.1563,736.55457L619.0618,738.3725Q619.6971,737.00775,619.5295,735.58435Q619.3619,734.1609,618.51715,733.02356L619.3494,731.23535 Z"/>
</g>
<g style="fill:rgb(42,175,134); fill-opacity:1.0; stroke-linejoin: miter">
<path d="M614.9737,729.439L614.2399,731.01544Q612.6706,730.94354,611.29956,731.7367Q609.9285,732.5297,609.2276,734.0356Q608.77875,735.0001,608.7499,736.046Q608.73224,737.0681,609.0718,737.9991Q609.4114,738.93,610.10675,739.7114Q610.7785,740.4824,611.74316,740.9313L611.8842,740.99725Q612.1447,741.17554,612.2345,741.475Q612.3241,741.77423,612.1817,742.0802Q612.0284,742.4095,611.68353,742.5353Q611.3389,742.66095,611.00946,742.5078Q610.68005,742.3545,610.55426,742.0096Q610.4284,741.66486,610.5817,741.3356L606.67615,739.5177Q606.32574,740.27045,606.24347,741.06244Q606.1486,741.8197,606.27466,742.5939Q606.38837,743.3338,606.72144,744.03265Q607.0655,744.708,607.6039,745.2737L606.77155,747.06165L610.72424,748.90155L611.6551,746.90137Q613.06915,746.8156,614.2663,746.02716Q615.4523,745.2626,616.08734,743.8981Q616.5363,742.93317,616.565,741.88745Q616.5828,740.8653,616.2432,739.9342Q615.9037,739.0033,615.2083,738.22174Q614.5365,737.4513,613.57184,737.00214L613.43066,736.93646Q613.17035,736.758,613.0916,736.435Q613.002,736.1357,613.13336,735.85333Q613.2867,735.5239,613.64246,735.37445Q613.98724,735.2488,614.3166,735.40216Q614.64594,735.5555,614.7607,735.9238Q614.8866,736.2686,614.73334,736.598L618.63885,738.416Q619.274,737.0512,619.1065,735.62787Q618.93884,734.2043,618.0942,733.06714L618.92645,731.2788 Z"/>
</g>
<g style="fill:rgb(38,120,95); fill-opacity:1.0; stroke-linejoin: miter">
<path d="M579.41345,697.20667C579.33923,697.27716,574.823,706.97363,569.37134,718.78143L559.446,740.24023L602.619,760.3157L645.8013,780.37366L655.82434,758.749L665.8478,737.12445L622.70215,717.12506C598.96735,706.1235,579.49805,697.162,579.41345,697.20667 Z M646.44366,739.85614C645.8696,742.0916,646.2186,744.06055,647.52826,745.9499C648.00934,746.63556,648.581,747.2151,649.1459,747.5834C649.642,747.8758,650.0439,748.2306,650.0559,748.34064C650.1117,748.76636,644.4337,761.0144,644.14636,761.09174C644.01056,761.1119,643.4876,761.0166,642.98834,760.86945C641.81683,760.4938,639.6121,760.67004,638.39136,761.2167C637.1544,761.79974,635.94714,762.81726,635.27045,763.8697L634.7246,764.7301L606.66376,751.72516L578.62146,738.7261L578.9261,737.48035C579.0943,736.8012,579.22076,735.89386,579.2072,735.4676C579.12335,733.4729,577.8466,731.01166,576.35846,730.0056C576.0024,729.7778,575.5584,729.46716,575.37445,729.31866L575.0087,729.0652L577.97595,722.66455C581.29553,715.50244,580.8028,716.1571,582.4473,716.64594C583.6338,716.9857,585.17456,716.8797,586.59235,716.3605C588.11194,715.8034,589.7933,714.39703,590.3312,713.23816L590.56354,712.737L618.64087,725.7507L646.7181,738.7655L646.44366,739.85614 Z"/>
</g>
<g style="fill:rgb(42,175,134); fill-opacity:1.0; stroke-linejoin: miter">
<path d="M617.58844,727.919C621.1391,729.56415,623.8199,733.02966,624.425,736.9857C625.3135,742.77814,621.8826,748.22815,616.21234,750.07654C613.3981,750.9911,610.3213,750.71704,607.66656,749.4858C605.7464,748.59564,604.0465,747.2058,602.82574,745.4056C601.2915,743.1392,600.5965,740.421,600.8504,737.47076C600.95575,736.1112,601.0713,735.72394,601.9695,733.7863C602.89185,731.79663,603.0628,731.51843,604.13336,730.47986C605.675,728.9664,607.06464,728.0979,609.0505,727.44183C611.1035,726.7754,613.5767,726.7021,615.68176,727.23724C616.339,727.40594,616.97656,727.6361,617.58844,727.919 Z M590.56354,712.737L590.3312,713.23816C589.7933,714.39703,588.11194,715.8034,586.59235,716.3605C585.17456,716.8797,583.6338,716.9857,582.4473,716.64594C580.8028,716.1571,581.29553,715.50244,577.97595,722.66455L575.0087,729.0652L575.37445,729.31866C575.5584,729.46716,576.0024,729.7778,576.35846,730.0056C577.8466,731.01166,579.12335,733.4729,579.2072,735.4676C579.22076,735.89386,579.0943,736.8012,578.9261,737.48035L578.62146,738.7261L634.7246,764.7301L635.27045,763.8697C635.94714,762.81726,637.1544,761.79974,638.39136,761.2167C639.6121,760.67004,641.81683,760.4938,642.98834,760.86945C643.4876,761.0166,644.01056,761.1119,644.14636,761.09174C644.4337,761.0144,650.1117,748.76636,650.0559,748.34064C650.0439,748.2306,649.642,747.8758,649.1459,747.5834C648.581,747.2151,648.00934,746.63556,647.52826,745.9499C646.2186,744.06055,645.8696,742.0916,646.44366,739.85614L646.7181,738.7655 Z"/>
</g>
<g style="fill:rgb(253,217,8); fill-opacity:1.0; stroke-linejoin: miter">
<path d="M531.9687,672.6554L530.21814,671.0307Q525.33997,665.6112,525.4667,658.5961Q525.62006,651.5531,531.0043,646.2033Q536.4238,641.32513,543.4389,641.45166Q545.6987,641.5022,547.90076,642.1334L550.0586,642.91296Q552.18695,643.8393,554.08075,645.3649Q559.76056,650.20953,560.49115,657.17975Q561.2216,664.1497,556.6698,670.0666Q551.8252,675.7462,544.8552,676.47687Q537.88525,677.2073,531.9687,672.6554 Z"/>
</g>
<g style="fill:rgb(238,170,1); fill-opacity:1.0; stroke-linejoin: miter">
<path d="M533.6648,670.4916L532.1885,669.12085Q528.07385,664.5496,528.18066,658.63226Q528.30994,652.69183,532.8516,648.17914Q537.423,644.0647,543.3404,644.17145Q545.24646,644.2143,547.10345,644.7465L548.9239,645.404Q550.71893,646.1852,552.3166,647.4722Q557.1075,651.5585,557.72345,657.4378Q558.3399,663.317,554.5002,668.308Q550.4139,673.0986,544.5348,673.7148Q538.6558,674.33075,533.6648,670.4916 Z"/>
</g>
<g style="fill:rgb(255,183,13); fill-opacity:1.0; stroke-linejoin: miter">
<path d="M533.8884,670.2067L532.4481,668.86945Q528.4342,664.4099,528.5383,658.6372Q528.66455,652.84186,533.0951,648.4396Q537.5546,644.42554,543.32733,644.52966Q545.187,644.5714,546.9986,645.0907L548.7746,645.7322Q550.52594,646.4943,552.0841,647.74976Q556.7582,651.73627,557.35913,657.47186Q557.9605,663.2074,554.2147,668.07654Q550.22815,672.7499,544.49286,673.3511Q538.7574,673.95215,533.8884,670.2067 Z"/>
</g>
<g style="fill:rgb(238,170,1); fill-opacity:1.0; stroke-linejoin: miter">
<path d="M536.01434,654.9066L537.15875,655.85974Q536.755,657.1436,537.1113,658.4528Q537.4674,659.7619,538.56085,660.6724Q539.26117,661.2557,540.12085,661.5086Q540.9635,661.7474,541.8088,661.6702Q542.6541,661.59314,543.45386,661.1888Q544.2393,660.8014,544.82245,660.101L544.9079,659.9986Q545.1127,659.82196,545.3803,659.8133Q545.64777,659.8046,545.8698,659.9896Q546.1091,660.1887,546.1377,660.50183Q546.1661,660.81494,545.967,661.05414Q545.7679,661.2933,545.4548,661.3219Q545.14154,661.3504,544.9025,661.15125L542.54126,663.9871Q543.08765,664.4422,543.7254,664.68396Q544.3317,664.9285,545.0007,664.9937Q545.63824,665.0618,546.28986,664.9392Q546.9246,664.80237,547.51086,664.4805L548.80927,665.56165L551.19916,662.6919L549.747,661.4826Q549.9859,660.2928,549.5954,659.12885Q549.2222,657.9791,548.2314,657.154Q547.53094,656.5707,546.67126,656.3176Q545.8287,656.0788,544.98334,656.15594Q544.138,656.23303,543.3383,656.6376Q542.55304,657.02484,541.9697,657.72534L541.8845,657.8279Q541.67944,658.0044,541.3949,657.99866Q541.1273,658.0073,540.92236,657.8366Q540.6831,657.63745,540.6376,657.3102Q540.6089,656.9971,540.8081,656.75793Q541.0072,656.5188,541.3374,656.5044Q541.6505,656.4759,541.8897,656.675L544.2514,653.83954Q543.26044,653.0143,542.045,652.84094Q540.82947,652.66785,539.70245,653.11786L538.4042,652.0366 Z"/>
</g>
<g style="fill:rgb(253,217,8); fill-opacity:1.0; stroke-linejoin: miter">
<path d="M535.95776,655.2665L537.1022,656.2196Q536.69836,657.50336,537.0547,658.81256Q537.4109,660.1217,538.5043,661.0321Q539.2045,661.6154,540.0643,661.8685Q540.90674,662.10724,541.7521,662.0302Q542.5973,661.953,543.39703,661.5486Q544.18243,661.1612,544.7657,660.4609L544.85126,660.35846Q545.05597,660.1818,545.3236,660.1732Q545.5912,660.16455,545.8132,660.3494Q546.0524,660.54865,546.0809,660.86176Q546.10944,661.17487,545.91034,661.414Q545.7112,661.65314,545.3981,661.68164Q545.08496,661.71027,544.8459,661.5111L542.48444,664.34686Q543.03094,664.802,543.66864,665.0437Q544.27496,665.28827,544.944,665.3535Q545.5815,665.42163,546.2332,665.299Q546.868,665.16223,547.45416,664.84033L548.75244,665.9215L551.1425,663.05176L549.69037,661.8425Q549.929,660.6526,549.5387,659.4885Q549.1656,658.33887,548.1747,657.5138Q547.4743,656.93054,546.6147,656.6774Q545.77203,656.4386,544.9267,656.5158Q544.08124,656.59283,543.2816,656.9974Q542.49634,657.3847,541.91296,658.08514L541.8279,658.18774Q541.6228,658.3641,541.3382,658.3586Q541.07056,658.3672,540.8655,658.1965Q540.62634,657.9973,540.5807,657.67Q540.5522,657.3569,540.75134,657.1178Q540.9505,656.87866,541.28076,656.86426Q541.59375,656.8356,541.833,657.0348L544.1945,654.1992Q543.2037,653.3741,541.9883,653.2008Q540.7728,653.0277,539.64575,653.47766L538.34753,652.39655 Z"/>
</g>
<g style="fill:rgb(38,120,95); fill-opacity:1.0; stroke-linejoin: miter">
<path d="M488.1927,728.7497C487.31122,730.73474,486.96738,733.185,487.27914,735.3209C487.59183,737.3889,488.21417,738.90497,489.4466,740.6792C490.29053,741.9091,490.53595,742.12445,492.34225,743.36835C494.10104,744.57965,494.46344,744.7587,495.78577,745.0911C498.6515,745.83777,501.44803,745.6098,503.94003,744.47864C508.65842,742.3329,511.53452,737.1135,510.79636,732.06805C509.92786,726.16766,505.1324,721.86896,499.2733,721.7706C494.5814,721.6891,490.07523,724.5356,488.1927,728.7497 Z"/>
</g>
<g style="fill:rgb(18,91,69); fill-opacity:1.0; stroke-linejoin: miter">
<path d="M490.2726,729.3938L491.7031,730.38214Q491.36792,731.917,491.91925,733.4021Q492.47034,734.8868,493.8371,735.83105Q494.71243,736.4359,495.73828,736.6401Q496.7432,736.8295,497.71796,736.6513Q498.69278,736.47327,499.58005,735.9191Q500.4528,735.38666,501.05762,734.51117L501.1462,734.38324Q501.36588,734.1565,501.67624,734.11847Q501.98624,734.0804,502.26382,734.27216Q502.56274,734.47864,502.62872,734.8398Q502.6947,735.2007,502.48825,735.4997Q502.28165,735.79846,501.92062,735.8645Q501.55963,735.9306,501.26056,735.724L498.8119,739.2683Q499.49506,739.7403,500.26163,739.95465Q500.9924,740.17566,501.77698,740.1814Q502.52536,740.1939,503.27042,739.98315Q503.99402,739.7575,504.64197,739.322L506.26468,740.44324L508.7432,736.85626L506.92822,735.6022Q507.08105,734.1938,506.50552,732.88116Q505.95108,731.5835,504.71283,730.72784Q503.83725,730.12305,502.81125,729.91864Q501.80658,729.7292,500.8317,729.9074Q499.8569,730.0856,498.96957,730.6396Q498.097,731.17224,497.4921,732.0476L497.40366,732.1758Q497.18378,732.4024,496.8523,732.4258Q496.54214,732.4638,496.28598,732.2868Q495.98715,732.08026,495.89954,731.7044Q495.83356,731.34344,496.04013,731.04443Q496.2466,730.74554,496.6289,730.6943Q496.99002,730.6283,497.2891,730.83484L499.73804,727.29065Q498.49966,726.43494,497.0683,726.36066Q495.63684,726.2865,494.3736,726.92786L492.75092,725.80664 Z"/>
</g>
<g style="fill:rgb(42,175,134); fill-opacity:1.0; stroke-linejoin: miter">
<path d="M490.24414,729.81793L491.67474,730.80646Q491.33972,732.3414,491.89096,733.8263Q492.44226,735.31116,493.80878,736.25543Q494.68402,736.8601,495.7103,737.0645Q496.71475,737.2538,497.68954,737.0756Q498.66434,736.8974,499.55164,736.3435Q500.42468,735.811,501.0295,734.9355L501.11816,734.8075Q501.33768,734.5808,501.64792,734.54266Q501.95804,734.5047,502.23572,734.69653Q502.53442,734.90295,502.6004,735.26404Q502.6664,735.62506,502.46002,735.92395Q502.25354,736.2229,501.89233,736.2888Q501.5313,736.3549,501.23257,736.1484L498.78357,739.6926Q499.46674,740.1647,500.23355,740.379Q500.96414,740.5999,501.74857,740.6058Q502.49704,740.61816,503.24194,740.4074Q503.96558,740.1819,504.6137,739.7462L506.2363,740.86743L508.71478,737.2805L506.8998,736.02655Q507.05298,734.6181,506.4771,733.3055Q505.92276,732.00775,504.6846,731.1522Q503.80914,730.54736,502.78305,730.3432Q501.77847,730.15356,500.80356,730.3317Q499.8288,730.50995,498.94138,731.06384Q498.0688,731.5966,497.4638,732.472L497.37537,732.60016Q497.15558,732.8268,496.82397,732.85004Q496.5137,732.88806,496.2575,732.71094Q495.95856,732.5045,495.87106,732.1286Q495.80527,731.7677,496.01184,731.4688Q496.2184,731.1698,496.6008,731.1187Q496.9619,731.05255,497.26074,731.2591L499.70972,727.71497Q498.47122,726.8593,497.04,726.78503Q495.60852,726.71075,494.3454,727.3522L492.7225,726.23096 Z"/>
</g>
<g style="fill:rgb(38,120,95); fill-opacity:1.0; stroke-linejoin: miter">
<path d="M452.48868,759.45074C452.54562,759.5358,461.3448,765.61865,472.06763,772.97894L491.55142,786.37225L518.60315,747.19006L545.63885,707.9965L526.00806,694.479L506.37744,680.96124L479.40546,720.12836C464.5681,741.67474,452.45898,759.35986,452.48868,759.45074 Z M505.8064,700.5484C507.9135,701.4902,509.91312,701.4774,511.99588,700.50433C512.7527,700.14526,513.42017,699.6793,513.8782,699.1843C514.2499,698.74445,514.66724,698.40814,514.7777,698.4148C515.20667,698.4313,526.3254,706.08844,526.3533,706.3846C526.3503,706.5219,526.16833,707.0213,525.93933,707.4888C525.3721,708.5804,525.1749,710.7834,525.5084,712.0786C525.8752,713.3961,526.67505,714.75726,527.5989,715.60144L528.3551,716.28424L510.8152,741.7581L493.28427,767.21497L492.1076,766.70514C491.46643,766.42505,490.59317,766.1478,490.17062,766.0894C488.19022,765.8367,485.54938,766.68115,484.30725,767.979C484.02286,768.2917,483.64185,768.6772,483.46454,768.8335L483.1531,769.15137L477.34268,765.1498C470.8408,760.6727,471.40338,761.2686,472.1619,759.7297C472.6964,758.61725,472.8511,757.08057,472.5778,755.5956C472.2842,754.00397,471.1807,752.1101,470.12878,751.3848L469.67365,751.0714L487.22516,725.5827L504.77744,700.09454L505.8064,700.5484 Z"/>
</g>
<g style="fill:rgb(42,175,134); fill-opacity:1.0; stroke-linejoin: miter">
<path d="M489.18542,726.9848C491.40436,723.76154,495.27158,721.7016,499.2733,721.7706C505.1324,721.86896,509.92786,726.16766,510.79636,732.06805C511.22433,734.99615,510.4367,737.98315,508.77637,740.39307C507.57602,742.13605,505.91995,743.578,503.94003,744.47864C501.44803,745.6098,498.6515,745.83777,495.78577,745.0911C494.46344,744.7587,494.10104,744.57965,492.34225,743.36835C490.53595,742.12445,490.29053,741.9091,489.4466,740.6792C488.21417,738.90497,487.59183,737.3889,487.27914,735.3209C486.96738,733.185,487.31122,730.73474,488.1927,728.7497C488.4696,728.13007,488.80377,727.5404,489.18542,726.9848 Z M469.67365,751.0714L470.12878,751.3848C471.1807,752.1101,472.2842,754.00397,472.5778,755.5956C472.8511,757.08057,472.6964,758.61725,472.1619,759.7297C471.40338,761.2686,470.8408,760.6727,477.34268,765.1498L483.1531,769.15137L483.46454,768.8335C483.64185,768.6772,484.02286,768.2917,484.30725,767.979C485.54938,766.68115,488.19022,765.8367,490.17062,766.0894C490.59317,766.1478,491.46643,766.42505,492.1076,766.70514L493.28427,767.21497L528.3551,716.28424L527.5989,715.60144C526.67505,714.75726,525.8752,713.3961,525.5084,712.0786C525.1749,710.7834,525.3721,708.5804,525.93933,707.4888C526.16833,707.0213,526.3503,706.5219,526.3533,706.3846C526.3254,706.08844,515.20667,698.4313,514.7777,698.4148C514.66724,698.40814,514.2499,698.74445,513.8782,699.1843C513.42017,699.6793,512.7527,700.14526,511.99588,700.50433C509.91312,701.4774,507.9135,701.4902,505.8064,700.5484L504.77744,700.09454 Z"/>
</g>
<g style="fill:rgb(253,217,8); fill-opacity:1.0; stroke-linejoin: miter">
<path d="M357.847,797.44995L357.14743,795.16644Q355.64536,788.03125,359.27347,782.0258Q362.9386,776.0097,370.27972,774.0819Q377.41483,772.57996,383.42038,776.2079Q385.3502,777.3851,386.93857,779.0356L388.41443,780.79236Q389.79123,782.66125,390.66434,784.9311Q393.14844,791.97095,390.28427,798.3673Q387.42053,804.7635,380.5149,807.5993Q373.47513,810.083,367.07883,807.2193Q360.68262,804.3553,357.847,797.44995 Z"/>
</g>
<g style="fill:rgb(238,170,1); fill-opacity:1.0; stroke-linejoin: miter">
<path d="M360.39975,796.42883L359.80984,794.5024Q358.543,788.4841,361.60315,783.4184Q364.6945,778.3439,370.887,776.7179Q376.9053,775.451,381.9709,778.5114Q383.59845,779.5044,384.93826,780.8965L386.18326,782.3782Q387.3445,783.95447,388.0812,785.8692Q390.17645,791.8074,387.76056,797.20245Q385.34515,802.5979,379.51993,804.9898Q373.58203,807.0847,368.18698,804.6692Q362.79187,802.2534,360.39975,796.42883 Z"/>
</g>
<g style="fill:rgb(255,183,13); fill-opacity:1.0; stroke-linejoin: miter">
<path d="M360.7361,796.29456L360.1606,794.4152Q358.92474,788.5439,361.91006,783.602Q364.92593,778.65155,370.967,777.06525Q376.8383,775.8293,381.78018,778.81494Q383.36804,779.78375,384.6749,781.14166L385.88956,782.5873Q387.0225,784.12494,387.74075,785.9928Q389.7849,791.786,387.42828,797.0492Q385.07184,802.3127,379.38907,804.64636Q373.5963,806.6899,368.333,804.3335Q363.06973,801.97675,360.7361,796.29456 Z"/>
</g>
<g style="fill:rgb(238,170,1); fill-opacity:1.0; stroke-linejoin: miter">
<path d="M370.24884,784.1243L370.76096,785.52277Q369.76773,786.431,369.41934,787.7423Q369.07086,789.0535,369.56012,790.3896Q369.8735,791.24536,370.49014,791.8954Q371.09946,792.5247,371.86935,792.8819Q372.6394,793.2392,373.53424,793.2904Q374.408,793.3493,375.26376,793.0359L375.38904,792.99Q375.65488,792.94,375.89078,793.06683Q376.1265,793.1935,376.2258,793.46484Q376.33286,793.757,376.2006,794.04236Q376.06815,794.32745,375.7758,794.4345Q375.48364,794.54156,375.19858,794.40924Q374.91333,794.2768,374.80624,793.9847L371.3412,795.2536Q371.58572,795.9214,372.0159,796.4503Q372.41788,796.9661,372.96393,797.3578Q373.48138,797.73663,374.1066,797.95734Q374.72455,798.1574,375.3931,798.17303L375.97406,799.7594L379.48083,798.47546L378.83115,796.7012Q379.6346,795.79156,379.88058,794.5887Q380.13422,793.4068,379.69095,792.1961Q379.3776,791.34015,378.7609,790.6902Q378.1517,790.0609,377.38162,789.7036Q376.61157,789.3464,375.71698,789.2952Q374.84335,789.2364,373.98734,789.5496L373.86212,789.59564Q373.59622,789.6455,373.35294,789.498Q373.11685,789.3712,373.02524,789.1208Q372.91818,788.8284,373.043,788.5225Q373.17526,788.23724,373.46753,788.13025Q373.75974,788.0233,374.0526,788.1764Q374.3378,788.3088,374.44492,788.6011L377.91016,787.3324Q377.46683,786.1215,376.50204,785.36206Q375.53754,784.60254,374.33682,784.42664L373.7559,782.84015 Z"/>
</g>
<g style="fill:rgb(253,217,8); fill-opacity:1.0; stroke-linejoin: miter">
<path d="M370.01938,784.4071L370.53152,785.80566Q369.53818,786.71387,369.18997,788.02515Q368.84134,789.3364,369.33047,790.6723Q369.64392,791.5284,370.26083,792.17847Q370.86984,792.8076,371.6399,793.1648Q372.40994,793.5219,373.30463,793.5731Q374.17828,793.63196,375.03433,793.3186L375.15964,793.273Q375.42532,793.22284,375.66104,793.3496Q375.8969,793.4764,375.99625,793.74774Q376.10336,794.04,375.97098,794.3252Q375.8386,794.6105,375.5464,794.7174Q375.254,794.82434,374.9691,794.692Q374.6839,794.5597,374.5768,794.26746L371.11148,795.5362Q371.35602,796.20416,371.78656,796.73315Q372.1884,797.2488,372.73438,797.64075Q373.2519,798.0195,373.8772,798.24023Q374.49487,798.4402,375.16345,798.4558L375.7444,800.0423L379.2515,798.75836L378.60175,796.984Q379.40503,796.0743,379.65106,794.8716Q379.90488,793.6897,379.46164,792.47894Q379.14822,791.6231,378.53122,790.97296Q377.92227,790.34375,377.15213,789.98645Q376.38205,789.629,375.4874,789.57806Q374.61377,789.5193,373.75778,789.8326L373.63272,789.8786Q373.36676,789.92847,373.12332,789.7808Q372.8875,789.6541,372.79578,789.40356Q372.6887,789.1113,372.81345,788.80524Q372.94577,788.52014,373.238,788.413Q373.53024,788.3061,373.82303,788.45935Q374.10828,788.59155,374.21524,788.88385L377.68057,787.61523Q377.23724,786.4044,376.27252,785.6448Q375.308,784.8853,374.10727,784.7094L373.5262,783.1229 Z"/>
</g>
<g style="fill:rgb(38,120,95); fill-opacity:1.0; stroke-linejoin: miter">
<path d="M291.8425,824.0216C290.08426,825.29675,288.55795,827.2441,287.75638,829.2481C286.98975,831.19385,286.76785,832.8176,286.94437,834.97064C287.0574,836.4579,287.1618,836.7673,288.1005,838.7492C289.01468,840.6794,289.23828,841.01605,290.21567,841.9669C292.3202,844.05,294.85373,845.2554,297.57706,845.52686C302.7351,846.037,307.8408,842.9644,309.73257,838.2293C311.94064,832.6893,309.9481,826.56525,304.92838,823.5415C300.91037,821.1177,295.5846,821.3202,291.8425,824.0216 Z"/>
</g>
<g style="fill:rgb(18,91,69); fill-opacity:1.0; stroke-linejoin: miter">
<path d="M293.31866,825.6218L294.06058,827.19434Q293.00076,828.3541,292.73294,829.9154Q292.46515,831.4763,293.17398,832.97864Q293.62772,833.9409,294.41287,834.632Q295.18723,835.2999,296.1198,835.6347Q297.05252,835.9695,298.098,835.93524Q299.12012,835.9123,300.0823,835.4584L300.22318,835.3921Q300.52695,835.306,300.81442,835.42865Q301.1019,835.55133,301.24576,835.8565Q301.40073,836.185,301.2768,836.53064Q301.1529,836.8758,300.8242,837.0309Q300.4958,837.1859,300.15033,837.06195Q299.80478,836.93805,299.6498,836.6094L295.75385,838.44727Q296.10803,839.19824,296.6638,839.76825Q297.18503,840.32574,297.86096,840.7243Q298.5021,841.11053,299.25232,841.302Q299.9914,841.46954,300.77042,841.4179L301.6119,843.2018L305.55502,841.34174L304.6138,839.34656Q305.45248,838.20496,305.61295,836.7806Q305.7841,835.37994,305.14188,834.0185Q304.68784,833.0562,303.90274,832.3649Q303.12857,831.6971,302.19583,831.3623Q301.26328,831.02747,300.21762,831.0617Q299.1957,831.08484,298.23343,831.53876L298.09268,831.6053Q297.78873,831.69104,297.49026,831.54504Q297.203,831.4224,297.07016,831.14075Q296.91498,830.8121,297.02774,830.443Q297.1517,830.0976,297.48047,829.94257Q297.80893,829.78766,298.1653,829.935Q298.5109,830.05914,298.666,830.3878L302.5621,828.5499Q301.91995,827.18854,300.7188,826.40643Q299.5177,825.6243,298.10324,825.5456L297.2617,823.7617 Z"/>
</g>
<g style="fill:rgb(42,175,134); fill-opacity:1.0; stroke-linejoin: miter">
<path d="M293.0814,825.9747L293.8231,827.5473Q292.7637,828.70715,292.4958,830.26825Q292.2279,831.8293,292.93655,833.33154Q293.39044,834.2937,294.1757,834.98517Q294.94983,835.6528,295.88248,835.9876Q296.81516,836.3223,297.86057,836.2881Q298.8829,836.2653,299.84512,835.81116L299.9861,835.74506Q300.2898,835.659,300.5773,835.78156Q300.86465,835.90424,301.00864,836.2094Q301.16354,836.538,301.03952,836.8834Q300.91553,837.2287,300.58707,837.38385Q300.2585,837.5389,299.91293,837.4148Q299.56754,837.29095,299.41263,836.9624L295.51645,838.8002Q295.8707,839.55115,296.42667,840.1212Q296.94794,840.6787,297.62332,841.0772Q298.2648,841.4634,299.01492,841.6547Q299.75406,841.82245,300.53323,841.77075L301.37454,843.5545L305.31775,841.6946L304.37637,839.69934Q305.21542,838.55786,305.37564,837.13336Q305.5469,835.7327,304.9047,834.3715Q304.4506,833.40924,303.6654,832.7179Q302.89136,832.0502,301.95853,831.71515Q301.0259,831.38043,299.9804,831.4146Q298.9585,831.4378,297.996,831.8916L297.85526,831.9581Q297.55142,832.04395,297.2529,831.89777Q296.96555,831.7751,296.83264,831.4934Q296.67764,831.16486,296.7904,830.7958Q296.9145,830.45044,297.24307,830.2955Q297.57175,830.1405,297.92813,830.2881Q298.2737,830.4119,298.42865,830.74054L302.3249,828.9029Q301.68253,827.54144,300.4816,826.7593Q299.28043,825.9772,297.8661,825.89856L297.0244,824.11456 Z"/>
</g>
<g style="fill:rgb(38,120,95); fill-opacity:1.0; stroke-linejoin: miter">
<path d="M245.55775,832.6735C245.56439,832.7757,250.12569,842.4511,255.71068,854.1962L265.84906,875.55493L308.90228,855.22687L351.94824,834.88043L341.74493,813.3403L331.5418,791.8L288.5643,812.1559C264.92242,823.3541,245.57753,832.58,245.55775,832.6735 Z M321.224,808.4587C322.5745,810.33026,324.31088,811.322,326.60074,811.5247C327.43552,811.5939,328.2466,811.5255,328.89108,811.32697C329.43338,811.13293,329.96304,811.05115,330.05533,811.11237C330.41812,811.3419,336.19684,823.5428,336.07233,823.8131C336.00092,823.9303,335.59302,824.27124,335.16043,824.56055C334.12213,825.22046,332.8467,827.0274,332.4856,828.31525C332.14215,829.6389,332.1515,831.2177,332.52716,832.4112L332.83908,833.3812L304.88925,846.62146L276.95587,859.8512L276.19354,858.81995C275.7794,858.2561,275.16296,857.5783,274.82678,857.3159C273.2403,856.104,270.53198,855.51,268.80664,856.00977C268.40375,856.1376,267.88092,856.2799,267.64917,856.3263L267.2204,856.4452L264.20062,850.0693C260.8213,842.9353,261.00906,843.733,262.43698,842.78204C263.45728,842.08765,264.36182,840.8359,264.87006,839.4142C265.41437,837.89,265.40955,835.69806,264.86322,834.5432L264.62674,834.04395L292.5937,820.7965L320.56155,807.54987L321.224,808.4587 Z"/>
</g>
<g style="fill:rgb(42,175,134); fill-opacity:1.0; stroke-linejoin: miter">
<path d="M293.58646,822.9928C297.12265,821.3171,301.50125,821.47473,304.92838,823.5415C309.9481,826.56525,311.94064,832.6893,309.73257,838.2293C308.63446,840.9771,306.45505,843.16595,303.81,844.41797C301.8973,845.3238,299.74158,845.74066,297.57706,845.52686C294.85373,845.2554,292.3202,844.05,290.21567,841.9669C289.23828,841.01605,289.01468,840.6794,288.1005,838.7492C287.1618,836.7673,287.0574,836.4579,286.94437,834.97064C286.76785,832.8176,286.98975,831.19385,287.75638,829.2481C288.55795,827.2441,290.08426,825.29675,291.8425,824.0216C292.39273,823.6245,292.97757,823.2819,293.58646,822.9928 Z M264.62674,834.04395L264.86322,834.5432C265.40955,835.69806,265.41437,837.89,264.87006,839.4142C264.36182,840.8359,263.45728,842.08765,262.43698,842.78204C261.00906,843.733,260.8213,842.9353,264.20062,850.0693L267.2204,856.4452L267.64917,856.3263C267.88092,856.2799,268.40375,856.1376,268.80664,856.00977C270.53198,855.51,273.2403,856.104,274.82678,857.3159C275.16296,857.5783,275.7794,858.2561,276.19354,858.81995L276.95587,859.8512L332.83908,833.3812L332.52716,832.4112C332.1515,831.2177,332.14215,829.6389,332.4856,828.31525C332.8467,827.0274,334.12213,825.22046,335.16043,824.56055C335.59302,824.27124,336.00092,823.9303,336.07233,823.8131C336.19684,823.5428,330.41812,811.3419,330.05533,811.11237C329.96304,811.05115,329.43338,811.13293,328.89108,811.32697C328.2466,811.5255,327.43552,811.5939,326.60074,811.5247C324.31088,811.322,322.5745,810.33026,321.224,808.4587L320.56155,807.54987 Z"/>
</g>
</g>
</svg>