<?xml version="1.0" encoding="utf-8"?>
<svg xmlns="http://www.w3.org/2000/svg" xmlns:xlink="http://www.w3.org/1999/xlink" version= "1.1" width="1618px" height="1000px" viewBox="-350 195 1618 1000">
<g id="layer1">
<g style="fill:rgb(37,140,197); fill-opacity:1.0; stroke-linejoin: miter">
<path d="M-356.1041,179.04456L458.8984,179.04506L1273.9009,179.04556L1273.9009,1204.4341Q458.8984,1204.4346,-356.1041,1204.435Q-356.1041,691.7398,-356.1041,179.04456"/>
</g>
<g style="fill:rgb(0,0,0); fill-opacity:0.1254902; stroke-linejoin: miter">
<path d="M952.7175,1096.6294L948.25525,1099.5593Q916.5305,1108.414,762.60266,1113.7228Q607.60974,1119.0272,397.573,1118.0247Q197.12032,1116.6233,76.93792,1109.8239Q38.430157,1107.626,13.5006485,1105.034L-7.4519176,1102.3695Q-24.718742,1099.6191,-24.912872,1096.6294Q-19.671158,1087.4539,118.25777,1081.3611Q256.1867,1075.2684,463.9023,1075.0369Q671.6179,1075.2684,809.5469,1081.3611Q947.4758,1087.4539,952.7175,1096.6294"/>
</g>
<g style="fill:rgb(47,134,148); fill-opacity:1.0; stroke-linejoin: miter">
<path d="M140.58385,1099.7947C142.38025,1100.5099,144.33992,1100.9031,146.3916,1100.9031L146.39192,1100.904L146.39348,1100.9031C146.39398,1100.9031,146.39449,1100.9031,146.39499,1100.9031L150.80269,1100.9021L146.39293,1100.9031L146.3919,1100.904C144.34055,1100.9028,142.38133,1100.5095,140.58534,1099.7947 Z"/>
</g>
<g style="fill:rgb(47,134,148); fill-opacity:1.0; stroke-linejoin: miter">
<path d="M319.9529,817.71625L192.13098,817.7436L319.9561,817.71625 Z"/>
</g>
<g style="fill:rgb(83,93,102); fill-opacity:1.0; stroke-linejoin: miter">
<path d="M372.80243,597.31445L544.0154,597.3151L715.2284,597.3158Q715.2284,821.7037,715.2284,1046.0917Q544.0154,1046.0923,372.80243,1046.0928Q372.80243,821.70355,372.80243,597.31445"/>
</g>
<g style="fill:rgb(60,70,79); fill-opacity:0.99607843; stroke-linejoin: miter">
<path d="M393.44513,565.7192L548.26526,565.7197L703.08545,565.7204Q703.08545,833.759,703.0856,1101.7977Q548.26526,1101.7983,393.44513,1101.7987Q393.44513,833.759,393.44513,565.7192"/>
</g>
<g style="fill:rgb(146,159,168); fill-opacity:1.0; stroke-linejoin: miter">
<path d="M445.5683,600.2781L548.0762,600.2786L650.584,600.2793Q650.5841,686.77997,650.5842,773.2806Q548.0762,773.28125,445.5683,773.28174Q445.5683,686.77997,445.5683,600.2781"/>
</g>
<g style="fill:rgb(145,212,255); fill-opacity:1.0; stroke-linejoin: miter">
<path d="M457.62866,610.6913L547.95996,610.5538L638.29126,610.41675Q638.4076,686.6425,638.52405,762.8679Q548.1925,763.00616,457.86115,763.1444Q457.7449,686.9177,457.62866,610.6913"/>
</g>
<g>
<g style="fill:rgb(255,255,255); fill-opacity:0.99607843; stroke-linejoin: miter">
<path d="M466.85223,808.6496L488.90808,808.6497L510.96402,808.64984Q510.96402,825.3666,510.96402,842.0832Q488.90808,842.0834,466.85223,842.0835Q466.85223,825.3666,466.85223,808.6496"/>
</g>
<g style="fill:rgb(255,255,255); fill-opacity:0.99607843; stroke-linejoin: miter">
<path d="M527.50586,808.6496L571.61755,808.64984L571.61755,842.0832L527.50586,842.0835L527.50586,808.6496"/>
</g>
<g style="fill:rgb(255,255,255); fill-opacity:0.99607843; stroke-linejoin: miter">
<path d="M588.1594,808.6496L610.21533,808.6497L632.2711,808.64984Q632.2711,825.3666,632.2711,842.0832Q610.21533,842.0834,588.1594,842.0835Q588.1594,825.3666,588.1594,808.6496"/>
</g>
</g>
<g>
<g style="fill:rgb(255,255,255); fill-opacity:0.99607843; stroke-linejoin: miter">
<path d="M466.85223,848.41284L488.90808,848.41296L510.96402,848.41327Q510.96402,865.1298,510.96402,881.84644Q488.90808,881.8466,466.85223,881.84674Q466.85223,865.1298,466.85223,848.41284"/>
</g>
<g style="fill:rgb(255,255,255); fill-opacity:0.99607843; stroke-linejoin: miter">
<path d="M527.50586,848.41284L571.61755,848.41327L571.61755,881.84644L527.50586,881.84674L527.50586,848.41284"/>
</g>
<g style="fill:rgb(255,255,255); fill-opacity:0.99607843; stroke-linejoin: miter">
<path d="M588.1594,848.41284L610.21533,848.41296L632.2711,848.41327Q632.2711,865.1298,632.2711,881.84644Q610.21533,881.8466,588.1594,881.84674Q588.1594,865.1298,588.1594,848.41284"/>
</g>
</g>
<g>
<g style="fill:rgb(255,255,255); fill-opacity:0.99607843; stroke-linejoin: miter">
<path d="M466.85223,888.1761L488.90808,888.17633L510.96402,888.1765Q510.96408,904.8932,510.96408,921.6098Q488.90814,921.6099,466.85226,921.61017Q466.85226,904.8932,466.85223,888.1761"/>
</g>
<g style="fill:rgb(255,255,255); fill-opacity:0.99607843; stroke-linejoin: miter">
<path d="M527.50586,888.1761L571.61755,888.1765L571.6177,921.6098L527.506,921.61017L527.50586,888.1761"/>
</g>
<g style="fill:rgb(255,255,255); fill-opacity:0.99607843; stroke-linejoin: miter">
<path d="M588.1594,888.1761L610.21533,888.17633L632.2711,888.1765Q632.27124,904.8932,632.27124,921.6098Q610.21533,921.6099,588.15955,921.61017Q588.15955,904.8932,588.1594,888.1761"/>
</g>
</g>
<g>
<g style="fill:rgb(255,255,255); fill-opacity:0.99607843; stroke-linejoin: miter">
<path d="M466.85226,927.93945L488.90814,927.93976L510.96408,927.9399Q510.96408,944.6565,510.96408,961.3732Q488.90814,961.37335,466.85226,961.3735Q466.85226,944.6565,466.85226,927.93945"/>
</g>
<g style="fill:rgb(255,255,255); fill-opacity:0.99607843; stroke-linejoin: miter">
<path d="M527.506,927.93945L571.6177,927.9399L571.6177,961.3732L527.506,961.3735L527.506,927.93945"/>
</g>
<g style="fill:rgb(255,255,255); fill-opacity:0.99607843; stroke-linejoin: miter">
<path d="M588.15955,927.93945L610.21533,927.93976L632.27124,927.9399Q632.27124,944.6565,632.27124,961.3732Q610.21533,961.37335,588.15955,961.3735Q588.15955,944.6565,588.15955,927.93945"/>
</g>
</g>
<g style="fill:rgb(249,255,0); fill-opacity:1.0; stroke-linejoin: miter">
<path d="M466.85226,967.7029L488.90814,967.7031L510.96408,967.70325Q510.96402,984.41986,510.96402,1001.1365Q488.90808,1001.1366,466.8522,1001.13684Q466.8522,984.41986,466.85226,967.7029"/>
</g>
<g style="fill:rgb(255,0,0); fill-opacity:1.0; stroke-linejoin: miter">
<path d="M527.506,967.7029L571.6177,967.70325L571.61755,1001.1365L527.50586,1001.13684L527.506,967.7029"/>
</g>
<g style="fill:rgb(0,255,78); fill-opacity:1.0; stroke-linejoin: miter">
<path d="M588.15955,967.7029L610.21533,967.7031L632.27124,967.70325Q632.2711,984.41986,632.2711,1001.1365Q610.21533,1001.1366,588.1594,1001.13684Q588.1594,984.41986,588.15955,967.7029"/>
</g>
<g style="fill:rgb(125,139,150); fill-opacity:0.99607843; stroke-linejoin: miter">
<path d="M444.0574,1052.3916L552.9457,1052.3922L661.8341,1052.3928Q661.834,1067.168,661.834,1081.9432Q552.9457,1081.9438,444.0574,1081.9443Q444.0574,1067.168,444.0574,1052.3916"/>
</g>
<g style="fill:rgb(83,93,102); fill-opacity:0.99607843; stroke-linejoin: miter">
<path d="M457.29416,1058.0084L553.9458,1058.0088L650.5974,1058.0089Q650.5974,1067.1962,650.5974,1076.3834Q553.9458,1076.3838,457.29416,1076.384Q457.29416,1067.1964,457.29416,1058.0084"/>
</g>
<g style="fill:rgb(83,93,102); fill-opacity:0.99607843; stroke-linejoin: miter">
<path d="M429.25464,553.2916L549.3069,553.2922L669.35913,553.29285Q669.35913,566.6416,669.35913,579.9902Q549.3069,579.99084,429.25464,579.9914Q429.25464,566.6416,429.25464,553.2916"/>
</g>
<g style="fill:rgb(255,255,255); fill-opacity:0.99607843; stroke-linejoin: miter">
<path d="M458.07236,330.71674L548.6156,330.71716L639.15894,330.71765Q639.15894,453.82202,639.15906,576.92645Q548.61584,576.92694,458.07248,576.9275Q458.07242,453.82208,458.07236,330.71674"/>
</g>
<g style="fill:rgb(83,93,102); fill-opacity:0.22352941; stroke-linejoin: miter">
<path d="M481.3414,369.15836L615.9193,369.15967L615.9193,379.5434L481.3414,379.54465L481.3414,369.15836 Z"/>
</g>
<g style="fill:rgb(83,93,102); fill-opacity:0.22352941; stroke-linejoin: miter">
<path d="M481.3414,403.77292L548.6304,403.7736L615.9193,403.77423Q615.9193,408.9661,615.9193,414.15793Q548.6304,414.1586,481.3414,414.15918Q481.3414,408.9661,481.3414,403.77292"/>
</g>
<g style="fill:rgb(83,93,102); fill-opacity:0.22352941; stroke-linejoin: miter">
<path d="M481.3414,438.3875L615.9193,438.38876L615.9193,448.77246L481.3414,448.77377L481.3414,438.3875"/>
</g>
<g style="fill:rgb(83,93,102); fill-opacity:0.22352941; stroke-linejoin: miter">
<path d="M481.3414,473.00204L548.6304,473.00272L615.9193,473.00336Q615.9193,478.1952,615.9193,483.38702Q548.6304,483.38763,481.3414,483.38837Q481.3414,478.1952,481.3414,473.00204"/>
</g>
<g style="fill:rgb(83,93,102); fill-opacity:0.22352941; stroke-linejoin: miter">
<path d="M481.3414,507.61664L615.9192,507.61786L615.9193,518.00165L481.34146,518.00305L481.3414,507.61664"/>
</g>
<g style="fill:rgb(83,93,102); fill-opacity:0.22352941; stroke-linejoin: miter">
<path d="M481.34146,542.23126L548.6304,542.23193L615.9193,542.2324Q615.9193,547.4244,615.9193,552.61615Q548.6304,552.61694,481.34146,552.6176Q481.34146,547.4244,481.34146,542.23126"/>
</g>
<g style="fill:rgb(16,255,127); fill-opacity:0.99607843; stroke-linejoin: miter">
<path d="M532.0735,1056.7682L532.0735,1056.7686L532.0736,1056.769L532.0735,1056.7682"/>
</g>
<g style="fill:rgb(80,124,92); fill-opacity:0.49803922; stroke-linejoin: miter">
<path d="M595.72705,690.3208C595.72705,716.40576,574.58093,737.5519,548.49585,737.5519C522.41077,737.5519,501.26468,716.4059,501.26468,690.3208C501.26468,664.2358,522.41077,643.08954,548.49585,643.08954C574.5808,643.08954,595.72705,664.23566,595.72705,690.3208 Z"/>
</g>
<g style="fill:rgb(16,255,127); fill-opacity:1.0; stroke-linejoin: miter">
<path d="M548.49585,706.4365C547.0737,706.4365,545.69385,705.9218,544.6162,704.9782L529.06934,691.3667C526.6222,689.2242,526.3749,685.50275,528.51697,683.05554C530.66077,680.6076,534.381,680.36096,536.8281,682.50354L547.7853,692.0964L562.97473,673.46185C565.03015,670.9398,568.73987,670.5628,571.2611,672.6174C573.782,674.6729,574.16016,678.38306,572.1051,680.90436L553.0613,704.2679C552.05176,705.5071,550.58203,706.2819,548.98975,706.4161C548.82434,706.4305,548.65967,706.4365,548.49585,706.4365 Z"/>
</g>
<g style="fill:rgb(80,124,92); fill-opacity:1.0; stroke-linejoin: miter">
<path d="M548.49585,743.44586C519.2041,743.44586,495.37292,719.6151,495.37292,690.323C495.37292,661.03076,519.2041,637.2,548.49585,637.2C577.7876,637.2,601.61865,661.03064,601.61865,690.3229C601.61865,719.6151,577.7871,743.44586,548.49585,743.44586 Z M548.49585,648.98C525.699,648.98,507.1529,667.5269,507.1529,690.323C507.1529,713.1191,525.699,731.6659,548.49585,731.6659C571.29285,731.6659,589.83875,713.1191,589.83875,690.3229C589.83875,667.5269,571.2927,648.98,548.49585,648.98 Z"/>
</g>
<g style="fill:rgb(98,228,184); fill-opacity:1.0; stroke-linejoin: miter">
<path d="M335.66046,833.4181L335.71924,1085.1562C335.71655,1093.831,328.68848,1100.8625,320.0139,1100.8644L146.39499,1100.9031C137.72002,1100.905,130.68925,1093.8768,130.68733,1085.2014L130.63742,833.4619C130.63051,824.7868,137.65834,817.7551,146.33339,817.7534L319.9529,817.71625C328.6274,817.71454,335.65857,824.7432,335.66046,833.4181"/>
</g>
<g style="fill:rgb(98,185,156); fill-opacity:1.0; stroke-linejoin: miter">
<path d="M192.13098,817.7436L174.05621,817.7475L150.74109,817.7525L150.80269,1100.9021L192.1923,1100.8928L192.13098,817.7436 Z"/>
</g>
<g style="fill:rgb(38,147,110); fill-opacity:1.0; stroke-linejoin: miter">
<path d="M281.9721,876.30725C298.1498,876.30383,311.26404,889.4136,311.26764,905.59216C311.27103,921.77075,298.16245,934.88635,281.98465,934.8898C265.80707,934.89343,252.69217,921.78326,252.68869,905.60474C252.68512,889.4263,265.79443,876.3108,281.9721,876.30725"/>
</g>
<g style="fill:rgb(17,194,134); fill-opacity:1.0; stroke-linejoin: miter">
<path d="M281.96463,842.13403C298.14243,842.1306,311.2567,855.2407,311.26028,871.4192C311.26364,887.5975,298.15497,900.71326,281.97726,900.7165C265.7995,900.7199,252.68466,887.61017,252.68127,871.43176C252.6778,855.253,265.78687,842.1374,281.96463,842.13403"/>
</g>
<g style="fill:rgb(255,243,0); fill-opacity:0.99607843; stroke-linejoin: miter">
<path d="M213.49931,1009.3966L231.03171,1009.3971L248.56412,1009.3976Q248.56412,1041.1521,248.56412,1072.9067Q231.03171,1072.9072,213.49931,1072.9077Q213.49931,1041.1521,213.49931,1009.3966"/>
</g>
<g style="fill:rgb(0,0,0); fill-opacity:0.105882354; stroke-linejoin: miter">
<path d="M372.80243,787.92334Q372.80243,917.00806,372.80243,1046.0928L393.44513,1046.0938Q393.44513,1073.9457,393.44513,1101.7987Q548.26526,1101.7983,703.0856,1101.7977Q703.0856,1073.9447,703.0856,1046.0917L715.2284,1046.0927Q715.2284,917.00793,715.2284,787.9242L567.1326,787.9238L372.80615,787.92334 Z"/>
</g>
</g>
</svg>