<?xml version="1.0" encoding="UTF-8"?>
<svg width="338.67mm" height="225.78mm" version="1.1" viewBox="0 0 1200 799.99997" xmlns="http://www.w3.org/2000/svg">
 <g transform="translate(82.857 -20.934)">
  <rect x="-82.857" y="20.934" width="1200" height="800" fill="#81d4fa" fill-rule="evenodd"/>
  <g transform="matrix(2.815 0 0 2.815 1490.3 -1608.5)">
   <g transform="translate(-624.49 -26.865)" fill-rule="evenodd">
    <path d="m215.28 862.72h127.01c0.68904 0 1.501-0.60452 1.2437-1.2436l-6.2161-15.436c-0.25721-0.63907-2.8857-1.2436-3.5746-1.2436h-109.91c-0.68893 0-3.3172 0.60454-3.5746 1.2436l-6.216 15.436c-0.25733 0.63909 0.55472 1.2436 1.2436 1.2436z" fill="#1a1a1a"/>
    <path d="m268.5 808.47h20.557v39.579c-6.4431 2.6791-13.142 3.0876-20.557 0z" fill="#333"/>
    <path d="m287.15 808.47h1.9127v39.321c-0.37844 0.47028-1.1358 1.0883-1.93 1.0959z" fill="#212121"/>
    <path d="m215.28 862.72h127.01c0.68904 0 1.501-0.12619 1.2437-0.2596l-6.2161-3.2223c-0.25721-0.13342-2.8857-0.25961-3.5746-0.25961h-109.91c-0.68893 0-3.3172 0.12619-3.5746 0.25961l-6.216 3.2223c-0.25733 0.13341 0.55472 0.2596 1.2436 0.2596z" fill="#424242"/>
    <rect transform="scale(1,-1)" x="135.2" y="-825.42" width="287.17" height="177.48" ry="12.307" fill="#fff"/>
   </g>
   <rect x="-484.12" y="610.89" width="276.62" height="164.86" fill="#b2dfdb" fill-rule="evenodd"/>
   <rect x="-459.8" y="612.75" width="228.17" height="162.99" fill="#fff" fill-rule="evenodd"/>
   <rect x="-459.8" y="612.75" width="228.17" height="40.136" fill="#ffca28" fill-rule="evenodd"/>
   <rect x="-459.8" y="757.2" width="228.17" height="18.542" fill="#ffca28" fill-rule="evenodd"/>
   <path d="m-489.34 606.02v177.31h287.25v-177.31h-287.25zm6.7709 9.1634h272.46v158.25h-272.46v-158.25z" fill="#4d4d4d" fill-rule="evenodd"/>
   <path transform="matrix(.59285 -.15477 .15477 .59285 -667.08 293.02)" d="m227.61 756.47-35.983 9.6417-26.342-26.342 9.6417-35.983 35.983-9.6417 26.342 26.342z" fill="#ffca28" fill-rule="evenodd"/>
   <path transform="matrix(.59285 -.15477 .15477 .59285 -624.38 318)" d="m227.61 756.47-35.983 9.6417-26.342-26.342 9.6417-35.983 35.983-9.6417 26.342 26.342z" fill="#ffca28" fill-rule="evenodd"/>
   <path transform="matrix(.59285 -.15477 .15477 .59285 -579.87 292.43)" d="m227.61 756.47-35.983 9.6417-26.342-26.342 9.6417-35.983 35.983-9.6417 26.342 26.342z" fill="#ffca28" fill-rule="evenodd"/>
   <path transform="matrix(.59285 -.15477 .15477 .59285 -535.15 318)" d="m227.61 756.47-35.983 9.6417-26.342-26.342 9.6417-35.983 35.983-9.6417 26.342 26.342z" fill="#ffca28" fill-rule="evenodd"/>
   <path transform="matrix(.59285 -.15477 .15477 .59285 -490.4 293.02)" d="m227.61 756.47-35.983 9.6417-26.342-26.342 9.6417-35.983 35.983-9.6417 26.342 26.342z" fill="#ffca28" fill-rule="evenodd"/>
   <path transform="matrix(.50009 -.13055 .13055 .50009 -630.72 355.88)" d="m227.61 756.47-35.983 9.6417-26.342-26.342 9.6417-35.983 35.983-9.6417 26.342 26.342z" fill="#fff" fill-rule="evenodd"/>
   <path transform="matrix(.50009 -.13055 .13055 .50009 -588.03 380.86)" d="m227.61 756.47-35.983 9.6417-26.342-26.342 9.6417-35.983 35.983-9.6417 26.342 26.342z" fill="#fff" fill-rule="evenodd"/>
   <path transform="matrix(.50009 -.13055 .13055 .50009 -543.52 355.28)" d="m227.61 756.47-35.983 9.6417-26.342-26.342 9.6417-35.983 35.983-9.6417 26.342 26.342z" fill="#fff" fill-rule="evenodd"/>
   <path transform="matrix(.50009 -.13055 .13055 .50009 -498.8 380.86)" d="m227.61 756.47-35.983 9.6417-26.342-26.342 9.6417-35.983 35.983-9.6417 26.342 26.342z" fill="#fff" fill-rule="evenodd"/>
   <path transform="matrix(.50009 -.13055 .13055 .50009 -454.05 355.88)" d="m227.61 756.47-35.983 9.6417-26.342-26.342 9.6417-35.983 35.983-9.6417 26.342 26.342z" fill="#fff" fill-rule="evenodd"/>
   <g transform="translate(-624.96 -27.185)" fill-rule="evenodd">
    <path d="m277.19 707.62c-6.8581-0.0164-13.108 5.8985-13.429 12.76-0.49776 6.3469 3.9941 12.71 10.217 14.204 6.134 1.657 13.206-1.5502 15.839-7.3737 2.8052-5.7721 0.92914-13.443-4.4482-17.05-2.3668-1.6812-5.2763-2.5792-8.178-2.5405z" fill="#fff"/>
    <circle cx="277.43" cy="721.31" r="12.653" fill="#f06292"/>
    <path d="m280.23 733.67c-5.9888 1.1967-12.296-2.0008-14.554-7.6752-2.2581-5.6744-0.14092-12.152 5.0326-15.397 5.1736-3.2454 11.927-2.3323 16.053 2.1704l-9.0808 8.4864z" fill="#d32f2f"/>
    <path d="m279.91 733.72a12.653 12.653 0 0 1 -14.236 -7.7295 12.653 12.653 0 0 1 5.0326 -15.397 12.653 12.653 0 0 1 16.053 2.1704l-9.329 8.5484z" fill="#e53935"/>
    <path d="m273.75 733.43c-5.0408-1.6476-8.7675-6.3568-8.9618-11.656-0.19432-5.2997 2.9368-10.158 7.8434-12.171 4.9066-2.0124 10.548-0.75145 14.13 3.1585l-9.1739 8.5174z" fill="#d84315"/>
    <path d="m273.5 733.34a12.653 12.653 0 0 1 -8.7137 -11.563 12.653 12.653 0 0 1 7.8434 -12.171 12.653 12.653 0 0 1 14.13 3.1585l-9.329 8.5484z" fill="#f4511e"/>
    <path d="m266.54 714.87a12.653 12.653 0 0 1 11.73 -6.1844 12.653 12.653 0 0 1 10.809 7.6814l-11.647 4.944z" fill="#cddc39"/>
    <path d="m266.54 714.87a12.653 12.653 0 0 1 11.73 -6.1844 12.653 12.653 0 0 1 10.809 7.6814l-11.647 4.944z" fill="#cddc39"/>
    <path d="m266.54 714.87a12.653 12.653 0 0 1 11.73 -6.1844 12.653 12.653 0 0 1 10.809 7.6814l-11.647 4.944z" fill="#cddc39"/>
    <path d="m266.54 714.87a12.653 12.653 0 0 1 11.73 -6.1844 12.653 12.653 0 0 1 10.809 7.6814l-11.647 4.944z" fill="#cddc39"/>
    <path d="m266.54 714.87a12.653 12.653 0 0 1 11.73 -6.1844 12.653 12.653 0 0 1 10.809 7.6814l-11.647 4.944z" fill="#cddc39"/>
    <path d="m266.54 714.87a12.653 12.653 0 0 1 11.73 -6.1844 12.653 12.653 0 0 1 10.809 7.6814l-11.647 4.944z" fill="#cddc39"/>
    <path d="m266.54 714.87a12.653 12.653 0 0 1 11.73 -6.1844 12.653 12.653 0 0 1 10.809 7.6814l-11.647 4.944z" fill="#cddc39"/>
    <path d="m266.54 714.87a12.653 12.653 0 0 1 11.73 -6.1844 12.653 12.653 0 0 1 10.809 7.6814l-11.647 4.944z" fill="#cddc39"/>
    <path d="m266.54 714.87a12.653 12.653 0 0 1 11.73 -6.1844 12.653 12.653 0 0 1 10.809 7.6814l-11.647 4.944z" fill="#cddc39"/>
    <path d="m266.12 715.61c2.4302-4.1092 7.3849-7.2374 12.148-6.921 4.7635 0.31639 8.9434 3.2869 10.809 7.6814l-12.117 5.5286z" fill="#e64a19"/>
    <path d="m266.32 715.15c2.4302-4.1092 7.1833-6.7799 11.947-6.4635 4.7635 0.31639 8.9434 3.2869 10.809 7.6814l-11.678 5.0681z" fill="#c0ca33"/>
    <path d="m275.85 708.76c3.5407-0.32222 7.4921 0.81613 10.118 3.2135 2.6254 2.3973 4.1211 5.7886 4.1211 9.3439l-12.807 0.0219z" fill="#afb42b"/>
    <path d="m276.29 708.71c3.5406-0.32222 7.0535 0.85999 9.6789 3.2573 2.6254 2.3973 4.1083 6.2442 4.1083 9.7995l-12.597-0.17056z" fill="#ec407a"/>
    <path d="m276.29 708.71a12.653 12.653 0 0 1 9.6789 3.2573 12.653 12.653 0 0 1 4.1211 9.3439h-12.653z" fill="#cddc39"/>
    <circle cx="277.41" cy="721.31" r="4.956" fill="#fff"/>
   </g>
   <g transform="matrix(.084695 0 0 .04984 -393.88 670.97)" fill="#b3b3b3">
    <path d="m-470.23 457.93v-56.918l46.972-50.897v120.4z"/>
    <path d="m-479.32 457.85v-57.255l-46.972-51.199v121.12z"/>
    <path d="m-427.29 455.36h-95.459l-73.236 74.143 76.267 84.451h95.459l71.216-83.843z"/>
    <path d="m-427.29 455.36h-47.348l2.8571 158.59h47.522l71.216-83.843z"/>
    <circle cx="-500.28" cy="535.92" r="13.89" fill-rule="evenodd"/>
    <circle transform="translate(52.023)" cx="-500.28" cy="535.92" r="13.89" fill-rule="evenodd"/>
    <circle transform="matrix(.7089 0 0 .56364 -117.94 257.6)" cx="-500.28" cy="535.92" r="13.89" fill-rule="evenodd"/>
    <circle transform="matrix(.3 0 0 .3 -355.88 370.73)" cx="-500.28" cy="535.92" r="13.89" fill-rule="evenodd"/>
    <circle transform="matrix(.3 0 0 .3 -303.6 370.98)" cx="-500.28" cy="535.92" r="13.89" fill-rule="evenodd"/>
   </g>
   <path d="m-449 686.28 14.164-8.3338 14.164 8.3338c0.19573 0.11516 0.40991 0.18282 0.40991 0.40991v16.333c0 0.22709-0.18282 0.40991-0.40991 0.40991l-14.164 8.0812-14.164-8.0812c-0.19725-0.11254-0.40991-0.18282-0.40991-0.40991v-16.333c0-0.22709 0.18282-0.40991 0.40991-0.40991z" fill="#ffeb3b" fill-rule="evenodd"/>
   <path d="m-445.24 696.43 6.4346 1.9992 8.6015-6.9284 4.8742 3.2612c0.28974 0.19385 5.0616-5.5724 5.0616-5.3453v13.615c0 0.22709-0.19114 0.39253-0.52359 0.58848l-14.051 8.2815-13.957-8.3416c-0.33124-0.19798-0.61765-0.3012-0.61765-0.52829v-3.6986c0-0.22709 3.8115-3.0163 4.1765-2.9029z" fill="#0cf" fill-rule="evenodd"/>
   <rect transform="matrix(-.75791 .65235 .90064 .43456 0 0)" x="894.05" y="259.59" width="1.1047" height="5.8607" ry=".43501" fill="#fff" fill-rule="evenodd"/>
   <path d="m-445.2 695.68c-0.11844 0.0138-0.23967 0.0539-0.33581 0.11773l-4.702 3.1213v1.2375c0.0605-0.0201 0.11827-0.0467 0.16891-0.0804l5.6194-3.7303c0.19229-0.12768 0.2099-0.29972 0.0392-0.38581l-0.47055-0.23747c-0.0853-0.0431-0.20082-0.0561-0.31923-0.0427z" fill="#fff" fill-rule="evenodd"/>
   <ellipse cx="-438.83" cy="698.36" rx="1.5838" ry=".93199" fill="#fff" fill-rule="evenodd"/>
   <rect transform="matrix(.94196 .33571 -.75711 .65329 0 0)" x="278.12" y="914.46" width="1.2985" height="11.825" ry=".39022" fill="#fff" fill-rule="evenodd"/>
   <rect transform="matrix(-.91132 .41169 .80692 .59066 0 0)" x="932.21" y="520.19" width="1.2876" height="5.2962" ry=".39311" fill="#fff" fill-rule="evenodd"/>
   <path d="m-419.6 687.33c-0.0989 0.0159-0.18515 0.0522-0.23727 0.10894l-5.8647 6.3796c-0.11492 0.12486-0.0234 0.29461 0.20434 0.3805l0.62871 0.23685c0.22801 0.086 0.504 0.0546 0.61877-0.0703l4.3455-4.727 0.30465-2.3086z" fill="#fff" fill-rule="evenodd"/>
   <circle cx="-445.22" cy="696.11" r="1.5625" fill="#fff" fill-rule="evenodd"/>
   <circle cx="-445.22" cy="696.11" r="1.1384" fill="#29b6f6" fill-rule="evenodd"/>
   <circle cx="-438.89" cy="698.62" r="1.5625" fill="#fff" fill-rule="evenodd"/>
   <circle cx="-438.89" cy="698.62" r="1.1384" fill="#29b6f6" fill-rule="evenodd"/>
   <circle cx="-430.19" cy="691.25" r="1.5625" fill="#fff" fill-rule="evenodd"/>
   <circle cx="-430.19" cy="691.25" r="1.1384" fill="#29b6f6" fill-rule="evenodd"/>
   <circle cx="-425.52" cy="694.85" r="1.5625" fill="#fff" fill-rule="evenodd"/>
   <circle cx="-425.52" cy="694.85" r="1.1384" fill="#29b6f6" fill-rule="evenodd"/>
   <g transform="matrix(.14216 0 0 .14216 -450.35 674.73)" fill="#fff" fill-rule="evenodd">
    <rect x="1269.4" y="138.7" width="27.677" height="74.868" ry="4.1161"/>
    <rect x="1308.2" y="108.39" width="27.677" height="105.17" ry="5.7822"/>
    <rect x="1346.9" y="89.571" width="27.677" height="123.99" ry="5.0491"/>
    <rect x="1388.4" y="54.215" width="27.677" height="159.35" ry="4.9726"/>
   </g>
   <rect x="-268.95" y="693.22" width="3.9346" height="10.643" ry=".58515" fill="#3f51b5" fill-rule="evenodd"/>
   <rect x="-263.44" y="688.91" width="3.9346" height="14.952" ry=".822" fill="#3f51b5" fill-rule="evenodd"/>
   <rect x="-257.93" y="686.24" width="3.9346" height="17.627" ry=".71779" fill="#3f51b5" fill-rule="evenodd"/>
   <rect x="-252.05" y="681.21" width="3.9346" height="22.653" ry=".7069" fill="#3f51b5" fill-rule="evenodd"/>
   <circle cx="-306.31" cy="715.41" r="7.3004" fill="#673ab7" fill-opacity=".64246" fill-rule="evenodd"/>
   <circle cx="-304.7" cy="724.24" r="7.3004" fill="#f00" fill-opacity=".6648" fill-rule="evenodd"/>
   <circle cx="-298.13" cy="719.26" r="7.3004" fill="#4fc3f7" fill-opacity=".68156" fill-rule="evenodd"/>
   <g transform="matrix(1.0528 0 0 1.0528 -637.58 -66.497)" fill-rule="evenodd">
    <path d="m239.86 735.52-3.2234 5.583c0.70949 0.78538 2.5965 4.0822 2.9715 5.1785l6.4383-1.2e-4c-0.54014-1.9743-4.8985-9.5827-6.1864-10.761z" fill="#ffc107"/>
    <path d="m239.4 735.29c-1.9783-0.5197-10.749-0.54958-12.413-0.0232l3.2235 5.583c1.0336-0.22181 4.8344-0.20784 5.9703 0.0161l3.2191-5.5757z" fill="#689f38"/>
    <path d="m246.08 746.8-6.4467-1.5e-4c-0.32557 1.0072-2.2369 4.2894-2.999 5.1625l3.2192 5.5756c1.4398-1.4551 5.8495-9.0331 6.2265-10.738z" fill="#03a9f4"/>
    <path d="m226.56 735.55c-1.4396 1.4548-5.8494 9.0334-6.2264 10.738l6.4465 3e-5c0.32535-1.007 2.2368-4.2896 2.9988-5.1629l-3.2189-5.5755z" fill="#f44336"/>
    <path d="m226.8 746.8h-6.4385c0.53994 1.974 4.8988 9.5826 6.1867 10.761l3.2232-5.5828c-0.70939-0.78532-2.5962-4.0818-2.9715-5.1784z" fill="#9c27b0"/>
    <path d="m236.19 752.23c-1.0336 0.22182-4.8342 0.2079-5.9701-0.0161l-3.2193 5.576c1.9784 0.51974 10.749 0.54948 12.413 0.0232l-3.2234-5.5832z" fill="#cddc39"/>
    <circle cx="223.08" cy="740.83" r="1.8432" fill="#fff"/>
    <circle cx="223.08" cy="740.83" r="1.3128" fill="#f44336"/>
    <circle cx="233.17" cy="735.07" r="1.8432" fill="#fff"/>
    <circle cx="233.17" cy="735.07" r="1.3128" fill="#689f38"/>
    <circle cx="243.05" cy="740.5" r="1.8432" fill="#fff"/>
    <circle cx="243.05" cy="740.5" r="1.3128" fill="#ffc107"/>
    <circle cx="243.38" cy="752.45" r="1.8432" fill="#fff"/>
    <circle cx="243.38" cy="752.45" r="1.3128" fill="#03a9f4"/>
    <circle cx="233.17" cy="758.42" r="1.8432" fill="#fff"/>
    <circle cx="233.17" cy="758.42" r="1.3128" fill="#cddc39"/>
    <circle cx="223.07" cy="752.45" r="1.8432" fill="#fff"/>
    <circle cx="223.07" cy="752.45" r="1.3128" fill="#9c27b0"/>
   </g>
   <rect x="-448.42" y="623" width="55" height="23.214" ry="2.8931" fill="#ffa000" fill-rule="evenodd"/>
   <rect x="-385.21" y="623" width="148.21" height="23.214" ry="2.8931" fill="#ffa000" fill-rule="evenodd"/>
   <g transform="matrix(.10331 0 0 .10331 -425.74 734.84)">
    <polygon points="817.47 314.87 852.65 279.68 845 272.02 809.82 307.22" fill="#456fd8"/>
   </g>
   <g transform="matrix(.10331 0 0 .10331 -425.74 734.84)">
    <polygon points="825.12 322.52 860.3 287.33 851.65 278.68 816.47 313.87" fill="#567fe5"/>
   </g>
   <g transform="matrix(.10331 0 0 .10331 -425.74 734.84)">
    <polygon points="832.76 330.18 867.95 294.98 859.3 286.33 824.12 321.52" fill="#3258b6"/>
   </g>
   <g transform="matrix(.10331 0 0 .10331 -425.74 734.84)">
    <path d="m874.06 279.68-13.767-13.773c-2.534-2.535-6.643-2.535-9.178 0l22.944 22.955c2.55-2.54 2.55-6.65 0.01-9.18z" fill="#ff72b1"/>
   </g>
   <g transform="matrix(.10331 0 0 .10331 -425.74 734.84)">
    <path d="m875.06 287.86-22.944-22.955c-0.422-0.423-1.106-0.423-1.529 0l-5.589 5.591c-0.422 0.423-0.422 1.108 0 1.53l22.944 22.956c0.423 0.422 1.107 0.422 1.529 0l5.589-5.592c0.43-0.42 0.43-1.11 0-1.53z" fill="#c6c6c6"/>
   </g>
   <g transform="matrix(.10331 0 0 .10331 -425.74 734.84)" fill="#fafafa">
    <polygon points="809.82 307.22 806 334 832.76 330.18" fill="#fafafa"/>
   </g>
   <g transform="matrix(.10331 0 0 .10331 -425.74 734.84)">
    <polygon points="807.34 323.63 805 335 816.36 332.66" fill="#567fe5"/>
   </g>
   <g transform="matrix(.12759 0 0 .12759 -393.03 742.39)">
    <path d="m840 187c-18 0-33 5.908-33 28 0 3.313 2.687 6 6 6h54c3.313 0 6-2.687 6-6 0-22.09-15-28-33-28z" fill="#44b2b6"/>
    <polygon points="835 204 841 195 826 189" fill="#fff"/>
    <polygon points="846 204 855 189 840 195" fill="#fff"/>
    <circle cx="840" cy="177" r="18" fill="#f1cdb0"/>
    <path d="m858.61 173.17c-0.127-0.618-0.283-1.226-0.469-1.821-2.4-7.73-9.61-13.35-18.14-13.35-0.564 0-1.12 0.036-1.672 0.084-0.42 0.04-0.837 0.096-1.249 0.163-0.062 0.01-0.123 0.019-0.184 0.028-0.976 0.172-1.927 0.417-2.849 0.725h-0.096c-7.209 2.423-12.47 9.043-12.898 16.962 1.836-0.44 3.753-1.189 5.624-2.27 3.179-1.835 5.6-4.254 6.995-6.692h0.628c3.091 6.405 11.406 11 21.2 11 1.18 0 2.329-0.087 3.46-0.215 0.011-0.263 0.04-0.521 0.04-0.785 0.01-1.31-0.12-2.59-0.38-3.83z" fill="#ab6125"/>
   </g>
   <rect x="-279.05" y="764.02" width="35.86" height="5.3033" ry=".75761" fill="#ffa000" fill-rule="evenodd"/>
   <rect x="-332.63" y="764.02" width="35.86" height="5.3033" ry=".75761" fill="#ffa000" fill-rule="evenodd"/>
  </g>
 </g>
</svg>
