<?xml version="1.0" encoding="utf-8"?>
<svg xmlns="http://www.w3.org/2000/svg" xmlns:xlink="http://www.w3.org/1999/xlink" version= "1.1" width="1618px" height="1198px" viewBox="-1 90 1618 1198">
<g id="layer1">
<g style="fill:rgb(0,174,199); fill-opacity:1.0; stroke-linejoin: miter">
<path d="M-1.0009993,88.96329C-1.2756532,88.96329,-1.5390581,89.072395,-1.7332678,89.2666C-1.9274775,89.46081,-2.036583,89.72422,-2.0365827,89.99887L-2.0355828,1287.9998C-2.0355823,1288.5717,-1.5719366,1289.0353,-1.0000005,1289.0353L1617.0009,1289.0363C1617.2755,1289.0363,1617.539,1288.9272,1617.7332,1288.733C1617.9274,1288.5388,1618.0364,1288.2754,1618.0364,1288.0007L1618.0354,89.99987C1618.0354,89.42793,1617.5718,88.96429,1616.9999,88.96429L-1.0009993,88.96329 Z"/>
</g>
<g style="fill:rgb(249,253,255); fill-opacity:0.19215687; stroke-linejoin: miter">
<path d="M818.4311,336.18756L751.79663,340.31006Q621.06146,353.37885,510.6051,405.0015Q455.37628,430.8125,405.21738,466.26343Q376.39847,478.5357,267.28976,593.162Q65.28766,849.49866,106.87573,1159.7312L1529.8225,1159.72Q1571.6465,849.4864,1369.5684,593.1556Q1158.5122,345.32556,818.4311,336.18756 Z"/>
</g>
<g style="fill:rgb(17,68,95); fill-opacity:0.99607843; stroke-linejoin: miter">
<path d="M458.8468,1093.2792L871.8084,1093.2803L1284.77,1093.2805Q1284.77,1128.6812,1284.77,1164.0812Q871.8084,1164.0817,458.8468,1164.082Q458.8468,1128.681,458.8468,1093.2792"/>
</g>
<g style="fill:rgb(17,68,95); fill-opacity:0.99607843; stroke-linejoin: miter">
<path d="M978.05414,800.0196L1041.6543,800.02L1105.2551,800.0205Q1105.2551,968.3965,1105.2554,1136.7723Q1041.6548,1136.7726,978.05414,1136.7734Q978.05414,968.3965,978.05414,800.0196"/>
</g>
<g style="fill:rgb(17,68,95); fill-opacity:0.99607843; stroke-linejoin: miter">
<path d="M833.513,884.1081L960.7142,884.10913L960.7143,1136.7723L833.513,1136.7733L833.513,884.1081"/>
</g>
<g style="fill:rgb(17,68,95); fill-opacity:0.99607843; stroke-linejoin: miter">
<path d="M688.97217,951.63354L752.57275,951.6344L816.1733,951.6349Q816.1734,1044.2036,816.1734,1136.7722Q752.57275,1136.7725,688.9723,1136.7733Q688.9723,1044.2036,688.97217,951.63354"/>
</g>
<g style="fill:rgb(17,68,95); fill-opacity:0.99607843; stroke-linejoin: miter">
<path d="M1122.5947,701.30383L1186.1953,701.30414L1249.7959,701.3048Q1249.7964,919.03845,1249.7964,1136.7722Q1186.1956,1136.7726,1122.595,1136.7734Q1122.595,919.03845,1122.5947,701.30383"/>
</g>
<g style="fill:rgb(17,68,95); fill-opacity:1.0; stroke-linejoin: miter">
<path d="M685.41455,895.6225L685.41455,895.6237L685.4144,895.62354L673.84985,888.3916L873.5913,758.2474C875.11456,757.2549,876.9459,756.848,878.74615,757.1018L878.74615,757.10254L972.61786,770.346L967.14777,771.7082L1184.7527,613.5908C1188.1118,611.1499,1192.8137,611.89435,1195.2544,615.2535C1197.6953,618.6126,1196.9509,623.3142,1193.5918,625.7552L1193.5918,625.7564L975.9869,783.87305C974.40936,785.01935,972.4482,785.50775,970.51715,785.2355L970.51715,785.23627L876.6454,771.9911L881.8002,770.84595L682.0586,900.99C679.60626,902.5878,676.44965,902.6172,673.9679,901.06555C671.48627,899.5136,670.13074,896.6626,670.4938,893.7584L670.4938,893.75916L670.4939,893.7574C671.00903,889.63715,674.7666,886.7143,678.8869,887.2296C683.0072,887.7447,685.9298,891.50226,685.41455,895.6225 Z"/>
</g>
<g style="fill:rgb(17,68,95); fill-opacity:0.99607843; stroke-linejoin: miter">
<path d="M1165.4856,599.7678L1165.4856,599.7681L1199.3743,648.93634Q1203.1941,628.17194,1207.0139,607.4076L1165.4856,599.7678"/>
</g>
<g style="fill:rgb(17,68,95); fill-opacity:0.99607843; stroke-linejoin: miter">
<path d="M544.4313,1007.0752L608.03174,1007.0757L671.63245,1007.0763Q671.63257,1075.0626,671.63257,1143.0481Q608.03186,1143.0486,544.4313,1143.0491Q544.4313,1075.0626,544.4313,1007.0752"/>
</g>
<g style="fill:rgb(15,59,82); fill-opacity:0.99607843; stroke-linejoin: miter">
<path d="M458.6496,1161.102L871.7802,1161.103L1284.9109,1161.1033Q1284.9109,1163.8676,1284.9109,1166.6315Q871.7802,1166.632,458.6496,1166.6324Q458.6496,1163.8674,458.6496,1161.102"/>
</g>
<g style="fill:rgb(15,59,82); fill-opacity:0.99607843; stroke-linejoin: miter">
<path d="M458.77014,1093.5767L1285.0315,1093.5778L1285.0315,1099.1063L458.77014,1099.107L458.77014,1093.5767"/>
</g>
<g style="fill:rgb(15,59,82); fill-opacity:0.99607843; stroke-linejoin: miter">
<path d="M1122.4414,701.2789L1127.9265,701.2794L1133.4114,701.2799Q1133.4114,898.4224,1133.4114,1095.5652Q1127.9268,1095.5654,1122.4417,1095.5662Q1122.4414,898.42267,1122.4414,701.2789"/>
</g>
<g style="fill:rgb(15,59,82); fill-opacity:0.99607843; stroke-linejoin: miter">
<path d="M976.7165,800.0405L982.2015,800.0408L987.68646,800.0412Q987.6866,948.3716,987.6866,1096.7017Q982.2016,1096.7021,976.71686,1096.7025Q976.71674,948.3716,976.7165,800.0405"/>
</g>
<g style="fill:rgb(15,59,82); fill-opacity:0.99607843; stroke-linejoin: miter">
<path d="M833.0677,884.0032L838.5526,884.0036L844.0376,884.00415Q844.0376,989.9879,844.0377,1095.9714Q838.5528,1095.9723,833.0678,1095.9728Q833.0677,989.9879,833.0677,884.0032"/>
</g>
<g style="fill:rgb(15,59,82); fill-opacity:0.99607843; stroke-linejoin: miter">
<path d="M644.796,485.77563L644.796,485.77588L644.796,485.77606L644.796,485.77588L644.796,485.77563L644.796,485.77588L644.796,485.77606Q644.796,485.77588,644.796,485.77563"/>
</g>
<g style="fill:rgb(15,59,82); fill-opacity:0.99607843; stroke-linejoin: miter">
<path d="M686.2301,951.45886L691.7151,951.4591L697.20013,951.45935Q697.20013,1023.0912,697.20013,1094.7228Q691.7152,1094.7235,686.2303,1094.7239Q686.2301,1023.0912,686.2301,951.45886"/>
</g>
<g style="fill:rgb(15,59,82); fill-opacity:0.99607843; stroke-linejoin: miter">
<path d="M581.15125,737.30505L581.1512,737.30524L581.1512,737.3058L581.1512,737.30524L581.15125,737.30505L581.1512,737.30524L581.1512,737.3058Q581.1512,737.30524,581.15125,737.30505"/>
</g>
<g style="fill:rgb(15,59,82); fill-opacity:0.99607843; stroke-linejoin: miter">
<path d="M544.3497,1006.9369L549.8347,1006.93726L555.31964,1006.93774Q555.31964,1053.1788,555.31964,1099.4199Q549.8347,1099.4203,544.3497,1099.4207Q544.3497,1053.1787,544.3497,1006.9369"/>
</g>
<g style="fill:rgb(0,0,0); fill-opacity:1.0; stroke-linejoin: miter">
<path d="M624.42377,554.70123Q616.7289,552.7016,611.17816,555.54706Q610.40356,555.7098,602.9336,560.69403Q593.933,564.79474,593.2953,565.6373Q589.9669,568.0759,588.4316,572.13824Q583.8054,585.4854,587.49744,603.7312Q588.3068,607.59625,589.54205,611.75226L598.4657,619.9347Q619.2187,610.6411,626.89825,603.4713Q630.8441,599.97894,634.41846,594.8922Q636.58386,592.053,642.85706,580.77203Q643.8986,579.0644,644.97485,577.69916Q647.4354,574.45197,651.3157,572.7062Q650.6385,567.52905,644.2777,563.4843Q634.6086,557.34875,624.45734,554.70953"/>
</g>
<g style="fill:rgb(255,197,173); fill-opacity:1.0; stroke-linejoin: miter">
<path d="M717.5214,696.1961Q715.13074,696.4805,712.7577,698.1373Q710.5484,699.5844,705.33984,704.4989L699.4514,705.32007L701.0424,719.6443Q707.53,721.79816,710.17377,721.6234Q712.7261,721.6288,715.6773,718.9974Q719.0746,721.7582,721.348,721.3344Q724.4896,721.0418,728.8958,715.00555Q733.51733,708.3147,733.16364,704.8387Q732.92346,703.2126,731.3247,702.34045Q729.91296,701.51166,726.12524,700.9653Q729.5164,700.41534,729.76385,699.37366Q730.0994,697.5837,727.91644,696.18445Q726.877,695.5557,724.92444,695.56055Q724.31287,695.5607,723.4214,695.6368L717.5242,696.19543"/>
</g>
<g style="fill:rgb(255,255,255); fill-opacity:1.0; stroke-linejoin: miter">
<path d="M700.2376,704.8605L695.32227,705.22296L693.406,728.0116Q697.71454,729.1523,699.3687,728.6775Q701.3702,728.2139,702.01556,725.99554Q702.6827,723.7877,702.2704,718.924Q701.96533,714.84106,700.24115,704.8812"/>
</g>
<g style="fill:rgb(0,0,0); fill-opacity:1.0; stroke-linejoin: miter">
<path d="M518.442,669.3781L518.42645,669.40436Q504.7555,691.8903,502.924,692.41736Q502.9052,692.4231,502.88745,692.42676Q502.0362,692.599,503.58044,687.82385Q504.84387,683.80853,509.69098,671.4399L518.442,669.3781 Z M558.2806,601.824Q556.59546,602.16516,554.9734,602.97406Q554.92883,602.98004,554.882,602.9895Q552.5048,603.471,544.43726,613.0247Q541.36035,615.5922,537.79504,617.36926Q494.15698,633.2195,492.19104,635.7583Q481.5227,641.8493,478.10028,651.4475Q476.28094,656.2138,475.27368,662.898L467.44568,719.41895Q466.72552,728.2935,473.578,726.9059Q475.39435,726.5381,477.74274,725.44934L477.74396,725.44995L454.63516,761.4165L462.14197,766.94916Q461.84998,774.436,463.18842,783.00665Q471.41284,822.9882,470.96942,823.69586Q472.08246,831.6254,472.2439,844.0759L425.30148,833.85034Q419.34576,827.1262,402.56973,820.9197Q393.30878,830.8793,392.59067,848.75Q391.87112,858.4629,392.26584,879.83545Q446.117,888.3272,490.23584,900.65186Q498.69513,902.39154,503.7968,901.7325Q504.48718,901.6637,505.1471,901.53Q512.91705,899.95654,516.44604,889.44Q520.3612,879.7352,529.3968,830.8378L559.3664,855.8674L538.4439,962.3882L538.908,962.58105L590.1258,964.67554L609.5567,860.1081Q611.30884,847.1122,605.4397,835.3744Q600.2742,824.0346,579.296,798.22003L579.2982,798.2202L586.28705,797.3237L564.4239,743.86414L598.4819,707.8366Q625.02997,728.93427,641.59894,732.67255Q649.3507,734.6762,659.9549,734.90027Q698.33734,732.64514,701.15735,733.7461L698.2627,703.526L646.70526,701.052L622.0285,677.02496Q623.675,658.8667,617.85645,637.0979L589.74286,608.4935L582.4921,613.5557Q569.57294,603.0357,564.21,602.0218L563.9546,601.95746Q561.0333,601.2665,558.2806,601.824 Z"/>
</g>
<g style="fill:rgb(255,255,255); fill-opacity:1.0; stroke-linejoin: miter">
<path d="M605.71313,618.8042Q602.2892,615.3115,595.4181,610.78503L593.6482,612.9274Q598.19763,618.12134,600.2355,624.93933Q602.65784,632.74005,603.9997,646.05615Q606.48376,668.965,600.8823,687.4622Q610.4846,679.2382,613.9302,673.91046Q617.36316,668.9312,617.77716,661.65125Q617.9111,659.7859,617.9082,657.47534L617.6464,646.008Q617.61426,642.7342,617.76764,636.3108Q610.47656,623.2852,605.762,618.8527"/>
</g>
<g style="fill:rgb(255,197,173); fill-opacity:1.0; stroke-linejoin: miter">
<path d="M644.5738,576.43195Q635.1202,577.53345,633.5296,579.9595Q631.8919,581.7634,632.5599,587.1721L627.0773,591.45233L625.3728,599.8243L621.1115,599.9563Q619.1994,592.76886,617.9633,591.29285Q616.5366,589.3968,614.061,590.5525Q611.0649,591.9213,609.82745,594.3818Q608.9228,595.9151,609.3924,600.97314Q609.2296,601.89185,608.4261,602.78595Q607.4079,604.44586,595.00793,612.3956L616.5261,637.5872L626.6504,631.39844L633.6652,629.8891Q641.17017,632.30835,642.7599,630.8915Q644.6377,629.8602,643.2429,622.3689Q645.64325,619.026,645.53754,617.8202Q645.61053,616.40454,643.20593,614.7315Q646.4763,614.6504,647.07245,613.5092Q647.89246,612.45844,647.3533,608.2171Q653.01624,608.2275,652.78766,606.57996Q652.84735,605.766,651.79913,604.0189L646.46875,595.98584L646.3883,593.73315Q647.6818,591.0057,647.3084,588.05023Q647.0913,585.205,644.58453,576.47095"/>
</g>
<g style="fill:rgb(255,197,173); fill-opacity:1.0; stroke-linejoin: miter">
<path d="M481.76044,719.72174Q477.99652,731.3062,477.39514,734.86145Q477.08252,736.5104,477.07874,737.7933Q477.02625,738.3572,477.35236,741.0848Q477.38934,741.6517,477.33984,742.2496Q477.30072,742.7606,477.1336,743.56274Q476.21027,747.36755,476.17737,747.8167Q475.94696,749.2236,476.0492,750.126Q476.1958,751.54364,477.17352,752.3423Q478.25177,753.19714,479.59406,753.03784Q479.67816,753.02527,479.7599,753.0087Q481.97583,752.56,482.53577,749.21985Q482.89362,747.3133,482.85828,744.47845L482.85956,744.4788Q483.3899,744.78326,483.83783,745.0044L483.8368,745.00555Q483.97406,745.7461,484.04828,746.54205Q484.0929,747.0254,484.11328,747.497L484.18494,749.64026Q484.21185,750.14966,484.25928,750.53986Q484.30634,750.9276,484.37842,751.22546L484.3775,751.2263Q483.82635,753.31635,483.5918,754.45624Q483.2094,756.24963,483.12402,757.57324Q482.9433,760.22076,484.0489,761.341Q484.90588,762.25244,486.32593,762.41266Q487.0056,762.46924,487.61584,762.34564Q488.14453,762.2386,488.62122,761.99664L488.62262,761.99725Q487.95062,764.73456,488.3307,765.81604Q488.58563,766.7451,489.41125,767.2208Q490.25922,767.6978,491.3698,767.5409Q491.4494,767.5276,491.52808,767.51166Q493.3567,767.1415,494.79077,765.1651Q495.30646,764.4687,495.82666,763.54425L495.82782,763.5449Q497.74042,764.5512,499.20703,764.25415Q499.88086,764.11786,500.4605,763.7061Q503.03876,761.93,504.60748,757.45654Q506.66327,752.21906,505.02124,740.68494L505.02014,740.68585Q505.59967,740.46533,506.02777,740.08356L506.02948,740.08417Q511.30334,746.0323,513.8793,747.1256Q515.70496,747.99554,517.31366,747.6696Q517.5586,747.62006,517.7982,747.543Q519.74695,746.7678,519.4681,745.24445Q519.2999,744.58057,518.432,743.8116L517.61584,743.1363Q515.2328,741.3603,514.92267,741.0891Q514.0728,740.4061,513.3609,739.71014Q512.1736,738.54456,511.38702,737.31915Q509.0338,733.69257,507.6671,727.101L507.66534,727.0935L507.56952,727.36505L507.56976,727.3659Q507.30792,726.8307,506.92114,726.4408Q505.55127,724.86316,500.57416,723.58356Q496.2976,722.39105,481.77643,719.802L481.76697,719.8001L481.76648,719.8072L481.76666,719.8081L481.76355,719.7379L481.7616,719.72156 Z"/>
</g>
<g style="fill:rgb(0,0,0); fill-opacity:1.0; stroke-linejoin: miter">
<path d="M540.3367,961.09436L536.91565,967.1704L533.76,966.281Q531.92145,971.58606,531.341,974.5477Q529.42053,981.3888,533.239,995.6411L561.83527,991.5571L561.15,986.0144Q576.6369,988.06177,584.3551,988.0548Q593.2129,988.14734,600.37415,986.35376Q616.6006,982.0016,618.7549,974.91614Q619.3254,970.76416,613.91907,970.01355Q612.2421,969.79236,609.2692,970.07886Q609.1994,969.999,598.3731,971.5592Q595.86804,971.86523,593.78534,971.9579Q589.16016,972.18054,586.02844,971.1704Q579.2169,969.02673,574.3981,960.67664L540.4714,961.09265"/>
</g>
<g style="fill:rgb(0,0,0); fill-opacity:1.0; stroke-linejoin: miter">
<path d="M391.594,807.6569Q387.4733,805.79504,381.66037,810.6178Q378.38937,813.15546,371.18884,820.80176L373.9421,823.1474Q355.66125,832.6168,347.99985,842.6194Q340.09885,852.6609,335.31982,865.64545Q331.82236,875.28284,336.2394,876.3876Q342.27686,878.8376,344.59717,877.4793Q345.9482,876.915,347.3975,875.67596Q355.01627,868.4945,356.54935,867.485Q359.27466,865.3653,362.4917,863.75574Q365.34726,862.31055,369.30826,860.87103Q388.38602,854.8134,395.8097,851.6339L406.02615,822.109Q395.70728,808.92365,391.63937,807.6747"/>
</g>
<g style="fill:rgb(0,0,0); fill-opacity:1.0; stroke-linejoin: miter">
<path d="M615.56696,637.52686L609.79425,646.1682L614.5622,650.92896Q615.8043,658.0121,613.9859,662.93427Q612.91797,666.2066,609.8273,670.88135L606.9909,674.94867L600.5602,683.4555Q599.3851,685.0425,598.8243,685.9591Q597.5256,687.9929,598.11365,688.6773Q598.8504,689.5364,603.1707,689.121Q606.03064,688.7039,608.27545,687.20105Q612.4662,684.4593,614.7026,677.64343Q618.3359,666.42224,619.1299,648.8813Q619.2636,644.11273,618.43726,640.8607L615.5764,637.53784"/>
</g>
<g style="fill:rgb(250,87,87); fill-opacity:0.07450981; stroke-linejoin: miter">
<path d="M619.4091,618.10144L616.1297,637.27496L632.73956,629.5408Q626.88043,626.1923,624.38135,623.975Q621.9815,621.91754,619.4191,618.11584"/>
</g>
<g style="fill:rgb(0,0,0); fill-opacity:0.99607843; stroke-linejoin: miter">
<path d="M650.0168,584.11945L650.0169,584.11975L650.0169,584.11975L650.0168,584.11945"/>
</g>
<g style="fill:rgb(0,0,0); fill-opacity:0.99607843; stroke-linejoin: miter">
<path d="M572.976,606.7815L572.97595,606.7818L572.97626,606.7828L572.976,606.7815"/>
</g>
</g>
</svg>