<?xml version="1.0" encoding="utf-8"?>
<!-- Generator: Adobe Illustrator 24.0.0, SVG Export Plug-In . SVG Version: 6.00 Build 0)  -->
<svg version="1.1" id="Слой_1" xmlns="http://www.w3.org/2000/svg" xmlns:xlink="http://www.w3.org/1999/xlink" x="0px" y="0px"
	 viewBox="0 0 6062.42 5323.53" style="enable-background:new 0 0 6062.42 5323.53;" xml:space="preserve">
<style type="text/css">
	.st0{fill:#F4C7A1;}
	.st1{fill:#F1B480;}
	.st2{fill:#FEB152;}
	.st3{fill:#CEE2EB;}
	.st4{fill:none;stroke:#00D040;stroke-miterlimit:10;}
	.st5{fill:#B55947;}
	.st6{fill:#F7DAC2;}
	.st7{fill:#A4D4EB;}
	.st8{fill:#7CBDE0;}
	.st9{stroke:#000000;stroke-miterlimit:10;}
	.st10{fill:#B8CBE1;}
	.st11{fill:none;}
</style>
<polygon class="st0" points="2185.27,1539.05 2229.87,1691.05 2229.87,2066.86 2282.67,2255.86 2546.06,2234.21 2578.37,1895.32 
	2583.76,1703.24 2560.44,1573.81 "/>
<polygon class="st1" points="2185.27,1539.05 2229.87,1691.05 2229.87,1860.44 2229.87,2066.86 2254.51,2186.35 2282.67,2255.86 
	2546.06,2234.21 2583.76,1947.54 2583.76,1703.24 2560.44,1573.81 2342.84,1573.81 "/>
<path class="st2" d="M4143.67,4780.23c46.94,41.19,83.6,15.91,240.11,17.38c96.37,0.91,88.4,10.55,255.12,17.38
	c158.38,6.49,188.03-1.29,217.6-17.38c87.64-47.68,125.97-141.89,135.06-165.1c40.82-104.17,19.31-202.64,0-295.44
	c-14.28-68.6-25.8-123.96-60.03-173.79c-75.44-109.82-209.65-117.76-300.14-121.65c-326.03-14.02-642.12,172.09-630.29,269.37
	c3.71,30.49,36.77,28.76,60.03,86.89c27.28,68.17-1.99,111.04,7.5,199.86C4070.84,4618.41,4082.39,4726.46,4143.67,4780.23z"/>
<path class="st2" d="M1389.91,4137.21c-19.75,28.43-42.57,61.82-60.03,112.96c-23.66,69.31-23.03,128.96-22.51,156.41
	c2.94,154.63,77.19,260.31,90.04,278.06c11.09,15.33,62.34,84.01,157.57,130.34c92.44,44.97,118.02,16.2,367.67,26.07
	c117.51,4.65,236.05-8.79,352.66,8.69c42.93,6.44,72.95,13.07,97.54-8.69c50.72-44.88,20.79-159.62,0-373.65
	c-26.53-273.07,4.76-265.69-22.51-330.2c-120.78-285.76-661.84-258.18-825.38-139.03
	C1447.05,4054.95,1389.91,4137.21,1389.91,4137.21z"/>
<path class="st3" d="M3048.17,1473.79c176.09-81.57,337.52-20.83,390.18,0c48.85,19.32,90.47,35.77,135.06,78.21
	c83.97,79.89,56.89,136.16,165.08,347.58c37.26,72.81,22.17,201.93-22.51,260.68c-39.88,52.44-61.52,100.38-75.03,130.34
	c-38.25,84.76-41.63,140.67-52.52,173.79c-60.47,183.76-560.88,299.39-735.34,52.14c-49.8-70.58-55.71-180.29-67.53-399.72
	c-11.66-216.53-16.81-340.81,52.52-460.54C2905.46,1539.9,3005.02,1493.78,3048.17,1473.79z"/>
<path class="st4" d="M120.05,1017.69"/>
<path class="st5" d="M1479.95,1195.87c9.06-68.4,23.4-167.58,45.02-286.75c44.11-243.12,68.67-294.65,90.04-330.2
	c67.21-111.82,160.1-160.8,202.59-182.48c27.01-13.78,187.23-92.23,375.17-26.07c104.37,36.74,165.63,99.89,262.62,199.86
	c112.59,116.05,207.65,214.04,255.12,373.65c54.44,183.07-2.23,284.14,75.03,364.96c58.94,61.65,147.68,61.17,210.1,60.83
	c139.62-0.76,199.66-64.78,285.13-17.38c49.54,27.47,83.37,79.58,75.85,95.08c-13.1,27.03-150.19-60.58-180.9-16.87
	c-30.53,43.46,71.17,177.44,45.02,208.55c-22.52,26.79-105.26-73.61-195.09-43.45c-60.54,20.33-90.67,88.67-97.54,104.27
	c-54.6,123.86,14.74,262.99,22.51,278.06c43.9,85.12,106.4,117.17,97.54,139.03c-12.32,30.41-128.56-43.19-180.08,8.69
	c-64.18,64.62,50.77,244.67-15.01,338.89c-55.45,79.43-221.34,72.07-285.13-17.38c-40.13-56.28-24.54-123.58-7.5-295.44
	c29.68-299.39,44.52-449.09,0-521.37c-109.18-177.27-511.19-117.1-547.75,17.38c-17.35,63.81,60.49,96.91,120.05,286.75
	c13.97,44.53,15.5,61.23,52.52,330.2c30.63,222.56,42.97,308.39,30.01,312.82c-20.99,7.17-81.42-208.27-112.55-199.86
	c-36.04,9.74,11.36,307.57-30.01,321.51c-49.17,16.56-140.76-395.77-240.11-391.03c-163.28,7.79-202.93,1135.16-330.15,1138.32
	c-33.63,0.84-72.45-153.88-150.07-460.54c-51.98-205.39-77.98-308.08-90.04-417.09c-13.24-119.61-34.65-313.08,15.01-538.75
	c42.72-194.15,94.97-216.38,150.07-434.47C1468.5,1433.01,1478.3,1291.66,1479.95,1195.87z"/>
<path class="st6" d="M2222.79,1565.12c27.62,15.59,33.87,1.85,120.05,8.69c85.17,6.76,88.82,20.95,127.56,17.38
	c60.72-5.6,129.47-47.63,165.08-112.96c11.3-20.74,22.1-49.04,7.5-286.75c-11.06-180.07-20.69-219.92-37.52-260.68
	c-31.72-76.86-75.39-124.04-90.04-139.03c-50.74-51.93-137.07-78.77-307.64-130.34c-3.69-1.12-72.49-15.23-210.1-43.45
	c-50.04-10.26-75.51-15.09-97.54,0c-42.39,29.03-47.29,103.81-52.52,199.86c-2.43,44.57-1.64,78.84,7.5,208.55
	c14.9,211.21,21.3,240.54,45.02,260.68c38.47,32.66,69.41-3.91,135.06,34.76c37.01,21.8,58.72,52.01,90.04,95.58
	C2188.1,1504.85,2180.4,1541.2,2222.79,1565.12z"/>
<path class="st7" d="M1359.89,3763.56c6.89-44.87,19.05-124.07,75.03-191.17c51.42-61.63,111.34-78.91,172.58-95.58
	c48.7-13.26,210.03-54.4,382.67,34.76c109.86,56.74,89.56,96.65,210.1,173.79c124.79,79.86,159.41,45.31,375.17,121.65
	c144.12,51,141.61,70.99,375.17,165.1c63.04,25.4,139.67,56.28,232.61,86.89c348.51,114.81,547.22,101.07,562.76,191.17
	c7.11,41.22-33.43,50.16-67.53,147.72c-53.67,153.56,8.12,241.96-30.01,304.13c-77.89,126.98-461.55-36.48-600.27-95.58
	c-338.55-144.24-468.8-285.19-652.8-295.44c-43.2-2.41-123.17,0.51-210.1-52.14c-64.24-38.91-69.78-70.3-127.56-86.9
	c-57.73-16.58-79.25,7-187.59,8.69c-22.07,0.34-69.59,0.12-127.56-8.69c-75.61-11.49-87.36-25.2-225.1-60.83
	c-76.85-19.88-77.7-16.78-90.04-26.07C1324.74,4007.79,1358.28,3774.06,1359.89,3763.56z"/>
<path class="st0" d="M1780.09,1791.05c52.21-36.98,162.18,18.15,195.09,104.27c14.54,38.05,8.44,67.49,0,156.41
	c-7.67,80.82-7.36,162.48-15.01,243.31c-19.81,209.35,2.7,479.84,30.01,808.12c12.44,149.51,20.95,214.76,7.5,321.51
	c-7.01,55.64-39.91,316.92-135.06,338.89c-96.03,22.18-223.26-206.82-277.63-382.34c-80.3-259.27-34.74-508.84-15.01-616.95
	c14.08-77.15,13.4-39.84,82.54-321.51c55.63-226.65,83.45-339.98,90.04-408.41C1757.11,1883.36,1740.61,1819.01,1780.09,1791.05z"/>
<polygon class="st2" points="1389.91,4137.21 1517.47,4111.14 1539.16,4384.45 1539.16,4649.89 1539.16,4710.72 1600,4817.28 
	1456.61,4749.14 1322,4517.04 1329.88,4250.17 "/>
<polygon class="st2" points="4870.96,4102.44 4803.97,4198.04 4803.97,4384.45 4803.97,4597.75 4837.47,4749.14 4856.49,4797.61 
	4991.55,4632.51 5001.17,4384.45 4931.53,4163.28 "/>
<path class="st0" d="M2395.37,4311h154.73h277.17l85.31,192l-8.76,135.62c-34.42,24.03-68.84,48.06-103.26,72.1
	c-48.86,18.99-97.72,37.98-146.58,56.98c-58.19-6.89-116.37-13.78-174.56-20.67c-28.01,6.89-56.03,13.78-84.04,20.67V4311z"/>
<polygon class="st0" points="3693.46,4667.27 3866.04,4710.72 4083.64,4749.14 4083.64,4667.27 4072.28,4480.88 3656,4558.82 "/>
<polygon class="st0" points="1771.84,1791.62 1801.85,1592.33 1838.19,1365.83 1891.89,1287.63 2026.95,1322.39 2116.99,1417.97 
	2079.48,1661.28 1966.93,1895.89 1886.77,1803.46 "/>
<polygon class="st0" points="2222.79,1565.12 2248.24,1779.36 2248.24,1964.84 2248.24,2103.87 2301.04,2234.21 2489.16,2234.21 
	2546.06,2234.21 2583.76,1838.79 2560.44,1573.81 2470.4,1591.19 2342.84,1573.81 "/>
<polygon class="st8" points="2428.92,3763.56 3931.14,3765.06 3183.23,4059 "/>
<polygon class="st6" points="2072.72,2686.07 2072.72,2929.37 2072.72,3262.8 2027.7,3455.75 1990.18,3511.57 1974.6,2912.05 
	1952.67,2473.37 1953.53,2409.24 2034.25,2599.79 2072.72,2642.62 "/>
<polygon class="st3" points="2060.9,2547.02 2072.72,2321.11 2185.27,2520.97 2170.26,3685.36 1960.17,3511.57 2042.71,3190.06 "/>
<polygon class="st9" points="1922.65,4384.45 1922.65,4554.3 2004.51,4554.3 1990.18,4384.45 "/>
<rect x="2072.72" y="4384.45" class="st9" width="90.04" height="169.86"/>
<rect x="4316.25" y="4429.08" class="st9" width="67.53" height="125.23"/>
<polygon class="st9" points="4451.31,4384.45 4451.31,4554.3 4541.35,4554.3 4507.78,4384.45 "/>
<path class="st5" d="M2094.07,1522.08l12.8-83.03c26.13,33.33,52.27,66.67,78.4,100c14.87,50.66,29.73,101.33,44.6,151.99v169.39
	v206.42l24.64,119.49l28.16,69.52l-52.8,43.45l-32.96,156.73L2154.69,2141l-40.32-241.41l-71.52-162l26.5-55.24L2094.07,1522.08z"/>
<polygon class="st0" points="3981.91,2271.42 3746.8,1985.59 3611.08,2263.21 "/>
<polygon class="st8" points="2185.27,3694.62 2520.79,3710.07 2849.6,3725.21 3135.27,3725.21 3367.77,3749.07 3696.57,3749.07 
	3868.17,3765.06 3120.26,4059 "/>
<polygon class="st10" points="3931.14,3765.06 4083.64,3703.87 4261.28,3703.87 4271.23,3593.37 4130.41,3659.29 3796.5,3694.62 "/>
<polygon class="st0" points="3648.44,4702.03 3931.14,4722.21 3796.5,4540.33 3656,4558.82 "/>
<polygon class="st0" points="2391.56,4311 2479.41,4747.02 2391.56,4720.22 2335.34,4311 "/>
<polygon class="st2" points="4143.67,4780.23 4083.64,4749.14 4068.63,4597.75 4165.88,4631.27 "/>
<polygon class="st10" points="2125.24,3688.95 2173.21,2281.26 2226,2237.81 4188.69,2281.26 4241.21,2281.26 4271.23,2324.71 
	4271.23,3593.37 4180.54,3688.95 3956.02,3723.51 3856.1,3768.65 "/>
<polygon class="st0" points="4295.49,3589.77 4130.41,3659.29 4032.86,3624.53 3972.84,3589.77 3931.14,3455.75 3931.14,3370.29 
	4032.86,3329.09 4295.49,3329.09 "/>
<polygon class="st0" points="4261.28,3366.82 4175.49,3284.26 4128.51,3234.49 4070.48,3237.48 4101.2,3305.48 4170.55,3423.68 "/>
<path class="st3" d="M2800.55,4250.17c-7,50.3,52.88,65.17,90.04,156.41c64.48,158.34-31.03,321.82,15.01,356.27
	c28.49,21.32,77.5-32,150.07-78.21c79.09-50.36,136.43-60.6,382.67-95.58c435.67-61.89,413.1-52.11,487.72-69.52
	c76.98-17.95,225.65-53.51,405.19-139.03c240.78-114.69,257.08-185.86,457.71-243.31c73.22-20.96,126.3-27.31,195.09-78.21
	c37.01-27.38,144.04-106.58,172.58-260.68c22.05-119.09-5.42-268.62-97.54-356.27c-84.31-80.22-186.22-73.83-255.12-69.52
	c-150.98,9.46-271.55,100.46-322.65,139.03c-15.34,11.58-45.73,48.65-97.54,78.21c-32.48,18.53-53.54,24.05-93.79,39.1
	c-66.12,24.72-93.58,41.33-146.32,65.17c-98.23,44.41-177.35,55.47-247.61,86.89c-34.5,15.43-170.57,68.22-442.7,173.79
	c-138,53.54-272.78,118.66-412.69,165.1C2907.7,4163.97,2809.22,4187.83,2800.55,4250.17z"/>
<polygon class="st10" points="3856.1,3768.65 3931.14,3765.06 4180.54,3688.95 4130.41,3659.29 3833.49,3713.97 "/>
<polygon class="st6" points="1960.17,1305.2 2026.95,1322.39 2116.99,1417.97 2162.76,1305.2 1960.17,1197.99 "/>
<rect class="st11" width="6062.42" height="5323.53"/>
</svg>
